<?xml version="1.0" encoding="utf-8"?>
<!-- Generator: Adobe Illustrator 26.2.1, SVG Export Plug-In . SVG Version: 6.00 Build 0)  -->
<svg version="1.1" id="Superhero_font" xmlns="http://www.w3.org/2000/svg" xmlns:xlink="http://www.w3.org/1999/xlink" x="0px"
	 y="0px" viewBox="0 0 419.5 297.6" style="enable-background:new 0 0 419.5 297.6;" xml:space="preserve">
<style type="text/css">
	.st0{fill:#231F20;}
	.st1{opacity:0.8;fill:#FFFFFF;}
</style>
<g>
	<g>
		<path d="M38.9,109c0.1,0.1,0.2,0.1,0.4,0.3c0.1,0,0.2,0.1,0.3,0.3c0.1-0.1,0.2,0.1,0.3,0.2c0.2,0.2,0.3,0.3,0.4,0.4
			c0-0.3,0.3,0.3,0.3,0.4c0.2,0.2,0.3,0.6,0.4,0.9c0,0.2,0.1,0.2,0.1,0.3c0,0.1,0,0.2,0,0.3c0,0.2,0,0.4,0,0.5
			c0.1,0,0.1-0.1,0.1,0.1c-0.1,0.1-0.1,0.2-0.1,0.2c0,0,0,0,0,0c0.1,0,0,0,0,0c0,0,0.1,0.1,0,0.1c0,0.1,0,0.3,0.1,0.4
			c0,0.4-0.1,0-0.1,0.3c0.2,0.2-0.1,0.2-0.1,0.5c0,0,0,0.1,0,0.2c0,0,0,0.1,0,0c0,0.1-0.1,0.2-0.1,0.3c-0.1,0.2,0,0.2-0.1,0.3
			c-0.2,0.1-0.1-0.4-0.2-0.1c-0.1,0.2,0-0.2-0.2-0.1c0,0,0,0-0.1,0c0.1,0.1,0,0.1,0,0c-0.2,0-0.3,0.1-0.2-0.1c-0.2-0.1,0,0.1-0.2,0
			c0.2,0-0.2-0.3-0.1-0.1c-0.1,0-0.2-0.1-0.3-0.1c-0.1,0-0.2-0.3-0.2,0c-0.3,0,0.1-0.3-0.1-0.4c-0.2,0.1,0-0.1-0.1-0.1
			c-0.2,0-0.3,0.1-0.4,0.1c-0.1,0-0.3,0-0.2-0.2c-0.3,0,0.1,0,0-0.2c0.2-0.4,0.3-0.9,0.3-1.3c0-0.1,0.1-0.6-0.1-0.5
			c0,0.3,0-0.1-0.1,0.1c-0.2,0.1-0.2,0.3-0.3,0.4c-0.2,0.2-0.3,0.2-0.4,0.4c-0.3,0.2,0,0.2-0.2,0.4c-0.1,0.1-0.2,0.2-0.2,0.3
			c-0.1,0.1,0,0.2-0.1,0.3c-0.1,0.1-0.2,0.2-0.2,0.4c0,0.1,0,0.1,0,0.1c0,0,0,0,0,0c0,0,0,0,0,0c-0.1,0.2-0.1,0.2-0.1,0.3
			c-0.1,0-0.1,0.2-0.2,0.3c0,0.1,0,0.1,0,0.2c0,0,0,0,0,0c0,0.1-0.1,0.1-0.2,0.3c-0.1,0.2,0.1,0.1-0.1,0.3c0,0.1,0,0.4-0.1,0.3
			c-0.1,0.3,0,0.1,0,0.3c-0.1,0.1-0.2,0.3-0.2,0.4c0,0-0.2,0.3-0.1,0.4c0,0,0,0.1,0,0.1c0.1,0,0,0,0,0c0,0.1,0,0.3-0.1,0.3
			c0,0,0,0.1,0,0.1c0,0,0,0,0,0c0,0.1,0,0.1,0,0c0,0.1,0,0.2,0,0.3c-0.1,0.1-0.1,0.2,0,0.3c-0.2,0.1,0,0-0.1,0.2c0.2,0,0,0,0.1,0.3
			c-0.1,0.1,0.1,0.4,0,0.6c0.1,0.3-0.2,0.4-0.1,0.6c0,0.2-0.1,0.2,0.1,0.3c-0.1,0.1-0.1,0.3,0.2,0.2c0.8-0.3,1.4-0.9,1.9-1.6
			c0.2-0.3,0-0.2-0.1-0.2c0,0.1-0.3,0-0.2,0.1c0,0.2-0.1-0.1-0.1-0.1c-0.2,0,0,0,0-0.1c0.4-0.1,0.3-0.2,0-0.1
			c-0.2,0,0.1-0.1,0.2-0.1c0-0.1-0.1-0.2-0.1-0.3c0.1-0.1-0.4-0.1-0.1-0.2c0.1-0.1-0.1-0.2-0.1-0.3c0-0.1,0-0.2-0.1-0.2
			c0.1-0.2,0-0.2,0-0.3c0.1-0.2,0.4-0.1,0.2-0.4c-0.1-0.1-0.2-0.2-0.3-0.3c-0.1-0.1-0.1-0.3,0.1-0.3c-0.2-0.1,0.1-0.1,0.2-0.1
			c1.4-0.3,2.9-0.4,4.3-0.5c0.2,0,0.3,0.2,0.6,0.1c-0.3,0.2,0.2,0,0.1,0.2c-0.2,0.1-0.1,0.1-0.1,0.2c0.1,0-0.2,0.2,0,0.1
			c0.1,0.3-0.1,0.1-0.1,0.3c0.1-0.1,0.3,0.1,0.2,0.2c-0.2,0.1,0,0.3-0.1,0.5c0.1,0.2-0.2,0.2-0.1,0.3c0.1,0,0,0.2-0.1,0.3h0
			c0,0,0,0,0,0c0,0,0,0.1,0,0.1c-0.1-0.2-0.1,0.2-0.3,0c0,0,0-0.2-0.2-0.1c0.1,0.2-0.1,0.2-0.3,0.2c0,0-0.1,0-0.1,0c0,0,0,0-0.1-0.1
			c0,0,0.1,0.1,0.1,0.1c-0.1,0-0.2,0.1-0.2,0c-0.2-0.2-0.1,0.2-0.2,0.2c-0.1,0,0,0.2-0.2,0.2c-0.1,0.2-0.1,0.2-0.1,0.3
			c0.1,0.2,0,0.4,0,0.1c-0.3,0.2-0.1,0.2,0,0.3c0.1,0.4-0.4,0.2-0.2,0.2c0.2,0,0-0.3-0.1,0c-0.2,0.2-0.3,0.4-0.4,0.6
			c-0.1,0.1,0,0.3-0.1,0.5c-0.3,0.1-0.2-0.1-0.3,0c0,0.1,0.3,0.1,0.1,0.2c0-0.1-0.1,0.2,0,0.2c0.1-0.2,0.3-0.4,0.5-0.6
			c0.3-0.4,0.1,0-0.1,0.2c-0.1,0.1-0.1,0.4-0.4,0.5c0,0.2-0.1,0-0.1,0.2c-0.1,0.1-0.3,0.1-0.3,0.3c-0.1,0.1-0.2,0.1-0.2,0.2
			c-0.3,0.1-0.1,0.1-0.3,0.2c0-0.1-0.1,0-0.2,0c0,0,0,0,0,0c0,0,0,0,0,0c0.1,0,0,0.1-0.2,0.2c0.1-0.2-0.2-0.1-0.3,0
			c-0.1,0.2-0.1,0-0.3,0.1c-0.3,0-0.2,0.3-0.4,0.1c-0.2,0,0.2-0.1,0.1-0.1c0.1,0,0.2-0.1,0.3-0.1c0-0.1,0.5,0,0.4-0.2
			c0.3-0.1,0.1-0.1,0.1,0c0.2-0.1,0.4-0.2,0.5-0.3c0.1-0.1,0.4-0.2,0.4-0.2c0.1-0.1,0.3-0.2,0.3-0.3c-0.2,0.1,0-0.1-0.1-0.1
			c-0.2,0.1-0.2,0.1-0.3,0.2c-0.2,0.1-0.4,0.4-0.6,0.4c-0.1,0.1-0.1,0-0.2,0.1c-0.1,0-0.3,0.1-0.5,0.2c-0.3,0-0.3,0.2-0.3,0.3
			c-0.1,0-0.1,0-0.1,0c0,0,0.1,0,0.1-0.1c-0.1-0.1,0-0.1,0.1-0.2c-0.1-0.2-0.2,0.1-0.3,0c-0.3,0-0.5,0-0.5,0.1
			c0.1,0.1,0.4,0.2,0.5,0.1c0.1,0.1,0.2,0.1,0,0.1c0.2,0.1-0.2,0-0.1,0.1c-0.1-0.1-0.2,0-0.3-0.1c-0.2-0.1-0.4-0.2-0.5-0.2
			c-0.3-0.3,0.5,0.2,0.1-0.1c-0.2-0.1-0.5-0.1-0.8-0.3c-0.3-0.2-0.4,0.2-0.5,0c-0.1,0.1-0.3-0.3-0.4-0.2c-0.7-0.5-0.9-1.4-0.9-2.2
			c0-2.1,0.7-4.1,1.6-6c0.6-1.3,1.3-2.6,2.4-3.5c0.4-0.2,0.6-0.4,0.9-0.4c0,0,0.1,0,0.1,0C38.6,108.8,38.7,108.9,38.9,109z
			 M36.1,116.9C36.1,116.9,36.1,116.9,36.1,116.9C36.1,116.9,36.1,116.9,36.1,116.9z M36.7,114.5C36.5,114.9,36.8,114.6,36.7,114.5
			C36.7,114.5,36.7,114.5,36.7,114.5z M37.1,114.2C37.1,114.2,37.1,114.2,37.1,114.2C37.1,114.2,37.1,114.2,37.1,114.2z M37.9,112.5
			c0,0.1,0.1-0.2,0.1-0.2C37.9,112.4,37.9,112.4,37.9,112.5z M38.5,111.6c-0.3,0.3,0.1,0.1,0.1-0.1
			C38.5,111.6,38.5,111.6,38.5,111.6z M39.6,119.9C39.6,119.9,39.6,119.9,39.6,119.9C39.6,119.9,39.8,120,39.6,119.9z M39.9,119.8
			C39.9,119.8,39.9,119.8,39.9,119.8C39.9,119.8,39.9,119.8,39.9,119.8C39.9,119.8,39.8,119.8,39.9,119.8
			C39.9,119.7,39.9,119.7,39.9,119.8z M39.9,119.8C39.9,119.8,39.9,119.8,39.9,119.8C39.9,119.8,39.9,119.8,39.9,119.8z M40.9,118.7
			c0,0.1-0.1,0.1-0.1,0.2c-0.1,0.1-0.1,0.3-0.2,0.3c-0.1,0.2-0.3,0.3-0.3,0.4c0,0.1-0.2,0.1,0-0.1c0.2-0.2,0.3-0.5,0.4-0.6
			C40.7,119,40.8,118.8,40.9,118.7C40.8,118.7,40.8,118.7,40.9,118.7C40.9,118.7,40.9,118.8,40.9,118.7z M40.6,114.8
			C40.7,115,40.4,115,40.6,114.8C40.7,114.8,40.6,114.8,40.6,114.8z M41,118.1c0,0,0,0.2-0.1,0.2C40.8,118.5,40.9,118.1,41,118.1
			C41,118.1,41,118.1,41,118.1z M41,118.5C41.1,118.5,40.9,118.6,41,118.5C41,118.5,41,118.5,41,118.5z M41,117.8
			C41,117.8,41,117.8,41,117.8C41,117.8,41,117.8,41,117.8C41,117.8,41,117.8,41,117.8C41.1,117.9,41.3,117.8,41,117.8
			C41,117.8,41,117.8,41,117.8z M42.1,117.8C42.1,117.8,42.2,117.8,42.1,117.8C42.2,117.8,42.1,117.8,42.1,117.8z M42.5,115.9
			C42.5,115.9,42.5,115.9,42.5,115.9C42.6,115.9,42.5,115.9,42.5,115.9C42.5,115.9,42.4,115.8,42.5,115.9
			C42.5,115.8,42.5,115.9,42.5,115.9z"/>
		<path d="M42.5,117.9C42.6,117.9,42.5,118.1,42.5,117.9c-0.1-0.1-0.5-0.1-0.2-0.1C42.4,117.9,42.5,117.8,42.5,117.9z M47.3,108.7
			c1.1,0.1,2.4,0.4,2.9,1.4c0.1-0.1,0.1,0.2,0.2,0.3c0,0,0,0,0,0.1c0,0,0,0,0,0c0,0,0,0,0,0c0,0.2,0.1,0.4,0.1,0.6
			c-0.1,0.1,0,0.4-0.1,0.6c0,0.2-0.1,0.4-0.1,0.6c0,0,0,0,0,0c0,0,0,0,0,0c0,0,0,0,0,0c-0.1,0.1-0.1,0.2-0.2,0.2
			c0,0.1,0,0.3-0.1,0.5c0,0.4-0.3,0.5-0.4,0.8c-0.1,0.3-0.3,0.7-0.5,0.9c-0.2,0.2-0.1,0.3-0.3,0.4c-0.2,0.3-0.3,0.3-0.3,0.5
			c0,0-0.1-0.1-0.3,0.2c0.1,0.3-0.1,0-0.3,0.3c-0.2,0.1-0.5,0.2-0.4,0.4c1,0.2,2,0.3,2.9,0.7c0.2,0.1,0.4,0.3,0.3,0.3
			c0.1,0,0,0.2,0.1,0.2c0.2-0.3,0,0.2,0.2,0.1c0,0.2-0.2,0.1-0.2,0.2c0,0.1,0,0.3-0.1,0.4c-0.3,0.2,0,0,0,0.2c0.1,0.1-0.3,0.1,0,0.2
			c-0.2-0.1-0.1-0.1-0.2,0.1c0.1-0.1-0.2,0-0.1,0.2c-0.1,0.1-0.2,0-0.1,0.3c-0.2,0-0.3,0-0.5,0c-0.1-0.1-0.2,0.3-0.4,0.2
			c0.3,0,0.1-0.2,0.1-0.1c-0.1-0.1-0.2,0-0.2-0.1c0-0.1-0.2,0-0.3-0.1c-0.1-0.1-0.2,0.1,0,0.1c0.2,0,0.1,0.2,0,0.1
			c-0.4,0,0.2,0-0.2-0.1c-0.4-0.1,0.1,0,0,0.1c0,0-0.3,0-0.4,0c-0.2-0.1-0.2-0.1-0.4-0.1c-0.1-0.1-0.3-0.1-0.4-0.1
			c0,0-0.3-0.2-0.2-0.1c-0.1,0.1-0.2-0.1-0.3,0c-0.1-0.1-0.3,0-0.5-0.1c-0.1,0-0.3,0-0.3-0.1c-0.2,0-0.4-0.1-0.5-0.1
			c-0.2,0-0.6-0.1-0.5,0.2c0.2-0.1,0,0.4,0,0.3c-0.1,0.1,0,0.2,0.1,0.4c-0.2,0.2-0.2,0.2-0.2,0.4c0,0.2,0,0.2,0,0.3
			c0.1,0.2-0.1,0.2-0.1,0.3c0.1,0.1-0.1,0.1,0,0.2c0,0-0.1,0.3,0,0.4c-0.1,0.2-0.1,0.1-0.1-0.1c0.1-0.2,0.1-0.3,0-0.5
			c0,0.2-0.1,0.5-0.1,0.6c-0.1,0.1-0.1,0.4-0.1,0.6c-0.1,0.5,0-0.3-0.1-0.1c-0.1,0.1-0.2,0.1-0.2-0.1c0,0,0.3,0,0.1-0.2
			c-0.1-0.3-0.2,0.3-0.2-0.1c-0.1,0.2-0.1,0.1-0.2,0c-0.1,0.3-0.1,0-0.3,0.1c-0.1-0.1-0.3,0.1-0.3-0.1c0.2-0.2-0.2-0.2-0.2-0.1
			c0,0-0.1,0.1-0.3,0.1c0,0.3-0.2-0.2-0.2-0.1c0,0.3-0.2,0-0.1,0c0.1-0.5,0.1-1.1,0.2-1.6c-0.1-0.4,0.3-1.1,0-1.3
			c-0.1,0-0.2,0-0.3,0c-0.2-0.2,0.3,0,0.5-0.1c0-0.1-0.3-0.1-0.4-0.1c0-0.1-0.3-0.1-0.5-0.1c-0.2-0.2,0.2,0,0.3-0.1
			c0-0.2,0.4,0.1,0.1-0.1c0.1-0.1,0-0.2-0.1-0.2c-0.1-0.1,0.3-0.1,0.1-0.2c0-0.1,0-0.1-0.1-0.4c0,0,0,0,0,0c0,0,0,0,0,0c0,0,0,0,0,0
			c0-0.1-0.1-0.2,0-0.2c0.1,0,0.2,0,0.1-0.1c0.1-0.2,0.3-0.1,0.2-0.2c0.1-0.2-0.1,0.1-0.2-0.1c0-0.1,0.1-0.1-0.1-0.2
			c0.1-0.1,0.1-0.2,0.2-0.1c0.1-0.1,0-0.1,0-0.2c0.1-0.3,0.4-0.2,0.7-0.1c0.3-1.1,0.5-2.2,0.7-3.4c0.1-0.2,0.2-1.1,0-0.7
			c-0.1,0.1-0.4,0.1-0.4,0c-0.1-0.2-0.2,0.2-0.4,0c0,0.1-0.4,0,0-0.1c0,0,0.1-0.1,0.1-0.1c0,0-0.1,0,0-0.1c0,0,0,0.1,0,0.1
			c0.1,0,0.1-0.1,0-0.2c0.1-0.1-0.1-0.1-0.1-0.2c-0.3,0,0-0.1-0.1-0.2c0-0.2,0-0.1-0.1-0.2c0.2-0.1,0.1-0.1,0.1-0.2
			c-0.1-0.2,0.1-0.2,0.3-0.2c0.1-0.1,0.2-0.4,0.1-0.3c0-0.2-0.5,0-0.4-0.3c0,0,0.1-0.2,0.3-0.2c0.9-0.3,1.8-0.4,2.7-0.4
			C46.7,108.6,47,108.6,47.3,108.7z M43.4,120.8c-0.2,0.2,0.2-0.1,0.1,0C43.5,120.8,43.5,120.8,43.4,120.8z M43.6,110.8
			c-0.1,0.2,0.2,0.1,0.1,0C43.7,110.8,43.6,110.8,43.6,110.8z M44.3,111.1c-0.1,0.1-0.3,0.1-0.1,0.1
			C44.2,111.1,44.6,111.3,44.3,111.1C44.4,111.1,44.4,111.1,44.3,111.1C44.3,111.1,44.3,111.1,44.3,111.1
			C44.3,111.1,44.3,111.1,44.3,111.1z M44.3,111.1C44.3,111.1,44.3,111.2,44.3,111.1C44.3,111.1,44.3,111.1,44.3,111.1z M45.1,121.3
			c0.2,0.1,0,0.1,0,0.2c0.3,0-0.1,0.1,0,0.3c-0.2,0.2-0.1,0.1-0.1,0C44.9,121.7,45,121.4,45.1,121.3C45,121.3,45,121.3,45.1,121.3
			C45.1,121.3,45.1,121.3,45.1,121.3z M46.7,110.9c-0.1-0.1-0.1,0.1-0.1,0.2c0,0.2,0,0.3-0.1,0.4c0.2,0.1-0.1,0.1,0,0.3
			c0.1,0,0.1,0.1,0,0.3c-0.1-0.3-0.1,0.3-0.2,0.4c0,0.1-0.2,0.4,0,0.4c-0.1,0.1-0.1,0-0.2,0.2c0.1,0,0.1,0.1,0.1,0.2c0,0,0,0,0,0
			c0,0,0,0,0,0c0,0.1-0.1,0.2-0.1,0.2c0.3,0.2,0,0.1-0.1,0.3c0,0,0,0,0,0.1c0.1,0,0,0,0,0c0,0.1,0,0.1-0.1,0.2c0,0,0,0,0.1,0
			c0,0.1,0,0.1-0.1,0.1c0,0.1,0,0.1-0.1,0.2c1.1-0.5,2-1.2,2.9-2c0.1-0.2,0.6-0.6,0.3-0.6c-0.1,0-0.1-0.1-0.2-0.1c0,0,0,0,0,0
			c-0.1,0-0.1-0.1-0.2-0.1c-0.1,0.1-0.3,0.1-0.2,0c0.1,0,0.3-0.2,0.1-0.3c-0.2-0.1-0.1,0-0.2,0.1c0.1-0.1-0.1-0.2-0.2-0.2
			c-0.1,0-0.4-0.2-0.6-0.2c-0.1,0.1-0.3-0.1-0.5,0C47.1,110.8,46.8,110.9,46.7,110.9C46.7,110.8,46.7,110.9,46.7,110.9z M48.1,118.8
			C48.2,118.9,48.2,118.8,48.1,118.8C48.1,118.8,48.1,118.8,48.1,118.8z M48.3,111.3C48.4,111.4,48.2,111.4,48.3,111.3
			C48.2,111.3,48.2,111.3,48.3,111.3z M48.4,118.8C48.3,118.9,48.5,118.8,48.4,118.8C48.4,118.8,48.4,118.8,48.4,118.8z M48.5,111.7
			C48.8,112,48.4,111.8,48.5,111.7C48.5,111.7,48.5,111.7,48.5,111.7z M48.5,118.9c0.1,0,0.3,0.1,0.2-0.1
			C48.8,118.9,48.3,118.7,48.5,118.9z M49.2,111.8C49,112.1,49,111.8,49.2,111.8C49.2,111.8,49.2,111.8,49.2,111.8z"/>
		<path d="M57.7,108c0,0,0.2,0.1,0.2,0.1c-0.1-0.1,0.2,0,0,0.2c0.1-0.1,0.1,0.2,0.2,0.2c0.1,0.1,0.3,0.2,0.2,0.3
			c0.1,0.1,0.1,0,0.2,0c0.1,0,0,0.2,0.2,0.3c0.2-0.1,0,0.2,0.1,0.1c0.1,0.1,0.3,0.2,0.2,0.4c0,0.1,0.2-0.1,0.1,0.3
			c0,0.1,0,0.2-0.1,0.3c0,0.2,0,0.3,0.1,0.5c-0.1,0.5,0-0.4-0.1,0.1c0,0.2-0.1,0.3-0.1,0.5c0,0,0,0,0,0.1c0,0,0,0,0,0
			c0,0,0,0.1,0,0.2c-0.1,0-0.1,0.4-0.1,0.5c-0.1,0.2,0,0.2-0.1,0.4c-0.1,0.2,0,0.5-0.1,0.6c0,0,0,0,0,0c0,0,0,0,0,0
			c0,0.1,0,0.1,0,0.1c0,0.1-0.1,0.3-0.1,0.4c-0.1,0.1,0,0.4-0.1,0.4c-0.1,0.1,0,0.1,0,0.2c0,0.3-0.1,0.6-0.1,0.8
			c-0.1,0.5-0.2,1-0.3,1.5c-0.1,0.4,0,0.7-0.1,1.1c0,0.3-0.1,0.4-0.1,0.8c0,0.3,0,0.6-0.1,0.9c0,0.2,0,0.3-0.1,0.5c0,0.3,0,0.7,0,1
			c0,0.1,0.1,0.3-0.1,0.5c0.1,0,0,0.3,0,0.3c-0.2,0.3,0-0.2-0.2-0.2c0.1-0.2,0,0-0.1-0.2c-0.1,0.1-0.1,0.2-0.1,0
			c-0.1,0.3-0.1,0-0.2,0c0-0.2-0.1,0.2-0.1,0c-0.1-0.2-0.2,0.2-0.2,0.1c-0.1-0.2-0.2-0.1-0.3-0.1c-0.2,0.2-0.3-0.9-0.5-0.6
			c-0.1-0.2-0.2,0.1-0.2,0.1c-0.1,0.1-0.1,0.4-0.3,0.5c0-0.1-0.1,0-0.1,0.1c-0.2,0.1-0.1,0-0.1-0.1c-0.1,0.1-0.3,0.3-0.6,0.3
			c-0.1-0.1-0.1-0.1-0.3-0.1c0,0.1-0.1,0.1,0,0c-0.1,0-0.2,0-0.3-0.1c-0.2-0.1-0.3,0-0.4-0.1c-0.1,0.1-0.1-0.1-0.1-0.1
			c-0.2-0.1-0.1-0.1-0.4-0.2c-0.3,0-0.2-0.1-0.5-0.1c-0.3,0.2,0,0-0.3-0.1c-0.1,0,0.1,0.2-0.2,0c-0.8-0.6-1-1.7-1-2.7
			c0.1-2.5,0.8-5,1.8-7.4c0.1-0.5,0.6-1.1,0.5-1.5c0.2-0.2,0.1-0.1,0.1-0.2c0.1-0.2,0.3-0.1,0.3,0c0.2-0.1,0-0.3,0.3-0.1
			c0.1,0,0.2,0.3,0.3,0.3c-0.1,0.3,0,0.2,0,0.4c0.1-0.3,0,0.2,0.1,0c0,0.2-0.1,0.3,0.1,0c-0.1-0.3,0.3-0.1,0.1,0
			c0.2,0.1-0.2,0.2,0,0.2c0.1-0.1,0.1,0,0.2,0.1c0.1,0.1,0.1,0.2,0.3,0.2c0,0,0,0,0,0c0,0,0,0,0,0c0,0.2,0.1,0.4-0.1,0.6
			c-0.1,0.1-0.3,0.4-0.1,0.5c-0.1,0.2-0.1,0.2-0.1,0.5c-0.1,0.4-0.1-0.1-0.2,0.2c0.2,0.1,0,0.1,0,0.3c0.2,0.1-0.1,0.5,0,0.3
			c-0.1,0.1-0.1,0.1,0,0.3c0,0-0.1,0-0.2,0.1c-0.1,0.1,0,0.2,0,0.3c-0.1,0.2,0,0.1,0,0.3c-0.2-0.1-0.1,0-0.2,0.1c0,0,0,0,0,0
			c0,0,0,0,0,0c-0.1,0.2,0,0.2-0.1,0.3c0,0.1-0.2,0.3-0.1,0.5c0.1,0.1,0.1,0.3,0,0.3c-0.1-0.2-0.1,0.2-0.1,0.2
			c-0.2,0.1,0.1,0.2-0.1,0.3c0.1,0.2,0,0-0.1,0.2c0.1-0.2,0.1,0.3,0,0.4c0,0.1-0.1,0.3-0.1,0.5c-0.1,0.2-0.1,0.3-0.1,0.4
			c0,0.1-0.2,0.3,0,0.2c0,0,0,0.1,0,0.1c0,0,0,0,0,0c0,0,0,0.1,0,0.1c0,0.1,0,0.1-0.1,0.1c0,0,0,0,0,0c0.1,0,0,0,0,0
			c0,0,0,0.1,0.1,0.1c-0.1,0.1-0.1,0.3-0.1,0.4c-0.1,0.1,0,0.2,0,0.3c0.1,0.1-0.1,0.5,0.1,0.7c-0.1,0.1,0.1,0.2,0,0.4
			c0,0.2-0.1,0.4,0.1,0.2c0.4-0.3,0.7-0.7,1-1c0.3-0.4,0.8-0.8,0.9-1.3c0.2-1.8,0.6-3.7,1.1-5.5c0.3-1,0.5-2.1,0.9-3
			c0-0.3,0.1,0.2,0.1,0C57.6,108.2,57.5,108.2,57.7,108C57.7,108,57.7,108,57.7,108z M52.4,120.5C52.5,120.5,52.3,120.5,52.4,120.5
			C52.4,120.5,52.4,120.5,52.4,120.5z M53.3,120.6c0.1,0.1,0.1,0.1,0.2,0.1C53.9,121,53.6,120.6,53.3,120.6
			C53.3,120.6,53.3,120.6,53.3,120.6z M53.4,116.7C53.4,116.7,53.4,116.7,53.4,116.7C53.4,116.7,53.4,116.7,53.4,116.7z M53.6,115.5
			c0.1-0.2,0,0,0-0.1C53.5,115.4,53.5,115.5,53.6,115.5z M55,120.5c-0.1,0-0.3,0.1-0.4,0.2c-0.2,0-0.2,0-0.3,0c-0.1,0-0.1,0-0.2,0
			c0,0,0,0,0,0c0,0,0,0,0,0c0,0,0,0-0.1,0c0,0-0.1-0.1-0.1,0c0.1,0.2,0.4,0.2,0.6,0.2c-0.2,0.2,0,0,0.1-0.1c0,0.2,0.4,0,0.6-0.1
			c0.3-0.2-0.1,0-0.1-0.3C55.1,120.4,55.1,120.5,55,120.5z M56.2,104.8c0.2,0.1,0.3,0.4,0.3,0.5c0,0.1,0.2,0.2,0.3,0.3
			c-0.1,0.1,0.1,0.1,0.1,0.2c-0.1-0.1-0.1,0,0,0.1c0.1,0.1,0.1,0.2,0.1,0.3c0,0.2-0.1,0.3,0,0.4c0,0.1-0.1,0.1-0.1,0.2
			c0.1,0.1-0.3,0.1-0.2,0.3c0.1,0.1-0.1,0,0,0.1c0,0.1-0.2,0.2-0.3,0.3c0,0.1-0.1,0.1-0.1,0.2c-0.1,0.1-0.3,0.2-0.4,0.3
			c0,0,0.3-0.3,0.3-0.3c0.2-0.1,0-0.1-0.1,0c-0.1,0,0,0,0,0c0,0,0,0,0,0c0,0.1-0.2,0.1-0.1,0c0.1-0.1-0.3,0.1-0.1,0.1
			c0.1-0.1,0,0.1-0.2,0.2c-0.1,0,0.2-0.1,0-0.1c-0.1,0,0,0-0.1,0.1c-0.1-0.1-0.2,0.1-0.3,0.1c0,0-0.3-0.3-0.3-0.1
			c0,0.1-0.2-0.2-0.3-0.2c-0.1,0.1,0.1,0.3,0.1,0.4c0,0.2-0.1,0-0.1-0.1c-0.1,0-0.1-0.3-0.2-0.2c-0.1,0-0.1-0.2,0-0.1
			c0-0.2-0.2-0.4-0.3-0.6c-0.3-0.1-0.4-0.4-0.4-0.7c0-0.8,0.7-1.4,1.4-1.5c0.2,0,0.3-0.1,0.5-0.1C55.9,104.7,56.1,104.7,56.2,104.8z
			 M54.1,120.7C54.1,120.7,54.1,120.7,54.1,120.7C54.1,120.7,54.1,120.7,54.1,120.7z M54.5,112.4C54.5,112.4,54.5,112.4,54.5,112.4
			C54.5,112.4,54.5,112.4,54.5,112.4z M54.5,120.5C54.4,120.6,54.6,120.5,54.5,120.5C54.5,120.5,54.5,120.5,54.5,120.5z M54.9,109.8
			c0.2,0.2,0.1-0.1,0.1-0.2C54.7,109.8,54.6,109.8,54.9,109.8z M55.1,109.7C55.1,109.7,55.1,109.7,55.1,109.7
			C55.1,109.7,55.1,109.7,55.1,109.7z M55.4,108.1c-0.1,0-0.3,0.1-0.4,0C55.2,108.1,55.5,108.2,55.4,108.1
			C55.6,108.1,55.5,108.1,55.4,108.1z M55.6,108C55.6,108.1,55.5,108,55.6,108C55.6,108,55.6,108,55.6,108z M55.7,108
			C55.6,108,55.7,108,55.7,108C55.8,107.9,55.7,108,55.7,108z M56,107.7C56,107.6,56,107.6,56,107.7C56,107.6,56,107.6,56,107.7z
			 M59.6,105c0.1,0,0.1,0.2,0.2,0.2c0.1,0.1,0.2,0.3,0.2,0.4c0.1,0.1,0,0.1,0.1,0.2c0,0.2,0,0.4-0.1,0.6c0,0.1-0.1,0.1-0.1,0.2
			c0.1,0.2-0.3,0.2-0.1,0.3c-0.1,0,0,0.1-0.1,0.1c0,0-0.2,0.1-0.1,0c0.1-0.2,0-0.1,0,0c0,0.1-0.3,0.3-0.2,0.3c0,0,0,0.1,0.1-0.1
			c0.2,0.1-0.2,0.2-0.2,0.2c0.1-0.1,0.1-0.2,0-0.1c-0.1-0.1,0.1,0,0.1-0.1c-0.1,0-0.1,0.1-0.2,0.1c0.1,0,0,0.2-0.1,0.1
			c0.1-0.2-0.2,0-0.2,0c-0.1,0.1,0.1,0.1,0.1,0.1c-0.2,0.2-0.3-0.1-0.4,0c-0.1,0.1-0.1-0.2-0.2-0.1c0,0-0.1,0-0.1-0.1
			c-0.1-0.1-0.1,0-0.1,0.1c0.1,0.1,0.1,0.4,0,0.2c-0.1-0.1,0-0.3,0-0.4c-0.2-0.1-0.3-0.4-0.4-0.6c-0.2-0.2-0.3-0.4-0.3-0.7
			c0-0.3,0-0.6,0.2-0.9c0.2-0.4,0.7-0.8,1.1-0.8C59.1,104.2,59.5,104.5,59.6,105z M58.3,107.8c0,0.1,0.1,0,0.1,0.1
			c0.1-0.1,0.4-0.1,0.3,0c0,0.1-0.1,0-0.2,0.1C58.4,108,58,107.9,58.3,107.8C58.3,107.8,58.3,107.8,58.3,107.8z M58.4,113.4
			L58.4,113.4C58.4,113.4,58.5,113.5,58.4,113.4z M59,107.7c0,0.1-0.3,0.3-0.2,0.1C58.9,107.8,58.9,107.8,59,107.7
			c0.1,0,0.1-0.1,0.2-0.2C59.3,107.7,59,107.8,59,107.7z M59.6,107.3c-0.1,0-0.1-0.1,0-0.1C59.6,107.2,59.7,107.2,59.6,107.3z"/>
		<path d="M65.6,107.7c0.1,0.1,0.2,0,0.3,0.2c0,0,0.2,0.3,0.3,0.2c0,0.2,0.2,0.1,0.3,0.3c0.2,0.1,0.3,0.1,0.4,0.2
			c-0.1,0.1,0,0.1,0.1,0.1c-0.2,0,0.1,0.1,0.1,0.2c0.2,0.1,0,0.2,0.2,0.3c0,0.1,0.1,0.3,0.1,0.5c0,0.3,0.1,0.7,0.1,0.9
			c-0.1,0.1-0.2,0.5-0.2,0.7c-0.1,0.3-0.1,0.4-0.1,0.5c0,0,0,0.1,0,0.1c0,0,0,0,0,0c-0.1,0,0,0,0,0c0,0.1-0.1,0.2,0,0.1
			c0,0.2,0,0.3-0.1,0.5c-0.1,0-0.2,0.1-0.2,0.1c-0.2,0.3-0.1,0,0-0.2c-0.1,0.2,0.1-0.1,0.1-0.1c0,0,0,0-0.1,0c0,0,0-0.1,0-0.1
			c0,0.1,0,0.1,0,0.1c-0.1,0-0.2,0-0.1-0.1c0,0,0,0-0.1,0c0,0,0,0,0,0c0,0.1,0.1,0.3-0.1,0.2c-0.1,0.1-0.2,0.1-0.1,0.2
			c-0.1,0-0.1,0.1,0.1,0.1c0.1,0,0.2-0.1,0.2,0.1c0.3-0.3,0,0.4-0.1,0.1c-0.2,0.2,0-0.1-0.3,0.1c0,0.3-0.3,0.2-0.3,0.3
			c-0.1,0.1-0.2,0.4-0.1,0c0.2,0,0.1-0.1,0-0.1c-0.1,0.1,0,0.1-0.1,0.2c-0.1,0.1-0.2,0.2-0.3,0.3c-0.1-0.1,0,0.3-0.1,0.2
			c-0.3,0.1-0.2,0.3,0.1,0.4c0.4,0.3,0.8,0.7,1,1.2c0.1,0.3,0.3,0.9,0.2,1.1c-0.1,0,0,0.3,0,0.3c0,0.2-0.2-0.2-0.1,0.1
			c0.2-0.1-0.1,0.3,0,0.3c-0.1,0.3-0.1,0.2-0.1,0.4c0,0.2-0.1,0.1-0.1,0.3c0,0-0.2,0.2,0,0.1c-0.1,0.2-0.3,0.4-0.3,0.5
			c0,0-0.1,0.1-0.1,0.1c0,0,0,0,0,0c0,0,0,0,0,0c-0.1,0.1-0.2,0.2-0.3,0.3c0,0.2-0.4,0.3-0.5,0.4c-0.1,0-0.3,0.3-0.3,0.1
			c-0.1,0.1-0.1,0-0.2,0.1c0,0.1-0.1,0.1,0,0c0,0,0,0-0.1,0c0.1,0-0.2,0.3-0.2,0.1c-0.1,0-0.1,0-0.1,0c0,0.2-0.2,0.1,0,0
			c-0.1,0-0.3,0-0.3-0.1c0,0,0,0,0,0c0,0,0.1,0,0.1,0c0.2,0,0.4,0,0.5-0.1c0,0.2,0.3-0.1,0.5-0.1c0.2-0.1,0.4-0.2,0.5-0.4
			c0.2-0.1,0.4-0.4,0.5-0.6c0,0,0,0,0,0c0,0,0,0,0,0c0,0,0,0,0,0c-0.1,0.2-0.2,0.2-0.3,0.4c-0.2,0.1-0.2,0.2-0.3,0.2
			c0.1,0.1-0.1,0.1-0.2,0.2c0,0.1-0.4,0.2-0.1,0c0-0.2-0.3,0.1-0.5,0.1c-0.2,0.2-0.3,0-0.4,0.1c-0.2,0-0.2-0.2-0.4-0.1
			c-0.2,0,0,0.1,0.2,0.1c0,0.1-0.4-0.1-0.6-0.1c-0.2-0.1-0.9-0.2-0.5,0c0.3,0.2,0.3,0.1,0.4,0.2c-0.1,0.2,0.5,0.1,0.6,0.3
			c-0.3,0.1-0.2,0.1-0.5-0.1c0-0.1,0,0.1-0.1,0.1c-0.1-0.2-0.5-0.3-0.6-0.5c0.3,0-0.2-0.4-0.4-0.5c-0.1-0.2-0.4-0.2-0.4,0.1h0
			c0,0,0,0,0,0c0,0,0,0,0,0.1c-0.1,0,0,0.4-0.1,0.3c-0.1,0.1,0.1,0.3,0,0.3c-0.1,0.1-0.1,0.4-0.1,0.6c0,0.2,0,0.2-0.1,0.3
			c0.1,0.1-0.1,0.1,0-0.1c0.1-0.1,0-0.6-0.1-0.3c-0.1,0.1-0.1,0.1-0.1,0.2c-0.2,0-0.2,0.3-0.2,0.4c-0.1,0.1-0.3,0.2-0.1-0.1
			c-0.3,0,0,0-0.2,0.1c-0.1-0.1-0.3,0-0.3,0c-0.1-0.2-0.1,0.1-0.1,0.1c0-0.3-0.3,0.3-0.2-0.1c-0.1-0.1-0.3,0-0.1,0.1
			c-0.1,0.2-0.2-0.2-0.3,0c-0.3-0.1,0.1,0,0-0.2c0-0.2-0.1,0-0.1,0c0-0.1-0.1,0.2-0.3,0c0-0.1-0.1,0.1,0,0.1c0,0.1-0.1,0-0.2-0.1
			c-0.1,0.2-0.2,0.1-0.2-0.1c0.1-1.4,0.5-2.9,0.8-4.3c0.7-2.3,1.5-4.7,2.8-6.8c0.6-0.9,1.3-1.9,2.4-2
			C65.2,107.6,65.4,107.6,65.6,107.7z M61.2,120.1c0,0.1,0.2-0.1,0.1-0.1h0C61.2,120,61.3,120.1,61.2,120.1z M61.5,119.9
			C61.5,119.9,61.6,119.9,61.5,119.9c0.1,0,0.1,0,0.1-0.1C61.6,119.8,61.6,119.8,61.5,119.9c0.1-0.1-0.1-0.1-0.1-0.2
			C61.2,119.9,61.6,119.8,61.5,119.9z M61.4,119.6C61.4,119.6,61.4,119.6,61.4,119.6C61.4,119.6,61.4,119.6,61.4,119.6
			C61.5,119.6,61.5,119.5,61.4,119.6C61.3,119.6,61.4,119.6,61.4,119.6z M61.6,119.4c-0.1,0.3,0,0.6,0.1,0.1c-0.1-0.1,0.2-0.5,0-0.5
			C61.6,119.2,61.7,119.2,61.6,119.4z M61.7,118.9c0.1,0.1,0.1-0.2,0.1-0.3C61.6,118.5,61.7,118.8,61.7,118.9z M61.8,118.9
			C61.8,118.9,61.8,118.9,61.8,118.9C61.8,118.9,61.8,118.9,61.8,118.9z M62,117.2C62,117.1,62,117.1,62,117.2
			C62.1,117.1,62,117.2,62,117.2C62,117.2,62,117.2,62,117.2C62,117.3,62.1,117.3,62,117.2C62,117.1,62,117.1,62,117.2z M62.3,116.2
			c-0.1,0.1,0,0.3-0.1,0.4c0,0.2,0,0.3-0.1,0.5c0.2,0,0-0.4,0.2-0.4c-0.1-0.1,0-0.4,0.1-0.4c0-0.1,0.1-0.4,0.1-0.5
			C62.3,115.9,62.3,116.1,62.3,116.2z M62.9,115c-0.2,0-0.2,0.3-0.1,0.2c0.1-0.2,0,0.2-0.1,0.2c-0.3,0.2,0,0.4-0.2,0.5
			c0.1,0-0.2,0.2-0.2,0.6c0,0-0.2,0.6-0.2,0.8c-0.1,0.4,0.2,0,0.1,0.2c0.1,0.4,0.1-0.1,0.3,0.1c-0.2,0-0.1,0-0.1,0.1
			c0,0.3,0.9,0.1,1.1-0.3c0.4-0.4,0.9-1.1,0.8-1.7c0-0.1-0.6,0.1-0.2-0.2c0.2,0,0.2-0.4,0.1-0.2c-0.2,0.1-0.3,0-0.4,0
			c-0.2,0-0.3,0.1-0.3,0c0.1,0-0.2,0.1-0.2,0c-0.1,0.2-0.1,0.1-0.1,0c0,0.2-0.4,0.2-0.1,0C63.5,115,62.7,115.3,62.9,115
			C62.9,115,62.9,115,62.9,115z M63.2,115.4c0.1,0.1-0.3,0-0.1,0C63.1,115.4,63.2,115.4,63.2,115.4z M63.2,113
			c-0.1,0.2,0.3-0.2,0-0.2C63.3,112.9,63.2,113,63.2,113z M63.3,113c0.2-0.2,0.1,0,0-0.2C63.4,112.9,63.4,113,63.3,113z M63.5,115.5
			C63.5,115.7,63.3,115.5,63.5,115.5C63.5,115.4,63.5,115.5,63.5,115.5z M63.7,119.7c0,0-0.1,0-0.2,0
			C63.6,119.7,63.7,119.7,63.7,119.7c0.2,0.1,0.2-0.1-0.1-0.1C63.6,119.6,63.6,119.7,63.7,119.7z M65,110.4c0.1-0.2-0.2,0-0.2-0.1
			c-0.2-0.1-0.2,0.2-0.2,0.2c-0.1-0.1-0.2,0.2-0.3,0.3c-0.1-0.1,0,0.2,0.1,0c0.2-0.3,0,0.2-0.2,0.3c-0.1,0.2-0.2,0.2-0.3,0.2
			c-0.1,0.1-0.1,0.2,0.1,0.3c-0.1-0.2-0.1-0.1,0-0.2c-0.2-0.1,0.3,0,0.2,0c0,0.1-0.2,0.2-0.2,0.3c0,0.3-0.3,0.2-0.1,0
			c-0.1,0-0.3,0.1-0.2,0.1c0.1,0.1-0.1,0.3-0.1,0.3c-0.1,0.2-0.1,0.2-0.1,0c-0.2,0,0,0.5-0.2,0.3c-0.1,0.1-0.1,0.3,0.2,0.1
			c0,0.1,0.1-0.4,0.2-0.2c0,0.2-0.1,0.1-0.2,0.3c0,0.2-0.2,0-0.1-0.1c-0.2,0.1,0,0.3,0,0.3c0.6-0.6,1.2-1.3,1.5-2.1
			c0.1-0.3,0.2-0.4,0.2-0.5C65.3,110.4,64.9,110.5,65,110.4z M63.5,115.2C63.4,115.3,63.8,115.2,63.5,115.2
			C63.5,115.2,63.5,115.2,63.5,115.2z M63.5,112.8C63.5,112.7,63.6,112.7,63.5,112.8C63.6,112.7,63.5,112.7,63.5,112.8
			C63.5,112.7,63.5,112.7,63.5,112.8z M63.8,119.8C64,119.9,63.4,119.9,63.8,119.8C63.7,119.8,63.7,119.8,63.8,119.8
			C63.8,119.8,63.8,119.8,63.8,119.8z M63.7,119.7C63.7,119.7,63.7,119.7,63.7,119.7C63.7,119.7,63.7,119.7,63.7,119.7z M63.7,116
			c-0.2,0,0.3-0.3,0.4-0.3C64.1,115.8,63.9,116,63.7,116z M63.9,112.1c-0.1,0.1,0-0.1,0.1-0.2C64,112,64.1,112.1,63.9,112.1z
			 M64,119.7C64,119.7,64,119.7,64,119.7C64,119.7,64,119.7,64,119.7C64,119.7,63.9,119.7,64,119.7z M64.4,115.4
			C64.3,115.6,64.1,115.4,64.4,115.4C64.4,115.4,64.4,115.4,64.4,115.4z M64.8,110.9c-0.3,0.1-0.2,0,0-0.2
			C65,110.8,64.8,110.7,64.8,110.9z M64.9,110.4c-0.2,0.1,0.1,0-0.1,0.1C64.5,110.8,64.7,110.4,64.9,110.4
			C64.9,110.4,64.9,110.4,64.9,110.4z M64.9,119.4C64.9,119.4,64.9,119.4,64.9,119.4C64.8,119.4,64.6,119.5,64.9,119.4
			C64.9,119.4,64.9,119.4,64.9,119.4z M64.9,110.6C64.8,110.7,64.9,110.5,64.9,110.6C64.9,110.5,64.9,110.5,64.9,110.6z M65.2,109.8
			c-0.1,0-0.2,0.3-0.1,0.1c0.1,0,0.3-0.1,0.3-0.3c0,0,0.1,0,0,0c0,0,0,0,0,0c0,0,0,0,0,0C65.3,109.8,65.1,109.8,65.2,109.8z
			 M65.2,110.1c0,0.2,0.2,0.1,0.1-0.1C65.3,110.1,65.2,110,65.2,110.1z M65.4,109.7C65.4,109.7,65.4,109.7,65.4,109.7
			C65.4,109.7,65.4,109.7,65.4,109.7z M65.8,114c-0.1-0.1,0-0.3,0-0.2c0.1,0,0.1,0,0.2-0.1C66.2,113.8,65.9,114,65.8,114z M66,114.1
			C65.7,114.5,65.6,114.3,66,114.1C65.9,114.1,66,114.1,66,114.1z M65.9,118.8C65.9,118.8,66,118.8,65.9,118.8
			C66,118.8,65.9,118.8,65.9,118.8z M66.4,113.5c0,0.1-0.1,0.2-0.2,0.3c0,0,0,0,0,0c0,0,0,0,0,0c-0.2,0-0.3,0.3-0.2,0
			C66.2,113.7,66.2,113.6,66.4,113.5C66.4,113.5,66.5,113.5,66.4,113.5z M66.4,113c-0.1,0.1-0.2,0.2-0.2,0.2
			c-0.1,0.1,0.1,0.2,0.1,0.1c0-0.2,0.3-0.2,0.2-0.3C66.4,113,66.4,112.9,66.4,113z M66.5,113.5c-0.2,0,0.1-0.3,0.1-0.3
			C66.8,113.3,66.5,113.4,66.5,113.5z M66.7,112.7c0.1,0.1-0.2,0.1,0.1-0.1C66.8,112.6,66.8,112.7,66.7,112.7z M67.1,112.2
			c0-0.1-0.1,0,0-0.2C67,112.1,66.9,112.4,67.1,112.2z M67.3,111.8C67.3,111.8,67.3,111.8,67.3,111.8
			C67.3,111.8,67.3,111.8,67.3,111.8z M67.4,111.9C67.3,112,67.2,112,67.4,111.9C67.4,111.9,67.4,111.9,67.4,111.9z"/>
		<path d="M71.3,107c0.2,0,0.2,0.1,0.3,0.1c0,0.1,0.1,0.2,0.3,0.3c1.1-0.4,2.3-0.5,3.4-0.6c0.4,0,1-0.1,1.2,0
			c0.2-0.2,0.3,0.1,0.4,0.1c0.1-0.1,0.2,0.1,0.3,0.1c0,0.1,0.2,0.1,0,0.2c0.1,0,0.1,0.2-0.1,0.3c0,0-0.1,0.2-0.1,0.2
			c0,0.2,0,0.2-0.1,0.2c0,0.2,0.2,0.2,0.2,0.3c-0.1,0.1-0.1,0.1-0.2,0.3c-0.3-0.1-0.2,0.2-0.1,0.3c0,0.2-0.3-0.1-0.3,0
			c-0.2,0-0.3,0.1-0.4,0c-0.2,0.1-0.3,0-0.4,0.2c-0.1,0.1-0.3,0,0-0.1c-0.1,0.1-0.2,0-0.3,0.1c-0.1,0,0,0-0.2,0.1
			c0-0.2-0.3,0.1-0.4,0c-0.1,0-0.3,0.1-0.4,0.1c0,0.1-0.3-0.1-0.5,0.1c0,0,0,0,0,0c0,0,0,0,0,0c0.2,0,0.4,0.1,0.1,0.2
			c0-0.2-0.3,0.2-0.4,0.1c0,0-0.5,0.2-0.3,0c-0.2-0.1-0.1,0.2-0.3,0.1c-0.2,0.1-0.3-0.1-0.3-0.1c0.2,0.2-0.3,0.3-0.2,0.1
			c-0.2-0.1-0.1-0.1,0-0.2c-0.3-0.2,0,0.3-0.2,0.1c-0.2,0,0,0.2-0.2,0.2c-0.1-0.1-0.2,0.1-0.1,0.3c-0.1,0.2,0-0.2-0.1,0.1
			c0,0.1,0,0-0.1,0.2c0.1,0.1-0.1,0.1,0.1,0.2c0,0.3-0.3,0.2-0.2,0.3c-0.1,0.1,0,0.1,0,0.3c-0.1,0.2-0.3,0.4-0.1,0.4
			c0,0-0.1,0.1-0.1,0.1c0,0,0,0,0,0c0,0,0,0,0,0c0,0.1-0.1,0.1-0.1,0.1c0,0,0.2,0.2,0,0.2c0,0,0,0.2,0,0.4c0,0,0,0,0,0c0,0,0,0,0,0
			c0,0,0,0,0,0.1c1.1-0.3,2.1-0.6,3.2-0.7c0.4,0,0.9-0.1,1.3,0c0,0,0.1,0,0.1,0.2c0.3,0.2-0.1,0.1,0.1,0.2c-0.2,0.2,0,0.1,0,0.3
			c-0.1-0.1-0.1,0-0.1,0.1c0.2,0,0,0.1,0,0.2c-0.1-0.1-0.1-0.3-0.1,0c0.1,0.1,0.3,0.4,0.1,0.2c0,0-0.1,0.1-0.2,0.2c0,0,0,0,0,0
			c0,0,0,0,0.1,0c0.1,0.1,0.2,0.1,0,0.2c-0.3,0.2,0,0,0,0.2c0.2-0.1,0,0.2-0.1,0.2c-0.2,0-0.2,0.2-0.1,0.1c0.1,0-0.1,0.3-0.1,0.1
			c0,0.2-0.5,0.1-0.4,0.3c-0.2-0.1-0.2,0.2-0.3,0.1c-0.2,0.2-0.2-0.1-0.2,0.1c-0.2,0-0.4-0.1-0.6,0c-0.1,0.1-0.3,0-0.4,0.1
			c-0.1,0-0.1,0-0.2,0c-0.2-0.1-0.1,0.2-0.2,0.1c0.2-0.1-0.5,0-0.2,0.1c-0.3,0.2-0.2-0.2-0.4,0c-0.2,0.2-0.1,0.1-0.2,0.1
			c-0.1,0-0.2,0-0.3,0.1c0.1,0.1-0.1,0.1,0,0c-0.1,0.1-0.2,0.1-0.3,0.1c-0.1,0.1-0.3,0.1-0.2,0.1c-0.1-0.1-0.1,0.1-0.2,0
			c-0.1,0.2-0.5,0.2-0.4,0.2c-0.2-0.1-0.1,0.5-0.2,0.8c-0.2,0,0.1,0.1,0,0.4c-0.1,0.1,0,0.3,0,0.5c-0.1,0,0.2,0.3,0,0.4
			c0,0.4,0.1-0.1,0,0.3c0,0,0,0.1,0,0.1c0,0,0,0,0,0c0.1,0,0.1,0.1,0,0.1c0,0.1,0,0.1,0.1,0.2c0.1,0.3-0.1,0,0,0.3
			c0.1,0.1,0,0.1,0.1,0.2c0.9-0.2,1.6-0.8,2.4-1.4c0.1,0,0.1,0,0.3,0.1c0.1-0.1,0.1,0,0.2,0.1c0.3-0.1-0.1,0.2,0.1,0.1
			c0.2,0.1,0.3-0.2,0.4,0c-0.1,0.1,0.1,0.1,0.2,0c0.1,0,0.1,0.3,0.1,0.1c0,0,0,0,0,0c0,0,0,0,0-0.1c0,0.2,0.5-0.1,0.4,0.1
			c0.3,0,0.1,0.3,0.3,0.3c0.1,0,0,0.2,0.2,0.1c0,0.3-0.2-0.1-0.3,0.1c0,0.2-0.3,0.1-0.1,0c-0.1,0-0.2,0.3-0.1,0.2
			c0,0.1-0.1,0.3-0.3,0.3c-0.2,0.2-0.4,0.2-0.5,0.4c-0.1,0.1-0.4,0.2-0.3,0.2c0.1,0,0.3-0.2,0.4-0.3c0,0.3,0.1,0.1,0.2,0.1
			c0.1-0.1,0.3-0.2,0.4-0.3c0.2-0.1,0.2,0,0,0.1c-0.3,0.1-0.5,0.4-0.7,0.5c-0.1,0.2-0.3,0.1-0.3,0.3c-0.1,0-0.2,0.2-0.4,0.2
			c-0.1,0-0.1,0.1-0.3,0.2c-0.3,0.1-0.7,0.3-1.1,0.3c-0.3,0-0.6-0.1-0.9-0.2c-0.2,0-0.3-0.1-0.5-0.2c0.2,0-0.1-0.2-0.2-0.2
			c-0.3-0.2-0.1,0.1-0.3,0c-0.3-0.2,0,0.1-0.2,0c-0.1-0.1-0.1-0.1-0.2-0.1c0,0,0,0,0,0c0,0,0,0,0,0c0,0-0.1,0-0.1,0
			c-0.8-0.4-1.1-1.3-1.1-2.2c-0.1-1.8,0.3-3.7,0.8-5.5c0.1-0.3,0.4-0.9,0.3-1c0-0.2-0.1-0.1-0.2-0.4c-0.2,0.1-0.1-0.2-0.1-0.3
			c0.1-0.1-0.2,0-0.3-0.2c0.4,0-0.1-0.1,0.1-0.2c0.2,0,0.1-0.1,0.2-0.2c-0.1-0.2,0-0.2,0-0.3c0.2,0,0.2-0.2,0.2-0.2
			c0-0.2-0.1,0-0.2-0.1c0.2,0,0-0.1-0.1-0.1c0.1,0.2-0.3-0.3-0.2-0.3c0-0.1,0.4-0.1,0.2-0.1c0.8-0.3,1.6-0.1,1.7-0.7
			c0-0.2,0.2-0.3,0.2-0.2C71.1,107.2,71.1,107,71.3,107C71.3,107,71.3,107,71.3,107z M69.6,119.2C69.6,119.2,69.6,119.2,69.6,119.2
			C69.6,119.2,69.6,119.2,69.6,119.2z M70.5,119.5C70.5,119.5,70.5,119.5,70.5,119.5C70.5,119.5,70.5,119.5,70.5,119.5z M71.4,111.7
			C71.3,111.8,71.4,111.7,71.4,111.7L71.4,111.7z M71.6,119.6c0.3,0.1,0.4,0.1,0.5,0c0-0.1-0.4,0.1-0.2,0
			C72.1,119.5,71.7,119.5,71.6,119.6C71.6,119.5,71.5,119.6,71.6,119.6z M71.6,119.6C71.6,119.7,71.8,119.6,71.6,119.6
			C71.6,119.6,71.6,119.6,71.6,119.6z M71.8,107.1C71.9,107.3,71.6,107.1,71.8,107.1C71.7,107.1,71.8,107.1,71.8,107.1z M72.1,119.5
			c-0.2,0.3,0,0.1,0.2,0.1c0.1,0,0.3,0,0.2-0.1C72.5,119.5,72.2,119.6,72.1,119.5z M72.5,109.4C72.6,109.5,72.6,109.4,72.5,109.4
			C72.5,109.4,72.5,109.4,72.5,109.4z M73.3,119.1c0,0.1-0.3,0.1-0.4,0.2c-0.3,0.2,0,0.1,0,0.1c0.2,0,0.4-0.1,0.5-0.1
			c0-0.1,0.4-0.4,0.2-0.2c0.1,0.1,0.2-0.2,0.1-0.2C73.7,119.1,73.5,119,73.3,119.1z M73.2,119.5C73.2,119.5,73.2,119.5,73.2,119.5
			C73,119.5,73.2,119.5,73.2,119.5C73.1,119.6,73.2,119.6,73.2,119.5C73.2,119.5,73.2,119.5,73.2,119.5z M74.5,117.1
			C74.5,117.2,74.5,117.2,74.5,117.1C74.5,117.2,74.5,117.2,74.5,117.1z M74.8,109.1C74.8,109.2,74.6,109.1,74.8,109.1
			C74.8,109.1,74.8,109.1,74.8,109.1z M74.9,118.2C74.7,118.4,74.7,118.3,74.9,118.2C75.1,118.2,74.9,118.1,74.9,118.2z M75.1,118.3
			C75.1,118.2,75.1,118.2,75.1,118.3C75.1,118.3,75.1,118.3,75.1,118.3z M75.8,112.8C75.8,112.8,75.8,112.8,75.8,112.8
			C75.8,112.8,75.8,112.8,75.8,112.8z M75.9,113.1C75.9,113.1,75.9,113.1,75.9,113.1C76,113,76,113.2,75.9,113.1z M76.1,108.6
			C76.1,108.7,76.2,108.6,76.1,108.6C76.2,108.6,76.2,108.6,76.1,108.6z M76.6,107.6c0.1,0.1-0.1,0.3,0.2,0.2
			C76.7,107.5,76.9,107.6,76.6,107.6C76.6,107.5,76.6,107.6,76.6,107.6z"/>
		<path d="M85.4,106.2c0.1,0.1,0.3,0.4,0.5,0.4c0.1,0.1,0.2,0,0.3,0.1c0.1,0.2,0.4,0.2,0.4,0.4c0.2,0.2,0.3,0.4,0.3,0.6
			c0,0.4,0.2,0.3,0.2,0.7c-0.1,0-0.1,0.1-0.1,0.2c0.1-0.2,0.2,0.4,0,0.2c0,0.5,0.1,0.9,0,1.4c-0.1,0.1,0.2,0.1,0,0.2
			c-0.1,0.1,0,0.1,0,0.2c0-0.1,0-0.1,0-0.1v0c0.1-0.1,0.1-0.1,0.1,0.2c-0.1,0-0.2,0.4-0.1,0.4c0.1,0.3,0,0.4,0,0.7
			c0.1,0.1-0.1,0.4,0.1,0.3c0,0.2,0,0.2-0.1,0.1h0c0,0,0,0-0.1,0.1c0,0.3,0.2,0.3,0.1,0.5c0.1,0.1-0.2,0.4,0,0.6
			c0,0.2-0.2,0-0.1,0.2c0.1-0.1,0.1,0.1,0.3,0.1c-0.1,0.1-0.2,0.1-0.2,0.2c0.2,0,0.2,0.2,0,0.3c0,0.1,0.4,0,0.2,0.1
			c-0.2-0.1-0.1,0.2-0.2,0.1c-0.1-0.1-0.1,0.1-0.1,0.1c-0.1,0.1,0.4-0.1,0.2,0c-0.2,0,0.1,0.2-0.1,0.1c-0.1,0.1,0.1,0-0.1,0.2
			c-0.1-0.1,0,0.1-0.1,0.2c-0.1,0,0.1,0.3,0,0.3c0,0.2,0,0.2,0,0.5c0,0.2,0,0.4,0,0.6c0.2,0.1,0,0.1,0,0.2c-0.1,0-0.1,0.3-0.1,0.4
			c0.2,0.1-0.1,0.1,0,0.2c-0.1,0.1,0,0.4-0.1,0.5c0,0.2,0,0.3,0.1,0.5c0,0.3-0.4-0.2-0.3,0c-0.1,0-0.1,0.1-0.1,0.1
			c-0.1,0-0.3,0.1-0.3,0c0.1,0-0.2-0.1-0.2-0.1c0,0.3-0.2-0.2-0.2-0.1c-0.1,0.2-0.2-0.2-0.4-0.1c0-0.2-0.2-0.3-0.1-0.1
			c-0.1,0.2-0.4-0.1-0.3,0.1c-0.1,0.4-0.1-0.1-0.2,0c0,0.1-0.2-0.1-0.2,0c-0.2,0,0.3-0.3-0.1-0.2c0-0.6,0.1-1.1,0.1-1.7
			c0-0.3,0.2-1.1-0.2-1c-0.4-0.2,0.4,0,0.3-0.3c0.1-0.1,0-0.3-0.3-0.1c0.2,0.1-0.1,0.2,0,0c-0.1,0-0.3,0-0.4,0.1
			c-0.2,0-0.2,0.2,0,0.1c0.2,0.1-0.3,0.1-0.2,0.2c0.1,0,0,0.1,0.1,0.1c-0.2,0-0.6,0.2-0.6,0c-0.2,0.2-0.1,0-0.3,0
			c-0.2,0.2-0.4,0-0.5,0.1c-0.1-0.2-0.3,0-0.4-0.1c0,0.1,0,0.3,0,0.1c-0.1,0.1-0.1,0.2,0.1,0.1c0.2,0,0.1,0.4-0.1,0.3
			c-0.1,0.1,0,0.3-0.1,0.2c-0.1-0.3-0.3,0.5-0.2,0.4c0.1,0,0.1,0.3,0,0.2c0-0.2-0.4,1-0.4,1.1c0-0.2-0.2,0.1,0,0.1
			c0,0.2-0.1,0.3-0.1,0.1c-0.1,0.1-0.1,0.3-0.1,0.3c0,0,0,0.1,0,0.1c0,0.1,0,0.1-0.1,0.1c-0.3-0.1,0.2,0.2,0,0.1
			c0.1,0.2-0.3-0.1-0.2,0c-0.1-0.2-0.3,0.4-0.2,0c0.1-0.1-0.2-0.3,0-0.1c0,0.1,0,0.2-0.1,0.1c0,0,0.1,0,0,0c0,0,0,0,0,0
			c0,0,0-0.1,0-0.2c-0.3,0.1,0.1,0-0.1,0.2c0-0.1-0.2,0.1-0.2-0.1c0.2-0.1-0.2-0.2-0.2,0c0.2-0.2,0.1,0.2,0,0.1
			c0-0.2-0.2-0.1-0.1-0.2c0-0.4-0.2,0.3-0.2-0.1c0.1,0,0.1-0.3-0.1-0.2c-0.2,0.1,0-0.2-0.1-0.2c-0.1,0-0.2,0.1-0.3,0.1
			c0,0.1-0.2,0.1-0.2,0.1c0.1-0.2-0.3,0.2-0.1-0.1c0-0.1,0-0.3,0-0.3c0.1-0.2,0.1-0.1,0.1-0.3c0-0.1,0-0.2,0-0.3
			c0.9-3.3,2.6-7.3,4-9.2c0.5-0.8,1.1-1.6,2-1.9c-0.1,0.1,0.1,0,0.1,0c0,0,0.1-0.1,0.1-0.1C85.2,106,85.4,106.1,85.4,106.2z
			 M80.2,118.6C80.2,118.6,80.2,118.6,80.2,118.6C80.2,118.6,80.2,118.6,80.2,118.6z M81.6,116.8C81.7,117.2,81.5,116.9,81.6,116.8
			C81.6,116.8,81.5,116.9,81.6,116.8z M82.1,115.5c0.2,0.2-0.1,0-0.1,0.1C81.9,115.6,81.9,115.5,82.1,115.5
			C82.1,115.5,82.1,115.5,82.1,115.5z M83.2,115.2C83.2,115.2,83.2,115.2,83.2,115.2c-0.3,0-0.6,0.1-0.8,0.1c-0.4,0-0.1,0.2,0.1,0.1
			c0.1,0,0.4,0,0.4-0.1C83,115.3,83.4,115.4,83.2,115.2C83.2,115.2,83.2,115.2,83.2,115.2z M82.8,115.5
			C82.8,115.6,82.4,115.6,82.8,115.5C82.7,115.5,82.7,115.5,82.8,115.5z M84.8,109.4c-0.1,0.1-0.1,0.4-0.2,0.4
			c0,0.2-0.4,0.2-0.2,0.3c0.1,0-0.3,0.4-0.3,0.2c0.1-0.1,0.1,0,0.1-0.2c-0.1,0.1-0.2,0-0.2,0.1c0,0,0,0,0,0c0,0,0,0,0,0
			c0,0-0.1,0.1-0.1,0.1c0,0,0,0,0,0c0,0,0,0,0,0.1c0,0,0,0.1-0.1,0c0,0.1,0,0,0,0.2c-0.3,0.2,0.1,0.1,0,0.2c0,0,0,0.3-0.1,0.1
			c0.2-0.2-0.1-0.1-0.1,0.1c-0.1,0.1-0.1,0.2-0.2,0.2c0,0.2-0.1,0.2-0.2,0.4c0,0.3,0.1,0,0.2-0.1c0.1-0.1,0.1-0.4,0.3-0.3
			c0,0-0.1,0.1-0.1,0.4c-0.1,0.1-0.1,0.1-0.2,0.4c-0.2,0.1,0,0.4-0.2,0.4c0-0.2,0-0.1-0.1,0.1c-0.2,0-0.3,0.3-0.1,0.3
			c0,0,0,0.1,0,0.1c0.2,0.1,1.2-0.1,1.7-0.1c0.1-0.8,0.1-1.5,0.2-2.3c0-0.4,0.2-0.9,0-1C84.9,109.3,84.9,109.4,84.8,109.4z
			 M83.1,112.2c0.1,0.1,0.1-0.1,0.2-0.3c-0.1,0,0,0,0-0.1C83.2,111.9,83.1,112.1,83.1,112.2z M83.2,112.3
			C83.3,112.5,83.1,112.5,83.2,112.3C83.2,112.3,83.2,112.3,83.2,112.3z M84.1,115.2c0,0-0.1,0-0.1,0.1
			C83.6,115.3,83.8,115.3,84.1,115.2C84,115.2,84,115.2,84.1,115.2z M83.9,115.2c0-0.2-0.2,0,0.1-0.2C84.1,115,84,115.1,83.9,115.2z
			 M84,110.3C84,110.3,84,110.3,84,110.3C84,110.3,84,110.3,84,110.3z M84.1,110.1C84.1,110.1,84.1,110.1,84.1,110.1
			C84.1,110.1,84.1,110.1,84.1,110.1z M84.2,110.3C84.2,110.3,84.2,110.3,84.2,110.3C84.3,110.3,84.1,110.5,84.2,110.3z M84.9,109
			c-0.1,0.1-0.1,0.2-0.2,0.3c0,0.1-0.3,0.4-0.2,0.3c0.1,0.2,0.3-0.2,0.2-0.3C84.8,109.3,84.9,109.2,84.9,109
			C84.9,109.2,85,109.1,84.9,109C85,109.1,84.9,109.1,84.9,109c0.1,0,0.1-0.1,0.1-0.1C84.9,109,84.9,109,84.9,109z M84.8,109
			C84.7,109.2,84.9,109,84.8,109C84.8,108.9,84.7,108.9,84.8,109z M84.9,109.1C84.9,109.1,84.9,109.1,84.9,109.1
			C84.9,109.1,84.9,109.1,84.9,109.1z M86.2,118.5C86.3,118.6,86.2,118.5,86.2,118.5C86.2,118.5,86.2,118.5,86.2,118.5z M87,111.9
			C87,111.9,87,111.9,87,111.9C86.9,111.9,87.1,112,87,111.9z"/>
		<path d="M94.3,105.7c0,0,0.2,0.1,0.2,0.1c-0.1-0.1,0.2,0,0,0.2c0.1-0.1,0.1,0.3,0.2,0.2c0.1,0.1,0.3,0.2,0.2,0.3
			c0.1,0.1,0.1,0,0.2,0c0.1,0,0,0.2,0.2,0.3c0.2-0.1,0,0.2,0.1,0.1c0.1,0.1,0.3,0.2,0.2,0.4c0,0.1,0.2-0.1,0.1,0.3
			c0,0.1,0.1,0.2-0.1,0.3c0,0.2,0,0.3,0.1,0.5c-0.1,0.5,0-0.4-0.1,0.1c0,0.2-0.1,0.3-0.1,0.5c0,0,0,0,0,0.1c0,0,0,0,0,0
			c0,0,0,0.1,0,0.2c-0.1,0-0.1,0.4-0.1,0.5c-0.1,0.2,0,0.2-0.1,0.4c-0.1,0.2,0,0.5-0.1,0.6c0,0,0,0,0,0c0,0,0,0,0,0
			c0,0.1,0,0.1,0,0.1c0,0.1-0.1,0.3-0.1,0.4c-0.1,0.1,0,0.4-0.1,0.4c-0.1,0.1,0,0.1-0.1,0.2c0,0.3-0.1,0.6-0.1,0.8
			c-0.1,0.5-0.2,1-0.3,1.5c-0.1,0.3-0.1,0.7-0.1,1.1c0,0.3-0.1,0.4-0.1,0.8c0,0.3,0,0.6-0.1,0.9c0,0.2,0,0.3,0,0.5c0,0.3,0,0.7,0,1
			c0,0.1,0.1,0.3-0.1,0.5c0.1,0,0.1,0.3,0,0.3c-0.2,0.3,0-0.2-0.2-0.2c0.1-0.2,0,0-0.1-0.2c-0.1,0.1-0.1,0.2-0.1,0
			c-0.1,0.3-0.1,0-0.2,0c0-0.2-0.1,0.2-0.1,0c-0.1-0.2-0.2,0.1-0.2,0.1c-0.1-0.2-0.2-0.2-0.3-0.2c-0.2,0.2-0.3-0.9-0.5-0.6
			c-0.1-0.2-0.2,0.1-0.2,0.1c-0.1,0.1-0.1,0.3-0.3,0.5c0-0.1-0.1,0-0.1,0.1c-0.2,0.1-0.1,0-0.1-0.1c-0.1,0.1-0.3,0.3-0.6,0.3
			c0-0.1-0.1-0.1-0.3-0.1c0,0.1-0.1,0.1,0,0c-0.1,0-0.2,0-0.3-0.1c-0.2-0.1-0.3,0-0.4-0.1c-0.1,0.1-0.1-0.1-0.1-0.1
			c-0.2-0.1-0.1-0.2-0.4-0.3c-0.3,0-0.2-0.1-0.5-0.1c-0.3,0.2,0,0-0.3-0.1c-0.1,0,0.1,0.2-0.2,0c-0.8-0.6-1-1.7-1-2.7
			c0.1-2.5,0.8-5,1.8-7.4c0.1-0.5,0.6-1.1,0.6-1.5c0.2-0.2,0.1-0.1,0.1-0.2c0.1-0.2,0.3-0.1,0.3,0c0.2-0.1,0-0.3,0.3-0.1
			c0.1,0,0.2,0.3,0.3,0.3c-0.1,0.3,0,0.2,0,0.4c0.1-0.3-0.1,0.2,0.1,0c0,0.2-0.1,0.3,0.1,0c-0.1-0.3,0.3,0,0.1,0
			c0.2,0.1-0.2,0.2,0,0.2c0-0.1,0.1,0,0.2,0.1c0.1,0.1,0.1,0.3,0.3,0.2c0,0,0,0,0,0c0,0,0,0,0,0c0,0.2,0,0.4-0.1,0.6
			c-0.1,0.1-0.3,0.4-0.1,0.5c-0.1,0.2-0.1,0.2-0.1,0.5c-0.1,0.4-0.1-0.1-0.2,0.2c0.2,0.1,0,0.1,0,0.3c0.2,0.1-0.1,0.5,0,0.3
			c-0.1,0.1-0.1,0.1,0,0.3c0,0-0.1,0-0.2,0.1c-0.1,0.1,0,0.2,0,0.3c-0.1,0.2-0.1,0.1,0,0.3c-0.2-0.1-0.1,0-0.2,0.1c0,0,0,0,0,0
			c0,0,0,0,0,0c-0.1,0.2,0,0.2-0.1,0.3c0,0.1-0.2,0.3-0.1,0.5c0.1,0.1,0.1,0.3,0,0.3c-0.1-0.2-0.1,0.2-0.1,0.2
			c-0.2,0.1,0.1,0.2-0.1,0.3c0.1,0.2,0,0-0.1,0.2c0.1-0.2,0.1,0.3,0,0.4c0,0.1,0,0.3-0.1,0.5c-0.1,0.2-0.1,0.3-0.1,0.4
			c0,0-0.2,0.3,0,0.2c0,0,0,0.1,0,0.1c0,0,0,0,0,0c0,0,0,0.1,0,0.1c0,0.1,0,0.1,0,0.1c0,0,0,0,0,0c0,0,0,0,0,0c0,0,0,0.1,0.1,0.1
			c-0.1,0.1-0.1,0.3-0.1,0.4c0,0.1,0,0.2,0,0.3c0.1,0.1-0.1,0.5,0.1,0.7c-0.1,0.1,0.1,0.2,0.1,0.4c0,0.2-0.1,0.4,0.1,0.2
			c0.4-0.3,0.7-0.6,1-1c0.3-0.4,0.8-0.8,0.9-1.3c0.2-1.8,0.6-3.6,1.1-5.4c0.3-1,0.5-2.1,0.9-3c0-0.3,0.1,0.2,0.1,0
			C94.1,105.8,94.1,105.8,94.3,105.7C94.2,105.6,94.3,105.7,94.3,105.7z M89,118C89,118.1,88.9,118,89,118C89,118,89,118,89,118z
			 M89.9,118.2c0.1,0.1,0.1,0.1,0.2,0.1C90.5,118.5,90.1,118.1,89.9,118.2C89.9,118.2,89.9,118.2,89.9,118.2z M89.9,114.3
			C89.9,114.3,89.9,114.3,89.9,114.3C90,114.3,89.9,114.3,89.9,114.3z M90.1,113c0.1-0.2-0.1,0,0-0.1C90.1,113,90,113,90.1,113z
			 M91.6,118.1c-0.1,0-0.3,0.1-0.4,0.2c-0.2,0-0.2,0-0.3,0c-0.1,0-0.1,0-0.2,0c0,0,0,0,0,0c0,0,0,0,0,0c0,0,0,0-0.1,0
			c0,0-0.1-0.1-0.1,0c0.1,0.2,0.4,0.2,0.6,0.2c-0.2,0.2,0,0,0.1-0.1c0,0.2,0.4,0,0.6-0.1c0.3-0.2-0.1,0,0-0.3
			C91.7,118,91.7,118.1,91.6,118.1z M90.6,118.2C90.6,118.2,90.6,118.2,90.6,118.2C90.6,118.3,90.6,118.3,90.6,118.2z M91,110
			C91,110,91,110,91,110C91,110,91,110,91,110z M91,118.1C90.9,118.2,91.2,118.1,91,118.1C91.1,118.1,91.1,118.1,91,118.1z
			 M91.4,107.4c0.2,0.2,0.1-0.1,0.1-0.2C91.3,107.4,91.1,107.4,91.4,107.4z M91.6,107.3C91.6,107.3,91.6,107.3,91.6,107.3
			C91.6,107.3,91.6,107.3,91.6,107.3z M95,111.1L95,111.1C94.9,111.1,95.1,111.2,95,111.1z"/>
		<path d="M101.9,105.5c0.4,0.1,0.4,0.1,0.5,0.3c0.2,0.1,0.1,0.4,0.3,0.4c0,0.1,0.1,0.3,0.1,0.4c-0.1,0.3,0.3,0.3,0.1,0.4
			c0,0.2,0.3,0.4,0.2,0.5c0,0,0,0.2,0,0.2c0,0.3,0.2,0.4,0.1,0.6c0,0.2-0.1,0.4-0.2,0.7c0,0.2-0.3,0.5-0.3,0.7c0,0,0,0,0,0
			c0,0,0,0,0,0c0,0,0,0.1,0,0.1c-0.1,0-0.2,0.2-0.1,0.3c-0.1,0-0.2,0-0.3,0.2c0.1,0-0.1,0.3,0,0.1c-0.1,0-0.2,0.3-0.1,0.3
			c-0.1,0.4-0.1-0.1-0.3,0.3c-0.2,0.3,0,0.2-0.3,0.5c-0.1,0.2-0.3,0.4-0.2,0.5c-0.1,0.1,0,0.1,0,0.1c-0.2,0.1-0.1,0.3-0.6-0.1
			c-0.4-0.4-1.1-1.2-0.8-1.7c0.3-0.6,0.7-1.2,1.1-1.9c0.2-0.1,0.1-0.5,0.2-0.3c0.1-0.1,0.1-0.3-0.1-0.2c0.1-0.1,0-0.1-0.1,0
			c-0.1,0,0.2,0.4-0.1,0.2c-0.2-0.1,0,0.1,0,0.1c-0.3,0.1-0.8,0.1-0.8,0.2c0-0.2-0.2,0.1-0.2,0.1c-0.3,0.2-0.7,0.4-1,0.6
			c-0.1,0.2-0.5,0.1-0.5,0.3c0.1,0.1-0.1,0.1-0.2,0.2c-0.1-0.2-0.4,0.3-0.5,0.4c-0.2,0-0.3,0.5-0.3,0.4c-0.2,0.2-0.1,0.1,0,0.3
			c-0.1,0-0.3,0.1-0.2,0.2c-0.1,0.1,0,0.2-0.1,0.2c-0.1,0.2-0.2,0.2-0.2,0.4c0.4,0.3,0.8,0.5,1.2,0.7c0.9,0.4,1.9,0.8,2.6,1.5
			c0.2,0.2,0.1,0.2,0.2,0.3c0,0.1,0.1,0.1,0.1,0.2c0,0,0,0,0,0c0,0,0,0,0,0c0,0,0.1,0.1,0.1,0.2c0.5,0.5,0.6,1,0.6,1.7
			c0,0.2-0.1,0.3-0.1,0.5c0,0.2-0.4,0.3-0.2,0.4c-0.2,0.3-0.5,0.4-0.7,0.6c-0.2,0.1-0.3,0.2-0.5,0.2c-0.1,0.1-0.3,0.2-0.4,0.2
			c0,0.1-0.2,0.1-0.2,0.1c-0.1,0-0.2,0.1-0.3,0.1c-0.2,0.1-0.2,0.1-0.3,0.1c-0.2,0.1-0.4,0.1-0.5,0.1c-0.1,0.2-0.1,0-0.3,0.1
			c-0.1,0-0.1,0-0.2,0c-0.3,0-0.1,0-0.2,0.1c-0.1,0-0.1,0-0.2,0c0,0,0,0,0,0c0,0,0,0,0,0c-0.1,0-0.1,0-0.2,0c-0.1-0.1,0,0.2-0.1,0
			c-0.2,0.1-0.5,0.2-0.4-0.1c-0.2-0.2,0.2,0.1,0.1,0c0.1-0.1,0.2,0,0.2,0c0,0,0,0-0.1-0.1c0.3-0.1,0.4,0,0.7-0.1
			c0.2-0.2,0.1,0,0.4-0.1c0-0.1,0.1-0.2,0.2-0.1c0.1-0.1,0.1,0,0.2,0c0.2,0,0.2-0.2,0.2-0.2c0.1,0,0.2,0.1,0.3,0.1
			c0.1,0-0.1-0.1,0-0.2c0.2-0.1,0.3,0.1,0.4,0c0-0.1-0.3,0-0.1-0.1c0.4-0.1,0.1-0.1-0.1,0c-0.2,0.1-0.4,0.1-0.7,0.2
			c-0.1,0.1-0.2,0-0.3,0.1c-0.2,0-0.5,0-0.6,0.1c-0.2,0.1-0.1-0.1-0.3,0c-0.2,0-0.2,0.3-0.2,0c-0.2,0,0,0.2-0.3,0
			c-0.1,0.1,0.1-0.1-0.1-0.1c-0.2,0-0.7,0-0.6-0.1c0,0,0,0,0,0c0,0-0.1,0,0,0c-0.1,0-0.3,0-0.4-0.2c0-0.2,0.1-0.2-0.2-0.3
			c-0.1,0.1-0.2,0-0.3,0c-0.2,0-0.2-0.3-0.3-0.2c-0.3-0.1,0.6-0.2,0.2-0.2c-0.2-0.1,0.1,0,0.1-0.2c1.2-0.3,2.4-0.5,3.5-1
			c0.2-0.2,1.2-0.5,0.6-0.7c-0.2-0.1-0.5-0.2-0.6-0.2c-0.3-0.1-0.5-0.2-0.8-0.4c-0.2-0.1-0.3-0.1-0.6-0.3c-0.3-0.2-0.7-0.4-0.9-0.7
			c-0.1-0.3-0.2-0.4-0.3-0.7c-0.1-0.1,0-0.1,0-0.3c-0.1-0.2-0.1-0.5-0.2-0.6c-0.1,0.3-0.1,0,0-0.1c-0.2,0.1-0.2,0-0.2-0.2
			c0,0.1,0-0.3-0.1-0.1c-0.1,0-0.2-0.5-0.1-0.8c0-0.8,0.4-1.6,0.9-2.2c1.1-1.4,2.6-2.4,4.3-2.9c0.3-0.1,0.6-0.2,0.9-0.2
			C101.7,105.4,101.8,105.4,101.9,105.5z M95.9,112.3c-0.1,0,0.3,0.3,0.2,0.3C96,112.5,96,112.5,95.9,112.3
			C95.9,112.3,96,112.4,95.9,112.3z M96,112.3C96.2,112.6,96,112.4,96,112.3C96,112.2,96,112.2,96,112.3z M96.2,112.4
			C96.3,112.9,96.4,112.5,96.2,112.4C96.2,112.3,96.2,112.4,96.2,112.4z M96.7,112.9C96.7,113.2,96.9,113.2,96.7,112.9L96.7,112.9z
			 M96.9,113.3C96.9,113.3,96.9,113.3,96.9,113.3c-0.1,0.1,0.1,0,0,0.1C97,113.5,97,113.3,96.9,113.3
			C96.9,113.3,96.9,113.3,96.9,113.3C96.9,113.3,96.9,113.3,96.9,113.3z M96.9,113.3C96.9,113.3,96.9,113.3,96.9,113.3
			C96.9,113.3,96.9,113.3,96.9,113.3z M97,118C97,118.1,96.8,118.1,97,118C96.9,118,97,118,97,118z M97.1,113.5
			C97,113.6,97.2,113.7,97.1,113.5C97.1,113.5,97.1,113.5,97.1,113.5z M97.3,113.7c0.1,0.1,0.2,0.1,0.1,0.1c0.1,0.1,0.3,0.2,0.3,0.1
			C97.5,113.7,97.4,113.7,97.3,113.7C97.3,113.6,97.2,113.6,97.3,113.7z M97.8,114C97.5,113.9,97.8,114.1,97.8,114
			c0.1,0.1,0.3,0.3,0.3,0.2c0,0,0,0,0,0c0,0,0,0,0.1,0c0,0,0,0,0,0c0.1,0.1,0.2,0.2,0.3,0.1c0.1-0.2-0.1-0.1-0.3-0.3
			c0,0.1-0.3,0.1-0.3-0.1C97.9,114,97.7,113.9,97.8,114z M97.7,118.4C97.7,118.4,97.8,118.4,97.7,118.4
			C97.8,118.4,97.7,118.4,97.7,118.4z M97.8,118.3L97.8,118.3C97.7,118.4,97.8,118.4,97.8,118.3C97.8,118.4,97.9,118.4,97.8,118.3
			C97.8,118.3,97.8,118.3,97.8,118.3z M97.8,114C97.9,114.1,97.7,114,97.8,114C97.8,114,97.8,114,97.8,114z M97.8,118.4
			C97.8,118.4,97.8,118.4,97.8,118.4C97.8,118.4,97.8,118.4,97.8,118.4z M98.2,114.2C98.2,114.2,98.2,114.2,98.2,114.2
			C98.2,114.2,98.2,114.2,98.2,114.2z M98.4,114.3C98.4,114.3,98.4,114.3,98.4,114.3C98.5,114.2,98.3,114.4,98.4,114.3z M98.9,114.4
			c0,0.1,0.2,0.2,0.3,0.2c0.1,0,0.2,0.1,0.3,0.1c0.1,0.1,0.1,0,0,0c-0.3-0.1-0.1-0.1,0.2,0c0.1,0.1,0.3,0.1,0.2,0
			c0-0.1-0.2-0.1-0.2-0.1c-0.1-0.1-0.3-0.1-0.4-0.2c-0.2-0.2-0.3,0.1-0.3-0.1C98.9,114.4,98.9,114.4,98.9,114.4z M99.1,114.8
			C99.2,114.8,99.1,114.8,99.1,114.8C99,114.7,99.1,114.8,99.1,114.8z M102.8,110.2C102.8,110.1,102.8,110.1,102.8,110.2
			C102.8,110.1,102.8,110.1,102.8,110.2z M102.9,109.7L102.9,109.7C102.9,109.7,102.9,109.7,102.9,109.7z"/>
	</g>
</g>
<g>
	<g>
		<path d="M292.3,180.2c0.4,0.1,0.6,0.4,0.9,0.5c0.2,0.2,0.3,0.4,0.4,0.5c0.1,0.1,0.1,0.2,0.1,0.2c0,0.2,0.3,0.3,0.2,0.4
			c0,0.2,0.2,0.6,0.2,0.5c0,0,0,0.1,0.1,0.1c-0.1,0,0,0,0,0c0.1,0.1,0.1,0.2,0.1,0.3c0.1,0.3,0.2,0.5,0.2,0.8c0,0.3,0.2,0.6,0.1,0.8
			c0,0.2-0.1,0.6-0.1,0.8c-0.1,0.4-0.1,0.4-0.2,0.8c-0.1,0.2-0.1,0.4-0.2,0.7c0,0,0-0.3-0.1,0.1c0.1,0.1,0,0.3,0,0.4
			c-0.1,0.1-0.3,0.4-0.1,0.2c0,0.2-0.3,0.5-0.2,0.3c0-0.1-0.3,0.3-0.1,0.3c-0.2,0.1-0.1,0.4-0.2,0.3c-0.2,0.1,0,0.3-0.1,0.2
			c0,0.1-0.1,0-0.1,0.1c-0.1,0-0.1,0.1,0,0.1c0,0,0,0,0,0c0,0,0,0,0,0c0,0,0,0,0,0c-0.1,0.1-0.1,0.1-0.2,0.3c0,0.1,0.2-0.2,0.1,0
			c-0.2,0.3-0.3,0.6-0.6,0.8c-0.1,0.2-0.2,0.3-0.3,0.5c0.1,0.1,0,0-0.2,0.3c-0.1,0-0.2,0.2-0.3,0.4c0,0,0,0,0,0c0,0,0,0,0,0
			c0,0,0,0.1,0,0.1c0,0,0,0.1-0.1,0.2c-0.2,0.2-0.4,0.4-0.6,0.6c-0.1,0.1-0.1,0.1-0.2,0.2c-0.1,0.1-0.1,0.1-0.2,0.2
			c-0.1,0.2-0.4,0.3-0.5,0.4c-0.2,0.1-0.4,0.2-0.7,0.3c-0.1,0-0.3,0.2-0.3,0c-0.3,0,0.4-0.1,0.5-0.2c0.2-0.1,0.3-0.3,0.1-0.3
			c-0.3-0.1-0.2,0.1-0.2,0.2c-0.1,0-0.1-0.2-0.2-0.1c-0.1,0-0.4,0.1-0.3,0.1c-0.2,0-0.3,0.1-0.4-0.1c-0.2,0.1-0.4,0-0.6-0.2
			c-0.2-0.1-0.6-0.1-0.6-0.4c0-0.2-0.2-0.1-0.4-0.2c-0.3-0.1-0.2-0.3-0.4-0.3c0.1-0.2,0.1-0.8,0.2-1.2c0.2-1.9,0.6-3.7,1-5.5
			c-0.1,0,0.2-0.4,0.1-0.4c0,0-0.3,0.1-0.3,0c-0.2-0.1,0.1-0.2,0-0.3c-0.3,0,0-0.4-0.2-0.4c-0.2,0-0.1-0.2-0.3-0.2
			c0-0.2,0-0.2-0.1-0.3c-0.1-0.1,0.2-0.2,0-0.2c0-0.2-0.3-0.1-0.4-0.3c-0.3-0.2,0-0.4,0.1-0.4c0.2-0.3,0.5-0.6,0.9-0.8
			c1-0.6,2.1-1.1,3.3-1.1C291.3,180,291.8,180,292.3,180.2z M287.2,183.6C287.3,183.8,287.5,183.7,287.2,183.6
			C287.2,183.6,287.2,183.6,287.2,183.6z M288.7,192.9c-0.1,0.1-0.1,0.2-0.1,0.1c-0.1,0-0.2,0.1-0.2-0.2
			C288.4,192.8,288.6,192.7,288.7,192.9z M290.3,182.5c-0.2,0,0,0.1,0,0.1c0,0,0,0,0,0c-0.1,0.1,0,0,0,0c0,0,0,0-0.1,0.1
			c-0.1,0.1,0.2,0.2,0,0.3c0-0.2-0.1,0.3-0.1,0.4c-0.1,0.1,0,0.4,0,0.4c0.1,0.1-0.1,0.3-0.1,0.6c-0.1,0.1-0.2,0.7,0,0.5
			c-0.1,0.2-0.2,0.5-0.2,0.7c0,0.3-0.2,0.7-0.1,0.9c0,0.2,0,0.4-0.2,0.5c0,0.1-0.1,0.3-0.1,0.3c0.2-0.2-0.1,0.1,0.1,0.1
			c0,0,0,0,0,0.1c0,0,0,0,0,0c-0.1,0,0,0,0,0c0,0.1-0.1,0.1-0.1,0.3c0,0.2,0.1,0.4-0.1,0.6c-0.1,0.2-0.1,0.4-0.1,0.5
			c0,0.1,0.1,0.4-0.1,0.2c0,0.2-0.1,0.7-0.1,0.7c0,0.1,0.2,0,0.3-0.2c1.3-1.6,2.6-3.3,3.4-5.2c0.1-0.3,0.5-1.2,0.3-1.3
			c0.1,0,0.1-0.1,0-0.1c-0.3,0,0.2-0.1-0.1-0.2c-0.2-0.1-0.3-0.1-0.5-0.1c-0.2-0.1-0.2,0-0.4-0.1c-0.2,0-0.5,0.1-0.6,0
			c-0.3,0.1-0.3,0-0.5,0c-0.2,0.1-0.2,0.1-0.4,0.1C290.1,182.8,290.6,182.6,290.3,182.5C290.3,182.5,290.3,182.5,290.3,182.5z
			 M289.1,189.3C289.2,189.4,289.1,189.3,289.1,189.3C289.1,189.3,289.1,189.3,289.1,189.3z M289.4,192.4
			C289.6,192.4,289.3,192.5,289.4,192.4C289.4,192.4,289.4,192.4,289.4,192.4C289.4,192.4,289.4,192.4,289.4,192.4
			C289.5,192.4,289.5,192.4,289.4,192.4z M289.4,187.4C289.4,187.4,289.5,187.4,289.4,187.4C289.5,187.4,289.5,187.4,289.4,187.4z
			 M289.8,192.3c-0.1,0.3,0.2-0.1,0.2-0.1C289.9,192.2,289.9,192.3,289.8,192.3z M290.3,182.7C290.3,182.7,290.3,182.7,290.3,182.7
			C290.3,182.7,290.3,182.7,290.3,182.7z M290.4,182.5C290.5,182.5,290.6,182.5,290.4,182.5C290.5,182.5,290.4,182.5,290.4,182.5z
			 M290.7,182.3C290.4,182.3,290.4,182.5,290.7,182.3C290.6,182.4,290.9,182.4,290.7,182.3C290.7,182.2,290.6,182.4,290.7,182.3z
			 M291.2,182.4c-0.1,0.1-0.4-0.1-0.5,0.1C290.6,182.6,291,182.4,291.2,182.4c0.1,0,0.2,0.1,0.4,0.1c0.2-0.2-0.1-0.1-0.1-0.2
			C291.4,182.3,291.2,182.4,291.2,182.4z M291.2,182.2C291.1,182.2,291.1,182.2,291.2,182.2C291.1,182.2,291.1,182.2,291.2,182.2
			c-0.2,0.1-0.4,0-0.2,0.2c0.1-0.2,0.2,0,0.3,0c0.2,0,0.1-0.1,0.2,0c0,0,0,0,0,0c0,0,0,0,0,0C291.4,182.2,291.3,182.2,291.2,182.2
			C291.2,182.2,291.2,182.2,291.2,182.2z M291.7,182.3C291.7,182.6,291.8,182.4,291.7,182.3c0,0,0.1-0.2-0.2-0.1
			C291.4,182.2,291.6,182.4,291.7,182.3z M291.5,190.9C291.5,190.9,291.5,190.9,291.5,190.9C291.5,190.9,291.5,190.9,291.5,190.9z
			 M291.5,182.6C291.5,182.7,291.8,182.6,291.5,182.6C291.6,182.6,291.6,182.6,291.5,182.6z M292,182.5c0.2,0.1,0.4,0.1,0.7,0.2
			c0.2,0,0.1-0.1,0.2,0.1c0.1,0,0.3,0.1,0.2,0c-0.1-0.2-0.1-0.2-0.3-0.3c-0.2-0.1-0.2,0-0.4-0.1c0,0.2-0.3,0.1-0.5,0
			C291.8,182.4,292,182.6,292,182.5z M292.6,182.8C293,182.9,292.4,182.9,292.6,182.8C292.5,182.7,292.6,182.8,292.6,182.8z
			 M293,188.6C293,188.6,293,188.6,293,188.6C293,188.6,293,188.6,293,188.6z M293.1,188.5C293.1,188.4,293.1,188.4,293.1,188.5
			C293.1,188.4,293.2,188.4,293.1,188.5z M294.1,182.3C294.1,182.3,294.1,182.3,294.1,182.3C294.1,182.3,294.1,182.3,294.1,182.3z"
			/>
		<path d="M297.3,179.7c0.2,0,0.2,0.1,0.3,0.1c0,0.1,0.1,0.2,0.3,0.3c1.1-0.4,2.3-0.5,3.4-0.6c0.4,0,1-0.1,1.1,0
			c0.2-0.2,0.3,0.1,0.4,0.1c0.1-0.1,0.2,0.1,0.3,0.1c0,0.1,0.2,0.1-0.1,0.2c0.1,0,0.1,0.2-0.1,0.3c0,0-0.1,0.2-0.1,0.2
			c0.1,0.2,0,0.2-0.1,0.2c0,0.2,0.2,0.2,0.2,0.3c-0.1,0.1-0.1,0.1-0.2,0.3c-0.3-0.1-0.2,0.2-0.1,0.3c0,0.2-0.3-0.1-0.3,0
			c-0.2,0-0.3,0.1-0.4,0c-0.2,0.1-0.3,0-0.4,0.2c-0.1,0.1-0.3,0,0-0.1c-0.1,0.1-0.2,0-0.3,0.1c-0.1,0,0,0-0.2,0.1
			c0-0.2-0.3,0.1-0.4,0c-0.1,0-0.3,0.1-0.4,0.1c0,0.1-0.3-0.1-0.5,0.1c0,0,0,0,0.1,0c0,0,0,0,0,0c0.2,0,0.4,0.1,0.1,0.2
			c0-0.2-0.3,0.2-0.4,0.1c0,0-0.5,0.2-0.3,0c-0.2-0.1-0.1,0.2-0.3,0.1c-0.2,0.1-0.3-0.1-0.3-0.1c0.2,0.2-0.3,0.3-0.2,0.1
			c-0.2-0.1-0.1-0.1-0.1-0.2c-0.3-0.2,0,0.3-0.2,0.1c-0.2,0,0,0.2-0.2,0.2c-0.1-0.1-0.2,0.1-0.1,0.3c-0.1,0.2,0-0.2-0.1,0.1
			c0,0.1,0,0-0.1,0.2c0.1,0.1-0.1,0.1,0,0.2c0,0.3-0.3,0.2-0.2,0.3c-0.1,0.1,0,0.1,0,0.3c-0.1,0.2-0.3,0.3-0.1,0.4
			c0,0-0.1,0.1-0.1,0.1c0,0,0,0,0,0c0,0,0,0,0,0c0,0.1-0.1,0.1-0.1,0.1c0,0,0.2,0.2,0,0.2c0,0,0,0.2,0,0.4c0,0,0,0,0,0c0,0,0,0,0,0
			c0,0,0,0,0,0.1c1-0.3,2.1-0.6,3.2-0.7c0.4,0,0.9-0.1,1.3,0c0,0,0.1,0,0.1,0.2c0.3,0.2-0.1,0.1,0.1,0.1c-0.2,0.2,0,0.1,0,0.3
			c-0.1-0.1-0.1,0,0,0.1c0.2,0,0,0.1,0,0.2c-0.1-0.1-0.1-0.3-0.1,0c0.1,0.1,0.3,0.3,0.1,0.2c0,0-0.1,0.1-0.2,0.2c0,0,0,0,0,0
			c0,0,0,0,0.1,0c0.1,0.1,0.2,0.1,0.1,0.2c-0.3,0.2,0,0-0.1,0.2c0.2-0.1,0,0.2-0.1,0.2c-0.2,0-0.2,0.2-0.1,0.1
			c0.1,0-0.1,0.3-0.1,0.1c0,0.2-0.5,0.1-0.4,0.3c-0.2-0.1-0.2,0.2-0.3,0.1c-0.2,0.2-0.2-0.1-0.2,0.1c-0.2,0-0.4-0.1-0.6,0
			c-0.1,0.1-0.3,0-0.4,0.1c-0.1,0-0.1,0-0.2,0c-0.2-0.1,0,0.2-0.2,0.1c0.2-0.1-0.5,0-0.2,0.1c-0.3,0.2-0.2-0.2-0.4,0
			c-0.2,0.2-0.1,0.1-0.2,0.1c-0.1,0-0.2,0-0.3,0.1c0.1,0.1-0.1,0.1,0,0c-0.1,0.1-0.2,0.1-0.3,0.1c-0.1,0.1-0.3,0.1-0.2,0.1
			c-0.1-0.1-0.1,0.1-0.2,0c-0.1,0.2-0.5,0.2-0.4,0.2c-0.2-0.1-0.1,0.5-0.2,0.8c-0.2,0,0.1,0.1,0,0.4c-0.1,0.1,0,0.3,0,0.5
			c-0.1,0,0.2,0.3,0,0.4c0,0.4,0.1-0.1,0,0.3c0,0,0,0.1,0,0.1c0,0,0,0,0,0c0.1,0,0,0.1,0,0.1c0,0.1,0,0.1,0.1,0.2
			c0.1,0.3-0.1,0,0,0.3c0.1,0.1,0,0.1,0.1,0.2c0.9-0.2,1.6-0.8,2.4-1.3c0.1,0,0.1,0,0.3,0.1c0.1-0.1,0.1,0,0.2,0.1
			c0.3-0.1-0.1,0.2,0.1,0.1c0.2,0.1,0.3-0.2,0.4,0c-0.1,0.1,0.1,0.1,0.2,0c0.1,0,0.1,0.3,0.1,0.1c0,0,0.1,0,0,0c0,0,0,0,0-0.1
			c0,0.2,0.5-0.1,0.4,0.1c0.3,0,0.1,0.3,0.3,0.3c0.1,0,0,0.2,0.2,0.1c0,0.3-0.2-0.1-0.3,0.1c0,0.2-0.3,0.1-0.1,0
			c-0.1,0-0.2,0.3-0.1,0.2c0,0.1-0.1,0.3-0.3,0.3c-0.2,0.2-0.4,0.2-0.5,0.4c-0.1,0.1-0.4,0.2-0.3,0.2c0.1,0,0.3-0.2,0.4-0.3
			c0,0.3,0.1,0.1,0.2,0.1c0.1-0.1,0.3-0.2,0.4-0.3c0.2-0.1,0.2,0,0,0.1c-0.3,0.1-0.5,0.4-0.7,0.5c-0.1,0.2-0.3,0.1-0.3,0.3
			c-0.1,0-0.2,0.2-0.4,0.2c-0.1,0-0.1,0.1-0.3,0.2c-0.3,0.1-0.7,0.3-1.1,0.3c-0.3,0-0.6-0.1-0.9-0.2c-0.2,0-0.3-0.1-0.5-0.2
			c0.2,0-0.1-0.2-0.2-0.2c-0.3-0.2-0.1,0.1-0.3,0c-0.3-0.2,0,0.1-0.2,0c-0.1-0.1-0.1-0.1-0.2-0.1c0,0,0,0,0,0c0,0,0,0,0,0
			c-0.1,0-0.1,0-0.1,0c-0.8-0.4-1.1-1.4-1.1-2.2c-0.1-1.8,0.3-3.7,0.8-5.5c0.1-0.3,0.4-0.9,0.3-1c0-0.2-0.1-0.1-0.2-0.4
			c-0.2,0.1-0.1-0.2-0.1-0.3c0.1-0.1-0.2,0-0.3-0.2c0.4,0-0.1-0.1,0.1-0.2c0.2,0,0.1-0.1,0.2-0.1c-0.1-0.2,0-0.2,0-0.3
			c0.2,0,0.2-0.2,0.2-0.2c-0.1-0.2-0.1,0-0.2-0.1c0.2,0,0.1-0.1-0.1-0.1c0.1,0.2-0.3-0.3-0.2-0.3c0-0.1,0.4-0.1,0.2-0.1
			c0.8-0.2,1.6-0.1,1.7-0.7c0-0.2,0.2-0.3,0.2-0.2C297.2,180,297.2,179.7,297.3,179.7C297.3,179.7,297.3,179.7,297.3,179.7z
			 M295.6,191.8C295.6,191.8,295.7,191.8,295.6,191.8C295.7,191.8,295.6,191.8,295.6,191.8z M296.5,192.2
			C296.5,192.2,296.5,192.2,296.5,192.2C296.5,192.2,296.5,192.2,296.5,192.2z M297.4,184.4C297.3,184.5,297.4,184.4,297.4,184.4
			C297.4,184.4,297.4,184.4,297.4,184.4z M297.6,192.3c0.3,0.1,0.4,0.1,0.5,0c0-0.1-0.4,0.1-0.2,0
			C298.1,192.2,297.7,192.3,297.6,192.3C297.7,192.2,297.5,192.3,297.6,192.3z M297.7,192.4C297.6,192.4,297.8,192.3,297.7,192.4
			C297.7,192.4,297.7,192.4,297.7,192.4z M297.8,179.8C297.9,180,297.6,179.9,297.8,179.8C297.8,179.8,297.8,179.8,297.8,179.8z
			 M298.1,192.2c-0.2,0.3,0,0.1,0.2,0.1c0,0,0.3,0,0.2-0.1C298.5,192.2,298.2,192.3,298.1,192.2z M298.5,182.1
			C298.6,182.2,298.7,182.1,298.5,182.1C298.5,182.1,298.5,182.1,298.5,182.1z M299.4,191.8c-0.1,0.1-0.3,0.1-0.4,0.2
			c-0.3,0.2-0.1,0.1,0,0.1c0.2,0,0.4-0.1,0.5-0.1c0-0.1,0.4-0.4,0.2-0.2c0.1,0.1,0.2-0.2,0.1-0.2
			C299.7,191.8,299.5,191.7,299.4,191.8z M299.2,192.2C299.2,192.2,299.2,192.2,299.2,192.2C299.1,192.2,299.2,192.3,299.2,192.2
			C299.1,192.3,299.2,192.3,299.2,192.2C299.2,192.2,299.2,192.2,299.2,192.2z M300.5,189.9C300.5,189.9,300.5,189.9,300.5,189.9
			C300.5,189.9,300.5,189.9,300.5,189.9z M300.8,181.8C300.8,181.9,300.6,181.8,300.8,181.8C300.8,181.8,300.8,181.8,300.8,181.8z
			 M300.9,190.9C300.7,191.2,300.7,191,300.9,190.9C301.1,190.9,300.9,190.9,300.9,190.9z M301.1,191C301.1,191,301.1,191,301.1,191
			C301.1,191,301.2,191,301.1,191z M301.9,185.5C301.9,185.5,301.9,185.5,301.9,185.5C301.9,185.5,301.9,185.5,301.9,185.5z
			 M301.9,185.8C301.9,185.8,301.9,185.8,301.9,185.8C302,185.8,302,185.9,301.9,185.8z M302.1,181.4
			C302.1,181.4,302.2,181.3,302.1,181.4C302.2,181.4,302.2,181.4,302.1,181.4z M302.6,180.3c0.1,0.1-0.1,0.3,0.2,0.2
			C302.7,180.2,302.9,180.3,302.6,180.3C302.6,180.3,302.6,180.3,302.6,180.3z"/>
		<path d="M309.1,178.7c0.1,0,0.2,0.1,0.2,0c-0.1-0.1,0.2,0,0,0.2c0.1-0.1,0.1,0.2,0.2,0.2c0.1,0.1,0.3,0.2,0.2,0.2
			c0.1,0.1,0.1,0,0.2,0c0.1,0,0,0.2,0.2,0.3c0.2-0.1,0,0.2,0.1,0.1c0.1,0.1,0.3,0.2,0.2,0.4c0,0.1,0.2-0.1,0.1,0.3
			c0,0.1,0.1,0.2-0.1,0.3c0,0.2,0,0.3,0.1,0.5c-0.1,0.5,0-0.4-0.1,0.1c0,0.2-0.1,0.3-0.1,0.5c0,0,0,0,0,0.1c0,0,0,0,0,0
			c0,0,0,0.1,0,0.2c-0.1,0.1-0.1,0.4-0.1,0.5c0,0.2,0,0.2-0.1,0.4c-0.1,0.2,0,0.5-0.1,0.6c0,0,0,0,0,0c0,0,0,0,0,0
			c0,0.1,0,0.1,0,0.1c0,0.1,0,0.3-0.1,0.4c-0.1,0.1,0,0.4-0.1,0.4c-0.1,0.1,0,0.1-0.1,0.2c0,0.3-0.1,0.7-0.1,0.8
			c-0.1,0.5-0.2,1-0.3,1.5c-0.1,0.4-0.1,0.7-0.1,1.1c0,0.3-0.1,0.4-0.1,0.8c0,0.3,0,0.6-0.1,0.9c0,0.2,0,0.3,0,0.5c0,0.3,0,0.7,0,1
			c0,0.1,0.1,0.3-0.1,0.5c0.1,0,0,0.2,0,0.3c-0.2,0.3,0-0.2-0.2-0.2c0.1-0.2-0.1,0-0.1-0.2c-0.1,0.1-0.1,0.2-0.1,0
			c-0.1,0.3-0.1,0-0.2,0c0-0.2-0.1,0.2-0.1,0c-0.1-0.2-0.2,0.2-0.2,0.1c-0.1-0.2-0.2-0.1-0.3-0.1c-0.2,0.2-0.3-0.8-0.5-0.5
			c-0.1-0.2-0.2,0.1-0.2,0.1c-0.1,0.1-0.1,0.4-0.3,0.5c0-0.1-0.1,0-0.1,0.1c-0.2,0.1-0.1,0-0.1-0.1c-0.1,0.1-0.3,0.3-0.6,0.3
			c0-0.1-0.1-0.1-0.3-0.1c0,0.1-0.1,0.1,0,0c-0.1,0-0.2,0-0.3-0.1c-0.2-0.1-0.3,0-0.4-0.1c-0.1,0.1-0.1-0.1-0.1-0.1
			c-0.2,0-0.1-0.1-0.4-0.2c-0.3,0-0.2-0.1-0.5-0.1c-0.3,0.2-0.1,0-0.3-0.1c-0.1,0,0.1,0.2-0.2,0c-0.8-0.6-1-1.7-1-2.7
			c0.1-2.5,0.8-5,1.8-7.4c0.1-0.5,0.6-1.1,0.6-1.5c0.2-0.2,0.1-0.1,0.1-0.2c0.1-0.2,0.3-0.1,0.3,0c0.2-0.2,0-0.3,0.3-0.1
			c0.1,0,0.2,0.2,0.3,0.3c-0.1,0.3,0,0.2,0,0.4c0.1-0.3,0,0.2,0.1,0c0,0.2-0.1,0.3,0.1,0c-0.1-0.2,0.3-0.1,0.1,0
			c0.2,0.1-0.2,0.2,0,0.2c0-0.1,0.1,0,0.2,0c0.1,0.1,0.1,0.2,0.3,0.1c0,0,0,0,0,0c0,0,0,0,0,0c0,0.2,0,0.4-0.1,0.6
			c-0.1,0.1-0.3,0.4-0.1,0.5c-0.1,0.2-0.1,0.2-0.1,0.5c-0.1,0.4-0.1-0.1-0.2,0.2c0.2,0.1,0,0.1,0,0.3c0.2,0.1-0.1,0.5,0,0.3
			c-0.1,0.1-0.1,0.1,0,0.3c0,0-0.1,0-0.2,0.1c-0.1,0.1,0,0.2,0,0.3c-0.1,0.2-0.1,0.1,0,0.3c-0.2-0.1-0.1,0-0.2,0.1c0,0,0,0,0,0
			c0,0,0,0,0,0c-0.1,0.2,0,0.2-0.1,0.4c0,0.1-0.2,0.3-0.1,0.5c0.1,0.1,0.1,0.3,0,0.3c-0.1-0.2-0.1,0.3-0.1,0.2
			c-0.2,0.1,0.1,0.2-0.1,0.3c0.1,0.2,0,0-0.1,0.2c0.1-0.2,0.1,0.3,0,0.4c0,0.1,0,0.3-0.1,0.5c-0.1,0.2-0.1,0.3-0.1,0.4
			c0,0-0.2,0.3,0,0.2c0,0,0,0.1,0,0.1c0,0,0,0,0,0c0,0,0,0.1,0,0.1c0,0.1,0,0.1,0,0.1c0,0,0,0,0,0c0.1,0,0,0,0,0c0,0,0,0.1,0.1,0.1
			c0,0.1-0.1,0.3-0.1,0.4c0,0.1,0,0.2,0,0.3c0.1,0.1-0.1,0.5,0.1,0.7c-0.1,0.1,0.1,0.2,0.1,0.4c0,0.2-0.1,0.4,0.1,0.2
			c0.4-0.3,0.7-0.7,1-1.1c0.3-0.4,0.8-0.8,0.9-1.3c0.2-1.8,0.6-3.7,1.1-5.5c0.3-1,0.5-2.1,0.9-3.1c0-0.3,0.1,0.2,0.1,0
			C309,178.9,309,178.9,309.1,178.7C309.1,178.7,309.2,178.7,309.1,178.7z M303.9,191.4C303.9,191.4,303.8,191.4,303.9,191.4
			C303.9,191.4,303.9,191.4,303.9,191.4z M304.7,191.5c0.1,0.1,0.1,0.1,0.2,0.1C305.3,191.8,305,191.4,304.7,191.5
			C304.8,191.5,304.8,191.5,304.7,191.5z M304.8,187.6C304.8,187.6,304.8,187.6,304.8,187.6C304.8,187.6,304.8,187.6,304.8,187.6z
			 M305,186.3c0.1-0.2-0.1,0,0-0.1C304.9,186.3,304.9,186.3,305,186.3z M306.4,191.3c-0.1,0-0.3,0.1-0.4,0.2c-0.2,0-0.2,0-0.3,0
			c-0.1,0-0.1,0-0.2,0c0,0,0,0,0,0c0,0,0,0,0,0c0,0,0,0-0.1,0c0,0-0.1-0.1-0.1,0c0.1,0.2,0.4,0.1,0.6,0.2c-0.2,0.2,0,0,0.1-0.1
			c0,0.2,0.4,0,0.6-0.1c0.3-0.2-0.1,0-0.1-0.3C306.5,191.2,306.5,191.3,306.4,191.3z M305.5,191.5
			C305.5,191.5,305.5,191.5,305.5,191.5C305.5,191.5,305.5,191.5,305.5,191.5z M305.9,183.3C305.9,183.2,305.9,183.2,305.9,183.3
			C305.9,183.2,305.9,183.3,305.9,183.3z M305.9,191.4C305.8,191.4,306,191.4,305.9,191.4C305.9,191.4,305.9,191.4,305.9,191.4z
			 M306.3,180.6c0.2,0.2,0.1-0.1,0.1-0.2C306.1,180.6,306,180.6,306.3,180.6z M306.5,180.5C306.5,180.5,306.5,180.5,306.5,180.5
			S306.5,180.5,306.5,180.5z M309.9,184.1L309.9,184.1C309.8,184.1,309.9,184.2,309.9,184.1z"/>
		<path d="M319,177.5c0.3,0,0.1,0.2,0.5,0.1c0.1,0.2,0,0.1,0.1,0.2c-0.3,0-0.1,0.2-0.2,0.4c0,0.1-0.2,0.2-0.2,0.4c0,0,0,0,0,0
			c0,0,0,0,0,0c0,0,0,0,0,0.1c0,0.1,0.1,0.2-0.1,0.2c0,0.1,0.1,0.2,0,0.3c-0.1,0-0.1,0-0.1,0.1c-0.1,0.1,0.1,0.4,0,0.3
			c-0.2-0.1-0.2,0.2-0.3,0.2c0.1-0.2-0.3,0.1-0.2-0.1c-0.2,0.1,0.1,0.4-0.2,0.2c0.2,0,0,0,0.1-0.1c-0.1-0.1-0.2,0-0.2,0.1
			c-0.1,0-0.3,0.2-0.1,0c-0.2,0-0.4,0.2-0.5,0.1c-0.1,0-0.3,0.1-0.4,0.1c-0.1,0-0.3,0.1-0.3,0c-0.3-0.1-0.3,0.3-0.3,0.1
			c-0.2,0.2,0,0.1,0,0.2c0,0,0,0,0,0c0,0,0,0,0,0c-0.2,0.1,0.4,0,0.1,0.1c-0.2,0.1,0.1,0.1-0.1,0.2c0,0.1-0.1,0.4-0.1,0.4
			c0.3,0-0.1,0.3,0.1,0.2c0.2,0-0.3,0.1-0.2,0.3c0.1,0.1-0.1,0.3,0,0.5c0-0.1-0.2-0.1-0.2,0.3c-0.1,0.1,0.2,0.4-0.1,0.3
			c0,0.1,0.2,0.2,0,0.1c0,0.2-0.1,0.1,0,0.2c0.2-0.1,0,0.4-0.1,0.1c-0.1,0.2-0.1,0.4-0.2,0.6c-0.1,0.3,0.1,0.2-0.1,0.4
			c0,0.1-0.1,0.2-0.1,0.4c0,0.1-0.1,0.2-0.1,0.3c0,0.1-0.1,0.3-0.1,0.4c0,0.1-0.1,0.3-0.1,0.4c-0.1,0.1,0,0.3-0.1,0.2
			c0,0.1-0.1,0.2-0.1,0.3c-0.1,0.2,0,0.6-0.1,0.8c-0.2,0.2,0,0.2-0.1,0.5c0,0.1-0.1-0.1,0,0.2c-0.1,0.1,0,0.2-0.1,0.3
			c-0.1,0.1,0,0.4-0.1,0.4c0.1,0.1,0,0.3,0,0.4c-0.1,0.1,0,0.2-0.1,0.3c0,0,0,0.1,0,0.3c0,0,0.1,0.2,0,0.3c0,0.2,0.1,0.2,0.1,0.4
			c0,0.1-0.1,0.2-0.1,0.3c0,0.2-0.2,0-0.1-0.1c0.2-0.1,0-0.1-0.1,0c0.1,0.4-0.4,0.1-0.1,0.4c-0.1,0.1-0.2-0.1-0.4-0.1
			c-0.1,0-0.1,0.2-0.2,0.2c0-0.1-0.1-0.2-0.3-0.1c0.1,0-0.1,0.2-0.1,0c-0.1,0-0.2,0.1-0.2,0c-0.1-0.1,0,0.4-0.2,0
			c0.1-0.1,0-0.1,0-0.2c0,0,0,0,0,0c0,0,0,0,0,0c-0.1,0-0.1,0-0.1,0c0.1,0.2-0.2-0.1-0.2,0.1c0,0.2-0.1,0-0.3,0.1
			c0.2,0.1,0,0-0.1,0.1c-0.1,0.1-0.2,0.2-0.2-0.1c0-0.1-0.1-0.4,0-0.8c0.3-2.6,0.8-5.1,1.6-7.6c0.1-0.5,0.3-1,0.4-1.4
			c0.1-0.2,0-0.3-0.1-0.1c-0.2,0-0.4,0.1-0.6,0.1c-0.2,0.1-0.3,0.1-0.4,0.2c-0.1,0-0.3-0.1-0.3,0.1c0,0-0.1,0-0.1,0.1
			c0,0,0-0.1,0-0.1c-0.1,0,0,0.1,0,0.1c-0.2,0.1-0.3-0.1-0.4,0c-0.2,0.1-0.4,0.1-0.5,0.2c-0.1,0-0.2,0.1-0.3,0
			c-0.1,0.1-0.2,0.1-0.3,0.1c-0.2,0.2-0.3,0-0.1-0.1c0.2,0,0.5-0.1,0.2-0.2c-0.2,0.1,0-0.2-0.2-0.1c-0.5,0.1-0.2,0,0.1-0.1
			c0.3,0,0.2-0.1,0.2-0.2c-0.4,0,0.2-0.1-0.1-0.1c0.4-0.1-0.3,0,0.1-0.1c0-0.2-0.2-0.1,0-0.3c0-0.1-0.2-0.2,0.1-0.3
			c0.2-0.1,0.1-0.3,0.2-0.3c-0.2,0-0.1-0.4-0.2-0.3c-0.1-0.1,0-0.3,0.2-0.4c2-0.4,4.1-1,6.1-1.2C318,177.6,318.5,177.6,319,177.5z
			 M312.7,181.2C312.7,181.2,312.7,181.2,312.7,181.2C312.7,181.2,312.7,181.2,312.7,181.2z M312.9,190.5
			C312.9,190.5,312.9,190.5,312.9,190.5C312.9,190.5,312.9,190.5,312.9,190.5z M314.4,191.1c0-0.1,0.1,0.2-0.1,0.2
			c0-0.1,0-0.2,0-0.4C314.4,191,314.5,190.9,314.4,191.1z M314.3,189.9c0.1-0.1-0.1-0.1,0-0.4C314.3,189.6,314.2,189.8,314.3,189.9z
			 M314.4,188.9C314.4,189.3,314.5,188.9,314.4,188.9C314.4,188.9,314.4,188.9,314.4,188.9z M314.5,188.2
			C314.4,188.7,314.5,188.4,314.5,188.2C314.5,188.1,314.5,188.2,314.5,188.2z M315.7,183.6C315.8,183.9,315.5,183.6,315.7,183.6
			C315.7,183.6,315.7,183.6,315.7,183.6z M317.2,180.1c-0.3,0,0,0,0-0.1C317.2,180.1,317.2,180.1,317.2,180.1z M317.6,179.9
			c0.1,0,0.4-0.1,0.2-0.1C317.7,179.8,317.7,179.8,317.6,179.9C317.6,179.8,317.6,179.9,317.6,179.9z M319.1,179
			C319.1,179,319.1,179,319.1,179C319.2,179,319,179.1,319.1,179z M319.1,178.9C319.1,178.9,319.1,178.9,319.1,178.9
			C319.2,178.9,319.1,179,319.1,178.9z M319.6,178c0-0.1-0.3,0.1-0.1-0.1c0,0,0,0,0,0C319.6,177.9,319.7,178.1,319.6,178z"/>
		<path d="M324.3,176.8c0.4,0.1,0.4,0.1,0.5,0.2c0.2,0.1,0.1,0.3,0.3,0.3c0,0.1,0.1,0.3,0.1,0.4c-0.1,0.3,0.3,0.2,0.1,0.4
			c0,0.2,0.3,0.3,0.2,0.5c0.1,0,0,0.2,0,0.2c-0.1,0.3,0.2,0.4,0,0.6c0,0.2-0.1,0.4-0.2,0.7c0,0.2-0.3,0.5-0.3,0.7c0,0,0,0,0,0
			c0,0,0,0,0,0c0,0,0,0.1,0,0.1c-0.1,0-0.2,0.2-0.1,0.4c0,0-0.2,0-0.3,0.3c0.1-0.1-0.1,0.3,0,0.1c-0.1,0-0.2,0.3-0.1,0.3
			c-0.1,0.4-0.1-0.1-0.3,0.3c-0.2,0.3,0,0.2-0.3,0.5c-0.1,0.2-0.3,0.4-0.2,0.5c-0.1,0.1,0.1,0.1,0,0.1c-0.2,0.1-0.1,0.4-0.6-0.1
			c-0.5-0.4-1.1-1-0.8-1.6c0.3-0.7,0.7-1.3,1.1-2c0.2-0.1,0.1-0.5,0.2-0.4c0.1-0.1,0.1-0.3-0.1-0.2c0.1-0.1,0-0.1-0.1,0
			c-0.1,0,0.2,0.4-0.1,0.2c-0.2-0.1,0,0.1,0,0.1c-0.3,0.1-0.8,0.2-0.8,0.3c0-0.2-0.2,0.1-0.2,0.2c-0.3,0.2-0.7,0.5-1,0.8
			c-0.1,0.2-0.5,0.2-0.5,0.4c0.1,0.1-0.1,0.1-0.2,0.3c-0.1-0.2-0.4,0.4-0.5,0.5c-0.2,0-0.3,0.5-0.3,0.4c-0.2,0.3-0.1,0.1,0,0.3
			c-0.1,0-0.3,0.1-0.2,0.2c-0.1,0.1,0,0.2-0.1,0.2c-0.1,0.2-0.2,0.2-0.2,0.4c0.4,0.3,0.8,0.4,1.2,0.5c0.9,0.3,1.9,0.5,2.6,1.2
			c0.2,0.1,0.1,0.2,0.2,0.3c0,0.1,0.1,0.1,0.1,0.1c0,0,0,0,0,0c0,0,0,0,0,0c0,0,0.1,0.1,0.1,0.1c0.5,0.4,0.6,0.9,0.6,1.6
			c0,0.2,0,0.3-0.1,0.5c0,0.2-0.4,0.4-0.2,0.4c-0.2,0.3-0.5,0.5-0.7,0.7c-0.2,0.1-0.3,0.2-0.5,0.2c-0.1,0.1-0.3,0.2-0.4,0.2
			c0,0.1-0.2,0.1-0.2,0.1c-0.1,0-0.2,0.1-0.3,0.1c-0.2,0.1-0.2,0.1-0.3,0.1c-0.2,0.1-0.4,0.1-0.5,0.2c-0.1,0.2-0.1,0-0.3,0.1
			c-0.1,0-0.1,0-0.2,0.1c-0.3,0-0.1,0-0.2,0.1c-0.1,0-0.1,0-0.2,0c0,0,0,0,0,0c0,0,0,0,0,0c-0.1,0-0.1,0-0.2,0c-0.1-0.1,0,0.2-0.1,0
			c-0.2,0.1-0.6,0.2-0.4,0c-0.2-0.2,0.2,0.1,0.1,0c0.1-0.1,0.2,0,0.2,0c0,0,0,0,0-0.1c0.3-0.1,0.4-0.1,0.7-0.2
			c0.2-0.2,0.1,0,0.4-0.1c0-0.1,0.1-0.2,0.2-0.1c0.1-0.1,0.1,0,0.2-0.1c0.2,0,0.2-0.2,0.2-0.2c0.1-0.1,0.2,0.1,0.3,0
			c0.1-0.1-0.1-0.1,0-0.2c0.2-0.1,0.3,0.1,0.4,0c0-0.1-0.3,0.1-0.1-0.1c0.4-0.2,0.1-0.1-0.1,0c-0.2,0.1-0.4,0.2-0.7,0.2
			c-0.1,0.2-0.2,0-0.3,0.1c-0.2,0-0.4,0.1-0.6,0.2c-0.2,0.1-0.1-0.1-0.3,0c-0.2,0-0.2,0.3-0.2,0.1c-0.2,0,0,0.2-0.3,0
			c-0.1,0.1,0.1-0.1-0.1-0.1c-0.2,0-0.7,0.1-0.6,0c0,0,0,0,0,0c0,0-0.1,0,0,0c-0.1,0-0.3,0-0.4-0.2c0-0.2,0.1-0.2-0.2-0.3
			c-0.1,0.1-0.2,0-0.3,0c-0.2,0-0.2-0.2-0.3-0.2c-0.3-0.1,0.6-0.3,0.2-0.2c-0.2-0.1,0.1,0,0.1-0.2c1.2-0.4,2.4-0.7,3.5-1.3
			c0.2-0.2,1.2-0.6,0.6-0.8c-0.2-0.1-0.4-0.2-0.6-0.2c-0.3-0.1-0.5-0.2-0.8-0.3c-0.2-0.1-0.3-0.1-0.6-0.2c-0.3-0.2-0.7-0.3-0.9-0.6
			c-0.1-0.2-0.2-0.4-0.3-0.6c-0.1-0.1-0.1-0.1,0-0.2c-0.1-0.1-0.1-0.5-0.2-0.6c-0.1,0.3-0.1,0,0-0.1c-0.2,0.1-0.2,0-0.2-0.2
			c0,0.1,0-0.3-0.1-0.1c-0.1,0-0.2-0.5-0.1-0.7c0-0.8,0.4-1.6,0.9-2.3c1.1-1.5,2.6-2.7,4.3-3.4c0.3-0.1,0.6-0.2,0.9-0.3
			C324.1,176.7,324.3,176.7,324.3,176.8z M318.4,184.3c-0.1,0,0.3,0.3,0.2,0.2C318.4,184.5,318.4,184.5,318.4,184.3
			C318.3,184.2,318.4,184.4,318.4,184.3z M318.4,184.2C318.6,184.6,318.4,184.4,318.4,184.2C318.4,184.2,318.4,184.2,318.4,184.2z
			 M318.6,184.3C318.7,184.8,318.8,184.5,318.6,184.3C318.6,184.3,318.6,184.3,318.6,184.3z M319.1,184.8
			C319.1,185.1,319.3,185.1,319.1,184.8C319.1,184.8,319.1,184.8,319.1,184.8z M319.3,185.2C319.3,185.2,319.3,185.2,319.3,185.2
			c-0.1,0.1,0.1,0,0,0.1C319.4,185.4,319.4,185.2,319.3,185.2C319.3,185.2,319.3,185.2,319.3,185.2
			C319.3,185.2,319.3,185.2,319.3,185.2z M319.3,185.2C319.3,185.2,319.3,185.2,319.3,185.2C319.3,185.2,319.3,185.2,319.3,185.2z
			 M319.4,189.9C319.4,190,319.3,190,319.4,189.9C319.3,189.9,319.4,189.9,319.4,189.9z M319.5,185.4
			C319.4,185.5,319.6,185.6,319.5,185.4C319.5,185.4,319.5,185.4,319.5,185.4z M319.7,185.5c0.1,0.1,0.2,0.1,0.1,0.1
			c0.1,0.1,0.3,0.2,0.3,0C319.9,185.5,319.8,185.5,319.7,185.5C319.7,185.5,319.6,185.5,319.7,185.5z M320.2,185.8
			C319.9,185.7,320.2,185.9,320.2,185.8c0.1,0.1,0.3,0.2,0.3,0.2c0,0,0,0,0,0c0,0,0,0,0.1,0c0,0,0,0,0,0c0.1,0,0.2,0.1,0.3,0.1
			c0.1-0.2-0.1-0.1-0.3-0.2c0,0.1-0.3,0.1-0.3-0.1C320.4,185.8,320.1,185.7,320.2,185.8z M320.1,190.2
			C320.1,190.2,320.2,190.2,320.1,190.2C320.2,190.2,320.1,190.2,320.1,190.2z M320.2,190.1C320.2,190.1,320.2,190.1,320.2,190.1
			C320.1,190.1,320.2,190.2,320.2,190.1C320.2,190.2,320.3,190.2,320.2,190.1C320.2,190.1,320.2,190.1,320.2,190.1z M320.2,185.8
			C320.3,185.9,320.1,185.8,320.2,185.8C320.2,185.8,320.2,185.8,320.2,185.8z M320.2,190.2C320.2,190.2,320.2,190.1,320.2,190.2
			C320.2,190.1,320.2,190.2,320.2,190.2z M320.6,186C320.6,186,320.6,186,320.6,186C320.6,186,320.6,186,320.6,186z M320.8,186
			C320.8,186,320.8,186,320.8,186C320.9,186,320.7,186.1,320.8,186z M321.3,186.1c0,0.1,0.2,0.1,0.3,0.2c0.1,0,0.2,0.1,0.3,0.1
			c0.1,0.1,0.1,0,0,0c-0.3-0.1-0.1-0.1,0.2,0c0.1,0.1,0.3,0.1,0.2,0c0-0.1-0.2-0.1-0.2-0.1c-0.1,0-0.3-0.1-0.4-0.1
			c-0.2-0.1-0.3,0.1-0.3-0.1C321.3,186,321.3,186.1,321.3,186.1z M321.5,186.4C321.6,186.4,321.5,186.4,321.5,186.4
			C321.4,186.3,321.5,186.5,321.5,186.4z M325.2,181.3C325.2,181.3,325.2,181.3,325.2,181.3C325.2,181.3,325.2,181.3,325.2,181.3z
			 M325.3,180.9L325.3,180.9C325.3,180.8,325.3,180.9,325.3,180.9z"/>
		<path d="M330.8,176c0.1,0,0.3,0.1,0.4,0.3c0.1,0.2,0.4,0.4,0.3,0.5c0.2,0.1,0.4,0.3,0.4,0.6c0.2,0,0,0.2,0.2,0.3
			c0.1,0.3,0.1,0.7,0.2,1c0,0.1,0.1,0.4,0.1,0.4c0,0-0.3,0.5-0.1,0.3c0.1,0.4-0.1-0.1-0.1,0.2c-0.1,0.3,0.2-0.1,0.1,0.1
			c0,0.2-0.1,0.6-0.2,0.6c-0.2,0.1-0.1,0-0.2,0.2c-0.1,0.1,0,0.2-0.2,0.4c0,0.1-0.1,0.2-0.1,0.2c0-0.2-0.1-0.1-0.2,0
			c0-0.2-0.1-0.1,0-0.2c0.1-0.2-0.2,0.2-0.1-0.1c-0.1,0-0.1,0-0.3-0.1c-0.1,0.1-0.3,0.1-0.2-0.1c-0.1,0.1-0.3,0.1-0.3,0
			c0,0-0.2-0.1-0.1-0.2c-0.1-0.1,0.2-0.1,0-0.2c0.1-0.2,0.1-0.2-0.1-0.2c-0.3-0.3,0.2,0,0-0.1c-0.1-0.1-0.3-0.1-0.3,0
			c0,0-0.4-0.1-0.2-0.2c-0.2,0.1-0.1,0.3-0.3,0.2c-0.2,0.2-0.3,0.4-0.3,0.6c-0.2,0.1-0.1,0.1-0.2,0.3c-0.1,0.1-0.2,0.3-0.3,0.4
			c-0.1,0.2-0.2,0.4-0.3,0.6c0,0.1-0.2,0.4-0.2,0.5c-0.1,0.2-0.1,0.2-0.1,0.3c0,0,0,0,0,0c0,0,0,0,0,0.1c0,0-0.1,0.1-0.1,0.2
			c0,0,0,0.1,0,0.1c0,0.1,0,0.2,0,0.1c0,0.1-0.1,0.2-0.1,0.4c-0.1,0-0.1,0.2-0.1,0.2c0,0.2,0.1,0.6-0.1,0.8c0,0.1,0,0.2-0.1,0.2
			c0.1,0.2-0.1,0-0.1,0.2c0.1,0.1,0,0.2,0,0.2c0.1,0.1,0,0.2,0,0.3c0,0.1,0,0.1,0,0.2c0,0,0,0,0,0c0,0,0,0,0,0c0,0.1,0,0.1,0,0.2
			c0,0.2,0.1,0.2,0,0.4c0,0,0,0,0,0c0,0,0,0,0,0c-0.1,0.1,0,0.1,0,0.1c0,0.1,0.1,0.1,0,0.3c0,0.1,0.1,0.4,0.2,0.4
			c-0.1,0.3,0.1,0.5,0.4,0.2c1-0.6,1.7-1.5,2.5-2.4c0.1-0.1,0.3-0.3,0.1,0c0.2-0.3,0.2-0.1,0.4-0.3c0.1-0.1,0.2,0.1,0.1,0.1
			c0.1,0.1,0.1,0.2,0.3,0.3c0.2-0.2,0.1-0.1,0.2,0.1c-0.2,0.3,0.1-0.1,0.3-0.1c-0.1,0.3,0,0.2,0.1,0.4c0,0,0,0,0-0.1c0,0-0.1,0,0,0
			c0,0,0,0,0,0c0,0,0,0,0-0.1c0,0,0,0,0.1,0c0,0.1,0,0.2,0.1,0.2c0,0,0.3-0.3,0.2-0.1c0.2-0.1,0.1,0.3-0.1,0.4
			c-0.1-0.1,0-0.2-0.1-0.1c0.1,0-0.1,0.2,0.1,0.2c0.3,0.1-0.3,0.1,0,0.2c-0.1,0-0.1,0.1-0.2,0.2c0,0,0,0,0,0c0,0.1-0.1,0.1-0.1,0.1
			c0.2,0-0.1,0-0.2,0.1c-0.2,0.1,0,0.3,0,0.4c-0.1-0.1-0.1,0.1-0.1,0.2c-0.1-0.1,0,0.1-0.1,0.1c-0.1-0.1,0.1-0.1,0.1-0.2
			c0-0.1-0.1-0.2-0.1-0.1c-0.1,0.1-0.3,0.3-0.3,0.5c-0.2-0.1-0.2,0.1-0.2,0.1c0,0-0.1,0-0.1,0.1c0,0.1,0,0.2-0.1,0.3
			c-0.1-0.1-0.2,0.1,0,0.1c-0.1,0.2-0.2-0.1-0.1,0.1c0.1,0,0.1,0.1,0,0.1c-0.2,0.1-0.1-0.1-0.2-0.1c0,0.1,0,0.1-0.2,0.1
			c0,0,0,0.1,0,0.1c0,0,0,0,0,0c0.1,0,0,0.1-0.1,0c-0.1,0.1-0.2,0.1-0.2,0.1c0,0.1-0.4,0.2-0.4,0.3c-0.1,0.1-0.3,0.1-0.5,0.1
			c-0.1-0.3,0,0.1-0.2,0c0-0.1-0.3-0.1-0.4-0.1c-0.2,0-0.5-0.1-0.7-0.1c0.4,0.2-0.2-0.1-0.1,0.1c0.1,0.1,0.3,0,0.3,0.1
			c0.1,0.1,0.5,0.2,0.2,0.2c-0.2,0.1-0.2-0.1-0.5-0.1c-0.1-0.1-0.2-0.1-0.4-0.1c0.3-0.1,0-0.1,0-0.1c-0.3-0.2,0.2,0.1-0.1-0.2
			c-0.3-0.3-0.1,0.2-0.3-0.1c0-0.1-0.3-0.3-0.5-0.3c-0.2,0-0.6-0.4-0.6-0.2c-0.3-0.3-0.6-0.6-0.8-1c-0.1-0.2-0.2-0.4-0.1-0.5
			c0-0.1,0-0.3,0-0.3c0-0.7,0-1.5,0.2-2.2c0.5-2.4,1.6-4.7,3.2-6.7c0.3-0.3,0.5-0.6,0.8-0.8c0.1-0.2,0.3-0.1,0.5-0.3
			c0.1-0.1,0.7-0.1,0.6-0.1c0,0,0,0,0,0C330.5,175.9,330.7,175.9,330.8,176z M327.3,186.1C327.3,186.1,327.3,186.1,327.3,186.1
			C327.3,186.1,327.3,186.1,327.3,186.1z M327.8,183.5C327.9,183.5,327.6,183.5,327.8,183.5C327.8,183.5,327.8,183.5,327.8,183.5z
			 M327.9,182.8C327.9,182.8,328,182.8,327.9,182.8C328,182.8,328,182.8,327.9,182.8z M329,188.9c0.1,0.1,0,0.1-0.1,0.2
			c-0.2,0-0.2-0.1-0.1-0.2C328.9,189,328.9,188.9,329,188.9z M329,189.1c-0.4,0,0.1,0,0.1-0.1C329.3,189.1,329.1,189.1,329,189.1z
			 M328.9,180.5C328.8,180.5,329,180.4,328.9,180.5C328.9,180.5,328.9,180.5,328.9,180.5z M331.5,187.2c0,0.2-0.3,0.2-0.3,0.3
			c-0.2,0.2-0.2,0.2-0.3,0.3c-0.1,0.1-0.3,0.3-0.4,0.4c0,0,0,0,0,0c0,0.1-0.1,0.1-0.1,0.1c0,0.1-0.1,0.1-0.1,0c-0.2,0,0,0.2-0.3,0.2
			c-0.1,0.4-0.1-0.1-0.2,0.2c-0.1,0.1-0.2,0.1-0.3,0.2c0,0,0,0,0,0c0,0,0,0,0,0c0,0-0.1,0-0.1,0.1c-0.2-0.1-0.1-0.2,0.1-0.2
			c0.2-0.2,0.3-0.1,0.5-0.3c0.1,0,0.3-0.3,0.3-0.3c0.1-0.1,0.4-0.3,0.6-0.5C331.1,187.5,331.3,187.2,331.5,187.2
			C331.5,187.1,331.5,187.1,331.5,187.2z M329.6,188.3C329.7,188.3,329.7,188.3,329.6,188.3C329.6,188.3,329.7,188.3,329.6,188.3
			C329.6,188.3,329.6,188.3,329.6,188.3C329.6,188.3,329.6,188.3,329.6,188.3z M329.6,188.3C329.6,188.3,329.6,188.3,329.6,188.3
			C329.6,188.3,329.6,188.3,329.6,188.3z M329.8,188.5c-0.3,0.1,0-0.1,0-0.2C329.9,188.4,329.9,188.5,329.8,188.5z M329.7,188.8
			C329.7,188.8,329.7,188.8,329.7,188.8C329.7,188.8,329.7,188.8,329.7,188.8z M330,179.9C330,180.1,330,180,330,179.9
			C330,179.9,330,179.9,330,179.9z M330.9,184.5c0,0.2,0,0.2,0,0.2c0,0,0.2,0,0,0c0,0,0,0,0,0C331,184.6,331,184.4,330.9,184.5
			C330.9,184.5,330.9,184.5,330.9,184.5z M330.9,184.6C330.9,184.6,330.9,184.6,330.9,184.6C330.9,184.6,330.9,184.6,330.9,184.6z
			 M331.6,180.7C331.6,180.7,331.6,180.7,331.6,180.7C331.6,180.7,331.6,180.9,331.6,180.7z M331.8,186.8
			C331.6,187,331.6,186.9,331.8,186.8C331.8,186.8,331.8,186.8,331.8,186.8z M331.9,186.6c-0.2,0,0.2-0.2,0.2-0.3
			C332.2,186.5,331.9,186.5,331.9,186.6z M331.9,186C331.9,186,331.9,186,331.9,186C331.9,186,331.9,186,331.9,186z M332.4,185.5
			C332.5,185.6,332.2,185.5,332.4,185.5C332.4,185.4,332.4,185.4,332.4,185.5C332.5,185.4,332.4,185.5,332.4,185.5z"/>
		<path d="M335.7,175.3c0.1-0.1,0.2,0.1,0.2,0.2c0.1,0.2,0.2,0.3,0.5,0.3c0,0,0,0.2,0.1,0.2c0.2,0,0,0.2,0.1,0.3
			c0.1,0.1,0.2,0,0.2,0.1c-0.1,0.1,0.1,0.3,0.1,0.6c0,0.3-0.2,0.1-0.2,0.3c0.2,0.1,0.1,0.1,0.1,0.2c-0.1,0.2-0.3,0.3-0.1,0.3
			c-0.1,0.2-0.1,0.2-0.1,0c0,0.1-0.1,0.2-0.1,0.3c0,0,0,0,0,0c-0.1,0,0,0,0,0c0,0.2,0,0.3-0.1,0.6c-0.1,0.4,0,0.2-0.2,0.6
			c0,0.1-0.1,0.5-0.1,0.6c0,0-0.1,0.1-0.1,0.3c0.2,0.1-0.1,0-0.1,0.2c0.1,0.3,0,0.1-0.1,0.4c0.9-0.2,1.8-0.4,2.7-0.6
			c0.3-1.4,0.7-2.9,1.1-4.3c0.1-0.3,0.1-0.7,0.3-0.8c0.1-0.2,0.5-0.4,0.5-0.1c0.2,0.2-0.2-0.4,0.1-0.1c0.1-0.2,0,0.3,0.2,0.2
			c0,0.2,0.3,0.2,0.1,0.3c0.1-0.1,0.1,0.1,0.3,0c-0.2,0.2,0.2,0,0.2,0.2c0.2-0.1,0,0,0.2,0.1c0.1,0.3,0.2-0.1,0.2,0.1
			c0,0.2,0.1,0.3,0,0.5c0,0,0.2,0.2,0,0.2c-0.1,0.3,0.3-0.2,0.1,0.2c-0.1-0.2,0,0.1-0.1,0.2c0.1,0.2-0.2,0.1,0,0.2
			c-0.1,0.1-0.2,0.3-0.2,0.4c0,0.1,0.1,0.2,0,0.2c-0.1,0.3,0,0.6-0.1,0.9c-0.2,0.6-0.3,1.2-0.4,1.8c0,0.3-0.2,0.6-0.2,1
			c-0.1,0.1,0,0.2-0.1,0.3c0,0.2,0,0.3,0,0.4c-0.1,0.4-0.1,1-0.2,1.5c0,0.1-0.1,0.5-0.1,0.6c0,0,0,0.1,0,0.2c0,0.2-0.1,0.2,0,0.3
			c-0.1,0.1,0,0.3-0.1,0.5c-0.1,0.3,0,0.6-0.1,0.8c0,0.3,0,0.3,0,0.6c0,0,0,0,0,0c0,0,0,0,0,0c0,0,0,0,0,0.1c0,0.2,0,0.3,0,0.4
			c0,0.3-0.2,0.2-0.1,0c0-0.4-0.1,0.3-0.1-0.1c0-0.2-0.2-0.1-0.2,0c0.1-0.1-0.1,0-0.1-0.1c0,0,0,0.1-0.1,0.2c0.1-0.2-0.2,0-0.4-0.1
			c-0.2,0.2-0.1-0.1-0.3,0.1c0,0-0.1-0.3-0.1-0.2c-0.2,0.2-0.1-0.2-0.2-0.1c-0.1,0,0,0.3-0.2,0.2c0,0.3-0.1,0.2-0.2,0.1
			c0-0.1-0.1-0.2-0.1-0.2c0,0-0.1,0,0,0c0,0-0.1,0,0-0.1c0.1-1.4,0.3-2.8,0.4-4.1c-0.2,0-0.5,0.1-0.6,0.1c-0.1,0-0.4,0.1-0.6,0.2
			c-0.2,0.1-0.4,0-0.5,0.1c-0.1,0-0.4,0.2-0.5,0.2c-0.1-0.1-0.2,0.1-0.3,0.1c0,0.2-0.1,0.4-0.1,0.6c-0.1,0.2-0.1,0.4-0.1,0.6
			c0,0.3-0.1,0.9-0.1,1.1c-0.1,0,0.1,0.2,0,0.2c0,0.1,0,0.1,0,0.3c0,0,0,0,0,0c0,0,0,0,0,0.1c-0.1,0.2,0.1,0.2,0,0.3
			c0,0,0.1,0.4,0,0.3c0,0.3,0,0.3,0,0.6c-0.1,0,0,0.6-0.1,0.4c-0.1-0.2-0.2,0.1-0.2-0.3c-0.1,0.1-0.2,0-0.2,0.1
			c-0.2-0.1,0,0.4-0.2,0.1c0.1-0.1-0.1-0.1-0.2-0.1c-0.1-0.2-0.4,0.1-0.3-0.1c0,0-0.1,0-0.1-0.1c0,0-0.2,0.1,0,0c0,0,0,0,0,0
			c-0.1-0.1-0.1-0.1-0.2-0.2c0,0,0,0,0,0c0,0,0,0,0,0c0,0.1,0,0.3-0.1,0.1c-0.1,0,0-0.1-0.1,0c-0.1-0.1-0.2,0.1-0.2,0.1
			c-0.1-0.1-0.1-0.1-0.3-0.2c0-0.3-0.1-0.1-0.1-0.3c0.1,0-0.1-0.3,0-0.6c0.2-3.4,0.9-6.9,2-10.3c0.1-0.3,0.2-0.8,0.3-0.8
			c0.1-0.4,0.1-0.1,0.3-0.2C335.6,175.2,335.6,175.3,335.7,175.3C335.8,175.1,335.6,175.3,335.7,175.3z M340.2,186.7L340.2,186.7
			C340.2,186.7,340.2,186.7,340.2,186.7z"/>
		<path d="M345,174c0.1,0,0.2,0,0.3,0.1c0.1,0.1,0.3,0,0.3,0.2c0,0,0.3,0.3,0.2,0.2c0-0.1,0.1,0.1,0.1,0.1c0,0.2,0,0.4,0.1,0.5
			c0,0.1-0.1,0-0.2,0.2c0,0.3-0.1,0.2,0.1,0.3c-0.1,0.1,0,0.2-0.1,0.2c-0.1,0.2,0.1,0.3,0,0.4c0.1,0.2-0.1,0.3-0.1,0.4
			c0.1,0,0.1,0.1,0.1,0.3c-0.1,0.4-0.1,0.1-0.2,0.3c0.1,0,0,0.1,0,0.3c-0.1,0.1,0,0.3-0.1,0.4c0,0.2-0.1,0-0.1,0.4
			c0,0.1-0.1,0.3-0.1,0.4c-0.1,0.2,0.1,0,0,0.2c0,0.1,0,0.2-0.1,0.5c0,0.1,0,0.1,0,0.1c0,0,0,0,0,0c0,0,0,0,0,0
			c-0.1,0.1,0,0.3-0.1,0.4c0,0.3-0.1,0.6-0.2,0.9c0.1,0-0.1,0.4-0.1,0.5c0,0.4-0.1,0.8-0.2,1.2c-0.1,0.3-0.1,0.7-0.1,0.9
			c0,0.1-0.1,0.4-0.1,0.6c0.8-0.1,1.7-0.3,2.5-0.2c0.1,0.1,0.2,0.1,0.4,0.1c0.1,0.1,0.3,0.2,0.1,0.2c0.1,0.1,0.1,0.5,0,0.1
			c-0.1,0-0.1,0-0.1,0.1c0,0,0,0,0,0c0,0.1,0,0.1,0.1,0.1c-0.1,0.2-0.3-0.1-0.1,0.2c-0.2,0.1-0.1,0.1-0.2,0.2
			c-0.1,0.2,0.2,0,0.3,0.2c-0.1,0.1-0.6,0.1-0.2,0.3c-0.2,0.2,0.1,0.2-0.2,0.3c0.1,0,0.1,0.1,0,0.2c-0.1,0,0,0.2,0,0.3
			c-0.1,0.3-0.3-0.2-0.2,0.2c0.1,0.2-0.3,0-0.3,0c0,0.1,0.1,0.3,0,0.1c-0.2,0.1-0.2,0-0.3,0.1c-0.1-0.1-0.3,0-0.2,0
			c0-0.1-0.3,0.1-0.3,0c-0.1,0-0.3,0.1-0.3,0c0,0-0.3,0.1-0.4,0.1c0-0.1-0.2,0.1-0.2-0.1c-0.1,0.2-0.3,0.1-0.5,0.2
			c-0.1-0.1-0.2,0-0.3,0c0,0,0,0,0,0c0,0-0.1,0-0.1,0.1c-0.1,0-0.1,0-0.2,0c0,0,0,0,0,0c0,0-0.1,0-0.1,0c0,0-0.1,0,0,0
			c-0.1,0-0.1,0-0.1,0c0,0,0,0,0,0c0,0,0,0,0,0c0,0,0,0-0.1,0c0,0.1-0.3,0.1-0.5,0.1c0.2,0-0.1,0.1-0.2,0.1c0,0-0.1,0-0.2,0.1
			c0.1,0,0.1,0,0.2,0c0,0,0,0,0,0c0,0.1,0,0.1-0.2,0.1c0.1,0.1-0.2,0-0.1,0.1c-0.1,0.1-0.2-0.1-0.3,0c-0.1,0.1-0.1,0.1-0.2,0.1
			c0,0,0,0,0,0c0,0,0,0,0,0c-0.1,0-0.1,0-0.2,0.1c-0.3,0.1,0-0.1,0-0.1c0,0,0-0.1,0-0.1c0,0,0,0,0,0.1c0,0,0,0,0,0c0,0.1,0,0-0.1,0
			c0.4-0.1-0.2-0.1,0-0.2c0-0.1,0.1-0.2,0-0.3c0.1,0.2-0.2,0-0.1,0c0.1-0.1-0.2-0.1,0.1-0.1c-0.1-0.1-0.2-0.2-0.1-0.4
			c0,0.1-0.3,0.2-0.2,0c0.1,0,0.1-0.5,0.1-0.3c0.2,0,0-0.2,0-0.2c0.1-0.1,0-0.3,0-0.3c0.1-0.1,0.2,0.2,0.2-0.1
			c-0.1,0-0.1-0.2-0.3-0.2c-0.1-0.1-0.1-0.2,0.1-0.3c0.3-0.4,0.7-0.1,0.7-0.7c0.4-2.9,1.1-5.8,1.8-8.7c0.1-0.4,0.3-0.8,0.3-1.1
			c-0.2-0.1-0.1-0.2-0.1-0.3c0.2-0.1,0.4-0.2,0.6-0.2C344.6,173.8,344.8,173.9,345,174z M341.2,187.3
			C341.3,187.5,340.9,187.4,341.2,187.3C341.2,187.3,341.3,187.3,341.2,187.3z M341.4,187.2C341.4,187.2,341.4,187.2,341.4,187.2
			C341.4,187.3,341.4,187.3,341.4,187.2z M341.5,187.3C341.6,187.3,341.6,187.3,341.5,187.3C341.6,187.3,341.6,187.3,341.5,187.3z
			 M341.6,187C341.6,187.1,341.7,187,341.6,187C341.6,187,341.6,187,341.6,187z M341.9,186.9C341.4,187.1,342.1,186.9,341.9,186.9
			C342,186.9,342,186.9,341.9,186.9z M342.4,186.9C342.4,186.9,342.4,186.9,342.4,186.9C342.4,186.9,342.4,186.9,342.4,186.9z
			 M342.5,186.9c-0.1,0.2-0.1,0-0.1,0C342.5,186.9,342.5,186.9,342.5,186.9z M342.5,186.9C342.6,186.9,342.6,186.9,342.5,186.9
			C342.5,186.9,342.5,186.9,342.5,186.9z M343,186.5C342.9,186.6,343.2,186.5,343,186.5C343,186.5,343,186.5,343,186.5z
			 M343.1,186.7C343.1,186.7,343.1,186.7,343.1,186.7C343.2,186.7,343.2,186.7,343.1,186.7z M343.4,186.7L343.4,186.7
			C343.5,186.7,343.4,186.7,343.4,186.7z M344.5,186.3c0.1,0,0.4-0.1,0.4-0.1c-0.1,0-0.3,0-0.4,0
			C344.2,186.1,344.1,186.3,344.5,186.3z M345.3,186.1C345,186.3,345.5,186.1,345.3,186.1C345.3,186.1,345.3,186.1,345.3,186.1z
			 M345.6,186.1C345.7,186.2,346,186.1,345.6,186.1C345.6,186.1,345.6,186.1,345.6,186.1C345.6,186.1,345.6,186.1,345.6,186.1z
			 M345.8,176.9C345.8,176.9,345.7,176.9,345.8,176.9C345.8,176.9,345.8,176.9,345.8,176.9c0,0,0-0.1,0.1-0.2
			C345.8,176.7,345.8,176.9,345.8,176.9z M346.6,185.9C346.6,185.9,346.6,185.9,346.6,185.9C346.5,185.9,346.4,186.1,346.6,185.9z"
			/>
		<path d="M353.3,173.2c0.1,0.1,0.3,0.3,0.5,0.4c0.1,0.1,0.2,0,0.3,0.1c0.1,0.2,0.4,0.2,0.4,0.4c0.2,0.2,0.3,0.4,0.3,0.6
			c0,0.4,0.2,0.3,0.2,0.7c-0.1,0-0.1,0.1-0.1,0.2c0.1-0.2,0.2,0.3,0,0.2c-0.1,0.5,0,0.9,0,1.4c-0.1,0.1,0.2,0,0,0.2
			c-0.1,0.1,0,0.1,0,0.2c0-0.1,0-0.1,0-0.1v0c0-0.1,0.1-0.1,0.1,0.2c-0.1,0-0.2,0.4-0.1,0.4c0.1,0.2,0,0.4,0,0.7
			c0.1,0.1-0.1,0.4,0.1,0.3c0,0.2,0,0.2-0.1,0.1c0,0,0,0,0,0c0,0,0,0,0,0.1c0,0.3,0.2,0.3,0,0.5c0.1,0.1-0.2,0.4,0,0.6
			c0,0.2-0.2,0-0.1,0.2c0.1-0.1,0.1,0.1,0.3,0.1c-0.1,0.1-0.2,0.1-0.2,0.2c0.2,0,0.2,0.2,0,0.3c0,0.1,0.4-0.1,0.2,0.1
			c-0.2-0.1-0.1,0.2-0.2,0.1c-0.1-0.1-0.1,0.1-0.1,0.1c-0.1,0.1,0.4-0.1,0.2,0c-0.2,0,0.1,0.2-0.1,0.1c-0.1,0.1,0,0-0.1,0.3
			c-0.1-0.1-0.1,0.1-0.1,0.2c-0.1,0,0.1,0.3-0.1,0.3c0,0.2,0,0.2,0,0.5c-0.1,0.2,0,0.4-0.1,0.6c0.2,0.1,0,0.1,0.1,0.2
			c-0.1,0-0.1,0.4-0.1,0.4c0.2,0.1-0.1,0.1,0,0.2c-0.1,0.1,0,0.4-0.1,0.5c0.1,0.2,0,0.3,0.1,0.5c0,0.3-0.4-0.2-0.3,0
			c-0.1,0-0.1,0.1-0.1,0.1c-0.1,0-0.3,0.1-0.3,0c0.1,0-0.2-0.1-0.2-0.1c0,0.3-0.2-0.2-0.2-0.1c-0.1,0.3-0.2-0.2-0.4-0.1
			c0.1-0.2-0.2-0.3-0.1-0.1c-0.1,0.2-0.4-0.1-0.3,0.1c-0.1,0.4-0.1-0.1-0.2,0c0,0.1-0.2-0.1-0.2,0.1c-0.2,0,0.3-0.3-0.1-0.2
			c0.1-0.6,0.1-1.1,0.1-1.7c-0.1-0.3,0.2-1.1-0.2-1c-0.4-0.2,0.4,0,0.3-0.3c0.1-0.1,0-0.3-0.3-0.1c0.2,0.1-0.1,0.2,0,0
			c-0.1,0-0.3,0.1-0.4,0.1c-0.2,0-0.2,0.2,0,0.1c0.2,0.1-0.3,0.2-0.2,0.2c0.1,0,0,0.1,0.1,0.1c-0.2,0-0.6,0.2-0.6,0.1
			c-0.2,0.2-0.1,0-0.3,0.1c-0.2,0.2-0.4,0-0.5,0.1c-0.1-0.2-0.3,0.1-0.4-0.1c0,0.1,0,0.3,0,0.1c-0.1,0.1-0.1,0.3,0.1,0.1
			c0.2,0,0.1,0.4-0.1,0.3c-0.1,0.1,0,0.3-0.1,0.2c-0.1-0.3-0.3,0.5-0.2,0.4c0.1,0,0.1,0.3,0,0.2c0-0.2-0.4,1-0.4,1.1
			c0-0.2-0.2,0.1,0,0.1c-0.1,0.2-0.1,0.3-0.1,0.1c-0.1,0.1-0.1,0.3-0.1,0.3c0,0,0,0.1,0,0.1c0,0.1-0.1,0.1-0.1,0.1
			c-0.3-0.1,0.2,0.2,0,0.1c0.1,0.2-0.3-0.1-0.2,0c-0.1-0.2-0.3,0.5-0.2,0c0.1-0.1-0.2-0.3-0.1-0.1c0,0.1,0,0.2-0.1,0.1
			c0,0,0.1,0,0,0c0,0,0,0,0,0c0,0-0.1-0.1,0-0.2c-0.3,0.1,0.1,0,0,0.2c0-0.1-0.2,0.1-0.2-0.1c0.2-0.1-0.2-0.2-0.2,0
			c0.2-0.2,0.1,0.2,0,0.1c0-0.2-0.2-0.1-0.1-0.1c-0.1-0.4-0.2,0.3-0.2-0.1c0.1,0,0.1-0.3-0.1-0.2c-0.2,0.1,0-0.2-0.1-0.2
			c-0.1,0-0.2,0.1-0.3,0.1c0,0.1-0.2,0.1-0.2,0.1c0.1-0.3-0.3,0.2,0-0.1c0-0.1,0-0.3,0-0.3c0.1-0.2,0.1-0.1,0.1-0.3
			c0-0.1,0.1-0.2,0-0.3c0.9-3.3,2.6-7.4,4-9.4c0.5-0.8,1.1-1.6,2-2c-0.1,0.1,0.1,0,0.1,0c0,0,0.1-0.1,0.1-0.1
			C353.1,173,353.3,173.1,353.3,173.2z M348,185.9C348,185.9,348.1,185.9,348,185.9C348,185.9,348,185.9,348,185.9z M349.5,184
			C349.6,184.3,349.3,184.1,349.5,184C349.5,184,349.4,184,349.5,184z M350,182.7c0.2,0.2-0.1,0.1,0,0.1
			C349.8,182.8,349.8,182.7,350,182.7C349.9,182.7,350,182.7,350,182.7z M351.1,182.3C351.1,182.3,351.1,182.3,351.1,182.3
			c-0.3,0.1-0.5,0.1-0.8,0.2c-0.4,0,0,0.2,0.1,0.1c0.1,0,0.4,0,0.4-0.1C350.9,182.4,351.3,182.5,351.1,182.3
			C351.1,182.3,351.1,182.3,351.1,182.3z M350.6,182.6C350.7,182.7,350.3,182.7,350.6,182.6C350.6,182.6,350.6,182.6,350.6,182.6z
			 M352.7,176.4c-0.1,0.1-0.1,0.4-0.2,0.4c0,0.2-0.4,0.2-0.2,0.3c0.1,0-0.3,0.4-0.3,0.3c0.1-0.1,0,0,0.1-0.2c-0.1,0.1-0.2,0-0.2,0.1
			c0,0,0,0,0,0c0,0,0,0,0,0c0,0-0.1,0.1-0.1,0.1c0,0,0,0,0,0c0,0,0,0,0,0.1c0,0,0,0.1-0.1,0c0,0.1,0.1,0,0,0.2
			c-0.3,0.2,0.1,0.1,0.1,0.2c0,0-0.1,0.3-0.1,0.2c0.2-0.2-0.1-0.1-0.1,0.1c-0.1,0.1-0.1,0.2-0.2,0.2c0,0.2-0.1,0.2-0.2,0.4
			c-0.1,0.3,0.1,0,0.2-0.1c0.1-0.1,0.1-0.4,0.3-0.3c0,0-0.1,0.2-0.1,0.4c-0.1,0.1-0.1,0.1-0.2,0.4c-0.2,0.1,0,0.4-0.2,0.4
			c0-0.2,0-0.1-0.1,0.1c-0.2,0-0.3,0.3-0.1,0.3c0,0,0,0.1,0,0.1c0.2,0.1,1.2-0.1,1.7-0.2c0.1-0.8,0.1-1.5,0.2-2.3c0-0.4,0.2-0.9,0-1
			C352.8,176.3,352.8,176.4,352.7,176.4z M351,179.3c0.1,0.1,0.1-0.1,0.2-0.3c-0.1,0,0.1,0,0-0.1C351.1,179,351,179.2,351,179.3z
			 M351.1,179.4C351.2,179.6,351,179.6,351.1,179.4C351,179.4,351.1,179.4,351.1,179.4z M352,182.3c0,0-0.1,0-0.1,0.1
			C351.5,182.4,351.7,182.3,352,182.3C351.9,182.3,351.9,182.3,352,182.3z M351.8,182.2c0-0.2-0.2,0,0.1-0.2
			C352,182.1,351.9,182.2,351.8,182.2z M351.9,177.4C351.9,177.4,351.9,177.4,351.9,177.4C351.9,177.4,351.9,177.4,351.9,177.4z
			 M352,177.2C352,177.2,352,177.2,352,177.2C352,177.2,352,177.2,352,177.2z M352.1,177.3C352.1,177.3,352.1,177.3,352.1,177.3
			C352.2,177.3,352,177.6,352.1,177.3z M352.8,176.1c-0.1,0.1-0.1,0.2-0.2,0.3c0,0.1-0.3,0.4-0.2,0.3c0.1,0.1,0.3-0.3,0.2-0.3
			C352.7,176.3,352.7,176.3,352.8,176.1C352.8,176.2,352.9,176.2,352.8,176.1C352.8,176.1,352.8,176.1,352.8,176.1
			c0.1,0,0.1-0.1,0.1-0.1C352.8,176,352.8,176,352.8,176.1z M352.7,176C352.5,176.2,352.8,176.1,352.7,176
			C352.7,175.9,352.6,176,352.7,176z M352.8,176.1C352.8,176.1,352.8,176.1,352.8,176.1C352.8,176.2,352.8,176.2,352.8,176.1z
			 M354.1,185.5C354.1,185.6,354.1,185.5,354.1,185.5C354.1,185.5,354.1,185.5,354.1,185.5z M354.9,178.9
			C354.9,178.9,354.9,178.9,354.9,178.9C354.8,178.9,355,179,354.9,178.9z"/>
		<path d="M358,172.7c0-0.2,0.1,0.2,0.2,0c0-0.2,0.3,0.1,0.3,0.2c0.2-0.2,0.2,0.2,0.3,0.2c-0.1,0.2,0.3-0.2,0.3-0.1
			c0.2,0.1-0.1,0.1,0.1,0.2c0.1-0.2,0.2-0.1,0.3,0.1c0.1-0.1,0.1-0.1,0.2-0.1c0,0,0,0,0,0c0,0,0,0,0,0c0.1,0.1,0.1,0.2,0.2,0.3
			c0.1,0.2,0.1,0.5,0.2,0.6c0,0,0,0,0,0c0,0,0,0,0,0c0,0,0,0,0,0.1c0,0.2,0.1,0.1,0.1,0.3c0,0.1,0,0.1,0,0.2c0.1,0.1,0,0.1,0,0.1
			c0,0.2-0.1,0.4,0.1,0.5c-0.1,0-0.2,0.2,0,0.4c0,0,0.2,0.1,0.1,0.3c-0.2,0.1,0,0,0.1,0.2c-0.1,0.1,0,0.2,0,0.4
			c0.1,0.6,0.1,1.4,0.3,2c0,0.4,0.1,0.4,0.1,0.1c0.3-1.9,0.8-3.7,1.4-5.5c0.1-0.3,0.2-0.7,0.4-0.9c0,0.2,0.1-0.1,0.3,0
			c0.1,0.3,0.1-0.1,0.2,0.1c0-0.1,0.2-0.1,0.2,0.1c-0.1,0,0,0.2,0.1,0.3c0,0,0.1,0.2,0.2,0.2c0,0.3,0.3,0.1,0.3,0.2
			c0.2,0.1,0.2,0.4,0.2,0.4c0.1-0.2,0.1,0.3,0.1,0.2c-0.1,0.3,0.2,0,0,0.3c-0.1,0.3,0,0.4,0,0.5c0,0.1-0.1,0.2-0.1,0.2
			c0,0,0.2,0.2,0,0.3c-0.1,0.1-0.1,0.2,0,0.3c-0.2,0.1,0,0.3-0.1,0.4c0.1,0,0,0-0.1,0.1c0.2,0.2-0.2,0.2-0.1,0.5
			c0,0.1-0.1,0.1,0,0.3c-0.1,0.2-0.1,0.4-0.1,0.6c0.1,0.3-0.1,0.3,0,0.5c0.1,0.2,0,0.1-0.1,0.2c0,0,0,0,0,0c0,0,0,0.1,0,0
			c0,0,0,0,0,0c0,0,0,0,0,0c-0.1,0.1,0,0,0,0.2c-0.1,0,0.1,0.1,0,0.2c0,0.1-0.1,0.2,0,0.2c-0.1,0.7-0.2,1.3-0.3,2
			c-0.1,0.4-0.1,0.8-0.1,1.2c0,0,0,0,0,0c0,0,0,0,0,0c0,0,0,0.1,0,0.1c0,0.1,0,0.4,0,0.5c0,0.1,0,0.6-0.1,0.8c0,0.1,0,0.3,0,0.4
			c0.1,0.1-0.1,0.1,0.1,0.2c-0.1,0.1-0.1,0.3-0.1,0.3c0.1,0,0.2,0.4,0,0.1c-0.2,0.2-0.1-0.2-0.3-0.3c-0.1,0.2-0.1,0-0.1,0.1
			c0,0.3-0.1-0.2-0.2,0c0.2,0.2,0.1,0.4,0,0c-0.3,0,0-0.1-0.1-0.1c-0.2,0-0.3,0.3-0.3,0.1c-0.1,0.1-0.2-0.1-0.3-0.1
			c-0.1-0.2-0.2,0-0.3-0.2c0,0.2-0.3,0.3-0.3,0.4c0-0.1-0.3-0.1-0.4-0.4c-0.1,0-0.7,0-0.9-0.4c-0.7-1-1-2.3-1.3-3.6
			c-0.1,0.1-0.1,0.7-0.1,0.9c0,0.2,0,0.3-0.1,0.5c0,0.1,0,0.2,0,0.3c0,0.1-0.1,0.3,0,0.5c-0.1,0.1,0.1,0.1-0.1,0.3
			c0,0.1,0,0.5,0,0.5c0,0.2,0,0.6,0,0.7c0,0.2,0,0.5,0,0.6c0.3,0.2-0.2,0.4,0,0.4c-0.1,0.2,0.2,0.2,0,0.3c-0.1,0.3-0.2-0.3-0.2,0.1
			c-0.1-0.2-0.2-0.1-0.1,0.1c0.1,0.1-0.3,0.1-0.1,0c-0.1-0.3-0.1,0.2-0.2-0.1c-0.1-0.1,0,0.2-0.2,0c-0.1,0.2-0.2-0.1-0.2,0.1
			c0,0,0,0,0,0c0,0,0,0,0,0c-0.1-0.1-0.1,0-0.2,0c0,0,0,0,0,0c0,0,0,0,0,0c0,0-0.1,0-0.1-0.1c0-0.2-0.2-0.3-0.2,0
			c-0.3,0.1-0.3,0-0.6,0.1c0-0.1,0-0.4-0.1-0.5c0-3.5,0.5-7.1,1.4-10.6c0.2-0.5,0.2-1.1,0.5-1.5c0-0.4,0.1,0,0.2-0.2
			c0.1,0,0.2-0.1,0.3-0.1C357.8,172.6,358,172.8,358,172.7z M356.4,185.4C356.4,185.4,356.4,185.4,356.4,185.4
			C356.4,185.4,356.4,185.4,356.4,185.4z M356.6,185.4C356.6,185.4,356.6,185.4,356.6,185.4C356.6,185.5,356.6,185.5,356.6,185.4z
			 M357.9,185.9c-0.1,0.1-0.3-0.3-0.2-0.3C357.7,185.7,357.9,185.7,357.9,185.9z M358,182C358,182,358,182,358,182
			C358,182,358,182,358,182z M362.7,184.8C362.7,184.8,362.8,184.8,362.7,184.8C362.8,184.8,362.8,184.8,362.7,184.8
			c0.1,0.1-0.1,0.1-0.1-0.1C362.7,184.7,362.7,184.8,362.7,184.8z M362.8,182C362.8,182,362.8,182,362.8,182
			C362.8,182,362.8,182,362.8,182z"/>
		<path d="M370.1,172.3c0.4,0.1,0.6,0.4,0.9,0.5c0.2,0.2,0.3,0.4,0.4,0.5c0.1,0.1,0,0.2,0.1,0.2c0,0.2,0.3,0.3,0.2,0.4
			c0,0.2,0.2,0.6,0.2,0.5c0,0,0,0.1,0.1,0.1c-0.1,0,0,0.1,0,0c0,0.1,0.1,0.2,0.1,0.3c0.1,0.3,0.2,0.6,0.2,0.8c0,0.3,0.2,0.6,0.1,0.8
			c0,0.2-0.1,0.6-0.1,0.8c-0.1,0.4-0.1,0.4-0.2,0.8c-0.1,0.2-0.1,0.4-0.2,0.7c0,0,0-0.3-0.1,0.1c0.1,0.1,0.1,0.3-0.1,0.4
			c-0.1,0.1-0.3,0.4-0.1,0.2c0,0.2-0.3,0.5-0.2,0.3c0-0.1-0.3,0.3-0.1,0.3c-0.2,0.1-0.1,0.4-0.2,0.3c-0.2,0.1,0,0.3-0.1,0.2
			c0,0.1-0.1,0-0.1,0.1c-0.1,0-0.1,0.1,0,0.1c0,0,0,0,0,0c0,0,0,0,0,0c0,0,0,0,0,0c-0.1,0.1-0.1,0.1-0.2,0.3c0,0.1,0.2-0.2,0.1,0
			c-0.2,0.3-0.3,0.6-0.5,0.8c-0.1,0.2-0.2,0.3-0.3,0.5c0.1,0.1,0,0-0.2,0.3c-0.1,0-0.2,0.2-0.3,0.4c0,0,0,0,0,0c0,0,0,0,0,0
			c0,0,0,0.1-0.1,0.1c0,0,0,0.1-0.1,0.2c-0.2,0.2-0.4,0.4-0.6,0.6c-0.1,0.1-0.1,0.1-0.2,0.2c-0.1,0.1-0.1,0.1-0.2,0.2
			c-0.1,0.2-0.4,0.3-0.5,0.4c-0.2,0.1-0.4,0.2-0.7,0.3c-0.1,0-0.3,0.2-0.3,0c-0.3,0,0.4-0.1,0.5-0.2c0.2-0.1,0.3-0.3,0.1-0.3
			c-0.3-0.1-0.2,0.1-0.2,0.2c-0.1,0-0.1-0.2-0.2-0.1c-0.1,0-0.4,0.2-0.3,0.1c-0.2,0-0.3,0.1-0.4-0.1c-0.2,0.1-0.4,0-0.5-0.2
			c-0.2-0.1-0.6-0.1-0.6-0.4c0-0.2-0.2-0.1-0.4-0.2c-0.3-0.1-0.2-0.3-0.4-0.3c0.1-0.2,0.1-0.8,0.2-1.2c0.2-1.9,0.6-3.8,1-5.6
			c-0.1,0,0.2-0.4,0.1-0.4c-0.1,0-0.3,0.1-0.3,0c-0.2-0.1,0.1-0.2,0-0.3c-0.3,0,0-0.4-0.2-0.4c-0.2,0-0.1-0.2-0.3-0.2
			c0-0.2,0-0.2-0.1-0.3c-0.1-0.1,0.2-0.2,0-0.2c0-0.2-0.3-0.1-0.4-0.3c-0.3-0.2,0-0.4,0.1-0.4c0.2-0.3,0.5-0.6,0.9-0.9
			c1-0.7,2.1-1.1,3.3-1.2C369.1,172,369.6,172.1,370.1,172.3z M365,175.7C365.1,176,365.3,175.8,365,175.7
			C365,175.7,365,175.7,365,175.7z M366.5,185c-0.1,0.1-0.1,0.2-0.1,0.1c-0.1,0-0.2,0.1-0.2-0.2C366.2,184.9,366.4,184.8,366.5,185z
			 M368.1,174.6c-0.2,0-0.1,0.1,0,0.1c0,0,0,0,0,0c-0.1,0.1,0,0,0,0c0,0,0,0-0.1,0.1c-0.1,0.1,0.2,0.2-0.1,0.3
			c-0.1-0.2-0.1,0.3-0.1,0.4c-0.1,0.1,0,0.4,0,0.4c0.1,0.1-0.1,0.3-0.1,0.6c-0.1,0.1-0.2,0.7-0.1,0.5c-0.1,0.2-0.2,0.5-0.2,0.7
			c0,0.3-0.2,0.7-0.1,0.9c0,0.2,0,0.4-0.2,0.5c0,0.1-0.1,0.3-0.1,0.3c0.2-0.2-0.1,0.1,0.1,0.1c0,0,0,0,0,0.1c0,0,0,0,0,0
			c-0.1,0,0,0,0,0c0,0.1-0.1,0.1-0.1,0.3c0,0.2,0,0.4-0.1,0.6c-0.1,0.2-0.1,0.4-0.1,0.5c0,0.1,0.1,0.4-0.1,0.2
			c0,0.2-0.1,0.7-0.1,0.7c0,0.1,0.2,0,0.3-0.2c1.3-1.6,2.6-3.3,3.4-5.1c0.1-0.3,0.5-1.1,0.3-1.3c0.1,0,0.1-0.1,0-0.1
			c-0.3,0,0.2-0.1-0.1-0.2c-0.2-0.1-0.3-0.2-0.5-0.1c-0.2-0.1-0.2,0-0.4-0.1c-0.2,0-0.5,0.1-0.6,0c-0.3,0.1-0.3,0-0.5,0
			c-0.2,0.1-0.2,0.1-0.4,0.1C367.8,174.9,368.4,174.7,368.1,174.6C368.1,174.6,368.1,174.6,368.1,174.6z M366.9,181.4
			C367,181.5,366.9,181.4,366.9,181.4C366.9,181.4,366.9,181.4,366.9,181.4z M367.2,184.5C367.3,184.5,367.1,184.6,367.2,184.5
			C367.2,184.5,367.2,184.5,367.2,184.5C367.2,184.5,367.2,184.5,367.2,184.5C367.3,184.5,367.3,184.5,367.2,184.5z M367.2,179.5
			C367.2,179.5,367.3,179.5,367.2,179.5C367.3,179.5,367.3,179.5,367.2,179.5z M367.6,184.4c-0.1,0.3,0.2-0.1,0.2-0.1
			C367.7,184.3,367.7,184.4,367.6,184.4z M368.1,174.7C368.1,174.7,368.1,174.7,368.1,174.7L368.1,174.7z M368.2,174.6
			C368.3,174.6,368.4,174.6,368.2,174.6C368.3,174.5,368.2,174.6,368.2,174.6z M368.5,174.3C368.2,174.4,368.2,174.6,368.5,174.3
			C368.4,174.5,368.7,174.5,368.5,174.3C368.5,174.3,368.4,174.4,368.5,174.3z M369,174.5c-0.1,0.1-0.4-0.1-0.5,0.1
			C368.4,174.7,368.8,174.5,369,174.5c0.1,0,0.2,0.1,0.4,0.1c0.2-0.2-0.1-0.1-0.1-0.2C369.2,174.4,369,174.5,369,174.5z M369,174.3
			C368.9,174.3,368.9,174.3,369,174.3C368.9,174.3,368.9,174.3,369,174.3c-0.2,0.1-0.4,0-0.2,0.2c0.1-0.2,0.2,0,0.3,0
			c0.2,0,0.1-0.1,0.2,0c0,0,0,0,0,0c0,0,0,0,0,0C369.2,174.3,369.1,174.3,369,174.3C369,174.3,369,174.3,369,174.3z M369.5,174.4
			C369.5,174.7,369.6,174.5,369.5,174.4c0,0,0.1-0.2-0.2-0.2C369.2,174.3,369.4,174.5,369.5,174.4z M369.3,183
			C369.3,183,369.3,183,369.3,183C369.3,183,369.3,183,369.3,183z M369.3,174.7C369.3,174.7,369.6,174.7,369.3,174.7
			C369.4,174.7,369.4,174.7,369.3,174.7z M369.8,174.6c0.2,0.1,0.4,0.1,0.7,0.3c0.2,0,0.1-0.1,0.2,0.1c0.1,0,0.3,0.1,0.2,0
			c0-0.2-0.1-0.2-0.3-0.3c-0.2-0.1-0.2,0-0.4-0.1c0,0.2-0.3,0.1-0.5,0C369.6,174.5,369.8,174.7,369.8,174.6z M370.4,174.9
			C370.8,175,370.2,175,370.4,174.9C370.3,174.9,370.4,174.9,370.4,174.9z M370.8,180.7C370.8,180.7,370.8,180.7,370.8,180.7
			C370.8,180.7,370.8,180.7,370.8,180.7z M370.9,180.6C370.9,180.6,370.9,180.6,370.9,180.6C370.9,180.5,371,180.5,370.9,180.6z
			 M371.9,174.5C371.9,174.5,371.9,174.4,371.9,174.5C371.9,174.4,371.9,174.5,371.9,174.5z"/>
	</g>
</g>
<image style="overflow:visible;opacity:0.25;enable-background:new    ;" width="2154" height="1242" xlink:href="BCB84B4DA9913E98.png"  transform="matrix(0.2506 0 0 0.2506 -60.0861 -6.1502)">
</image>
<path class="st0" d="M390.1,92.5c-0.4-0.5-7-8.8-7-8.8c0,0,0,0,0,0c-0.4-0.5-1.1-0.8-1.9-0.8c-2,0.1-3.9,0.1-5.9,0.2
	s-3.9,0.2-5.9,0.3c-0.8,0-1.6,0.4-2.3,1c-0.6,0.6-1.1,1.3-1.3,2.2c-0.3,1.6-0.7,3.1-1,4.7c-2-2.5-5.3-6.3-5.3-6.3s0,0,0,0
	c0,0,0,0,0,0c-0.4-0.5-1.1-0.8-1.9-0.7c-2,0.2-3.9,0.3-5.9,0.5c-2,0.2-3.9,0.4-5.9,0.6c-0.8,0.1-1.6,0.5-2.3,1.1
	c-0.6,0.6-1.1,1.4-1.3,2.2c-2.1,10-4.2,20-6.2,30.1c-2.1,10-4.2,20.1-6.2,30.2c-0.2,0.8,0,1.4,0.4,1.9c0,0,0,0,0,0
	c0,0,0,0.1,0.1,0.1c0,0,0,0,0,0s0,0,0,0c0.5,0.5,6.5,7.4,6.9,7.9c0.4,0.5,1.1,0.7,1.9,0.6c2-0.2,3.9-0.5,5.9-0.7
	c2-0.2,3.9-0.4,5.9-0.6c0.8-0.1,1.6-0.5,2.3-1.1c0.6-0.6,1.1-1.4,1.3-2.2c0.3-1.6,0.7-3.2,1-4.8c2,2.4,5,6,5.3,6.3
	c0.4,0.5,1.1,0.8,1.9,0.7c2-0.1,3.9-0.3,5.9-0.4c2-0.1,3.9-0.2,5.9-0.3c0.8,0,1.6-0.4,2.3-0.9c0.7-0.6,1.1-1.3,1.3-2.1
	c2.1-9.9,4.2-19.7,6.2-29.5c2.1-9.8,4.2-19.6,6.2-29.4C390.7,93.7,390.5,93,390.1,92.5z M368.2,145.1c-3.9,0.2-7.8,0.5-11.7,0.8
	c1.7-8,3.3-15.9,5-23.9c-3.9,0.3-7.8,0.6-11.7,1c-1.7,8-3.3,16-5,24c-3.9,0.4-7.8,0.9-11.7,1.4c4.2-20.1,8.3-40.2,12.5-60.2
	c3.9-0.4,7.8-0.8,11.7-1.1c-1.7,8-3.3,15.9-5,23.9c3.9-0.4,7.8-0.7,11.7-1c1.7-7.9,3.3-15.9,5-23.8c3.9-0.2,7.8-0.4,11.7-0.5
	C376.5,105.6,372.3,125.3,368.2,145.1z"/>
<path class="st0" d="M338.5,106.1c-0.4-1.8-1.1-3.4-2-4.8c-0.3-0.4-0.5-0.7-0.8-1.1c-2.3-2.6-4.6-5.2-6.9-7.9c0,0,0,0,0,0.1
	c-0.8-0.9-1.7-1.8-2.7-2.5c-1.5-0.9-3.1-1.6-4.9-1.9c-1.8-0.3-3.8-0.3-5.9,0c-1.4,0.2-2.8,0.6-4.2,1.1c-1.4,0.5-2.8,1.2-4.2,1.9
	c-2,1.1-3.9,2.5-5.7,4.1c-1.8,1.6-3.4,3.4-4.9,5.3c-1.5,2-2.8,4.1-3.8,6.2c-1,2.1-1.7,4.3-2.2,6.5c-0.9,4.3-1.8,8.7-2.6,13
	c-0.9,4.3-1.8,8.7-2.6,13c-0.3,1.5-0.5,2.9-0.5,4.2c0,1.3,0.1,2.6,0.4,3.8c0.4,1.8,1.1,3.3,2,4.6c0.3,0.4,0.6,0.7,0.9,1.1
	c0,0,0,0-0.1,0c2.3,2.5,4.6,4.9,6.9,7.4v0c0.8,0.8,1.6,1.6,2.7,2.2c1.5,0.9,3.1,1.5,4.9,1.7c1.8,0.3,3.8,0.2,5.8-0.1
	c1.4-0.2,2.8-0.6,4.2-1.1c1.4-0.5,2.8-1.1,4.2-1.9c2-1.1,3.9-2.4,5.7-4c1.8-1.5,3.4-3.2,4.9-5.1c1.5-1.9,2.8-3.9,3.8-6
	c1-2.1,1.7-4.2,2.2-6.3c0.2-0.8,0-1.5-0.4-2c-2.3-2.6-4.6-5.2-6.9-7.8c0,0,0,0,0,0c0,0,0,0,0-0.1c-0.4-0.5-1.1-0.7-1.9-0.6
	c-2,0.3-3.9,0.6-5.9,0.9c-2,0.3-3.9,0.6-5.9,1c0.1-0.3,0.1-0.5,0.2-0.8c0.9-4.3,1.8-8.6,2.6-12.9c0-0.2,0.1-0.4,0.2-0.6
	c0.1-0.2,0.2-0.4,0.3-0.6c0.2-0.3,0.4-0.6,0.6-0.8c0.2-0.3,0.5-0.5,0.8-0.7c0.2-0.2,0.4-0.3,0.7-0.4c1.3,1.4,2.5,2.8,3.8,4.2
	c0.4,0.5,1.1,0.7,1.9,0.6c2-0.3,3.9-0.6,5.9-0.9c2-0.3,3.9-0.5,5.9-0.8c0.8-0.1,1.6-0.5,2.3-1.1c0.6-0.6,1.1-1.4,1.3-2.2
	c0.3-1.4,0.4-2.8,0.5-4.2C338.9,108.6,338.8,107.3,338.5,106.1z M328.6,106.6c-3.9,0.6-7.8,1.2-11.8,1.8c0.3-1.3,0.1-2.4-0.3-3.2
	c-0.4-0.9-1.2-1.5-2.1-1.8c-0.6-0.2-1.4-0.2-2.2-0.1c-1.2,0.2-2.4,0.8-3.5,1.6c-1.1,0.8-2,1.9-2.7,3.1c-0.4,0.8-0.8,1.6-1,2.5
	c-1.8,8.6-3.5,17.3-5.3,25.9c-0.3,1.3-0.1,2.4,0.3,3.2c0.4,0.9,1.2,1.5,2.1,1.7c0.6,0.2,1.4,0.2,2.2,0.1c1.2-0.2,2.4-0.8,3.5-1.6
	c1.1-0.8,2-1.9,2.7-3c0.4-0.8,0.8-1.6,0.9-2.4c3.9-0.7,7.8-1.3,11.7-1.9c-0.8,3.7-2.6,7.4-5.1,10.6c-2.5,3.2-5.6,5.9-9.1,7.9
	c-2.3,1.3-4.7,2.2-7.1,2.7c-3.6,0.7-6.8,0.2-9.2-1.3c-2.4-1.4-4.1-3.8-4.7-6.8c-0.4-2-0.4-4.3,0.1-6.9c1.8-8.7,3.5-17.3,5.3-26
	c0.8-3.8,2.6-7.6,5.1-10.8c2.5-3.3,5.6-6.1,9.1-8c2.3-1.3,4.7-2.2,7.1-2.6c3.6-0.6,6.8,0,9.2,1.6c2.4,1.5,4.1,4,4.7,7.1
	C329.1,101.7,329.1,104.1,328.6,106.6z"/>
<path class="st0" d="M100.8,146.2c-0.4-0.4-6.9-7.7-6.9-7.7c-0.4-0.5-1.1-0.7-1.9-0.6c-2.1,0.3-4.2,0.6-6.4,0.9
	c-2.1,0.3-4.2,0.5-6.4,0.8c-0.6,0.1-1.2,0.3-1.8,0.7s-1,0.9-1.4,1.5c-2.1,3.6-4.1,7.3-6.2,10.9c-0.7,1.2-1.4,2.4-2.1,3.6
	c-0.3-1.6-0.6-3.2-0.9-4.7c-0.1-0.4-0.2-0.7-0.5-1h0l0,0c0,0,0,0,0,0c-2.3-2.7-4.6-5.4-6.9-8.2c0,0.1,0,0.1-0.1,0.1
	c-0.1-0.1-0.1-0.3-0.3-0.4c-0.4-0.3-1-0.4-1.5-0.4c-2.1,0.2-4.2,0.3-6.3,0.4c-2.1,0.1-4.2,0.2-6.3,0.3c-0.8,0-1.6,0.4-2.3,1
	c-0.6,0.6-1.1,1.3-1.3,2.1c-2.1,9.9-4.2,19.7-6.2,29.5c-2.1,9.8-4.2,19.6-6.2,29.4c-0.2,0.8,0,1.5,0.4,2.1c0,0,6.5,8.2,6.9,8.7
	c0.4,0.5,1.1,0.8,1.9,0.8c2-0.1,3.9-0.1,5.9-0.2c2-0.1,3.9-0.2,5.9-0.3c0.8,0,1.6-0.4,2.3-1c0.6-0.6,1.1-1.3,1.3-2.2
	c0.6-2.7,1.1-5.4,1.7-8.1c0.3-1.5,0.6-3,1-4.5c0.7,0.9,1.5,1.8,2.2,2.6c0.1,0.1,0.2,0.3,0.4,0.4c0.4,0.3,0.9,0.4,1.5,0.4
	c1.3-0.1,2.6-0.2,3.9-0.3c-0.2,0.8,0,1.5,0.4,2c0,0,6.5,7.7,6.9,8.1c0.4,0.5,1.1,0.7,1.9,0.7c2-0.2,3.9-0.4,5.9-0.7
	c2-0.2,3.9-0.5,5.9-0.7c0.8-0.1,1.6-0.5,2.2-1.2c0.6-0.6,1.1-1.4,1.3-2.3c2.1-10.1,4.2-20.1,6.2-30.2c2.1-10.1,4.2-20.2,6.2-30.3
	C101.4,147.3,101.2,146.6,100.8,146.2z M78.9,201.2c-3.9,0.5-7.8,0.9-11.7,1.2c2.2-10.6,4.4-21.3,6.7-32c-4,7-8,13.9-12,20.7
	c-2.6,0.2-5.2,0.4-7.8,0.6c-1.2-6.4-2.4-12.9-3.7-19.3c-2.2,10.6-4.4,21.1-6.7,31.6c-3.9,0.1-7.8,0.2-11.7,0.3
	c4.2-19.6,8.3-39.3,12.5-59c4.2-0.2,8.5-0.4,12.7-0.7c1.7,9,3.3,18,4.9,27c5.5-9.6,11.1-19.3,16.6-29c4.2-0.5,8.5-1.1,12.7-1.7
	C87.2,161,83,181.1,78.9,201.2z"/>
<path class="st1" d="M78.9,201.2c-3.9,0.5-7.8,0.9-11.7,1.2c2.2-10.6,4.4-21.3,6.7-32c-4,7-8,13.9-12,20.7c-2.6,0.2-5.2,0.4-7.8,0.6
	c-1.2-6.4-2.4-12.9-3.7-19.3c-2.2,10.6-4.4,21.1-6.7,31.6c-3.9,0.1-7.8,0.2-11.7,0.3c4.2-19.6,8.3-39.3,12.5-59
	c4.2-0.2,8.5-0.4,12.7-0.7c1.7,9,3.3,18,4.9,27c5.5-9.6,11.1-19.3,16.6-29c4.2-0.5,8.5-1.1,12.7-1.7C87.2,161,83,181.1,78.9,201.2z"
	/>
<path class="st1" d="M137.8,148.7c-1.8,8.7-3.5,17.3-5.3,26c-0.8,3.8-2.6,7.6-5.1,10.9c-2.5,3.3-5.6,6.1-9.1,8.1
	c-2.3,1.3-4.7,2.2-7.1,2.7c-3.6,0.6-6.8,0.1-9.2-1.5c-2.4-1.5-4.1-3.9-4.7-7c-0.4-2-0.4-4.4,0.1-6.9c1.8-8.6,3.5-17.2,5.3-25.8
	c0.8-3.7,2.6-7.5,5.1-10.7c2.5-3.2,5.6-6,9.1-8c2.3-1.3,4.7-2.3,7.2-2.7c3.6-0.7,6.8-0.2,9.2,1.2c2.4,1.4,4.1,3.7,4.7,6.8
	C138.4,143.9,138.4,146.2,137.8,148.7z"/>
<path class="st1" d="M187.2,137.4c-3.9,1-7.8,1.9-11.7,2.8c0.2-0.9,0.2-1.6,0-2.3c-0.1-0.7-0.5-1.2-0.9-1.7c-0.4-0.4-1-0.7-1.6-0.9
	c-0.6-0.1-1.4-0.1-2.2,0.1c-0.8,0.2-1.6,0.6-2.4,1c-0.8,0.5-1.5,1.1-2.1,1.8c-0.6,0.7-1.2,1.4-1.7,2.2c-0.4,0.8-0.8,1.6-1,2.5
	c-0.2,0.9-0.1,1.4-0.1,1.8c0.1,0.4,0.2,0.7,0.6,1.1c0.2,0.2,0.5,0.5,0.9,0.7c0.5,0.3,1.1,0.6,1.9,0.9c1,0.4,2.3,0.7,3.6,1.1
	c1.8,0.5,3.7,1,5.6,1.9c1.1,0.5,2.1,1.1,3.1,2c1.1,1,2,2.3,2.5,4c0.6,2,0.6,4.4,0.1,7.2c-0.5,2.6-1.5,5.1-2.8,7.5
	c-1.3,2.4-3,4.7-5,6.8c-1.9,2-4.1,3.9-6.4,5.3c-2.3,1.4-4.7,2.5-7.2,3c-2.4,0.6-4.6,0.6-6.6,0.1c-1.9-0.5-3.5-1.4-4.8-2.7
	c-1.3-1.3-2.1-3-2.6-5c-0.5-2-0.4-4.3,0.1-6.9c3.9-0.8,7.8-1.7,11.7-2.6c-0.2,0.9-0.2,1.6,0,2.3c0.1,0.7,0.4,1.2,0.9,1.7
	s1,0.8,1.6,0.9c0.6,0.2,1.3,0.1,2.2,0c0.8-0.2,1.6-0.5,2.4-1c0.8-0.5,1.5-1.1,2.1-1.7c0.6-0.7,1.2-1.5,1.7-2.3
	c0.4-0.8,0.8-1.6,0.9-2.5c0.2-0.9,0.1-1.4,0.1-1.8c-0.1-0.4-0.3-0.7-0.6-1.1c-0.2-0.2-0.5-0.5-0.9-0.7c-0.5-0.3-1.1-0.6-1.9-0.9
	c-1-0.4-2.2-0.7-3.6-1.1c-1.8-0.5-3.7-1-5.6-1.9c-1.1-0.5-2.1-1.2-3.1-2c-1.1-1-2-2.3-2.5-4.1c-0.6-2-0.7-4.5-0.1-7.2
	c0.5-2.5,1.5-5.1,2.9-7.5c1.3-2.4,3-4.7,5-6.7c1.9-2,4.1-3.8,6.4-5.2c2.3-1.4,4.7-2.5,7.2-3.1c2.4-0.6,4.6-0.6,6.6-0.2
	c1.9,0.4,3.5,1.3,4.8,2.6c1.3,1.3,2.1,3,2.6,5C187.7,132.5,187.7,134.9,187.2,137.4z"/>
<path class="st1" d="M232.5,127.7c-0.8,3.8-2.6,7.7-5.1,11.1c-0.1,0.1-0.2,0.2-0.3,0.3c1.7,1.3,2.8,3.3,3.4,5.7
	c0.5,2,0.4,4.3-0.1,6.9c-0.8,3.8-2.6,7.7-5.1,11.1c-2.5,3.4-5.6,6.4-9.1,8.6c-2.3,1.5-4.7,2.6-7.2,3.2c-5.9,1.5-11.7,2.9-17.6,4.4
	c4.2-20.6,8.3-41.2,12.5-61.8c4.9-1.2,9.8-2.4,14.7-3.6c3.6-0.9,6.8-0.6,9.2,0.7c2.4,1.3,4,3.6,4.7,6.6
	C233,122.8,233,125.1,232.5,127.7z"/>
<path class="st1" d="M265,161.1c0.1-3.9,0.1-7.9,0.2-11.8c-3.5,0.8-7,1.6-10.4,2.4c-1.6,4.3-3.2,8.6-4.8,12.9
	c-3.9,0.9-7.9,1.9-11.8,2.8c8.6-21.6,17.1-43.2,25.7-64.7c4-0.9,8-1.8,12-2.7c0.3,19.5,0.7,39,1,58.5
	C272.9,159.3,269,160.2,265,161.1z"/>
<path class="st1" d="M328.6,106.6c-3.9,0.6-7.8,1.2-11.8,1.8c0.3-1.3,0.1-2.4-0.3-3.2c-0.4-0.9-1.2-1.5-2.1-1.8
	c-0.6-0.2-1.4-0.2-2.2-0.1c-1.2,0.2-2.4,0.8-3.5,1.6c-1.1,0.8-2,1.9-2.7,3.1c-0.4,0.8-0.8,1.6-1,2.5c-1.8,8.6-3.5,17.3-5.3,25.9
	c-0.3,1.3-0.1,2.4,0.3,3.2c0.4,0.9,1.2,1.5,2.1,1.7c0.6,0.2,1.4,0.2,2.2,0.1c1.2-0.2,2.4-0.8,3.5-1.6c1.1-0.8,2-1.9,2.7-3
	c0.4-0.8,0.8-1.6,0.9-2.4c3.9-0.7,7.8-1.3,11.7-1.9c-0.8,3.7-2.6,7.4-5.1,10.6c-2.5,3.2-5.6,5.9-9.1,7.9c-2.3,1.3-4.7,2.2-7.1,2.7
	c-3.6,0.7-6.8,0.2-9.2-1.3c-2.4-1.4-4.1-3.8-4.7-6.8c-0.4-2-0.4-4.3,0.1-6.9c1.8-8.7,3.5-17.3,5.3-26c0.8-3.8,2.6-7.6,5.1-10.8
	c2.5-3.3,5.6-6.1,9.1-8c2.3-1.3,4.7-2.2,7.1-2.6c3.6-0.6,6.8,0,9.2,1.6c2.4,1.5,4.1,4,4.7,7.1C329.1,101.7,329.1,104.1,328.6,106.6z
	"/>
<path class="st1" d="M368.2,145.1c-3.9,0.2-7.8,0.5-11.7,0.8c1.7-8,3.3-15.9,5-23.9c-3.9,0.3-7.8,0.6-11.7,1c-1.7,8-3.3,16-5,24
	c-3.9,0.4-7.8,0.9-11.7,1.4c4.2-20.1,8.3-40.2,12.5-60.2c3.9-0.4,7.8-0.8,11.7-1.1c-1.7,8-3.3,15.9-5,23.9c3.9-0.4,7.8-0.7,11.7-1
	c1.7-7.9,3.3-15.9,5-23.8c3.9-0.2,7.8-0.4,11.7-0.5C376.5,105.6,372.3,125.3,368.2,145.1z"/>
<path class="st0" d="M265.3,137.5c0.1-4.9,0.1-9.8,0.2-14.7c-2,5.3-4,10.7-6,16C261.5,138.4,263.4,137.9,265.3,137.5z"/>
<path class="st0" d="M286.3,135.3c-0.2-9.7-0.3-19.5-0.5-29.2c0-0.7-0.3-1.2-0.7-1.5c-0.4-0.3-6.8-7.2-6.8-7.2c0,0,0,0,0,0
	c-0.1-0.1-0.1-0.1-0.2-0.2c-0.4-0.3-1-0.4-1.7-0.3c-2,0.4-4,0.9-6,1.3c-2,0.4-4,0.9-6,1.3c-0.7,0.2-1.4,0.6-2,1.1
	c-0.6,0.5-1.1,1.2-1.4,2c-4.3,10.8-8.6,21.5-12.9,32.3c-4.3,10.8-8.6,21.6-12.8,32.4c-0.2,0.5-0.3,1-0.3,1.4c0,0.4,0.1,0.8,0.3,1.1
	c0.1,0.1,0.1,0.1,0.2,0.1c0,0,0,0,0,0.1c2.3,2.3,4.5,4.6,6.8,6.9c0.2,0.3,0.5,0.5,0.8,0.6c0.3,0.1,0.8,0.1,1.2,0
	c2-0.5,3.9-0.9,5.9-1.4c2-0.5,3.9-0.9,5.9-1.4c0.7-0.2,1.4-0.6,2-1.1c0.6-0.6,1.1-1.2,1.4-2c0.6-1.7,1.3-3.4,1.9-5.1
	c0.3-0.9,0.7-1.8,1-2.8c2.3,2.4,4.5,4.7,6.8,7.1c0.1,0.1,0.1,0.2,0.2,0.2c0.4,0.3,1,0.4,1.7,0.3c2-0.4,3.9-0.9,5.9-1.3
	c2-0.4,4-0.8,5.9-1.2c0.4-0.1,0.9-0.3,1.3-0.6c0.4-0.3,0.8-0.6,1.2-1.1c0.4-0.4,0.6-0.9,0.8-1.3c0.2-0.5,0.3-0.9,0.3-1.4
	C286.6,154.8,286.5,145,286.3,135.3z M265,161.1c0.1-3.9,0.1-7.9,0.2-11.8c-3.5,0.8-7,1.6-10.4,2.4c-1.6,4.3-3.2,8.6-4.8,12.9
	c-3.9,0.9-7.9,1.9-11.8,2.8c8.6-21.6,17.1-43.2,25.7-64.7c4-0.9,8-1.8,12-2.7c0.3,19.5,0.7,39,1,58.5
	C272.9,159.3,269,160.2,265,161.1z"/>
<path class="st0" d="M216.2,149.7c-0.6-0.1-1.3-0.1-2.2,0.1c-2,0.5-3.9,1-5.9,1.5c-0.8,4.1-1.7,8.2-2.5,12.4c2-0.5,3.9-1,5.9-1.5
	c1.2-0.3,2.4-1,3.5-1.9c1.1-0.9,2-2,2.7-3.2c0.4-0.8,0.8-1.7,0.9-2.5c0.3-1.3,0.1-2.4-0.3-3.2C217.9,150.5,217.2,149.9,216.2,149.7z
	"/>
<path class="st0" d="M218.3,125.8c-0.6-0.1-1.4-0.1-2.2,0.1c-1,0.2-2,0.5-2.9,0.7c-0.8,4.1-1.7,8.2-2.5,12.3c1-0.2,2-0.5,2.9-0.7
	c1.3-0.3,2.4-1,3.5-1.9c1.1-0.9,2-2,2.7-3.3c0.4-0.8,0.8-1.6,1-2.5c0.3-1.3,0.1-2.4-0.3-3.2C220,126.5,219.2,126,218.3,125.8z"/>
<path class="st0" d="M242.3,134.1c0.3-1.5,0.4-2.9,0.5-4.2c0-1.3-0.1-2.6-0.4-3.8c-0.4-1.7-1.1-3.3-2-4.6c-0.3-0.4-0.6-0.7-1-1.1
	c0,0,0,0,0.1,0c-2.4-2.5-4.8-5-7.2-7.4c0,0,0,0,0,0c-0.7-0.7-1.4-1.3-2.3-1.8c-1.5-0.8-3.1-1.3-4.9-1.4c-1.8-0.1-3.8,0-5.8,0.5
	c-2.4,0.6-4.9,1.2-7.4,1.8c-2.4,0.6-4.9,1.2-7.3,1.8c-0.8,0.2-1.6,0.7-2.3,1.4c-0.6,0.7-1.1,1.5-1.3,2.4
	c-2.1,10.3-4.2,20.6-6.2,30.9c-2.1,10.3-4.2,20.6-6.2,30.9c-0.2,0.8,0,1.5,0.4,2c0,0,0,0,0,0c2.3,2.4,4.6,4.7,6.9,7.1
	c0.4,0.4,1.1,0.6,1.9,0.4c2.9-0.7,5.9-1.5,8.8-2.2c2.9-0.7,5.9-1.5,8.8-2.2c1.4-0.3,2.8-0.8,4.2-1.4c1.4-0.6,2.8-1.4,4.2-2.2
	c2-1.3,3.9-2.8,5.7-4.5c1.8-1.7,3.4-3.6,4.9-5.6c1.5-2.1,2.8-4.2,3.8-6.4c1-2.2,1.7-4.4,2.2-6.5c0.3-1.5,0.4-2.9,0.5-4.2
	s-0.1-2.6-0.4-3.8c-0.2-1-0.6-1.9-1-2.8c-0.4-0.9-1-1.7-1.5-2.4c1.1-1.7,2-3.5,2.8-5.3C241.4,137.7,242,135.9,242.3,134.1z
	 M232.5,127.7c-0.8,3.8-2.6,7.7-5.1,11.1c-0.1,0.1-0.2,0.2-0.3,0.3c1.7,1.3,2.8,3.3,3.4,5.7c0.5,2,0.4,4.3-0.1,6.9
	c-0.8,3.8-2.6,7.7-5.1,11.1c-2.5,3.4-5.6,6.4-9.1,8.6c-2.3,1.5-4.7,2.6-7.2,3.2c-5.9,1.5-11.7,2.9-17.6,4.4
	c4.2-20.6,8.3-41.2,12.5-61.8c4.9-1.2,9.8-2.4,14.7-3.6c3.6-0.9,6.8-0.6,9.2,0.7c2.4,1.3,4,3.6,4.7,6.6
	C233,122.8,233,125.1,232.5,127.7z"/>
<path class="st0" d="M147.8,147.4c-0.4-1.7-1.1-3.3-2-4.6c-0.3-0.5-0.7-0.9-1.1-1.3c-0.7-0.7-6.9-7.3-6.9-7.3l0,0
	c-0.7-0.8-1.5-1.5-2.5-2c-1.5-0.8-3.1-1.4-4.9-1.6c-1.8-0.2-3.8-0.1-5.8,0.3c-1.4,0.3-2.8,0.7-4.2,1.2c-1.4,0.5-2.8,1.2-4.2,2
	c-2,1.1-3.9,2.5-5.7,4.1c-1.8,1.6-3.4,3.3-4.9,5.2c-1.5,2-2.8,4-3.8,6.1c-1,2.1-1.7,4.2-2.2,6.4c-0.9,4.3-1.8,8.6-2.6,12.9
	c-0.9,4.3-1.8,8.6-2.6,12.9c-0.3,1.4-0.5,2.8-0.5,4.2c0,1.3,0.1,2.6,0.4,3.8c0.4,1.8,1.1,3.4,2,4.8c0.3,0.5,0.7,1,1.1,1.4
	c2.2,2.5,4.4,4.9,6.7,7.4c0.8,0.9,1.7,1.6,2.7,2.3c1.5,0.9,3.1,1.5,4.9,1.8c1.8,0.3,3.8,0.2,5.8-0.2c1.4-0.3,2.8-0.6,4.2-1.2
	c1.4-0.5,2.8-1.2,4.2-2c2-1.2,3.9-2.6,5.7-4.2c1.8-1.6,3.4-3.4,4.9-5.4c1.5-2,2.8-4.1,3.8-6.3c1-2.2,1.7-4.3,2.2-6.5
	c0.9-4.3,1.8-8.7,2.6-13s1.8-8.7,2.6-13c0.3-1.4,0.5-2.9,0.5-4.2C148.2,149.9,148.1,148.6,147.8,147.4z M137.8,148.7
	c-1.8,8.7-3.5,17.3-5.3,26c-0.8,3.8-2.6,7.6-5.1,10.9c-2.5,3.3-5.6,6.1-9.1,8.1c-2.3,1.3-4.7,2.2-7.1,2.7c-3.6,0.6-6.8,0.1-9.2-1.5
	c-2.4-1.5-4.1-3.9-4.7-7c-0.4-2-0.4-4.4,0.1-6.9c1.8-8.6,3.5-17.2,5.3-25.8c0.8-3.7,2.6-7.5,5.1-10.7c2.5-3.2,5.6-6,9.1-8
	c2.3-1.3,4.7-2.3,7.2-2.7c3.6-0.7,6.8-0.2,9.2,1.2c2.4,1.4,4.1,3.7,4.7,6.8C138.4,143.9,138.4,146.2,137.8,148.7z"/>
<path class="st0" d="M123.7,146.2c-0.6-0.2-1.4-0.2-2.2,0c-1.2,0.2-2.4,0.8-3.5,1.7c-1.1,0.8-2,1.9-2.7,3.1
	c-0.4,0.8-0.8,1.6-0.9,2.5c-1.8,8.6-3.5,17.2-5.3,25.9c-0.3,1.3-0.1,2.4,0.3,3.2c0.4,0.9,1.2,1.5,2.1,1.8c0.6,0.2,1.4,0.2,2.2,0.1
	c1.2-0.2,2.4-0.8,3.5-1.6c1.1-0.8,2-1.9,2.7-3.1c0.4-0.8,0.8-1.6,0.9-2.5c1.8-8.6,3.5-17.3,5.3-25.9c0.3-1.3,0.1-2.4-0.3-3.2
	C125.4,147,124.6,146.4,123.7,146.2z"/>
<path class="st0" d="M197.1,135.8c-0.3-1.2-0.6-2.2-1.2-3.2s-1.1-1.8-1.9-2.6c-0.7-0.8-6.9-7.1-6.9-7.1c-1.5-1.5-3.4-2.6-5.6-3
	c-2.3-0.5-4.9-0.4-7.7,0.2c-2.8,0.7-5.6,1.9-8.3,3.6c-2.7,1.7-5.2,3.7-7.5,6.1c-2.3,2.4-4.2,5-5.8,7.8c-1.6,2.9-2.7,5.8-3.3,8.7
	c-0.7,3.2-0.6,6.1,0.1,8.5c0.6,1.9,1.6,3.5,3,4.8c0,0,4.5,4.8,6.3,6.6c-3.7,0.8-7.4,1.7-11.1,2.5c-0.8,0.2-1.6,0.7-2.3,1.3
	c-0.7,0.7-1.2,1.5-1.3,2.4c-0.6,2.9-0.6,5.6-0.1,8c0.5,2.3,1.5,4.3,3,5.9c0,0,6.2,6.5,6.9,7.2c0.7,0.8,1.6,1.4,2.5,2
	c0.9,0.5,2,0.9,3.1,1.2c1.1,0.3,2.4,0.4,3.7,0.4c1.3,0,2.6-0.2,4-0.5c0,0,0,0,0,0c0,0,0,0,0,0c1.4-0.3,2.8-0.8,4.2-1.4
	c1.4-0.6,2.8-1.3,4.1-2.2c1.3-0.8,2.6-1.8,3.9-2.8c1.2-1,2.5-2.2,3.6-3.4c1.1-1.2,2.2-2.5,3.2-3.8c1-1.3,1.9-2.7,2.6-4.1
	c0.8-1.5,1.5-2.9,2-4.4c0.6-1.5,1-2.9,1.3-4.4c0.3-1.6,0.5-3.1,0.5-4.5c0-1.4-0.2-2.8-0.6-3.9c-0.3-1-0.7-1.8-1.2-2.6
	c-0.5-0.8-7.2-7.7-8.1-8.6c1.8-0.4,3.5-0.9,5.3-1.3c2-0.5,3.9-1,5.9-1.4c0.8-0.2,1.6-0.7,2.3-1.4c0.6-0.7,1.1-1.5,1.3-2.4
	c0.3-1.5,0.4-2.9,0.4-4.2C197.5,138.2,197.4,137,197.1,135.8z M187.2,137.4c-3.9,1-7.8,1.9-11.7,2.8c0.2-0.9,0.2-1.6,0-2.3
	c-0.1-0.7-0.5-1.2-0.9-1.7c-0.4-0.4-1-0.7-1.6-0.9c-0.6-0.1-1.4-0.1-2.2,0.1c-0.8,0.2-1.6,0.6-2.4,1c-0.8,0.5-1.5,1.1-2.1,1.8
	c-0.6,0.7-1.2,1.4-1.7,2.2c-0.4,0.8-0.8,1.6-1,2.5c-0.2,0.9-0.1,1.4-0.1,1.8c0.1,0.4,0.2,0.7,0.6,1.1c0.2,0.2,0.5,0.5,0.9,0.7
	c0.5,0.3,1.1,0.6,1.9,0.9c1,0.4,2.3,0.7,3.6,1.1c1.8,0.5,3.7,1,5.6,1.9c1.1,0.5,2.1,1.1,3.1,2c1.1,1,2,2.3,2.5,4
	c0.6,2,0.6,4.4,0.1,7.2c-0.5,2.6-1.5,5.1-2.8,7.5c-1.3,2.4-3,4.7-5,6.8c-1.9,2-4.1,3.9-6.4,5.3c-2.3,1.4-4.7,2.5-7.2,3
	c-2.4,0.6-4.6,0.6-6.6,0.1c-1.9-0.5-3.5-1.4-4.8-2.7c-1.3-1.3-2.1-3-2.6-5c-0.5-2-0.4-4.3,0.1-6.9c3.9-0.8,7.8-1.7,11.7-2.6
	c-0.2,0.9-0.2,1.6,0,2.3c0.1,0.7,0.4,1.2,0.9,1.7s1,0.8,1.6,0.9c0.6,0.2,1.3,0.1,2.2,0c0.8-0.2,1.6-0.5,2.4-1
	c0.8-0.5,1.5-1.1,2.1-1.7c0.6-0.7,1.2-1.5,1.7-2.3c0.4-0.8,0.8-1.6,0.9-2.5c0.2-0.9,0.1-1.4,0.1-1.8c-0.1-0.4-0.3-0.7-0.6-1.1
	c-0.2-0.2-0.5-0.5-0.9-0.7c-0.5-0.3-1.1-0.6-1.9-0.9c-1-0.4-2.2-0.7-3.6-1.1c-1.8-0.5-3.7-1-5.6-1.9c-1.1-0.5-2.1-1.2-3.1-2
	c-1.1-1-2-2.3-2.5-4.1c-0.6-2-0.7-4.5-0.1-7.2c0.5-2.5,1.5-5.1,2.9-7.5c1.3-2.4,3-4.7,5-6.7c1.9-2,4.1-3.8,6.4-5.2
	c2.3-1.4,4.7-2.5,7.2-3.1c2.4-0.6,4.6-0.6,6.6-0.2c1.9,0.4,3.5,1.3,4.8,2.6c1.3,1.3,2.1,3,2.6,5
	C187.7,132.5,187.7,134.9,187.2,137.4z"/>
</svg>
