<?xml version="1.0" encoding="utf-8"?>
<!-- Generator: Adobe Illustrator 26.2.1, SVG Export Plug-In . SVG Version: 6.00 Build 0)  -->
<svg version="1.1" id="Superhero_font" xmlns="http://www.w3.org/2000/svg" xmlns:xlink="http://www.w3.org/1999/xlink" x="0px"
	 y="0px" viewBox="0 0 419.5 297.6" style="enable-background:new 0 0 419.5 297.6;" xml:space="preserve">
<style type="text/css">
	.st0{fill:#231F20;}
	.st1{opacity:0.8;fill:#FFFFFF;}
</style>
<path d="M67.2,80.8c0.1,0.1,0.3,0.2,0.4,0.3c0.1,0,0.3,0.2,0.4,0.3c0.1-0.1,0.2,0.1,0.4,0.2c0.2,0.2,0.4,0.3,0.4,0.5
	c0-0.3,0.3,0.3,0.3,0.5c0.3,0.3,0.3,0.7,0.5,1.1c0,0.3,0.1,0.2,0.1,0.4c0,0.2,0,0.2,0,0.3c0,0.3,0.1,0.5,0,0.7
	c0.1,0,0.2-0.1,0.1,0.1c-0.2,0.1-0.1,0.2-0.1,0.3c0,0,0,0,0,0c0.1,0,0,0,0,0c0,0.1,0.1,0.1,0,0.1c0,0.1,0,0.4,0.1,0.6
	c0,0.5-0.2,0-0.2,0.3c0.2,0.3-0.1,0.3-0.1,0.6c0,0,0,0.1-0.1,0.2c0.1,0.1,0,0.1,0,0c0,0.1-0.1,0.2-0.1,0.3c-0.1,0.2,0,0.3-0.1,0.3
	c-0.3,0.1-0.1-0.5-0.2-0.1c-0.1,0.2,0-0.2-0.3-0.2c0,0-0.1,0-0.1,0c0.1,0.1,0,0.1,0,0c-0.2,0-0.4,0.2-0.2-0.2c-0.2-0.1,0,0.2-0.2,0
	c0.2,0-0.2-0.3-0.1-0.1c-0.1-0.1-0.2-0.1-0.3-0.1c-0.2,0-0.3-0.4-0.2-0.1c-0.4,0.1,0.2-0.4-0.1-0.5c-0.2,0.2,0-0.1-0.2-0.1
	c-0.2,0-0.3,0.1-0.5,0.1c-0.1-0.1-0.3,0-0.2-0.2c-0.4,0,0.2,0,0-0.2c0.2-0.5,0.3-1.1,0.3-1.7c0-0.2,0.1-0.8-0.1-0.6
	c0,0.3-0.1-0.1-0.1,0.2c-0.2,0.1-0.2,0.3-0.3,0.5C66.3,85,66.2,85,66,85.3c-0.3,0.2,0,0.2-0.3,0.5c-0.1,0.1-0.2,0.3-0.3,0.4
	c-0.1,0.2,0,0.2-0.2,0.4c-0.1,0.1-0.2,0.3-0.3,0.5c0,0.1,0,0.1,0,0.1c0,0,0,0,0,0c0,0,0,0,0,0c-0.1,0.2-0.1,0.3-0.2,0.4
	c-0.1,0-0.2,0.2-0.3,0.4c0,0.1,0,0.2,0,0.2c0,0,0,0,0,0c0,0.1-0.1,0.2-0.2,0.3c-0.1,0.3,0.1,0.1-0.1,0.3c0,0.1,0,0.5-0.2,0.3
	c-0.1,0.4,0,0.1,0,0.4c-0.1,0.1-0.2,0.4-0.2,0.5c0,0.1-0.2,0.4-0.1,0.5c0,0,0,0.1,0,0.1c0.1,0,0,0,0,0c0,0.1,0,0.3-0.2,0.4
	c0,0.1,0,0.1,0,0.2c0,0,0,0,0,0c0,0.1,0,0.1,0,0c0,0.1,0,0.2,0,0.3c-0.1,0.2-0.2,0.3,0,0.4c-0.2,0.1,0.1,0-0.1,0.2
	c0.2,0.1,0,0.1,0.1,0.3c-0.2,0.1,0.1,0.5-0.1,0.7c0.1,0.3-0.2,0.5-0.1,0.7c0,0.2-0.1,0.2,0.1,0.4c-0.1,0.1-0.1,0.3,0.2,0.2
	c0.9-0.4,1.7-1.1,2.3-1.9c0.2-0.3,0-0.2-0.2-0.2c0,0.1-0.4,0-0.3,0.1c-0.1,0.2-0.2-0.1-0.1-0.1c-0.3-0.1,0,0,0-0.1
	c0.5-0.1,0.3-0.2,0-0.1c-0.3-0.1,0.1-0.1,0.2-0.2c0-0.1-0.1-0.2-0.1-0.3c0.2-0.1-0.5-0.1-0.1-0.2c0.1-0.1-0.1-0.2-0.1-0.4
	c0-0.1,0-0.2-0.2-0.3c0.1-0.2,0-0.3,0-0.3c0.1-0.3,0.4-0.1,0.3-0.5C65.3,90,65.2,90,65,89.8c-0.1-0.1-0.1-0.4,0.2-0.3
	c-0.3-0.2,0.2-0.1,0.2-0.2c1.8-0.4,3.6-0.5,5.3-0.6c0.3,0,0.4,0.3,0.7,0.2c-0.3,0.2,0.3,0,0.1,0.3c-0.2,0.1-0.2,0.1-0.2,0.3
	c0.1,0-0.2,0.2,0,0.2c0.1,0.3-0.1,0.1-0.1,0.4c0.1-0.1,0.4,0.1,0.2,0.3c-0.2,0.1,0,0.4-0.2,0.6c0.1,0.2-0.3,0.2-0.1,0.4
	c0.2,0-0.1,0.2-0.1,0.4h0c0,0,0,0,0,0c0,0,0,0.1,0,0.1c-0.2-0.3-0.1,0.2-0.4,0c-0.1,0,0-0.2-0.2-0.1c0.1,0.2-0.1,0.2-0.3,0.2
	c0,0-0.1,0-0.1,0c0,0,0,0-0.1-0.1c0,0,0.1,0.1,0.1,0.1c-0.1,0-0.2,0.1-0.2,0.1c-0.2-0.2-0.2,0.3-0.3,0.2c-0.1,0-0.1,0.3-0.2,0.2
	c-0.2,0.3-0.1,0.2-0.1,0.3c0.1,0.2,0,0.5,0,0.1c-0.3,0.2-0.1,0.3,0,0.3c0.1,0.5-0.5,0.2-0.3,0.2c0.3,0,0-0.3-0.1,0
	c-0.2,0.2-0.3,0.6-0.5,0.7c-0.1,0.2,0,0.3-0.2,0.6c-0.3,0.1-0.2-0.1-0.3,0c0,0.1,0.4,0.1,0.1,0.2c-0.1-0.1-0.2,0.3,0,0.2
	c0.2-0.2,0.4-0.5,0.6-0.7c0.4-0.5,0.2,0-0.1,0.3c-0.1,0.2-0.2,0.5-0.5,0.6c0,0.3-0.1,0-0.1,0.2c-0.1,0.1-0.4,0.2-0.4,0.3
	C67.2,96,67,96,67,96.1c-0.4,0.1-0.2,0.1-0.4,0.2c0-0.2-0.1-0.1-0.2,0c0,0,0,0,0,0c0,0,0,0,0,0c0.1,0,0,0.1-0.2,0.2
	c0.1-0.2-0.2-0.1-0.4,0c-0.1,0.3-0.1,0-0.3,0.1c-0.3-0.1-0.2,0.4-0.5,0.1c-0.2,0,0.3-0.2,0.2-0.1c0.2,0,0.2-0.1,0.4-0.1
	c0.1-0.1,0.6,0,0.5-0.3c0.3-0.1,0.1-0.1,0.1,0.1c0.3-0.1,0.5-0.2,0.6-0.4c0.1-0.1,0.4-0.2,0.5-0.3c0.1-0.1,0.3-0.2,0.3-0.3
	c-0.2,0.1,0-0.2-0.1-0.1c-0.2,0.1-0.3,0.1-0.3,0.2c-0.2,0.2-0.5,0.5-0.7,0.5c-0.1,0.2-0.2,0-0.2,0.2c-0.2,0-0.4,0.1-0.7,0.2
	c-0.3,0-0.3,0.2-0.4,0.4c-0.1,0-0.1,0-0.2,0c0,0,0.1,0,0.1-0.1c-0.1-0.1,0-0.1,0.1-0.2c-0.2-0.2-0.2,0.1-0.4,0
	c-0.3-0.1-0.7-0.1-0.6,0.1c0.1,0.1,0.5,0.2,0.6,0.2c0.1,0.1,0.2,0.2-0.1,0.1c0.2,0.1-0.2-0.1-0.2,0.1c-0.1-0.1-0.3-0.1-0.3-0.1
	c-0.2-0.2-0.5-0.2-0.7-0.3c-0.3-0.4,0.6,0.2,0.1-0.2c-0.3-0.1-0.7-0.1-0.9-0.3c-0.3-0.2-0.5,0.2-0.6,0c-0.1,0.1-0.3-0.3-0.5-0.2
	c-0.8-0.6-1.2-1.7-1.2-2.7c0-2.6,0.9-5.1,1.9-7.5c0.8-1.6,1.6-3.2,3-4.4c0.5-0.3,0.7-0.5,1.2-0.5c0,0,0.1,0,0.1,0
	C66.9,80.6,67,80.8,67.2,80.8z M63.8,90.7C63.8,90.7,63.8,90.7,63.8,90.7C63.8,90.6,63.8,90.6,63.8,90.7z M64.5,87.7
	C64.3,88.2,64.7,87.7,64.5,87.7C64.6,87.6,64.5,87.6,64.5,87.7z M65,87.3C65,87.3,65,87.3,65,87.3C65,87.3,65,87.3,65,87.3z
	 M66,85.2c0,0.2,0.2-0.3,0.2-0.3C66,85,66,85,66,85.2z M66.7,84.1c-0.3,0.4,0.1,0.1,0.1-0.2C66.8,84,66.7,84,66.7,84.1z M68.1,94.3
	C68.1,94.3,68.1,94.3,68.1,94.3C68.1,94.3,68.3,94.4,68.1,94.3z M68.5,94.1C68.5,94.1,68.5,94.1,68.5,94.1
	C68.4,94.2,68.5,94.2,68.5,94.1c0,0.1-0.2,0.1,0-0.1C68.5,94.1,68.5,94.1,68.5,94.1z M68.5,94.1C68.5,94.1,68.5,94.1,68.5,94.1
	C68.5,94.1,68.5,94.1,68.5,94.1z M69.7,92.9c0,0.1-0.1,0.2-0.1,0.3c-0.1,0.1-0.2,0.3-0.3,0.4c-0.2,0.2-0.3,0.4-0.4,0.5
	c0,0.1-0.2,0.2,0-0.1c0.2-0.3,0.3-0.6,0.5-0.7C69.4,93.2,69.6,93,69.7,92.9c0,0-0.1-0.1,0-0.1C69.8,92.9,69.7,92.9,69.7,92.9z
	 M69.3,88.1C69.5,88.3,69.1,88.3,69.3,88.1C69.4,88,69.4,88,69.3,88.1z M69.8,92.1c0,0.1,0,0.2-0.1,0.2
	C69.6,92.6,69.7,92.1,69.8,92.1C69.8,92.1,69.8,92.1,69.8,92.1z M69.8,92.6C70,92.6,69.7,92.7,69.8,92.6
	C69.8,92.6,69.8,92.6,69.8,92.6z M69.8,91.7C69.8,91.7,69.8,91.7,69.8,91.7C69.9,91.7,69.9,91.7,69.8,91.7
	C69.9,91.7,69.9,91.7,69.8,91.7C69.9,91.8,70.2,91.7,69.8,91.7C69.9,91.7,69.8,91.7,69.8,91.7z M71.2,91.7
	C71.2,91.7,71.2,91.7,71.2,91.7C71.3,91.7,71.3,91.7,71.2,91.7z M71.7,89.3C71.7,89.3,71.7,89.3,71.7,89.3
	C71.8,89.4,71.7,89.4,71.7,89.3C71.6,89.4,71.5,89.3,71.7,89.3C71.7,89.3,71.7,89.3,71.7,89.3z"/>
<path d="M71.7,91.9c0.2-0.1,0,0.2-0.1,0.1c0-0.2-0.5-0.2-0.1-0.3C71.6,91.8,71.7,91.7,71.7,91.9z M77.6,80.4
	c1.4,0.1,2.9,0.5,3.6,1.7c0.1-0.1,0.1,0.2,0.2,0.3c0,0,0,0,0,0.1c0,0,0,0,0,0c0,0,0,0,0,0c0,0.2,0.1,0.6,0.2,0.7
	c-0.1,0.1,0,0.6-0.1,0.8c0,0.2-0.1,0.4-0.2,0.7c0,0,0,0,0,0c0,0,0,0,0,0c0,0,0,0,0,0.1c-0.1,0.1-0.1,0.2-0.2,0.2
	c0,0.2-0.1,0.4-0.1,0.6c0,0.5-0.3,0.6-0.5,1c-0.2,0.4-0.4,0.8-0.6,1.1c-0.2,0.3-0.2,0.4-0.4,0.5c-0.2,0.3-0.3,0.3-0.4,0.6
	c0,0-0.2-0.2-0.3,0.2c0.2,0.4-0.2,0-0.3,0.3c-0.2,0.1-0.6,0.3-0.5,0.5c1.2,0.3,2.4,0.4,3.6,0.9c0.3,0.1,0.6,0.3,0.3,0.3
	c0.2,0,0,0.3,0.1,0.2c0.3-0.3,0,0.3,0.2,0.1c0,0.2-0.2,0.1-0.2,0.2c0.1,0.1,0,0.3-0.1,0.5c-0.4,0.3,0,0,0,0.2c0.1,0.1-0.3,0.1,0,0.3
	c-0.2-0.1-0.2-0.1-0.3,0.1c0.1-0.2-0.2,0-0.1,0.2c-0.1,0.1-0.2,0-0.1,0.4c-0.3,0-0.3,0-0.6,0c-0.1-0.1-0.2,0.4-0.5,0.2
	c0.3,0,0.2-0.3,0.1-0.2c-0.1-0.1-0.2,0-0.2-0.1c-0.1-0.1-0.2-0.1-0.3-0.1c-0.2-0.1-0.2,0.1,0,0.1c0.2,0,0.2,0.2,0,0.1
	c-0.5,0,0.3,0-0.3-0.1c-0.5-0.1,0.2,0.1,0,0.1c0-0.1-0.4,0-0.5-0.1c-0.2-0.1-0.3-0.1-0.5-0.1c-0.1-0.2-0.3-0.1-0.5-0.1
	c0,0-0.4-0.2-0.2-0.1c-0.1,0.1-0.2-0.1-0.4,0c-0.2-0.1-0.4,0.1-0.6-0.1c-0.1,0-0.3,0-0.4-0.1c-0.2,0-0.5-0.1-0.6-0.1
	c-0.2,0-0.7-0.2-0.6,0.3c0.3-0.1,0,0.5,0,0.4c-0.1,0.2,0,0.3,0.1,0.5c-0.2,0.2-0.2,0.3-0.2,0.5c0,0.2,0,0.2,0,0.4
	c0.1,0.2-0.1,0.2-0.1,0.4c0.1,0.1-0.1,0.1,0,0.2c0,0-0.1,0.3,0,0.5c-0.1,0.2-0.1,0.1-0.1-0.1c0.1-0.3,0.1-0.4,0.1-0.6
	c0,0.2-0.1,0.6-0.1,0.7c-0.1,0.1-0.1,0.5-0.1,0.7c-0.1,0.6,0-0.4-0.1-0.1c-0.1,0.1-0.2,0.2-0.2-0.2c-0.1,0,0.4,0,0.1-0.2
	c-0.1-0.3-0.2,0.3-0.3-0.1c-0.1,0.2-0.1,0.1-0.2,0c-0.1,0.3-0.2,0-0.4,0.1c-0.2-0.2-0.3,0.1-0.4-0.1c0.2-0.3-0.2-0.2-0.2-0.1
	c-0.1,0-0.2,0.2-0.3,0.1c0,0.3-0.3-0.3-0.3-0.1c0,0.3-0.3,0-0.1,0c0.1-0.6,0.1-1.3,0.2-2c-0.1-0.5,0.4-1.4,0-1.7c-0.1,0-0.2,0-0.4,0
	c-0.3-0.3,0.4-0.1,0.6-0.1c0-0.1-0.4-0.2-0.5-0.1c-0.1-0.1-0.4-0.1-0.6-0.1c-0.2-0.2,0.3,0,0.3-0.1c0-0.3,0.4,0.1,0.2-0.2
	c0.1-0.1-0.1-0.2-0.1-0.3C71.7,91,72.2,91,72,90.8c0-0.1,0-0.2-0.1-0.4c0,0,0,0,0-0.1c0,0-0.1,0,0,0c0,0,0,0,0,0
	c0-0.1-0.1-0.2,0-0.3c0.2,0,0.2,0.1,0.1-0.1c0.1-0.2,0.4-0.2,0.2-0.2c0.1-0.3-0.2,0.1-0.3-0.1c0-0.2,0.1-0.2-0.1-0.2
	c0.1-0.2,0.2-0.3,0.3-0.1c0.1-0.1,0-0.1,0.1-0.3c0.1-0.4,0.5-0.2,0.9-0.2c0.3-1.4,0.6-2.8,0.9-4.2c0.2-0.3,0.3-1.3,0-0.9
	c-0.1,0.2-0.5,0.1-0.5,0c-0.1-0.2-0.3,0.2-0.5,0.1c0,0.2-0.5,0,0-0.1c0,0,0.1-0.1,0.1-0.1c0,0-0.2-0.1,0-0.1c0,0.1,0,0.1,0,0.1
	c0.1,0,0.2-0.1,0-0.2c0.2-0.1-0.2-0.1-0.1-0.3c-0.3,0,0-0.1-0.1-0.3c0-0.2-0.1-0.1-0.1-0.3c0.2-0.1,0.1-0.1,0.1-0.3
	c-0.2-0.2,0.2-0.3,0.3-0.3c0.1-0.1,0.2-0.5,0.1-0.4c0-0.3-0.6,0-0.5-0.3c0,0,0.2-0.2,0.4-0.2c1.1-0.3,2.2-0.5,3.3-0.5
	C76.9,80.4,77.2,80.4,77.6,80.4z M72.8,95.4c-0.2,0.2,0.3-0.1,0.2,0C72.9,95.4,72.9,95.4,72.8,95.4z M73,83c-0.1,0.2,0.3,0.1,0.2,0
	C73.1,83,73.1,83,73,83z M73.9,83.5c-0.1,0.1-0.3,0.1-0.2,0.2C73.8,83.5,74.2,83.7,73.9,83.5C74,83.4,74,83.5,73.9,83.5
	C74,83.5,74,83.5,73.9,83.5C73.9,83.5,73.9,83.5,73.9,83.5z M74,83.5C74,83.5,73.9,83.5,74,83.5C73.9,83.5,74,83.5,74,83.5z
	 M74.8,96.1c0.2,0.1,0,0.1,0,0.2c0.4,0-0.1,0.1,0,0.3c-0.2,0.2-0.1,0.1-0.1,0C74.7,96.6,74.7,96.2,74.8,96.1
	C74.8,96,74.8,96,74.8,96.1C74.8,96,74.9,96.1,74.8,96.1z M76.9,83.1c-0.1-0.1-0.1,0.2-0.1,0.3c0,0.2,0,0.4-0.1,0.5
	c0.2,0.1-0.1,0.1,0,0.4c0.1,0.1,0.1,0.1,0,0.3c-0.1-0.4-0.2,0.4-0.2,0.5c0,0.2-0.2,0.5,0,0.5c-0.1,0.1-0.1-0.1-0.2,0.3
	c0.1,0,0.1,0.1,0.1,0.2c0,0,0,0,0,0c0,0,0,0,0,0c0,0.1-0.1,0.2-0.2,0.3c0.3,0.2,0,0.2-0.1,0.4c0,0,0,0,0,0.1c0.1,0,0,0,0,0
	c0,0.1,0,0.2-0.1,0.2c0,0,0,0,0.1,0c0,0.1-0.1,0.1-0.1,0.1c0,0.1-0.1,0.2-0.1,0.3c1.3-0.6,2.5-1.4,3.5-2.5c0.2-0.3,0.7-0.8,0.3-0.8
	c-0.1,0-0.1-0.1-0.2-0.1c0,0,0,0,0,0c-0.1,0-0.1-0.1-0.2-0.1c-0.1,0.1-0.3,0.1-0.2,0c0.2,0,0.4-0.2,0.1-0.3c-0.2-0.1-0.1,0-0.3,0.1
	c0.1-0.1-0.1-0.3-0.3-0.3c-0.1-0.1-0.4-0.2-0.7-0.2c-0.1,0.2-0.3-0.1-0.6,0C77.3,83.1,77,83.2,76.9,83.1
	C76.9,83.1,76.9,83.1,76.9,83.1z M78.6,93C78.7,93.1,78.7,93,78.6,93C78.6,93,78.6,93,78.6,93z M78.8,83.7c0.2,0.1-0.1,0.1-0.1-0.1
	C78.8,83.7,78.8,83.7,78.8,83.7z M79,93C78.8,93,79.1,92.9,79,93C79,92.9,79,92.9,79,93z M79.1,84.2c0.3,0.3-0.2,0.1-0.1-0.1
	C79.1,84.2,79.1,84.2,79.1,84.2z M79.1,93c0.2,0,0.4,0.1,0.2-0.1C79.4,93.1,78.9,92.8,79.1,93z M79.9,84.3
	C79.8,84.7,79.7,84.3,79.9,84.3C79.9,84.3,80,84.3,79.9,84.3z"/>
<path d="M90.5,79.6c0.1,0,0.3,0.2,0.3,0.1c-0.1-0.2,0.3,0,0,0.2c0.2-0.1,0.2,0.3,0.2,0.3c0.1,0.1,0.3,0.3,0.2,0.3
	c0.2,0.1,0.1-0.1,0.3,0c0.2-0.1,0,0.3,0.2,0.3c0.2-0.2,0,0.2,0.2,0.1c0.1,0.2,0.3,0.3,0.3,0.5c0,0.1,0.2-0.1,0.1,0.4
	c0,0.1,0.1,0.2-0.1,0.4c0,0.2,0,0.4,0.1,0.6c-0.1,0.7,0-0.5-0.1,0.1c0,0.2-0.1,0.3-0.1,0.6c0,0,0,0,0,0.1c0,0,0,0,0,0
	c0,0,0,0.1,0,0.2c-0.2,0.1-0.1,0.5-0.2,0.6c-0.1,0.3-0.1,0.2-0.1,0.5c-0.1,0.2,0,0.6-0.1,0.7c0,0,0,0,0,0c0,0,0,0,0,0
	c0,0.1,0,0.1,0,0.1c0,0.2-0.1,0.3-0.1,0.5c-0.1,0.1-0.1,0.5-0.1,0.5c-0.1,0.2,0,0.1-0.1,0.3c0,0.3-0.2,0.8-0.1,1
	c-0.2,0.6-0.2,1.2-0.3,1.8c-0.1,0.4-0.1,0.9-0.2,1.3c0,0.4-0.1,0.5-0.1,1c0,0.3,0,0.7-0.1,1.1c0,0.2,0,0.3-0.1,0.6
	c-0.1,0.3,0,0.9-0.1,1.2c0,0.2,0.1,0.4-0.1,0.6c0.1,0,0.1,0.3,0,0.3c-0.2,0.3,0-0.2-0.2-0.2c0.1-0.2-0.1,0-0.1-0.2
	c-0.1,0.1-0.1,0.3-0.1,0c-0.1,0.4-0.2,0-0.2,0c0-0.2-0.1,0.3-0.2,0.1c-0.2-0.2-0.2,0.2-0.3,0.2c-0.1-0.2-0.2-0.2-0.4-0.2
	c-0.3,0.2-0.4-1.1-0.6-0.7c-0.1-0.2-0.2,0.2-0.3,0.1c-0.1,0.1-0.2,0.4-0.4,0.6c0-0.1-0.1-0.1-0.2,0.1c-0.3,0.1-0.1,0-0.2-0.1
	c-0.1,0.2-0.3,0.4-0.7,0.3c-0.1-0.1-0.2-0.1-0.3-0.1c0,0.1-0.1,0.1,0,0c-0.1,0-0.2,0-0.3-0.1c-0.3-0.1-0.3,0-0.5-0.2
	c-0.1,0.1-0.2-0.1-0.2-0.1c-0.3-0.1-0.1-0.2-0.5-0.3c-0.3,0-0.3-0.1-0.6-0.1c-0.3,0.2-0.1-0.1-0.4-0.1c-0.1,0,0.2,0.3-0.3,0
	c-1-0.8-1.3-2.1-1.2-3.4c0.1-3.1,1-6.2,2.2-9.1c0.2-0.6,0.8-1.4,0.7-1.8c0.2-0.2,0.1-0.1,0.1-0.2c0.2-0.2,0.4-0.1,0.4,0
	c0.2-0.2,0-0.3,0.4-0.1c0.1,0,0.3,0.3,0.4,0.3c-0.1,0.3,0,0.3,0.1,0.6c0.1-0.4-0.1,0.3,0.1,0c0,0.3-0.1,0.3,0.1,0.1
	c-0.1-0.3,0.3-0.1,0.2,0c0.2,0.1-0.2,0.2-0.1,0.3c0.1-0.1,0.2,0.1,0.2,0.1c0.1,0.1,0.1,0.3,0.3,0.2c0,0,0,0,0,0c0,0,0,0,0,0
	c0,0.2,0.1,0.5-0.1,0.8C87,82.6,86.7,83,87,83c-0.1,0.2-0.1,0.2-0.2,0.6c-0.2,0.5-0.2-0.1-0.2,0.3c0.3,0.1-0.1,0.2,0,0.4
	c0.2,0.1-0.1,0.6-0.1,0.4c-0.2,0.2-0.1,0.1,0,0.3c0,0-0.2,0.1-0.2,0.1c-0.1,0.1,0,0.3,0,0.3c-0.1,0.3-0.1,0.2,0,0.4
	C86,85.8,86,86,86,86.1c0,0,0,0,0,0c0,0,0,0,0,0c-0.1,0.2,0,0.3-0.1,0.4c0,0.1-0.2,0.4-0.2,0.6c0.1,0.1,0.1,0.4,0,0.3
	c-0.1-0.3-0.2,0.3-0.1,0.3c-0.2,0.2,0.1,0.3-0.1,0.3c0.2,0.2,0,0-0.1,0.3c0.1-0.3,0.2,0.4,0,0.5c0,0.1-0.1,0.4-0.1,0.6
	c-0.1,0.2-0.1,0.4-0.1,0.6c0,0.1-0.3,0.3,0,0.2c0,0,0,0.1-0.1,0.1c0,0,0,0,0,0c0,0,0,0.1,0,0.1c0,0.1,0,0.1-0.1,0.2c0,0,0,0,0,0
	c0.1,0,0,0,0,0c0,0-0.1,0.1,0.1,0.2c-0.1,0.1-0.2,0.4-0.1,0.5c-0.1,0.2,0,0.3,0,0.4c0.2,0.1-0.1,0.7,0.1,0.8
	c-0.2,0.1,0.1,0.2,0.1,0.5c0,0.2-0.1,0.5,0.1,0.2c0.5-0.4,0.9-0.8,1.3-1.3c0.4-0.5,1-1,1.1-1.6c0.3-2.3,0.8-4.5,1.3-6.8
	c0.3-1.3,0.6-2.6,1.1-3.7c0-0.4,0.1,0.2,0.1,0c0.1-0.1,0-0.1,0.2-0.3C90.5,79.6,90.5,79.6,90.5,79.6z M84,95
	C84.1,95.1,83.9,95,84,95C84,95,84,95,84,95z M85.1,95.2c0.1,0.1,0.2,0.1,0.3,0.2C85.8,95.6,85.4,95.2,85.1,95.2
	C85.1,95.2,85.1,95.2,85.1,95.2z M85.1,90.4C85.1,90.4,85.1,90.4,85.1,90.4C85.2,90.4,85.2,90.4,85.1,90.4z M85.4,88.9
	c0.2-0.2-0.1,0,0-0.1C85.3,88.8,85.3,88.9,85.4,88.9z M87.2,95.1c-0.1,0-0.4,0.1-0.5,0.2c-0.2,0-0.3,0-0.4,0c-0.1,0.1-0.2,0-0.2,0
	c0,0,0,0,0,0c0,0,0,0,0,0c0,0,0,0-0.1,0.1c0,0-0.1-0.1-0.1-0.1c0.2,0.3,0.5,0.2,0.8,0.2c-0.2,0.2,0.1,0,0.2-0.1c0,0.2,0.5,0,0.7-0.1
	c0.3-0.2-0.2-0.1-0.1-0.3C87.3,95,87.3,95.1,87.2,95.1z M88.7,75.6c0.2,0.1,0.3,0.4,0.4,0.6c0,0.1,0.2,0.2,0.3,0.3
	c-0.1,0.2,0.2,0.1,0.1,0.2c-0.1-0.1-0.1,0,0,0.1c0.2,0.1,0.1,0.2,0.1,0.4c0.1,0.2-0.1,0.4,0,0.5c-0.1,0.1-0.1,0.1-0.2,0.2
	c0.1,0.1-0.3,0.2-0.2,0.4c0.2,0.1-0.1,0.1,0,0.1c0,0.1-0.3,0.2-0.3,0.3c0.1,0.1-0.1,0.1-0.2,0.2c-0.2,0.1-0.3,0.2-0.5,0.3
	c0,0,0.4-0.3,0.3-0.3c0.2-0.2,0-0.1-0.1,0c-0.1,0,0,0,0,0c0,0,0,0,0,0c0,0.1-0.3,0.1-0.1,0c0.1-0.1-0.3,0.1-0.2,0.1
	c0.2-0.1,0,0.2-0.2,0.2c-0.2,0,0.2-0.2,0.1-0.2c-0.2,0-0.1,0-0.1,0.1c-0.1-0.1-0.3,0.1-0.4,0.1c-0.1,0-0.3-0.3-0.3-0.2
	c0,0.2-0.3-0.3-0.3-0.2c-0.1,0.2,0.1,0.3,0.1,0.4c0,0.2-0.1,0-0.1-0.1c-0.2,0.1-0.1-0.4-0.2-0.3c-0.1,0-0.1-0.2,0-0.1
	c0-0.2-0.2-0.5-0.3-0.8c-0.3-0.2-0.5-0.5-0.5-0.9c0-0.9,0.8-1.7,1.7-1.9c0.2,0,0.4-0.1,0.6-0.1C88.3,75.5,88.5,75.5,88.7,75.6z
	 M86,95.3C86,95.3,86,95.3,86,95.3C86,95.3,86,95.3,86,95.3z M86.5,85.1C86.5,85.1,86.5,85.1,86.5,85.1
	C86.5,85.1,86.5,85.1,86.5,85.1z M86.5,95.1C86.4,95.2,86.7,95.1,86.5,95.1C86.6,95.1,86.5,95.1,86.5,95.1z M87,81.9
	c0.2,0.3,0.1-0.1,0.1-0.2C86.8,81.9,86.7,81.8,87,81.9z M87.2,81.7C87.2,81.7,87.2,81.7,87.2,81.7S87.3,81.7,87.2,81.7z M87.7,79.8
	c-0.2-0.1-0.4,0.2-0.4,0c0.1-0.1,0.5,0,0.5-0.1C87.9,79.7,87.8,79.7,87.7,79.8z M87.9,79.6C87.9,79.8,87.8,79.6,87.9,79.6
	C87.9,79.6,87.9,79.6,87.9,79.6z M88,79.6c-0.2,0,0,0,0.1-0.1C88.2,79.5,88.1,79.6,88,79.6z M88.4,79.2
	C88.4,79.2,88.4,79.2,88.4,79.2C88.4,79.2,88.4,79.2,88.4,79.2z M92.9,75.9c0.1,0,0.2,0.3,0.3,0.3c0.1,0.2,0.2,0.3,0.3,0.5
	c0.2,0.1,0,0.1,0.1,0.3c0,0.2,0,0.6-0.1,0.8c0,0.1-0.1,0.2-0.1,0.2c0.1,0.2-0.3,0.3-0.2,0.4c-0.2,0,0,0.1-0.1,0.1
	c0,0-0.3,0.1-0.2-0.1c0.2-0.2,0-0.1-0.1,0c-0.1,0.1-0.3,0.4-0.2,0.3c0,0,0,0.1,0.1-0.1c0.2,0.1-0.2,0.2-0.3,0.3
	c0.1-0.1,0.2-0.3-0.1-0.1c-0.1-0.1,0.2,0,0.1-0.2c-0.1,0-0.1,0.1-0.2,0.2c0.1,0,0,0.3-0.1,0.1c0.1-0.2-0.2,0-0.2,0
	c-0.1,0.1,0.1,0.1,0.1,0.2c-0.2,0.2-0.3-0.1-0.5,0c-0.1,0.1-0.2-0.2-0.3-0.1c0,0-0.1-0.1-0.2-0.1c-0.2-0.2-0.1,0-0.1,0.1
	c0.1,0.1,0.1,0.6,0,0.3c-0.1-0.2-0.1-0.4-0.1-0.6c-0.2-0.2-0.4-0.4-0.5-0.7c-0.2-0.2-0.4-0.5-0.4-0.9c0-0.4,0.1-0.8,0.2-1.1
	c0.2-0.6,0.8-1,1.4-1C92.2,74.9,92.7,75.3,92.9,75.9z M91.2,79.3c0,0.1,0.1,0,0.1,0.1c0.1-0.1,0.5-0.1,0.3,0c0,0.1-0.2,0-0.3,0.1
	C91.3,79.6,90.9,79.5,91.2,79.3C91.2,79.3,91.2,79.3,91.2,79.3z M91.4,86.3L91.4,86.3C91.3,86.3,91.5,86.4,91.4,86.3z M92.1,79.2
	c0.1,0.1-0.4,0.4-0.3,0.1C91.9,79.3,91.9,79.3,92.1,79.2c0.1,0,0.1-0.2,0.2-0.2C92.5,79.2,92.1,79.3,92.1,79.2z M92.8,78.7
	c-0.2,0.1-0.1-0.1,0-0.1C92.9,78.6,93,78.6,92.8,78.7z"/>
<path d="M100.3,79.3c0.1,0.1,0.3,0,0.4,0.3c0-0.1,0.3,0.4,0.4,0.2c0,0.3,0.3,0.1,0.3,0.3c0.2,0.1,0.3,0.1,0.5,0.2
	c-0.2,0.1,0.1,0.1,0.1,0.2c-0.3,0,0.1,0.2,0.2,0.3c0.2,0.1,0,0.3,0.2,0.4c0,0.2,0.1,0.4,0.1,0.6c0,0.4,0.2,0.9,0.1,1.1
	c-0.1,0.1-0.2,0.6-0.2,0.9c-0.1,0.3-0.1,0.5-0.2,0.6c0,0,0,0.1,0,0.1c0,0,0,0,0,0c-0.1,0,0,0,0,0c0,0.2-0.1,0.3,0,0.2
	c0,0.3,0,0.4-0.1,0.6c-0.1,0-0.2,0.2-0.2,0.2c-0.2,0.3-0.1-0.1,0-0.2c-0.1,0.3,0.2-0.2,0.1-0.1c0,0,0,0-0.1,0c0,0,0-0.1,0-0.1
	c0,0.1,0,0.1,0,0.1c-0.1,0-0.2,0-0.2-0.1c0,0-0.1,0-0.1,0c0,0,0,0,0,0c0,0.1,0.2,0.4-0.1,0.2c-0.1,0.1-0.3,0.2-0.2,0.2
	c-0.1,0-0.1,0.2,0.1,0.1c0.2,0,0.2-0.2,0.2,0.1c0.4-0.4,0,0.5-0.1,0.2c-0.3,0.3,0-0.1-0.3,0.1c0,0.3-0.3,0.3-0.3,0.4
	c-0.1,0.2-0.2,0.5-0.2,0c0.2,0,0.1-0.2-0.1-0.2c-0.1,0.1,0,0.2-0.1,0.2c-0.1,0.1-0.3,0.2-0.3,0.3c-0.2-0.1,0,0.3-0.2,0.2
	c-0.3,0.1-0.3,0.4,0.1,0.4c0.5,0.3,1,0.9,1.2,1.5c0.2,0.4,0.4,1.1,0.2,1.4c-0.2,0,0,0.3,0,0.4c0,0.3-0.2-0.2-0.2,0.1
	c0.2-0.1-0.1,0.4,0,0.3c-0.1,0.3-0.1,0.3-0.2,0.5c-0.1,0.2-0.2,0.2-0.2,0.4c0,0-0.2,0.2,0,0.1c-0.2,0.3-0.4,0.5-0.4,0.6
	c0,0-0.1,0.1-0.1,0.2c0,0,0,0,0,0c0,0,0,0,0,0c-0.1,0.1-0.2,0.2-0.3,0.3c0,0.2-0.6,0.3-0.7,0.6c-0.1-0.1-0.3,0.3-0.4,0.1
	c-0.1,0.1-0.1,0-0.3,0.1c0,0.1-0.1,0.1,0,0c0,0-0.1,0-0.1,0c0.1,0-0.2,0.3-0.2,0.1c-0.1,0-0.1,0-0.2,0c0,0.2-0.2,0.1,0,0
	c-0.2,0-0.3,0-0.3-0.1c0,0,0,0,0,0c0,0,0.1,0,0.1,0c0.2,0,0.5,0,0.6-0.2c0,0.2,0.4-0.1,0.6-0.1c0.2-0.2,0.5-0.2,0.6-0.5
	c0.2-0.1,0.5-0.5,0.6-0.7c0,0,0,0,0,0c0,0,0,0,0,0c0,0,0,0,0-0.1c-0.1,0.2-0.3,0.3-0.4,0.5c-0.2,0.2-0.2,0.2-0.4,0.2
	c0.1,0.2-0.1,0.2-0.2,0.2c0,0.1-0.5,0.2-0.2,0.1c0-0.2-0.3,0.1-0.6,0.1c-0.3,0.2-0.3,0-0.5,0.1c-0.2,0.1-0.3-0.2-0.5-0.1
	c-0.3,0,0.1,0.1,0.2,0.1c0.1,0.2-0.5-0.1-0.7-0.1c-0.3-0.1-1.1-0.3-0.6,0c0.3,0.3,0.3,0.1,0.5,0.2c-0.1,0.2,0.7,0.1,0.7,0.3
	c-0.3,0.1-0.3,0.1-0.6-0.1c0-0.1,0,0.1-0.2,0.1c-0.1-0.3-0.6-0.3-0.8-0.6c0.3,0-0.3-0.5-0.5-0.6c-0.2-0.3-0.5-0.2-0.5,0.1h0
	c0,0,0,0,0,0c0,0,0,0,0,0.1c-0.1,0,0,0.5-0.1,0.4c-0.1,0.2,0.1,0.4-0.1,0.3c-0.1,0.1-0.1,0.5-0.1,0.8c0,0.3,0,0.2-0.2,0.4
	c0.1,0.1-0.1,0.1,0-0.2c0.1-0.1,0-0.7-0.1-0.3c-0.2,0.2-0.1,0.1-0.1,0.2c-0.2,0-0.3,0.4-0.3,0.5c-0.1,0.1-0.3,0.2-0.1-0.1
	c-0.3,0,0,0-0.3,0.1c-0.1-0.1-0.3-0.1-0.4,0c-0.1-0.3-0.1,0.2-0.2,0.2c0-0.3-0.3,0.3-0.2-0.1c-0.2-0.1-0.3-0.1-0.1,0.1
	c-0.1,0.3-0.2-0.2-0.4-0.1c-0.3-0.1,0.1,0,0-0.2c0-0.2-0.1-0.1-0.2-0.1c0-0.2-0.1,0.2-0.3,0c0-0.2-0.1,0.1,0,0.1
	c0,0.1-0.1,0-0.2-0.1c-0.1,0.2-0.2,0.1-0.3-0.2c0.1-1.8,0.6-3.5,1-5.3c0.9-2.9,1.9-5.8,3.5-8.4c0.7-1.1,1.7-2.3,3-2.5
	C99.8,79.2,100,79.2,100.3,79.3z M94.8,94.6c0,0.1,0.3-0.1,0.1-0.1h0C94.9,94.5,95,94.6,94.8,94.6z M95.2,94.3c0.1,0,0.1,0,0.1-0.1
	c0,0,0.1,0,0,0c0,0,0,0,0,0c0,0-0.2-0.1-0.3-0.2C94.8,94.3,95.3,94.2,95.2,94.3z M95.1,94C95.1,93.9,95.1,93.9,95.1,94
	C95.1,93.9,95.1,93.9,95.1,94C95.2,93.9,95.2,93.9,95.1,94C95,94,95,94,95.1,94z M95.3,93.7c-0.2,0.3,0,0.7,0.1,0.2
	c-0.1-0.1,0.2-0.6,0-0.7C95.3,93.5,95.4,93.4,95.3,93.7z M95.4,93c0.1,0.2,0.1-0.3,0.1-0.4C95.4,92.6,95.5,92.9,95.4,93z M95.6,93
	C95.6,93,95.6,93,95.6,93C95.6,93,95.6,93,95.6,93z M95.8,90.9C95.9,90.9,95.9,90.9,95.8,90.9C95.9,90.9,95.9,91,95.8,90.9
	C95.8,91,95.8,91,95.8,90.9c0,0.2,0.1,0.2,0.1-0.1C95.9,90.8,95.8,90.9,95.8,90.9z M96.2,89.7c-0.1,0.2,0,0.3-0.2,0.4
	c-0.1,0.3,0,0.4-0.2,0.6c0.3,0,0-0.5,0.3-0.5c-0.1-0.1,0-0.5,0.1-0.5c0-0.1,0.1-0.5,0.1-0.6C96.2,89.4,96.2,89.6,96.2,89.7z
	 M96.9,88.3c-0.2,0-0.3,0.3-0.1,0.2c0.1-0.3,0,0.2-0.1,0.2c-0.4,0.3,0,0.5-0.2,0.7c0.1,0-0.3,0.3-0.2,0.7c0,0-0.2,0.7-0.2,1
	c-0.2,0.5,0.2,0,0.2,0.3c0.1,0.6,0.1-0.1,0.4,0.1c-0.2,0.1-0.1,0-0.1,0.2c0.1,0.4,1.2,0.1,1.4-0.3c0.5-0.5,1.1-1.3,1-2.1
	c0-0.1-0.7,0.2-0.2-0.2c0.3,0,0.3-0.4,0.1-0.3c-0.2,0.1-0.3-0.1-0.5,0c-0.2,0-0.3,0.1-0.4,0c0.1,0-0.3,0.1-0.3,0
	c-0.1,0.3-0.1,0.1-0.2-0.1c0.1,0.3-0.5,0.2-0.1,0C97.6,88.3,96.7,88.6,96.9,88.3C97,88.3,97,88.3,96.9,88.3z M97.3,88.8
	c0.2,0.1-0.3,0-0.1,0C97.2,88.8,97.3,88.8,97.3,88.8z M97.3,85.8c-0.2,0.2,0.3-0.3,0.1-0.3C97.4,85.7,97.3,85.7,97.3,85.8z
	 M97.5,85.8c0.2-0.2,0.2,0,0.1-0.2C97.5,85.7,97.5,85.7,97.5,85.8z M97.6,88.9C97.6,89.2,97.4,88.8,97.6,88.9
	C97.6,88.8,97.7,88.9,97.6,88.9z M97.9,94c0,0-0.1,0-0.2,0C97.8,94.1,98,94.1,97.9,94c0.3,0.1,0.3-0.1-0.1-0.1
	C97.8,94,97.8,94,97.9,94z M99.6,82.6c0.1-0.2-0.2,0-0.2-0.1c-0.2-0.1-0.2,0.2-0.2,0.2c-0.2-0.1-0.2,0.3-0.3,0.4
	c-0.1-0.1,0,0.3,0.1,0c0.3-0.3,0,0.2-0.2,0.4c-0.1,0.3-0.3,0.2-0.4,0.2c-0.1,0.1-0.1,0.2,0.1,0.4c-0.1-0.2-0.1-0.2,0-0.2
	c-0.2-0.2,0.3,0,0.2,0c-0.1,0.1-0.2,0.2-0.2,0.3c0,0.4-0.4,0.2-0.1-0.1c-0.1,0.1-0.3,0.1-0.2,0.1c0.1,0.2-0.1,0.4-0.2,0.4
	c-0.1,0.2-0.2,0.3-0.1,0c-0.2,0,0,0.6-0.3,0.3c-0.1,0.1-0.1,0.3,0.2,0.2c0.1,0.1,0.1-0.5,0.3-0.2c0,0.2-0.1,0.2-0.2,0.4
	c0,0.3-0.2,0-0.1-0.1c-0.3,0.1,0,0.3,0,0.4c0.8-0.7,1.5-1.6,1.8-2.6c0.1-0.4,0.2-0.4,0.2-0.6C99.9,82.5,99.4,82.7,99.6,82.6z
	 M97.7,88.5C97.6,88.7,98,88.5,97.7,88.5C97.7,88.5,97.7,88.5,97.7,88.5z M97.7,85.5C97.7,85.5,97.7,85.5,97.7,85.5
	C97.7,85.4,97.7,85.4,97.7,85.5C97.7,85.4,97.7,85.5,97.7,85.5z M98.1,94.3c0.2,0-0.5,0-0.1-0.1C97.9,94.2,97.9,94.2,98.1,94.3
	C98,94.2,98,94.3,98.1,94.3z M97.9,94.1C97.9,94.1,97.9,94.1,97.9,94.1C97.9,94,97.9,94,97.9,94.1z M97.9,89.5
	c-0.2,0,0.3-0.3,0.5-0.4C98.4,89.2,98.1,89.5,97.9,89.5z M98.2,84.7c-0.2,0.1,0-0.1,0.1-0.3C98.3,84.5,98.4,84.7,98.2,84.7z
	 M98.2,94C98.3,94.1,98.3,94.1,98.2,94C98.3,94.1,98.2,94.1,98.2,94C98.2,94.1,98.2,94.1,98.2,94z M98.8,88.7
	C98.6,89,98.4,88.7,98.8,88.7C98.8,88.7,98.8,88.7,98.8,88.7z M99.3,83.1c-0.3,0.2-0.2,0,0-0.3C99.5,83.1,99.2,82.9,99.3,83.1z
	 M99.4,82.5c-0.2,0.2,0.2,0-0.1,0.2C98.9,83.1,99.2,82.6,99.4,82.5C99.3,82.5,99.4,82.5,99.4,82.5z M99.4,93.7
	C99.4,93.7,99.4,93.7,99.4,93.7C99.3,93.8,99.1,93.8,99.4,93.7C99.4,93.7,99.4,93.7,99.4,93.7z M99.4,82.8
	C99.3,82.9,99.4,82.7,99.4,82.8C99.4,82.7,99.4,82.7,99.4,82.8z M99.7,81.9c-0.2,0-0.2,0.3-0.1,0.2c0.2,0,0.4-0.2,0.4-0.3
	c0,0,0.1,0,0,0c0,0,0,0,0,0c0,0,0,0,0-0.1C99.9,81.8,99.7,81.8,99.7,81.9z M99.7,82.2c0,0.3,0.2,0.1,0.2-0.2
	C99.9,82.2,99.7,82.1,99.7,82.2z M100,81.7C100,81.7,100,81.7,100,81.7C100,81.7,100,81.7,100,81.7z M100.5,87c-0.1-0.1,0-0.3,0-0.3
	c0.1,0,0.2,0,0.3-0.1C101,86.7,100.6,87,100.5,87z M100.7,87.1C100.4,87.6,100.3,87.3,100.7,87.1C100.7,87.1,100.8,87.1,100.7,87.1z
	 M100.7,93C100.7,92.9,100.7,92.9,100.7,93C100.7,93,100.7,93,100.7,93z M101.3,86.4c-0.1,0.2-0.1,0.3-0.2,0.4c0,0,0,0,0,0
	c0,0,0,0,0,0c-0.2,0-0.3,0.3-0.2,0C101,86.7,101.1,86.6,101.3,86.4C101.3,86.4,101.4,86.5,101.3,86.4z M101.3,85.8
	c-0.1,0.2-0.2,0.2-0.2,0.3c-0.2,0.1,0.1,0.2,0.2,0.1c0-0.2,0.3-0.2,0.2-0.4C101.3,85.8,101.3,85.7,101.3,85.8z M101.4,86.4
	c-0.2,0,0.1-0.4,0.1-0.4C101.7,86.1,101.4,86.3,101.4,86.4z M101.7,85.4c0.1,0.1-0.2,0.1,0.1-0.2C101.8,85.3,101.7,85.4,101.7,85.4z
	 M102.1,84.7c0-0.1-0.1-0.1,0-0.2C102,84.7,101.9,85.1,102.1,84.7z M102.3,84.3C102.3,84.3,102.3,84.3,102.3,84.3
	C102.4,84.3,102.4,84.3,102.3,84.3z M102.5,84.4C102.4,84.6,102.3,84.5,102.5,84.4C102.5,84.4,102.5,84.4,102.5,84.4z"/>
<path d="M107.3,78.4c0.3,0,0.3,0.1,0.4,0.1c0,0.1,0.2,0.3,0.4,0.3c1.4-0.5,2.8-0.7,4.2-0.8c0.4,0,1.2-0.2,1.4,0
	c0.3-0.2,0.3,0.2,0.5,0.1c0.1-0.2,0.3,0.1,0.3,0.1c0,0.1,0.2,0.2-0.1,0.2c0.1,0.1,0.1,0.2-0.1,0.4c0,0-0.2,0.3-0.2,0.3
	c0.1,0.2-0.1,0.2-0.1,0.3c0,0.2,0.3,0.2,0.2,0.4c-0.1,0.1-0.1,0.2-0.2,0.3c-0.4-0.1-0.3,0.3-0.2,0.3c-0.1,0.2-0.3-0.1-0.3,0
	c-0.2,0-0.3,0.2-0.5,0c-0.2,0.1-0.4,0-0.5,0.2c-0.2,0.1-0.3,0,0-0.2c-0.2,0.1-0.2,0-0.4,0.1c-0.2,0.1,0,0-0.2,0.2
	c0-0.2-0.3,0.1-0.4,0c-0.2,0-0.3,0.1-0.5,0.1c0,0.1-0.3-0.1-0.6,0.1c0,0,0,0,0.1,0c0,0,0,0,0,0c0.3-0.1,0.5,0.1,0.2,0.3
	c0-0.2-0.4,0.3-0.5,0.1c0,0-0.6,0.3-0.4,0.1c-0.2-0.1-0.1,0.2-0.3,0.1c-0.2,0.2-0.3-0.1-0.4-0.1c0.2,0.2-0.4,0.4-0.3,0.2
	c-0.2-0.1-0.1-0.2-0.1-0.2c-0.3-0.2,0,0.3-0.2,0.2c-0.2,0,0,0.2-0.2,0.3c-0.2-0.1-0.2,0.2-0.2,0.3c-0.1,0.3-0.1-0.2-0.1,0.1
	c0,0.2,0,0-0.1,0.3c0.1,0.1-0.1,0.1,0.1,0.3c0,0.3-0.3,0.3-0.2,0.4c-0.1,0.1,0,0.2,0,0.3c-0.1,0.3-0.3,0.4-0.2,0.5
	c0,0-0.1,0.1-0.1,0.1c0,0,0,0,0,0c0,0,0,0,0,0c0,0.1-0.1,0.2-0.1,0.1c0,0,0.2,0.2-0.1,0.2c0,0,0,0.3,0,0.5c0,0,0,0,0,0c0,0,0,0,0,0
	c0,0,0,0,0,0.1c1.3-0.4,2.6-0.7,3.9-0.9c0.5,0,1.1-0.1,1.6,0c0,0.1,0.1-0.1,0.2,0.2c0.3,0.2-0.2,0.1,0.1,0.2c-0.3,0.2,0,0.1,0,0.4
	c-0.1-0.1-0.1,0-0.1,0.1c0.2-0.1,0,0.2,0,0.2c-0.1-0.1-0.1-0.4-0.2,0c0.1,0.1,0.4,0.4,0.1,0.3c0,0-0.2,0.1-0.2,0.2c0,0,0,0,0,0
	c0,0,0,0,0.1,0c0.2,0.1,0.2,0.2,0.1,0.2c-0.3,0.2,0,0-0.1,0.2c0.2-0.1,0,0.2-0.1,0.2c-0.3-0.1-0.2,0.3-0.1,0.1
	c0.2,0-0.1,0.3-0.1,0.1c0,0.2-0.7,0.2-0.5,0.3c-0.2-0.1-0.3,0.2-0.3,0.1c-0.2,0.2-0.2-0.1-0.3,0.1c-0.3,0-0.5-0.1-0.8,0
	c-0.1,0.1-0.4,0.1-0.5,0.1c-0.1,0-0.2,0-0.2,0c-0.2-0.1-0.1,0.2-0.2,0.1c0.2-0.1-0.6,0-0.2,0.1c-0.3,0.2-0.3-0.2-0.5,0
	c-0.3,0.2-0.2,0.1-0.2,0.1c-0.1,0-0.2,0-0.3,0.1c0.1,0.1-0.1,0.1,0,0c-0.1,0.1-0.2,0.1-0.3,0.1c-0.1,0.1-0.3,0.1-0.2,0.2
	c-0.2-0.2-0.1,0.2-0.3,0c-0.1,0.3-0.6,0.2-0.5,0.2c-0.2-0.1-0.2,0.6-0.2,1c-0.2,0,0.1,0.1,0,0.5c-0.1,0.2,0,0.4,0,0.6
	c-0.1,0,0.2,0.4-0.1,0.5c0,0.5,0.2-0.1,0.1,0.3c0,0,0,0.1,0,0.1c0,0,0,0,0,0c0.2,0.1,0.1,0.1,0,0.1c0,0.1,0.1,0.2,0.1,0.3
	c0.2,0.4-0.1,0,0,0.3c0.1,0.2,0,0.1,0.1,0.2c1.1-0.3,2-1,2.9-1.7c0.2,0,0.2,0,0.4,0.1c0.1-0.1,0.1,0,0.2,0.1
	c0.4-0.1-0.1,0.2,0.1,0.1c0.2,0.2,0.4-0.2,0.5,0c-0.1,0.2,0.1,0.2,0.2,0c0.2,0,0.1,0.3,0.2,0.1c0,0,0.1,0,0,0c0,0,0,0,0-0.1
	c0.1,0.2,0.6-0.2,0.5,0.1c0.4,0,0.2,0.4,0.3,0.3c0.1-0.1,0,0.2,0.2,0.2c-0.1,0.3-0.2-0.1-0.3,0.1c0,0.3-0.3,0.1-0.1,0
	c-0.1,0-0.3,0.4-0.1,0.2c0,0.1-0.1,0.3-0.4,0.4c-0.2,0.2-0.5,0.3-0.6,0.5c-0.1,0.1-0.5,0.3-0.3,0.2c0.1,0,0.4-0.2,0.5-0.3
	c0,0.3,0.1,0.1,0.3,0.1c0.1-0.1,0.4-0.3,0.4-0.4c0.2-0.1,0.2,0-0.1,0.2c-0.3,0.2-0.6,0.5-0.9,0.6c-0.1,0.3-0.4,0.1-0.4,0.3
	c-0.2-0.1-0.3,0.2-0.5,0.2c-0.1,0-0.2,0.1-0.4,0.2c-0.3,0.2-0.9,0.3-1.4,0.4c-0.4,0.1-0.8-0.2-1.1-0.3c-0.3,0-0.3-0.1-0.7-0.2
	c0.3,0-0.1-0.3-0.2-0.3c-0.3-0.2-0.1,0.2-0.3,0c-0.4-0.3,0,0.1-0.3,0c-0.1-0.1-0.1-0.1-0.3-0.1c0,0,0,0,0,0c0,0,0,0,0,0
	c-0.1,0-0.1,0-0.2,0c-1-0.5-1.3-1.6-1.4-2.7c-0.1-2.3,0.4-4.6,1-6.8c0.1-0.4,0.5-1.1,0.3-1.2c0-0.3-0.2-0.2-0.2-0.5
	c-0.2,0.1-0.2-0.2-0.1-0.4c0.2-0.1-0.3,0-0.4-0.2c0.5,0-0.2-0.1,0.2-0.3c0.2,0,0.1-0.1,0.2-0.2c-0.2-0.2,0-0.2,0-0.4
	c0.3,0,0.3-0.2,0.3-0.3c-0.1-0.2-0.1,0-0.2-0.1c0.2,0,0.1-0.1-0.1-0.1c0.1,0.2-0.3-0.3-0.2-0.3c0-0.2,0.5-0.1,0.2-0.2
	c0.9-0.3,2-0.1,2.1-0.9c0-0.2,0.3-0.3,0.2-0.3C107.1,78.6,107.1,78.4,107.3,78.4C107.3,78.4,107.3,78.4,107.3,78.4z M105.2,93.4
	C105.2,93.4,105.3,93.4,105.2,93.4C105.3,93.4,105.3,93.4,105.2,93.4z M106.3,93.8c0,0,0.1,0,0.1,0
	C106.4,93.9,106.3,93.9,106.3,93.8z M107.4,84.2C107.3,84.3,107.5,84.2,107.4,84.2L107.4,84.2z M107.6,93.9c0.3,0.1,0.5,0.2,0.6,0
	c0-0.1-0.5,0.1-0.2,0C108.3,93.8,107.8,93.9,107.6,93.9C107.7,93.8,107.5,93.9,107.6,93.9z M107.7,94C107.7,94.1,107.9,94,107.7,94
	C107.7,94,107.7,94,107.7,94z M107.9,78.5C108.1,78.7,107.7,78.5,107.9,78.5C107.9,78.5,107.9,78.5,107.9,78.5z M108.3,93.8
	c-0.2,0.3,0,0.1,0.2,0.1c0.1,0.1,0.4,0,0.2-0.2C108.7,93.8,108.4,93.9,108.3,93.8z M108.8,81.4C108.9,81.5,109,81.3,108.8,81.4
	C108.8,81.3,108.8,81.3,108.8,81.4z M109.9,93.3c-0.1,0.1-0.4,0.2-0.5,0.3c-0.3,0.3-0.1,0.1,0,0.2c0.2,0,0.5-0.2,0.6-0.2
	c0-0.1,0.5-0.5,0.2-0.2c0.2,0.2,0.2-0.3,0.2-0.3C110.3,93.3,110,93.2,109.9,93.3z M109.6,93.8C109.6,93.8,109.6,93.8,109.6,93.8
	C109.5,93.8,109.6,93.9,109.6,93.8c-0.1,0.1,0,0.1,0.1-0.1C109.7,93.8,109.7,93.8,109.6,93.8z M111.3,90.9
	C111.3,90.9,111.3,90.9,111.3,90.9C111.3,90.9,111.3,90.9,111.3,90.9z M111.7,81C111.7,81.1,111.4,81,111.7,81
	C111.6,81,111.6,81,111.7,81z M111.8,92.2c-0.3,0.3-0.3,0.1,0-0.1C112,92.2,111.8,92.1,111.8,92.2z M112,92.3
	C112,92.3,112,92.3,112,92.3C112,92.3,112.1,92.3,112,92.3z M112.9,85.5C112.9,85.5,112.9,85.5,112.9,85.5
	C112.9,85.5,112.9,85.5,112.9,85.5z M113,85.9C113,85.9,113,85.9,113,85.9C113.1,85.8,113.1,86,113,85.9z M113.3,80.4
	C113.3,80.5,113.4,80.4,113.3,80.4C113.3,80.4,113.3,80.4,113.3,80.4z M113.9,79.1c0.2,0.2-0.1,0.4,0.2,0.2
	C114,79,114.2,79.1,113.9,79.1C113.9,79,113.9,79.1,113.9,79.1z"/>
<path d="M124.8,77.4c0.2,0.1,0.4,0.4,0.6,0.5c0.1,0.1,0.2,0,0.3,0.1c0.1,0.2,0.5,0.3,0.5,0.5c0.3,0.2,0.3,0.5,0.4,0.8
	c0,0.5,0.3,0.4,0.3,0.9c-0.1,0-0.1,0.2-0.1,0.3c0.2-0.2,0.2,0.4,0,0.2c-0.1,0.6,0.1,1.2,0,1.7c-0.1,0.2,0.3,0.1,0,0.2
	c-0.1,0.1,0,0.1,0,0.3c0-0.1,0-0.1,0-0.1v0c0.1-0.2,0.1-0.1,0.1,0.3c-0.1,0-0.2,0.5-0.2,0.4c0.1,0.3,0,0.5,0,0.8
	c0.1,0.2-0.1,0.5,0.1,0.3c0,0.3,0,0.2-0.1,0.2c0,0,0,0,0,0c0,0,0,0-0.1,0.1c0,0.4,0.2,0.3,0.1,0.6c0.2,0.2-0.2,0.5,0,0.7
	c0,0.3-0.2,0-0.1,0.3c0.1-0.1,0.1,0.2,0.3,0.2c-0.1,0.1-0.3,0.1-0.3,0.3c0.2,0,0.3,0.3,0,0.4c0,0.1,0.5,0,0.3,0.1
	c-0.2-0.1-0.1,0.3-0.3,0.2c-0.1-0.1-0.2,0.1-0.1,0.2c-0.2,0.1,0.5-0.1,0.2,0c-0.2,0,0.2,0.2-0.1,0.2c-0.1,0.1,0.1,0.1-0.2,0.3
	c-0.1-0.2-0.1,0.2-0.1,0.3c-0.1,0,0.1,0.4-0.1,0.3c0,0.3,0,0.3,0,0.6c-0.1,0.2,0,0.5-0.1,0.8c0.2,0.1,0,0.1,0.1,0.2
	c-0.1,0-0.1,0.4-0.1,0.5c0.2,0.2-0.1,0.1,0,0.3c-0.1,0.2,0,0.5-0.1,0.6c0.1,0.2,0,0.4,0.1,0.6c0,0.3-0.5-0.3-0.4,0
	c-0.1,0-0.2,0.1-0.2,0.1c-0.1,0-0.3,0.2-0.3,0c0.1,0-0.2-0.2-0.3-0.1c0,0.3-0.2-0.2-0.2-0.1c-0.2,0.3-0.2-0.3-0.5-0.2
	c0.1-0.2-0.3-0.4-0.1-0.2c-0.1,0.3-0.5-0.1-0.4,0.1c-0.1,0.4-0.1-0.1-0.2,0c0,0.1-0.2-0.2-0.2,0.1c-0.2,0,0.3-0.3-0.1-0.2
	c0.1-0.7,0.1-1.4,0.1-2.1c-0.1-0.3,0.3-1.3-0.2-1.2c-0.5-0.3,0.5,0,0.3-0.3c0.1-0.1,0-0.3-0.4-0.1c0.2,0.1-0.1,0.3,0,0
	c-0.1,0-0.4,0-0.5,0.1c-0.3,0-0.2,0.2,0,0.1c0.2,0.1-0.4,0.2-0.2,0.2c0.2,0,0,0.1,0.2,0.2c-0.2,0-0.7,0.2-0.8,0
	c-0.2,0.2-0.2,0-0.4,0c-0.3,0.2-0.4,0-0.6,0.1c-0.1-0.2-0.4,0-0.5-0.1c0,0.1,0,0.4-0.1,0.2c-0.1,0.1-0.2,0.3,0.1,0.1
	c0.2,0,0.1,0.5-0.1,0.3c-0.1,0.2,0,0.3-0.2,0.3c-0.1-0.3-0.4,0.6-0.2,0.5c0.1,0,0.1,0.3-0.1,0.2c0-0.3-0.5,1.3-0.5,1.3
	c0-0.2-0.2,0.1,0,0.1c-0.1,0.2-0.2,0.4-0.1,0.1c-0.1,0.1-0.2,0.4-0.1,0.3c0,0,0,0.1-0.1,0.2c0,0.1-0.1,0.1-0.2,0.1
	c-0.4-0.2,0.2,0.2,0,0.2c0.1,0.2-0.3-0.1-0.3,0c-0.2-0.3-0.4,0.5-0.2,0c0.2-0.2-0.2-0.4-0.1-0.1c0,0.2,0,0.2-0.1,0.2
	c0,0,0.1,0,0-0.1c0,0,0,0,0,0c0-0.1-0.1-0.2-0.1-0.2c-0.4,0.1,0.1,0-0.1,0.3c0-0.1-0.3,0.1-0.3-0.1c0.2-0.1-0.2-0.3-0.2,0
	c0.2-0.3,0.1,0.3,0,0.2c0-0.2-0.3-0.1-0.1-0.2c-0.1-0.5-0.2,0.3-0.2-0.1c0.2-0.1,0.2-0.4-0.1-0.2c-0.3,0.1,0-0.2-0.1-0.2
	s-0.3,0.1-0.3,0.1c0,0.1-0.2,0.1-0.2,0.1c0.1-0.3-0.3,0.2-0.1-0.1c0-0.1,0-0.3,0-0.4c0.1-0.3,0.1-0.1,0.2-0.4c0-0.1,0.1-0.2,0-0.3
	c1.2-4.1,3.2-9,4.9-11.4c0.7-0.9,1.4-2,2.4-2.4c-0.1,0.1,0.1,0,0.2,0.1c0,0,0.1-0.1,0.2-0.1C124.5,77.1,124.8,77.2,124.8,77.4z
	 M118.3,92.7C118.3,92.8,118.3,92.8,118.3,92.7C118.3,92.8,118.3,92.8,118.3,92.7z M120.1,90.5C120.2,90.9,119.9,90.6,120.1,90.5
	C120,90.5,120,90.6,120.1,90.5z M120.7,88.9c0.2,0.2-0.2,0.1-0.1,0.1C120.5,89.1,120.4,88.9,120.7,88.9
	C120.6,88.9,120.6,88.9,120.7,88.9z M122.1,88.5C122.1,88.5,122.1,88.5,122.1,88.5c-0.3,0.1-0.7,0.1-1,0.2c-0.5,0-0.1,0.2,0.2,0.1
	c0.1-0.1,0.5,0,0.5-0.1C121.8,88.6,122.3,88.7,122.1,88.5C122.1,88.5,122.1,88.5,122.1,88.5z M121.5,88.9
	C121.5,89,121,89,121.5,88.9C121.5,88.9,121.5,88.9,121.5,88.9z M124,81.3c-0.1,0.2-0.1,0.5-0.2,0.4c0,0.2-0.5,0.3-0.2,0.4
	c0.1,0-0.4,0.5-0.3,0.3c0.2-0.1,0.1,0,0.1-0.3c-0.1,0.1-0.2,0-0.2,0.1c0,0,0,0,0,0c0,0,0,0,0,0.1c0,0-0.1,0.1-0.1,0.1c0,0,0,0,0,0
	c0,0,0,0,0,0.1c0,0-0.1,0.1-0.1,0c0,0.1,0.1,0,0,0.2c-0.3,0.2,0.2,0.1,0.1,0.2c0,0-0.1,0.4-0.2,0.2c0.2-0.2-0.2-0.1-0.2,0.1
	c-0.1,0.1-0.1,0.2-0.2,0.3c0,0.3-0.1,0.2-0.2,0.5c-0.1,0.3,0.1-0.1,0.2-0.2c0.2-0.1,0.1-0.5,0.3-0.4c-0.1,0-0.2,0.2-0.1,0.4
	c-0.1,0.2-0.2,0.1-0.2,0.4c-0.2,0.1,0,0.5-0.3,0.5c0-0.3,0-0.2-0.1,0.1c-0.2-0.1-0.4,0.3-0.2,0.4c0,0,0,0.1,0,0.1
	c0.2,0.2,1.4-0.1,2.1-0.2c0.1-1,0.2-1.9,0.2-2.8c0-0.4,0.2-1.1,0-1.3C124.1,81.1,124.1,81.3,124,81.3z M121.9,84.8
	c0.2,0.1,0.1-0.2,0.3-0.3c-0.2,0,0.1,0,0-0.2C122,84.4,122,84.6,121.9,84.8z M122,84.9C122.2,85.1,122,85.1,122,84.9
	C122,84.9,122,84.9,122,84.9z M123.1,88.5c0,0-0.1,0-0.2,0.1c-0.5,0-0.1,0,0.1-0.2C123.1,88.5,123.1,88.5,123.1,88.5z M122.9,88.5
	c0-0.2-0.2-0.1,0.1-0.3C123.2,88.2,123.1,88.4,122.9,88.5z M123,82.5C123.1,82.5,123.1,82.4,123,82.5
	C123.1,82.5,123.1,82.5,123,82.5z M123.1,82.2C123.1,82.2,123.1,82.2,123.1,82.2C123.2,82.2,123.2,82.2,123.1,82.2z M123.3,82.4
	C123.3,82.4,123.3,82.4,123.3,82.4C123.4,82.4,123.2,82.7,123.3,82.4z M124.1,80.9c-0.2,0.1-0.2,0.2-0.3,0.3c0,0.1-0.3,0.5-0.2,0.4
	c0.1,0.2,0.3-0.3,0.3-0.3c0.1-0.1,0.2-0.1,0.3-0.2C124.2,81,124.2,81,124.1,80.9C124.2,80.9,124.2,80.9,124.1,80.9
	c0.1,0,0.1-0.1,0.1-0.2C124.2,80.8,124.1,80.8,124.1,80.9z M124,80.8C123.9,81,124.1,80.9,124,80.8C124,80.7,124,80.8,124,80.8z
	 M124.2,81C124.2,81,124.2,81,124.2,81C124.2,81,124.2,81,124.2,81z M125.8,92.6C125.8,92.7,125.8,92.6,125.8,92.6
	C125.8,92.6,125.8,92.6,125.8,92.6z M126.8,84.4C126.7,84.4,126.7,84.4,126.8,84.4C126.6,84.5,126.8,84.6,126.8,84.4z"/>
<path d="M135.7,76.7c0.1,0,0.3,0.2,0.3,0.1c-0.1-0.2,0.3,0,0,0.2c0.2-0.1,0.2,0.3,0.2,0.3c0.1,0.1,0.3,0.3,0.2,0.3
	c0.2,0.1,0.1,0,0.3,0c0.2,0,0,0.3,0.2,0.3c0.2-0.2,0,0.2,0.2,0.1c0.1,0.2,0.3,0.3,0.3,0.5c0,0.1,0.2-0.1,0.1,0.4
	c0,0.1,0.1,0.2-0.1,0.4c0,0.2,0,0.4,0.1,0.6c-0.1,0.7,0-0.5-0.1,0.1c0,0.2-0.1,0.3-0.1,0.6c0,0,0,0,0,0.1c0,0,0,0,0,0
	c0,0,0,0.1,0,0.2c-0.2,0-0.1,0.5-0.2,0.6c-0.1,0.3-0.1,0.2-0.1,0.5c-0.1,0.2,0,0.6-0.1,0.7c0,0,0,0,0,0c0,0,0,0,0,0
	c0,0.1,0,0.1,0,0.1c0,0.2-0.1,0.3-0.1,0.5c-0.1,0.1-0.1,0.5-0.1,0.5c-0.1,0.2,0,0.1-0.1,0.3c0,0.3-0.2,0.8-0.1,1
	c-0.2,0.6-0.2,1.2-0.3,1.8c-0.1,0.4-0.1,0.9-0.2,1.3c0,0.4-0.1,0.5-0.1,1c0,0.3,0,0.7-0.1,1.1c0,0.2,0,0.3-0.1,0.6
	c-0.1,0.3,0,0.9-0.1,1.2c0,0.2,0.1,0.4-0.1,0.6c0.1,0,0.1,0.3,0,0.3c-0.2,0.3,0-0.2-0.2-0.2c0.1-0.2-0.1,0-0.1-0.2
	c-0.1,0.1-0.1,0.3-0.1,0c-0.1,0.3-0.2,0-0.2,0c0-0.2-0.1,0.3-0.2,0c-0.2-0.2-0.2,0.2-0.3,0.2c-0.1-0.2-0.2-0.2-0.4-0.2
	c-0.3,0.2-0.4-1.1-0.6-0.7c-0.1-0.2-0.2,0.2-0.3,0.1c-0.1,0.1-0.2,0.4-0.4,0.6c0-0.1-0.1-0.1-0.2,0.1c-0.3,0.1-0.1,0-0.2-0.1
	c-0.1,0.2-0.3,0.4-0.7,0.3c-0.1-0.1-0.2-0.1-0.3-0.1c0,0.1-0.1,0.1,0,0c-0.1,0-0.2,0-0.3-0.1c-0.3-0.1-0.3,0-0.5-0.2
	c-0.1,0.1-0.2-0.1-0.2-0.1c-0.3-0.1-0.1-0.2-0.5-0.3c-0.3,0-0.3-0.1-0.6-0.1c-0.3,0.2-0.1-0.1-0.4-0.1c-0.1,0,0.2,0.3-0.3,0
	c-1-0.8-1.3-2.1-1.2-3.4c0.1-3.1,1-6.2,2.2-9.1c0.2-0.6,0.8-1.4,0.7-1.8c0.2-0.2,0.1-0.1,0.1-0.2c0.2-0.2,0.4-0.1,0.4,0
	c0.2-0.2,0-0.3,0.4-0.1c0.1,0,0.3,0.3,0.4,0.3c-0.1,0.3,0,0.3,0.1,0.6c0.1-0.3-0.1,0.3,0.1,0c0,0.3-0.1,0.3,0.1,0.1
	c-0.1-0.3,0.3-0.1,0.2,0c0.2,0.1-0.2,0.2-0.1,0.3c0.1-0.1,0.2,0.1,0.2,0.1c0.1,0.1,0.1,0.3,0.3,0.2c0,0,0,0,0,0c0,0,0,0,0,0
	c0,0.2,0.1,0.5-0.1,0.7c-0.1,0.2-0.4,0.5-0.1,0.6c-0.1,0.2-0.1,0.2-0.2,0.6c-0.2,0.5-0.2-0.1-0.2,0.3c0.3,0.1-0.1,0.2,0,0.4
	c0.2,0.1-0.1,0.6-0.1,0.4c-0.2,0.2-0.1,0.1,0,0.3c0,0-0.2,0.1-0.2,0.1c-0.1,0.1,0,0.3,0,0.3c-0.1,0.3-0.1,0.2,0,0.4
	c-0.2-0.1-0.2,0-0.2,0.1c0,0,0,0,0,0c0,0,0,0,0,0c-0.1,0.2,0,0.3-0.1,0.4c0,0.1-0.2,0.4-0.2,0.6c0.1,0.1,0.1,0.4,0,0.3
	c-0.1-0.3-0.2,0.3-0.1,0.3c-0.2,0.1,0.1,0.3-0.1,0.3c0.2,0.2,0,0-0.1,0.3c0.1-0.3,0.2,0.4,0,0.5c0,0.1-0.1,0.4-0.1,0.6
	c-0.1,0.2-0.1,0.4-0.1,0.5c0,0.1-0.3,0.3,0,0.2c0,0,0,0.1-0.1,0.1c0,0,0,0,0,0c0,0,0,0.1,0,0.1c0,0.1,0,0.1-0.1,0.2c0,0,0,0,0,0
	c0.1,0,0,0,0,0c0,0-0.1,0.1,0.1,0.2c-0.1,0.1-0.2,0.4-0.1,0.5c-0.1,0.2,0,0.3,0,0.4c0.2,0.1-0.1,0.7,0.1,0.8
	c-0.2,0.1,0.1,0.2,0.1,0.5c0,0.2-0.1,0.5,0.1,0.2c0.5-0.3,0.9-0.8,1.3-1.2c0.4-0.5,1-1,1.1-1.6c0.3-2.3,0.8-4.5,1.3-6.7
	c0.3-1.3,0.6-2.5,1.1-3.7c0-0.4,0.1,0.2,0.1,0c0.1-0.1,0-0.1,0.2-0.3C135.7,76.6,135.8,76.7,135.7,76.7z M129.2,92
	C129.3,92.1,129.1,92,129.2,92C129.2,92,129.2,92,129.2,92z M130.3,92.2c0.1,0.1,0.2,0.1,0.3,0.2C131,92.6,130.6,92.1,130.3,92.2
	C130.3,92.2,130.3,92.2,130.3,92.2z M130.4,87.4C130.4,87.3,130.4,87.3,130.4,87.4C130.4,87.3,130.4,87.4,130.4,87.4z M130.6,85.8
	c0.2-0.2-0.1,0,0-0.1C130.5,85.7,130.5,85.8,130.6,85.8z M132.4,92.1c-0.1,0-0.4,0.1-0.5,0.2c-0.2-0.1-0.3,0-0.4,0
	c-0.1,0-0.2,0-0.2,0c0,0,0,0,0,0c0,0,0,0,0,0c0,0,0,0-0.1,0c0,0-0.1-0.1-0.1-0.1c0.2,0.3,0.5,0.2,0.8,0.2c-0.2,0.2,0.1,0,0.2-0.1
	c0,0.2,0.5,0,0.7-0.1c0.3-0.2-0.2-0.1-0.1-0.3C132.5,91.9,132.5,92.1,132.4,92.1z M131.2,92.3C131.2,92.3,131.2,92.3,131.2,92.3
	C131.2,92.3,131.2,92.3,131.2,92.3z M131.7,82.1C131.7,82.1,131.7,82.1,131.7,82.1C131.7,82.1,131.7,82.1,131.7,82.1z M131.7,92.1
	C131.6,92.2,131.9,92.1,131.7,92.1C131.8,92.1,131.8,92.1,131.7,92.1z M132.2,78.9c0.2,0.3,0.1-0.1,0.1-0.2
	C132,78.9,131.9,78.8,132.2,78.9z M132.5,78.7C132.5,78.7,132.5,78.7,132.5,78.7S132.5,78.7,132.5,78.7z M136.6,83.4
	C136.6,83.4,136.6,83.4,136.6,83.4C136.5,83.4,136.7,83.5,136.6,83.4z"/>
<path d="M145.2,76.5c0.5,0.2,0.5,0.1,0.7,0.4c0.2,0.1,0.2,0.4,0.4,0.4c0,0.2,0.1,0.3,0.2,0.5c-0.1,0.3,0.3,0.3,0.1,0.5
	c0,0.2,0.3,0.5,0.2,0.6c0.1,0.1,0,0.3,0.1,0.3c-0.1,0.3,0.2,0.5,0.1,0.8c0,0.3-0.2,0.5-0.2,0.9c0,0.2-0.3,0.6-0.3,0.9c0,0,0,0,0,0
	c0,0,0,0,0,0c0,0,0,0.1,0,0.1c-0.2,0-0.3,0.3-0.2,0.4c-0.1,0-0.2,0-0.3,0.3c0.2,0-0.1,0.4-0.1,0.1c-0.1,0-0.3,0.3-0.1,0.3
	c-0.2,0.5-0.1-0.1-0.3,0.3c-0.2,0.4,0,0.2-0.3,0.6c-0.1,0.2-0.3,0.5-0.3,0.6c-0.1,0.1,0.1,0.1,0,0.2c-0.2,0.1-0.1,0.4-0.7-0.2
	c-0.6-0.6-1.4-1.4-1-2.1c0.4-0.8,0.9-1.5,1.3-2.3c0.2-0.1,0.1-0.7,0.2-0.4c0.2-0.1,0.1-0.3-0.2-0.3c0.1-0.1,0-0.2-0.1,0
	c-0.1,0,0.3,0.6-0.1,0.3c-0.3-0.2,0,0.2,0,0.2c-0.3,0.1-0.9,0.2-1,0.3c0-0.2-0.2,0.1-0.3,0.2c-0.4,0.2-0.9,0.5-1.2,0.8
	c-0.2,0.3-0.6,0.1-0.6,0.4c0.1,0.1-0.1,0.1-0.2,0.3c-0.1-0.2-0.5,0.4-0.6,0.5c-0.2,0-0.3,0.6-0.3,0.4c-0.2,0.3-0.1,0.1-0.1,0.3
	c-0.1,0-0.3,0.1-0.2,0.2c-0.1,0.2,0,0.2-0.1,0.3c-0.1,0.3-0.2,0.2-0.3,0.5c0.5,0.4,1,0.6,1.5,0.8c1.1,0.5,2.3,0.9,3.2,1.8
	c0.2,0.2,0.2,0.2,0.3,0.4c0,0.1,0.1,0.1,0.1,0.2c0,0,0,0,0,0c0,0,0,0.1,0,0.1c0,0.1,0.1,0.1,0.2,0.2c0.6,0.6,0.8,1.2,0.8,2.1
	c0,0.3-0.1,0.4-0.1,0.6c0,0.2-0.5,0.4-0.3,0.5c-0.2,0.3-0.6,0.5-0.9,0.8c-0.2,0.1-0.4,0.2-0.6,0.2c-0.1,0.1-0.3,0.2-0.5,0.2
	c-0.1,0.1-0.3,0.1-0.3,0.1c-0.2,0-0.3,0.1-0.3,0.1c-0.2,0.1-0.3,0.1-0.4,0.1c-0.2,0.1-0.4,0.1-0.6,0.1c-0.2,0.2-0.2-0.1-0.4,0.1
	c-0.1,0-0.2,0-0.3,0c-0.3,0-0.2,0-0.3,0.1c-0.1,0-0.1,0-0.2,0c0,0,0,0,0,0c0,0,0,0,0,0c-0.1,0-0.2,0-0.3,0c-0.1-0.2,0,0.2-0.1,0
	c-0.2,0.1-0.7,0.2-0.5-0.1c-0.2-0.3,0.2,0.2,0.1,0c0.1-0.1,0.2,0,0.2,0.1c0,0,0,0-0.1-0.1c0.3-0.1,0.5,0,0.8-0.1
	c0.2-0.3,0.1,0,0.5-0.1c0-0.1,0.1-0.3,0.3-0.1c0.1-0.1,0.1,0.1,0.3,0c0.2,0,0.2-0.2,0.2-0.2c0.2,0,0.3,0.1,0.4,0.1
	c0.2,0-0.1-0.2,0-0.2c0.3-0.1,0.4,0.2,0.5,0c0-0.1-0.4,0-0.2-0.1c0.5-0.2,0.1-0.1-0.2,0c-0.3,0.1-0.5,0.1-0.8,0.2
	c-0.1,0.2-0.3,0-0.4,0.1c-0.2,0-0.6,0.1-0.7,0.1c-0.2,0.1-0.1-0.1-0.4-0.1c-0.2,0-0.2,0.3-0.3,0.1c-0.3,0,0,0.2-0.3,0
	c-0.2,0.1,0.1-0.1-0.1-0.2c-0.2-0.1-0.8,0-0.8-0.1c0,0,0,0,0-0.1c0,0.1-0.2,0,0,0c-0.1-0.1-0.4,0-0.5-0.3c-0.1-0.2,0.1-0.3-0.3-0.4
	c-0.1,0.1-0.2,0-0.3,0c-0.2,0-0.2-0.3-0.4-0.2c-0.3-0.2,0.7-0.3,0.3-0.2c-0.2-0.2,0.1,0,0.1-0.2c1.4-0.3,2.9-0.6,4.3-1.2
	c0.3-0.2,1.4-0.6,0.8-0.8c-0.3-0.1-0.6-0.3-0.8-0.3c-0.3-0.2-0.7-0.3-1-0.4c-0.2-0.2-0.4-0.2-0.7-0.3c-0.4-0.2-0.8-0.5-1.1-0.9
	c-0.2-0.3-0.2-0.5-0.4-0.8c-0.1-0.1-0.1-0.1-0.1-0.3c-0.1-0.2-0.1-0.6-0.2-0.8c-0.1,0.3-0.1,0,0-0.1c-0.2,0.1-0.2,0-0.2-0.3
	c0,0.2,0-0.3-0.1-0.1c-0.1-0.1-0.2-0.6-0.2-0.9c0-1,0.5-2,1.1-2.8c1.4-1.7,3.2-2.9,5.3-3.5c0.3-0.1,0.7-0.2,1.1-0.2
	C145,76.4,145.1,76.4,145.2,76.5z M137.8,84.9c-0.1,0,0.4,0.4,0.2,0.3C137.9,85.2,137.8,85.2,137.8,84.9
	C137.8,84.9,137.9,85.1,137.8,84.9z M137.9,84.9C138.1,85.3,137.9,85.1,137.9,84.9C137.9,84.8,137.9,84.8,137.9,84.9z M138.1,85
	C138.2,85.6,138.4,85.2,138.1,85C138.1,84.9,138.1,85,138.1,85z M138.7,85.7C138.8,86,139,86,138.7,85.7
	C138.7,85.7,138.7,85.7,138.7,85.7z M139,86.1C139,86.1,139,86.1,139,86.1c-0.2,0.1,0.2,0,0,0.1C139.1,86.4,139.2,86.2,139,86.1
	C139,86.1,139,86.1,139,86.1C139,86.1,139,86.1,139,86.1z M139,86.1C139,86.2,139,86.2,139,86.1C139,86.1,139,86.1,139,86.1z
	 M139.1,92c0,0.2-0.2,0.1-0.1,0C139,92,139.1,92,139.1,92z M139.2,86.5C139.1,86.5,139.4,86.7,139.2,86.5
	C139.3,86.5,139.3,86.5,139.2,86.5z M139.4,86.6c0.2,0.1,0.2,0.2,0.1,0.1c0.2,0.1,0.3,0.3,0.3,0.1C139.8,86.7,139.6,86.6,139.4,86.6
	C139.5,86.6,139.4,86.6,139.4,86.6z M140.1,87C139.8,86.9,140.1,87.1,140.1,87c0.1,0.1,0.3,0.3,0.4,0.3c0,0,0,0,0,0c0,0,0,0,0.1,0
	c0,0,0,0,0,0c0.2,0.1,0.2,0.2,0.4,0.2c0.1-0.2-0.2-0.2-0.3-0.3c0,0.1-0.3,0.1-0.4-0.2C140.3,87.1,140,87,140.1,87z M140,92.5
	C140,92.5,140.1,92.5,140,92.5C140.1,92.5,140,92.5,140,92.5z M140.1,92.4C140.1,92.4,140.1,92.4,140.1,92.4
	C140,92.4,140.1,92.5,140.1,92.4C140.1,92.5,140.2,92.4,140.1,92.4C140.1,92.4,140.1,92.4,140.1,92.4z M140.1,87
	C140.2,87.1,139.9,87,140.1,87C140.1,87,140.1,87,140.1,87z M140.1,92.4C140.1,92.4,140.1,92.4,140.1,92.4
	C140.1,92.4,140.1,92.4,140.1,92.4z M140.6,87.3C140.6,87.3,140.6,87.3,140.6,87.3C140.6,87.3,140.6,87.3,140.6,87.3z M140.8,87.3
	C140.9,87.3,140.8,87.3,140.8,87.3C141,87.3,140.7,87.5,140.8,87.3z M141.4,87.6c0,0.2,0.3,0.2,0.4,0.3c0.1,0,0.2,0.1,0.4,0.1
	c0.1,0.1,0.1,0,0,0c-0.3-0.2-0.2-0.2,0.2,0c0.2,0.1,0.4,0.1,0.3,0c0-0.1-0.3-0.1-0.3-0.2c-0.2-0.1-0.4-0.2-0.5-0.2
	c-0.2-0.2-0.4,0.1-0.3-0.2C141.5,87.5,141.4,87.5,141.4,87.6z M141.7,88c0.2,0,0,0-0.1-0.1C141.6,87.9,141.7,88,141.7,88z
	 M146.3,82.3C146.3,82.2,146.3,82.2,146.3,82.3C146.3,82.2,146.3,82.2,146.3,82.3z M146.4,81.7L146.4,81.7
	C146.4,81.7,146.4,81.7,146.4,81.7z"/>
<path d="M238.6,198.6c0.5,0.1,0.8,0.4,1.1,0.6c0.3,0.2,0.3,0.5,0.5,0.6c0.1,0.1,0.1,0.2,0.1,0.2c0,0.2,0.4,0.3,0.2,0.5
	c0,0.2,0.2,0.7,0.2,0.6c0,0,0,0.1,0.1,0.1c-0.1,0,0,0.1,0,0c0.1,0.1,0.1,0.3,0.1,0.4c0.1,0.4,0.2,0.7,0.2,1c0,0.4,0.2,0.8,0.2,1
	c0,0.2-0.1,0.7-0.1,1c-0.1,0.5-0.1,0.5-0.3,1c-0.1,0.3-0.1,0.5-0.2,0.9c0,0,0-0.3-0.1,0.1c0.1,0.1,0.1,0.4-0.1,0.5
	c-0.1,0.1-0.3,0.5-0.1,0.2c0,0.3-0.4,0.7-0.2,0.4c0-0.1-0.3,0.4-0.1,0.4c-0.2,0.2-0.2,0.5-0.3,0.3c-0.2,0.2,0,0.4-0.1,0.2
	c-0.1,0.1-0.2,0.1-0.1,0.1c-0.1,0-0.1,0.1,0,0.2c0,0,0,0,0,0c0,0,0,0,0,0c0,0,0,0,0,0c-0.1,0.1-0.2,0.2-0.2,0.3c0,0.2,0.2-0.3,0.1,0
	c-0.2,0.3-0.4,0.8-0.7,1c-0.1,0.2-0.3,0.4-0.4,0.6c0.1,0.1,0,0-0.2,0.3c-0.1,0-0.3,0.3-0.4,0.5c0,0,0,0,0,0c0,0,0,0,0,0
	c0,0,0,0.1-0.1,0.1c0,0,0,0.1-0.2,0.2c-0.2,0.3-0.5,0.6-0.7,0.8c-0.1,0.1-0.1,0.1-0.2,0.2c-0.1,0.1-0.2,0.2-0.3,0.2
	c-0.2,0.2-0.5,0.4-0.6,0.5c-0.2,0.2-0.5,0.3-0.8,0.4c-0.1,0-0.4,0.3-0.3,0c-0.3,0,0.5-0.2,0.7-0.2c0.2-0.1,0.4-0.4,0.2-0.3
	c-0.4-0.2-0.2,0.1-0.2,0.2c-0.2,0-0.1-0.3-0.3-0.1c-0.2,0-0.5,0.2-0.4,0.1c-0.3,0-0.3,0.1-0.5-0.2c-0.2,0.1-0.5-0.1-0.7-0.2
	c-0.2-0.1-0.7-0.2-0.8-0.5c0-0.2-0.3-0.1-0.5-0.2c-0.3-0.1-0.3-0.4-0.5-0.4c0.1-0.3,0.1-1,0.2-1.5c0.3-2.3,0.7-4.6,1.3-6.9
	c-0.1,0,0.2-0.5,0.1-0.5c-0.1,0-0.3,0.1-0.4,0c-0.3-0.1,0.1-0.2,0-0.3c-0.4,0,0-0.5-0.3-0.5c-0.3-0.1-0.2-0.2-0.3-0.3
	c0-0.2,0-0.3-0.1-0.4c-0.1-0.1,0.2-0.3,0-0.3c-0.1-0.2-0.4-0.1-0.5-0.4c-0.3-0.2,0-0.5,0.2-0.5c0.3-0.4,0.7-0.7,1.1-1
	c1.2-0.8,2.6-1.3,4.1-1.4C237.3,198.4,238,198.4,238.6,198.6z M232.3,202.9C232.4,203.2,232.6,203,232.3,202.9
	C232.3,202.9,232.3,202.9,232.3,202.9z M234.1,214.4c-0.1,0.1-0.2,0.3-0.2,0.1c-0.1,0-0.3,0.1-0.2-0.2
	C233.8,214.3,233.9,214.2,234.1,214.4z M236.1,201.6c-0.2,0.1-0.1,0.1,0,0.1c0,0,0,0,0,0c-0.1,0.1,0,0,0,0c0,0,0,0.1-0.1,0.1
	c-0.2,0.1,0.2,0.2-0.1,0.3c-0.1-0.2-0.1,0.4-0.1,0.5c-0.1,0.1,0,0.4,0,0.5c0.1,0.2-0.1,0.4-0.1,0.7c-0.1,0.1-0.2,0.8-0.1,0.6
	c-0.1,0.2-0.2,0.6-0.2,0.9c0,0.3-0.3,0.9-0.1,1.1c0,0.3,0,0.6-0.2,0.6c0,0.1-0.1,0.3-0.1,0.4c0.3-0.2-0.1,0.1,0.1,0.1c0,0,0,0,0,0.1
	c0,0,0,0,0,0c-0.1,0,0,0,0,0c0,0.1-0.1,0.1-0.1,0.4c0,0.2,0.1,0.5-0.2,0.7c-0.1,0.2-0.1,0.5-0.1,0.6c-0.1,0.2,0.1,0.5-0.1,0.3
	c0,0.2-0.2,0.9-0.1,0.9c0,0.1,0.2,0,0.4-0.3c1.6-2,3.2-4.1,4.2-6.5c0.2-0.4,0.6-1.4,0.3-1.6c0.1,0,0.2-0.2,0-0.1
	c-0.4,0.1,0.2-0.1-0.2-0.2c-0.3-0.1-0.4-0.2-0.6-0.1c-0.3-0.1-0.3,0.1-0.5-0.1c-0.2,0.1-0.6,0.1-0.8,0c-0.3,0.1-0.4,0.1-0.6,0.1
	c-0.2,0.1-0.3,0.1-0.5,0.2C235.7,202,236.4,201.6,236.1,201.6C236.1,201.6,236.1,201.6,236.1,201.6z M234.6,210
	C234.7,210.1,234.6,210,234.6,210C234.6,210,234.6,210,234.6,210z M235,213.8C235.2,213.8,234.8,213.9,235,213.8
	C235,213.8,235,213.8,235,213.8C235,213.8,235,213.8,235,213.8C235.1,213.8,235.1,213.8,235,213.8z M235,207.6
	C235,207.6,235,207.6,235,207.6C235.1,207.6,235,207.6,235,207.6z M235.4,213.7c-0.1,0.3,0.3-0.1,0.3-0.2
	C235.6,213.5,235.6,213.6,235.4,213.7z M236.1,201.7C236.1,201.7,236.1,201.7,236.1,201.7C236.1,201.7,236.1,201.7,236.1,201.7z
	 M236.2,201.5C236.3,201.6,236.5,201.5,236.2,201.5C236.3,201.5,236.3,201.5,236.2,201.5z M236.5,201.2
	C236.2,201.3,236.2,201.5,236.5,201.2C236.5,201.4,236.8,201.4,236.5,201.2C236.6,201.2,236.5,201.3,236.5,201.2z M237.1,201.4
	c-0.1,0.1-0.5-0.1-0.6,0.1c0,0.2,0.4,0,0.6,0c0.2-0.1,0.2,0,0.5,0c0.3-0.2-0.2-0.1-0.1-0.2C237.4,201.3,237.2,201.3,237.1,201.4z
	 M237.1,201.1C237.1,201.1,237.1,201.1,237.1,201.1c-0.1,0-0.1,0-0.1,0c-0.2,0.1-0.4,0-0.2,0.2c0.2-0.3,0.3-0.1,0.4-0.1
	c0.2,0,0.1-0.1,0.2-0.1c0,0,0,0,0,0c0,0,0,0,0,0C237.4,201.2,237.3,201.1,237.1,201.1C237.2,201.1,237.2,201.2,237.1,201.1z
	 M237.8,201.3C237.8,201.6,237.9,201.3,237.8,201.3c0.1,0,0.1-0.2-0.3-0.2C237.5,201.1,237.7,201.3,237.8,201.3z M237.6,211.9
	C237.6,211.9,237.6,211.9,237.6,211.9C237.6,211.9,237.6,211.9,237.6,211.9z M237.6,201.6C237.5,201.7,238,201.6,237.6,201.6
	C237.7,201.6,237.7,201.6,237.6,201.6z M238.2,201.5c0.2,0.1,0.6,0.1,0.9,0.3c0.2-0.1,0.1-0.1,0.2,0.1c0.1-0.1,0.4,0.1,0.2,0
	c-0.1-0.2-0.1-0.2-0.3-0.4c-0.3-0.2-0.2,0-0.5-0.1c0,0.2-0.3,0.2-0.6,0C237.9,201.4,238.1,201.6,238.2,201.5z M238.9,201.8
	C239.4,201.9,238.7,202,238.9,201.8C238.9,201.8,238.9,201.8,238.9,201.8z M239.4,209C239.4,209,239.4,209,239.4,209
	C239.5,209,239.5,209,239.4,209z M239.5,208.8C239.5,208.8,239.5,208.8,239.5,208.8C239.6,208.7,239.7,208.7,239.5,208.8z
	 M240.8,201.2C240.8,201.2,240.8,201.2,240.8,201.2C240.8,201.1,240.8,201.2,240.8,201.2z"/>
<path d="M244.8,197.8c0.3,0,0.3,0.1,0.4,0.1c0,0.1,0.2,0.3,0.4,0.3c1.4-0.5,2.8-0.8,4.2-1c0.5,0,1.2-0.2,1.4-0.1
	c0.3-0.3,0.3,0.1,0.5,0.1c0.1-0.2,0.3,0.1,0.3,0.1c0,0.1,0.2,0.1-0.1,0.2c0.1,0,0.1,0.2-0.1,0.4c0,0-0.2,0.3-0.2,0.3
	c0.1,0.2-0.1,0.2-0.1,0.3c0,0.2,0.3,0.2,0.2,0.4c-0.1,0.2-0.1,0.2-0.2,0.4c-0.4-0.1-0.3,0.3-0.2,0.3c-0.1,0.2-0.3-0.1-0.3,0
	c-0.2,0.1-0.3,0.2-0.5,0.1c-0.2,0.1-0.4,0-0.5,0.2c-0.2,0.2-0.3,0,0-0.2c-0.2,0.1-0.2,0.1-0.4,0.1c-0.2,0.1,0,0-0.2,0.2
	c0-0.2-0.3,0.1-0.4,0c-0.2,0-0.3,0.1-0.5,0.1c0,0.1-0.3-0.1-0.6,0.1c0,0,0,0,0.1,0c0,0,0,0,0,0c0.3-0.1,0.5,0.1,0.2,0.3
	c0-0.2-0.4,0.3-0.5,0.1c0,0-0.6,0.3-0.4,0.1c-0.2-0.1-0.1,0.2-0.3,0.1c-0.2,0.2-0.3-0.1-0.4-0.1c0.2,0.2-0.4,0.4-0.3,0.2
	c-0.2-0.1-0.1-0.2-0.1-0.2c-0.3-0.2,0,0.3-0.2,0.2c-0.2,0,0,0.2-0.2,0.3c-0.2-0.1-0.2,0.2-0.2,0.3c-0.1,0.3-0.1-0.2-0.1,0.2
	c0,0.2,0,0-0.1,0.3c0.1,0.1-0.1,0.1,0.1,0.3c0,0.3-0.3,0.3-0.2,0.4c-0.1,0.1,0,0.2,0,0.3c-0.1,0.3-0.3,0.4-0.2,0.5
	c0,0-0.1,0.1-0.1,0.1c0,0,0,0,0,0c0,0,0,0,0,0c0,0.1-0.1,0.2-0.1,0.1c0,0,0.2,0.2-0.1,0.2c0,0,0,0.3,0,0.5c0,0,0,0,0,0c0,0,0,0,0,0
	c0,0,0,0,0,0.1c1.3-0.4,2.6-0.8,3.9-1.1c0.5-0.1,1.1-0.2,1.6-0.1c0,0.1,0.1-0.1,0.2,0.2c0.3,0.2-0.2,0.1,0.1,0.2
	c-0.3,0.2,0,0.1,0,0.4c-0.1-0.1-0.1,0-0.1,0.1c0.2-0.1,0,0.2,0,0.2c-0.1-0.1-0.1-0.3-0.2,0c0.1,0.1,0.4,0.4,0.1,0.3
	c0,0-0.2,0.1-0.2,0.2c0,0,0,0,0,0c0,0,0,0,0.1,0c0.2,0.1,0.2,0.1,0.1,0.2c-0.3,0.2,0,0-0.1,0.2c0.2-0.1,0,0.2-0.1,0.2
	c-0.3,0-0.2,0.3-0.1,0.1c0.2,0-0.1,0.3-0.1,0.1c0,0.2-0.7,0.2-0.5,0.3c-0.2-0.1-0.3,0.2-0.3,0.2c-0.2,0.2-0.2-0.1-0.3,0.2
	c-0.3,0-0.5-0.1-0.8,0c-0.1,0.1-0.4,0.1-0.5,0.2c-0.1,0-0.2,0-0.2,0c-0.2-0.1-0.1,0.2-0.2,0.1c0.2-0.1-0.6,0-0.2,0.1
	c-0.3,0.2-0.3-0.2-0.5,0c-0.3,0.2-0.2,0.1-0.2,0.1c-0.1,0-0.2,0-0.3,0.1c0.1,0.1-0.1,0.1,0,0c-0.1,0.1-0.2,0.1-0.3,0.1
	c-0.1,0.1-0.3,0.1-0.2,0.2c-0.2-0.2-0.1,0.2-0.3,0c-0.1,0.3-0.6,0.2-0.5,0.2c-0.2-0.1-0.2,0.6-0.2,1c-0.2,0,0.1,0.1,0,0.5
	c-0.1,0.2,0,0.4,0,0.6c-0.1,0,0.2,0.4-0.1,0.5c0,0.5,0.2-0.1,0.1,0.3c0,0,0,0.1,0,0.1c0,0,0,0,0,0c0.2,0,0.1,0.1,0,0.1
	c0,0.1,0.1,0.2,0.1,0.3c0.2,0.4-0.1,0,0,0.3c0.1,0.2,0,0.1,0.1,0.2c1.1-0.3,2-1.1,2.9-1.8c0.2,0,0.2,0,0.4,0.1
	c0.1-0.1,0.1,0,0.2,0.1c0.4-0.2-0.1,0.2,0.1,0.1c0.2,0.2,0.4-0.2,0.5,0c-0.1,0.2,0.1,0.2,0.2,0c0.2,0,0.1,0.3,0.2,0.1c0,0,0.1,0,0,0
	c0,0,0,0,0-0.1c0.1,0.2,0.6-0.2,0.5,0.1c0.4,0,0.2,0.3,0.3,0.3c0.1-0.1,0,0.2,0.2,0.2c-0.1,0.3-0.2-0.1-0.3,0.1c0,0.3-0.3,0.1-0.1,0
	c-0.1,0-0.3,0.4-0.1,0.2c0,0.1-0.1,0.3-0.4,0.4c-0.2,0.2-0.5,0.3-0.6,0.5c-0.1,0.1-0.5,0.3-0.3,0.3c0.1,0,0.4-0.3,0.5-0.3
	c0,0.3,0.1,0.1,0.3,0.1c0.1-0.1,0.4-0.3,0.4-0.4c0.2-0.1,0.2,0-0.1,0.2c-0.3,0.2-0.6,0.6-0.9,0.7c-0.1,0.3-0.4,0.1-0.4,0.3
	c-0.2,0-0.3,0.2-0.5,0.3c-0.1,0-0.2,0.1-0.4,0.2c-0.3,0.2-0.9,0.4-1.4,0.4c-0.4,0.1-0.8-0.2-1.1-0.2c-0.3,0-0.3-0.1-0.7-0.2
	c0.3,0-0.1-0.3-0.2-0.3c-0.3-0.2-0.1,0.2-0.3,0c-0.4-0.3,0,0.1-0.3,0c-0.1-0.1-0.1-0.1-0.3-0.1c0,0,0,0,0,0c0,0,0,0,0,0
	c-0.1,0-0.1,0-0.2,0c-1-0.5-1.3-1.6-1.4-2.7c-0.1-2.3,0.4-4.6,1-6.9c0.1-0.4,0.5-1.1,0.3-1.2c0-0.3-0.2-0.2-0.2-0.5
	c-0.2,0.1-0.2-0.2-0.1-0.4c0.2-0.1-0.3,0-0.4-0.2c0.5,0-0.2-0.1,0.2-0.3c0.2,0,0.1-0.1,0.2-0.2c-0.2-0.2,0-0.2,0-0.4
	c0.3,0,0.3-0.2,0.3-0.3c-0.1-0.2-0.1,0-0.2-0.1c0.2,0,0.1-0.1-0.1-0.1c0.1,0.2-0.3-0.3-0.2-0.3c0-0.2,0.5-0.1,0.2-0.2
	c0.9-0.3,2-0.2,2.1-0.9c0-0.2,0.3-0.3,0.2-0.3C244.5,198.1,244.5,197.9,244.8,197.8C244.7,197.8,244.7,197.8,244.8,197.8z
	 M242.7,212.9C242.7,212.9,242.7,212.9,242.7,212.9C242.7,212.9,242.7,212.9,242.7,212.9z M243.7,213.3c0,0,0.1,0,0.1,0
	C243.8,213.4,243.8,213.4,243.7,213.3z M244.8,203.7C244.7,203.8,244.9,203.7,244.8,203.7C244.9,203.7,244.8,203.7,244.8,203.7z
	 M245.1,213.4c0.3,0.1,0.5,0.1,0.6,0c0-0.1-0.5,0.2-0.2,0C245.7,213.2,245.3,213.4,245.1,213.4C245.2,213.3,245,213.4,245.1,213.4z
	 M245.2,213.5C245.1,213.5,245.3,213.4,245.2,213.5C245.2,213.5,245.2,213.5,245.2,213.5z M245.3,197.9
	C245.5,198.2,245.1,198,245.3,197.9C245.3,197.9,245.3,197.9,245.3,197.9z M245.7,213.3c-0.2,0.3,0,0.1,0.2,0.1
	c0.1,0.1,0.4,0,0.2-0.2C246.2,213.2,245.8,213.4,245.7,213.3z M246.2,200.8C246.3,200.9,246.4,200.8,246.2,200.8
	C246.2,200.8,246.2,200.8,246.2,200.8z M247.3,212.7c-0.1,0.1-0.4,0.2-0.5,0.3c-0.3,0.3-0.1,0.1,0,0.2c0.2,0,0.4-0.2,0.6-0.2
	c0-0.1,0.5-0.5,0.2-0.2c0.2,0.2,0.2-0.3,0.2-0.3C247.7,212.6,247.5,212.5,247.3,212.7z M247.1,213.2
	C247.1,213.2,247.1,213.2,247.1,213.2C246.9,213.2,247,213.2,247.1,213.2c-0.1,0.1,0,0.1,0.1-0.1
	C247.1,213.2,247.1,213.2,247.1,213.2z M248.7,210.2C248.7,210.2,248.7,210.2,248.7,210.2C248.7,210.2,248.7,210.2,248.7,210.2z
	 M249.1,200.2C249.1,200.4,248.9,200.3,249.1,200.2C249,200.2,249.1,200.2,249.1,200.2z M249.2,211.5c-0.3,0.3-0.2,0.1,0-0.1
	C249.4,211.5,249.2,211.4,249.2,211.5z M249.4,211.6C249.4,211.5,249.4,211.5,249.4,211.6C249.5,211.5,249.5,211.6,249.4,211.6z
	 M250.4,204.7C250.4,204.7,250.4,204.7,250.4,204.7C250.4,204.7,250.4,204.7,250.4,204.7z M250.4,205.1
	C250.4,205.1,250.4,205.1,250.4,205.1C250.5,205,250.5,205.2,250.4,205.1z M250.7,199.6C250.7,199.7,250.9,199.6,250.7,199.6
	C250.8,199.6,250.8,199.6,250.7,199.6z M251.3,198.2c0.2,0.2-0.1,0.4,0.2,0.2C251.4,198.2,251.7,198.2,251.3,198.2
	C251.3,198.2,251.3,198.2,251.3,198.2z"/>
<path d="M259.4,195.7c0.1,0,0.3,0.1,0.3,0c-0.1-0.1,0.3-0.1,0,0.2c0.2-0.1,0.2,0.3,0.2,0.2c0.1,0.1,0.3,0.2,0.2,0.3
	c0.2,0.1,0.1-0.1,0.3-0.1c0.2-0.1,0,0.3,0.2,0.3c0.2-0.2,0,0.2,0.2,0.1c0.1,0.1,0.3,0.2,0.3,0.5c0,0.1,0.2-0.1,0.1,0.3
	c0,0.1,0.1,0.2-0.1,0.4c0,0.2,0,0.4,0.1,0.6c-0.1,0.7,0-0.5-0.1,0.1c0,0.2-0.1,0.3-0.1,0.6c0,0,0,0,0,0.1c0,0,0,0,0,0
	c0,0,0,0.1,0,0.2c-0.2,0.1-0.1,0.5-0.2,0.6c-0.1,0.3-0.1,0.2-0.1,0.5c-0.1,0.2,0,0.6-0.1,0.7c0,0,0,0,0,0c0,0,0,0,0-0.1
	c0,0.1,0,0.1,0,0.1c0,0.2-0.1,0.3-0.1,0.5c-0.1,0.1-0.1,0.5-0.1,0.5c-0.1,0.2,0,0.1-0.1,0.3c0,0.3-0.2,0.8-0.1,1
	c-0.2,0.6-0.2,1.2-0.3,1.9c-0.1,0.5-0.1,0.9-0.2,1.3c0,0.4-0.1,0.6-0.1,1c0,0.3,0,0.7-0.1,1.1c0,0.2,0,0.3-0.1,0.6
	c-0.1,0.4,0,0.9-0.1,1.2c0,0.2,0.1,0.4-0.1,0.7c0.1,0,0.1,0.3,0,0.3c-0.2,0.3,0-0.2-0.2-0.2c0.1-0.2-0.1,0-0.1-0.2
	c-0.1,0.1-0.1,0.3-0.1,0c-0.1,0.4-0.2,0.1-0.2,0.1c0-0.2-0.1,0.3-0.2,0.1c-0.2-0.2-0.2,0.2-0.3,0.2c-0.1-0.2-0.2-0.2-0.4-0.1
	c-0.3,0.3-0.4-1-0.6-0.6c-0.1-0.2-0.2,0.2-0.3,0.1c-0.1,0.2-0.2,0.5-0.4,0.6c0-0.1-0.1-0.1-0.2,0.1c-0.3,0.1-0.1,0-0.2-0.1
	c-0.1,0.2-0.3,0.4-0.7,0.4c-0.1-0.1-0.2-0.1-0.3-0.1c0,0.1-0.1,0.1,0,0c-0.1,0-0.2,0-0.3-0.1c-0.3-0.1-0.3,0-0.5-0.1
	c-0.1,0.1-0.2-0.1-0.2-0.1c-0.3,0-0.1-0.2-0.5-0.2c-0.3,0.1-0.3-0.1-0.6-0.1c-0.3,0.3-0.1-0.1-0.4,0c-0.1,0.1,0.2,0.2-0.3,0
	c-1-0.7-1.3-2-1.2-3.3c0.1-3.1,1-6.2,2.2-9.3c0.2-0.6,0.8-1.5,0.7-1.9c0.2-0.2,0.1-0.1,0.1-0.2c0.2-0.2,0.4-0.1,0.4,0
	c0.2-0.2,0-0.3,0.4-0.2c0.1,0,0.3,0.3,0.4,0.3c-0.1,0.3,0,0.3,0.1,0.6c0.1-0.4-0.1,0.3,0.1,0c0,0.3-0.1,0.3,0.1,0
	c-0.1-0.3,0.3-0.1,0.2,0c0.2,0.1-0.3,0.2-0.1,0.3c0.1-0.1,0.2,0,0.2,0c0.1,0.1,0.1,0.3,0.3,0.2c0,0,0,0,0,0c0,0,0,0,0,0
	c0,0.2,0.1,0.5-0.1,0.8c-0.1,0.2-0.4,0.6-0.1,0.6c-0.1,0.2-0.1,0.2-0.2,0.6c-0.2,0.5-0.2-0.1-0.2,0.3c0.3,0.1-0.1,0.2,0,0.4
	c0.2,0.1-0.1,0.6-0.1,0.4c-0.2,0.2-0.1,0.1,0,0.3c0,0-0.2,0.1-0.2,0.1c-0.1,0.1,0,0.3,0,0.3c-0.1,0.3-0.1,0.2,0,0.4
	c-0.2-0.1-0.2,0.1-0.2,0.2c0,0,0,0,0,0c0,0,0,0,0,0c-0.1,0.2,0,0.3-0.1,0.4c0,0.1-0.2,0.4-0.2,0.6c0.1,0.1,0.1,0.3,0,0.3
	c-0.1-0.3-0.2,0.3-0.1,0.3c-0.2,0.2,0.1,0.3-0.1,0.3c0.2,0.2,0,0-0.1,0.3c0.1-0.3,0.2,0.4,0,0.5c0,0.1-0.1,0.4-0.1,0.6
	c-0.1,0.2-0.1,0.4-0.1,0.6c0,0.1-0.3,0.3,0,0.2c0,0,0,0.1-0.1,0.1c0,0,0,0,0,0c0,0,0,0.1,0,0.1c0,0.1,0,0.1-0.1,0.2c0,0,0,0,0,0
	c0.1,0,0,0,0,0c0,0.1-0.1,0.1,0.1,0.2c-0.1,0.1-0.2,0.4-0.1,0.5c-0.1,0.2,0,0.3,0,0.4c0.2,0.1-0.1,0.7,0.1,0.8
	c-0.2,0.2,0.1,0.2,0.1,0.5c0,0.2-0.1,0.5,0.1,0.2c0.5-0.4,0.9-0.9,1.3-1.4c0.4-0.6,1-1.1,1.1-1.7c0.3-2.3,0.8-4.6,1.3-6.9
	c0.3-1.3,0.6-2.6,1.1-3.9c0-0.4,0.1,0.2,0.1,0c0.1-0.1,0-0.1,0.2-0.3C259.4,195.7,259.4,195.7,259.4,195.7z M252.9,211.8
	C252.9,211.9,252.7,211.8,252.9,211.8C252.8,211.8,252.9,211.8,252.9,211.8z M253.9,211.9c0.1,0.1,0.2,0.1,0.3,0.2
	C254.7,212.3,254.3,211.8,253.9,211.9C254,211.9,254,211.9,253.9,211.9z M254,207.1C254,207.1,254,207.1,254,207.1
	C254.1,207.1,254,207.1,254,207.1z M254.2,205.5c0.2-0.2-0.1,0.1,0-0.1C254.2,205.4,254.2,205.5,254.2,205.5z M256.1,211.5
	c-0.1,0-0.4,0.2-0.5,0.3c-0.2,0-0.3,0.1-0.4,0c-0.1,0.1-0.2,0.1-0.2,0.1c0,0,0,0,0,0c0,0,0,0,0,0c0,0,0,0-0.1,0.1c0,0-0.1-0.1-0.1,0
	c0.2,0.2,0.5,0.2,0.8,0.1c-0.2,0.2,0.1-0.1,0.2-0.1c0,0.2,0.5,0,0.7-0.2c0.3-0.3-0.2,0-0.1-0.3C256.2,211.4,256.2,211.5,256.1,211.5
	z M254.9,211.9C254.9,211.9,254.9,211.9,254.9,211.9C254.9,211.9,254.9,211.9,254.9,211.9z M255.4,201.6
	C255.4,201.6,255.4,201.6,255.4,201.6C255.4,201.6,255.4,201.6,255.4,201.6z M255.4,211.7C255.3,211.7,255.6,211.6,255.4,211.7
	C255.4,211.7,255.4,211.7,255.4,211.7z M255.9,198.4c0.2,0.2,0.1-0.1,0.1-0.2C255.7,198.4,255.5,198.4,255.9,198.4z M256.1,198.2
	C256.1,198.2,256.1,198.2,256.1,198.2S256.1,198.2,256.1,198.2z M260.3,202.3C260.3,202.3,260.3,202.3,260.3,202.3
	C260.2,202.4,260.4,202.4,260.3,202.3z"/>
<path d="M271.5,193.3c0.3-0.1,0.2,0.3,0.6,0.1c0.1,0.3-0.1,0.1,0.1,0.2c-0.3,0.1-0.1,0.2-0.3,0.5c0.1,0.1-0.3,0.2-0.3,0.5
	c0,0,0,0,0,0c0,0,0,0,0,0c0,0,0,0,0,0.1c0,0.1,0.1,0.2-0.1,0.3c0.1,0.1,0.2,0.2,0,0.4c-0.1,0-0.1,0-0.2,0.1c-0.1,0.1,0.1,0.4,0,0.4
	c-0.2-0.1-0.2,0.2-0.4,0.2c0.1-0.2-0.4,0.2-0.3,0c-0.3,0.1,0.1,0.4-0.3,0.3c0.2,0,0,0,0.1-0.1c-0.1-0.2-0.2,0-0.2,0.1
	c-0.1,0.1-0.4,0.3-0.2,0c-0.2,0.1-0.5,0.3-0.7,0.2c-0.1,0-0.3,0.1-0.5,0.2c-0.1,0-0.4,0.1-0.4,0.1c-0.3-0.1-0.3,0.4-0.3,0.2
	c-0.3,0.3,0,0.1,0.1,0.2c0,0,0,0,0,0c0,0,0,0,0,0c-0.2,0.1,0.5-0.1,0.1,0.1c-0.2,0.1,0.1,0.1-0.1,0.3c0.1,0.1-0.2,0.5-0.1,0.5
	c0.3-0.1-0.1,0.4,0.1,0.3c0.3,0-0.4,0.2-0.2,0.3c0.2,0.1-0.1,0.4,0,0.6c0-0.1-0.2-0.2-0.3,0.4c-0.1,0.1,0.2,0.4-0.1,0.4
	c0,0.1,0.2,0.2,0,0.2c0,0.2-0.1,0.1-0.1,0.3c0.3-0.2,0,0.4-0.1,0.2c-0.1,0.2-0.1,0.5-0.2,0.7c-0.1,0.4,0.1,0.2-0.1,0.5
	c0,0.1-0.1,0.3-0.1,0.5c0,0.1-0.1,0.2-0.1,0.3c0,0.1-0.1,0.4-0.1,0.5c0,0.1-0.2,0.4-0.1,0.5c-0.2,0.1,0,0.3-0.1,0.3
	c-0.1,0.1-0.1,0.3-0.1,0.3c-0.1,0.3,0,0.7-0.1,1c-0.2,0.3,0,0.2-0.1,0.6c0,0.1-0.1-0.1,0,0.2c-0.1,0.2,0,0.3-0.1,0.4
	c-0.1,0.1,0,0.5-0.2,0.5c0.2,0.2,0,0.4,0,0.5c-0.1,0.1,0.1,0.3-0.1,0.4c0.1,0,0.1,0.1,0,0.4c0,0,0.1,0.2-0.1,0.3
	c0,0.2,0.1,0.3,0.1,0.5c0,0.1-0.1,0.3-0.1,0.4c0,0.2-0.3,0-0.2-0.1c0.2-0.2,0-0.2-0.1,0.1c0.1,0.5-0.5,0.2-0.1,0.5
	c-0.1,0.1-0.2-0.1-0.4-0.1c-0.1,0-0.1,0.3-0.2,0.2c0-0.1-0.2-0.3-0.3-0.1c0.2,0-0.1,0.3-0.1,0c-0.1,0-0.2,0.1-0.3,0
	c-0.2-0.1,0,0.5-0.2,0c0.1-0.1,0-0.2,0-0.2c0,0,0,0,0,0c0,0,0,0,0,0c-0.1,0-0.1,0-0.2,0c0.1,0.2-0.3-0.1-0.2,0.1
	c0,0.2-0.2,0-0.4,0.1c0.2,0.1,0,0-0.1,0.2c-0.1,0.1-0.2,0.2-0.2-0.1c-0.1-0.1-0.1-0.5,0-1c0.4-3.2,1-6.4,2-9.6
	c0.2-0.6,0.4-1.2,0.5-1.8c0.1-0.3,0-0.3-0.1-0.2c-0.2,0-0.5,0.2-0.7,0.2c-0.2,0.1-0.3,0.1-0.5,0.3c-0.2,0.1-0.4-0.1-0.3,0.1
	c0,0-0.1,0.1-0.1,0.1c0,0,0-0.1,0-0.2c-0.1,0,0,0.1,0,0.2c-0.2,0.1-0.3-0.1-0.5,0c-0.2,0.2-0.5,0.1-0.6,0.2c-0.1,0-0.3,0.1-0.4,0.1
	c-0.2,0.1-0.2,0.2-0.4,0.1c-0.2,0.2-0.4,0-0.1-0.1c0.2,0,0.6-0.2,0.2-0.3c-0.3,0.2,0-0.3-0.2-0.2c-0.6,0.1-0.2,0,0.2-0.1
	c0.4,0,0.2-0.1,0.3-0.3c-0.5,0.1,0.3-0.2-0.1-0.1c0.5-0.2-0.4,0,0.1-0.2c0-0.2-0.2-0.1,0-0.4c0.1-0.1-0.2-0.2,0.1-0.4
	c0.2-0.2,0.1-0.4,0.2-0.4c-0.3,0.1-0.1-0.5-0.3-0.4c-0.1-0.2,0-0.3,0.2-0.5c2.5-0.8,5-1.6,7.5-2.1
	C270.4,193.5,270.9,193.4,271.5,193.3z M263.7,198.5C263.7,198.5,263.7,198.5,263.7,198.5C263.8,198.5,263.7,198.5,263.7,198.5z
	 M264,210C264,210,264,210,264,210C264,210,264,210,264,210z M265.9,210.5c-0.1-0.1,0.1,0.3-0.2,0.2c0-0.1,0-0.3,0-0.4
	C265.9,210.4,266,210.3,265.9,210.5z M265.8,209c0.2-0.2-0.1-0.2,0-0.5C265.8,208.7,265.7,209,265.8,209z M265.9,207.9
	C265.9,208.3,266.1,207.8,265.9,207.9C265.9,207.9,265.9,207.9,265.9,207.9z M266,206.9c-0.1,0.6,0.1,0.3,0-0.1
	C266,206.9,266,207,266,206.9z M267.5,201.2c0.1,0.3-0.2,0,0-0.1C267.5,201.1,267.5,201.2,267.5,201.2z M269.4,196.7
	c-0.3,0.1,0,0,0-0.2C269.4,196.6,269.4,196.7,269.4,196.7z M269.8,196.4c0.1,0,0.5-0.1,0.2-0.1c0,0-0.1,0-0.1,0
	C269.9,196.2,269.9,196.3,269.8,196.4z M271.7,195.1C271.7,195.1,271.7,195.1,271.7,195.1C271.9,195.1,271.6,195.3,271.7,195.1z
	 M271.7,194.9C271.8,194.9,271.8,194.9,271.7,194.9C271.9,194.9,271.7,195.1,271.7,194.9z M272.4,193.8c0-0.1-0.3,0.2-0.1-0.1
	c0,0,0,0,0,0C272.4,193.6,272.5,193.9,272.4,193.8z"/>
<path d="M278.2,191.8c0.5,0.1,0.5,0,0.7,0.2c0.2,0.1,0.2,0.4,0.4,0.3c0,0.2,0.1,0.3,0.2,0.4c-0.1,0.4,0.3,0.3,0.1,0.5
	c0,0.2,0.3,0.4,0.2,0.6c0.1,0,0,0.3,0.1,0.3c-0.1,0.3,0.2,0.5,0.1,0.7c0,0.3-0.2,0.5-0.2,0.9c0,0.2-0.3,0.6-0.3,1c0,0,0,0,0,0
	c0,0.1,0,0,0,0c0,0,0,0.1,0,0.1c-0.2,0-0.2,0.3-0.2,0.5c-0.1,0-0.2,0.1-0.3,0.3c0.2-0.1-0.1,0.4-0.1,0.2c-0.1,0-0.3,0.4-0.1,0.4
	c-0.2,0.5-0.1-0.1-0.3,0.4c-0.2,0.4,0,0.3-0.3,0.7c-0.1,0.2-0.3,0.5-0.3,0.6c-0.1,0.1,0.1,0.1,0,0.2c-0.2,0.1-0.1,0.5-0.7,0
	c-0.6-0.4-1.4-1.1-1-1.9c0.4-0.9,0.9-1.7,1.3-2.6c0.2-0.2,0.1-0.7,0.2-0.5c0.2-0.2,0.1-0.4-0.2-0.2c0.1-0.1,0-0.2-0.1,0
	c-0.1,0,0.3,0.5-0.1,0.3c-0.3-0.1,0,0.2,0,0.2c-0.3,0.2-0.9,0.4-1,0.5c0-0.2-0.2,0.1-0.3,0.2c-0.4,0.3-0.9,0.7-1.2,1
	c-0.2,0.3-0.6,0.3-0.6,0.5c0.1,0.1-0.1,0.1-0.2,0.3c-0.1-0.2-0.5,0.5-0.6,0.6c-0.2,0.1-0.3,0.7-0.3,0.5c-0.2,0.3-0.1,0.1-0.1,0.3
	c-0.1,0.1-0.3,0.1-0.2,0.3c-0.1,0.2,0,0.2-0.1,0.3c-0.1,0.3-0.2,0.3-0.3,0.6c0.5,0.3,1,0.4,1.5,0.5c1.1,0.3,2.3,0.4,3.2,1.2
	c0.2,0.1,0.2,0.2,0.3,0.3c0,0.1,0.1,0.1,0.1,0.2c0,0,0,0,0,0c0,0,0,0.1,0,0.1c0,0.1,0.1,0.1,0.2,0.2c0.6,0.5,0.8,1.1,0.8,1.9
	c0,0.3-0.1,0.4-0.1,0.6c0,0.2-0.5,0.5-0.3,0.5c-0.2,0.4-0.6,0.7-0.9,1c-0.2,0.1-0.4,0.3-0.6,0.3c-0.1,0.1-0.3,0.3-0.5,0.3
	c-0.1,0.1-0.3,0.2-0.3,0.2c-0.2,0.1-0.3,0.2-0.3,0.2c-0.2,0.1-0.3,0.2-0.4,0.2c-0.2,0.1-0.5,0.2-0.6,0.2c-0.2,0.2-0.2,0-0.4,0.2
	c-0.1,0-0.2,0.1-0.3,0.1c-0.3,0-0.2,0-0.3,0.1c-0.1,0-0.1,0-0.2,0c0,0,0,0,0,0c0,0,0,0,0,0c-0.1,0-0.2,0-0.3,0.1
	c-0.1-0.1,0,0.2-0.1,0.1c-0.2,0.1-0.7,0.3-0.5,0c-0.2-0.2,0.3,0.1,0.1,0c0.1-0.1,0.2,0,0.2,0c0,0,0,0-0.1-0.1
	c0.3-0.2,0.5-0.1,0.8-0.3c0.2-0.3,0.1-0.1,0.5-0.2c0-0.1,0.1-0.3,0.3-0.1c0.1-0.1,0.1,0,0.3-0.1c0.2,0,0.2-0.2,0.2-0.3
	c0.2-0.1,0.3,0.1,0.4,0c0.2-0.1-0.1-0.1,0-0.2c0.3-0.2,0.4,0.1,0.5-0.1c0-0.1-0.4,0.1-0.2-0.1c0.5-0.3,0.1-0.1-0.2,0
	c-0.3,0.1-0.5,0.3-0.8,0.4c-0.1,0.2-0.3,0-0.4,0.2c-0.2,0.1-0.6,0.2-0.7,0.3c-0.2,0.1-0.1-0.1-0.4,0c-0.2,0.1-0.2,0.4-0.3,0.1
	c-0.3,0.1,0,0.2-0.3,0.1c-0.2,0.1,0.1-0.1-0.1-0.1c-0.2,0-0.8,0.2-0.8,0c0,0,0,0,0-0.1c0,0.1-0.2,0,0,0c-0.1,0-0.4,0.1-0.5-0.2
	c-0.1-0.2,0.1-0.3-0.3-0.3c-0.1,0.1-0.2,0.1-0.3,0c-0.2,0.1-0.2-0.3-0.4-0.2c-0.3-0.1,0.7-0.4,0.3-0.3c-0.2-0.1,0.1,0,0.1-0.2
	c1.4-0.6,2.9-1.1,4.3-2.1c0.3-0.3,1.4-0.9,0.8-1c-0.3,0-0.6-0.2-0.8-0.1c-0.3-0.1-0.7-0.2-1-0.2c-0.3-0.1-0.4-0.1-0.7-0.2
	c-0.4-0.2-0.8-0.3-1.1-0.7c-0.2-0.3-0.2-0.5-0.4-0.8c-0.1-0.1-0.1-0.1-0.1-0.3c-0.1-0.2-0.1-0.6-0.2-0.7c-0.1,0.3-0.1,0,0-0.1
	c-0.2,0.1-0.3,0-0.2-0.2c0,0.2,0-0.3-0.1-0.1c-0.1,0-0.2-0.6-0.2-0.9c0-1,0.5-2.1,1.1-3c1.4-1.9,3.2-3.6,5.3-4.6
	c0.3-0.1,0.7-0.4,1.1-0.4C277.9,191.7,278.1,191.7,278.2,191.8z M270.8,201.7c-0.1,0.1,0.4,0.3,0.2,0.3
	C270.9,202,270.8,202,270.8,201.7C270.8,201.7,270.9,201.9,270.8,201.7z M270.9,201.6C271.1,202,270.8,201.9,270.9,201.6
	C270.9,201.6,270.9,201.6,270.9,201.6z M271.1,201.7C271.2,202.3,271.3,201.9,271.1,201.7C271.1,201.7,271.1,201.7,271.1,201.7z
	 M271.7,202.3C271.7,202.6,272,202.6,271.7,202.3C271.7,202.3,271.7,202.3,271.7,202.3z M271.9,202.7
	C271.9,202.7,271.9,202.7,271.9,202.7c-0.2,0.1,0.2,0,0,0.1C272.1,202.9,272.1,202.7,271.9,202.7C272,202.7,272,202.7,271.9,202.7
	C271.9,202.7,271.9,202.7,271.9,202.7z M272,202.7C272,202.7,272,202.7,272,202.7C272,202.7,272,202.7,272,202.7z M272.1,208.5
	c0,0.2-0.2,0.2-0.1,0C272,208.6,272,208.6,272.1,208.5z M272.2,203C272,203.1,272.3,203.2,272.2,203C272.2,203,272.2,203,272.2,203z
	 M272.4,203.1c0.2,0.1,0.2,0.1,0.1,0.1c0.2,0.1,0.3,0.2,0.3,0C272.7,203.1,272.6,203.1,272.4,203.1
	C272.4,203.1,272.4,203.1,272.4,203.1z M273.1,203.4C272.8,203.3,273.1,203.5,273.1,203.4c0.1,0.1,0.3,0.3,0.4,0.2c0,0,0,0,0-0.1
	c0,0,0,0,0.1,0c0,0,0,0,0,0c0.2,0,0.2,0.2,0.4,0.1c0.1-0.2-0.2-0.1-0.3-0.3c0,0.1-0.3,0.1-0.4-0.1
	C273.3,203.4,273,203.3,273.1,203.4z M273,208.8C273,208.8,273,208.8,273,208.8C273,208.8,273,208.8,273,208.8z M273.1,208.7
	C273,208.7,273,208.7,273.1,208.7C273,208.8,273.1,208.8,273.1,208.7C273.1,208.8,273.2,208.8,273.1,208.7
	C273.1,208.7,273.1,208.7,273.1,208.7z M273.1,203.4C273.2,203.5,272.9,203.4,273.1,203.4C273.1,203.4,273.1,203.4,273.1,203.4z
	 M273.1,208.8C273.1,208.8,273,208.8,273.1,208.8C273.1,208.8,273.1,208.8,273.1,208.8z M273.6,203.6
	C273.6,203.5,273.6,203.5,273.6,203.6C273.6,203.5,273.6,203.5,273.6,203.6z M273.8,203.5C273.8,203.5,273.8,203.5,273.8,203.5
	C274,203.5,273.7,203.7,273.8,203.5z M274.4,203.6c0,0.2,0.3,0.2,0.4,0.2c0.1-0.1,0.2,0.1,0.4,0.1c0.1,0.1,0.1-0.1,0,0
	c-0.3-0.1-0.2-0.1,0.2,0c0.2,0.1,0.4,0,0.3-0.1c0-0.1-0.3-0.1-0.3-0.1c-0.2,0-0.4-0.1-0.5-0.1c-0.2-0.2-0.4,0.1-0.3-0.1
	C274.5,203.6,274.4,203.6,274.4,203.6z M274.7,204c0.2-0.1,0,0-0.1-0.1C274.5,203.9,274.7,204.1,274.7,204z M279.2,197.3
	C279.2,197.3,279.2,197.3,279.2,197.3C279.2,197.2,279.2,197.3,279.2,197.3z M279.4,196.7L279.4,196.7
	C279.4,196.7,279.4,196.7,279.4,196.7z"/>
<path d="M286.1,190c0.2,0,0.3,0.2,0.5,0.3c0.1,0.2,0.5,0.4,0.4,0.6c0.2,0.1,0.5,0.4,0.5,0.7c0.2,0,0,0.2,0.2,0.4
	c0.2,0.3,0.1,0.9,0.2,1.2c0,0.1,0.2,0.4,0.1,0.5c0,0.1-0.4,0.6-0.1,0.4c0.1,0.4-0.1-0.1-0.2,0.3c-0.1,0.3,0.2-0.1,0.1,0.1
	c0,0.2-0.1,0.7-0.2,0.8c-0.2,0.1-0.2,0.1-0.2,0.2c-0.1,0.1-0.1,0.3-0.2,0.5c0,0.1-0.1,0.2-0.2,0.3c0-0.3-0.1-0.1-0.2,0.1
	c0-0.2-0.1-0.1,0-0.2c0.1-0.2-0.3,0.2-0.1-0.1c-0.1,0-0.2,0-0.3,0c-0.1,0.1-0.3,0.2-0.2-0.1c-0.2,0.1-0.3,0.2-0.3,0
	c0,0-0.2-0.2-0.2-0.2c-0.1-0.2,0.2-0.1,0-0.3c0.1-0.2,0.2-0.3-0.1-0.3c-0.4-0.3,0.2,0,0.1-0.1c-0.1-0.1-0.3-0.1-0.3,0
	c0-0.1-0.5-0.1-0.2-0.3c-0.3,0.2-0.1,0.3-0.4,0.3c-0.2,0.3-0.3,0.5-0.4,0.7c-0.2,0.2-0.1,0.2-0.2,0.4c-0.1,0.2-0.2,0.4-0.3,0.5
	c-0.2,0.3-0.2,0.6-0.4,0.8c0,0.2-0.2,0.6-0.3,0.6c-0.1,0.2-0.1,0.3-0.2,0.4c0,0,0,0,0,0c0,0,0,0,0,0.1c-0.1,0.1-0.1,0.1-0.1,0.2
	c0,0.1,0,0.1,0,0.1c0,0.1,0,0.3-0.1,0.2c0,0.1-0.1,0.3-0.1,0.5c-0.2,0-0.1,0.2-0.2,0.3c0,0.2,0.1,0.7-0.2,1c0,0.1,0,0.2-0.1,0.2
	c0.2,0.2-0.1,0-0.1,0.2c0.1,0.1,0,0.2-0.1,0.3c0.1,0.2,0,0.3,0,0.4c0,0.1,0,0.1,0,0.2c0,0,0,0,0,0c0,0,0,0,0,0c0,0.1,0,0.2-0.1,0.2
	c0,0.2,0.1,0.2,0.1,0.5c0,0,0,0,0,0c0,0,0,0,0,0c-0.1,0.1,0,0.1,0,0.1c0,0.1,0.1,0.1,0,0.4c0,0.1,0.1,0.4,0.2,0.5
	c-0.1,0.3,0.1,0.6,0.5,0.2c1.2-0.9,2.2-2.1,3.1-3.3c0.1-0.1,0.4-0.4,0.2-0.1c0.2-0.4,0.3-0.1,0.5-0.4c0.2-0.1,0.2,0.1,0.1,0.1
	c0.1,0.2,0.1,0.2,0.4,0.3c0.2-0.3,0.2-0.1,0.3,0.1c-0.2,0.4,0.2-0.2,0.3-0.1c-0.1,0.4,0,0.2,0.1,0.5c0,0,0-0.1,0.1-0.1
	c0,0-0.1,0,0-0.1c0,0,0,0,0,0c0,0,0-0.1,0-0.1c0,0,0,0,0.1,0c0,0.2,0,0.2,0.1,0.3c0,0,0.3-0.5,0.2-0.1c0.3-0.2,0.1,0.4-0.1,0.5
	c-0.1-0.1,0-0.3-0.2-0.2c0.1,0-0.2,0.3,0.1,0.2c0.4,0.1-0.3,0.1,0,0.2c-0.1,0-0.2,0.1-0.3,0.3c0,0,0,0,0,0c0,0.1-0.1,0.1-0.1,0.2
	c0.3,0-0.2,0-0.2,0.2c-0.2,0.2,0,0.4,0,0.5c-0.1-0.1-0.2,0.1-0.2,0.2c-0.1-0.1,0,0.1-0.2,0.1c-0.2-0.1,0.1-0.1,0.2-0.3
	c0-0.1-0.1-0.3-0.2-0.1c-0.1,0.1-0.4,0.4-0.3,0.7c-0.2-0.1-0.2,0.1-0.2,0.1c0,0.1-0.1,0-0.2,0.1c0,0.1,0,0.3-0.1,0.3
	c-0.1-0.1-0.2,0.1,0,0.1c-0.2,0.2-0.3-0.1-0.2,0.2c0.2,0,0.1,0.1,0,0.2c-0.2,0.1-0.1-0.1-0.3-0.1c0,0.2,0.1,0.1-0.2,0.1
	c0,0.1,0,0.1,0,0.1c0,0,0,0,0,0c0.1,0,0,0.1-0.1,0.1c-0.1,0.1-0.3,0.2-0.2,0.2c0,0.2-0.5,0.3-0.5,0.4c-0.2,0.2-0.4,0.2-0.6,0.2
	c-0.1-0.3,0,0.1-0.2,0c0-0.1-0.4-0.1-0.5,0c-0.3,0.1-0.6,0-0.8,0c0.4,0.2-0.2,0-0.1,0.2c0.1,0.2,0.3,0,0.4,0.1
	c0.1,0.1,0.6,0.2,0.2,0.2c-0.2,0.2-0.2-0.1-0.6-0.1c-0.2-0.1-0.3-0.1-0.5-0.1c0.3-0.1,0-0.2,0-0.1c-0.4-0.2,0.2,0.1-0.1-0.2
	c-0.3-0.3-0.1,0.2-0.3-0.1c0-0.1-0.4-0.3-0.6-0.3c-0.3,0.1-0.7-0.4-0.7-0.2c-0.4-0.3-0.7-0.6-0.9-1.1c-0.1-0.2-0.2-0.4-0.2-0.7
	c0-0.2,0-0.3-0.1-0.4c0-0.9,0-1.9,0.2-2.8c0.6-3,2-6,4-8.6c0.3-0.4,0.6-0.8,1-1.1c0.2-0.2,0.3-0.2,0.6-0.4c0.1-0.2,0.9-0.2,0.7-0.2
	c0,0,0,0,0,0C285.8,189.9,286,190,286.1,190z M281.8,203C281.8,203,281.8,203,281.8,203C281.9,202.9,281.9,203,281.8,203z
	 M282.5,199.6C282.6,199.7,282.2,199.7,282.5,199.6C282.4,199.7,282.5,199.7,282.5,199.6z M282.6,198.9
	C282.6,198.8,282.7,198.8,282.6,198.9C282.7,198.8,282.7,198.8,282.6,198.9z M284,206.2c0.1,0.2,0,0.1-0.2,0.2
	c-0.3,0.1-0.3-0.1-0.1-0.2C283.8,206.3,283.9,206.2,284,206.2z M284,206.5c-0.5,0,0.1-0.1,0.2-0.1C284.4,206.4,284,206.4,284,206.5z
	 M283.8,195.8C283.7,195.9,283.9,195.8,283.8,195.8C283.9,195.8,283.8,195.8,283.8,195.8z M287,203.8c0,0.2-0.3,0.2-0.3,0.4
	c-0.2,0.3-0.3,0.2-0.3,0.4c-0.1,0.1-0.3,0.4-0.5,0.6c0,0,0,0,0,0c0,0.1-0.1,0.2-0.1,0.1c0,0.1-0.1,0.1-0.1,0.1
	c-0.2,0.1-0.1,0.2-0.3,0.2c-0.1,0.5-0.1-0.1-0.2,0.2c-0.1,0.1-0.2,0.2-0.3,0.2c0,0,0,0,0,0c0,0.1,0,0,0,0c-0.1,0-0.1,0.1-0.2,0.1
	c-0.2-0.1-0.1-0.2,0.1-0.3c0.2-0.3,0.4-0.2,0.6-0.4c0.1-0.1,0.4-0.4,0.4-0.4c0.2-0.2,0.5-0.4,0.7-0.7c0.1-0.1,0.3-0.4,0.5-0.6
	C287,203.7,287,203.7,287,203.8z M284.8,205.4C284.8,205.4,284.8,205.4,284.8,205.4C284.8,205.4,284.8,205.4,284.8,205.4
	C284.7,205.4,284.7,205.4,284.8,205.4C284.7,205.4,284.7,205.4,284.8,205.4z M284.7,205.4C284.8,205.4,284.8,205.4,284.7,205.4
	C284.7,205.4,284.7,205.4,284.7,205.4z M284.9,205.7c-0.4,0.1,0-0.2,0-0.2C285.1,205.5,285.1,205.6,284.9,205.7z M284.9,206
	C284.9,206,284.9,206,284.9,206C284.9,206,284.9,206,284.9,206z M285.2,195C285.2,195.2,285.1,195.1,285.2,195
	C285.1,195,285.2,195,285.2,195z M286.3,200.5c0,0.3,0,0.3,0,0.2c0,0,0.2,0,0,0c0,0,0,0,0,0C286.4,200.6,286.4,200.5,286.3,200.5
	C286.3,200.5,286.3,200.5,286.3,200.5z M286.4,200.7C286.4,200.7,286.4,200.7,286.4,200.7C286.3,200.7,286.3,200.7,286.4,200.7z
	 M287.2,195.8C287.2,195.8,287.2,195.8,287.2,195.8C287.2,195.8,287.2,196,287.2,195.8z M287.4,203.3
	C287.2,203.5,287.2,203.4,287.4,203.3C287.4,203.3,287.4,203.3,287.4,203.3z M287.5,203c-0.2,0,0.3-0.3,0.2-0.4
	C287.9,202.8,287.5,202.9,287.5,203z M287.5,202.3C287.5,202.3,287.5,202.3,287.5,202.3C287.6,202.3,287.5,202.3,287.5,202.3z
	 M288.2,201.6C288.3,201.8,287.9,201.6,288.2,201.6C288.2,201.5,288.2,201.5,288.2,201.6C288.3,201.5,288.2,201.6,288.2,201.6z"/>
<path d="M292.2,188.6c0.1-0.1,0.3,0,0.2,0.2c0.1,0.2,0.3,0.3,0.6,0.3c0,0,0.1,0.3,0.1,0.2c0.3,0,0,0.2,0.2,0.3
	c0.1,0.2,0.2,0,0.2,0.1c-0.1,0.1,0.1,0.4,0.1,0.7c0,0.4-0.3,0.2-0.2,0.4c0.2,0.1,0.1,0.2,0.1,0.3c-0.1,0.2-0.4,0.4-0.2,0.4
	c-0.1,0.2-0.1,0.3-0.1,0.1c-0.1,0.1-0.1,0.2-0.1,0.3c0,0,0,0,0,0c-0.1,0,0,0,0,0c0,0.2-0.1,0.4-0.2,0.7c-0.1,0.4,0,0.3-0.2,0.8
	c0,0.1-0.1,0.7-0.1,0.7c0,0.1-0.1,0.2-0.1,0.4c0.2,0.1-0.2,0-0.1,0.3c0.1,0.3,0,0.1-0.1,0.5c1.1-0.4,2.2-0.7,3.3-1
	c0.4-1.8,0.9-3.6,1.4-5.4c0.1-0.4,0.2-0.9,0.3-1c0.2-0.3,0.6-0.6,0.6-0.2c0.3,0.3-0.2-0.4,0.2-0.1c0.1-0.2,0,0.3,0.2,0.3
	c0,0.2,0.3,0.2,0.2,0.4c0.2-0.2,0.1,0.1,0.3,0c-0.2,0.3,0.3-0.1,0.2,0.3c0.3-0.2,0,0.1,0.2,0.1c0.1,0.4,0.3-0.1,0.3,0.1
	c0,0.3,0.2,0.3,0,0.6c0,0,0.2,0.2,0,0.2c-0.2,0.4,0.4-0.3,0.1,0.3c-0.2-0.2,0,0.1-0.1,0.3c0.2,0.2-0.2,0.2,0,0.3
	c-0.1,0.1-0.2,0.3-0.3,0.6c0.1,0.1,0.2,0.2,0,0.3c-0.2,0.4,0,0.8-0.2,1.1c-0.2,0.8-0.3,1.5-0.5,2.2c0,0.4-0.2,0.8-0.2,1.2
	c-0.1,0.1,0,0.3-0.1,0.4c0,0.2,0,0.4-0.1,0.5c-0.1,0.6-0.2,1.2-0.2,1.9c0,0.1-0.1,0.6-0.1,0.7c0,0.1,0,0.1,0,0.2
	c0,0.2-0.1,0.3,0,0.3c-0.1,0.1,0,0.4-0.1,0.7c-0.1,0.3,0,0.7-0.1,1c0,0.3,0,0.4-0.1,0.7c0,0,0,0,0,0c0,0,0,0,0,0c0,0,0,0,0,0.1
	c0,0.2,0,0.3-0.1,0.5c0,0.4-0.2,0.3-0.2,0.1c0-0.5-0.2,0.3-0.2-0.1c0-0.3-0.2-0.1-0.3,0.1c0.1-0.2-0.1,0-0.1-0.1
	c0,0.1,0,0.2-0.1,0.2c0.1-0.3-0.3,0-0.5-0.1c-0.2,0.2-0.1-0.1-0.4,0.1c0,0-0.1-0.4-0.1-0.2c-0.2,0.2-0.1-0.2-0.3-0.2
	c-0.1,0,0,0.4-0.3,0.2c0,0.3-0.1,0.3-0.3,0.2c0-0.1-0.1-0.2-0.2-0.2c0,0-0.1,0,0,0c-0.1,0-0.1,0-0.1-0.1c0.1-1.7,0.3-3.4,0.5-5.2
	c-0.2,0-0.6,0.2-0.8,0.2c-0.1,0-0.5,0.2-0.8,0.3c-0.3,0.1-0.5,0.1-0.6,0.2c-0.2,0-0.6,0.3-0.7,0.2c-0.2-0.1-0.2,0.2-0.4,0.2
	c-0.1,0.2-0.1,0.5-0.1,0.8c-0.1,0.3-0.1,0.5-0.1,0.7c0,0.4-0.1,1.1-0.2,1.4c-0.1,0,0.2,0.2,0,0.2c0,0.1,0.1,0.2,0,0.3c0,0,0,0,0,0
	c0,0,0,0,0,0.1c-0.1,0.2,0.1,0.3,0,0.3c0,0,0.1,0.5-0.1,0.3c0,0.4,0,0.4,0,0.8c-0.1,0.1,0,0.7-0.2,0.6c-0.2-0.2-0.2,0.1-0.3-0.3
	c-0.1,0.1-0.2,0-0.3,0.2c-0.3-0.1,0,0.5-0.2,0.1c0.1-0.2-0.1-0.1-0.2-0.1c-0.1-0.2-0.5,0.2-0.3-0.1c0,0-0.1,0-0.1-0.1
	c0,0-0.2,0.1-0.1,0c0,0,0,0,0,0c-0.1-0.1-0.2-0.1-0.2-0.2c0,0,0,0,0,0c0,0,0,0,0,0c0,0.1,0,0.4-0.1,0.2c-0.1,0.1,0-0.1-0.2,0
	c-0.1-0.1-0.2,0.1-0.2,0.2c-0.2-0.1-0.2-0.1-0.4-0.2c0-0.3-0.1-0.1-0.1-0.4c0.1,0-0.1-0.3,0-0.8c0.3-4.3,1.2-8.6,2.5-12.9
	c0.2-0.4,0.3-1,0.4-1c0.2-0.5,0.2-0.2,0.4-0.3c0.3-0.2,0.2,0,0.4-0.2C292.4,188.4,292.1,188.6,292.2,188.6z M297.8,202.3
	L297.8,202.3C297.8,202.3,297.8,202.3,297.8,202.3z"/>
<path d="M303.7,186.1c0.2,0,0.2,0,0.3,0.1c0.1,0.1,0.4-0.1,0.4,0.2c0.1,0.1,0.3,0.4,0.3,0.2c0-0.2,0.2,0.2,0.2,0.2
	c-0.1,0.2,0.1,0.4,0.1,0.6s-0.2,0-0.2,0.2c0,0.3-0.1,0.2,0.1,0.3c-0.1,0.1,0,0.3-0.2,0.2c-0.1,0.3,0.1,0.3,0,0.5
	c0.1,0.3-0.1,0.4-0.2,0.5c0.2-0.1,0.1,0.1,0.1,0.3c-0.1,0.5-0.2,0.1-0.2,0.4c0.1-0.1,0.1,0.2-0.1,0.4c-0.1,0.2,0,0.4-0.1,0.5
	c0,0.2-0.2,0.1-0.2,0.5c-0.1,0.1-0.1,0.4-0.1,0.5c-0.2,0.3,0.2,0,0,0.3c0,0.1,0,0.3-0.1,0.6c0,0.1,0,0.1,0,0.1c0,0,0,0,0,0
	c0,0,0,0,0,0c-0.1,0.2-0.1,0.4-0.1,0.6c0,0.4-0.2,0.8-0.2,1.2c0.1,0.1-0.1,0.5-0.1,0.7c-0.1,0.5-0.2,1-0.2,1.5
	c-0.1,0.4-0.2,0.9-0.2,1.2c0,0.2-0.1,0.5-0.1,0.7c1-0.3,2.1-0.5,3.1-0.6c0.2,0.1,0.2,0.1,0.5,0.1c0.1,0.1,0.3,0.3,0.1,0.3
	c0.1,0.1,0.1,0.6-0.1,0.1c-0.1,0-0.1,0-0.1,0.1c0,0,0,0,0,0c0,0.1,0.1,0.1,0.1,0.1c-0.1,0.2-0.3-0.1-0.2,0.2
	c-0.2,0.2-0.1,0.2-0.2,0.3c-0.1,0.3,0.2,0,0.3,0.2c-0.1,0.1-0.7,0.2-0.3,0.4c-0.2,0.2,0.1,0.2-0.2,0.4c0.1,0,0.2,0.1,0,0.2
	c-0.2,0.1,0,0.2-0.1,0.4c-0.1,0.4-0.3-0.2-0.3,0.2c0.1,0.2-0.4,0-0.4,0c0,0.2,0.1,0.3,0,0.2c-0.2,0.1-0.2,0-0.4,0.1
	c-0.1-0.1-0.3,0-0.3,0c0-0.1-0.3,0.2-0.4,0c-0.1,0-0.4,0.2-0.3,0c0,0-0.3,0.1-0.5,0.2c0-0.1-0.2,0.1-0.2-0.1
	c-0.1,0.3-0.4,0.2-0.6,0.3c-0.1-0.1-0.2,0-0.3,0c0,0,0,0,0,0c0,0-0.1,0.1-0.1,0.1c-0.1,0-0.1,0-0.2,0c0,0,0,0,0,0c0,0-0.1,0-0.1,0
	c0,0-0.1,0,0,0c-0.1,0-0.1,0-0.2,0c0,0,0,0,0,0c0,0,0,0,0,0c0,0-0.1,0-0.1,0c0,0.1-0.3,0.1-0.6,0.2c0.2,0-0.1,0.2-0.2,0.1
	c0,0-0.2,0-0.3,0.1c0.1,0,0.1,0,0.2,0c0,0,0,0,0,0.1c0,0.1-0.1,0.1-0.2,0.1c0.1,0.1-0.2,0-0.1,0.1c-0.2,0.1-0.3-0.1-0.4,0.1
	c-0.1,0.1-0.1,0.1-0.2,0.2c0,0,0,0,0,0c0,0,0,0,0,0c-0.1,0-0.2,0-0.2,0.1c-0.3,0.1,0-0.1,0-0.2c0,0,0-0.1,0-0.1c0,0,0,0,0,0.1
	c0,0,0,0-0.1,0c0,0.2,0,0-0.1,0c0.5-0.2-0.2-0.1,0-0.2c0-0.1,0.2-0.2,0-0.4c0.1,0.3-0.2,0-0.1,0c0.1-0.1-0.3,0,0.1-0.2
	c-0.1-0.1-0.2-0.2-0.2-0.5c0,0.1-0.3,0.3-0.2,0c0.1,0,0.1-0.6,0.1-0.3c0.2,0,0-0.2,0.1-0.2c0.2-0.2,0-0.4,0-0.4
	c0.2-0.1,0.3,0.2,0.2-0.1c-0.1,0-0.2-0.2-0.3-0.2c-0.2-0.1-0.2-0.2,0.1-0.4c0.3-0.5,0.9-0.1,0.9-0.9c0.5-3.7,1.3-7.3,2.2-11
	c0.1-0.5,0.3-1,0.3-1.4c-0.2-0.1-0.1-0.3-0.1-0.3c0.2-0.1,0.4-0.2,0.7-0.3C303.3,185.9,303.5,185.9,303.7,186.1z M299.1,202.8
	C299.2,203.1,298.7,203,299.1,202.8C299,202.8,299.1,202.8,299.1,202.8z M299.3,202.8C299.3,202.8,299.3,202.8,299.3,202.8
	C299.3,202.8,299.3,202.8,299.3,202.8z M299.5,202.8C299.5,202.8,299.5,202.8,299.5,202.8C299.5,202.8,299.5,202.8,299.5,202.8z
	 M299.5,202.5C299.5,202.6,299.7,202.4,299.5,202.5C299.5,202.4,299.5,202.5,299.5,202.5z M300,202.3
	C299.3,202.6,300.2,202.4,300,202.3C300,202.3,300,202.4,300,202.3z M300.6,202.3C300.5,202.3,300.5,202.3,300.6,202.3
	C300.5,202.3,300.5,202.3,300.6,202.3z M300.7,202.3c-0.2,0.2-0.1,0.1-0.1,0C300.6,202.3,300.7,202.3,300.7,202.3z M300.7,202.3
	C300.8,202.3,300.7,202.3,300.7,202.3C300.7,202.3,300.7,202.3,300.7,202.3z M301.2,201.7C301.2,201.8,301.5,201.7,301.2,201.7
	C301.3,201.7,301.3,201.7,301.2,201.7z M301.5,201.9C301.5,201.9,301.5,201.9,301.5,201.9C301.5,201.9,301.5,201.9,301.5,201.9z
	 M301.8,201.9C301.8,201.9,301.8,201.9,301.8,201.9C301.8,201.9,301.8,201.9,301.8,201.9z M303.2,201.2c0.1,0,0.6-0.2,0.5-0.2
	c-0.2,0-0.3,0-0.5,0C302.8,201.1,302.6,201.3,303.2,201.2z M304.1,201c-0.3,0.3,0.3-0.1,0.1,0C304.2,201,304.1,201,304.1,201z
	 M304.5,201C304.6,201.1,305,200.9,304.5,201C304.5,200.9,304.5,200.9,304.5,201C304.5,200.9,304.5,201,304.5,201z M304.7,189.5
	C304.8,189.6,304.6,189.5,304.7,189.5C304.7,189.5,304.7,189.5,304.7,189.5c0,0,0-0.1,0.1-0.2C304.8,189.3,304.7,189.5,304.7,189.5z
	 M305.7,200.6C305.7,200.6,305.7,200.6,305.7,200.6C305.6,200.6,305.5,200.9,305.7,200.6z"/>
<path d="M314,184.3c0.2,0.1,0.4,0.4,0.6,0.5c0.1,0.1,0.2,0,0.3,0.1c0.1,0.2,0.5,0.3,0.5,0.5c0.2,0.2,0.3,0.5,0.4,0.8
	c0,0.5,0.3,0.4,0.3,0.9c-0.1,0-0.1,0.2-0.1,0.3c0.2-0.2,0.2,0.4,0,0.2c-0.1,0.6,0.1,1.2,0,1.7c-0.1,0.2,0.3,0,0,0.2
	c-0.1,0.1,0,0.1,0,0.3c0-0.1,0-0.1,0-0.1v0c0.1-0.2,0.1-0.1,0.1,0.3c-0.1,0.1-0.2,0.5-0.2,0.5c0.1,0.3,0,0.5,0,0.8
	c0.1,0.1-0.1,0.5,0.1,0.3c0,0.3,0,0.2-0.1,0.2c0,0,0,0,0,0c0,0,0,0-0.1,0.1c0,0.4,0.2,0.3,0.1,0.6c0.2,0.1-0.2,0.5,0,0.7
	c0,0.3-0.2,0-0.1,0.3c0.1-0.1,0.1,0.2,0.3,0.1c-0.1,0.2-0.3,0.1-0.3,0.3c0.2,0,0.3,0.3,0,0.4c0,0.1,0.5-0.1,0.3,0.1
	c-0.2-0.1-0.1,0.3-0.3,0.2c-0.1-0.1-0.2,0.1-0.1,0.2c-0.2,0.1,0.5-0.2,0.2,0c-0.2,0,0.2,0.2-0.1,0.2c-0.1,0.1,0.1,0.1-0.2,0.3
	c-0.1-0.2-0.1,0.2-0.1,0.3c-0.1,0,0.1,0.4-0.1,0.4c0,0.3,0,0.3,0,0.6c-0.1,0.2,0,0.5-0.1,0.8c0.2,0.1,0,0.1,0.1,0.2
	c-0.1,0.1-0.1,0.4-0.1,0.5c0.2,0.1-0.1,0.1,0,0.3c-0.1,0.2,0,0.5-0.1,0.6c0.1,0.2,0,0.4,0.1,0.6c0,0.3-0.5-0.2-0.4,0
	c-0.1,0-0.2,0.1-0.2,0.1c-0.1,0-0.3,0.2-0.3,0c0.1-0.1-0.2-0.1-0.3-0.1c0,0.3-0.2-0.2-0.2-0.1c-0.2,0.3-0.2-0.3-0.5-0.1
	c0.1-0.2-0.3-0.3-0.1-0.2c-0.1,0.3-0.5-0.1-0.4,0.1c-0.1,0.5-0.1-0.1-0.2,0c0,0.1-0.2-0.1-0.2,0.1c-0.2,0,0.3-0.3-0.1-0.2
	c0.1-0.7,0.1-1.4,0.1-2.1c-0.1-0.3,0.3-1.3-0.2-1.2c-0.5-0.2,0.5-0.1,0.3-0.3c0.1-0.1,0-0.3-0.4-0.1c0.2,0.1-0.1,0.3,0,0
	c-0.1,0-0.4,0.1-0.5,0.1c-0.3,0-0.2,0.2,0,0.1c0.2,0.1-0.4,0.2-0.2,0.3c0.2,0,0,0.1,0.2,0.1c-0.2,0-0.7,0.3-0.8,0.1
	c-0.2,0.2-0.2,0-0.4,0.1c-0.3,0.2-0.5,0.1-0.6,0.2c-0.1-0.2-0.4,0.1-0.5-0.1c0,0.1,0,0.4-0.1,0.2c-0.1,0.2-0.2,0.3,0.1,0.1
	c0.2,0,0.1,0.5-0.1,0.4c-0.1,0.2,0,0.3-0.2,0.3c-0.1-0.3-0.4,0.7-0.2,0.5c0.1,0,0.1,0.3-0.1,0.2c0-0.3-0.5,1.3-0.5,1.4
	c0-0.2-0.2,0.2,0,0.1c-0.1,0.2-0.2,0.4-0.1,0.2c-0.1,0.2-0.2,0.4-0.1,0.3c0,0,0,0.1-0.1,0.2c0,0.1-0.1,0.1-0.2,0.1
	c-0.4-0.1,0.2,0.2,0,0.2c0.1,0.2-0.3-0.1-0.3,0.1c-0.2-0.3-0.4,0.6-0.2,0c0.2-0.2-0.2-0.4-0.1-0.1c0,0.2,0,0.2-0.1,0.2
	c0,0,0.1,0,0-0.1c0,0,0,0,0,0c0-0.1-0.1-0.1-0.1-0.2c-0.4,0.2,0.1-0.1-0.1,0.3c0-0.1-0.2,0.2-0.3-0.1c0.3-0.1-0.2-0.2-0.2,0
	c0.2-0.3,0.1,0.3,0,0.2c0-0.2-0.3-0.1-0.1-0.2c-0.1-0.5-0.2,0.4-0.2-0.1c0.2-0.1,0.2-0.4-0.1-0.2c-0.3,0.2,0-0.2-0.1-0.2
	c-0.1,0-0.3,0.1-0.3,0.1c0,0.1-0.2,0.2-0.2,0.2c0.1-0.3-0.3,0.3-0.1-0.1c0-0.1,0-0.3,0-0.4c0.1-0.3,0.1-0.1,0.2-0.4
	c0-0.1,0.1-0.2,0-0.3c1.2-4.2,3.2-9.4,4.9-12c0.7-1,1.4-2.1,2.4-2.7c-0.1,0.1,0.1,0,0.2,0c0,0,0.1-0.1,0.2-0.1
	C313.8,184.1,314,184.1,314,184.3z M307.5,200.4C307.5,200.4,307.5,200.4,307.5,200.4C307.5,200.4,307.5,200.4,307.5,200.4z
	 M309.3,198C309.4,198.4,309.1,198.1,309.3,198C309.3,198,309.2,198,309.3,198z M309.9,196.3c0.2,0.2-0.2,0.1-0.1,0.1
	C309.7,196.5,309.7,196.3,309.9,196.3C309.9,196.3,309.9,196.3,309.9,196.3z M311.3,195.7C311.3,195.7,311.3,195.7,311.3,195.7
	c-0.3,0.1-0.7,0.2-1,0.3c-0.5,0-0.1,0.2,0.2,0.1c0.1-0.1,0.5-0.1,0.4-0.1C311,195.8,311.5,195.9,311.3,195.7
	C311.3,195.7,311.3,195.7,311.3,195.7z M310.7,196.2C310.8,196.3,310.3,196.3,310.7,196.2C310.7,196.2,310.7,196.2,310.7,196.2z
	 M313.3,188.3c-0.1,0.2-0.1,0.5-0.2,0.5c0,0.2-0.5,0.3-0.2,0.4c0.1,0-0.4,0.5-0.3,0.3c0.2-0.2,0.1,0,0.1-0.3
	c-0.1,0.1-0.2,0.1-0.2,0.2c0,0,0,0,0,0c0,0,0,0,0,0.1c0,0-0.1,0.1-0.1,0.2c0,0,0,0,0,0c0,0,0,0,0,0.1c0,0-0.1,0.1-0.1,0.1
	c0,0.1,0.1,0,0,0.2c-0.3,0.3,0.2,0.1,0.1,0.2c0,0-0.1,0.4-0.2,0.2c0.2-0.2-0.2-0.1-0.2,0.2c-0.1,0.2-0.1,0.3-0.2,0.3
	c0,0.3-0.1,0.2-0.2,0.5c-0.1,0.4,0.1-0.1,0.2-0.2c0.2-0.1,0.1-0.5,0.3-0.4c-0.1,0-0.2,0.2-0.1,0.5c-0.1,0.2-0.2,0.1-0.2,0.5
	c-0.2,0.1,0,0.5-0.3,0.5c0-0.3,0-0.2-0.1,0.1c-0.2,0-0.4,0.4-0.2,0.4c0,0,0,0.1,0,0.1c0.2,0.2,1.4-0.2,2.1-0.4
	c0.1-1,0.2-1.9,0.2-2.9c0-0.4,0.2-1.1,0-1.3C313.4,188.1,313.4,188.3,313.3,188.3z M311.2,192c0.2,0.1,0.1-0.2,0.3-0.3
	c-0.2,0,0.1,0,0-0.1C311.3,191.7,311.2,191.9,311.2,192z M311.2,192.2C311.5,192.4,311.2,192.4,311.2,192.2
	C311.2,192.2,311.2,192.2,311.2,192.2z M312.3,195.6c0,0-0.1,0.1-0.2,0.1c-0.5,0-0.1,0,0.1-0.2C312.3,195.6,312.3,195.6,312.3,195.6
	z M312.2,195.6c0-0.2-0.2,0,0.1-0.3C312.4,195.3,312.3,195.5,312.2,195.6z M312.3,189.6C312.3,189.6,312.3,189.6,312.3,189.6
	C312.3,189.6,312.3,189.6,312.3,189.6z M312.4,189.4C312.4,189.4,312.4,189.4,312.4,189.4C312.4,189.3,312.4,189.3,312.4,189.4z
	 M312.5,189.5C312.6,189.5,312.6,189.5,312.5,189.5C312.7,189.5,312.5,189.8,312.5,189.5z M313.4,187.9c-0.2,0.1-0.2,0.2-0.3,0.4
	c0,0.1-0.3,0.5-0.2,0.4c0.1,0.2,0.3-0.3,0.3-0.3c0.1-0.1,0.2-0.2,0.3-0.3C313.4,188,313.5,188,313.4,187.9
	C313.5,187.9,313.4,187.9,313.4,187.9c0.1,0,0.1-0.1,0.1-0.2C313.4,187.8,313.4,187.8,313.4,187.9z M313.2,187.8
	C313.1,188,313.4,187.9,313.2,187.8C313.2,187.7,313.2,187.8,313.2,187.8z M313.4,188C313.4,188,313.4,188,313.4,188
	C313.4,188,313.4,188,313.4,188z M315,199.4C315.1,199.5,315,199.5,315,199.4C315,199.4,315,199.4,315,199.4z M316,191.2
	C316,191.2,316,191.2,316,191.2C315.9,191.2,316.1,191.3,316,191.2z"/>
<path d="M319.9,183.4c0-0.3,0.1,0.3,0.2,0c0-0.3,0.3,0.1,0.4,0.2c0.2-0.3,0.3,0.2,0.3,0.2c-0.1,0.3,0.3-0.3,0.3-0.1
	c0.2,0.1-0.1,0.2,0.1,0.3c0.1-0.3,0.2-0.1,0.3,0.2c0.1-0.1,0.1-0.2,0.2-0.1c0,0,0,0,0,0c0,0,0,0,0,0c0.1,0.1,0.2,0.2,0.2,0.3
	c0.2,0.3,0.1,0.6,0.2,0.7c0,0,0,0,0,0c0,0,0,0,0,0c0,0,0,0.1,0,0.1c0,0.3,0.1,0.2,0.2,0.3c0,0.1,0,0.2,0,0.3c0.2,0.2,0,0.1,0,0.1
	c-0.1,0.2-0.1,0.4,0.1,0.6c-0.1,0-0.2,0.2,0,0.5c-0.1,0,0.2,0.1,0.1,0.3c-0.2,0.2,0,0,0.1,0.3c-0.1,0.2,0,0.2,0,0.5
	c0.2,0.8,0.2,1.7,0.3,2.5c0,0.5,0.2,0.5,0.1,0.1c0.4-2.3,1-4.6,1.7-6.8c0.1-0.4,0.3-0.8,0.5-1.1c0,0.3,0.1-0.1,0.3,0
	c0.2,0.3,0.1-0.1,0.2,0.1c0-0.1,0.3-0.2,0.2,0.1c-0.1,0,0,0.3,0.1,0.3c0,0,0.1,0.2,0.2,0.2c0,0.3,0.3,0.1,0.3,0.2
	c0.2,0.1,0.2,0.5,0.3,0.5c0.1-0.2,0.1,0.3,0.1,0.2c-0.1,0.3,0.2,0,0,0.4c-0.1,0.3,0,0.5,0,0.6c0,0.1-0.1,0.3-0.1,0.3
	c0,0.1,0.3,0.2,0,0.4c-0.1,0.1-0.2,0.2,0,0.3c-0.3,0.2,0,0.4-0.2,0.5c0.1,0,0.1,0.1-0.1,0.1c0.3,0.2-0.2,0.2-0.1,0.6
	c0.1,0.1-0.1,0.1-0.1,0.3c-0.1,0.2-0.1,0.5-0.1,0.7c0.1,0.4-0.2,0.3,0,0.6c0.1,0.3,0,0.1-0.1,0.3c0,0,0,0,0,0c0,0.1,0,0.1,0,0
	c0,0,0,0,0,0c0,0,0,0,0,0c-0.1,0.1,0,0,0,0.3c-0.1,0,0.1,0.1,0,0.2c0,0.1-0.1,0.3-0.1,0.3c-0.1,0.8-0.2,1.7-0.3,2.5
	c-0.1,0.5-0.1,1-0.1,1.5c0,0,0,0,0,0c0,0,0,0,0,0c0,0,0,0.1,0,0.1c0,0.2,0,0.5,0,0.7c0,0.2,0,0.7-0.1,1c0,0.2,0,0.4,0,0.5
	c0.1,0.1-0.1,0.2,0.1,0.3c-0.1,0.1-0.1,0.4-0.1,0.4c0.1,0.1,0.3,0.4,0,0.2c-0.3,0.2-0.2-0.3-0.4-0.4c-0.1,0.3-0.1-0.1-0.2,0.2
	c0,0.3-0.1-0.3-0.2,0c0.2,0.2,0.2,0.5,0,0.1c-0.4,0,0.1-0.1-0.1-0.2c-0.2,0-0.4,0.4-0.4,0.1c-0.1,0.2-0.2-0.2-0.4-0.1
	c-0.1-0.2-0.3,0-0.3-0.2c0,0.3-0.3,0.3-0.3,0.5c0-0.2-0.4-0.1-0.5-0.5c-0.1,0.1-0.9,0-1.1-0.4c-0.9-1.2-1.2-2.8-1.6-4.3
	c-0.2,0.2-0.2,0.9-0.2,1.1c0,0.3,0,0.4-0.1,0.7c0,0.1,0,0.3,0,0.4c0,0.1-0.2,0.4-0.1,0.6c-0.1,0.1,0.1,0.1-0.1,0.3
	c0.1,0.1,0,0.6,0,0.6c0,0.3,0,0.7-0.1,0.9c0,0.3,0,0.6-0.1,0.8c0.3,0.2-0.2,0.6,0,0.5c-0.1,0.2,0.2,0.2,0,0.4
	c-0.1,0.3-0.2-0.3-0.3,0.1c-0.2-0.2-0.2-0.1-0.2,0.1c0.1,0.1-0.3,0.1-0.2,0c-0.1-0.3-0.2,0.2-0.3-0.1c-0.2-0.2,0,0.2-0.2,0
	c-0.1,0.2-0.2-0.1-0.3,0.1c0,0,0,0,0,0c0,0,0,0,0,0c-0.1-0.1-0.2,0-0.3,0.1c0,0,0,0,0,0c0,0,0,0,0,0c0,0-0.1,0-0.1-0.1
	c0-0.2-0.3-0.3-0.3,0c-0.4,0.1-0.3,0-0.7,0.2c-0.1-0.1,0-0.5-0.1-0.6c0-4.4,0.7-8.8,1.7-13.2c0.2-0.6,0.3-1.3,0.6-1.9
	c0-0.5,0.1,0,0.2-0.3c0.2,0,0.2-0.1,0.4-0.2C319.6,183.2,319.9,183.5,319.9,183.4z M317.8,199.2
	C317.8,199.2,317.8,199.2,317.8,199.2C317.8,199.2,317.8,199.2,317.8,199.2z M318.1,199.1C318.1,199.2,318.1,199.1,318.1,199.1
	C318.1,199.2,318.1,199.2,318.1,199.1z M319.7,199.6c-0.1,0.1-0.4-0.3-0.2-0.4C319.5,199.4,319.7,199.4,319.7,199.6z M319.9,194.8
	C319.9,194.8,319.9,194.8,319.9,194.8C319.9,194.8,319.9,194.8,319.9,194.8z M325.7,198C325.7,198,325.7,198,325.7,198
	C325.8,198,325.7,198,325.7,198c0.1,0.1-0.2,0.1-0.1-0.1C325.6,198,325.7,198,325.7,198z M325.8,194.6
	C325.8,194.6,325.8,194.6,325.8,194.6C325.8,194.6,325.8,194.6,325.8,194.6z"/>
<path d="M334.9,182.3c0.5,0.1,0.8,0.5,1.1,0.6c0.3,0.2,0.3,0.5,0.5,0.6c0.1,0.1,0.1,0.2,0.1,0.2c0,0.2,0.4,0.4,0.2,0.5
	c0,0.2,0.2,0.8,0.2,0.6c0,0,0,0.1,0.1,0.1c-0.1,0,0,0.1,0,0c0.1,0.1,0.1,0.3,0.1,0.4c0.1,0.4,0.2,0.7,0.2,1c0,0.4,0.2,0.8,0.2,1
	c0,0.2-0.1,0.7-0.1,1c-0.1,0.5-0.1,0.5-0.3,1c-0.1,0.3-0.1,0.5-0.2,0.8c0,0,0-0.3-0.1,0.1c0.1,0.1,0.1,0.4-0.1,0.5
	c-0.1,0.1-0.3,0.5-0.1,0.2c0,0.3-0.4,0.6-0.2,0.3c0-0.1-0.3,0.4-0.1,0.4c-0.2,0.1-0.2,0.5-0.3,0.3c-0.2,0.1,0,0.4-0.1,0.2
	c-0.1,0.1-0.2,0-0.1,0.1c-0.1,0-0.1,0.1,0,0.2c0,0,0,0,0,0c0,0,0,0,0,0c0,0,0,0,0,0c-0.1,0.1-0.2,0.2-0.2,0.3c0,0.2,0.2-0.3,0.1,0
	c-0.2,0.3-0.4,0.8-0.7,1c-0.1,0.2-0.2,0.3-0.4,0.6c0.1,0.1,0,0-0.2,0.3c-0.1,0-0.3,0.3-0.4,0.5c0,0,0,0,0,0c0,0,0,0,0,0
	c0,0,0,0.1-0.1,0.1c0,0,0,0.1-0.2,0.2c-0.3,0.3-0.5,0.6-0.7,0.8c-0.1,0.1-0.1,0.1-0.2,0.2c-0.1,0.1-0.2,0.2-0.3,0.2
	c-0.2,0.2-0.4,0.4-0.6,0.5c-0.2,0.2-0.5,0.3-0.8,0.4c-0.1,0-0.4,0.3-0.3,0c-0.3,0,0.5-0.2,0.7-0.3c0.2-0.1,0.4-0.4,0.2-0.3
	c-0.4-0.2-0.2,0.1-0.2,0.2c-0.2,0.1-0.1-0.3-0.3-0.1c-0.2,0.1-0.5,0.2-0.4,0.1c-0.3,0-0.3,0.1-0.5-0.2c-0.2,0.1-0.5,0-0.7-0.2
	c-0.2-0.1-0.7-0.1-0.8-0.5c0-0.2-0.3-0.1-0.5-0.2c-0.3-0.1-0.3-0.3-0.5-0.3c0.1-0.3,0.1-1,0.2-1.5c0.3-2.3,0.7-4.7,1.3-6.9
	c-0.1,0,0.2-0.5,0.1-0.5c-0.1,0-0.3,0.2-0.4,0c-0.3-0.1,0.1-0.2,0-0.3c-0.4,0.1,0-0.5-0.3-0.5c-0.2,0-0.2-0.2-0.3-0.2
	c0-0.2,0-0.3-0.1-0.4c-0.1-0.1,0.2-0.3,0-0.3c-0.1-0.2-0.4-0.1-0.5-0.4c-0.3-0.2,0-0.5,0.2-0.5c0.3-0.4,0.7-0.8,1.1-1.1
	c1.2-0.9,2.6-1.5,4.1-1.5C333.6,182,334.2,182.1,334.9,182.3z M328.5,186.7C328.6,187,328.8,186.8,328.5,186.7
	C328.6,186.7,328.5,186.7,328.5,186.7z M330.3,198.1c-0.1,0.1-0.2,0.3-0.2,0.1c-0.1,0-0.3,0.1-0.2-0.2
	C330,198.1,330.2,197.9,330.3,198.1z M332.3,185.3c-0.2,0.1-0.1,0.1,0,0.1c0,0,0,0,0,0c-0.1,0.1,0,0,0,0c0,0,0,0.1-0.1,0.1
	c-0.2,0.1,0.2,0.2-0.1,0.3c-0.1-0.2-0.1,0.4-0.1,0.5c-0.1,0.1,0,0.4,0,0.5c0.1,0.2-0.1,0.4-0.1,0.7c-0.1,0.1-0.2,0.8-0.1,0.6
	c-0.1,0.2-0.2,0.6-0.2,0.9c0,0.3-0.3,0.9-0.1,1.1c0,0.3,0,0.6-0.2,0.6c0,0.1-0.1,0.3-0.1,0.4c0.3-0.2-0.1,0.1,0.1,0.1c0,0,0,0,0,0.1
	c0,0,0,0,0,0c-0.1,0,0,0,0,0c0,0.1-0.1,0.1-0.1,0.4c0,0.2,0.1,0.5-0.2,0.7c-0.1,0.2-0.1,0.5-0.1,0.6c-0.1,0.2,0.1,0.5-0.1,0.3
	c0,0.2-0.2,0.9-0.1,0.9c0,0.1,0.2,0,0.4-0.3c1.6-2,3.2-4.1,4.2-6.4c0.2-0.4,0.6-1.4,0.3-1.6c0.1,0,0.2-0.2,0-0.1
	c-0.4,0,0.2-0.1-0.2-0.2c-0.3-0.1-0.4-0.2-0.6-0.2c-0.2-0.2-0.3,0.1-0.5-0.1c-0.2,0-0.6,0.1-0.8,0c-0.3,0.1-0.4,0.1-0.6,0
	c-0.2,0.1-0.3,0.1-0.5,0.2C332,185.7,332.6,185.3,332.3,185.3C332.3,185.3,332.3,185.3,332.3,185.3z M330.9,193.7
	C330.9,193.8,330.8,193.7,330.9,193.7C330.9,193.7,330.9,193.7,330.9,193.7z M331.3,197.5C331.4,197.5,331.1,197.6,331.3,197.5
	C331.3,197.5,331.3,197.5,331.3,197.5C331.3,197.5,331.3,197.5,331.3,197.5C331.4,197.5,331.3,197.5,331.3,197.5z M331.3,191.3
	C331.3,191.3,331.3,191.3,331.3,191.3C331.3,191.3,331.3,191.3,331.3,191.3z M331.7,197.4c-0.1,0.3,0.3-0.1,0.3-0.2
	C331.9,197.2,331.8,197.3,331.7,197.4z M332.4,185.4C332.3,185.4,332.3,185.4,332.4,185.4C332.3,185.4,332.3,185.4,332.4,185.4z
	 M332.5,185.2C332.5,185.3,332.8,185.2,332.5,185.2C332.5,185.2,332.5,185.2,332.5,185.2z M332.8,184.9
	C332.4,185,332.5,185.2,332.8,184.9C332.7,185.1,333.1,185,332.8,184.9C332.8,184.9,332.7,185,332.8,184.9z M333.4,185.1
	c-0.1,0.1-0.5-0.1-0.6,0.1c0,0.2,0.4,0,0.6,0c0.2-0.1,0.2,0.1,0.5,0c0.3-0.2-0.2-0.1-0.1-0.2C333.6,185,333.5,185,333.4,185.1z
	 M333.4,184.8C333.4,184.8,333.3,184.8,333.4,184.8c-0.1,0-0.1,0-0.1,0c-0.2,0.1-0.4,0-0.2,0.2c0.2-0.3,0.3-0.1,0.4-0.1
	c0.2,0,0.1-0.1,0.2-0.1c0,0,0,0,0,0c0,0,0,0,0,0C333.7,184.9,333.6,184.8,333.4,184.8C333.4,184.8,333.4,184.9,333.4,184.8z
	 M334,185C334,185.3,334.1,185,334,185c0.1,0,0.1-0.2-0.3-0.2C333.7,184.8,334,185,334,185z M333.8,195.6
	C333.8,195.6,333.8,195.6,333.8,195.6C333.9,195.6,333.8,195.6,333.8,195.6z M333.9,185.3C333.8,185.4,334.2,185.3,333.9,185.3
	C333.9,185.3,333.9,185.3,333.9,185.3z M334.4,185.2c0.2,0.2,0.6,0.2,0.9,0.3c0.2,0,0.1-0.1,0.2,0.1c0.1,0,0.4,0.1,0.2,0
	c-0.1-0.2-0.1-0.2-0.3-0.4c-0.2-0.2-0.2,0-0.5-0.1c0,0.2-0.3,0.1-0.6,0C334.2,185.1,334.4,185.3,334.4,185.2z M335.1,185.5
	C335.6,185.7,334.9,185.7,335.1,185.5C335.1,185.5,335.1,185.5,335.1,185.5z M335.7,192.8C335.7,192.8,335.7,192.8,335.7,192.8
	C335.7,192.8,335.7,192.8,335.7,192.8z M335.8,192.6C335.8,192.6,335.8,192.6,335.8,192.6C335.9,192.5,335.9,192.5,335.8,192.6z
	 M337.1,185C337,185,337,185,337.1,185C337.1,185,337.1,185,337.1,185z"/>
<image style="overflow:visible;opacity:0.25;enable-background:new    ;" width="1625" height="1217" xlink:href="A28CC28AF8734356.png"  transform="matrix(0.3092 0 0 0.3092 -42.4808 -45.9509)">
</image>
<path class="st0" d="M152.9,119.5c-0.1-0.1-0.2-0.2-0.2-0.3c0,0,0,0,0,0c-3.3-3.4-6.5-6.8-9.8-10.2c0,0,0,0.1,0,0.1
	c-0.3-0.3-0.6-0.6-1-0.8c-0.5-0.2-1.1-0.2-1.8-0.1c-2.9,0.6-5.7,1.2-8.6,1.7c-2.9,0.6-5.7,1.1-8.6,1.6c-0.9,0.2-1.9,0.6-2.7,1.3
	c-0.8,0.7-1.5,1.6-2,2.5c-0.9,2.1-1.9,4.2-2.8,6.2c-2.8-3.1-6-6.7-6-6.7c-0.6-0.7-1.5-1-2.7-0.8c-2.8,0.4-5.5,0.7-8.3,1
	c-2.8,0.3-5.5,0.6-8.3,0.8c-1.2,0.1-2.3,0.6-3.2,1.5c-0.9,0.8-1.6,1.9-1.9,3.1c-2.9,14-5.9,28-8.8,41.9c-2.9,13.9-5.9,27.8-8.8,41.6
	c-0.2,1.1,0,2.2,0.6,2.9c0,0.1,9.2,11.6,9.8,12.3c0.6,0.7,1.5,1.2,2.7,1.1c2.8-0.1,5.5-0.3,8.3-0.5c2.8-0.2,5.5-0.5,8.3-0.8
	c1.2-0.1,2.3-0.7,3.2-1.6c0.9-0.9,1.6-2,1.8-3.2c0.4-2.1,0.9-4.3,1.3-6.4c2.4,2.8,4.8,5.5,7.2,8.2c0.1,0.1,0.2,0.2,0.3,0.3
	c0.6,0.5,1.4,0.6,2.3,0.5c2.9-0.4,5.7-0.9,8.6-1.4c2.9-0.5,5.7-1,8.6-1.6c0.7-0.1,1.3-0.4,2-0.8c0.6-0.4,1.2-0.9,1.7-1.5
	c0.5-0.6,0.9-1.3,1.1-1.9c0.2-0.7,0.4-1.4,0.3-2c-0.5-6.6-0.9-13.3-1.4-19.9s-0.9-13.3-1.4-19.9c3.3-7.4,6.6-14.8,9.9-22.2
	s6.6-14.9,9.9-22.4c0.3-0.7,0.5-1.4,0.5-2C153.3,120.5,153.2,120,152.9,119.5z M118.9,157.9c1,13.7,1.9,27.3,2.9,41
	c-5.7,1-11.5,1.9-17.2,2.6c-0.8-11-1.5-21.9-2.3-32.9c-2.3,0.3-4.6,0.5-7,0.8c-2.4,11.3-4.7,22.6-7.1,33.8c-5.5,0.4-11,0.7-16.6,0.8
	c5.9-27.8,11.8-55.7,17.6-83.8c5.5-0.4,11-1,16.6-1.7c-2.4,11.4-4.7,22.7-7.1,34c2.3-0.2,4.6-0.5,6.9-0.8
	c5.4-11.8,10.8-23.6,16.3-35.6c5.7-1,11.5-2.1,17.2-3.3C132.5,127.8,125.7,142.9,118.9,157.9z"/>
<path class="st0" d="M264.7,151.9c-0.6-0.6-6.3-6.6-6.3-6.6c-0.6-0.6-1.5-0.9-2.7-0.6c-2.8,0.7-5.5,1.4-8.3,2.1
	c1.3-6.6,2.7-13.1,4-19.7c2.2-10.9,4.4-21.8,6.6-32.7c0.2-1.2,0-2.2-0.6-2.8c-0.6-0.6-9.8-10-9.8-10c-0.6-0.6-1.5-0.8-2.7-0.5
	c-2.8,0.7-5.5,1.4-8.3,2.2c-2.8,0.7-5.5,1.5-8.3,2.2c-1.1,0.3-2.3,1.1-3.2,2.1c-0.9,1-1.6,2.2-1.8,3.4c-2.9,14.6-5.9,29.3-8.8,43.9
	s-5.9,29.3-8.8,43.9c-0.2,1.2,0,2.2,0.6,2.8c0,0,9.2,9.2,9.8,9.8c0.6,0.6,1.5,0.8,2.7,0.5c6.9-1.9,13.8-3.8,20.7-5.6
	c6.9-1.8,13.8-3.6,20.7-5.2c1.1-0.3,2.3-1,3.2-2c0.9-1,1.6-2.2,1.8-3.4c0.6-2.9,1.2-5.8,1.8-8.7c0.6-2.9-4.2-2.7-3.6-5.6
	C263.6,160.2,265.3,152.5,264.7,151.9z M251.2,166.6c-13.8,3.5-27.6,7.3-41.5,11.1c5.9-29.3,11.8-58.5,17.6-87.8
	c5.5-1.5,11.1-3,16.6-4.4c-4.7,23.3-9.4,46.7-14.1,70.1c8.3-2.2,16.6-4.4,24.9-6.4C253.6,155,252.4,160.8,251.2,166.6z"/>
<path class="st0" d="M345.4,77.5c-0.6-0.8-9.8-12.3-9.8-12.2c-0.6-0.7-1.5-1.2-2.7-1.1c-2.8,0.1-5.5,0.3-8.3,0.5
	c-2.8,0.2-5.5,0.5-8.3,0.8c-1.1,0.1-2.3,0.7-3.2,1.6c-0.9,0.9-1.6,2-1.8,3.1c-0.4,2-0.8,4.1-1.3,6.1c-2.4-2.7-4.7-5.4-7.1-8.1
	c0,0,0,0.1-0.1,0.2c-0.1-0.1-0.1-0.3-0.3-0.5c-0.6-0.4-1.3-0.5-2.2-0.4c-2.9,0.4-5.7,0.9-8.6,1.4s-5.7,1-8.6,1.6
	c-1.2,0.2-2.3,0.9-3.2,1.8c-0.9,0.9-1.6,2.1-1.8,3.3c-2.9,14.4-5.9,28.9-8.8,43.3c-2.9,14.5-5.9,29-8.8,43.5c-0.2,1.2,0,2.2,0.6,2.8
	c0,0,9.2,9.6,9.8,10.2c0.6,0.6,1.5,0.9,2.7,0.6c2.8-0.6,5.5-1.1,8.3-1.7c2.8-0.5,5.5-1,8.3-1.5c1.2-0.2,2.3-0.9,3.2-1.8
	c0.9-0.9,1.6-2.1,1.8-3.2c0.4-2.1,0.8-4.1,1.3-6.2c2.3,2.6,4.6,5.2,7,7.8c0.2,0.2,0.3,0.3,0.5,0.5c0.6,0.4,1.3,0.5,2.2,0.4
	c2.9-0.4,5.7-0.7,8.6-1c2.9-0.3,5.7-0.6,8.6-0.8c1.1-0.1,2.3-0.6,3.2-1.4c0.9-0.8,1.6-1.9,1.8-3.1c2.9-14,5.9-28,8.8-41.9
	c2.9-13.9,5.9-27.8,8.8-41.6C346.3,79.3,346,78.2,345.4,77.5z M314.4,152.8c-5.7,0.6-11.5,1.4-17.2,2.3c-2.4-13.5-4.8-26.9-7.2-40.3
	c-2.9,14.3-5.9,28.7-8.8,43.1c-5.5,1.1-11,2.3-16.6,3.5c5.9-29,11.8-57.9,17.6-86.7c5.7-1.1,11.5-2.1,17.2-3
	c2.4,13.5,4.8,26.9,7.1,40.5c2.9-14.2,5.9-28.4,8.8-42.5c5.5-0.6,11.1-1,16.6-1.3C326.2,96.3,320.3,124.5,314.4,152.8z"/>
<path class="st1" d="M118.9,157.9c1,13.7,1.9,27.3,2.9,41c-5.7,1-11.5,1.9-17.2,2.6c-0.8-11-1.5-21.9-2.3-32.9
	c-2.3,0.3-4.6,0.5-7,0.8c-2.4,11.3-4.7,22.6-7.1,33.8c-5.5,0.4-11,0.7-16.6,0.8c5.9-27.8,11.8-55.7,17.6-83.8c5.5-0.4,11-1,16.6-1.7
	c-2.4,11.4-4.7,22.7-7.1,34c2.3-0.2,4.6-0.5,6.9-0.8c5.4-11.8,10.8-23.6,16.3-35.6c5.7-1,11.5-2.1,17.2-3.3
	C132.5,127.8,125.7,142.9,118.9,157.9z"/>
<path class="st1" d="M202.2,119.6c-2.5,12.4-5,24.9-7.5,37.3c-1.1,5.4-3.7,11-7.2,15.9c-3.5,4.9-8,9.3-12.9,12.4
	c-3.2,2.1-6.7,3.7-10.1,4.5c-5.1,1.3-9.6,0.8-13-1.1c-3.4-1.9-5.7-5.2-6.7-9.4c-0.6-2.8-0.6-6.1,0.1-9.7c2.5-12.3,5-24.6,7.5-36.9
	c1.1-5.4,3.7-10.8,7.2-15.6c3.5-4.8,8-9.1,12.9-12.2c3.2-2.1,6.7-3.7,10.1-4.6c5.1-1.4,9.6-1,13,0.8c3.4,1.8,5.7,4.9,6.7,9.1
	C202.9,112.7,202.9,116,202.2,119.6z"/>
<path class="st1" d="M251.2,166.6c-13.8,3.5-27.6,7.3-41.5,11.1c5.9-29.3,11.8-58.5,17.6-87.8c5.5-1.5,11.1-3,16.6-4.4
	c-4.7,23.3-9.4,46.7-14.1,70.1c8.3-2.2,16.6-4.4,24.9-6.4C253.6,155,252.4,160.8,251.2,166.6z"/>
<path class="st1" d="M314.4,152.8c-5.7,0.6-11.5,1.4-17.2,2.3c-2.4-13.5-4.8-26.9-7.2-40.3c-2.9,14.3-5.9,28.7-8.8,43.1
	c-5.5,1.1-11,2.3-16.6,3.5c5.9-29,11.8-57.9,17.6-86.7c5.7-1.1,11.5-2.1,17.2-3c2.4,13.5,4.8,26.9,7.1,40.5
	c2.9-14.2,5.9-28.4,8.8-42.5c5.5-0.6,11.1-1,16.6-1.3C326.2,96.3,320.3,124.5,314.4,152.8z"/>
<path class="st0" d="M216.3,116.9c-0.5-2.4-1.5-4.6-2.8-6.4c-0.5-0.6-0.9-1.2-1.5-1.7c-1-1-9.7-9.7-9.7-9.7s0,0-0.1,0
	c-1-1-2.1-1.9-3.5-2.6c-2.1-1.1-4.4-1.7-6.9-1.8c-2.6-0.1-5.3,0.2-8.3,1c-2,0.5-3.9,1.2-5.9,2.1c-2,0.9-3.9,2-5.9,3.2
	c-2.8,1.8-5.5,3.9-8.1,6.4c-2.5,2.4-4.9,5-6.9,7.9c-2.1,2.9-3.9,5.9-5.3,9c-1.4,3.1-2.5,6.2-3.1,9.2c-1.2,6.2-2.5,12.3-3.7,18.4
	c-1.3,6.1-2.5,12.3-3.8,18.4c-0.4,2.1-0.6,4-0.7,5.9c0,1.9,0.1,3.7,0.5,5.4c0.5,2.5,1.5,4.7,2.8,6.5c0.5,0.7,1,1.3,1.6,1.9
	c3.1,3.3,6.3,6.6,9.4,9.8c1.1,1.2,2.3,2.1,3.8,2.9c2.1,1.1,4.4,1.8,7,2c2.5,0.2,5.3-0.1,8.2-0.8c2-0.5,3.9-1.2,5.9-2.1
	c2-0.9,3.9-2,5.9-3.3c2.8-1.9,5.6-4,8.1-6.5c2.5-2.5,4.9-5.1,6.9-8.1c2.1-3,3.9-6.1,5.4-9.2c1.4-3.1,2.5-6.3,3.1-9.4
	c1.3-6.2,2.5-12.4,3.8-18.6c1.2-6.2,2.5-12.4,3.7-18.7c0.4-2.1,0.6-4.1,0.7-6C216.8,120.3,216.6,118.6,216.3,116.9z M202.2,119.6
	c-2.5,12.4-5,24.9-7.5,37.3c-1.1,5.4-3.7,11-7.2,15.9c-3.5,4.9-8,9.3-12.9,12.4c-3.2,2.1-6.7,3.7-10.1,4.5c-5.1,1.3-9.6,0.8-13-1.1
	c-3.4-1.9-5.7-5.2-6.7-9.4c-0.6-2.8-0.6-6.1,0.1-9.7c2.5-12.3,5-24.6,7.5-36.9c1.1-5.4,3.7-10.8,7.2-15.6c3.5-4.8,8-9.1,12.9-12.2
	c3.2-2.1,6.7-3.7,10.1-4.6c5.1-1.4,9.6-1,13,0.8c3.4,1.8,5.7,4.9,6.7,9.1C202.9,112.7,202.9,116,202.2,119.6z"/>
<path class="st0" d="M182.1,117.4c-0.9-0.2-1.9-0.1-3.1,0.2c-1.8,0.5-3.4,1.4-4.9,2.7c-1.5,1.3-2.9,2.9-3.8,4.6
	c-0.6,1.2-1.1,2.3-1.3,3.6c-2.5,12.4-5,24.7-7.5,37.1c-0.4,1.8-0.2,3.4,0.4,4.5c0.6,1.2,1.7,2,3,2.3c0.9,0.2,1.9,0.2,3.1-0.1
	c1.7-0.5,3.4-1.4,4.9-2.7c1.5-1.3,2.9-2.9,3.8-4.6c0.6-1.2,1.1-2.3,1.3-3.6c2.5-12.4,5-24.8,7.5-37.2c0.4-1.9,0.2-3.4-0.4-4.5
	C184.6,118.4,183.5,117.6,182.1,117.4z"/>
<path class="st0" d="M200.4,67.2c-4.7,0.7-9,5.6-9.7,10.9c-0.6,5.3,2.6,9.1,7.3,8.4c4.7-0.7,9-5.6,9.7-10.9
	C208.3,70.2,205.1,66.5,200.4,67.2z M203.4,76.2c-0.3,2.7-2.5,5.1-4.8,5.4c-2.3,0.3-4-1.5-3.6-4.2c0.3-2.7,2.5-5.1,4.8-5.4
	C202.1,71.7,203.8,73.5,203.4,76.2z"/>
<path class="st0" d="M175.8,73.8c-4.7,0.6-9,5.4-9.7,10.7c-0.6,5.3,2.6,9.2,7.3,8.6c4.7-0.6,9-5.5,9.7-10.8
	C183.8,76.9,180.5,73.1,175.8,73.8z M178.9,82.8c-0.3,2.7-2.5,5.1-4.8,5.4c-2.3,0.3-4-1.6-3.6-4.3c0.3-2.7,2.5-5.1,4.8-5.4
	C177.6,78.3,179.2,80.2,178.9,82.8z"/>
<path class="st1" d="M178.9,82.8c-0.3,2.7-2.5,5.1-4.8,5.4c-2.3,0.3-4-1.6-3.6-4.3c0.3-2.7,2.5-5.1,4.8-5.4
	C177.6,78.3,179.2,80.2,178.9,82.8z"/>
<path class="st1" d="M203.4,76.2c-0.3,2.7-2.5,5.1-4.8,5.4c-2.3,0.3-4-1.5-3.6-4.2c0.3-2.7,2.5-5.1,4.8-5.4
	C202.1,71.7,203.8,73.5,203.4,76.2z"/>
</svg>
