<?xml version="1.0" encoding="utf-8"?>
<!-- Generator: Adobe Illustrator 26.2.1, SVG Export Plug-In . SVG Version: 6.00 Build 0)  -->
<svg version="1.1" id="Superhero_font" xmlns="http://www.w3.org/2000/svg" xmlns:xlink="http://www.w3.org/1999/xlink" x="0px"
	 y="0px" viewBox="0 0 419.5 297.6" style="enable-background:new 0 0 419.5 297.6;" xml:space="preserve">
<style type="text/css">
	.st0{fill:#231F20;}
	.st1{opacity:0.8;fill:#FFFFFF;}
</style>
<path d="M37.1,107.6c0.1,0.1,0.2,0.1,0.4,0.3c0.1,0,0.2,0.1,0.3,0.3c0.1-0.1,0.2,0.1,0.3,0.2c0.2,0.2,0.3,0.3,0.4,0.4
	c0-0.3,0.3,0.3,0.3,0.4c0.2,0.2,0.3,0.6,0.4,0.9c0,0.2,0.1,0.2,0.1,0.3c0,0.1,0,0.2,0,0.3c0,0.2,0.1,0.4,0,0.5
	c0.1,0,0.1-0.1,0.1,0.1c-0.1,0.1-0.1,0.2-0.1,0.2c0,0,0,0,0,0c0.1,0,0,0,0,0c0,0,0.1,0.1,0,0.1c0,0.1,0,0.3,0.1,0.5
	c0,0.4-0.1,0-0.1,0.3c0.2,0.2-0.1,0.2-0.1,0.5c0,0,0,0.1-0.1,0.2c0.1,0,0,0.1,0,0c0,0.1-0.1,0.2-0.1,0.3c0,0.2,0,0.2-0.1,0.3
	c-0.2,0.1-0.1-0.4-0.2-0.1c-0.1,0.2,0-0.2-0.2-0.1c0,0,0,0-0.1,0c0.1,0.1,0,0.1,0,0c-0.2,0-0.3,0.1-0.2-0.1c-0.2-0.1,0,0.1-0.2,0
	c0.2,0-0.2-0.3-0.1-0.1c-0.1,0-0.2-0.1-0.3-0.1c-0.1,0-0.2-0.3-0.2,0c-0.3,0,0.1-0.3-0.1-0.4c-0.2,0.1,0-0.1-0.1-0.1
	c-0.2,0-0.3,0.1-0.4,0.1c-0.1,0-0.3,0-0.2-0.2c-0.3,0,0.1,0,0-0.2c0.2-0.4,0.3-0.9,0.3-1.4c0-0.1,0.1-0.6-0.1-0.5
	c0,0.3-0.1-0.1-0.1,0.1c-0.2,0.1-0.2,0.3-0.3,0.4c-0.2,0.2-0.3,0.2-0.4,0.4c-0.3,0.2,0,0.2-0.2,0.4c-0.1,0.1-0.2,0.2-0.2,0.3
	c-0.1,0.1,0,0.2-0.1,0.3c-0.1,0.1-0.2,0.2-0.2,0.4c0,0.1,0,0.1,0,0.1c0,0,0,0,0,0c0,0,0,0,0,0c-0.1,0.2-0.1,0.2-0.1,0.3
	c-0.1,0-0.1,0.2-0.2,0.3c0,0.1,0,0.1,0,0.2c0,0,0,0,0,0c0,0.1-0.1,0.1-0.2,0.3c-0.1,0.2,0.1,0.1-0.1,0.3c0,0,0,0.4-0.1,0.3
	c-0.1,0.3,0,0.1,0,0.3c0,0.1-0.2,0.3-0.2,0.4c0,0.1-0.2,0.3-0.1,0.4c0,0,0,0.1,0,0.1c0.1,0,0,0,0,0c0,0.1,0,0.3-0.1,0.3
	c0,0.1,0,0.1,0,0.1c0,0,0,0,0,0c0,0.1,0,0.1,0,0c0,0.1,0,0.2,0,0.3c-0.1,0.1-0.1,0.2,0,0.3c-0.2,0.1,0.1,0-0.1,0.2
	c0.2,0,0,0,0.1,0.3c-0.1,0.1,0.1,0.4,0,0.6c0.1,0.3-0.2,0.4-0.1,0.6c0,0.2-0.1,0.2,0.1,0.3c-0.1,0.1-0.1,0.3,0.2,0.2
	c0.8-0.3,1.4-0.9,1.9-1.6c0.2-0.3,0-0.2-0.1-0.2c0,0-0.3,0-0.2,0.1c0,0.2-0.1-0.1-0.1-0.1c-0.2,0,0,0,0-0.1c0.4-0.1,0.3-0.2,0-0.1
	c-0.2,0,0.1-0.1,0.2-0.1c0-0.1-0.1-0.2-0.1-0.3c0.1-0.1-0.4-0.1-0.1-0.2c0.1-0.1-0.1-0.2-0.1-0.3c0-0.1,0-0.2-0.1-0.2
	c0.1-0.2,0-0.2,0-0.3c0.1-0.2,0.4-0.1,0.2-0.4c-0.1-0.1-0.2-0.2-0.3-0.3c-0.1-0.1-0.1-0.3,0.1-0.3c-0.2-0.1,0.1-0.1,0.2-0.1
	c1.4-0.3,2.9-0.4,4.4-0.5c0.2,0,0.3,0.2,0.6,0.1c-0.3,0.2,0.2,0,0.1,0.2c-0.2,0.1-0.1,0.1-0.1,0.2c0.1,0-0.2,0.2,0,0.1
	c0.1,0.3-0.1,0.1-0.1,0.3c0.1-0.1,0.3,0.1,0.2,0.2c-0.2,0.1,0,0.3-0.1,0.5c0.1,0.2-0.2,0.2-0.1,0.3c0.1,0,0,0.2-0.1,0.3h0
	c0,0,0,0,0,0c0,0,0,0.1,0,0.1c-0.1-0.2-0.1,0.2-0.3,0c0,0,0-0.2-0.2-0.1c0.1,0.2-0.1,0.2-0.3,0.2c0,0-0.1,0-0.1,0c0,0,0,0-0.1-0.1
	c0,0,0.1,0.1,0.1,0.1c-0.1,0-0.2,0.1-0.2,0c-0.2-0.2-0.1,0.2-0.2,0.2c-0.1,0,0,0.2-0.2,0.2c-0.1,0.2-0.1,0.2-0.1,0.3
	c0.1,0.2,0,0.4,0,0.1c-0.3,0.2-0.1,0.2,0,0.3c0.1,0.4-0.4,0.2-0.2,0.2c0.2,0,0-0.3-0.1,0c-0.2,0.2-0.3,0.5-0.4,0.6
	c-0.1,0.1,0,0.3-0.1,0.5c-0.3,0.1-0.2-0.1-0.3,0c0,0.1,0.3,0.1,0.1,0.2c0-0.1-0.1,0.2,0,0.2c0.1-0.2,0.3-0.4,0.5-0.6
	c0.3-0.4,0.1,0-0.1,0.2c-0.1,0.1-0.1,0.4-0.4,0.5c0,0.2-0.1,0-0.1,0.2c-0.1,0.1-0.3,0.1-0.3,0.3c-0.1,0.1-0.2,0.1-0.2,0.2
	c-0.3,0.1-0.1,0.1-0.3,0.2c0-0.1-0.1,0-0.2,0c0,0,0,0,0,0c0,0,0,0,0,0c0.1,0,0,0.1-0.2,0.2c0.1-0.2-0.2-0.1-0.3,0
	c-0.1,0.2-0.1,0-0.3,0.1c-0.3,0-0.2,0.3-0.4,0.1c-0.2,0,0.2-0.1,0.1-0.1c0.1,0,0.2-0.1,0.3-0.1c0.1-0.1,0.5,0,0.4-0.2
	c0.3-0.1,0.1-0.1,0.1,0c0.2-0.1,0.4-0.2,0.5-0.3c0.1-0.1,0.4-0.2,0.4-0.2c0.1-0.1,0.3-0.2,0.3-0.3c-0.2,0.1,0-0.1-0.1-0.1
	c-0.2,0.1-0.2,0.1-0.3,0.2c-0.2,0.1-0.4,0.4-0.6,0.4c-0.1,0.1-0.1,0-0.2,0.1c-0.1,0-0.3,0.1-0.5,0.2c-0.3,0-0.3,0.2-0.3,0.3
	c-0.1,0-0.1,0-0.1,0c0,0,0.1,0,0.1-0.1c0-0.1,0-0.1,0.1-0.2c-0.1-0.2-0.2,0.1-0.3,0c-0.3,0-0.5,0-0.5,0.1c0.1,0.1,0.4,0.2,0.5,0.1
	c0,0.1,0.2,0.1-0.1,0.1c0.2,0.1-0.2,0-0.1,0.1c-0.1-0.1-0.2,0-0.3-0.1c-0.2-0.1-0.4-0.2-0.5-0.2c-0.3-0.3,0.5,0.2,0.1-0.1
	c-0.2-0.1-0.5-0.1-0.8-0.3c-0.3-0.2-0.4,0.2-0.5,0c-0.1,0.1-0.3-0.3-0.4-0.2c-0.7-0.5-1-1.4-0.9-2.2c0-2.1,0.7-4.2,1.6-6.1
	c0.6-1.3,1.3-2.6,2.4-3.6c0.4-0.2,0.6-0.4,1-0.4c0,0,0,0,0.1,0C36.8,107.5,36.9,107.6,37.1,107.6z M34.3,115.7
	C34.3,115.7,34.3,115.7,34.3,115.7C34.3,115.7,34.3,115.7,34.3,115.7z M34.9,113.3C34.7,113.7,35,113.3,34.9,113.3
	C34.9,113.2,34.9,113.2,34.9,113.3z M35.3,113C35.3,112.9,35.3,112.9,35.3,113C35.3,112.9,35.3,112.9,35.3,113z M36,111.2
	c0,0.1,0.1-0.2,0.1-0.2C36.1,111.1,36.1,111.1,36,111.2z M36.6,110.4c-0.3,0.3,0.1,0.1,0.1-0.1C36.7,110.3,36.7,110.3,36.6,110.4z
	 M37.8,118.7C37.8,118.7,37.8,118.7,37.8,118.7C37.8,118.7,38,118.8,37.8,118.7z M38.1,118.6C38.1,118.6,38.1,118.6,38.1,118.6
	C38.1,118.6,38.1,118.6,38.1,118.6C38.1,118.6,38,118.6,38.1,118.6C38.1,118.5,38.1,118.5,38.1,118.6z M38.1,118.6
	C38.1,118.6,38.1,118.6,38.1,118.6C38.1,118.6,38.1,118.6,38.1,118.6z M39.1,117.5c0,0.1-0.1,0.1-0.1,0.2c-0.1,0.1-0.1,0.3-0.2,0.3
	c-0.1,0.2-0.3,0.3-0.3,0.4c0,0.1-0.2,0.1,0-0.1c0.2-0.2,0.3-0.5,0.4-0.6C38.9,117.8,39,117.6,39.1,117.5
	C39,117.5,39,117.5,39.1,117.5C39.1,117.5,39.1,117.6,39.1,117.5z M38.8,113.6C38.9,113.8,38.6,113.8,38.8,113.6
	C38.9,113.6,38.8,113.6,38.8,113.6z M39.2,116.9c0,0,0,0.2-0.1,0.2C39,117.3,39.1,116.9,39.2,116.9
	C39.2,116.9,39.2,116.9,39.2,116.9z M39.2,117.3C39.3,117.3,39.1,117.4,39.2,117.3C39.2,117.3,39.2,117.3,39.2,117.3z M39.2,116.6
	C39.2,116.6,39.2,116.6,39.2,116.6C39.2,116.6,39.2,116.6,39.2,116.6C39.2,116.6,39.2,116.6,39.2,116.6
	C39.3,116.7,39.5,116.5,39.2,116.6C39.2,116.6,39.2,116.6,39.2,116.6z M40.4,116.5C40.4,116.5,40.4,116.5,40.4,116.5
	C40.4,116.5,40.4,116.5,40.4,116.5z M40.7,114.6C40.7,114.6,40.7,114.6,40.7,114.6C40.8,114.7,40.7,114.7,40.7,114.6
	C40.7,114.7,40.6,114.6,40.7,114.6C40.7,114.6,40.7,114.6,40.7,114.6z"/>
<path d="M40.7,116.7C40.9,116.7,40.7,116.8,40.7,116.7c-0.1-0.1-0.5-0.1-0.2-0.1C40.6,116.6,40.7,116.6,40.7,116.7z M45.5,107.3
	c1.1,0.1,2.4,0.4,2.9,1.4c0.1-0.1,0.1,0.2,0.2,0.3c0,0,0,0,0,0.1c0,0,0,0,0,0c0,0,0,0,0,0c0,0.2,0.1,0.5,0.1,0.6
	c0,0.1,0,0.5-0.1,0.7c0,0.2-0.1,0.4-0.1,0.6c0,0,0,0,0,0c0,0,0,0,0,0c0,0,0,0,0,0c-0.1,0.1-0.1,0.2-0.2,0.2c0,0.1,0,0.3-0.1,0.5
	c0,0.4-0.3,0.5-0.4,0.8c-0.1,0.3-0.3,0.7-0.5,0.9c-0.2,0.2-0.1,0.3-0.3,0.4c-0.2,0.3-0.3,0.3-0.3,0.5c0,0-0.1-0.1-0.3,0.2
	c0.1,0.3-0.1,0-0.3,0.3c-0.2,0.1-0.5,0.2-0.4,0.4c1,0.2,2,0.3,2.9,0.7c0.2,0.1,0.5,0.3,0.3,0.3c0.1,0,0,0.2,0.1,0.2
	c0.2-0.3,0,0.2,0.2,0.1c0,0.2-0.2,0.1-0.2,0.2c0.1,0.1,0,0.3-0.1,0.4c-0.3,0.2,0,0,0,0.2c0.1,0.1-0.3,0.1,0,0.2
	c-0.2-0.1-0.1-0.1-0.2,0.1c0.1-0.1-0.2,0-0.1,0.2c-0.1,0.1-0.2,0-0.1,0.3c-0.2,0-0.3,0-0.5,0c-0.1-0.1-0.2,0.3-0.4,0.2
	c0.3,0,0.1-0.2,0.1-0.1c-0.1-0.1-0.2,0-0.2-0.1c0-0.1-0.2,0-0.3-0.1c-0.1-0.1-0.2,0.1,0,0.1c0.2,0,0.1,0.2,0,0.1
	c-0.4,0,0.2,0-0.2-0.1c-0.4-0.1,0.1,0,0,0.1c0,0-0.3,0-0.4,0c-0.2-0.1-0.2-0.1-0.4-0.1c-0.1-0.1-0.3-0.1-0.4-0.1
	c0,0-0.3-0.2-0.2-0.1c-0.1,0.1-0.2-0.1-0.3,0c-0.1-0.1-0.3,0-0.5-0.1c-0.1,0-0.3,0-0.3-0.1c-0.2,0-0.4-0.1-0.5-0.1
	c-0.2,0-0.6-0.1-0.5,0.2c0.2-0.1,0,0.4,0,0.3c-0.1,0.1,0,0.2,0.1,0.4c-0.2,0.2-0.2,0.2-0.2,0.4c0,0.2,0,0.2,0,0.3
	c0.1,0.2-0.1,0.2-0.1,0.3c0.1,0.1-0.1,0.1,0,0.2c0,0,0,0.3,0,0.4c-0.1,0.2-0.1,0.1-0.1-0.1c0.1-0.2,0.1-0.3,0.1-0.5
	c0,0.2-0.1,0.5-0.1,0.6c-0.1,0.1-0.1,0.4-0.1,0.6c-0.1,0.5,0-0.3-0.1-0.1c-0.1,0.1-0.2,0.1-0.2-0.1c0,0,0.3,0,0.1-0.2
	c-0.1-0.3-0.2,0.3-0.2-0.1c-0.1,0.2-0.1,0.1-0.2,0c-0.1,0.3-0.1,0-0.3,0.1c-0.1-0.1-0.3,0.1-0.3-0.1c0.2-0.2-0.2-0.2-0.2-0.1
	c0,0-0.1,0.1-0.3,0.1c0,0.3-0.2-0.2-0.2-0.1c0,0.3-0.2,0-0.1,0c0.1-0.5,0.1-1.1,0.2-1.6c-0.1-0.4,0.3-1.1,0-1.4c-0.1,0-0.2,0-0.3,0
	c-0.2-0.2,0.3,0,0.5-0.1c0-0.1-0.3-0.1-0.4-0.1c-0.1-0.1-0.3-0.1-0.5-0.1c-0.2-0.2,0.2,0,0.3-0.1c0-0.2,0.4,0.1,0.1-0.1
	c0.1-0.1-0.1-0.2-0.1-0.2c-0.1-0.1,0.3-0.1,0.1-0.2c0-0.1,0-0.1-0.1-0.4c0,0,0,0,0,0c0,0-0.1,0,0,0c0,0,0,0,0,0c0-0.1,0-0.2,0-0.2
	c0.1,0,0.2,0,0.1-0.1c0-0.2,0.3-0.1,0.2-0.2c0.1-0.2-0.1,0.1-0.2-0.1c0-0.1,0.1-0.1-0.1-0.2c0.1-0.1,0.1-0.2,0.2-0.1
	c0.1-0.1,0-0.1,0-0.2c0.1-0.3,0.4-0.2,0.7-0.1c0.3-1.1,0.5-2.3,0.7-3.4c0.1-0.2,0.2-1.1,0-0.7c-0.1,0.1-0.4,0.1-0.4,0
	c-0.1-0.2-0.2,0.2-0.4,0c0,0.1-0.4,0,0-0.1c0,0,0.1-0.1,0.1-0.1c0,0-0.1,0,0-0.1c0,0,0,0.1,0,0.1c0.1,0,0.1-0.1,0-0.2
	c0.1-0.1-0.1-0.1-0.1-0.2c-0.3,0,0-0.1-0.1-0.2c0-0.2-0.1-0.1-0.1-0.2c0.2-0.1,0.1-0.1,0.1-0.2c-0.1-0.2,0.1-0.2,0.3-0.2
	c0.1-0.1,0.2-0.4,0.1-0.3c0-0.2-0.5,0-0.4-0.3c0,0,0.1-0.2,0.3-0.2c0.9-0.3,1.8-0.4,2.7-0.4C44.9,107.3,45.2,107.3,45.5,107.3z
	 M41.6,119.6c-0.2,0.2,0.2-0.1,0.1,0C41.7,119.6,41.7,119.6,41.6,119.6z M41.8,109.5c-0.1,0.2,0.2,0.1,0.1,0
	C41.9,109.5,41.9,109.5,41.8,109.5z M42.6,109.8c-0.1,0.1-0.3,0.1-0.1,0.1C42.4,109.8,42.8,110,42.6,109.8
	C42.6,109.8,42.6,109.8,42.6,109.8C42.6,109.8,42.6,109.8,42.6,109.8C42.5,109.8,42.5,109.8,42.6,109.8z M42.6,109.8
	C42.6,109.8,42.6,109.9,42.6,109.8C42.6,109.8,42.6,109.8,42.6,109.8z M43.3,120.2c0.2,0.1,0,0.1,0,0.2c0.3,0-0.1,0.1,0,0.3
	c-0.2,0.2-0.1,0.1-0.1,0C43.2,120.5,43.2,120.2,43.3,120.2C43.3,120.1,43.2,120.1,43.3,120.2C43.3,120.1,43.4,120.1,43.3,120.2z
	 M45,109.6c-0.1-0.1,0,0.1-0.1,0.2c0,0.2,0,0.3-0.1,0.4c0.2,0.1-0.1,0.1,0,0.3c0.1,0,0.1,0.1,0,0.3c-0.1-0.3-0.1,0.3-0.2,0.4
	c0,0.1-0.2,0.4,0,0.4c-0.1,0.1-0.1,0-0.2,0.2c0.1,0,0.1,0.1,0.1,0.2c0,0,0,0,0,0c0,0,0,0,0,0c0,0.1-0.1,0.2-0.1,0.2
	c0.3,0.2,0,0.1-0.1,0.3c0,0,0,0,0,0.1c0,0,0,0,0,0c0,0.1,0,0.1-0.1,0.2c0,0,0,0,0.1,0c0,0.1-0.1,0.1-0.1,0.1c0,0.1-0.1,0.1-0.1,0.2
	c1.1-0.5,2.1-1.2,2.9-2c0.1-0.2,0.6-0.6,0.3-0.6c-0.1,0-0.1-0.1-0.2-0.1c0,0,0,0,0,0c-0.1,0-0.1-0.1-0.2-0.1c-0.1,0.1-0.3,0.1-0.2,0
	c0.1,0,0.3-0.2,0.1-0.3c-0.2-0.1-0.1,0-0.2,0.1c0.1-0.1-0.1-0.2-0.2-0.2c-0.1,0-0.4-0.2-0.6-0.2c-0.1,0.1-0.3-0.1-0.5,0
	C45.3,109.5,45.1,109.7,45,109.6C45,109.5,45,109.6,45,109.6z M46.3,117.6C46.5,117.7,46.4,117.6,46.3,117.6
	C46.3,117.6,46.3,117.6,46.3,117.6z M46.5,110C46.7,110.1,46.5,110.1,46.5,110C46.5,110,46.5,110,46.5,110z M46.7,117.6
	C46.5,117.7,46.8,117.6,46.7,117.6C46.7,117.6,46.7,117.6,46.7,117.6z M46.8,110.4C47,110.7,46.7,110.5,46.8,110.4
	C46.7,110.4,46.8,110.4,46.8,110.4z M46.8,117.6c0.1,0,0.3,0.1,0.2-0.1C47,117.7,46.6,117.5,46.8,117.6z M47.4,110.5
	C47.3,110.8,47.3,110.5,47.4,110.5C47.5,110.5,47.5,110.5,47.4,110.5z"/>
<path d="M56.1,106.7c0,0,0.2,0.1,0.2,0.1c-0.1-0.1,0.2,0,0,0.2c0.1-0.1,0.1,0.2,0.2,0.2c0.1,0.1,0.3,0.2,0.2,0.3
	c0.1,0.1,0.1,0,0.2,0c0.1,0,0,0.2,0.2,0.3c0.2-0.1,0,0.2,0.1,0.1c0.1,0.1,0.3,0.2,0.2,0.4c0,0.1,0.2-0.1,0.1,0.3
	c0,0.1,0,0.2-0.1,0.3c0,0.2,0,0.3,0.1,0.5c-0.1,0.5,0-0.4-0.1,0.1c0,0.2-0.1,0.3-0.1,0.5c0,0,0,0,0,0.1c0,0,0,0,0,0c0,0,0,0.1,0,0.2
	c-0.1,0-0.1,0.4-0.1,0.5c0,0.2-0.1,0.2-0.1,0.4c-0.1,0.2,0,0.5-0.1,0.6c0,0,0,0,0,0c0,0,0,0,0,0c0,0.1,0,0.1,0,0.1
	c0,0.1-0.1,0.3-0.1,0.4c-0.1,0.1-0.1,0.4-0.1,0.4c-0.1,0.1,0,0.1,0,0.2c0,0.3-0.1,0.7-0.1,0.8c-0.1,0.5-0.2,1-0.3,1.5
	c-0.1,0.4-0.1,0.8-0.1,1.1c0,0.3-0.1,0.4-0.1,0.8c0,0.3,0,0.6-0.1,0.9c0,0.2,0,0.3-0.1,0.5c0,0.3,0,0.7,0,1c0,0.1,0.1,0.3-0.1,0.5
	c0.1,0,0,0.3,0,0.3c-0.2,0.3,0-0.2-0.2-0.2c0.1-0.2,0,0-0.1-0.2c-0.1,0.1-0.1,0.2-0.1,0c-0.1,0.3-0.1,0-0.2,0c0-0.2-0.1,0.2-0.1,0
	c-0.1-0.2-0.2,0.1-0.2,0.1c-0.1-0.2-0.2-0.1-0.3-0.1c-0.2,0.2-0.3-0.9-0.5-0.6c-0.1-0.2-0.2,0.1-0.2,0.1c-0.1,0.1-0.1,0.4-0.3,0.5
	c0-0.1-0.1,0-0.1,0.1c-0.2,0.1-0.1,0-0.1-0.1c-0.1,0.1-0.3,0.3-0.6,0.3c0-0.1-0.1-0.1-0.3-0.1c0,0.1-0.1,0.1,0,0
	c-0.1,0-0.2,0-0.3-0.1c-0.2-0.1-0.3,0-0.4-0.1c-0.1,0.1-0.1-0.1-0.1-0.1c-0.2-0.1-0.1-0.1-0.4-0.2c-0.3,0-0.2-0.1-0.5-0.1
	c-0.3,0.2,0,0-0.3-0.1c-0.1,0,0.1,0.2-0.2,0c-0.8-0.6-1-1.7-1-2.8c0.1-2.5,0.8-5,1.8-7.4c0.1-0.5,0.7-1.1,0.5-1.5
	c0.2-0.2,0.1-0.1,0.1-0.2c0.1-0.2,0.3-0.1,0.3,0c0.2-0.2,0-0.3,0.3-0.1c0.1,0,0.2,0.3,0.3,0.3c-0.1,0.3,0,0.2,0,0.5
	c0.1-0.3-0.1,0.2,0.1,0c0,0.2-0.1,0.3,0.1,0c-0.1-0.3,0.3-0.1,0.1,0c0.2,0.1-0.2,0.2,0,0.2c0-0.1,0.1,0,0.2,0.1
	c0.1,0.1,0.1,0.2,0.3,0.2c0,0,0,0,0,0c0,0,0,0,0,0c0,0.2,0,0.4-0.1,0.6c-0.1,0.1-0.3,0.4-0.1,0.5c-0.1,0.2-0.1,0.2-0.1,0.5
	c-0.1,0.4-0.1-0.1-0.2,0.2c0.2,0.1,0,0.1,0,0.3c0.2,0.1-0.1,0.5,0,0.3c-0.1,0.1-0.1,0.1,0,0.3c0,0-0.1,0-0.2,0.1
	c-0.1,0.1,0,0.2,0,0.3c-0.1,0.2,0,0.1,0,0.3c-0.2-0.1-0.1,0-0.2,0.1c0,0,0,0,0,0c0,0,0,0,0,0c-0.1,0.2,0,0.2-0.1,0.3
	c0,0.1-0.2,0.3-0.1,0.5c0.1,0.1,0.1,0.3,0,0.3c-0.1-0.2-0.1,0.2-0.1,0.2c-0.2,0.1,0.1,0.2-0.1,0.3c0.1,0.2,0,0-0.1,0.2
	c0.1-0.2,0.1,0.3,0,0.4c0,0.1-0.1,0.3-0.1,0.5c-0.1,0.2-0.1,0.3-0.1,0.5c0,0-0.2,0.3,0,0.2c0,0,0,0.1,0,0.1c0,0,0,0,0,0
	c0,0,0,0.1,0,0.1c0,0.1,0,0.1-0.1,0.1c0,0,0,0,0,0c0,0,0,0,0,0c0,0,0,0.1,0.1,0.1c-0.1,0.1-0.1,0.3-0.1,0.4c-0.1,0.1,0,0.2,0,0.3
	c0.1,0.1-0.1,0.5,0.1,0.7c-0.1,0.1,0.1,0.2,0,0.4c0,0.2-0.1,0.4,0.1,0.2c0.4-0.3,0.7-0.7,1-1c0.3-0.4,0.8-0.8,0.9-1.3
	c0.2-1.8,0.7-3.7,1.1-5.5c0.3-1,0.5-2.1,0.9-3.1c0-0.3,0.1,0.2,0.1,0C55.9,106.9,55.9,106.9,56.1,106.7
	C56.1,106.6,56.1,106.7,56.1,106.7z M50.8,119.3C50.8,119.4,50.6,119.3,50.8,119.3C50.8,119.3,50.8,119.3,50.8,119.3z M51.7,119.4
	c0.1,0.1,0.1,0.1,0.2,0.1C52.3,119.8,51.9,119.4,51.7,119.4C51.7,119.4,51.7,119.4,51.7,119.4z M51.7,115.5
	C51.7,115.5,51.7,115.5,51.7,115.5C51.8,115.5,51.7,115.5,51.7,115.5z M51.9,114.3c0.1-0.2,0,0,0-0.1
	C51.9,114.2,51.9,114.3,51.9,114.3z M53.4,119.3c-0.1,0-0.3,0.1-0.4,0.2c-0.2,0-0.2,0-0.3,0c-0.1,0-0.1,0-0.2,0c0,0,0,0,0,0
	c0,0,0,0,0,0c0,0,0,0-0.1,0c0,0-0.1-0.1-0.1,0c0.1,0.2,0.4,0.2,0.6,0.2c-0.2,0.2,0.1,0,0.1-0.1c0,0.2,0.4,0,0.6-0.1
	c0.3-0.2-0.1,0-0.1-0.3C53.5,119.2,53.5,119.3,53.4,119.3z M54.6,103.4c0.2,0.1,0.3,0.4,0.3,0.5c0,0.1,0.2,0.2,0.3,0.3
	c-0.1,0.1,0.1,0.1,0.1,0.2c-0.1-0.1-0.1,0,0,0.1c0.1,0.1,0.1,0.2,0.1,0.3c0,0.2-0.1,0.3,0,0.4c0,0.1-0.1,0.1-0.1,0.2
	c0.1,0.1-0.3,0.1-0.2,0.3c0.1,0.1-0.1,0,0,0.1c0,0.1-0.2,0.2-0.3,0.3c0.1,0.1-0.1,0.1-0.1,0.2c-0.1,0.1-0.3,0.2-0.4,0.3
	c0,0,0.3-0.3,0.3-0.3c0.2-0.1,0-0.1-0.1,0c-0.1,0,0,0,0,0c0,0,0,0,0,0c0,0.1-0.2,0.1-0.1,0c0.1-0.1-0.3,0.1-0.1,0.1
	c0.1-0.1,0,0.1-0.2,0.2c-0.1,0,0.2-0.1,0-0.1s0,0-0.1,0.1c-0.1-0.1-0.2,0.1-0.3,0.1c-0.1,0-0.3-0.3-0.3-0.1c0,0.1-0.2-0.2-0.3-0.2
	c-0.1,0.1,0.1,0.3,0.1,0.4c0,0.2-0.1,0-0.1-0.1c-0.1,0-0.1-0.3-0.2-0.2c-0.1,0-0.1-0.2,0-0.1c0-0.2-0.2-0.4-0.3-0.6
	c-0.3-0.1-0.4-0.4-0.4-0.7c0-0.8,0.7-1.4,1.4-1.5c0.2,0,0.3-0.1,0.5-0.1C54.3,103.3,54.4,103.3,54.6,103.4z M52.4,119.5
	C52.4,119.5,52.4,119.5,52.4,119.5C52.4,119.5,52.4,119.5,52.4,119.5z M52.8,111.2C52.8,111.2,52.8,111.2,52.8,111.2
	C52.8,111.2,52.8,111.2,52.8,111.2z M52.8,119.4C52.7,119.4,53,119.3,52.8,119.4C52.9,119.4,52.9,119.4,52.8,119.4z M53.2,108.5
	c0.2,0.2,0.1-0.1,0.1-0.2C53.1,108.5,53,108.5,53.2,108.5z M53.4,108.4C53.4,108.4,53.4,108.4,53.4,108.4
	C53.4,108.4,53.4,108.4,53.4,108.4z M53.8,106.8c-0.1,0-0.3,0.1-0.4,0C53.6,106.8,53.8,106.8,53.8,106.8
	C54,106.8,53.9,106.8,53.8,106.8z M53.9,106.7C53.9,106.8,53.9,106.7,53.9,106.7C53.9,106.7,53.9,106.7,53.9,106.7z M54.1,106.7
	C53.9,106.7,54.1,106.6,54.1,106.7C54.2,106.6,54.1,106.7,54.1,106.7z M54.4,106.3C54.4,106.3,54.4,106.3,54.4,106.3
	C54.4,106.3,54.4,106.3,54.4,106.3z M58,103.6c0.1,0,0.1,0.2,0.2,0.2c0.1,0.1,0.2,0.3,0.2,0.4c0.1,0.1,0,0.1,0.1,0.2
	c0,0.2,0,0.5-0.1,0.7c0,0.1-0.1,0.1-0.1,0.2c0.1,0.2-0.3,0.2-0.1,0.3c-0.1,0,0,0.1-0.1,0.1c0,0-0.2,0.1-0.1,0c0.1-0.2,0-0.1,0,0
	c-0.1,0.1-0.3,0.3-0.2,0.3c0,0,0,0.1,0.1-0.1c0.2,0.1-0.2,0.2-0.2,0.2c0.1-0.1,0.1-0.2,0-0.1c-0.1-0.1,0.1,0,0.1-0.1
	c-0.1,0-0.1,0.1-0.2,0.1c0.1,0,0,0.2-0.1,0.1c0.1-0.2-0.2,0-0.2,0c-0.1,0.1,0.1,0.1,0.1,0.1c-0.2,0.2-0.3-0.1-0.4,0
	c-0.1,0.1-0.1-0.2-0.2-0.1c0,0-0.1,0-0.1-0.1c-0.1-0.1-0.1,0-0.1,0.1c0.1,0.1,0.1,0.5,0,0.2c-0.1-0.1,0-0.3,0-0.5
	c-0.2-0.1-0.3-0.4-0.4-0.6c-0.2-0.2-0.3-0.4-0.3-0.7c0-0.3,0-0.6,0.2-0.9c0.2-0.5,0.7-0.8,1.1-0.8C57.5,102.9,57.9,103.2,58,103.6z
	 M56.7,106.5c0,0.1,0.1,0,0.1,0.1c0.1-0.1,0.4-0.1,0.3,0c0,0.1-0.1,0-0.2,0.1C56.8,106.7,56.4,106.6,56.7,106.5
	C56.7,106.5,56.7,106.5,56.7,106.5z M56.8,112.2L56.8,112.2C56.8,112.2,56.9,112.2,56.8,112.2z M57.4,106.4c0.1,0.1-0.3,0.3-0.2,0.1
	C57.3,106.4,57.3,106.5,57.4,106.4c0.1,0,0.1-0.1,0.2-0.2C57.7,106.4,57.4,106.4,57.4,106.4z M58,106c-0.1,0-0.1-0.1,0-0.1
	C58,105.9,58.1,105.9,58,106z"/>
<path d="M64.1,106.4c0.1,0.1,0.2,0,0.3,0.2c0,0,0.2,0.3,0.3,0.2c0,0.2,0.2,0.1,0.3,0.3c0.2,0.1,0.3,0.1,0.4,0.2
	c-0.1,0.1,0.1,0.1,0.1,0.1c-0.2,0,0.1,0.1,0.1,0.2c0.2,0.1,0,0.2,0.2,0.3c0,0.1,0.1,0.3,0.1,0.5c0,0.3,0.1,0.7,0.1,0.9
	c-0.1,0.1-0.2,0.5-0.2,0.7c-0.1,0.3-0.1,0.4-0.1,0.5c0,0,0,0.1,0,0.1c0,0,0,0,0,0c-0.1,0,0,0,0,0c0,0.1-0.1,0.2,0,0.1
	c0,0.2,0,0.3-0.1,0.5c0,0-0.2,0.1-0.2,0.1c-0.2,0.3-0.1,0,0-0.2c-0.1,0.2,0.1-0.1,0.1-0.1c0,0,0,0-0.1,0c0,0,0-0.1,0-0.1
	c0,0.1,0,0.1,0,0.1c-0.1,0-0.2,0-0.1-0.1c0,0-0.1,0-0.1,0c0,0,0,0,0,0c0,0.1,0.1,0.3-0.1,0.2c-0.1,0.1-0.2,0.1-0.1,0.2
	c-0.1,0-0.1,0.1,0.1,0.1c0.1,0,0.2-0.1,0.2,0.1c0.3-0.3,0,0.4-0.1,0.1c-0.2,0.2,0-0.1-0.3,0.1c0,0.3-0.3,0.2-0.3,0.3
	c-0.1,0.1-0.2,0.4-0.1,0c0.2,0,0.1-0.1,0-0.1c-0.1,0.1,0,0.1-0.1,0.2c-0.1,0.1-0.2,0.2-0.3,0.3c-0.1-0.1,0,0.3-0.1,0.2
	c-0.3,0.1-0.2,0.3,0.1,0.4c0.4,0.3,0.8,0.7,1,1.2c0.1,0.3,0.3,0.9,0.2,1.1c-0.1,0,0,0.3,0,0.3c0,0.2-0.2-0.2-0.1,0.1
	c0.2-0.1-0.1,0.3,0,0.3c-0.1,0.3-0.1,0.2-0.1,0.4c-0.1,0.2-0.1,0.1-0.1,0.3c0,0-0.2,0.2,0,0.1c-0.1,0.2-0.3,0.4-0.3,0.5
	c0,0-0.1,0.1-0.1,0.1c0,0,0,0,0,0c0,0,0,0,0,0c-0.1,0.1-0.2,0.2-0.3,0.3c0,0.2-0.5,0.3-0.5,0.5c-0.1,0-0.3,0.3-0.3,0.1
	c-0.1,0.1-0.1,0-0.2,0.1c0,0.1-0.1,0.1,0,0c0,0-0.1,0-0.1,0c0.1,0-0.2,0.3-0.2,0.1c0,0-0.1,0-0.1,0c0,0.2-0.2,0.1,0,0
	c-0.1,0-0.3,0-0.3-0.1c0,0,0,0,0,0c0,0,0.1,0,0.1,0c0.2,0,0.4,0,0.5-0.1c0,0.2,0.3-0.1,0.5-0.1c0.2-0.1,0.4-0.2,0.5-0.4
	c0.2-0.1,0.4-0.4,0.5-0.6c0,0,0,0,0,0c0,0,0,0,0,0c0,0,0,0,0,0c-0.1,0.2-0.2,0.2-0.3,0.4c-0.2,0.1-0.2,0.2-0.3,0.2
	c0.1,0.1-0.1,0.1-0.2,0.2c0,0.1-0.4,0.2-0.1,0c0-0.2-0.3,0.1-0.5,0.1c-0.2,0.2-0.3,0-0.4,0.1c-0.2,0-0.2-0.2-0.4-0.1
	c-0.2,0,0.1,0.1,0.2,0.1c0,0.1-0.4-0.1-0.6-0.1c-0.2-0.1-0.9-0.3-0.5,0c0.3,0.2,0.3,0.1,0.4,0.2c-0.1,0.2,0.5,0.1,0.6,0.3
	c-0.3,0.1-0.2,0.1-0.5-0.1c0-0.1,0,0.1-0.1,0.1c-0.1-0.2-0.5-0.3-0.6-0.5c0.3,0-0.2-0.4-0.4-0.5c-0.1-0.2-0.4-0.2-0.4,0.1h0
	c0,0,0,0,0,0c0,0,0,0,0,0.1c-0.1,0,0,0.4-0.1,0.3c-0.1,0.1,0.1,0.3,0,0.3c-0.1,0.1-0.1,0.4-0.1,0.6c0,0.2,0,0.2-0.1,0.3
	c0.1,0.1-0.1,0.1,0-0.1c0.1-0.1,0-0.6-0.1-0.3c-0.1,0.1-0.1,0.1-0.1,0.2c-0.2,0-0.2,0.3-0.2,0.4c-0.1,0.1-0.3,0.2-0.1-0.1
	c-0.3,0,0,0-0.2,0.1c-0.1-0.1-0.3,0-0.3,0c-0.1-0.2-0.1,0.1-0.1,0.1c0-0.3-0.3,0.3-0.2-0.1c-0.1-0.1-0.3,0-0.1,0.1
	c-0.1,0.2-0.2-0.2-0.3,0c-0.3-0.1,0.1,0,0-0.2c0-0.2,0,0-0.1,0c0-0.1-0.1,0.2-0.3,0c0-0.1-0.1,0.1,0,0.1c0,0.1-0.1,0-0.2-0.1
	c-0.1,0.2-0.2,0.1-0.2-0.1c0.1-1.4,0.5-2.9,0.8-4.3c0.7-2.4,1.5-4.7,2.9-6.9c0.6-0.9,1.4-1.9,2.5-2
	C63.7,106.3,63.9,106.3,64.1,106.4z M59.6,118.9c0,0.1,0.2-0.1,0.1-0.1c0,0,0,0,0,0C59.7,118.8,59.7,118.9,59.6,118.9z M59.9,118.7
	C60,118.7,60,118.7,59.9,118.7c0.1,0,0.1,0,0.1-0.1C60,118.6,60,118.6,59.9,118.7c0.1-0.1-0.1-0.1-0.1-0.2
	C59.6,118.7,60,118.6,59.9,118.7z M59.9,118.4C59.9,118.4,59.9,118.4,59.9,118.4C59.9,118.4,59.9,118.4,59.9,118.4
	C59.9,118.4,59.9,118.3,59.9,118.4C59.8,118.4,59.8,118.4,59.9,118.4z M60,118.2c-0.1,0.3,0,0.6,0.1,0.1c-0.1-0.1,0.2-0.5,0-0.5
	C60,118,60.1,118,60,118.2z M60.1,117.6c0.1,0.1,0.1-0.2,0.1-0.3C60.1,117.3,60.1,117.6,60.1,117.6z M60.2,117.7
	C60.2,117.7,60.2,117.7,60.2,117.7C60.2,117.7,60.2,117.7,60.2,117.7z M60.5,115.9C60.5,115.9,60.5,115.9,60.5,115.9
	C60.5,115.9,60.5,116,60.5,115.9C60.5,116,60.5,116,60.5,115.9C60.4,116.1,60.5,116.1,60.5,115.9C60.5,115.9,60.5,115.9,60.5,115.9z
	 M60.7,114.9c-0.1,0.1,0,0.3-0.1,0.4c0,0.2,0,0.3-0.1,0.5c0.2,0,0-0.4,0.2-0.4c-0.1-0.1,0-0.4,0.1-0.4c0-0.1,0.1-0.4,0.1-0.5
	C60.7,114.7,60.8,114.8,60.7,114.9z M61.4,113.8c-0.2,0-0.2,0.3-0.1,0.2c0.1-0.2,0,0.2-0.1,0.2c-0.3,0.2,0,0.4-0.2,0.5
	c0.1,0-0.2,0.2-0.2,0.6c0,0-0.2,0.6-0.2,0.8c-0.1,0.4,0.2,0,0.1,0.2c0.1,0.5,0.1-0.1,0.3,0.1c-0.2,0-0.1,0-0.1,0.1
	c0.1,0.3,0.9,0.1,1.2-0.3c0.4-0.4,0.9-1.1,0.8-1.7c0-0.1-0.5,0.1-0.2-0.2c0.2,0,0.2-0.4,0.1-0.2c-0.2,0.1-0.3,0-0.4,0
	c-0.2,0-0.3,0.1-0.3,0c0.1,0-0.2,0.1-0.2,0c-0.1,0.2-0.1,0.1-0.1,0c0,0.2-0.4,0.2-0.1,0C61.9,113.8,61.2,114,61.4,113.8
	C61.4,113.8,61.4,113.8,61.4,113.8z M61.7,114.2c0.1,0.1-0.3,0-0.1,0C61.6,114.2,61.6,114.2,61.7,114.2z M61.7,111.8
	c-0.1,0.2,0.3-0.2,0-0.2C61.7,111.7,61.6,111.7,61.7,111.8z M61.8,111.7c0.2-0.2,0.1,0,0-0.2C61.8,111.6,61.8,111.7,61.8,111.7z
	 M61.9,114.3C61.9,114.5,61.7,114.2,61.9,114.3C61.9,114.2,61.9,114.3,61.9,114.3z M62.1,118.5c0,0-0.1,0-0.2,0
	C62,118.5,62.2,118.5,62.1,118.5c0.2,0.1,0.2-0.1-0.1-0.1C62,118.4,62.1,118.5,62.1,118.5z M63.5,109.1c0.1-0.2-0.2,0-0.2-0.1
	c-0.2-0.1-0.2,0.2-0.2,0.2c-0.1-0.1-0.2,0.2-0.3,0.3c-0.1-0.1,0,0.2,0.1,0c0.2-0.3,0,0.2-0.2,0.3c-0.1,0.2-0.2,0.2-0.3,0.2
	c-0.1,0.1-0.1,0.2,0.1,0.3c0-0.2-0.1-0.1,0-0.2c-0.2-0.1,0.3,0,0.2,0c0,0.1-0.2,0.2-0.2,0.3c0,0.3-0.3,0.2-0.1,0
	c-0.1,0-0.3,0.1-0.2,0.1c0.1,0.1-0.1,0.3-0.1,0.3c-0.1,0.2-0.1,0.2-0.1,0c-0.2,0,0,0.5-0.2,0.3c-0.1,0.1-0.1,0.3,0.2,0.1
	c0.1,0.1,0.1-0.4,0.2-0.2c0,0.2-0.1,0.1-0.2,0.3c0,0.2-0.2,0-0.1-0.1c-0.2,0.1,0,0.3,0,0.3c0.6-0.6,1.2-1.3,1.5-2.1
	c0-0.3,0.2-0.4,0.2-0.5C63.8,109.1,63.4,109.2,63.5,109.1z M62,114C61.9,114.1,62.2,114,62,114C62,113.9,62,114,62,114z M62,111.5
	C62,111.5,62,111.5,62,111.5C62,111.5,62,111.4,62,111.5C62,111.5,62,111.5,62,111.5z M62.3,118.6C62.4,118.7,61.9,118.7,62.3,118.6
	C62.2,118.6,62.2,118.6,62.3,118.6C62.2,118.6,62.2,118.6,62.3,118.6z M62.1,118.5C62.1,118.5,62.1,118.5,62.1,118.5
	C62.1,118.5,62.1,118.5,62.1,118.5z M62.2,114.8c-0.2,0,0.3-0.3,0.4-0.3C62.5,114.5,62.3,114.7,62.2,114.8z M62.4,110.8
	c-0.1,0.1,0-0.1,0.1-0.2C62.5,110.7,62.5,110.8,62.4,110.8z M62.4,118.5C62.4,118.5,62.5,118.5,62.4,118.5
	C62.4,118.5,62.4,118.5,62.4,118.5C62.4,118.5,62.4,118.5,62.4,118.5z M62.9,114.1C62.7,114.3,62.6,114.1,62.9,114.1
	C62.8,114.1,62.8,114.1,62.9,114.1z M63.3,109.6c-0.3,0.1-0.2,0,0-0.2C63.5,109.5,63.2,109.4,63.3,109.6z M63.3,109.1
	c-0.2,0.1,0.1,0-0.1,0.1C63,109.5,63.2,109.1,63.3,109.1C63.3,109.1,63.3,109.1,63.3,109.1z M63.3,118.2
	C63.4,118.2,63.4,118.2,63.3,118.2C63.3,118.2,63.1,118.3,63.3,118.2C63.3,118.2,63.3,118.2,63.3,118.2z M63.3,109.3
	C63.3,109.4,63.3,109.2,63.3,109.3C63.3,109.2,63.3,109.2,63.3,109.3z M63.6,108.5c-0.1,0-0.2,0.3-0.1,0.1c0.1,0,0.3-0.1,0.3-0.3
	c0,0,0.1,0,0,0c0,0,0,0,0,0c0,0,0,0,0,0C63.8,108.5,63.6,108.5,63.6,108.5z M63.6,108.8c0,0.2,0.2,0.1,0.1-0.1
	C63.7,108.8,63.6,108.7,63.6,108.8z M63.8,108.4C63.8,108.4,63.8,108.4,63.8,108.4C63.8,108.4,63.8,108.4,63.8,108.4z M64.2,112.7
	c-0.1-0.1,0-0.3,0-0.2c0.1,0,0.1,0,0.2-0.1C64.6,112.5,64.3,112.7,64.2,112.7z M64.4,112.8C64.2,113.2,64.1,113,64.4,112.8
	C64.4,112.8,64.5,112.8,64.4,112.8z M64.4,117.6C64.4,117.6,64.4,117.6,64.4,117.6C64.4,117.6,64.4,117.6,64.4,117.6z M64.9,112.3
	c-0.1,0.1-0.1,0.2-0.2,0.3c0,0,0,0,0,0c0,0,0,0,0,0c-0.2,0-0.3,0.3-0.2,0C64.7,112.5,64.7,112.4,64.9,112.3
	C64.9,112.2,65,112.3,64.9,112.3z M64.9,111.7c-0.1,0.1-0.2,0.2-0.2,0.2c-0.1,0.1,0.1,0.2,0.1,0.1c0-0.2,0.3-0.2,0.2-0.3
	C64.9,111.7,64.9,111.7,64.9,111.7z M65,112.2c-0.2,0,0.1-0.3,0.1-0.3C65.2,112,65,112.2,65,112.2z M65.2,111.4
	c0.1,0.1-0.2,0.1,0.1-0.1C65.3,111.3,65.2,111.4,65.2,111.4z M65.6,110.9c0-0.1-0.1,0,0-0.2C65.5,110.9,65.4,111.1,65.6,110.9z
	 M65.7,110.6C65.8,110.6,65.8,110.6,65.7,110.6C65.8,110.6,65.8,110.6,65.7,110.6z M65.9,110.6C65.8,110.8,65.7,110.7,65.9,110.6
	C65.9,110.6,65.9,110.6,65.9,110.6z"/>
<path d="M69.8,105.7c0.2,0,0.2,0.1,0.3,0.1c0,0.1,0.1,0.2,0.3,0.3c1.1-0.4,2.3-0.5,3.4-0.6c0.4,0,1-0.1,1.2,0
	c0.2-0.2,0.3,0.1,0.4,0.1c0.1-0.1,0.2,0.1,0.3,0.1c0,0.1,0.2,0.1,0,0.2c0.1,0,0.1,0.2-0.1,0.3c0,0-0.1,0.2-0.1,0.2
	c0,0.2,0,0.2-0.1,0.2c0,0.2,0.2,0.2,0.2,0.3c-0.1,0.1-0.1,0.1-0.2,0.3c-0.3-0.1-0.2,0.2-0.1,0.3c-0.1,0.2-0.3-0.1-0.3,0
	c-0.2,0-0.3,0.1-0.4,0c-0.2,0.1-0.3,0-0.4,0.2c-0.1,0.1-0.3,0,0-0.1c-0.1,0.1-0.2,0-0.3,0.1s0,0-0.2,0.1c0-0.2-0.3,0.1-0.4,0
	c-0.1,0-0.3,0.1-0.4,0.1c0,0.1-0.3-0.1-0.5,0.1c0,0,0,0,0,0c0,0,0,0,0,0c0.2,0,0.4,0.1,0.1,0.2c0-0.2-0.3,0.2-0.4,0.1
	c0,0-0.5,0.2-0.3,0c-0.2-0.1-0.1,0.2-0.3,0.1c-0.2,0.1-0.3-0.1-0.3-0.1c0.2,0.2-0.3,0.3-0.2,0.1c-0.2-0.1-0.1-0.1,0-0.2
	c-0.3-0.2,0,0.3-0.2,0.1c-0.2,0,0,0.2-0.2,0.2c-0.1-0.1-0.2,0.1-0.1,0.3c-0.1,0.2,0-0.2-0.1,0.1c0,0.1,0,0-0.1,0.2
	c0.1,0.1-0.1,0.1,0,0.2c0,0.3-0.3,0.2-0.2,0.3c-0.1,0.1,0,0.1,0,0.3c-0.1,0.2-0.3,0.3-0.1,0.4c0,0,0,0.1-0.1,0.1c0,0,0,0,0,0
	c0,0,0,0,0,0c0,0.1-0.1,0.1-0.1,0.1c0,0,0.2,0.2-0.1,0.2c0,0,0,0.2,0,0.4c0,0,0,0,0,0c0,0,0,0,0,0c0,0,0,0,0,0.1
	c1.1-0.3,2.1-0.6,3.2-0.7c0.4,0,0.9-0.1,1.3,0c0,0,0.1,0,0.1,0.2c0.3,0.2-0.1,0.1,0.1,0.2c-0.2,0.2,0,0.1,0,0.3
	c-0.1-0.1-0.1,0,0,0.1c0.2,0,0,0.1,0,0.2c-0.1-0.1-0.1-0.3-0.1,0c0.1,0.1,0.3,0.4,0.1,0.2c0,0-0.1,0.1-0.2,0.2c0,0,0,0,0,0
	c0,0,0,0,0.1,0c0.1,0.1,0.2,0.1,0,0.2c-0.3,0.2,0,0,0,0.2c0.2-0.1,0,0.2-0.1,0.2c-0.2,0-0.2,0.2-0.1,0.1c0.1,0-0.1,0.3-0.1,0.1
	c0,0.2-0.5,0.1-0.4,0.3c-0.2-0.1-0.2,0.2-0.3,0.1c-0.2,0.2-0.2-0.1-0.2,0.1c-0.2,0-0.4-0.1-0.6,0c-0.1,0.1-0.3,0-0.4,0.1
	c-0.1,0-0.1,0-0.2,0c-0.2-0.1,0,0.2-0.2,0.1c0.2-0.1-0.5,0-0.2,0.1c-0.3,0.2-0.2-0.2-0.4,0c-0.2,0.2-0.1,0.1-0.2,0.1
	c-0.1,0-0.2,0-0.3,0.1c0.1,0.1-0.1,0.1,0,0c-0.1,0.1-0.2,0.1-0.3,0.1c-0.1,0.1-0.3,0.1-0.2,0.1c-0.1-0.1-0.1,0.1-0.2,0
	c-0.1,0.2-0.5,0.2-0.4,0.2c-0.2-0.1-0.1,0.5-0.2,0.8c-0.2,0,0.1,0.1,0,0.4c-0.1,0.1,0,0.3,0,0.5c-0.1,0,0.2,0.3-0.1,0.4
	c0,0.4,0.1-0.1,0.1,0.3c0,0,0,0.1,0,0.1c0,0,0,0,0,0c0.1,0,0.1,0.1,0,0.1c0,0.1,0.1,0.1,0.1,0.2c0.1,0.3-0.1,0,0,0.3
	c0.1,0.1,0,0.1,0.1,0.2c0.9-0.2,1.6-0.8,2.4-1.4c0.1,0,0.1,0,0.3,0.1c0.1-0.1,0.1,0,0.2,0.1c0.3-0.1-0.1,0.2,0.1,0.1
	c0.2,0.1,0.3-0.2,0.4,0c-0.1,0.1,0.1,0.1,0.2,0c0.1,0,0.1,0.3,0.1,0.1c0,0,0.1,0,0,0c0,0,0,0,0-0.1c0.1,0.2,0.5-0.1,0.4,0.1
	c0.3,0,0.1,0.3,0.3,0.3c0.1,0,0,0.2,0.2,0.1c0,0.3-0.2-0.1-0.3,0.1c0,0.2-0.3,0.1-0.1,0c-0.1,0-0.2,0.3-0.1,0.2
	c0,0.1-0.1,0.3-0.3,0.3c-0.2,0.2-0.4,0.2-0.5,0.4c-0.1,0.1-0.4,0.2-0.3,0.2c0.1,0,0.3-0.2,0.4-0.3c0,0.3,0.1,0.1,0.2,0.1
	c0.1-0.1,0.3-0.2,0.4-0.3c0.2-0.1,0.2,0-0.1,0.1c-0.3,0.1-0.5,0.4-0.7,0.5c-0.1,0.2-0.3,0.1-0.3,0.3c-0.1,0-0.2,0.2-0.4,0.2
	c-0.1,0-0.1,0.1-0.3,0.2c-0.3,0.1-0.7,0.3-1.1,0.3c-0.3,0-0.6-0.1-0.9-0.2c-0.2,0-0.3-0.1-0.5-0.2c0.2,0-0.1-0.2-0.2-0.2
	c-0.3-0.2-0.1,0.1-0.3,0c-0.3-0.2,0,0.1-0.2,0c-0.1-0.1-0.1-0.1-0.2-0.1c0,0,0,0,0,0c0,0,0,0,0,0c-0.1,0-0.1,0-0.1,0
	c-0.8-0.4-1.1-1.3-1.2-2.2c-0.1-1.9,0.3-3.8,0.9-5.6c0.1-0.3,0.4-0.9,0.3-1c0-0.2-0.1-0.1-0.2-0.4c-0.2,0.1-0.1-0.2-0.1-0.3
	c0.1-0.1-0.2,0-0.3-0.2c0.4,0-0.1-0.1,0.1-0.2c0.2,0,0.1-0.1,0.2-0.2c-0.1-0.2,0-0.2,0-0.3c0.2,0,0.2-0.2,0.2-0.2
	c0-0.2-0.1,0-0.2-0.1c0.2,0,0-0.1-0.1-0.1c0.1,0.2-0.3-0.3-0.2-0.3c0-0.1,0.4-0.1,0.2-0.1c0.8-0.3,1.7-0.1,1.7-0.7
	c0-0.2,0.2-0.3,0.2-0.2C69.6,105.9,69.6,105.7,69.8,105.7C69.8,105.7,69.8,105.7,69.8,105.7z M68.1,118C68.1,118,68.2,118,68.1,118
	C68.2,118,68.1,118,68.1,118z M69,118.3C69,118.3,69,118.3,69,118.3C69,118.3,69,118.3,69,118.3z M69.9,110.4
	C69.8,110.5,70,110.4,69.9,110.4L69.9,110.4z M70.1,118.4c0.3,0.1,0.4,0.1,0.5,0c0-0.1-0.4,0.1-0.2,0
	C70.6,118.3,70.3,118.3,70.1,118.4C70.2,118.3,70,118.4,70.1,118.4z M70.2,118.4C70.1,118.5,70.3,118.4,70.2,118.4
	C70.2,118.4,70.2,118.4,70.2,118.4z M70.3,105.8C70.4,106,70.1,105.8,70.3,105.8C70.3,105.8,70.3,105.8,70.3,105.8z M70.6,118.3
	c-0.2,0.3,0,0.1,0.2,0.1c0.1,0,0.3,0,0.2-0.1C71,118.3,70.7,118.4,70.6,118.3z M71,108.1C71.1,108.2,71.2,108.1,71,108.1
	C71,108.1,71,108.1,71,108.1z M71.9,117.9c-0.1,0.1-0.3,0.1-0.4,0.2c-0.3,0.2-0.1,0.1,0,0.1c0.2,0,0.4-0.1,0.5-0.1
	c0-0.1,0.4-0.4,0.2-0.2c0.1,0.1,0.2-0.2,0.1-0.2C72.2,117.9,72,117.8,71.9,117.9z M71.7,118.3C71.7,118.3,71.7,118.3,71.7,118.3
	C71.6,118.3,71.7,118.3,71.7,118.3C71.6,118.4,71.7,118.4,71.7,118.3C71.8,118.3,71.8,118.3,71.7,118.3z M73.1,115.9
	C73.1,115.9,73.1,115.9,73.1,115.9C73.1,115.9,73.1,115.9,73.1,115.9z M73.4,107.8C73.4,107.9,73.2,107.8,73.4,107.8
	C73.3,107.8,73.4,107.8,73.4,107.8z M73.5,117C73.2,117.2,73.3,117.1,73.5,117C73.6,117,73.5,116.9,73.5,117z M73.6,117.1
	C73.6,117,73.7,117,73.6,117.1C73.7,117,73.7,117.1,73.6,117.1z M74.4,111.5C74.4,111.5,74.4,111.5,74.4,111.5
	C74.4,111.5,74.4,111.5,74.4,111.5z M74.4,111.8C74.5,111.8,74.5,111.8,74.4,111.8C74.5,111.8,74.5,111.9,74.4,111.8z M74.7,107.3
	C74.7,107.4,74.8,107.3,74.7,107.3C74.8,107.3,74.7,107.3,74.7,107.3z M75.2,106.2c0.1,0.1,0,0.3,0.2,0.2
	C75.3,106.2,75.5,106.3,75.2,106.2C75.2,106.2,75.2,106.2,75.2,106.2z"/>
<path d="M84.1,104.8c0.1,0.1,0.3,0.4,0.5,0.4c0.1,0.1,0.2,0,0.3,0.1c0.1,0.2,0.4,0.3,0.4,0.4c0.2,0.2,0.3,0.4,0.3,0.6
	c0,0.4,0.2,0.3,0.2,0.7c-0.1,0-0.1,0.1-0.1,0.2c0.1-0.2,0.2,0.4,0,0.2c-0.1,0.5,0,1,0,1.4c-0.1,0.1,0.2,0.1,0,0.2
	c-0.1,0.1,0,0.1,0,0.2c0-0.1,0-0.1,0-0.1v0c0.1-0.1,0.1-0.1,0.1,0.2c-0.1,0-0.2,0.4-0.1,0.4c0.1,0.3,0,0.4,0,0.7
	c0,0.1-0.1,0.4,0.1,0.3c0,0.2,0,0.2-0.1,0.1c0,0,0,0,0,0c0,0,0,0,0,0.1c0,0.3,0.2,0.3,0,0.5c0.1,0.1-0.2,0.4,0,0.6
	c0,0.2-0.2,0-0.1,0.2c0.1-0.1,0.1,0.1,0.3,0.1c-0.1,0.1-0.2,0.1-0.2,0.2c0.2,0,0.2,0.2,0,0.3c0,0.1,0.4,0,0.2,0.1
	c-0.2-0.1-0.1,0.2-0.2,0.1c-0.1-0.1-0.1,0.1-0.1,0.1c-0.1,0.1,0.4-0.1,0.2,0c-0.2,0,0.1,0.2-0.1,0.1c-0.1,0.1,0.1,0-0.1,0.2
	c-0.1-0.2-0.1,0.1-0.1,0.2c-0.1,0,0.1,0.3-0.1,0.3c0,0.2,0,0.2,0,0.5c0,0.2,0,0.4-0.1,0.6c0.2,0.1,0,0.1,0.1,0.2
	c-0.1,0-0.1,0.3-0.1,0.4c0.2,0.1-0.1,0.1,0,0.2c-0.1,0.1,0,0.4-0.1,0.5c0.1,0.2,0,0.3,0.1,0.5c0,0.3-0.4-0.2-0.3,0
	c-0.1,0-0.1,0.1-0.1,0.1c-0.1,0-0.3,0.1-0.3,0c0.1,0-0.2-0.1-0.2-0.1c0,0.3-0.2-0.2-0.2-0.1c-0.1,0.2-0.2-0.2-0.4-0.1
	c0.1-0.2-0.2-0.3-0.1-0.1c-0.1,0.2-0.4-0.1-0.3,0.1c-0.1,0.4-0.1-0.1-0.2,0c0,0.1-0.2-0.1-0.2,0c-0.2,0,0.3-0.3-0.1-0.2
	c0-0.6,0.1-1.1,0.1-1.7c-0.1-0.3,0.2-1.1-0.2-1c-0.4-0.2,0.4,0,0.3-0.3c0.1-0.1,0-0.3-0.3-0.1c0.2,0.1-0.1,0.2,0,0
	c-0.1,0-0.3,0-0.4,0.1c-0.2,0-0.2,0.2,0,0.1c0.2,0.1-0.3,0.1-0.2,0.2c0.1,0,0,0.1,0.1,0.1c-0.2,0-0.6,0.2-0.7,0
	c-0.2,0.2-0.1,0-0.3,0c-0.2,0.2-0.4,0-0.5,0.1c-0.1-0.2-0.3,0-0.4-0.1c0,0.1,0,0.3,0,0.1c-0.1,0.1-0.1,0.2,0.1,0.1
	c0.2,0,0.1,0.4-0.1,0.3c-0.1,0.1,0,0.3-0.1,0.2c-0.1-0.3-0.3,0.5-0.2,0.4c0.1,0,0.1,0.3,0,0.2c0-0.2-0.4,1-0.4,1.1
	c0-0.2-0.2,0.1,0,0.1c-0.1,0.2-0.1,0.3-0.1,0.1c-0.1,0.1-0.1,0.3-0.1,0.3c0,0,0,0.1,0,0.1c0,0.1-0.1,0.1-0.1,0.1
	c-0.3-0.1,0.2,0.2,0,0.1c0.1,0.2-0.3-0.1-0.2,0c-0.1-0.2-0.3,0.4-0.2,0c0.1-0.1-0.2-0.3,0-0.1c0,0.1,0,0.2-0.1,0.1c0,0,0.1,0,0,0
	c0,0,0,0,0,0c0,0-0.1-0.1,0-0.2c-0.3,0.1,0.1,0,0,0.2c0-0.1-0.2,0.1-0.2-0.1c0.2-0.1-0.2-0.2-0.2,0c0.2-0.2,0.1,0.3,0,0.1
	c0-0.2-0.2-0.1-0.1-0.2c-0.1-0.4-0.2,0.3-0.2-0.1c0.1,0,0.1-0.3-0.1-0.2c-0.2,0.1,0-0.2-0.1-0.2c-0.1,0-0.2,0.1-0.3,0.1
	c0,0.1-0.2,0.1-0.2,0.1c0.1-0.2-0.3,0.2-0.1-0.1c0-0.1,0-0.3,0-0.3c0.1-0.2,0.1-0.1,0.1-0.3c0,0,0-0.2,0-0.3c1-3.3,2.7-7.4,4-9.3
	c0.5-0.8,1.1-1.6,2-2c-0.1,0.1,0.1,0,0.1,0c0,0,0.1-0.1,0.1-0.1C83.9,104.7,84.1,104.7,84.1,104.8z M78.8,117.4
	C78.8,117.4,78.8,117.4,78.8,117.4C78.8,117.4,78.8,117.4,78.8,117.4z M80.2,115.6C80.3,115.9,80.1,115.7,80.2,115.6
	C80.2,115.6,80.2,115.6,80.2,115.6z M80.7,114.3c0.2,0.2-0.1,0,0,0.1C80.6,114.4,80.5,114.3,80.7,114.3
	C80.7,114.3,80.7,114.3,80.7,114.3z M81.9,113.9C81.9,114,81.9,114,81.9,113.9c-0.3,0-0.6,0.1-0.8,0.1c-0.4,0-0.1,0.2,0.1,0.1
	c0.1,0,0.4,0,0.4-0.1C81.6,114,82.1,114.1,81.9,113.9C81.9,113.9,81.9,113.9,81.9,113.9z M81.4,114.3
	C81.4,114.4,81,114.4,81.4,114.3C81.4,114.3,81.4,114.3,81.4,114.3z M83.5,108.1c-0.1,0.1-0.1,0.4-0.2,0.4c0,0.2-0.4,0.2-0.2,0.3
	c0.1,0-0.3,0.4-0.3,0.2c0.1-0.1,0,0,0.1-0.2c-0.1,0.1-0.2,0-0.2,0.1c0,0,0,0,0,0c0,0,0,0,0,0c0,0-0.1,0.1-0.1,0.1c0,0,0,0,0,0
	c0,0,0,0,0,0.1c0,0,0,0.1-0.1,0c0,0.1,0.1,0,0,0.2c-0.3,0.2,0.1,0.1,0.1,0.2c0,0-0.1,0.3-0.1,0.1c0.2-0.2-0.1-0.1-0.1,0.1
	c-0.1,0.1-0.1,0.2-0.2,0.2c0,0.2-0.1,0.2-0.2,0.4c-0.1,0.3,0.1,0,0.2-0.1c0.1-0.1,0.1-0.4,0.3-0.3c0,0-0.1,0.1-0.1,0.4
	c-0.1,0.1-0.1,0.1-0.2,0.4c-0.2,0.1,0,0.4-0.2,0.4c0-0.2,0-0.1-0.1,0.1c-0.2,0-0.3,0.3-0.1,0.3c0,0,0,0.1,0,0.1
	c0.2,0.1,1.2-0.1,1.7-0.1c0.1-0.8,0.1-1.6,0.2-2.3c0-0.4,0.2-0.9,0-1C83.6,107.9,83.6,108.1,83.5,108.1z M81.8,110.9
	c0.1,0.1,0.1-0.1,0.2-0.3c-0.1,0,0,0,0-0.1C81.8,110.6,81.8,110.8,81.8,110.9z M81.8,111.1C82,111.2,81.8,111.2,81.8,111.1
	C81.8,111,81.8,111.1,81.8,111.1z M82.7,114c0,0-0.1,0-0.1,0.1C82.2,114,82.5,114,82.7,114C82.7,114,82.7,114,82.7,114z M82.6,113.9
	c0-0.2-0.2,0,0.1-0.2C82.8,113.7,82.7,113.9,82.6,113.9z M82.7,109C82.7,109,82.7,109,82.7,109C82.7,109,82.7,109,82.7,109z
	 M82.8,108.8C82.8,108.8,82.8,108.8,82.8,108.8C82.8,108.8,82.8,108.8,82.8,108.8z M82.9,109C82.9,109,82.9,109,82.9,109
	C83,109,82.8,109.2,82.9,109z M83.6,107.7c-0.1,0.1-0.1,0.2-0.2,0.3c0,0.1-0.3,0.4-0.2,0.3c0.1,0.2,0.3-0.2,0.2-0.3
	C83.4,108,83.5,107.9,83.6,107.7C83.6,107.9,83.6,107.8,83.6,107.7C83.6,107.8,83.6,107.8,83.6,107.7c0.1,0,0.1-0.1,0.1-0.1
	C83.6,107.6,83.6,107.7,83.6,107.7z M83.4,107.6C83.3,107.8,83.5,107.7,83.4,107.6C83.4,107.6,83.4,107.6,83.4,107.6z M83.6,107.8
	C83.6,107.8,83.6,107.8,83.6,107.8C83.6,107.8,83.6,107.8,83.6,107.8z M84.9,117.3C84.9,117.4,84.9,117.3,84.9,117.3
	C84.9,117.3,84.9,117.3,84.9,117.3z M85.7,110.6C85.7,110.6,85.7,110.6,85.7,110.6C85.6,110.7,85.8,110.7,85.7,110.6z"/>
<path d="M93,104.3c0.1,0,0.2,0.1,0.2,0.1c-0.1-0.1,0.2,0,0,0.2c0.1-0.1,0.1,0.2,0.2,0.2c0.1,0.1,0.3,0.2,0.2,0.3
	c0.1,0.1,0.1,0,0.2,0c0.1,0,0,0.2,0.2,0.3c0.2-0.1,0,0.2,0.1,0.1c0.1,0.1,0.3,0.2,0.2,0.4c0,0.1,0.2-0.1,0.1,0.3
	c0,0.1,0.1,0.2-0.1,0.3c0,0.2,0,0.3,0.1,0.5c-0.1,0.5,0-0.4-0.1,0.1c0,0.2-0.1,0.3-0.1,0.5c0,0,0,0,0,0.1c0,0,0,0,0,0
	c0,0,0,0.1,0,0.2c-0.1,0-0.1,0.4-0.1,0.5c0,0.2,0,0.2-0.1,0.4c-0.1,0.2,0,0.5-0.1,0.6c0,0,0,0,0,0c0,0,0,0,0,0c0,0.1,0,0.1,0,0.1
	c0,0.1-0.1,0.3-0.1,0.4c-0.1,0.1-0.1,0.4-0.1,0.4c-0.1,0.1,0,0.1,0,0.2c0,0.3-0.1,0.7-0.1,0.8c-0.1,0.5-0.2,1-0.3,1.5
	c-0.1,0.3,0,0.8-0.1,1.1c0,0.3-0.1,0.4-0.1,0.8c0,0.3,0,0.6-0.1,0.9c0,0.2,0,0.3-0.1,0.5c0,0.3,0,0.7-0.1,1c0,0.1,0.1,0.3-0.1,0.5
	c0.1,0,0.1,0.3,0,0.3c-0.2,0.3,0-0.2-0.2-0.2c0.1-0.2,0,0-0.1-0.2c-0.1,0.1-0.1,0.2-0.1,0c-0.1,0.3-0.1,0-0.2,0c0-0.2-0.1,0.2-0.1,0
	c-0.1-0.2-0.2,0.1-0.2,0.1c-0.1-0.2-0.2-0.1-0.3-0.2c-0.2,0.2-0.3-0.9-0.5-0.6c-0.1-0.2-0.2,0.1-0.2,0.1c-0.1,0.1-0.1,0.4-0.3,0.5
	c0-0.1-0.1,0-0.1,0.1c-0.2,0.1-0.1,0-0.1-0.1c-0.1,0.1-0.3,0.3-0.6,0.3c-0.1-0.1-0.1-0.1-0.3-0.1c0,0.1-0.1,0.1,0,0
	c-0.1,0-0.2,0-0.3-0.1c-0.2-0.1-0.3,0-0.4-0.1c-0.1,0.1-0.1-0.1-0.1-0.1c-0.2-0.1-0.1-0.1-0.4-0.3c-0.3,0-0.2-0.1-0.5-0.1
	c-0.3,0.2-0.1,0-0.3-0.1c-0.1,0,0.1,0.2-0.2,0c-0.8-0.6-1-1.8-1-2.8c0.1-2.5,0.8-5,1.8-7.4c0.1-0.5,0.6-1.1,0.5-1.5
	c0.2-0.2,0.1-0.1,0.1-0.2c0.1-0.2,0.3-0.1,0.3,0c0.2-0.1,0-0.3,0.3-0.1c0.1,0,0.2,0.3,0.3,0.3c-0.1,0.3,0,0.2,0,0.5
	c0.1-0.3,0,0.2,0.1,0c0,0.2-0.1,0.3,0.1,0c-0.1-0.3,0.3,0,0.1,0c0.2,0.1-0.2,0.2,0,0.2c0-0.1,0.1,0,0.2,0.1c0.1,0.1,0.1,0.2,0.3,0.2
	c0,0,0,0,0,0c0,0,0,0,0,0c0,0.2,0,0.4-0.1,0.6c-0.1,0.1-0.3,0.4-0.1,0.5c-0.1,0.2-0.1,0.2-0.1,0.5c-0.1,0.4-0.1-0.1-0.2,0.2
	c0.2,0.1-0.1,0.1,0,0.3c0.2,0.1-0.1,0.5,0,0.3c-0.1,0.1-0.1,0.1,0,0.3c0,0-0.1,0-0.2,0.1c-0.1,0.1,0,0.2,0,0.3
	c-0.1,0.2-0.1,0.1,0,0.3c-0.2-0.1-0.1,0-0.2,0.1c0,0,0,0,0,0c0,0,0,0,0,0c-0.1,0.2,0,0.2-0.1,0.3c0,0.1-0.2,0.3-0.1,0.5
	c0.1,0.1,0.1,0.3,0,0.3c-0.1-0.2-0.1,0.2-0.1,0.2c-0.2,0.1,0.1,0.2-0.1,0.3c0.1,0.2,0,0-0.1,0.2c0.1-0.2,0.1,0.3,0,0.4
	c0,0.1,0,0.3-0.1,0.5c-0.1,0.2-0.1,0.3-0.1,0.4c0,0.1-0.2,0.3,0,0.2c0,0,0,0.1,0,0.1c0,0,0,0,0,0c0,0,0,0.1,0,0.1
	c0,0.1,0,0.1-0.1,0.1c0,0,0,0,0,0c0.1,0,0,0,0,0c0,0,0,0.1,0.1,0.1c-0.1,0.1-0.1,0.3-0.1,0.4c0,0.1,0,0.2,0,0.3
	c0.1,0.1-0.1,0.5,0.1,0.7c-0.1,0.1,0.1,0.2,0,0.4c0,0.2-0.1,0.4,0.1,0.2c0.4-0.3,0.7-0.6,1-1c0.3-0.4,0.8-0.8,0.9-1.3
	c0.2-1.8,0.7-3.7,1.1-5.5c0.3-1,0.5-2.1,0.9-3c0-0.3,0.1,0.2,0.1,0c0.1-0.1,0-0.1,0.2-0.2C93,104.3,93.1,104.3,93,104.3z
	 M87.7,116.8C87.8,116.9,87.6,116.8,87.7,116.8C87.7,116.8,87.7,116.8,87.7,116.8z M88.6,116.9c0.1,0.1,0.1,0.1,0.2,0.1
	C89.2,117.3,88.9,116.9,88.6,116.9C88.6,116.9,88.6,116.9,88.6,116.9z M88.6,113C88.6,113,88.6,113,88.6,113
	C88.7,113,88.7,113,88.6,113z M88.8,111.8c0.1-0.2-0.1,0,0-0.1C88.8,111.7,88.8,111.8,88.8,111.8z M90.3,116.9
	c-0.1,0-0.3,0.1-0.4,0.2c-0.2,0-0.2,0-0.3,0c-0.1,0-0.1,0-0.2,0c0,0,0,0,0,0c0,0,0,0,0,0c0,0,0,0-0.1,0c0,0-0.1-0.1-0.1,0
	c0.1,0.2,0.4,0.2,0.6,0.2c-0.2,0.2,0.1,0,0.1-0.1c0,0.2,0.4,0,0.6-0.1c0.3-0.2-0.1,0,0-0.3C90.4,116.8,90.4,116.9,90.3,116.9z
	 M89.3,117C89.4,117,89.4,117,89.3,117C89.4,117,89.3,117,89.3,117z M89.7,108.7C89.7,108.7,89.7,108.7,89.7,108.7
	C89.7,108.7,89.7,108.7,89.7,108.7z M89.8,116.9C89.7,116.9,89.9,116.9,89.8,116.9C89.8,116.9,89.8,116.9,89.8,116.9z M90.2,106.1
	c0.2,0.2,0.1-0.1,0.1-0.2C90,106.1,89.9,106.1,90.2,106.1z M90.4,105.9C90.4,105.9,90.4,105.9,90.4,105.9S90.4,105.9,90.4,105.9z
	 M93.8,109.8C93.8,109.8,93.8,109.8,93.8,109.8C93.7,109.8,93.8,109.9,93.8,109.8z"/>
<path d="M100.8,104.2c0.4,0.1,0.4,0.1,0.5,0.3c0.2,0.1,0.1,0.4,0.3,0.4c0,0.1,0.1,0.3,0.1,0.4c-0.1,0.3,0.3,0.3,0.1,0.4
	c0,0.2,0.3,0.4,0.2,0.5c0,0,0,0.2,0.1,0.2c-0.1,0.3,0.2,0.4,0,0.6c0,0.2-0.1,0.4-0.2,0.7c0,0.2-0.3,0.5-0.3,0.7c0,0,0,0,0,0
	c0,0,0,0,0,0c0,0,0,0.1,0,0.1c-0.1,0-0.2,0.2-0.1,0.3c-0.1,0-0.2,0-0.3,0.2c0.1,0-0.1,0.3-0.1,0.1c-0.1,0-0.2,0.3-0.1,0.3
	c-0.1,0.4-0.1-0.1-0.3,0.3c-0.2,0.3,0,0.2-0.3,0.5c-0.1,0.2-0.3,0.4-0.2,0.5c-0.1,0.1,0.1,0.1,0,0.1c-0.2,0.1-0.1,0.3-0.6-0.1
	c-0.5-0.5-1.1-1.2-0.8-1.8c0.3-0.6,0.8-1.2,1.1-1.9c0.2-0.1,0.1-0.5,0.2-0.3c0.1-0.1,0.1-0.3-0.1-0.2c0.1-0.1,0-0.1-0.1,0
	c-0.1,0,0.2,0.5-0.1,0.2c-0.2-0.1,0,0.1,0,0.1c-0.3,0.1-0.8,0.1-0.9,0.2c0-0.2-0.2,0.1-0.2,0.1c-0.3,0.2-0.7,0.4-1,0.6
	c-0.1,0.2-0.5,0.1-0.5,0.3c0.1,0.1-0.1,0.1-0.2,0.2c-0.1-0.2-0.4,0.3-0.5,0.4c-0.2,0-0.3,0.5-0.3,0.4c-0.2,0.2-0.1,0.1-0.1,0.3
	c-0.1,0-0.3,0.1-0.2,0.2c-0.1,0.1,0,0.2-0.1,0.2c-0.1,0.2-0.2,0.2-0.2,0.4c0.4,0.3,0.8,0.5,1.2,0.7c0.9,0.4,1.9,0.8,2.6,1.5
	c0.2,0.2,0.1,0.2,0.2,0.3c0,0.1,0,0.1,0.1,0.2c0,0,0,0,0,0c0,0,0,0.1,0,0c0,0,0.1,0.1,0.1,0.2c0.5,0.5,0.6,1,0.6,1.7
	c0,0.2,0,0.3-0.1,0.5c0,0.2-0.4,0.3-0.2,0.4c-0.2,0.3-0.5,0.4-0.7,0.6c-0.2,0.1-0.3,0.2-0.5,0.2c-0.1,0.1-0.3,0.2-0.4,0.2
	c0,0.1-0.2,0.1-0.2,0.1c-0.1,0-0.2,0.1-0.3,0.1c-0.2,0.1-0.2,0.1-0.3,0.1c-0.2,0.1-0.4,0.1-0.5,0.1c-0.1,0.2-0.1,0-0.3,0.1
	c-0.1,0-0.1,0-0.2,0c-0.3,0-0.1,0-0.2,0.1c-0.1,0-0.1,0-0.2,0c0,0,0,0,0,0c0,0,0,0,0,0c-0.1,0-0.1,0-0.2,0c-0.1-0.1,0,0.2-0.1,0
	c-0.2,0.1-0.6,0.2-0.4-0.1c-0.2-0.2,0.2,0.1,0.1,0c0.1-0.1,0.2,0,0.2,0c0,0,0,0,0-0.1c0.3-0.1,0.4,0,0.7-0.1c0.2-0.2,0.1,0,0.4-0.1
	c0-0.1,0.1-0.2,0.2-0.1c0.1-0.1,0.1,0,0.2,0c0.2,0,0.2-0.2,0.2-0.2c0.1,0,0.2,0.1,0.3,0.1c0.1,0-0.1-0.1,0-0.2
	c0.2-0.1,0.3,0.1,0.4,0c0-0.1-0.3,0-0.1-0.1c0.4-0.1,0.1-0.1-0.1,0c-0.2,0.1-0.4,0.1-0.7,0.2c-0.1,0.1-0.2,0-0.3,0.1
	c-0.2,0-0.5,0-0.6,0.1c-0.2,0.1-0.1-0.1-0.3,0c-0.2,0-0.2,0.3-0.2,0c-0.2,0,0,0.2-0.3,0c-0.1,0.1,0.1-0.1-0.1-0.1
	c-0.2,0-0.7,0-0.6-0.1c0,0,0,0,0,0c0,0-0.1,0,0,0c-0.1,0-0.3,0-0.4-0.2c-0.1-0.2,0.1-0.2-0.2-0.3c-0.1,0.1-0.2,0-0.3,0
	c-0.2,0-0.2-0.3-0.3-0.2c-0.3-0.1,0.6-0.2,0.2-0.2c-0.2-0.1,0.1,0,0.1-0.2c1.2-0.3,2.4-0.5,3.5-1c0.2-0.2,1.2-0.5,0.6-0.7
	c-0.2-0.1-0.5-0.2-0.6-0.2c-0.3-0.1-0.5-0.2-0.8-0.4c-0.2-0.1-0.3-0.1-0.6-0.3c-0.3-0.2-0.7-0.4-0.9-0.7c-0.1-0.3-0.2-0.4-0.3-0.7
	c-0.1-0.1-0.1-0.1-0.1-0.3c-0.1-0.2,0-0.5-0.2-0.6c-0.1,0.3-0.1,0,0-0.1c-0.2,0.1-0.2,0-0.2-0.2c0,0.1,0-0.3-0.1-0.1
	c-0.1,0-0.2-0.5-0.1-0.8c0-0.8,0.4-1.6,0.9-2.3c1.1-1.4,2.6-2.4,4.3-2.9c0.3-0.1,0.6-0.2,0.9-0.2
	C100.6,104.1,100.7,104.1,100.8,104.2z M94.7,111c-0.1,0,0.3,0.3,0.2,0.3C94.8,111.3,94.8,111.2,94.7,111
	C94.7,111,94.8,111.1,94.7,111z M94.8,111C95,111.3,94.8,111.2,94.8,111C94.8,110.9,94.8,111,94.8,111z M95,111.1
	C95.1,111.6,95.2,111.3,95,111.1C95,111.1,95,111.1,95,111.1z M95.5,111.7C95.5,111.9,95.7,111.9,95.5,111.7
	C95.5,111.7,95.5,111.7,95.5,111.7z M95.7,112C95.7,112,95.7,112,95.7,112c-0.1,0.1,0.1,0,0,0.1C95.8,112.2,95.8,112,95.7,112
	C95.7,112,95.7,112,95.7,112C95.7,112,95.7,112,95.7,112z M95.7,112C95.7,112,95.7,112,95.7,112C95.7,112,95.7,112,95.7,112z
	 M95.8,116.8C95.8,116.9,95.6,116.9,95.8,116.8C95.7,116.8,95.8,116.8,95.8,116.8z M95.9,112.3C95.8,112.3,96,112.4,95.9,112.3
	C95.9,112.3,95.9,112.3,95.9,112.3z M96.1,112.4c0.1,0.1,0.2,0.1,0.1,0.1c0.1,0.1,0.3,0.2,0.3,0.1C96.3,112.5,96.2,112.4,96.1,112.4
	C96.1,112.4,96,112.4,96.1,112.4z M96.6,112.8C96.4,112.7,96.6,112.8,96.6,112.8c0.1,0.1,0.3,0.3,0.3,0.2c0,0,0,0,0,0c0,0,0,0,0.1,0
	c0,0,0,0,0,0c0.1,0.1,0.2,0.2,0.3,0.1c0.1-0.2-0.1-0.1-0.3-0.3c0,0.1-0.3,0.1-0.3-0.1C96.8,112.8,96.5,112.7,96.6,112.8z
	 M96.5,117.2C96.5,117.2,96.6,117.2,96.5,117.2C96.6,117.2,96.5,117.2,96.5,117.2z M96.6,117.1C96.6,117.1,96.6,117.1,96.6,117.1
	C96.5,117.1,96.6,117.2,96.6,117.1C96.6,117.2,96.7,117.2,96.6,117.1C96.6,117.1,96.6,117.1,96.6,117.1z M96.6,112.8
	C96.7,112.8,96.5,112.8,96.6,112.8C96.6,112.8,96.6,112.8,96.6,112.8z M96.6,117.2C96.6,117.2,96.6,117.1,96.6,117.2
	C96.6,117.1,96.6,117.2,96.6,117.2z M97.1,113C97.1,113,97.1,113,97.1,113C97.1,113,97.1,113,97.1,113z M97.2,113
	C97.2,113,97.2,113,97.2,113C97.3,113,97.1,113.1,97.2,113z M97.7,113.2c0,0.1,0.2,0.2,0.3,0.2c0.1,0,0.2,0.1,0.3,0.1
	c0.1,0.1,0.1,0,0,0c-0.3-0.1-0.1-0.1,0.2,0c0.1,0.1,0.3,0.1,0.2,0c0-0.1-0.2-0.1-0.2-0.1c-0.1-0.1-0.3-0.1-0.4-0.2
	C97.9,113.1,97.7,113.3,97.7,113.2C97.7,113.1,97.7,113.2,97.7,113.2z M97.9,113.5C98.1,113.5,97.9,113.5,97.9,113.5
	C97.8,113.4,97.9,113.6,97.9,113.5z M101.6,108.9C101.6,108.8,101.6,108.8,101.6,108.9C101.6,108.8,101.6,108.8,101.6,108.9z
	 M101.8,108.4L101.8,108.4C101.8,108.4,101.8,108.4,101.8,108.4z"/>
<path d="M293.2,179.6c0.4,0.1,0.6,0.4,0.9,0.5c0.2,0.2,0.3,0.4,0.4,0.5c0.1,0.1,0.1,0.2,0.1,0.2c0,0.2,0.3,0.3,0.2,0.4
	c0,0.2,0.2,0.6,0.2,0.5c0,0,0,0.1,0.1,0.1c-0.1,0,0,0.1,0,0c0.1,0.1,0.1,0.2,0.1,0.3c0.1,0.3,0.2,0.5,0.2,0.8c0,0.3,0.2,0.6,0.1,0.8
	c0,0.2-0.1,0.6-0.1,0.8c-0.1,0.4-0.1,0.4-0.2,0.9c-0.1,0.2-0.1,0.4-0.2,0.7c0,0,0-0.3-0.1,0.1c0.1,0.1,0.1,0.3-0.1,0.4
	c-0.1,0.1-0.3,0.4-0.1,0.2c0,0.2-0.3,0.5-0.2,0.3c0-0.1-0.3,0.3-0.1,0.3c-0.2,0.1-0.1,0.4-0.2,0.3c-0.2,0.1,0,0.3-0.1,0.2
	c0,0.1-0.1,0-0.1,0.1c-0.1,0-0.1,0.1,0,0.1c0,0,0,0,0,0c0,0,0,0,0,0c0,0,0,0,0,0c-0.1,0.1-0.1,0.1-0.2,0.3c0,0.1,0.2-0.2,0.1,0
	c-0.2,0.3-0.3,0.6-0.5,0.8c-0.1,0.2-0.2,0.3-0.3,0.5c0.1,0.1,0,0-0.2,0.3c-0.1,0-0.2,0.2-0.3,0.4c0,0,0,0,0,0c0,0,0,0,0,0
	c0,0,0,0.1-0.1,0.1c0,0,0,0.1-0.1,0.2c-0.2,0.2-0.4,0.5-0.6,0.6c-0.1,0.1-0.1,0.1-0.2,0.2c-0.1,0.1-0.1,0.1-0.2,0.2
	c-0.1,0.2-0.4,0.3-0.5,0.4c-0.2,0.1-0.4,0.2-0.7,0.3c-0.1,0-0.3,0.2-0.3,0c-0.3,0,0.4-0.1,0.5-0.2c0.2-0.1,0.3-0.3,0.1-0.3
	c-0.3-0.1-0.2,0.1-0.2,0.2c-0.1,0-0.1-0.2-0.2-0.1c-0.1,0-0.4,0.1-0.3,0.1c-0.2,0-0.3,0.1-0.4-0.1c-0.2,0.1-0.4,0-0.5-0.2
	c-0.2-0.1-0.6-0.1-0.6-0.4c0-0.2-0.2-0.1-0.4-0.2c-0.3-0.1-0.2-0.3-0.4-0.3c0.1-0.2,0.1-0.8,0.2-1.2c0.2-1.9,0.6-3.8,1.1-5.6
	c-0.1,0,0.2-0.4,0.1-0.4c0,0-0.3,0.1-0.3,0c-0.2-0.1,0.1-0.2,0-0.3c-0.3,0,0-0.4-0.2-0.4c-0.2,0-0.1-0.2-0.3-0.2
	c0-0.2,0-0.2-0.1-0.3c0-0.1,0.2-0.2,0-0.2c0-0.2-0.3-0.1-0.4-0.3c-0.3-0.2,0-0.4,0.1-0.4c0.2-0.3,0.5-0.6,0.9-0.8
	c1-0.6,2.2-1.1,3.3-1.1C292.2,179.4,292.7,179.5,293.2,179.6z M288,183.1C288.1,183.3,288.3,183.2,288,183.1
	C288.1,183.1,288.1,183.1,288,183.1z M289.5,192.5c-0.1,0.1-0.1,0.2-0.1,0.1c-0.1,0-0.2,0.1-0.2-0.2
	C289.3,192.4,289.4,192.3,289.5,192.5z M291.2,182c-0.2,0-0.1,0.1,0,0.1c0,0,0,0,0,0c-0.1,0.1,0,0,0,0c0,0,0,0-0.1,0.1
	c-0.1,0.1,0.2,0.2-0.1,0.3c-0.1-0.2-0.1,0.3-0.1,0.4c-0.1,0.1,0,0.4,0,0.4c0.1,0.1-0.1,0.3-0.1,0.6c-0.1,0.1-0.2,0.7-0.1,0.5
	c-0.1,0.2-0.2,0.5-0.2,0.8c0,0.3-0.2,0.7-0.1,0.9c0,0.2,0,0.5-0.2,0.5c0,0.1-0.1,0.3-0.1,0.3c0.2-0.2-0.1,0.1,0.1,0.1c0,0,0,0,0,0.1
	c0,0,0,0,0,0c-0.1,0,0,0,0,0c0,0.1-0.1,0.1-0.1,0.3c0,0.2,0,0.4-0.1,0.6c-0.1,0.2-0.1,0.4-0.1,0.5c0,0.1,0.1,0.4-0.1,0.2
	c0,0.2-0.1,0.7-0.1,0.7c0,0.1,0.2,0,0.3-0.2c1.3-1.6,2.6-3.3,3.4-5.2c0.1-0.4,0.5-1.2,0.3-1.3c0.1,0,0.1-0.1,0-0.1
	c-0.3,0,0.2-0.1-0.1-0.2c-0.2-0.1-0.3-0.1-0.5-0.1c-0.2-0.1-0.2,0-0.4-0.1c-0.2,0-0.5,0.1-0.6,0c-0.3,0.1-0.3,0-0.5,0
	c-0.2,0.1-0.2,0.1-0.4,0.1C290.9,182.3,291.4,182,291.2,182C291.2,182,291.2,182,291.2,182z M290,188.8
	C290,189,289.9,188.8,290,188.8C290,188.8,290,188.9,290,188.8z M290.3,192C290.4,192,290.1,192.1,290.3,192
	C290.3,192,290.3,192,290.3,192C290.3,192,290.3,192,290.3,192C290.4,192,290.3,192,290.3,192z M290.3,186.9
	C290.3,186.9,290.3,186.9,290.3,186.9C290.3,186.9,290.3,186.9,290.3,186.9z M290.6,191.9c-0.1,0.3,0.2-0.1,0.2-0.1
	C290.8,191.8,290.7,191.9,290.6,191.9z M291.2,182.1C291.2,182.1,291.1,182.1,291.2,182.1C291.2,182.1,291.2,182.1,291.2,182.1z
	 M291.3,181.9C291.3,182,291.5,182,291.3,181.9C291.3,181.9,291.3,181.9,291.3,181.9z M291.5,181.7
	C291.2,181.8,291.3,181.9,291.5,181.7C291.5,181.9,291.8,181.8,291.5,181.7C291.6,181.7,291.5,181.8,291.5,181.7z M292,181.9
	c-0.1,0.1-0.4-0.1-0.5,0.1C291.5,182.1,291.8,181.9,292,181.9c0.1,0,0.2,0.1,0.4,0.1c0.2-0.2-0.1-0.1-0.1-0.2
	C292.2,181.8,292.1,181.8,292,181.9z M292,181.6C292,181.7,292,181.7,292,181.6C292,181.7,292,181.7,292,181.6
	c-0.2,0.1-0.4,0-0.2,0.2c0.1-0.2,0.2,0,0.3,0c0.2,0,0.1-0.1,0.2,0c0,0,0,0,0,0c0,0,0,0,0,0C292.2,181.7,292.2,181.6,292,181.6
	C292,181.6,292,181.7,292,181.6z M292.5,181.8C292.5,182.1,292.6,181.8,292.5,181.8c0,0,0.1-0.2-0.2-0.1
	C292.3,181.6,292.5,181.8,292.5,181.8z M292.4,190.4C292.4,190.4,292.4,190.4,292.4,190.4C292.4,190.4,292.4,190.4,292.4,190.4z
	 M292.4,182C292.3,182.1,292.7,182,292.4,182C292.5,182,292.4,182,292.4,182z M292.9,181.9c0.2,0.1,0.5,0.1,0.7,0.2
	c0.2,0,0.1-0.1,0.2,0.1c0.1,0,0.3,0.1,0.2,0c-0.1-0.2-0.1-0.2-0.3-0.3c-0.2-0.1-0.2,0-0.4-0.1c0,0.2-0.3,0.1-0.5,0
	C292.7,181.9,292.8,182.1,292.9,181.9z M293.4,182.2C293.8,182.4,293.3,182.4,293.4,182.2C293.4,182.2,293.4,182.2,293.4,182.2z
	 M293.9,188.1C293.9,188.1,293.9,188.1,293.9,188.1C293.9,188.1,293.9,188.1,293.9,188.1z M294,188C294,188,294,188,294,188
	C294,187.9,294.1,187.9,294,188z M295,181.8C295,181.8,295,181.8,295,181.8C295,181.7,295,181.8,295,181.8z"/>
<path d="M298.2,179.2c0.2,0,0.2,0.1,0.3,0.1c0,0.1,0.1,0.2,0.3,0.3c1.1-0.4,2.3-0.5,3.4-0.6c0.4,0,1-0.1,1.2,0
	c0.2-0.2,0.3,0.1,0.4,0.1c0.1-0.1,0.2,0.1,0.3,0.1c0,0.1,0.2,0.1,0,0.2c0.1,0,0.1,0.2-0.1,0.3c0,0-0.1,0.2-0.1,0.2
	c0.1,0.2-0.1,0.2-0.1,0.2c0,0.2,0.2,0.2,0.2,0.3c-0.1,0.1-0.1,0.1-0.2,0.3c-0.3-0.1-0.2,0.2-0.1,0.3c-0.1,0.2-0.3-0.1-0.3,0
	c-0.2,0-0.3,0.1-0.4,0c-0.2,0.1-0.3,0-0.4,0.2c-0.1,0.1-0.3,0,0-0.1c-0.1,0.1-0.2,0-0.3,0.1c-0.1,0,0,0-0.2,0.1c0-0.2-0.3,0.1-0.4,0
	c-0.1,0-0.3,0.1-0.4,0.1c0,0.1-0.3-0.1-0.5,0.1c0,0,0,0,0,0c0,0,0,0,0,0c0.2,0,0.4,0.1,0.1,0.2c0-0.2-0.3,0.2-0.4,0.1
	c0,0-0.5,0.2-0.3,0c-0.2-0.1-0.1,0.2-0.3,0.1c-0.2,0.1-0.3-0.1-0.3-0.1c0.2,0.2-0.3,0.3-0.2,0.1c-0.2-0.1-0.1-0.1,0-0.2
	c-0.3-0.2,0,0.3-0.2,0.1c-0.2,0,0,0.2-0.2,0.2c-0.1-0.1-0.2,0.1-0.1,0.3c-0.1,0.2,0-0.2-0.1,0.1c0,0.1,0,0-0.1,0.2
	c0.1,0.1-0.1,0.1,0.1,0.2c0,0.3-0.3,0.2-0.2,0.3c-0.1,0.1,0,0.1,0,0.3c-0.1,0.2-0.3,0.3-0.1,0.4c0,0,0,0.1-0.1,0.1c0,0,0,0,0,0
	c0,0,0,0,0,0c0,0.1-0.1,0.1-0.1,0.1c0,0,0.2,0.2-0.1,0.2c0,0,0,0.2,0,0.4c0,0,0,0,0,0c0,0,0,0,0,0c0,0,0,0,0,0.1
	c1.1-0.3,2.1-0.6,3.2-0.7c0.4,0,0.9-0.1,1.3,0c0,0,0.1,0,0.1,0.2c0.3,0.2-0.1,0.1,0.1,0.1c-0.2,0.2,0,0.1,0,0.3
	c-0.1-0.1-0.1,0-0.1,0.1c0.2,0,0,0.1,0,0.2c-0.1-0.1-0.1-0.3-0.1,0c0.1,0.1,0.3,0.3,0.1,0.2c0,0-0.1,0.1-0.2,0.2c0,0,0,0,0,0
	c0,0,0,0,0.1,0c0.1,0.1,0.2,0.1,0,0.2c-0.3,0.2,0,0,0,0.2c0.2-0.1,0,0.2-0.1,0.2c-0.2,0-0.2,0.2-0.1,0.1c0.1,0-0.1,0.3-0.1,0.1
	c0,0.2-0.5,0.1-0.4,0.3c-0.2-0.1-0.2,0.2-0.3,0.1c-0.2,0.2-0.2-0.1-0.2,0.1c-0.2,0-0.4-0.1-0.6,0c-0.1,0.1-0.3,0-0.4,0.1
	c-0.1,0-0.1,0-0.2,0c-0.2-0.1,0,0.2-0.2,0.1c0.2-0.1-0.5,0-0.2,0.1c-0.3,0.2-0.2-0.2-0.4,0c-0.2,0.2-0.1,0.1-0.2,0.1
	c-0.1,0-0.2,0-0.3,0.1c0.1,0.1-0.1,0.1,0,0c-0.1,0.1-0.2,0.1-0.3,0.1c-0.1,0.1-0.3,0.1-0.2,0.1c-0.1-0.1-0.1,0.1-0.2,0
	c-0.1,0.2-0.5,0.2-0.4,0.2c-0.2-0.1-0.1,0.5-0.2,0.8c-0.2,0,0.1,0.1,0,0.4c-0.1,0.1,0,0.3,0,0.5c-0.1,0,0.2,0.3-0.1,0.4
	c0,0.4,0.1-0.1,0.1,0.3c0,0,0,0.1,0,0.1c0,0,0,0,0,0c0.1,0,0.1,0.1,0,0.1c0,0.1,0.1,0.1,0.1,0.2c0.1,0.3-0.1,0,0,0.3
	c0.1,0.1,0,0.1,0.1,0.2c0.9-0.2,1.6-0.8,2.4-1.4c0.1,0,0.1,0,0.3,0.1c0.1-0.1,0.1,0,0.2,0.1c0.3-0.1-0.1,0.2,0.1,0.1
	c0.2,0.1,0.3-0.2,0.4,0c-0.1,0.1,0.1,0.1,0.2,0c0.1,0,0.1,0.3,0.1,0.1c0,0,0,0,0,0c0,0,0,0,0-0.1c0,0.2,0.5-0.1,0.4,0.1
	c0.3,0,0.1,0.3,0.3,0.3c0.1,0,0,0.2,0.2,0.1c0,0.3-0.2-0.1-0.3,0.1c0,0.2-0.3,0.1-0.1,0c-0.1,0-0.2,0.3-0.1,0.2
	c0,0.1-0.1,0.3-0.3,0.3c-0.2,0.2-0.4,0.2-0.5,0.4c-0.1,0.1-0.4,0.2-0.3,0.2c0.1,0,0.3-0.2,0.4-0.3c0,0.3,0.1,0.1,0.2,0.1
	c0.1-0.1,0.3-0.2,0.4-0.3c0.2-0.1,0.2,0-0.1,0.1c-0.3,0.1-0.5,0.5-0.7,0.5c-0.1,0.2-0.3,0.1-0.3,0.3c-0.1,0-0.2,0.2-0.4,0.2
	c-0.1,0-0.1,0.1-0.3,0.2c-0.3,0.1-0.7,0.3-1.1,0.3c-0.3,0-0.6-0.1-0.9-0.2c-0.2,0-0.3-0.1-0.5-0.2c0.2,0-0.1-0.2-0.2-0.2
	c-0.3-0.2-0.1,0.1-0.3,0c-0.3-0.2,0,0.1-0.2,0c-0.1-0.1-0.1-0.1-0.2-0.1c0,0,0,0,0,0c0,0,0,0,0,0c0,0-0.1,0-0.1,0
	c-0.8-0.4-1.1-1.4-1.2-2.3c-0.1-1.9,0.3-3.8,0.9-5.6c0.1-0.3,0.4-0.9,0.3-1c0-0.2-0.1-0.1-0.2-0.4c-0.2,0.1-0.1-0.2-0.1-0.3
	c0.1-0.1-0.2,0-0.3-0.2c0.4,0-0.1-0.1,0.1-0.2c0.2,0,0.1-0.1,0.2-0.1c-0.1-0.2,0-0.2,0-0.3c0.2,0,0.2-0.2,0.2-0.2
	c0-0.2-0.1,0-0.2-0.1c0.2,0,0.1-0.1-0.1-0.1c0.1,0.2-0.3-0.3-0.2-0.3c0-0.1,0.4-0.1,0.2-0.1c0.8-0.2,1.7-0.1,1.7-0.7
	c0-0.2,0.2-0.3,0.2-0.2C298,179.4,298,179.2,298.2,179.2C298.2,179.2,298.2,179.2,298.2,179.2z M296.5,191.4
	C296.5,191.4,296.6,191.4,296.5,191.4C296.6,191.4,296.5,191.4,296.5,191.4z M297.4,191.8C297.4,191.8,297.4,191.8,297.4,191.8
	C297.4,191.8,297.4,191.8,297.4,191.8z M298.3,183.9C298.2,184,298.4,183.9,298.3,183.9C298.3,183.9,298.3,183.9,298.3,183.9z
	 M298.5,191.9c0.3,0.1,0.4,0.1,0.5,0c0-0.1-0.4,0.1-0.2,0C299,191.8,298.7,191.8,298.5,191.9C298.6,191.8,298.4,191.9,298.5,191.9z
	 M298.6,191.9C298.5,192,298.7,191.9,298.6,191.9C298.6,191.9,298.6,191.9,298.6,191.9z M298.7,179.3
	C298.8,179.5,298.5,179.3,298.7,179.3C298.7,179.2,298.7,179.2,298.7,179.3z M299.1,191.8c-0.2,0.3,0,0.1,0.2,0.1c0,0,0.3,0,0.2-0.1
	C299.4,191.8,299.1,191.9,299.1,191.8z M299.4,181.6C299.5,181.7,299.6,181.6,299.4,181.6C299.4,181.6,299.4,181.6,299.4,181.6z
	 M300.3,191.4c-0.1,0.1-0.3,0.1-0.4,0.2c-0.3,0.2,0,0.1,0,0.1c0.2,0,0.4-0.1,0.5-0.1c0-0.1,0.4-0.4,0.2-0.2c0.1,0.1,0.2-0.2,0.1-0.2
	C300.6,191.4,300.4,191.3,300.3,191.4z M300.1,191.8C300.1,191.8,300.1,191.8,300.1,191.8C300,191.8,300.1,191.8,300.1,191.8
	C300,191.9,300.1,191.9,300.1,191.8C300.2,191.8,300.2,191.8,300.1,191.8z M301.5,189.4C301.5,189.4,301.5,189.4,301.5,189.4
	C301.5,189.4,301.5,189.4,301.5,189.4z M301.8,181.3C301.8,181.4,301.6,181.3,301.8,181.3C301.7,181.3,301.8,181.3,301.8,181.3z
	 M301.9,190.5C301.7,190.7,301.7,190.6,301.9,190.5C302,190.5,301.9,190.4,301.9,190.5z M302,190.6C302,190.5,302.1,190.5,302,190.6
	C302.1,190.5,302.1,190.6,302,190.6z M302.8,185C302.8,185,302.8,185,302.8,185C302.8,185,302.8,185,302.8,185z M302.9,185.3
	C302.9,185.3,302.9,185.3,302.9,185.3C302.9,185.3,302.9,185.4,302.9,185.3z M303.1,180.8C303.1,180.9,303.2,180.8,303.1,180.8
	C303.2,180.8,303.1,180.8,303.1,180.8z M303.6,179.7c0.1,0.1-0.1,0.3,0.2,0.2C303.7,179.7,303.9,179.7,303.6,179.7
	C303.6,179.7,303.6,179.7,303.6,179.7z"/>
<path d="M310.2,178.1c0,0,0.2,0.1,0.2,0c-0.1-0.1,0.2,0,0,0.2c0.1-0.1,0.1,0.2,0.2,0.2c0.1,0.1,0.3,0.2,0.2,0.2c0.1,0.1,0.1,0,0.2,0
	c0.1,0,0,0.2,0.2,0.3c0.2-0.1,0,0.2,0.1,0.1c0.1,0.1,0.3,0.2,0.2,0.4c0,0.1,0.2-0.1,0.1,0.3c0,0.1,0,0.2-0.1,0.3
	c0,0.2,0,0.3,0.1,0.5c-0.1,0.5,0-0.4-0.1,0.1c0,0.2-0.1,0.3-0.1,0.5c0,0,0,0,0,0.1c0,0,0,0,0,0c0,0,0,0.1,0,0.2
	c-0.1,0.1-0.1,0.4-0.1,0.5c0,0.2,0,0.2-0.1,0.4c-0.1,0.2,0,0.5-0.1,0.6c0,0,0,0,0,0c0,0,0,0,0,0c0,0.1,0,0.1,0,0.1
	c0,0.1-0.1,0.3-0.1,0.4c-0.1,0.1-0.1,0.4-0.1,0.4c-0.1,0.1,0,0.1,0,0.2c0,0.3-0.1,0.7-0.1,0.8c-0.1,0.5-0.2,1-0.3,1.5
	c-0.1,0.4-0.1,0.8-0.1,1.1c0,0.3-0.1,0.5-0.1,0.8c0,0.3,0,0.6-0.1,0.9c0,0.2,0,0.3-0.1,0.5c0,0.3,0,0.7-0.1,1c0,0.1,0.1,0.3-0.1,0.5
	c0.1,0,0,0.2,0,0.3c-0.2,0.3,0-0.2-0.2-0.2c0.1-0.2,0,0-0.1-0.2c-0.1,0.1-0.1,0.2-0.1,0c-0.1,0.3-0.1,0-0.2,0c0-0.2-0.1,0.2-0.1,0
	c-0.1-0.2-0.2,0.2-0.2,0.1c-0.1-0.2-0.2-0.1-0.3-0.1c-0.2,0.2-0.3-0.9-0.5-0.5c-0.1-0.2-0.2,0.1-0.2,0.1c-0.1,0.1-0.1,0.4-0.3,0.5
	c0-0.1,0,0-0.1,0.1c-0.2,0.1-0.1,0-0.1-0.1c-0.1,0.1-0.3,0.3-0.6,0.3c0-0.1-0.1-0.1-0.3-0.1c0,0.1-0.1,0.1,0,0c-0.1,0-0.2,0-0.3-0.1
	c-0.2-0.1-0.3,0-0.4-0.1c-0.1,0.1-0.1-0.1-0.1-0.1c-0.2,0-0.1-0.1-0.4-0.2c-0.3,0-0.2-0.1-0.5-0.1c-0.3,0.2,0,0-0.3-0.1
	c-0.1,0,0.1,0.2-0.2,0c-0.8-0.6-1-1.7-1-2.7c0.1-2.5,0.8-5.1,1.8-7.5c0.1-0.5,0.7-1.2,0.5-1.5c0.2-0.2,0.1-0.1,0.1-0.2
	c0.1-0.2,0.3-0.1,0.3,0c0.2-0.2,0-0.3,0.3-0.1c0.1,0,0.2,0.2,0.3,0.3c-0.1,0.3,0,0.2,0.1,0.5c0.1-0.3,0,0.2,0.1,0
	c0,0.2-0.1,0.3,0.1,0c-0.1-0.2,0.3-0.1,0.1,0c0.2,0.1-0.2,0.2-0.1,0.2c0.1-0.1,0.1,0,0.2,0c0.1,0.1,0.1,0.2,0.3,0.1c0,0,0,0,0,0
	c0,0,0,0,0,0c0,0.2,0.1,0.4-0.1,0.6c-0.1,0.1-0.3,0.5-0.1,0.5c-0.1,0.2-0.1,0.2-0.1,0.5c-0.1,0.4-0.1-0.1-0.2,0.2
	c0.2,0.1-0.1,0.1,0,0.3c0.2,0.1-0.1,0.5-0.1,0.3c-0.1,0.1-0.1,0.1,0,0.3c0,0-0.1,0-0.2,0.1c-0.1,0.1,0,0.2,0,0.3
	c-0.1,0.2-0.1,0.1,0,0.3c-0.2-0.1-0.1,0-0.2,0.1c0,0,0,0,0,0c0,0,0,0,0,0c-0.1,0.2,0,0.2-0.1,0.4c0,0.1-0.2,0.3-0.1,0.5
	c0.1,0.1,0.1,0.3,0,0.3c-0.1-0.2-0.1,0.3-0.1,0.2c-0.2,0.1,0,0.2-0.1,0.3c0.1,0.2,0,0-0.1,0.2c0.1-0.2,0.1,0.3,0,0.4
	c0,0.1,0,0.3-0.1,0.5c-0.1,0.2-0.1,0.3-0.1,0.5c0,0.1-0.2,0.3,0,0.2c0,0,0,0.1-0.1,0.1c0,0,0,0,0,0c0,0,0,0.1,0,0.1
	c0,0.1,0,0.1-0.1,0.1c0,0,0,0,0,0c0.1,0,0,0,0,0c0,0-0.1,0.1,0.1,0.1c-0.1,0.1-0.1,0.3-0.1,0.4c-0.1,0.1,0,0.2,0,0.3
	c0.1,0.1-0.1,0.5,0.1,0.7c-0.1,0.1,0.1,0.2,0,0.4c0,0.2-0.1,0.4,0.1,0.2c0.4-0.3,0.7-0.7,1-1.1c0.3-0.4,0.8-0.8,0.9-1.4
	c0.2-1.9,0.7-3.7,1.1-5.6c0.3-1,0.5-2.1,0.9-3.1c0-0.3,0.1,0.2,0.1,0c0.1-0.1,0-0.1,0.2-0.3C310.2,178.1,310.2,178.1,310.2,178.1z
	 M304.9,190.9C304.9,191,304.7,190.9,304.9,190.9C304.8,190.9,304.8,190.9,304.9,190.9z M305.7,191c0.1,0.1,0.1,0.1,0.2,0.1
	C306.4,191.4,306,191,305.7,191C305.8,191,305.8,191,305.7,191z M305.8,187.1C305.8,187.1,305.8,187.1,305.8,187.1
	C305.8,187.1,305.8,187.1,305.8,187.1z M306,185.9c0.1-0.2,0,0,0-0.1C305.9,185.8,305.9,185.9,306,185.9z M307.5,190.9
	c-0.1,0-0.3,0.1-0.4,0.2c-0.2,0-0.2,0-0.3,0c-0.1,0-0.1,0-0.2,0c0,0,0,0,0,0c0,0,0,0,0,0c0,0,0,0-0.1,0c0,0-0.1-0.1-0.1,0
	c0.1,0.2,0.4,0.1,0.6,0.2c-0.2,0.2,0,0,0.1-0.1c0,0.2,0.4,0,0.6-0.1c0.3-0.2-0.1,0-0.1-0.3C307.6,190.8,307.6,190.8,307.5,190.9z
	 M306.5,191.1C306.5,191.1,306.5,191.1,306.5,191.1C306.5,191.1,306.5,191.1,306.5,191.1z M306.9,182.7
	C306.9,182.7,306.9,182.7,306.9,182.7C306.9,182.7,306.9,182.7,306.9,182.7z M306.9,190.9C306.8,191,307.1,190.9,306.9,190.9
	C307,190.9,306.9,190.9,306.9,190.9z M307.3,180.1c0.2,0.2,0.1-0.1,0.1-0.2C307.1,180.1,307,180.1,307.3,180.1z M307.5,179.9
	C307.5,179.9,307.5,179.9,307.5,179.9S307.5,179.9,307.5,179.9z M310.9,183.6C310.9,183.6,310.9,183.6,310.9,183.6
	C310.8,183.6,311,183.7,310.9,183.6z"/>
<path d="M320.1,176.9c0.3,0,0.1,0.2,0.5,0.1c0,0.2,0,0.1,0.1,0.2c-0.3,0-0.1,0.2-0.2,0.4c0.1,0.1-0.2,0.2-0.2,0.4c0,0,0,0,0,0
	c0,0,0,0,0,0c0,0,0,0,0,0.1c0,0.1,0.1,0.2-0.1,0.2c0,0.1,0.1,0.2,0,0.3c-0.1,0-0.1,0-0.1,0.1c-0.1,0.1,0.1,0.4,0,0.3
	c-0.2-0.1-0.2,0.2-0.3,0.2c0.1-0.2-0.3,0.1-0.2-0.1c-0.2,0.1,0.1,0.4-0.2,0.2c0.2,0,0,0,0.1-0.1c-0.1-0.1-0.2,0-0.2,0.1
	c-0.1,0-0.3,0.2-0.1,0c-0.2,0-0.4,0.2-0.5,0.1c-0.1,0-0.3,0.1-0.4,0.1c-0.1,0-0.3,0.1-0.3,0c-0.3-0.1-0.3,0.3-0.3,0.1
	c-0.2,0.2,0,0.1,0.1,0.2c0,0,0,0,0,0c0,0,0,0,0,0c-0.2,0.1,0.4,0,0.1,0.1c-0.2,0.1,0.1,0.1-0.1,0.2c0,0.1-0.1,0.4-0.1,0.4
	c0.3,0-0.1,0.3,0.1,0.2c0.2,0-0.3,0.1-0.2,0.3c0.1,0.1,0,0.3,0,0.5c0-0.1-0.2-0.1-0.2,0.3c-0.1,0.1,0.2,0.4-0.1,0.3
	c0,0.1,0.2,0.2,0,0.1c0,0.2-0.1,0.1-0.1,0.2c0.2-0.1,0,0.4-0.1,0.1c-0.1,0.2-0.1,0.4-0.2,0.6c-0.1,0.3,0.1,0.2-0.1,0.4
	c0,0.1-0.1,0.2-0.1,0.4c0,0.1-0.1,0.2,0,0.3c0,0.1-0.1,0.3-0.1,0.4c0,0.1-0.1,0.3-0.1,0.4c-0.1,0,0,0.3-0.1,0.2c0,0.1-0.1,0.2,0,0.3
	c-0.1,0.2,0,0.6-0.1,0.9c-0.2,0.2,0,0.2-0.1,0.5c0,0.1-0.1-0.1,0,0.2c-0.1,0.1,0,0.2-0.1,0.3c-0.1,0.1,0,0.4-0.1,0.4
	c0.1,0.1,0,0.3,0,0.4c-0.1,0.1,0,0.2-0.1,0.3c0.1,0,0,0.1,0,0.3c0,0,0.1,0.2-0.1,0.3c0,0.2,0.1,0.2,0.1,0.4c0,0.1-0.1,0.2-0.1,0.3
	c0,0.2-0.2,0-0.1-0.1c0.2-0.1,0-0.1-0.1,0c0.1,0.4-0.4,0.1-0.1,0.4c-0.1,0.1-0.2-0.1-0.4-0.1c0,0-0.1,0.2-0.2,0.2
	c0-0.1-0.1-0.2-0.3-0.1c0.1,0-0.1,0.2-0.1,0c-0.1,0-0.2,0.1-0.2,0c-0.1-0.1,0,0.4-0.2,0c0.1-0.1,0-0.1,0-0.2c0,0,0,0,0,0
	c0,0,0,0,0,0c-0.1,0-0.1,0-0.1,0c0.1,0.2-0.2-0.1-0.2,0.1c0,0.2-0.1,0-0.3,0.1c0.2,0.1,0,0-0.1,0.1c-0.1,0.1-0.2,0.2-0.2-0.1
	c0-0.1-0.1-0.5,0-0.8c0.3-2.6,0.8-5.2,1.6-7.7c0.1-0.5,0.3-1,0.4-1.4c0.1-0.2,0-0.3-0.1-0.1c-0.2,0-0.4,0.1-0.5,0.1
	c-0.2,0.1-0.3,0.1-0.4,0.2c-0.1,0-0.3-0.1-0.3,0.1c0,0-0.1,0-0.1,0.1c0,0,0-0.1,0-0.1c-0.1,0,0,0.1,0,0.1c-0.2,0.1-0.3-0.1-0.4,0
	c-0.2,0.1-0.4,0.1-0.5,0.2c-0.1,0-0.2,0.1-0.3,0c-0.1,0.1-0.2,0.1-0.3,0.1c-0.2,0.2-0.3,0-0.1-0.1c0.2,0,0.5-0.1,0.2-0.2
	c-0.2,0.1,0-0.2-0.2-0.1c-0.5,0.1-0.2,0,0.1-0.1c0.3,0,0.2-0.1,0.2-0.2c-0.4,0,0.2-0.1-0.1-0.1c0.4-0.1-0.3,0,0.1-0.1
	c0-0.2-0.2-0.1,0-0.3c0-0.1-0.2-0.2,0-0.3c0.2-0.1,0.1-0.3,0.2-0.3c-0.2,0-0.1-0.4-0.2-0.3c-0.1-0.1,0-0.3,0.2-0.4
	c2.1-0.5,4.1-1,6.2-1.2C319.2,177,319.6,177,320.1,176.9z M313.7,180.6C313.7,180.6,313.7,180.6,313.7,180.6
	C313.8,180.7,313.7,180.7,313.7,180.6z M314,190.1C314,190.1,314,190.1,314,190.1C314,190.1,314,190.1,314,190.1z M315.5,190.6
	c-0.1-0.1,0.1,0.2-0.1,0.2c0-0.1,0-0.2,0-0.4C315.5,190.5,315.6,190.5,315.5,190.6z M315.4,189.4c0.1-0.1,0-0.1,0-0.4
	C315.4,189.1,315.3,189.4,315.4,189.4z M315.5,188.5C315.5,188.8,315.7,188.4,315.5,188.5C315.5,188.5,315.5,188.5,315.5,188.5z
	 M315.6,187.7C315.5,188.2,315.7,188,315.6,187.7C315.6,187.6,315.6,187.7,315.6,187.7z M316.8,183.1
	C316.9,183.3,316.6,183.1,316.8,183.1C316.8,183.1,316.8,183.1,316.8,183.1z M318.3,179.6c-0.3,0,0,0,0-0.1
	C318.4,179.5,318.4,179.6,318.3,179.6z M318.7,179.3c0.1,0,0.4-0.1,0.2-0.1C318.8,179.2,318.8,179.2,318.7,179.3
	C318.8,179.2,318.8,179.3,318.7,179.3z M320.3,178.4C320.3,178.4,320.3,178.4,320.3,178.4C320.4,178.4,320.2,178.6,320.3,178.4z
	 M320.3,178.3C320.3,178.3,320.3,178.3,320.3,178.3C320.4,178.3,320.3,178.4,320.3,178.3z M320.8,177.4c0-0.1-0.3,0.1-0.1-0.1
	c0,0,0,0,0,0C320.8,177.3,320.9,177.5,320.8,177.4z"/>
<path d="M325.6,176.2c0.4,0.1,0.4,0.1,0.5,0.2c0.2,0.1,0.1,0.3,0.3,0.3c0,0.1,0.1,0.3,0.1,0.4c-0.1,0.3,0.3,0.2,0.1,0.4
	c0,0.2,0.3,0.3,0.2,0.5c0.1,0,0,0.2,0.1,0.2c-0.1,0.3,0.2,0.4,0,0.6c0,0.2-0.1,0.4-0.2,0.7c0,0.2-0.3,0.5-0.3,0.8c0,0,0,0,0,0
	c0,0,0,0,0,0c0,0,0,0.1,0,0.1c-0.1,0-0.2,0.2-0.1,0.4c0,0-0.2,0-0.3,0.3c0.1-0.1-0.1,0.3-0.1,0.1c-0.1,0-0.2,0.3-0.1,0.3
	c-0.1,0.4-0.1-0.1-0.3,0.3c-0.2,0.3,0,0.2-0.3,0.5c-0.1,0.2-0.3,0.4-0.2,0.5c-0.1,0.1,0.1,0.1,0,0.1c-0.2,0.1-0.1,0.4-0.6-0.1
	c-0.5-0.4-1.1-1-0.8-1.6c0.3-0.7,0.8-1.3,1.1-2c0.2-0.1,0.1-0.5,0.2-0.4c0.1-0.1,0.1-0.3-0.1-0.2c0.1-0.1,0-0.1-0.1,0
	c-0.1,0,0.2,0.4-0.1,0.2c-0.2-0.1,0,0.1,0,0.1c-0.3,0.1-0.8,0.2-0.9,0.3c0-0.2-0.2,0.1-0.2,0.2c-0.3,0.2-0.8,0.5-1,0.8
	c-0.1,0.2-0.5,0.2-0.5,0.4c0.1,0.1-0.1,0.1-0.2,0.3c-0.1-0.2-0.4,0.4-0.5,0.5c-0.2,0-0.3,0.5-0.3,0.4c-0.2,0.3-0.1,0.1-0.1,0.3
	c-0.1,0-0.3,0.1-0.2,0.2c-0.1,0.1,0,0.2-0.1,0.2c-0.1,0.2-0.2,0.2-0.2,0.4c0.4,0.3,0.8,0.4,1.2,0.5c0.9,0.3,1.9,0.5,2.6,1.2
	c0.2,0.1,0.1,0.2,0.2,0.3c0,0.1,0,0.1,0.1,0.1c0,0,0,0,0,0c0,0,0,0,0,0c0,0,0.1,0.1,0.1,0.1c0.5,0.5,0.6,0.9,0.6,1.6
	c0,0.2-0.1,0.3-0.1,0.5c0,0.2-0.4,0.4-0.2,0.4c-0.2,0.3-0.5,0.5-0.7,0.7c-0.2,0.1-0.3,0.2-0.5,0.2c-0.1,0.1-0.3,0.2-0.4,0.2
	c0,0.1-0.2,0.1-0.2,0.1c-0.1,0-0.2,0.1-0.3,0.1c-0.2,0.1-0.2,0.1-0.3,0.1c-0.2,0.1-0.4,0.1-0.5,0.2c-0.1,0.2-0.1,0-0.3,0.1
	c-0.1,0-0.1,0-0.2,0.1c-0.3,0-0.1,0-0.2,0.1c0,0-0.1,0-0.2,0c0,0,0,0,0,0c0,0,0,0,0,0c-0.1,0-0.1,0-0.2,0c-0.1-0.1,0,0.2-0.1,0
	c-0.2,0.1-0.6,0.2-0.4,0c-0.2-0.2,0.2,0.1,0.1,0c0.1-0.1,0.2,0,0.2,0c0,0,0,0,0-0.1c0.3-0.1,0.4-0.1,0.7-0.2c0.2-0.2,0.1,0,0.4-0.1
	c0-0.1,0.1-0.2,0.2-0.1c0.1-0.1,0.1,0,0.2-0.1c0.2,0,0.2-0.2,0.2-0.2c0.1-0.1,0.2,0.1,0.3,0c0.1-0.1-0.1-0.1,0-0.2
	c0.2-0.1,0.3,0.1,0.4,0c0-0.1-0.3,0.1-0.1-0.1c0.4-0.2,0.1-0.1-0.1,0c-0.2,0.1-0.4,0.2-0.7,0.2c-0.1,0.2-0.2,0-0.3,0.1
	c-0.2,0-0.5,0.1-0.6,0.2c-0.2,0.1-0.1-0.1-0.3,0c-0.2,0-0.2,0.3-0.2,0.1c-0.2,0,0,0.2-0.3,0c-0.1,0.1,0.1-0.1-0.1-0.1
	c-0.2,0-0.7,0.1-0.6,0c0,0,0,0,0,0c0,0-0.1,0,0,0c-0.1,0-0.3,0-0.4-0.2c-0.1-0.2,0.1-0.2-0.2-0.3c-0.1,0.1-0.2,0-0.3,0
	c-0.2,0-0.2-0.2-0.3-0.2c-0.3-0.1,0.6-0.3,0.2-0.2c-0.2-0.1,0.1,0,0.1-0.2c1.2-0.4,2.4-0.7,3.5-1.4c0.2-0.2,1.2-0.6,0.6-0.8
	c-0.2-0.1-0.5-0.2-0.6-0.2c-0.3-0.1-0.5-0.2-0.8-0.3c-0.2-0.1-0.3-0.1-0.6-0.2c-0.3-0.2-0.7-0.3-0.9-0.6c-0.1-0.2-0.2-0.4-0.3-0.7
	c-0.1-0.1-0.1-0.1-0.1-0.2c-0.1-0.1,0-0.5-0.2-0.6c-0.1,0.3-0.1,0,0-0.1c-0.2,0.1-0.2,0-0.2-0.2c0,0.1,0-0.3-0.1-0.1
	c-0.1,0-0.2-0.5-0.1-0.7c0-0.8,0.4-1.7,0.9-2.4c1.1-1.5,2.6-2.7,4.3-3.4c0.3-0.1,0.6-0.2,0.9-0.3
	C325.3,176.1,325.5,176.1,325.6,176.2z M319.5,183.8c-0.1,0,0.3,0.3,0.2,0.2C319.6,184,319.5,184,319.5,183.8
	C319.5,183.7,319.6,183.9,319.5,183.8z M319.6,183.7C319.8,184.1,319.5,183.9,319.6,183.7C319.6,183.7,319.6,183.7,319.6,183.7z
	 M319.8,183.8C319.8,184.3,319.9,184,319.8,183.8C319.8,183.8,319.8,183.8,319.8,183.8z M320.2,184.3
	C320.3,184.6,320.5,184.6,320.2,184.3C320.2,184.3,320.2,184.3,320.2,184.3z M320.5,184.7C320.5,184.7,320.4,184.7,320.5,184.7
	c-0.1,0.1,0.1,0,0,0.1C320.6,184.9,320.6,184.7,320.5,184.7C320.5,184.7,320.5,184.7,320.5,184.7
	C320.5,184.7,320.5,184.7,320.5,184.7z M320.5,184.7C320.5,184.7,320.5,184.7,320.5,184.7C320.5,184.7,320.5,184.7,320.5,184.7z
	 M320.5,189.4C320.6,189.6,320.4,189.5,320.5,189.4C320.5,189.4,320.5,189.5,320.5,189.4z M320.7,184.9
	C320.5,185,320.8,185.1,320.7,184.9C320.7,184.9,320.7,184.9,320.7,184.9z M320.8,185c0.1,0.1,0.2,0.1,0.1,0.1
	c0.1,0.1,0.3,0.2,0.3,0C321.1,185,320.9,185,320.8,185C320.8,185,320.8,185,320.8,185z M321.4,185.3
	C321.1,185.2,321.4,185.4,321.4,185.3c0.1,0.1,0.3,0.2,0.3,0.2c0,0,0,0,0,0c0,0,0,0,0.1,0c0,0,0,0,0,0c0.1,0,0.2,0.1,0.3,0.1
	c0.1-0.2-0.1-0.1-0.3-0.2c0,0.1-0.3,0.1-0.3-0.1C321.5,185.3,321.3,185.2,321.4,185.3z M321.3,189.7
	C321.3,189.7,321.3,189.7,321.3,189.7C321.3,189.7,321.3,189.8,321.3,189.7z M321.4,189.7C321.3,189.7,321.3,189.7,321.4,189.7
	C321.3,189.7,321.4,189.7,321.4,189.7C321.4,189.7,321.5,189.7,321.4,189.7C321.4,189.7,321.4,189.7,321.4,189.7z M321.4,185.3
	C321.5,185.4,321.2,185.3,321.4,185.3C321.4,185.3,321.4,185.3,321.4,185.3z M321.4,189.7C321.4,189.7,321.3,189.7,321.4,189.7
	C321.4,189.7,321.4,189.7,321.4,189.7z M321.8,185.5C321.8,185.5,321.8,185.5,321.8,185.5C321.8,185.5,321.8,185.5,321.8,185.5z
	 M322,185.5C322,185.5,322,185.5,322,185.5C322.1,185.5,321.9,185.6,322,185.5z M322.4,185.6c0,0.1,0.2,0.1,0.3,0.2
	c0.1,0,0.2,0.1,0.3,0.1c0.1,0.1,0.1,0,0,0c-0.3-0.1-0.1-0.1,0.2,0c0.1,0.1,0.3,0.1,0.2,0c0-0.1-0.2-0.1-0.2-0.1
	c-0.1,0-0.3-0.1-0.4-0.1c-0.2-0.1-0.3,0.1-0.3-0.1C322.5,185.5,322.5,185.6,322.4,185.6z M322.7,185.9
	C322.8,185.9,322.7,185.9,322.7,185.9C322.6,185.9,322.7,186,322.7,185.9z M326.4,180.8C326.4,180.8,326.4,180.8,326.4,180.8
	C326.4,180.7,326.4,180.8,326.4,180.8z M326.5,180.3L326.5,180.3C326.5,180.3,326.5,180.3,326.5,180.3z"/>
<path d="M332,175.4c0.1,0,0.3,0.1,0.4,0.3c0.1,0.2,0.4,0.4,0.3,0.5c0.2,0.1,0.4,0.3,0.4,0.6c0.2,0,0,0.2,0.2,0.3
	c0.1,0.3,0.1,0.7,0.2,1c0,0.1,0.1,0.4,0.1,0.4c0,0-0.3,0.5-0.1,0.3c0.1,0.4-0.1-0.1-0.1,0.2c-0.1,0.3,0.2-0.1,0.1,0.1
	c0,0.2-0.1,0.6-0.2,0.6c-0.2,0.1-0.1,0-0.2,0.2c-0.1,0.1,0,0.2-0.2,0.4c0,0.1-0.1,0.2-0.1,0.2c0-0.2-0.1-0.1-0.2,0
	c0-0.2-0.1-0.1,0-0.2c0.1-0.2-0.2,0.2-0.1-0.1c-0.1,0-0.1,0-0.3-0.1c-0.1,0.1-0.3,0.1-0.2-0.1c-0.1,0.1-0.3,0.1-0.3,0
	c0,0-0.2-0.1-0.1-0.2c-0.1-0.1,0.2-0.1,0-0.2c0.1-0.2,0.1-0.2-0.1-0.2c-0.3-0.3,0.2,0,0.1-0.1c-0.1-0.1-0.3-0.1-0.3,0
	c0-0.1-0.4-0.1-0.2-0.2c-0.2,0.1-0.1,0.3-0.3,0.2c-0.2,0.2-0.3,0.4-0.3,0.6c-0.2,0.2-0.1,0.1-0.2,0.3c-0.1,0.1-0.2,0.3-0.3,0.4
	c-0.1,0.2-0.2,0.5-0.3,0.6c0,0.1-0.2,0.4-0.2,0.5c-0.1,0.2-0.1,0.2-0.1,0.3c0,0,0,0,0,0c0,0,0,0,0,0.1c0,0-0.1,0.1-0.1,0.2
	c0,0,0,0.1,0,0.1c0,0.1,0,0.2-0.1,0.1c0,0.1-0.1,0.2-0.1,0.4c-0.1,0-0.1,0.2-0.1,0.2c0,0.2,0.1,0.6-0.1,0.8c0,0.1,0,0.2-0.1,0.2
	c0.1,0.2-0.1,0-0.1,0.2c0.1,0.1,0,0.2,0,0.2c0.1,0.1,0,0.2,0,0.3c0,0.1,0,0.1,0,0.2c0,0,0,0,0,0c0,0,0,0,0,0c0,0.1,0,0.1,0,0.2
	c0,0.2,0.1,0.2,0,0.4c0,0,0,0,0,0c0,0,0,0,0,0c-0.1,0.1,0,0.1,0,0.1c0,0.1,0.1,0.1,0,0.3c0,0.1,0.1,0.4,0.2,0.4
	c-0.1,0.3,0.1,0.5,0.4,0.2c1-0.6,1.8-1.5,2.5-2.4c0.1-0.1,0.3-0.3,0.1,0c0.2-0.3,0.2-0.1,0.4-0.3c0.1-0.1,0.2,0.1,0.1,0.1
	c0.1,0.1,0.1,0.2,0.3,0.3c0.2-0.2,0.1-0.1,0.2,0.1c-0.2,0.3,0.1-0.1,0.3-0.1c-0.1,0.3,0,0.2,0.1,0.4c0,0,0,0,0-0.1c0,0-0.1,0,0,0
	c0,0,0,0,0,0c0,0,0-0.1,0-0.1c0,0,0,0,0.1,0c0,0.1,0,0.2,0.1,0.2c0,0,0.3-0.3,0.2-0.1c0.2-0.1,0.1,0.3-0.1,0.4
	c-0.1-0.1,0-0.2-0.1-0.1c0.1,0-0.1,0.2,0.1,0.2c0.3,0.1-0.3,0.1,0,0.2c-0.1,0-0.1,0.1-0.2,0.2c0,0,0,0,0,0c0,0.1,0,0.1-0.1,0.1
	c0.2,0-0.1,0-0.2,0.1c-0.2,0.1,0,0.3,0,0.4c-0.1-0.1-0.1,0.1-0.1,0.2c-0.1-0.1,0,0.1-0.1,0.1c-0.1-0.1,0.1-0.1,0.1-0.2
	c0-0.1-0.1-0.2-0.1-0.1c-0.1,0.1-0.3,0.3-0.3,0.5c-0.2-0.1-0.2,0.1-0.2,0.1c0,0-0.1,0-0.1,0.1c0,0.1,0,0.2-0.1,0.3
	c-0.1-0.1-0.2,0.1,0,0.1c-0.1,0.2-0.2-0.1-0.1,0.1c0.1,0,0.1,0.1,0,0.1c-0.2,0.1-0.1-0.1-0.2-0.1c0,0.1,0,0.1-0.2,0.1
	c0,0,0,0.1,0,0.1c0,0,0,0,0,0c0.1,0,0,0.1-0.1,0c-0.1,0.1-0.2,0.1-0.2,0.1c0,0.1-0.4,0.2-0.4,0.3c-0.1,0.1-0.3,0.1-0.5,0.1
	c-0.1-0.3,0,0.1-0.2,0c0-0.1-0.3-0.1-0.4-0.1c-0.2,0-0.5-0.1-0.7-0.1c0.4,0.2-0.2-0.1-0.1,0.1c0.1,0.1,0.3,0,0.3,0.1
	c0.1,0.1,0.5,0.2,0.2,0.2c-0.2,0.1-0.2-0.1-0.5-0.1c-0.1-0.1-0.2-0.1-0.4-0.1c0.3-0.1,0-0.1,0-0.1c-0.3-0.2,0.2,0.1-0.1-0.2
	c-0.3-0.3-0.1,0.2-0.3-0.1c0-0.1-0.3-0.3-0.5-0.3c-0.2,0-0.6-0.4-0.6-0.2c-0.3-0.3-0.6-0.6-0.8-1c-0.1-0.2-0.2-0.4-0.1-0.5
	c0-0.1,0-0.3-0.1-0.3c0-0.7,0-1.5,0.2-2.3c0.5-2.4,1.6-4.8,3.3-6.8c0.3-0.3,0.5-0.6,0.8-0.8c0.1-0.2,0.3-0.1,0.5-0.3
	c0.1-0.1,0.8-0.1,0.6-0.1c0,0,0,0,0,0C331.8,175.3,331.9,175.3,332,175.4z M328.5,185.6C328.5,185.6,328.5,185.6,328.5,185.6
	C328.5,185.6,328.5,185.6,328.5,185.6z M329,182.9C329.1,183,328.9,183,329,182.9C329,183,329,182.9,329,182.9z M329.2,182.3
	C329.2,182.3,329.2,182.3,329.2,182.3C329.2,182.3,329.2,182.3,329.2,182.3z M330.3,188.4c0.1,0.1,0,0.1-0.1,0.2
	c-0.2,0-0.2-0.1-0.1-0.2C330.2,188.5,330.2,188.4,330.3,188.4z M330.3,188.6c-0.4,0,0.1,0,0.1-0.1
	C330.6,188.6,330.3,188.6,330.3,188.6z M330.2,179.9C330.1,180,330.2,179.9,330.2,179.9C330.2,179.9,330.2,179.9,330.2,179.9z
	 M332.8,186.7c0,0.2-0.3,0.2-0.3,0.3c-0.2,0.2-0.2,0.2-0.3,0.3c-0.1,0.1-0.3,0.3-0.4,0.4c0,0,0,0,0,0c0,0.1-0.1,0.1-0.1,0.1
	c0,0.1-0.1,0.1-0.1,0c-0.2,0-0.1,0.2-0.3,0.2c-0.1,0.4-0.1-0.1-0.2,0.2c-0.1,0.1-0.2,0.1-0.3,0.2c0,0,0,0,0,0c0,0,0,0,0,0
	c0,0-0.1,0-0.1,0.1c-0.2-0.1-0.1-0.2,0.1-0.2c0.2-0.2,0.3-0.1,0.5-0.3c0.1,0,0.3-0.3,0.3-0.3c0.1-0.1,0.4-0.3,0.6-0.5
	C332.4,187,332.6,186.8,332.8,186.7C332.8,186.6,332.8,186.6,332.8,186.7z M330.9,187.8C330.9,187.8,331,187.8,330.9,187.8
	C330.9,187.8,330.9,187.8,330.9,187.8C330.9,187.8,330.9,187.8,330.9,187.8C330.9,187.8,330.9,187.8,330.9,187.8z M330.9,187.8
	C330.9,187.8,330.9,187.8,330.9,187.8C330.9,187.8,330.9,187.8,330.9,187.8z M331.1,188c-0.3,0.1,0-0.1,0-0.2
	C331.1,187.9,331.1,188,331.1,188z M331,188.3C331,188.3,331,188.3,331,188.3C331,188.3,331,188.3,331,188.3z M331.3,179.4
	C331.3,179.6,331.2,179.5,331.3,179.4C331.2,179.4,331.2,179.4,331.3,179.4z M332.2,184c0,0.2,0,0.2,0,0.2c0,0,0.2,0,0,0
	c0,0,0,0,0,0C332.3,184,332.3,183.9,332.2,184C332.2,183.9,332.2,184,332.2,184z M332.2,184.1C332.2,184.1,332.2,184.1,332.2,184.1
	C332.2,184.1,332.2,184.1,332.2,184.1z M332.9,180.2C332.9,180.2,332.9,180.2,332.9,180.2C332.9,180.2,332.9,180.3,332.9,180.2z
	 M333,186.3C332.9,186.5,332.9,186.4,333,186.3C333,186.3,333,186.3,333,186.3z M333.2,186.1c-0.2,0,0.2-0.2,0.2-0.3
	C333.5,186,333.2,186,333.2,186.1z M333.2,185.5C333.2,185.5,333.2,185.5,333.2,185.5C333.2,185.5,333.2,185.5,333.2,185.5z
	 M333.7,185C333.8,185.1,333.5,185,333.7,185C333.7,184.9,333.7,184.9,333.7,185C333.8,184.9,333.7,185,333.7,185z"/>
<path d="M337,174.6c0.1-0.1,0.2,0.1,0.2,0.2c0.1,0.2,0.2,0.3,0.5,0.3c0,0,0.1,0.2,0.1,0.2c0.2,0,0,0.2,0.1,0.3
	c0.1,0.1,0.2,0,0.2,0.1c-0.1,0.1,0.1,0.3,0.1,0.6c0,0.3-0.2,0.1-0.2,0.3c0.2,0.1,0.1,0.1,0.1,0.2c-0.1,0.2-0.3,0.3-0.1,0.3
	c-0.1,0.2,0,0.2-0.1,0c-0.1,0.1-0.1,0.2-0.1,0.3c0,0,0,0,0,0c-0.1,0,0,0,0,0c0,0.2-0.1,0.3-0.1,0.6c-0.1,0.4,0,0.2-0.2,0.6
	c0,0.1-0.1,0.5-0.1,0.6c0,0-0.1,0.1-0.1,0.3c0.2,0.1-0.1,0-0.1,0.2c0.1,0.3,0,0.1-0.1,0.4c0.9-0.2,1.8-0.4,2.7-0.6
	c0.3-1.5,0.7-2.9,1.1-4.3c0.1-0.3,0.1-0.7,0.3-0.8c0.1-0.2,0.5-0.4,0.5-0.1c0.2,0.2-0.2-0.4,0.1-0.1c0.1-0.2,0,0.3,0.2,0.2
	c0,0.2,0.3,0.2,0.1,0.3c0.1-0.1,0.1,0.1,0.3,0c-0.2,0.2,0.2,0,0.2,0.2c0.2-0.1,0,0,0.2,0.1c0.1,0.3,0.2-0.1,0.2,0.1
	c0,0.2,0.1,0.3,0,0.5c0,0,0.2,0.2,0,0.2c-0.1,0.3,0.3-0.2,0.1,0.2c-0.1-0.2,0,0.1-0.1,0.2c0.1,0.2-0.2,0.1,0,0.2
	c-0.1,0.1-0.2,0.3-0.2,0.5c0,0.1,0.1,0.2,0,0.2c-0.1,0.3,0,0.6-0.1,0.9c-0.2,0.6-0.3,1.2-0.4,1.8c0,0.3-0.2,0.7-0.2,1
	c-0.1,0.1,0,0.2-0.1,0.3c0,0.2,0,0.3-0.1,0.4c-0.1,0.5-0.1,1-0.2,1.5c0,0.1-0.1,0.5-0.1,0.6c0,0,0,0.1,0,0.2c0,0.2-0.1,0.2,0,0.3
	c-0.1,0.1,0,0.3-0.1,0.5c-0.1,0.3,0,0.6-0.1,0.8c0,0.3,0,0.3-0.1,0.6c0,0,0,0,0,0c0,0,0,0,0,0c0,0,0,0,0,0.1c0,0.2,0,0.3-0.1,0.4
	c0,0.3-0.2,0.2-0.1,0c0-0.4-0.1,0.3-0.1-0.1c0-0.2-0.2-0.1-0.2,0c0.1-0.1-0.1,0-0.1-0.1c0,0,0,0.1-0.1,0.2c0.1-0.3-0.2,0-0.4-0.1
	c-0.2,0.2-0.1-0.1-0.3,0.1c0,0-0.1-0.3-0.1-0.2c-0.2,0.2-0.1-0.2-0.2-0.1c-0.1,0,0,0.3-0.2,0.2c0,0.3-0.1,0.2-0.2,0.1
	c0-0.1-0.1-0.2-0.1-0.2c0,0-0.1,0,0,0c-0.1,0-0.1,0-0.1-0.1c0.1-1.4,0.3-2.8,0.4-4.2c-0.2,0-0.5,0.1-0.6,0.1c-0.1,0-0.4,0.1-0.6,0.2
	c-0.2,0.1-0.4,0-0.5,0.1c-0.1,0-0.5,0.2-0.5,0.2c-0.1-0.1-0.2,0.1-0.3,0.1c0,0.2-0.1,0.4-0.1,0.6c-0.1,0.2-0.1,0.4-0.1,0.6
	c0,0.3-0.1,0.9-0.1,1.1c-0.1,0,0.1,0.2,0,0.2c0,0.1,0.1,0.1,0,0.3c0,0,0,0,0,0c0,0,0,0,0,0.1c-0.1,0.2,0.1,0.2,0,0.3
	c0,0,0.1,0.4-0.1,0.3c0,0.3,0,0.3,0,0.6c-0.1,0,0,0.6-0.1,0.4c-0.1-0.2-0.2,0.1-0.2-0.3c-0.1,0.1-0.2,0-0.2,0.1
	c-0.2-0.1,0,0.4-0.2,0.1c0.1-0.1-0.1-0.1-0.2-0.1c-0.1-0.2-0.4,0.1-0.3-0.1c0,0-0.1,0-0.1-0.1c0,0-0.2,0.1-0.1,0c0,0,0,0,0,0
	c-0.1-0.1-0.1-0.1-0.2-0.2c0,0,0,0,0,0c0,0,0,0,0,0c0,0.1,0,0.3-0.1,0.1c-0.1,0,0-0.1-0.1,0c-0.1-0.1-0.2,0.1-0.2,0.1
	c-0.1-0.1-0.1-0.1-0.3-0.2c0-0.3-0.1-0.1-0.1-0.3c0.1,0-0.1-0.3,0-0.6c0.2-3.5,0.9-7,2-10.4c0.1-0.3,0.2-0.8,0.3-0.8
	c0.1-0.4,0.1-0.1,0.3-0.2C336.8,174.6,336.8,174.7,337,174.6C337.1,174.5,336.9,174.7,337,174.6z M341.5,186.2L341.5,186.2
	C341.6,186.2,341.5,186.2,341.5,186.2z"/>
<path d="M346.4,173.4c0.1,0,0.2,0,0.3,0.1c0.1,0.1,0.3,0,0.3,0.2c0.1,0,0.3,0.3,0.2,0.2c0-0.1,0.1,0.1,0.1,0.1c0,0.2,0,0.4,0.1,0.5
	c0,0.1-0.1,0-0.2,0.2c0,0.3-0.1,0.2,0.1,0.3c-0.1,0.1,0,0.2-0.1,0.2c-0.1,0.2,0,0.3,0,0.4c0.1,0.2-0.1,0.3-0.1,0.4
	c0.1,0,0.1,0.1,0.1,0.3c0,0.4-0.1,0.1-0.2,0.3c0.1,0,0.1,0.1-0.1,0.3c-0.1,0.1,0,0.3-0.1,0.4c0,0.2-0.1,0-0.1,0.4
	c-0.1,0.1-0.1,0.3-0.1,0.4c-0.1,0.2,0.1,0,0,0.2c0,0.1,0,0.2-0.1,0.5c0,0.1,0,0.1,0,0.1c0,0,0,0,0,0c0,0,0,0,0,0
	c-0.1,0.1,0,0.3-0.1,0.5c0,0.3-0.1,0.6-0.2,0.9c0,0-0.1,0.4-0.1,0.5c-0.1,0.4-0.1,0.8-0.2,1.2c-0.1,0.3-0.1,0.7-0.1,0.9
	c0,0.1-0.1,0.4-0.1,0.6c0.9-0.1,1.7-0.3,2.6-0.2c0.1,0.1,0.2,0.1,0.4,0.1c0,0.1,0.3,0.2,0.1,0.2c0.1,0.1,0.1,0.5-0.1,0.1
	c0,0-0.1,0-0.1,0.1c0,0,0,0,0,0c0,0.1,0,0.1,0.1,0.1c-0.1,0.2-0.3-0.1-0.1,0.2c-0.2,0.1-0.1,0.1-0.2,0.2c0,0.2,0.2,0,0.3,0.2
	c0,0.1-0.6,0.1-0.2,0.3c-0.2,0.2,0.1,0.2-0.2,0.3c0.1,0,0.1,0.1,0,0.2c-0.1,0,0,0.2-0.1,0.3c-0.1,0.3-0.3-0.2-0.2,0.2
	c0.1,0.2-0.3,0-0.3,0c0,0.1,0.1,0.3,0,0.1c-0.2,0.1-0.2,0-0.3,0.1c-0.1-0.1-0.3,0-0.2,0c0-0.1-0.3,0.1-0.3,0c-0.1,0-0.3,0.1-0.3,0
	c0,0-0.3,0.1-0.4,0.1c0-0.1-0.2,0.1-0.2-0.1c-0.1,0.2-0.3,0.1-0.5,0.2c-0.1-0.1-0.2,0-0.3,0c0,0,0,0,0,0c0,0-0.1,0-0.1,0.1
	c-0.1,0-0.1,0-0.2,0c0,0,0,0,0,0c0,0-0.1,0-0.1,0c0,0-0.1,0,0,0c-0.1,0-0.1,0-0.1,0c0,0,0,0,0,0c0,0,0,0,0,0c0,0-0.1,0-0.1,0
	c0,0.1-0.3,0.1-0.5,0.1c0.2,0-0.1,0.1-0.2,0.1c0,0-0.1,0-0.2,0.1c0,0,0.1,0,0.2,0c0,0,0,0,0,0c0,0.1,0,0.1-0.2,0.1
	c0.1,0.1-0.2,0-0.1,0.1c-0.1,0.1-0.2-0.1-0.3,0c-0.1,0.1-0.1,0.1-0.2,0.1c0,0,0,0,0,0c0,0,0,0,0,0c-0.1,0-0.1,0-0.2,0.1
	c-0.3,0.1,0-0.1,0-0.1c0,0,0-0.1,0-0.1c0,0,0,0,0,0.1c0,0,0,0,0,0c0,0.1,0,0-0.1,0c0.4-0.1-0.2-0.1,0-0.2c0-0.1,0.1-0.2,0-0.3
	c0.1,0.2-0.2,0-0.1,0c0.1-0.1-0.2-0.1,0.1-0.1c-0.1-0.1-0.2-0.2-0.1-0.4c0,0.1-0.3,0.2-0.2,0c0.1,0,0-0.5,0.1-0.3
	c0.2,0,0-0.2,0.1-0.2c0.1-0.1,0-0.3,0-0.3c0.1-0.1,0.2,0.2,0.2-0.1c-0.1,0-0.1-0.2-0.3-0.2c-0.1-0.1-0.1-0.2,0.1-0.3
	c0.3-0.4,0.8-0.1,0.7-0.7c0.4-2.9,1.1-5.9,1.8-8.8c0.1-0.4,0.3-0.8,0.3-1.1c-0.2-0.1-0.1-0.2-0.1-0.3c0.2-0.1,0.4-0.2,0.6-0.2
	C346,173.2,346.3,173.3,346.4,173.4z M342.6,186.8C342.7,187,342.3,186.9,342.6,186.8C342.6,186.8,342.6,186.8,342.6,186.8z
	 M342.8,186.7C342.8,186.7,342.8,186.7,342.8,186.7C342.8,186.8,342.8,186.8,342.8,186.7z M342.9,186.8
	C343,186.8,343,186.8,342.9,186.8C343,186.8,343,186.8,342.9,186.8z M343,186.5C343,186.7,343.1,186.5,343,186.5
	C343,186.5,343,186.5,343,186.5z M343.3,186.4C342.8,186.6,343.5,186.5,343.3,186.4C343.4,186.4,343.4,186.5,343.3,186.4z
	 M343.8,186.5C343.8,186.5,343.8,186.5,343.8,186.5C343.8,186.5,343.8,186.5,343.8,186.5z M343.9,186.5c-0.1,0.2-0.1,0-0.1,0
	C343.9,186.5,343.9,186.5,343.9,186.5z M343.9,186.4C344,186.4,344,186.4,343.9,186.4C343.9,186.5,343.9,186.4,343.9,186.4z
	 M344.4,186.1C344.3,186.1,344.6,186,344.4,186.1C344.4,186,344.4,186,344.4,186.1z M344.6,186.2
	C344.6,186.2,344.6,186.2,344.6,186.2C344.6,186.2,344.6,186.2,344.6,186.2z M344.8,186.2L344.8,186.2
	C344.9,186.2,344.8,186.2,344.8,186.2z M345.9,185.8c0.1,0,0.5-0.1,0.4-0.1c-0.1,0-0.3,0-0.4,0C345.7,185.6,345.5,185.8,345.9,185.8
	z M346.7,185.6C346.5,185.8,346.9,185.6,346.7,185.6C346.8,185.6,346.7,185.6,346.7,185.6z M347.1,185.6
	C347.1,185.7,347.5,185.6,347.1,185.6C347.1,185.6,347.1,185.6,347.1,185.6C347.1,185.6,347.1,185.6,347.1,185.6z M347.2,176.3
	C347.3,176.3,347.2,176.3,347.2,176.3C347.2,176.3,347.2,176.3,347.2,176.3c0,0,0-0.1,0.1-0.2C347.3,176.1,347.2,176.3,347.2,176.3z
	 M348,185.4C348,185.4,348,185.4,348,185.4C347.9,185.4,347.9,185.6,348,185.4z"/>
<path d="M354.8,172.6c0.1,0.1,0.3,0.3,0.5,0.4c0.1,0.1,0.2,0,0.3,0.1c0.1,0.2,0.4,0.2,0.4,0.4c0.2,0.2,0.3,0.4,0.3,0.6
	c0,0.4,0.2,0.3,0.2,0.7c-0.1,0-0.1,0.1-0.1,0.2c0.1-0.2,0.2,0.3,0,0.2c0,0.5,0.1,1,0,1.4c-0.1,0.1,0.2,0,0,0.2c-0.1,0.1,0,0.1,0,0.2
	c0,0,0-0.1,0-0.1v0c0.1-0.1,0.1-0.1,0.1,0.2c-0.1,0-0.2,0.4-0.1,0.4c0.1,0.2,0,0.4,0,0.7c0,0.1-0.1,0.4,0.1,0.3c0,0.2,0,0.2-0.1,0.1
	c0,0,0,0,0,0c0,0,0,0-0.1,0.1c0,0.3,0.2,0.3,0.1,0.5c0.1,0.1-0.2,0.4,0,0.6c0,0.2-0.2,0-0.1,0.2c0.1-0.1,0.1,0.1,0.3,0.1
	c-0.1,0.1-0.2,0.1-0.2,0.2c0.2,0,0.2,0.2,0,0.3c0,0.1,0.4-0.1,0.2,0.1c-0.2-0.1-0.1,0.2-0.2,0.1c-0.1-0.1-0.1,0.1-0.1,0.1
	c-0.1,0.1,0.4-0.1,0.2,0c-0.2,0,0.1,0.2-0.1,0.1c-0.1,0.1,0,0-0.1,0.3c-0.1-0.1,0,0.1-0.1,0.2c-0.1,0,0.1,0.3,0,0.3
	c0,0.2,0,0.2,0,0.5c-0.1,0.2,0,0.4-0.1,0.6c0.2,0.1,0,0.1,0.1,0.2c-0.1,0-0.1,0.4-0.1,0.4c0.2,0.1-0.1,0.1,0,0.2
	c-0.1,0.1,0,0.4-0.1,0.5c0,0.2,0,0.3,0.1,0.5c0,0.3-0.4-0.2-0.3,0c-0.1,0-0.1,0.1-0.1,0.1c-0.1,0-0.3,0.1-0.3,0
	c0.1,0-0.2-0.1-0.2-0.1c0,0.3-0.2-0.2-0.2-0.1c-0.1,0.3-0.2-0.2-0.4-0.1c0.1-0.2-0.2-0.3-0.1-0.1c-0.1,0.2-0.4-0.1-0.3,0.1
	c-0.1,0.4-0.1-0.1-0.2,0c0,0.1-0.2-0.1-0.2,0.1c-0.2,0,0.3-0.3-0.1-0.2c0-0.6,0.1-1.1,0.1-1.7c0-0.3,0.2-1.1-0.2-1
	c-0.4-0.2,0.4,0,0.3-0.3c0.1-0.1,0-0.3-0.3-0.1c0.2,0.1-0.1,0.2,0,0c-0.1,0-0.3,0.1-0.4,0.1c-0.2,0-0.2,0.2,0,0.1
	c0.2,0.1-0.3,0.2-0.2,0.2c0.1,0,0,0.1,0.1,0.1c-0.2,0-0.6,0.2-0.7,0.1c-0.2,0.2-0.1,0-0.3,0.1c-0.2,0.2-0.4,0-0.5,0.1
	c-0.1-0.2-0.3,0.1-0.4-0.1c0,0.1,0,0.3-0.1,0.1c-0.1,0.1-0.1,0.3,0.1,0.1c0.2,0,0.1,0.4-0.1,0.3c-0.1,0.1,0,0.3-0.1,0.2
	c-0.1-0.3-0.3,0.5-0.2,0.4c0.1,0,0.1,0.3-0.1,0.2c0-0.2-0.4,1-0.4,1.1c0-0.2-0.2,0.1,0,0.1c0,0.2-0.1,0.3-0.1,0.1
	c-0.1,0.1-0.1,0.3-0.1,0.3c0,0,0,0.1-0.1,0.1c0,0.1-0.1,0.1-0.1,0.1c-0.3-0.1,0.2,0.2,0,0.1c0.1,0.2-0.3-0.1-0.2,0
	c-0.1-0.2-0.3,0.5-0.2,0c0.1-0.1-0.2-0.3-0.1-0.1c0,0.1,0,0.2-0.1,0.1c0,0,0.1,0,0,0c0,0,0,0,0,0c0,0-0.1-0.1-0.1-0.2
	c-0.3,0.1,0.1,0-0.1,0.2c0-0.1-0.2,0.1-0.2-0.1c0.2-0.1-0.2-0.2-0.2,0c0.2-0.2,0.1,0.2,0,0.1c0-0.2-0.2-0.1-0.1-0.1
	c-0.1-0.4-0.2,0.3-0.2-0.1c0.1,0,0.1-0.3-0.1-0.2c-0.2,0.1,0-0.2-0.1-0.2c-0.1,0-0.2,0.1-0.3,0.1c0,0.1-0.2,0.1-0.2,0.1
	c0.1-0.3-0.3,0.2-0.1-0.1c0-0.1,0-0.3,0-0.3c0.1-0.2,0.1-0.1,0.1-0.3c0,0,0-0.2,0-0.3c1-3.4,2.6-7.5,4-9.5c0.5-0.8,1.1-1.6,2-2
	c-0.1,0.1,0.1,0,0.1,0c0,0,0.1-0.1,0.1-0.1C354.6,172.4,354.8,172.5,354.8,172.6z M349.5,185.4C349.5,185.4,349.5,185.4,349.5,185.4
	C349.5,185.4,349.5,185.4,349.5,185.4z M351,183.5C351.1,183.8,350.8,183.6,351,183.5C351,183.5,350.9,183.5,351,183.5z
	 M351.5,182.1c0.2,0.2-0.1,0-0.1,0.1C351.3,182.3,351.3,182.2,351.5,182.1C351.4,182.1,351.4,182.1,351.5,182.1z M352.6,181.8
	C352.6,181.8,352.6,181.8,352.6,181.8c-0.3,0.1-0.6,0.1-0.8,0.2c-0.4,0,0,0.2,0.1,0.1c0.1,0,0.4,0,0.4-0.1
	C352.3,181.9,352.8,181.9,352.6,181.8C352.6,181.8,352.6,181.8,352.6,181.8z M352.1,182.1C352.2,182.2,351.7,182.2,352.1,182.1
	C352.1,182.1,352.1,182.1,352.1,182.1z M354.2,175.8c-0.1,0.1-0.1,0.4-0.2,0.4c0,0.2-0.4,0.2-0.2,0.3c0.1,0-0.3,0.4-0.3,0.3
	c0.1-0.1,0,0,0.1-0.2c-0.1,0.1-0.2,0-0.2,0.1c0,0,0,0,0,0c0,0,0,0,0,0c0,0-0.1,0.1-0.1,0.1c0,0,0,0,0,0c0,0,0,0,0,0.1
	c0,0,0,0.1-0.1,0c0,0.1,0,0,0,0.2c-0.3,0.2,0.1,0.1,0,0.2c0,0-0.1,0.3-0.1,0.2c0.2-0.2-0.1-0.1-0.1,0.1c-0.1,0.1-0.1,0.2-0.2,0.2
	c0,0.2-0.1,0.2-0.2,0.4c0,0.3,0.1,0,0.2-0.1c0.1-0.1,0.1-0.4,0.3-0.3c-0.1,0-0.1,0.2-0.1,0.4c-0.1,0.2-0.1,0.1-0.2,0.4
	c-0.2,0.1,0,0.4-0.2,0.4c0-0.2,0-0.1-0.1,0.1c-0.2,0-0.3,0.3-0.1,0.3c0,0,0,0.1,0,0.1c0.2,0.1,1.2-0.1,1.7-0.2
	c0.1-0.8,0.1-1.6,0.2-2.3c0-0.4,0.2-0.9,0-1C354.3,175.7,354.3,175.8,354.2,175.8z M352.5,178.7c0.1,0.1,0.1-0.1,0.2-0.3
	c-0.1,0,0,0,0-0.1C352.6,178.5,352.5,178.6,352.5,178.7z M352.5,178.9C352.7,179,352.5,179,352.5,178.9
	C352.5,178.9,352.5,178.9,352.5,178.9z M353.5,181.8c0,0-0.1,0-0.1,0.1C352.9,181.8,353.2,181.8,353.5,181.8
	C353.4,181.8,353.4,181.8,353.5,181.8z M353.3,181.7c0-0.2-0.2,0,0.1-0.2C353.5,181.5,353.4,181.7,353.3,181.7z M353.4,176.8
	C353.4,176.8,353.4,176.8,353.4,176.8C353.4,176.8,353.4,176.8,353.4,176.8z M353.5,176.6C353.5,176.6,353.5,176.6,353.5,176.6
	C353.5,176.6,353.5,176.6,353.5,176.6z M353.6,176.8C353.6,176.8,353.6,176.8,353.6,176.8C353.7,176.8,353.5,177,353.6,176.8z
	 M354.3,175.5c-0.1,0.1-0.1,0.2-0.2,0.3c0,0.1-0.3,0.4-0.2,0.3c0.1,0.1,0.3-0.3,0.2-0.3C354.2,175.7,354.3,175.7,354.3,175.5
	C354.3,175.6,354.4,175.6,354.3,175.5C354.4,175.5,354.3,175.5,354.3,175.5c0.1,0,0.1-0.1,0.1-0.1
	C354.3,175.4,354.3,175.4,354.3,175.5z M354.2,175.4C354,175.6,354.3,175.5,354.2,175.4C354.2,175.3,354.2,175.4,354.2,175.4z
	 M354.3,175.5C354.3,175.5,354.3,175.5,354.3,175.5C354.3,175.6,354.3,175.6,354.3,175.5z M355.6,185
	C355.7,185.1,355.6,185,355.6,185C355.6,185,355.6,185,355.6,185z M356.4,178.3C356.4,178.3,356.4,178.3,356.4,178.3
	C356.3,178.3,356.5,178.4,356.4,178.3z"/>
<path d="M359.6,172.1c0-0.2,0.1,0.2,0.2,0c0-0.2,0.3,0.1,0.3,0.2c0.2-0.2,0.2,0.2,0.3,0.2c-0.1,0.2,0.3-0.2,0.3-0.1
	c0.2,0.1-0.1,0.1,0.1,0.2c0.1-0.2,0.2-0.1,0.3,0.1c0.1-0.1,0.1-0.1,0.2-0.1c0,0,0,0,0,0c0,0,0,0,0,0c0.1,0.1,0.1,0.2,0.2,0.3
	c0.1,0.2,0.1,0.5,0.2,0.6c0,0,0,0,0,0c0,0,0,0,0,0c0,0,0,0,0,0.1c0,0.2,0.1,0.1,0.1,0.3c0,0.1,0,0.1,0,0.2c0.1,0.1,0,0.1,0,0.1
	c0,0.2-0.1,0.4,0.1,0.5c-0.1,0-0.2,0.2,0,0.4c-0.1,0,0.2,0.1,0.1,0.3c-0.2,0.1,0,0,0.1,0.2c-0.1,0.1,0,0.2,0,0.4
	c0.1,0.7,0.1,1.4,0.3,2c0,0.4,0.1,0.4,0.1,0.1c0.3-1.9,0.8-3.7,1.4-5.5c0.1-0.3,0.2-0.7,0.4-0.9c0,0.2,0.1-0.1,0.3,0
	c0.1,0.3,0.1-0.1,0.2,0.1c0-0.1,0.2-0.1,0.2,0.1c-0.1,0,0,0.2,0.1,0.3c0,0,0.1,0.2,0.2,0.2c0,0.3,0.3,0.1,0.3,0.2
	c0.2,0.1,0.2,0.4,0.2,0.4c0.1-0.2,0.1,0.3,0.1,0.2c-0.1,0.3,0.2,0,0,0.3c-0.1,0.3,0,0.4,0,0.5c0,0.1-0.1,0.2-0.1,0.2
	c0,0,0.2,0.2,0,0.3c-0.1,0.1-0.1,0.2,0,0.3c-0.2,0.1,0,0.3-0.1,0.4c0.1,0,0,0-0.1,0.1c0.2,0.2-0.2,0.2-0.1,0.5c0,0.1-0.1,0.1,0,0.3
	c-0.1,0.2-0.1,0.4-0.1,0.6c0.1,0.3-0.1,0.3,0,0.5c0.1,0.2,0,0.1-0.1,0.2c0,0,0,0,0,0c0,0,0,0.1,0,0c0,0,0,0,0,0c0,0,0,0,0,0
	c-0.1,0.1,0,0,0,0.2c-0.1,0,0.1,0.1,0,0.2c0,0.1-0.1,0.2,0,0.2c-0.1,0.7-0.2,1.4-0.3,2c-0.1,0.4-0.1,0.8-0.1,1.3c0,0,0,0,0,0
	c0,0,0,0,0,0c0,0,0,0.1,0,0.1c0,0.1,0,0.4,0,0.5c0,0.1,0,0.6-0.1,0.9c0,0.1,0,0.3,0,0.4c0.1,0.1-0.1,0.1,0.1,0.2
	c0,0.1-0.1,0.3-0.1,0.3c0.1,0,0.2,0.4,0,0.1c-0.2,0.2-0.1-0.2-0.3-0.3c-0.1,0.2,0,0-0.1,0.1c0,0.3-0.1-0.2-0.2,0
	c0.2,0.2,0.1,0.4,0,0c-0.3,0,0-0.1-0.1-0.1c-0.2,0-0.3,0.3-0.3,0.1c0,0.1-0.2-0.1-0.3-0.1c-0.1-0.2-0.2,0-0.3-0.2
	c0,0.2-0.3,0.3-0.3,0.4c0-0.1-0.3-0.1-0.4-0.4c-0.1,0-0.7,0-0.9-0.4c-0.7-1-1-2.4-1.3-3.6c-0.1,0.1-0.1,0.7-0.1,0.9
	c0,0.2,0,0.3-0.1,0.5c0,0.1,0,0.2,0,0.3c0,0.1-0.1,0.3-0.1,0.5c-0.1,0.1,0.1,0.1-0.1,0.3c0.1,0.1,0,0.5,0,0.5c0,0.2,0,0.6-0.1,0.7
	c0,0.2,0,0.5-0.1,0.6c0.3,0.2-0.2,0.4,0,0.4c-0.1,0.2,0.2,0.2,0,0.3c-0.1,0.3-0.2-0.3-0.2,0.1c-0.1-0.2-0.2-0.1-0.1,0.1
	c0.1,0.1-0.3,0.1-0.1,0c-0.1-0.3-0.1,0.2-0.2-0.1c-0.1-0.1,0,0.2-0.2,0c-0.1,0.2-0.2-0.1-0.2,0.1c0,0,0,0,0,0c0,0,0,0,0,0
	c-0.1-0.1-0.1,0-0.2,0c0,0,0,0,0,0c0,0,0,0,0,0c0,0-0.1,0-0.1-0.1c0-0.2-0.2-0.3-0.2,0c-0.3,0.1-0.3,0-0.6,0.1c0-0.1,0-0.4-0.1-0.5
	c0-3.6,0.5-7.2,1.4-10.7c0.2-0.5,0.2-1.1,0.5-1.5c0-0.4,0.1,0,0.2-0.2c0.1,0,0.2-0.1,0.3-0.1C359.4,172,359.6,172.2,359.6,172.1z
	 M357.9,184.9C357.9,184.9,357.9,184.9,357.9,184.9C357.9,184.9,357.9,184.9,357.9,184.9z M358.2,184.9
	C358.2,184.9,358.2,184.9,358.2,184.9C358.2,185,358.1,185,358.2,184.9z M359.4,185.4c-0.1,0.1-0.3-0.3-0.2-0.3
	C359.3,185.2,359.5,185.2,359.4,185.4z M359.6,181.5C359.6,181.5,359.6,181.5,359.6,181.5C359.6,181.4,359.6,181.4,359.6,181.5z
	 M364.4,184.3C364.4,184.3,364.4,184.3,364.4,184.3C364.4,184.3,364.4,184.3,364.4,184.3c0.1,0.1-0.1,0.1-0.1-0.1
	C364.3,184.2,364.3,184.3,364.4,184.3z M364.4,181.5C364.4,181.5,364.4,181.5,364.4,181.5C364.4,181.5,364.4,181.5,364.4,181.5z"/>
<path d="M371.8,171.6c0.4,0.1,0.6,0.4,0.9,0.5c0.2,0.2,0.3,0.4,0.4,0.5c0.1,0.1,0.1,0.2,0.1,0.2c0,0.2,0.3,0.3,0.2,0.4
	c0,0.2,0.2,0.6,0.2,0.5c0,0,0,0.1,0.1,0.1c-0.1,0,0,0.1,0,0c0,0.1,0.1,0.2,0.1,0.3c0.1,0.3,0.2,0.6,0.2,0.8c0,0.3,0.2,0.7,0.1,0.8
	c0,0.2-0.1,0.6-0.1,0.8c-0.1,0.4-0.1,0.4-0.2,0.8c-0.1,0.2-0.1,0.4-0.2,0.7c0,0,0-0.3-0.1,0.1c0.1,0.1,0,0.3-0.1,0.4
	c-0.1,0.1-0.3,0.4-0.1,0.2c0,0.2-0.3,0.5-0.2,0.3c0-0.1-0.3,0.3-0.1,0.3c-0.2,0.1-0.1,0.4-0.2,0.3c-0.2,0.1,0,0.3-0.1,0.2
	c0,0.1-0.1,0-0.1,0.1c-0.1,0-0.1,0.1,0,0.1c0,0,0,0,0,0c0,0,0,0,0,0c0,0,0,0,0,0c-0.1,0.1-0.1,0.1-0.2,0.3c0,0.1,0.2-0.2,0.1,0
	c-0.2,0.3-0.3,0.6-0.5,0.8c-0.1,0.2-0.2,0.3-0.3,0.5c0.1,0.1,0,0-0.2,0.3c-0.1,0-0.2,0.2-0.3,0.4c0,0,0,0,0,0c0,0,0,0,0,0
	c0,0,0,0.1-0.1,0.1c0,0,0,0.1-0.1,0.2c-0.2,0.2-0.4,0.5-0.6,0.6c-0.1,0.1-0.1,0.1-0.2,0.2c-0.1,0.1-0.1,0.1-0.2,0.2
	c-0.1,0.2-0.4,0.3-0.5,0.4c-0.2,0.1-0.4,0.2-0.7,0.3c-0.1,0-0.3,0.2-0.3,0c-0.3,0,0.4-0.1,0.5-0.2c0.2-0.1,0.3-0.3,0.1-0.3
	c-0.3-0.1-0.2,0.1-0.2,0.2c-0.1,0-0.1-0.2-0.2-0.1c-0.1,0-0.4,0.2-0.3,0.1c-0.2,0-0.3,0.1-0.4-0.1c-0.2,0.1-0.4,0-0.5-0.2
	c-0.2-0.1-0.6-0.1-0.6-0.4c0-0.2-0.2-0.1-0.4-0.2c-0.3-0.1-0.2-0.3-0.4-0.3c0.1-0.2,0.1-0.8,0.2-1.2c0.2-1.9,0.6-3.8,1.1-5.6
	c-0.1,0,0.2-0.4,0.1-0.4c0,0-0.3,0.1-0.3,0c-0.2-0.1,0.1-0.2,0-0.3c-0.3,0,0-0.4-0.2-0.4c-0.2,0-0.1-0.2-0.3-0.2
	c0-0.2,0-0.2-0.1-0.3c-0.1-0.1,0.2-0.2,0-0.2c-0.1-0.2-0.3-0.1-0.4-0.3c-0.3-0.2,0-0.4,0.1-0.4c0.2-0.3,0.5-0.6,0.9-0.9
	c1-0.7,2.2-1.1,3.3-1.2C370.8,171.4,371.3,171.5,371.8,171.6z M366.7,175.1C366.7,175.4,366.9,175.2,366.7,175.1
	C366.7,175.1,366.7,175.1,366.7,175.1z M368.1,184.5c-0.1,0.1-0.1,0.2-0.1,0.1c-0.1,0-0.2,0.1-0.2-0.2
	C367.9,184.4,368,184.3,368.1,184.5z M369.8,174c-0.2,0-0.1,0.1,0,0.1c0,0,0,0,0,0c-0.1,0.1,0,0,0,0c0,0,0,0-0.1,0.1
	c-0.1,0.1,0.2,0.2-0.1,0.3c0-0.2-0.1,0.3-0.1,0.4c-0.1,0.1,0,0.4,0,0.4c0.1,0.1-0.1,0.3-0.1,0.6c-0.1,0.1-0.2,0.7-0.1,0.5
	c-0.1,0.2-0.2,0.5-0.2,0.8c0,0.3-0.2,0.7-0.1,0.9c0,0.2,0,0.5-0.2,0.5c0,0.1-0.1,0.3-0.1,0.3c0.2-0.2-0.1,0.1,0.1,0.1c0,0,0,0,0,0.1
	c0,0,0,0,0,0c-0.1,0,0,0,0,0c0,0.1-0.1,0.1-0.1,0.3c0,0.2,0.1,0.4-0.1,0.6c-0.1,0.2-0.1,0.4-0.1,0.5c0,0.1,0.1,0.4-0.1,0.2
	c0,0.2-0.1,0.7-0.1,0.7c0,0.1,0.2,0,0.3-0.2c1.3-1.6,2.6-3.3,3.4-5.2c0.1-0.3,0.5-1.1,0.3-1.3c0.1,0,0.1-0.1,0-0.1
	c-0.3,0,0.2-0.1-0.1-0.2c-0.2-0.1-0.3-0.2-0.5-0.1c-0.2-0.1-0.2,0-0.4-0.1c-0.2,0-0.5,0.1-0.6,0c-0.3,0.1-0.3,0-0.5,0
	c-0.2,0.1-0.2,0.1-0.4,0.1C369.5,174.3,370,174.1,369.8,174C369.8,174,369.8,174,369.8,174z M368.6,180.9
	C368.6,181,368.6,180.9,368.6,180.9C368.6,180.9,368.6,180.9,368.6,180.9z M368.9,184C369,184,368.7,184.1,368.9,184
	C368.9,184,368.9,184,368.9,184C368.9,184,368.9,184,368.9,184C369,184,368.9,184,368.9,184z M368.9,178.9
	C368.9,178.9,368.9,178.9,368.9,178.9C368.9,178.9,368.9,178.9,368.9,178.9z M369.3,183.9c-0.1,0.3,0.2-0.1,0.2-0.1
	C369.4,183.8,369.4,183.9,369.3,183.9z M369.8,174.1C369.8,174.1,369.8,174.1,369.8,174.1L369.8,174.1z M369.9,173.9
	C369.9,174,370.1,174,369.9,173.9C369.9,173.9,369.9,173.9,369.9,173.9z M370.1,173.7C369.9,173.8,369.9,173.9,370.1,173.7
	C370.1,173.9,370.4,173.8,370.1,173.7C370.2,173.7,370.1,173.8,370.1,173.7z M370.6,173.9c-0.1,0.1-0.4-0.1-0.5,0.1
	C370.1,174.1,370.5,173.9,370.6,173.9c0.1,0,0.2,0.1,0.4,0.1c0.2-0.2-0.1-0.1-0.1-0.2C370.8,173.8,370.7,173.8,370.6,173.9z
	 M370.6,173.6C370.6,173.6,370.6,173.7,370.6,173.6C370.6,173.7,370.6,173.7,370.6,173.6c-0.2,0.1-0.4,0-0.2,0.2
	c0.1-0.2,0.2,0,0.3,0c0.2,0,0.1-0.1,0.2,0c0,0,0,0,0,0c0,0,0,0,0,0C370.9,173.7,370.8,173.7,370.6,173.6
	C370.7,173.7,370.7,173.7,370.6,173.6z M371.1,173.8C371.1,174.1,371.3,173.8,371.1,173.8c0,0,0.1-0.2-0.2-0.2
	C370.9,173.6,371.1,173.8,371.1,173.8z M371,182.4C371,182.4,371,182.4,371,182.4C371,182.4,371,182.5,371,182.4z M371,174
	C371,174.1,371.3,174,371,174C371.1,174,371.1,174,371,174z M371.5,174c0.2,0.1,0.5,0.1,0.7,0.3c0.2,0,0.1-0.1,0.2,0.1
	c0.1,0,0.3,0.1,0.2,0c0-0.2-0.1-0.2-0.3-0.3c-0.2-0.1-0.2,0-0.4-0.1c0,0.2-0.3,0.1-0.5,0C371.3,173.9,371.4,174.1,371.5,174z
	 M372.1,174.3C372.5,174.4,371.9,174.4,372.1,174.3C372,174.2,372.1,174.3,372.1,174.3z M372.5,180.2
	C372.5,180.2,372.5,180.2,372.5,180.2C372.5,180.2,372.5,180.2,372.5,180.2z M372.6,180C372.6,180,372.6,180,372.6,180
	C372.6,180,372.7,180,372.6,180z M373.6,173.8C373.6,173.8,373.6,173.8,373.6,173.8C373.6,173.8,373.6,173.8,373.6,173.8z"/>
<image style="overflow:visible;opacity:0.25;enable-background:new    ;" width="2146" height="1254" xlink:href="C14E7CC17A957A79.png"  transform="matrix(0.2524 0 0 0.2524 -61 -11.8803)">
</image>
<path class="st0" d="M89.3,145.2c-0.4-0.5-7.1-8-7.1-8.1c0,0,0,0,0,0c-0.4-0.5-1.1-0.7-1.9-0.6c-2,0.2-4,0.5-6,0.7
	c-2,0.2-4,0.4-6,0.6c-0.8,0.1-1.6,0.5-2.3,1.1c-0.6,0.6-1.1,1.4-1.3,2.2c-0.3,1.6-0.7,3.2-1,4.8c-2.1-2.5-5.4-6.4-5.4-6.4
	c0,0,0,0,0,0c0,0,0,0,0,0c-0.4-0.5-1.1-0.8-1.9-0.7c-2,0.1-4,0.3-6,0.4c-2,0.1-4,0.2-6,0.3c-0.8,0-1.6,0.4-2.3,1
	c-0.6,0.6-1.2,1.3-1.3,2.2c-2.1,10-4.2,20.1-6.4,30.1c-2.1,10-4.2,20-6.4,30c-0.2,0.8,0,1.5,0.4,2c0,0,0,0,0,0c0,0,0,0.1,0.1,0.1
	c0,0,0,0,0,0c0,0,0,0,0,0c0.5,0.7,6.6,8.4,7,8.9c0.4,0.5,1.1,0.8,1.9,0.8c2-0.1,4-0.1,6-0.2c2-0.1,4-0.2,6-0.3c0.8,0,1.6-0.4,2.3-1
	c0.7-0.6,1.2-1.4,1.3-2.2c0.3-1.6,0.7-3.2,1-4.9c2.1,2.5,5.1,6.2,5.4,6.5c0.4,0.5,1.1,0.8,1.9,0.7c2-0.2,4-0.3,6-0.5
	c2-0.2,4-0.4,6-0.6c0.8-0.1,1.7-0.5,2.3-1.1c0.7-0.6,1.2-1.4,1.3-2.3c2.1-10.2,4.2-20.4,6.4-30.7c2.1-10.2,4.2-20.5,6.4-30.8
	C89.9,146.4,89.8,145.6,89.3,145.2z M67,200.8c-4,0.4-8,0.7-11.9,1c1.7-8.1,3.4-16.2,5.1-24.3c-4,0.3-8,0.6-12,0.8
	c-1.7,8.1-3.4,16.1-5.1,24.2c-4,0.2-8,0.3-12,0.3c4.2-20,8.5-40,12.7-60.1c4-0.2,8-0.4,12-0.7c-1.7,8.1-3.4,16.2-5.1,24.2
	c4-0.2,8-0.5,12-0.9c1.7-8.1,3.4-16.2,5.1-24.4c4-0.4,8-0.8,11.9-1.3C75.5,160,71.2,180.4,67,200.8z"/>
<path class="st0" d="M296.4,98.4c-0.4-0.5-7-7.5-7-7.5v0c-0.4-0.5-1.1-0.7-2-0.5c-4,0.8-8,1.7-11.9,2.5c-1.7,0.4-3.3,2.1-3.6,3.8
	c-0.3,1.6-0.7,3.3-1,5c-2.1-2.2-5.3-5.5-5.4-5.6c-0.4-0.5-1.1-0.7-1.9-0.5c-4,0.9-8,1.8-12,2.8c-1.6,0.4-3.3,2.1-3.6,3.9
	c-3,14.9-6,29.9-9.1,44.8c-0.6,3-0.6,5.7-0.1,8.2c0.5,2.4,1.6,4.4,3.1,5.9c-0.1-0.1-0.2-0.2-0.2-0.2c0,0,6.7,6.9,7,7.2
	c0.8,0.9,1.7,1.6,2.7,2.1c1.5,0.8,3.2,1.3,5,1.5c1.8,0.2,3.8,0,5.9-0.5c1.4-0.3,2.8-0.8,4.2-1.4c1.4-0.6,2.8-1.3,4.2-2.2
	c2-1.2,4-2.7,5.8-4.4c1.8-1.7,3.5-3.5,5-5.5c1.5-2.1,2.8-4.2,3.9-6.4c1-2.2,1.8-4.4,2.2-6.6c1.5-7.4,3-14.8,4.5-22.2
	c1.5-7.4,3-14.8,4.5-22.2C297,99.6,296.8,98.8,296.4,98.4z M277.7,138c-0.8,3.9-2.7,7.8-5.2,11.2c-2.5,3.4-5.7,6.4-9.3,8.6
	c-2.3,1.5-4.8,2.5-7.3,3.1c-3.7,0.9-6.9,0.5-9.4-0.8c-2.5-1.3-4.1-3.6-4.8-6.7c-0.5-2-0.5-4.4,0.1-7c3-14.9,6-29.9,9.1-44.8
	c4-1,8-1.9,12-2.8c-3,14.9-6,29.8-9.1,44.7c-0.3,1.3-0.1,2.4,0.3,3.3c0.5,0.9,1.2,1.4,2.2,1.7c0.7,0.2,1.4,0.1,2.2,0
	c1.3-0.3,2.5-1,3.6-1.9c1.1-0.9,2.1-2,2.7-3.3c0.5-0.8,0.8-1.7,1-2.6c2.6-12.8,5.2-25.6,7.8-38.4c0.4-2.1,0.8-4.2,1.3-6.2
	c4-0.9,8-1.7,11.9-2.5C283.7,108.3,280.7,123.1,277.7,138z"/>
<path class="st0" d="M199.9,121.7c-0.4-0.4-7.1-7.2-7.1-7.2c-0.4-0.4-1.1-0.6-1.9-0.4c-2.2,0.5-4.3,1.1-6.5,1.6
	c-2.2,0.5-4.3,1.1-6.5,1.6c-0.6,0.1-1.2,0.5-1.8,1c-0.6,0.5-1,1-1.4,1.7c-2.1,4-4.2,7.9-6.3,11.9c-0.7,1.3-1.4,2.7-2.1,4
	c-0.3-1.6-0.6-3.1-0.9-4.7c-0.1-0.4-0.3-0.7-0.5-0.9h0l0,0c0,0,0,0,0,0c-2.3-2.4-4.7-4.9-7-7.3c0,0.1,0,0.1-0.1,0.2
	c-0.1-0.1-0.1-0.3-0.3-0.4c-0.4-0.2-1-0.3-1.6-0.2c-2.2,0.5-4.3,1-6.5,1.5c-2.2,0.5-4.3,1-6.5,1.4c-0.8,0.2-1.6,0.7-2.3,1.4
	c-0.7,0.7-1.1,1.5-1.3,2.4c-2.1,10.4-4.2,20.8-6.4,31.2c-2.1,10.4-4.2,20.8-6.4,31.2c-0.2,0.9,0,1.6,0.4,2c0,0,6.6,7.1,7.1,7.5
	c0.4,0.5,1.1,0.6,1.9,0.5c2-0.4,4-0.8,6-1.3c2-0.4,4-0.9,6-1.3c0.8-0.2,1.6-0.7,2.3-1.4c0.7-0.7,1.2-1.6,1.3-2.4
	c0.6-2.9,1.2-5.7,1.7-8.6c0.3-1.6,0.6-3.2,1-4.8c0.8,0.8,1.5,1.6,2.2,2.3c0.1,0.1,0.2,0.2,0.4,0.3c0.4,0.2,1,0.3,1.6,0.2
	c1.3-0.3,2.7-0.6,4-0.9c-0.2,0.9,0,1.6,0.4,2c0,0,6.6,6.9,7.1,7.3c0.4,0.4,1.1,0.6,1.9,0.4c2-0.5,4-1,6-1.4c2-0.5,4-1,6-1.5
	c0.8-0.2,1.6-0.7,2.3-1.4c0.7-0.7,1.2-1.6,1.3-2.5c2.1-10.5,4.2-21,6.4-31.5c2.1-10.5,4.2-21,6.4-31.5
	C200.5,122.9,200.4,122.2,199.9,121.7z M177.6,180.2c-4,1-8,1.9-12,2.9c2.3-11.2,4.5-22.3,6.8-33.5c-4.1,7.6-8.1,15.2-12.2,22.8
	c-2.7,0.6-5.3,1.2-8,1.8c-1.2-6.4-2.5-12.7-3.7-19.1c-2.3,11.1-4.5,22.3-6.8,33.4c-4,0.9-8,1.7-11.9,2.5
	c4.2-20.8,8.5-41.6,12.7-62.5c4.3-0.9,8.6-1.9,12.9-2.9c1.7,8.9,3.4,17.8,5,26.7c5.6-10.6,11.3-21.3,16.9-31.9
	c4.3-1.1,8.6-2.1,13-3.2C186.1,138.3,181.8,159.3,177.6,180.2z"/>
<path class="st1" d="M232.6,124.7c-0.8,3.9-2.7,7.8-5.2,11.3c-0.1,0.1-0.2,0.2-0.3,0.3c1.7,1.4,2.9,3.3,3.4,5.8c0.5,2,0.5,4.4-0.1,7
	c-0.8,3.9-2.6,7.8-5.2,11.3c-2.5,3.5-5.8,6.6-9.3,8.8c-2.4,1.5-4.8,2.6-7.3,3.3c-6,1.5-12,3-17.9,4.5c4.2-21,8.5-42,12.7-63
	c5-1.2,10-2.5,14.9-3.8c3.7-0.9,6.9-0.6,9.4,0.7c2.4,1.3,4.1,3.6,4.8,6.7C233.1,119.7,233.1,122.1,232.6,124.7z"/>
<path class="st1" d="M332.2,104.2c-0.4,2.1-0.9,4.1-1.3,6.2c-0.8,3.8-2.7,7.5-5.2,10.8c-1.6,2-3.5,3.9-5.5,5.5
	c1.1,6.9,2.1,13.8,3.2,20.7c-4.2,0.7-8.5,1.4-12.7,2.1c-0.9-5.8-1.8-11.7-2.7-17.5c-1.6,0.3-3.2,0.6-4.8,0.9
	c-1.3,6.2-2.5,12.4-3.8,18.7c-4,0.8-8,1.6-12,2.4c4.2-20.8,8.5-41.6,12.7-62.3c6-1.1,12-2.2,17.9-3.2c3.7-0.6,7,0,9.4,1.6
	c2.5,1.6,4.1,4.1,4.8,7.2C332.7,99.3,332.7,101.7,332.2,104.2z"/>
<path class="st1" d="M277.7,138c-0.8,3.9-2.7,7.8-5.2,11.2c-2.5,3.4-5.7,6.4-9.3,8.6c-2.3,1.5-4.8,2.5-7.3,3.1
	c-3.7,0.9-6.9,0.5-9.4-0.8c-2.5-1.3-4.1-3.6-4.8-6.7c-0.5-2-0.5-4.4,0.1-7c3-14.9,6-29.9,9.1-44.8c4-1,8-1.9,12-2.8
	c-3,14.9-6,29.8-9.1,44.7c-0.3,1.3-0.1,2.4,0.3,3.3c0.5,0.9,1.2,1.4,2.2,1.7c0.7,0.2,1.4,0.1,2.2,0c1.3-0.3,2.5-1,3.6-1.9
	c1.1-0.9,2.1-2,2.7-3.3c0.5-0.8,0.8-1.7,1-2.6c2.6-12.8,5.2-25.6,7.8-38.4c0.4-2.1,0.8-4.2,1.3-6.2c4-0.9,8-1.7,11.9-2.5
	C283.7,108.3,280.7,123.1,277.7,138z"/>
<path class="st1" d="M380.9,98.5c-4,0.1-8,0.3-12,0.5c0.3-1.3,0.1-2.4-0.3-3.3c-0.4-0.9-1.2-1.7-2.2-2c-0.6-0.3-1.4-0.4-2.2-0.3
	c-1.3,0.1-2.5,0.5-3.6,1.3c-1.1,0.7-2.1,1.7-2.7,2.9c-0.5,0.8-0.8,1.6-1,2.4c-1.8,8.6-3.6,17.3-5.4,25.9c-0.3,1.3-0.1,2.4,0.3,3.3
	c0.4,0.9,1.2,1.6,2.2,2c0.7,0.3,1.4,0.3,2.2,0.3c1.3-0.1,2.5-0.6,3.6-1.3c1.1-0.7,2.1-1.7,2.7-2.8c0.5-0.8,0.8-1.5,1-2.4
	c0.5-2.3,1-4.6,1.4-6.8c-2,0.1-4,0.3-6,0.4c0.8-4.1,1.7-8.1,2.5-12.2c6-0.5,12-0.8,17.9-1c-1.3,6.3-2.7,12.6-4,18.8
	c-0.8,3.7-2.7,7.3-5.2,10.3c-2.5,3-5.7,5.5-9.3,7.1c-2.3,1.1-4.8,1.8-7.3,2c-3.7,0.3-6.9-0.4-9.4-2.1c-2.5-1.6-4.1-4.2-4.8-7.3
	c-0.5-2.1-0.5-4.5,0.1-7c1.8-8.7,3.6-17.4,5.4-26c0.8-3.8,2.7-7.5,5.2-10.6c2.5-3.1,5.7-5.7,9.3-7.3c2.3-1.1,4.8-1.8,7.3-1.9
	c3.7-0.2,6.9,0.7,9.4,2.6s4.1,4.5,4.8,7.7C381.4,93.7,381.5,96,380.9,98.5z"/>
<path class="st1" d="M106.1,195.5c0.1-4,0.1-8,0.2-12c-3.6,0.6-7.1,1.2-10.7,1.7c-1.6,4.2-3.3,8.5-4.9,12.7c-4,0.6-8,1.1-12.1,1.6
	c8.7-21,17.5-42.2,26.2-63.6c4.1-0.7,8.2-1.4,12.3-2.2c0.3,19.9,0.7,39.7,1,59.6C114.2,194.1,110.2,194.8,106.1,195.5z"/>
<path class="st1" d="M177.6,180.2c-4,1-8,1.9-12,2.9c2.3-11.2,4.5-22.3,6.8-33.5c-4.1,7.6-8.1,15.2-12.2,22.8
	c-2.7,0.6-5.3,1.2-8,1.8c-1.2-6.4-2.5-12.7-3.7-19.1c-2.3,11.1-4.5,22.3-6.8,33.4c-4,0.9-8,1.7-11.9,2.5
	c4.2-20.8,8.5-41.6,12.7-62.5c4.3-0.9,8.6-1.9,12.9-2.9c1.7,8.9,3.4,17.8,5,26.7c5.6-10.6,11.3-21.3,16.9-31.9
	c4.3-1.1,8.6-2.1,13-3.2C186.1,138.3,181.8,159.3,177.6,180.2z"/>
<path class="st1" d="M67,200.8c-4,0.4-8,0.7-11.9,1c1.7-8.1,3.4-16.2,5.1-24.3c-4,0.3-8,0.6-12,0.8c-1.7,8.1-3.4,16.1-5.1,24.2
	c-4,0.2-8,0.3-12,0.3c4.2-20,8.5-40,12.7-60.1c4-0.2,8-0.4,12-0.7c-1.7,8.1-3.4,16.2-5.1,24.2c4-0.2,8-0.5,12-0.9
	c1.7-8.1,3.4-16.2,5.1-24.4c4-0.4,8-0.8,11.9-1.3C75.5,160,71.2,180.4,67,200.8z"/>
<path class="st0" d="M106.5,171.5c0.1-5,0.1-10,0.2-15c-2,5.3-4.1,10.6-6.1,15.9C102.5,172.2,104.5,171.8,106.5,171.5z"/>
<path class="st0" d="M127.8,169.9c-0.2-9.9-0.3-19.9-0.5-29.8c0-0.7-0.3-1.2-0.7-1.5c-0.4-0.3-6.9-7.4-6.9-7.4c0,0,0,0,0,0
	c-0.1-0.1-0.1-0.1-0.2-0.2c-0.4-0.3-1-0.5-1.7-0.3c-2.1,0.4-4.1,0.8-6.1,1.1c-2.1,0.4-4.1,0.7-6.1,1.1c-0.7,0.1-1.4,0.5-2,1
	c-0.6,0.5-1.1,1.2-1.4,1.9c-4.4,10.7-8.7,21.3-13.1,31.9c-4.4,10.6-8.7,21.1-13.1,31.6c-0.2,0.5-0.3,0.9-0.3,1.4
	c0,0.4,0.1,0.8,0.3,1.2c0.1,0.1,0.1,0.1,0.2,0.2c0,0,0,0,0,0c2.3,2.6,4.6,5.3,6.9,7.9c0.2,0.3,0.5,0.6,0.9,0.7
	c0.4,0.1,0.8,0.2,1.2,0.1c2-0.3,4-0.5,6-0.8c2-0.3,4-0.6,6-0.9c0.7-0.1,1.4-0.5,2.1-1c0.6-0.5,1.1-1.2,1.4-2c0.7-1.7,1.3-3.4,2-5.1
	c0.4-0.9,0.7-1.8,1.1-2.7c2.3,2.6,4.6,5.1,6.9,7.6c0.1,0.1,0.1,0.2,0.2,0.2c0.4,0.3,1,0.5,1.8,0.4c2-0.4,4-0.7,6-1.1
	c2-0.4,4-0.8,6-1.2c0.5-0.1,0.9-0.3,1.4-0.6c0.4-0.3,0.9-0.6,1.2-1.1c0.4-0.4,0.6-0.9,0.8-1.4c0.2-0.5,0.3-1,0.3-1.4
	C128.2,189.7,128,179.8,127.8,169.9z M106.1,195.5c0.1-4,0.1-8,0.2-12c-3.6,0.6-7.1,1.2-10.7,1.7c-1.6,4.2-3.3,8.5-4.9,12.7
	c-4,0.6-8,1.1-12.1,1.6c8.7-21,17.5-42.2,26.2-63.6c4.1-0.7,8.2-1.4,12.3-2.2c0.3,19.9,0.7,39.7,1,59.6
	C114.2,194.1,110.2,194.8,106.1,195.5z"/>
<path class="st0" d="M216.1,147.2c-0.6-0.1-1.4-0.1-2.2,0.1c-2,0.5-4,1-6,1.5c-0.8,4.2-1.7,8.4-2.5,12.6c2-0.5,4-1,6-1.5
	c1.3-0.3,2.5-1,3.6-1.9c1.1-0.9,2.1-2.1,2.7-3.3c0.5-0.8,0.8-1.7,1-2.6c0.3-1.3,0.1-2.4-0.3-3.3C217.8,148,217,147.4,216.1,147.2z"
	/>
<path class="st0" d="M218.2,122.7c-0.6-0.1-1.4-0.1-2.2,0.1c-1,0.3-2,0.5-3,0.8c-0.8,4.2-1.7,8.4-2.5,12.6c1-0.3,2-0.5,3-0.8
	c1.3-0.3,2.5-1,3.6-1.9c1.1-0.9,2.1-2.1,2.7-3.3c0.5-0.8,0.8-1.7,1-2.6c0.3-1.3,0.1-2.4-0.3-3.3C219.9,123.5,219.1,123,218.2,122.7z
	"/>
<path class="st0" d="M242.7,131.2c0.3-1.5,0.5-2.9,0.5-4.3c0-1.4-0.1-2.7-0.4-3.9c-0.4-1.8-1.1-3.3-2-4.7c-0.3-0.4-0.6-0.7-1-1.1
	c0,0,0,0,0.1,0c-2.5-2.5-4.9-5-7.4-7.5c0,0,0,0,0,0c-0.7-0.7-1.5-1.3-2.3-1.8c-1.5-0.8-3.2-1.3-5-1.4c-1.8-0.1-3.8,0.1-5.9,0.6
	c-2.5,0.6-5,1.3-7.5,1.9c-2.5,0.6-5,1.2-7.5,1.9c-0.8,0.2-1.6,0.7-2.3,1.5c-0.6,0.7-1.2,1.6-1.3,2.5c-2.1,10.5-4.2,21-6.4,31.5
	c-2.1,10.5-4.2,21-6.4,31.5c-0.2,0.9,0,1.6,0.4,2c0,0,0,0,0,0c2.3,2.4,4.7,4.8,7,7.2c0.4,0.4,1.1,0.6,1.9,0.4c3-0.8,6-1.5,9-2.3
	c3-0.8,6-1.5,9-2.3c1.4-0.4,2.8-0.8,4.3-1.5c1.4-0.6,2.8-1.4,4.2-2.3c2-1.3,4-2.8,5.8-4.6c1.8-1.7,3.5-3.6,5-5.7
	c1.5-2.1,2.8-4.3,3.8-6.5c1-2.2,1.8-4.5,2.2-6.7c0.3-1.5,0.5-2.9,0.5-4.3c0-1.4-0.1-2.7-0.4-3.9c-0.2-1-0.6-2-1-2.9
	c-0.4-0.9-1-1.7-1.6-2.4c1.1-1.8,2.1-3.6,2.9-5.5C241.7,134.8,242.3,133,242.7,131.2z M232.6,124.7c-0.8,3.9-2.7,7.8-5.2,11.3
	c-0.1,0.1-0.2,0.2-0.3,0.3c1.7,1.4,2.9,3.3,3.4,5.8c0.5,2,0.5,4.4-0.1,7c-0.8,3.9-2.6,7.8-5.2,11.3c-2.5,3.5-5.8,6.6-9.3,8.8
	c-2.4,1.5-4.8,2.6-7.3,3.3c-6,1.5-12,3-17.9,4.5c4.2-21,8.5-42,12.7-63c5-1.2,10-2.5,14.9-3.8c3.7-0.9,6.9-0.6,9.4,0.7
	c2.4,1.3,4.1,3.6,4.8,6.7C233.1,119.7,233.1,122.1,232.6,124.7z"/>
<path class="st0" d="M391,99.2c-0.4-1.9-1.1-3.6-2-5.1c-0.4-0.6-0.8-1.2-1.3-1.8c0,0,0,0,0,0c-2.2-2.7-4.3-5.5-6.5-8.2
	c0,0,0,0,0,0.1c-0.8-1.1-1.7-2.1-2.8-2.9c-1.5-1.1-3.2-2-5-2.5c-1.8-0.5-3.9-0.7-6-0.6c-1.4,0.1-2.8,0.3-4.2,0.7
	c-1.4,0.4-2.8,0.9-4.2,1.6c-2,1-4,2.2-5.8,3.6c-1.8,1.4-3.5,3.1-5,5c-1.5,1.9-2.8,3.9-3.9,6c-1,2.1-1.8,4.2-2.2,6.4
	c-0.9,4.3-1.8,8.7-2.7,13c-0.9,4.3-1.8,8.7-2.7,13c-0.3,1.5-0.5,2.9-0.5,4.2c0,1.4,0.1,2.7,0.4,3.9c0.4,1.8,1.1,3.5,2,4.9
	c0.3,0.5,0.7,0.9,1.1,1.4c0,0-0.1,0-0.1,0c2.4,2.7,4.7,5.5,7.1,8.2l0,0c0.7,0.8,1.6,1.6,2.5,2.2c1.5,1,3.2,1.8,5,2.2
	c1.8,0.4,3.8,0.6,5.9,0.4c1.4-0.1,2.8-0.4,4.3-0.7c1.4-0.4,2.8-0.9,4.2-1.5c2-0.9,4-2.1,5.8-3.4c1.8-1.4,3.5-2.9,5-4.6
	c1.5-1.8,2.8-3.7,3.9-5.7c1-2,1.8-4.1,2.2-6.2c0.7-3.1,1.3-6.2,2-9.4c0.7-3.1,1.3-6.2,2-9.4c0.2-0.8,0-1.6-0.4-2.1
	c-0.1-0.1-0.6-0.8-1.3-1.6c0.7-0.1,1.3-0.4,1.8-0.8c0.7-0.5,1.1-1.3,1.3-2.1c0.3-1.4,0.5-2.8,0.5-4.2
	C391.5,101.8,391.3,100.5,391,99.2z M380.9,98.5c-4,0.1-8,0.3-12,0.5c0.3-1.3,0.1-2.4-0.3-3.3c-0.4-0.9-1.2-1.7-2.2-2
	c-0.6-0.3-1.4-0.4-2.2-0.3c-1.3,0.1-2.5,0.5-3.6,1.3c-1.1,0.7-2.1,1.7-2.7,2.9c-0.5,0.8-0.8,1.6-1,2.4c-1.8,8.6-3.6,17.3-5.4,25.9
	c-0.3,1.3-0.1,2.4,0.3,3.3c0.4,0.9,1.2,1.6,2.2,2c0.7,0.3,1.4,0.3,2.2,0.3c1.3-0.1,2.5-0.6,3.6-1.3c1.1-0.7,2.1-1.7,2.7-2.8
	c0.5-0.8,0.8-1.5,1-2.4c0.5-2.3,1-4.6,1.4-6.8c-2,0.1-4,0.3-6,0.4c0.8-4.1,1.7-8.1,2.5-12.2c6-0.5,12-0.8,17.9-1
	c-1.3,6.3-2.7,12.6-4,18.8c-0.8,3.7-2.7,7.3-5.2,10.3c-2.5,3-5.7,5.5-9.3,7.1c-2.3,1.1-4.8,1.8-7.3,2c-3.7,0.3-6.9-0.4-9.4-2.1
	c-2.5-1.6-4.1-4.2-4.8-7.3c-0.5-2.1-0.5-4.5,0.1-7c1.8-8.7,3.6-17.4,5.4-26c0.8-3.8,2.7-7.5,5.2-10.6c2.5-3.1,5.7-5.7,9.3-7.3
	c2.3-1.1,4.8-1.8,7.3-1.9c3.7-0.2,6.9,0.7,9.4,2.6s4.1,4.5,4.8,7.7C381.4,93.7,381.5,96,380.9,98.5z"/>
<path class="st0" d="M319.9,102.7c-0.4-0.9-1.2-1.5-2.2-1.8c-0.6-0.2-1.4-0.2-2.2-0.1c-2,0.3-4,0.7-6,1c-1.3,6.2-2.5,12.4-3.8,18.6
	c2-0.4,4-0.7,6-1.1c1.3-0.2,2.5-0.8,3.6-1.6c1.1-0.8,2.1-1.9,2.7-3.1c0.4-0.8,0.8-1.6,1-2.5c0.4-2.1,0.8-4.1,1.3-6.2h0c0,0,0,0,0,0
	C320.5,104.7,320.4,103.6,319.9,102.7z"/>
<path class="st0" d="M342.3,103.7c-0.4-1.8-1.1-3.5-2-4.9c-1-1.4-8.4-9.8-8.4-9.8c0,0,0,0.1,0,0.1c-0.7-0.7-1.4-1.4-2.3-1.9
	c-3-1.9-6.8-2.6-11-1.9c-6,1-12,2-17.9,3.1c-1.6,0.3-3.3,2-3.6,3.7c-4.2,20.8-8.5,41.5-12.7,62.4c-0.2,0.9,0,1.6,0.5,2
	c0.2,0.2,6.6,7,7,7.5c0.4,0.4,1.1,0.7,1.9,0.5c2-0.4,4-0.8,6-1.2c2-0.4,4-0.8,6-1.1c0.8-0.1,1.7-0.6,2.3-1.3
	c0.6-0.7,1.2-1.5,1.3-2.4c0.3-1.4,0.6-2.8,0.9-4.2c2,2.2,4.7,5.1,4.8,5.3c0.1,0.1,0.2,0.2,0.3,0.3c0.4,0.3,1,0.4,1.6,0.3
	c2.1-0.3,4.2-0.7,6.4-1c2.1-0.3,4.2-0.6,6.4-0.9c0.5-0.1,1-0.3,1.5-0.5c0.5-0.3,0.9-0.7,1.3-1.1c0.3-0.5,0.6-0.9,0.8-1.4
	c0.2-0.5,0.2-1,0.1-1.4c-0.5-3.1-0.9-6.3-1.4-9.4c-0.5-3.1-1-6.3-1.4-9.4c0.8-0.7,1.5-1.4,2.3-2.2c0.7-0.8,1.4-1.6,2.1-2.4
	c1.5-1.9,2.8-4,3.8-6.1c1-2.1,1.8-4.2,2.2-6.4c0.2-1,0.4-2.1,0.6-3.1c0.2-1,0.4-2,0.6-3.1c0.3-1.4,0.5-2.9,0.5-4.2
	C342.7,106.3,342.6,105,342.3,103.7z M332.2,104.2c-0.4,2.1-0.9,4.1-1.3,6.2c-0.8,3.8-2.7,7.5-5.2,10.8c-1.6,2-3.5,3.9-5.5,5.5
	c1.1,6.9,2.1,13.8,3.2,20.7c-4.2,0.7-8.5,1.4-12.7,2.1c-0.9-5.8-1.8-11.7-2.7-17.5c-1.6,0.3-3.2,0.6-4.8,0.9
	c-1.3,6.2-2.5,12.4-3.8,18.7c-4,0.8-8,1.6-12,2.4c4.2-20.8,8.5-41.6,12.7-62.3c6-1.1,12-2.2,17.9-3.2c3.7-0.6,7,0,9.4,1.6
	c2.5,1.6,4.1,4.1,4.8,7.2C332.7,99.3,332.7,101.7,332.2,104.2z"/>
</svg>
