<?xml version="1.0" encoding="utf-8"?>
<!-- Generator: Adobe Illustrator 26.2.1, SVG Export Plug-In . SVG Version: 6.00 Build 0)  -->
<svg version="1.1" id="Superhero_font" xmlns="http://www.w3.org/2000/svg" xmlns:xlink="http://www.w3.org/1999/xlink" x="0px"
	 y="0px" viewBox="0 0 419.5 297.6" style="enable-background:new 0 0 419.5 297.6;" xml:space="preserve">
<style type="text/css">
	.st0{opacity:0.8;fill:#FFFFFF;}
	.st1{fill:#231F20;}
</style>
<path d="M35.4,121.7c0.1,0.1,0.2,0.1,0.3,0.3c0.1,0,0.2,0.2,0.3,0.3c0.1-0.1,0.2,0.1,0.3,0.2c0.2,0.2,0.3,0.3,0.3,0.4
	c0-0.3,0.3,0.2,0.3,0.4c0.2,0.2,0.2,0.6,0.4,0.8c0,0.2,0.1,0.2,0.1,0.3c0,0.1,0,0.2,0,0.2c0,0.2,0,0.4,0,0.5c0.1,0,0.1-0.1,0.1,0.1
	c-0.1,0.1-0.1,0.2,0,0.2c0,0,0,0,0,0c0,0,0,0,0,0c0,0,0.1,0.1,0,0.1c0,0.1,0,0.3,0.1,0.4c0,0.4-0.1,0-0.1,0.3
	c0.2,0.2-0.1,0.2-0.1,0.4c0,0,0,0.1,0,0.2c0,0,0,0.1,0,0c0,0.1,0,0.2-0.1,0.3c0,0.2,0,0.2-0.1,0.3c-0.2,0.1-0.1-0.4-0.2-0.1
	c-0.1,0.2,0-0.2-0.2-0.1c0,0,0,0-0.1,0c0.1,0.1,0,0.1,0,0c-0.2,0-0.3,0.1-0.2-0.1c-0.2-0.1,0,0.1-0.2,0c0.2,0-0.2-0.2-0.1-0.1
	c-0.1,0-0.2-0.1-0.2-0.1c-0.1,0-0.2-0.3-0.2,0c-0.3,0,0.1-0.3-0.1-0.4c-0.2,0.1,0-0.1-0.1-0.1c-0.2,0-0.2,0.1-0.4,0.1
	c-0.1,0-0.2,0-0.2-0.2c-0.3,0,0.1,0,0-0.2c0.2-0.4,0.2-0.9,0.2-1.3c0-0.1,0.1-0.6-0.1-0.4c0,0.2,0-0.1-0.1,0.1
	c-0.2,0.1-0.2,0.3-0.3,0.4c-0.2,0.2-0.2,0.2-0.4,0.4c-0.3,0.2,0,0.2-0.2,0.4c-0.1,0.1-0.2,0.2-0.2,0.3c-0.1,0.1,0,0.2-0.1,0.3
	c-0.1,0.1-0.2,0.2-0.2,0.3c0,0.1,0,0.1,0,0.1c0,0,0,0,0,0c0,0,0,0,0,0c-0.1,0.2-0.1,0.2-0.1,0.3c-0.1,0-0.1,0.2-0.2,0.3
	c0,0.1,0,0.1,0,0.2c0,0,0,0,0,0c0,0.1-0.1,0.1-0.2,0.3c-0.1,0.2,0.1,0.1-0.1,0.3c0,0,0,0.4-0.1,0.3c-0.1,0.3,0,0.1,0,0.3
	c0,0.1-0.2,0.3-0.2,0.4c0,0-0.2,0.3-0.1,0.4c0,0,0,0.1,0,0.1c0.1,0,0,0,0,0c0,0.1,0,0.3-0.1,0.3c0,0,0,0.1,0,0.1c0,0,0,0,0,0
	c0,0.1,0,0.1,0,0c0,0.1,0,0.1,0,0.2c0,0.1-0.1,0.2,0,0.3c-0.2,0.1,0,0-0.1,0.2c0.2,0,0,0,0.1,0.2c-0.1,0.1,0.1,0.4,0,0.5
	c0.1,0.2-0.2,0.4-0.1,0.5c0,0.1,0,0.2,0.1,0.3c-0.1,0.1-0.1,0.3,0.2,0.2c0.7-0.3,1.3-0.9,1.8-1.5c0.2-0.3,0-0.2-0.1-0.2
	c0,0.1-0.3,0-0.2,0.1c0,0.2-0.1-0.1-0.1-0.1c-0.2,0,0,0,0-0.1c0.4-0.1,0.3-0.1,0-0.1c-0.2,0,0.1-0.1,0.2-0.1c0-0.1-0.1-0.2-0.1-0.2
	c0.1-0.1-0.4-0.1-0.1-0.2c0.1-0.1-0.1-0.1-0.1-0.3c0-0.1,0-0.2-0.1-0.2c0.1-0.1,0-0.2,0-0.3c0.1-0.2,0.3-0.1,0.2-0.4
	c-0.1-0.1-0.2-0.1-0.3-0.3c-0.1-0.1-0.1-0.3,0.1-0.3c-0.2-0.1,0.1-0.1,0.2-0.1c1.4-0.3,2.8-0.4,4.1-0.5c0.2,0,0.3,0.2,0.5,0.1
	c-0.2,0.2,0.2,0,0.1,0.2c-0.2,0.1-0.1,0.1-0.1,0.2c0.1,0-0.2,0.2,0,0.1c0.1,0.2-0.1,0.1-0.1,0.3c0.1-0.1,0.3,0.1,0.2,0.2
	c-0.2,0.1,0,0.3-0.1,0.5c0.1,0.2-0.2,0.2-0.1,0.3c0.1,0,0,0.2-0.1,0.3h0c0,0,0,0,0,0c0,0,0,0.1,0,0.1c-0.1-0.2-0.1,0.1-0.3,0
	c0,0,0-0.2-0.2-0.1c0.1,0.2-0.1,0.2-0.3,0.2c0,0-0.1,0-0.1,0c0,0,0,0-0.1-0.1c0,0,0,0.1,0.1,0.1c-0.1,0-0.2,0.1-0.2,0
	c-0.2-0.2-0.1,0.2-0.2,0.2c-0.1,0,0,0.2-0.2,0.2c-0.1,0.2-0.1,0.2-0.1,0.3c0.1,0.2,0,0.4,0,0.1c-0.2,0.2-0.1,0.2,0,0.3
	c0.1,0.4-0.4,0.2-0.2,0.2c0.2,0,0-0.2-0.1,0c-0.2,0.2-0.3,0.4-0.4,0.6c-0.1,0.1,0,0.2-0.1,0.4c-0.3,0.1-0.2-0.1-0.3,0
	c0,0.1,0.3,0.1,0.1,0.2c0-0.1-0.1,0.2,0,0.1c0.1-0.2,0.3-0.4,0.5-0.5c0.3-0.4,0.1,0-0.1,0.2c-0.1,0.1-0.1,0.4-0.4,0.5
	c0,0.2-0.1,0-0.1,0.2c-0.1,0.1-0.3,0.1-0.3,0.3c0,0.1-0.2,0.1-0.2,0.2c-0.3,0.1-0.1,0.1-0.3,0.2c0-0.1-0.1,0-0.2,0c0,0,0,0,0,0
	c0,0,0,0,0,0c0.1,0,0,0.1-0.2,0.1c0.1-0.2-0.2-0.1-0.3,0c-0.1,0.2-0.1,0-0.3,0.1c-0.3,0-0.2,0.3-0.3,0.1c-0.2,0,0.2-0.1,0.1-0.1
	c0.1,0,0.2-0.1,0.3-0.1c0-0.1,0.5,0,0.4-0.2c0.2-0.1,0.1-0.1,0.1,0c0.2-0.1,0.4-0.2,0.5-0.3c0.1-0.1,0.3-0.2,0.4-0.2
	c0.1-0.1,0.2-0.2,0.2-0.3c-0.2,0.1,0-0.1-0.1-0.1c-0.2,0.1-0.2,0.1-0.2,0.2c-0.2,0.1-0.4,0.4-0.6,0.4c-0.1,0.1-0.1,0-0.2,0.1
	c-0.1,0-0.3,0.1-0.5,0.2c-0.3,0-0.3,0.1-0.3,0.3c-0.1,0-0.1,0-0.1,0c0,0,0.1,0,0.1-0.1c0-0.1,0-0.1,0.1-0.2c-0.1-0.1-0.2,0.1-0.3,0
	c-0.2,0-0.5,0-0.4,0.1c0.1,0.1,0.4,0.2,0.5,0.1c0,0.1,0.2,0.1,0,0.1c0.2,0.1-0.2,0-0.1,0.1c-0.1-0.1-0.2,0-0.2-0.1
	c-0.2-0.1-0.4-0.2-0.5-0.2c-0.3-0.3,0.5,0.2,0.1-0.1c-0.2-0.1-0.5-0.1-0.7-0.3c-0.3-0.2-0.4,0.1-0.5,0c-0.1,0.1-0.3-0.3-0.4-0.1
	c-0.6-0.5-0.9-1.3-0.9-2.1c0-2,0.7-4,1.5-5.8c0.6-1.2,1.2-2.5,2.3-3.4c0.3-0.2,0.5-0.4,0.9-0.4c0,0,0,0,0.1,0
	C35.1,121.6,35.2,121.7,35.4,121.7z M32.7,129.4C32.7,129.4,32.7,129.4,32.7,129.4C32.7,129.4,32.7,129.4,32.7,129.4z M33.3,127.1
	C33.1,127.4,33.4,127.1,33.3,127.1C33.3,127,33.3,127,33.3,127.1z M33.7,126.8L33.7,126.8C33.7,126.7,33.7,126.7,33.7,126.8z
	 M34.4,125.1c0,0.1,0.1-0.2,0.1-0.2C34.4,125,34.4,125,34.4,125.1z M35,124.3c-0.2,0.3,0.1,0.1,0.1-0.1C35,124.2,35,124.2,35,124.3z
	 M36.1,132.2C36.1,132.2,36.1,132.2,36.1,132.2C36,132.2,36.2,132.3,36.1,132.2z M36.3,132.1C36.3,132.1,36.3,132.1,36.3,132.1
	C36.3,132.1,36.3,132.1,36.3,132.1C36.3,132.1,36.2,132.1,36.3,132.1C36.3,132,36.3,132,36.3,132.1z M36.3,132.1
	C36.3,132.1,36.3,132.1,36.3,132.1C36.3,132.1,36.3,132.1,36.3,132.1z M37.2,131.1c0,0.1-0.1,0.1-0.1,0.2c-0.1,0.1-0.1,0.3-0.2,0.3
	c-0.1,0.2-0.3,0.3-0.3,0.4c0,0.1-0.2,0.1,0-0.1c0.2-0.2,0.3-0.5,0.4-0.6C37,131.3,37.2,131.2,37.2,131.1
	C37.2,131.1,37.2,131.1,37.2,131.1C37.3,131.1,37.3,131.1,37.2,131.1z M37,127.3C37.1,127.5,36.8,127.5,37,127.3
	C37,127.3,37,127.3,37,127.3z M37.4,130.5c0,0,0,0.1-0.1,0.2C37.2,130.9,37.2,130.5,37.4,130.5C37.4,130.5,37.4,130.5,37.4,130.5z
	 M37.4,130.9C37.5,130.9,37.3,130.9,37.4,130.9C37.4,130.8,37.4,130.9,37.4,130.9z M37.4,130.2C37.4,130.2,37.4,130.2,37.4,130.2
	C37.4,130.2,37.4,130.2,37.4,130.2C37.4,130.2,37.4,130.2,37.4,130.2C37.5,130.3,37.7,130.1,37.4,130.2
	C37.4,130.2,37.4,130.2,37.4,130.2z M38.5,130.1C38.5,130.1,38.5,130.1,38.5,130.1C38.5,130.1,38.5,130.1,38.5,130.1z M38.8,128.3
	C38.8,128.3,38.8,128.3,38.8,128.3C38.9,128.4,38.8,128.4,38.8,128.3C38.8,128.4,38.7,128.3,38.8,128.3
	C38.8,128.3,38.8,128.3,38.8,128.3z"/>
<path d="M38.8,130.3C38.9,130.3,38.8,130.4,38.8,130.3c-0.1-0.1-0.5-0.1-0.2-0.1C38.7,130.2,38.8,130.2,38.8,130.3z M43.4,121.4
	c1.1,0.1,2.2,0.3,2.8,1.3c0.1-0.1,0.1,0.2,0.2,0.3c0,0,0,0,0,0.1c0,0,0,0,0,0c0,0,0,0,0,0c0,0.2,0.1,0.4,0.1,0.6
	c0,0.1,0,0.4-0.1,0.6c0,0.2-0.1,0.3-0.1,0.5c0,0,0,0,0,0c0,0,0,0,0,0c0,0,0,0,0,0c-0.1,0.1-0.1,0.2-0.2,0.2c0,0.1,0,0.3-0.1,0.4
	c0,0.4-0.3,0.4-0.4,0.8c-0.1,0.3-0.3,0.6-0.5,0.8c-0.2,0.2-0.1,0.3-0.3,0.4c-0.2,0.3-0.2,0.2-0.3,0.4c0,0-0.1-0.1-0.3,0.1
	c0.1,0.3-0.1,0-0.2,0.2c-0.2,0.1-0.5,0.2-0.3,0.4c0.9,0.2,1.9,0.3,2.8,0.7c0.2,0.1,0.4,0.3,0.3,0.3c0.1,0,0,0.2,0.1,0.2
	c0.2-0.2,0,0.2,0.2,0.1c0,0.2-0.2,0.1-0.2,0.2c0,0.1,0,0.3-0.1,0.4c-0.3,0.2,0,0,0,0.2c0.1,0.1-0.2,0.1,0,0.2
	c-0.2-0.1-0.1-0.1-0.2,0.1c0.1-0.1-0.2,0-0.1,0.1c-0.1,0.1-0.2,0-0.1,0.3c-0.2,0-0.2,0-0.5,0c-0.1-0.1-0.2,0.3-0.4,0.2
	c0.3,0,0.1-0.2,0.1-0.1c-0.1-0.1-0.2,0-0.2-0.1c0-0.1-0.2,0-0.2-0.1c-0.1-0.1-0.2,0.1,0,0.1c0.2,0,0.1,0.2,0,0.1
	c-0.4,0,0.2,0-0.2-0.1c-0.3-0.1,0.1,0,0,0.1c0,0-0.3,0-0.3,0c-0.2-0.1-0.2-0.1-0.4-0.1c-0.1-0.1-0.3-0.1-0.4-0.1
	c0,0-0.3-0.2-0.2-0.1c-0.1,0.1-0.2-0.1-0.3,0c-0.1-0.1-0.3,0-0.4-0.1c-0.1,0-0.2,0-0.3-0.1c-0.2,0-0.4-0.1-0.4-0.1
	c-0.2,0-0.5-0.1-0.4,0.2c0.2-0.1,0,0.4,0,0.3c-0.1,0.1,0,0.2,0.1,0.4c-0.2,0.2-0.2,0.2-0.2,0.4c0,0.1,0,0.2,0,0.3
	c0.1,0.2-0.1,0.2-0.1,0.3c0.1,0.1-0.1,0.1,0,0.2c0,0,0,0.3,0,0.4c-0.1,0.2-0.1,0.1-0.1-0.1c0.1-0.2,0.1-0.3,0-0.5
	c0,0.1-0.1,0.4-0.1,0.5c-0.1,0.1-0.1,0.4-0.1,0.6c-0.1,0.4,0-0.3-0.1-0.1c-0.1,0.1-0.2,0.1-0.2-0.1c0,0,0.3,0,0.1-0.2
	c-0.1-0.2-0.2,0.2-0.2-0.1c-0.1,0.2-0.1,0.1-0.2,0c-0.1,0.2-0.1,0-0.3,0.1c-0.1-0.1-0.3,0.1-0.3-0.1c0.2-0.2-0.2-0.2-0.2-0.1
	c0,0-0.1,0.1-0.2,0.1c0,0.2-0.2-0.2-0.2-0.1c0,0.2-0.2,0-0.1,0c0.1-0.5,0.1-1,0.2-1.5c0-0.4,0.3-1.1,0-1.3c-0.1,0-0.2,0-0.3,0
	c-0.2-0.2,0.3,0,0.4-0.1c0-0.1-0.3-0.1-0.4-0.1c0-0.1-0.3-0.1-0.5-0.1c-0.2-0.2,0.2,0,0.3-0.1c0-0.2,0.3,0.1,0.1-0.1
	c0.1-0.1,0-0.2,0-0.2c-0.1-0.1,0.2-0.1,0.1-0.2c0-0.1,0-0.1-0.1-0.3c0,0,0,0,0,0c0,0,0,0,0,0c0,0,0,0,0,0c0-0.1,0-0.2,0-0.2
	c0.1,0,0.2,0,0.1-0.1c0-0.1,0.3-0.1,0.2-0.1c0.1-0.2-0.1,0.1-0.2-0.1c0-0.1,0.1-0.1-0.1-0.1c0.1-0.1,0.1-0.2,0.2-0.1
	c0.1-0.1,0-0.1,0-0.2c0.1-0.3,0.4-0.2,0.7-0.1c0.2-1.1,0.5-2.2,0.7-3.2c0.1-0.2,0.2-1,0-0.7c-0.1,0.1-0.4,0.1-0.3,0
	c0-0.2-0.2,0.2-0.4,0c0,0.1-0.4,0,0-0.1c0,0,0.1-0.1,0.1-0.1c0,0-0.1,0,0-0.1c0,0,0,0.1,0,0.1c0.1,0,0.1-0.1,0-0.2
	c0.1-0.1-0.1-0.1-0.1-0.2c-0.3,0,0-0.1-0.1-0.2c0-0.2,0-0.1-0.1-0.2c0.2-0.1,0.1-0.1,0.1-0.2c-0.1-0.2,0.1-0.2,0.2-0.2
	c0.1-0.1,0.2-0.4,0-0.3c0-0.2-0.4,0-0.4-0.3c0,0,0.1-0.2,0.3-0.2c0.8-0.2,1.7-0.4,2.5-0.4C42.8,121.4,43.1,121.4,43.4,121.4z
	 M39.7,133.1c-0.2,0.2,0.2-0.1,0.1,0C39.8,133,39.7,133,39.7,133.1z M39.9,123.4c-0.1,0.2,0.2,0.1,0.1,0
	C39.9,123.5,39.9,123.5,39.9,123.4z M40.5,123.8c-0.1,0.1-0.2,0.1-0.1,0.1C40.4,123.8,40.8,124,40.5,123.8
	C40.6,123.8,40.6,123.8,40.5,123.8C40.6,123.8,40.6,123.8,40.5,123.8C40.5,123.8,40.5,123.8,40.5,123.8z M40.6,123.8
	C40.6,123.8,40.6,123.8,40.6,123.8C40.5,123.8,40.6,123.8,40.6,123.8z M41.2,133.6c0.2,0.1,0,0.1,0,0.2c0.3,0-0.1,0.1,0,0.2
	c-0.2,0.2-0.1,0.1-0.1,0C41.1,133.9,41.2,133.6,41.2,133.6C41.2,133.5,41.2,133.5,41.2,133.6C41.2,133.5,41.3,133.5,41.2,133.6z
	 M42.8,123.6c-0.1-0.1,0,0.1-0.1,0.2c0,0.2,0,0.3,0,0.4c0.2,0.1-0.1,0.1,0,0.3c0.1,0,0.1,0.1,0,0.2c-0.1-0.3-0.1,0.3-0.2,0.4
	c0,0.1-0.2,0.3,0,0.4c-0.1,0.1-0.1,0-0.2,0.2c0.1,0,0.1,0.1,0.1,0.2c0,0,0,0,0,0c0,0,0,0,0,0c0,0.1-0.1,0.2-0.1,0.2
	c0.2,0.2,0,0.1-0.1,0.3c0,0,0,0,0,0c0,0,0,0,0,0c0,0.1,0,0.1,0,0.2c0,0,0,0,0,0c0,0.1,0,0.1-0.1,0.1c0,0.1,0,0.1-0.1,0.2
	c1-0.5,2-1.1,2.7-1.9c0.1-0.2,0.6-0.6,0.3-0.6c-0.1,0-0.1-0.1-0.2-0.1c0,0,0,0,0,0c0,0-0.1-0.1-0.2-0.1c-0.1,0.1-0.2,0.1-0.2,0
	c0.1,0,0.3-0.2,0.1-0.2c-0.2-0.1-0.1,0-0.2,0.1c0.1-0.1-0.1-0.2-0.2-0.2c-0.1,0-0.3-0.2-0.5-0.2c-0.1,0.1-0.2-0.1-0.5,0
	C43.2,123.5,42.9,123.6,42.8,123.6C42.8,123.5,42.8,123.6,42.8,123.6z M44.1,131.1C44.2,131.2,44.2,131.1,44.1,131.1
	C44.1,131.1,44.1,131.1,44.1,131.1z M44.3,124C44.4,124.1,44.2,124.1,44.3,124C44.3,124,44.3,124,44.3,124z M44.4,131.1
	C44.3,131.2,44.5,131.1,44.4,131.1C44.5,131.1,44.5,131.1,44.4,131.1z M44.6,124.4C44.8,124.6,44.4,124.4,44.6,124.4
	C44.5,124.3,44.5,124.4,44.6,124.4z M44.6,131.2c0.1,0,0.3,0.1,0.2-0.1C44.8,131.2,44.4,131.1,44.6,131.2z M45.2,124.4
	C45.1,124.7,45,124.5,45.2,124.4C45.2,124.4,45.2,124.5,45.2,124.4z"/>
<path d="M53.3,120.8c0,0,0.2,0.1,0.2,0.1c-0.1-0.1,0.2,0,0,0.2c0.1-0.1,0.1,0.2,0.2,0.2c0.1,0.1,0.2,0.2,0.2,0.2
	c0.1,0.1,0.1,0,0.2,0c0.1,0,0,0.2,0.2,0.2c0.2-0.1,0,0.2,0.1,0.1c0.1,0.1,0.2,0.2,0.2,0.4c0,0.1,0.2-0.1,0.1,0.3
	c0,0.1,0,0.2-0.1,0.3c0,0.2,0,0.3,0,0.5c-0.1,0.5,0-0.3-0.1,0.1c0,0.2-0.1,0.2,0,0.4c0,0,0,0,0,0.1c0,0,0,0,0,0c0,0,0,0.1,0,0.2
	c-0.1,0-0.1,0.4-0.1,0.5c0,0.2,0,0.2-0.1,0.4c-0.1,0.2,0,0.4-0.1,0.6c0,0,0,0,0,0c0,0,0,0,0,0c0,0.1,0,0.1,0,0.1
	c0,0.1,0,0.2-0.1,0.3c-0.1,0.1,0,0.4-0.1,0.4c-0.1,0.1,0,0.1,0,0.2c0,0.2-0.1,0.6-0.1,0.8c-0.1,0.4-0.2,0.9-0.3,1.4
	c-0.1,0.3,0,0.7-0.1,1c0,0.3-0.1,0.4-0.1,0.7c0,0.3,0,0.5-0.1,0.8c0,0.1,0,0.2,0,0.5c0,0.3,0,0.7,0,0.9c0,0.1,0.1,0.3-0.1,0.5
	c0.1,0,0,0.2,0,0.2c-0.2,0.2,0-0.2-0.2-0.2c0.1-0.1,0,0-0.1-0.2c-0.1,0.1-0.1,0.2-0.1,0c-0.1,0.3-0.1,0-0.2,0c0-0.2-0.1,0.2-0.1,0
	c-0.1-0.2-0.2,0.1-0.2,0.1c-0.1-0.2-0.2-0.1-0.3-0.1c-0.2,0.2-0.3-0.8-0.5-0.5c-0.1-0.2-0.2,0.1-0.2,0.1c-0.1,0.1-0.1,0.3-0.3,0.5
	c0-0.1,0,0-0.1,0.1c-0.2,0.1-0.1,0-0.1-0.1c-0.1,0.1-0.3,0.3-0.6,0.3c0-0.1-0.1-0.1-0.2-0.1c0,0.1-0.1,0.1,0,0c-0.1,0-0.2,0-0.2-0.1
	c-0.2-0.1-0.3,0-0.4-0.1c-0.1,0.1-0.1-0.1-0.1-0.1c-0.2-0.1-0.1-0.1-0.4-0.2c-0.3,0-0.2-0.1-0.5-0.1c-0.3,0.2,0,0-0.3-0.1
	c-0.1,0,0.1,0.2-0.2,0c-0.8-0.6-1-1.6-0.9-2.6c0.1-2.4,0.8-4.8,1.7-7c0.1-0.5,0.6-1.1,0.5-1.4c0.2-0.2,0.1-0.1,0.1-0.2
	c0.1-0.2,0.3-0.1,0.3,0c0.2-0.1,0-0.2,0.3-0.1c0.1,0,0.2,0.2,0.3,0.2c-0.1,0.2,0,0.2,0,0.4c0.1-0.3,0,0.2,0.1,0c0,0.2-0.1,0.2,0.1,0
	c-0.1-0.2,0.3-0.1,0.1,0c0.2,0.1-0.2,0.2,0,0.2c0-0.1,0.1,0,0.2,0.1c0.1,0.1,0.1,0.2,0.2,0.2c0,0,0,0,0,0c0,0,0,0,0,0
	c0,0.2,0,0.4-0.1,0.6c-0.1,0.1-0.3,0.4-0.1,0.4c-0.1,0.2-0.1,0.2-0.1,0.5c-0.1,0.3-0.1-0.1-0.2,0.2c0.2,0.1,0,0.1,0,0.3
	c0.2,0.1-0.1,0.5,0,0.3c-0.1,0.1-0.1,0.1,0,0.3c0,0-0.1,0-0.2,0.1c-0.1,0.1,0,0.2,0,0.2c-0.1,0.2,0,0.1,0,0.3
	c-0.2-0.1-0.1,0-0.2,0.1c0,0,0,0,0,0c0,0,0,0,0,0c-0.1,0.2,0,0.2-0.1,0.3c0,0.1-0.2,0.3-0.1,0.5c0.1,0.1,0.1,0.3,0,0.3
	c-0.1-0.2-0.1,0.2-0.1,0.2c-0.2,0.1,0,0.2-0.1,0.2c0.1,0.2,0,0-0.1,0.2c0.1-0.2,0.1,0.3,0,0.4c0,0.1,0,0.3-0.1,0.4
	c-0.1,0.2-0.1,0.3-0.1,0.4c0,0-0.2,0.2,0,0.2c0,0,0,0.1,0,0.1c0,0,0,0,0,0c0,0,0,0.1,0,0.1c0,0.1,0,0.1,0,0.1c0,0,0,0,0,0
	c0,0,0,0,0,0c0,0,0,0.1,0.1,0.1c0,0.1-0.1,0.3-0.1,0.4c0,0.1,0,0.2,0,0.3c0.1,0.1-0.1,0.5,0.1,0.6c-0.1,0.1,0.1,0.2,0,0.4
	c0,0.1-0.1,0.4,0.1,0.2c0.4-0.3,0.7-0.6,1-1c0.3-0.4,0.8-0.8,0.9-1.2c0.2-1.8,0.6-3.5,1-5.2c0.2-1,0.5-2,0.8-2.9
	c0-0.3,0.1,0.2,0.1,0c0.1-0.1,0-0.1,0.2-0.2C53.3,120.8,53.4,120.8,53.3,120.8z M48.3,132.7C48.4,132.8,48.2,132.8,48.3,132.7
	C48.3,132.7,48.3,132.7,48.3,132.7z M49.2,132.9c0.1,0.1,0.1,0.1,0.2,0.1C49.7,133.2,49.4,132.9,49.2,132.9
	C49.2,132.9,49.2,132.9,49.2,132.9z M49.2,129.2C49.2,129.2,49.2,129.2,49.2,129.2C49.2,129.2,49.2,129.2,49.2,129.2z M49.4,128
	C49.5,127.8,49.3,128,49.4,128C49.3,127.9,49.3,128,49.4,128z M50.8,132.8c-0.1,0-0.3,0.1-0.4,0.2c-0.2,0-0.2,0-0.3,0
	c-0.1,0-0.1,0-0.2,0c0,0,0,0,0,0c0,0,0,0,0,0c0,0,0,0-0.1,0c0,0-0.1-0.1-0.1,0c0.1,0.2,0.4,0.2,0.6,0.2c-0.2,0.2,0,0,0.1-0.1
	c0,0.2,0.4,0,0.6-0.1c0.2-0.2-0.1,0,0-0.2C50.9,132.7,50.9,132.8,50.8,132.8z M51.9,117.7c0.2,0.1,0.2,0.3,0.3,0.5
	c0,0.1,0.2,0.2,0.2,0.3c-0.1,0.1,0.1,0.1,0.1,0.2c-0.1-0.1-0.1,0,0,0.1c0.1,0.1,0.1,0.2,0.1,0.3c0,0.2-0.1,0.3,0,0.4
	c0,0.1-0.1,0.1-0.1,0.2c0.1,0.1-0.2,0.1-0.2,0.3c0.1,0.1-0.1,0,0,0.1c0,0.1-0.2,0.2-0.2,0.3c0,0.1-0.1,0.1-0.1,0.2
	c-0.1,0.1-0.3,0.2-0.4,0.3c0,0,0.3-0.3,0.3-0.3c0.2-0.1,0-0.1-0.1,0c-0.1,0,0,0,0,0c0,0,0,0,0,0c0,0.1-0.2,0.1-0.1,0
	c0.1-0.1-0.2,0.1-0.1,0.1c0.1-0.1,0,0.1-0.2,0.2c-0.1,0,0.2-0.1,0-0.1c-0.1,0,0,0-0.1,0.1c-0.1-0.1-0.2,0.1-0.3,0.1
	c0,0-0.3-0.2-0.2-0.1c0,0.1-0.2-0.2-0.2-0.2c-0.1,0.1,0.1,0.2,0.1,0.3c0,0.2,0,0-0.1-0.1c-0.1,0-0.1-0.3-0.2-0.2
	c-0.1,0-0.1-0.2,0-0.1c0-0.2-0.2-0.4-0.3-0.6c-0.3-0.1-0.4-0.4-0.4-0.7c0-0.7,0.7-1.3,1.3-1.4c0.2,0,0.3-0.1,0.5-0.1
	C51.6,117.6,51.8,117.7,51.9,117.7z M49.9,132.9C49.9,132.9,49.9,132.9,49.9,132.9C49.9,133,49.9,133,49.9,132.9z M50.2,125.1
	L50.2,125.1C50.2,125.1,50.2,125.1,50.2,125.1z M50.3,132.8C50.2,132.9,50.4,132.8,50.3,132.8C50.3,132.8,50.3,132.8,50.3,132.8z
	 M50.7,122.6c0.2,0.2,0.1-0.1,0.1-0.2C50.5,122.6,50.4,122.6,50.7,122.6z M50.8,122.4C50.8,122.4,50.8,122.4,50.8,122.4
	C50.8,122.4,50.8,122.4,50.8,122.4z M51.2,120.9c-0.1,0-0.3,0.1-0.3,0C51,120.9,51.2,121,51.2,120.9
	C51.3,120.9,51.2,120.9,51.2,120.9z M51.3,120.8C51.3,121,51.2,120.8,51.3,120.8C51.3,120.8,51.3,120.8,51.3,120.8z M51.5,120.8
	C51.3,120.8,51.5,120.8,51.5,120.8C51.6,120.8,51.5,120.8,51.5,120.8z M51.7,120.5C51.7,120.5,51.7,120.5,51.7,120.5
	C51.7,120.5,51.7,120.5,51.7,120.5z M55.2,117.9c0.1,0,0.1,0.2,0.2,0.2c0.1,0.1,0.2,0.3,0.2,0.4c0.1,0.1,0,0.1,0.1,0.2
	c0,0.2,0,0.4-0.1,0.6c0,0.1-0.1,0.1-0.1,0.2c0.1,0.2-0.2,0.2-0.1,0.3c-0.1,0,0,0.1-0.1,0.1c0,0-0.2,0.1-0.1,0c0.1-0.2,0-0.1,0,0
	c0,0.1-0.3,0.3-0.2,0.3c0,0,0,0.1,0.1-0.1c0.2,0.1-0.2,0.2-0.2,0.2c0.1-0.1,0.1-0.2,0-0.1c-0.1-0.1,0.1,0,0.1-0.1
	c-0.1,0-0.1,0.1-0.2,0.1c0.1,0,0,0.2-0.1,0.1c0.1-0.2-0.2,0-0.2,0c-0.1,0.1,0.1,0.1,0.1,0.1c-0.2,0.2-0.2-0.1-0.4,0
	c-0.1,0.1-0.1-0.2-0.2-0.1c0,0-0.1,0-0.1-0.1c-0.1-0.1-0.1,0-0.1,0.1c0.1,0.1,0.1,0.4,0,0.2c-0.1-0.1,0-0.3,0-0.4
	c-0.2-0.1-0.3-0.3-0.4-0.5c-0.2-0.2-0.3-0.4-0.3-0.7c0-0.3,0-0.6,0.2-0.9c0.2-0.4,0.6-0.8,1.1-0.8C54.7,117.2,55.1,117.5,55.2,117.9
	z M53.9,120.6c0,0.1,0.1,0,0.1,0.1c0.1-0.1,0.4-0.1,0.3,0c0,0.1-0.1,0-0.2,0.1C54,120.8,53.7,120.8,53.9,120.6
	C53.9,120.6,53.9,120.6,53.9,120.6z M54.1,126L54.1,126C54,126,54.1,126.1,54.1,126z M54.6,120.5c0,0.1-0.3,0.3-0.2,0.1
	C54.5,120.6,54.5,120.6,54.6,120.5c0.1,0,0.1-0.1,0.2-0.2C54.9,120.5,54.6,120.6,54.6,120.5z M55.2,120.1c-0.1,0,0-0.1,0-0.1
	C55.2,120.1,55.3,120.1,55.2,120.1z"/>
<path d="M60.9,120.6c0.1,0.1,0.2,0,0.3,0.2c0,0,0.2,0.3,0.3,0.2c0,0.2,0.2,0.1,0.2,0.2c0.2,0.1,0.3,0.1,0.4,0.2
	c-0.1,0.1,0,0.1,0.1,0.1c-0.2,0,0.1,0.1,0.1,0.2c0.2,0.1,0,0.2,0.2,0.3c0,0.1,0.1,0.3,0.1,0.5c0,0.3,0.1,0.7,0.1,0.8
	c-0.1,0.1-0.2,0.4-0.2,0.7c-0.1,0.3-0.1,0.4-0.1,0.5c0,0,0,0.1,0,0.1c0,0,0,0,0,0c-0.1,0,0,0,0,0c0,0.1-0.1,0.2,0,0.1
	c0,0.2,0,0.3-0.1,0.5c0,0-0.2,0.1-0.2,0.1c-0.2,0.2-0.1,0,0-0.2c-0.1,0.2,0.1-0.1,0.1-0.1c0,0,0,0-0.1,0c0,0,0-0.1,0-0.1
	c0,0.1,0,0.1,0,0.1c-0.1,0-0.2,0-0.1-0.1c0,0,0,0,0,0c0,0,0,0,0,0c0,0.1,0.1,0.3-0.1,0.2c-0.1,0.1-0.2,0.1-0.1,0.2
	c-0.1,0-0.1,0.1,0.1,0.1c0.1,0,0.2-0.1,0.2,0.1c0.3-0.3,0,0.4-0.1,0.1c-0.2,0.2,0-0.1-0.2,0.1c0,0.3-0.3,0.2-0.2,0.3
	c-0.1,0.1-0.2,0.4-0.1,0c0.2,0,0.1-0.1,0-0.1c-0.1,0.1,0,0.1-0.1,0.2c-0.1,0.1-0.2,0.2-0.2,0.3c-0.1-0.1,0,0.3-0.1,0.2
	c-0.3,0.1-0.2,0.3,0.1,0.3c0.4,0.3,0.8,0.7,1,1.1c0.1,0.3,0.3,0.8,0.2,1.1c-0.1,0,0,0.3,0,0.3c0,0.2-0.2-0.2-0.1,0.1
	c0.2-0.1-0.1,0.3,0,0.3c-0.1,0.3-0.1,0.2-0.1,0.4c0,0.1-0.1,0.1-0.1,0.3c0,0-0.2,0.2,0,0.1c-0.1,0.2-0.3,0.4-0.3,0.4
	c0,0,0,0.1-0.1,0.1c0,0,0,0,0,0c0,0,0,0,0,0c-0.1,0.1-0.2,0.2-0.3,0.3c0,0.2-0.4,0.2-0.5,0.4c-0.1,0-0.2,0.2-0.3,0.1
	c-0.1,0.1-0.1,0-0.2,0.1c0,0.1-0.1,0.1,0,0c0,0,0,0-0.1,0c0.1,0-0.2,0.2-0.2,0.1c0,0-0.1,0-0.1,0c0,0.2-0.2,0.1,0,0
	c-0.1,0-0.3,0-0.2-0.1c0,0,0,0,0,0c0,0,0.1,0,0,0c0.2,0,0.4,0,0.5-0.1c0,0.2,0.3-0.1,0.5-0.1c0.2-0.1,0.4-0.2,0.5-0.4
	c0.2-0.1,0.4-0.4,0.5-0.6c0,0,0,0,0,0c0,0,0,0,0,0c0,0,0,0,0,0c-0.1,0.2-0.2,0.2-0.3,0.4c-0.2,0.1-0.2,0.2-0.3,0.2
	c0.1,0.1-0.1,0.1-0.2,0.2c0,0.1-0.4,0.1-0.1,0c0-0.2-0.3,0.1-0.4,0.1c-0.2,0.1-0.2,0-0.4,0.1c-0.2,0-0.2-0.2-0.4-0.1
	c-0.2,0,0,0.1,0.2,0.1c0,0.1-0.4-0.1-0.5-0.1c-0.2-0.1-0.9-0.2-0.5,0c0.2,0.2,0.2,0.1,0.4,0.1c-0.1,0.2,0.5,0.1,0.5,0.3
	c-0.2,0.1-0.2,0.1-0.5-0.1c0-0.1,0,0.1-0.1,0.1c-0.1-0.2-0.5-0.2-0.6-0.4c0.2,0-0.2-0.4-0.4-0.4c-0.1-0.2-0.4-0.2-0.4,0.1h0
	c0,0,0,0,0,0c0,0,0,0,0,0.1c-0.1,0,0,0.4-0.1,0.3c-0.1,0.1,0.1,0.3,0,0.3c-0.1,0.1-0.1,0.4-0.1,0.6c0,0.2,0,0.1-0.1,0.3
	c0.1,0.1-0.1,0.1,0-0.1c0.1-0.1,0-0.5-0.1-0.2c-0.1,0.1-0.1,0.1-0.1,0.2c-0.2,0-0.2,0.3-0.2,0.4c0,0.1-0.2,0.2-0.1-0.1
	c-0.3,0,0,0-0.2,0.1c-0.1-0.1-0.2,0-0.3,0c-0.1-0.2-0.1,0.1-0.1,0.1c0-0.3-0.2,0.3-0.2-0.1c-0.1-0.1-0.2,0-0.1,0.1
	c-0.1,0.2-0.2-0.1-0.3,0c-0.2-0.1,0.1,0,0-0.1c0-0.2,0,0-0.1,0c0-0.1,0,0.2-0.3,0c0-0.1-0.1,0.1,0,0.1c0,0.1-0.1,0-0.2-0.1
	c-0.1,0.2-0.2,0.1-0.2-0.1c0.1-1.4,0.5-2.7,0.8-4.1c0.7-2.2,1.4-4.5,2.7-6.5c0.5-0.8,1.3-1.8,2.3-1.9
	C60.6,120.5,60.7,120.5,60.9,120.6z M56.7,132.4c0,0.1,0.2-0.1,0.1-0.1c0,0,0,0,0,0C56.7,132.3,56.8,132.4,56.7,132.4z M57,132.2
	C57,132.2,57,132.2,57,132.2C57,132.1,57.1,132.1,57,132.2C57,132.1,57,132.1,57,132.2c0.1-0.1-0.1-0.1-0.1-0.2
	C56.7,132.2,57,132.1,57,132.2z M56.9,131.9L56.9,131.9C56.9,131.9,56.9,131.9,56.9,131.9C57,131.9,57,131.9,56.9,131.9
	C56.8,131.9,56.9,131.9,56.9,131.9z M57,131.7c-0.1,0.2,0,0.5,0.1,0.1c-0.1-0.1,0.2-0.4,0-0.5C57.1,131.6,57.2,131.5,57,131.7z
	 M57.2,131.2c0.1,0.1,0.1-0.2,0.1-0.3C57.1,130.9,57.2,131.1,57.2,131.2z M57.3,131.2L57.3,131.2C57.3,131.2,57.3,131.2,57.3,131.2z
	 M57.5,129.6C57.5,129.6,57.5,129.6,57.5,129.6C57.5,129.6,57.5,129.6,57.5,129.6L57.5,129.6c0,0.1,0.1,0.1,0.1-0.1
	C57.5,129.5,57.5,129.6,57.5,129.6z M57.7,128.6c-0.1,0.1,0,0.2-0.1,0.3c0,0.2,0,0.3-0.1,0.5c0.2,0,0-0.4,0.2-0.4
	c-0.1-0.1,0-0.4,0.1-0.4c0-0.1,0.1-0.4,0.1-0.5C57.8,128.4,57.8,128.5,57.7,128.6z M58.3,127.5c-0.2,0-0.2,0.2-0.1,0.2
	c0.1-0.2,0,0.2,0,0.2c-0.3,0.2,0,0.4-0.2,0.5c0.1,0-0.2,0.2-0.2,0.5c0,0-0.2,0.5-0.2,0.8c-0.1,0.4,0.2,0,0.1,0.2
	c0.1,0.4,0.1-0.1,0.3,0.1c-0.2,0-0.1,0-0.1,0.1c0,0.3,0.9,0.1,1.1-0.3c0.4-0.4,0.8-1,0.7-1.6c0-0.1-0.5,0.1-0.2-0.1
	c0.2,0,0.2-0.3,0.1-0.2c-0.2,0.1-0.2,0-0.4,0c-0.2,0-0.3,0.1-0.3,0c0.1,0-0.2,0.1-0.2,0c0,0.2-0.1,0.1-0.1,0c0,0.2-0.4,0.2-0.1,0
	C58.8,127.6,58.2,127.8,58.3,127.5C58.3,127.5,58.3,127.5,58.3,127.5z M58.6,127.9c0.1,0.1-0.2,0-0.1,0
	C58.5,127.9,58.6,127.9,58.6,127.9z M58.6,125.6c-0.1,0.2,0.2-0.2,0-0.2C58.7,125.5,58.6,125.6,58.6,125.6z M58.7,125.6
	c0.2-0.2,0.1,0,0-0.2C58.8,125.5,58.8,125.6,58.7,125.6z M58.9,128C58.9,128.2,58.7,127.9,58.9,128C58.8,127.9,58.9,128,58.9,128z
	 M59,132c0,0-0.1,0-0.2,0C59,132,59.1,132,59,132c0.2,0.1,0.2-0.1-0.1-0.1C59,131.9,59,132,59,132z M60.4,123.1
	c0.1-0.2-0.2,0-0.2-0.1c-0.2-0.1-0.2,0.2-0.2,0.2c-0.1-0.1-0.2,0.2-0.2,0.3c-0.1-0.1,0,0.2,0.1,0c0.2-0.3,0,0.2-0.2,0.3
	c-0.1,0.2-0.2,0.2-0.3,0.2c-0.1,0.1-0.1,0.2,0.1,0.3c0-0.2-0.1-0.1,0-0.2c-0.2-0.1,0.3,0,0.2,0c0,0.1-0.2,0.2-0.2,0.2
	c0,0.3-0.3,0.2-0.1,0c-0.1,0-0.3,0.1-0.2,0.1c0.1,0.1-0.1,0.3-0.1,0.3c-0.1,0.2-0.1,0.2,0,0c-0.2,0,0,0.4-0.2,0.2
	c-0.1,0.1-0.1,0.2,0.2,0.1c0,0.1,0.1-0.4,0.2-0.2c0,0.2,0,0.1-0.2,0.3c0,0.2-0.2,0-0.1-0.1c-0.2,0.1,0,0.2,0,0.3
	c0.6-0.5,1.1-1.2,1.4-2c0-0.3,0.2-0.3,0.2-0.4C60.6,123.1,60.2,123.2,60.4,123.1z M58.9,127.7C58.8,127.8,59.1,127.7,58.9,127.7
	C58.9,127.7,58.9,127.7,58.9,127.7z M58.9,125.4C58.9,125.3,58.9,125.3,58.9,125.4C58.9,125.3,58.9,125.3,58.9,125.4
	C58.9,125.3,58.9,125.3,58.9,125.4z M59.2,132.1C59.3,132.2,58.8,132.1,59.2,132.1C59.1,132.1,59.1,132.1,59.2,132.1
	C59.1,132.1,59.2,132.1,59.2,132.1z M59.1,132C59,132,59,132,59.1,132C59,132,59,132,59.1,132z M59.1,128.5c-0.2,0,0.2-0.3,0.4-0.3
	C59.4,128.3,59.2,128.4,59.1,128.5z M59.3,124.7c-0.1,0.1,0-0.1,0.1-0.2C59.4,124.6,59.4,124.7,59.3,124.7z M59.3,132
	C59.4,132,59.4,132,59.3,132C59.3,132,59.3,132,59.3,132C59.3,132,59.3,132,59.3,132z M59.8,127.8C59.6,128.1,59.5,127.9,59.8,127.8
	C59.7,127.9,59.7,127.8,59.8,127.8z M60.1,123.6c-0.3,0.1-0.2,0,0-0.2C60.3,123.5,60.1,123.4,60.1,123.6z M60.2,123.1
	c-0.2,0.1,0.1,0-0.1,0.1C59.9,123.5,60,123.1,60.2,123.1C60.2,123.1,60.2,123.1,60.2,123.1z M60.2,131.7
	C60.2,131.7,60.2,131.7,60.2,131.7C60.2,131.8,60,131.8,60.2,131.7C60.2,131.7,60.2,131.7,60.2,131.7z M60.2,123.3
	C60.2,123.4,60.2,123.2,60.2,123.3C60.2,123.2,60.2,123.2,60.2,123.3z M60.5,122.6c-0.1,0-0.2,0.3-0.1,0.1c0.1,0,0.3-0.1,0.3-0.3
	c0,0,0,0,0,0c0,0,0,0,0,0c0,0,0,0,0,0C60.6,122.6,60.4,122.5,60.5,122.6z M60.5,122.8c0,0.2,0.2,0.1,0.1-0.1
	C60.6,122.8,60.5,122.7,60.5,122.8z M60.7,122.4C60.7,122.4,60.7,122.4,60.7,122.4C60.7,122.4,60.7,122.4,60.7,122.4z M61.1,126.6
	c-0.1-0.1,0-0.2,0-0.2c0.1,0,0.1,0,0.2-0.1C61.5,126.3,61.1,126.5,61.1,126.6z M61.2,126.7C61,127,60.9,126.8,61.2,126.7
	C61.2,126.6,61.3,126.6,61.2,126.7z M61.2,131.1C61.2,131.1,61.2,131.1,61.2,131.1C61.2,131.1,61.2,131.1,61.2,131.1z M61.7,126.1
	c0,0.1-0.1,0.2-0.2,0.3c0,0,0,0,0,0c0,0,0,0,0,0c-0.2,0-0.3,0.3-0.2,0C61.5,126.3,61.5,126.2,61.7,126.1
	C61.7,126.1,61.7,126.1,61.7,126.1z M61.7,125.6c-0.1,0.1-0.2,0.2-0.2,0.2c-0.1,0.1,0.1,0.2,0.1,0.1c0-0.2,0.3-0.2,0.2-0.3
	C61.7,125.6,61.7,125.5,61.7,125.6z M61.8,126.1c-0.2,0,0.1-0.3,0.1-0.3C62,125.8,61.8,126,61.8,126.1z M62,125.3
	c0.1,0.1-0.2,0.1,0.1-0.1C62.1,125.2,62,125.3,62,125.3z M62.3,124.8c0-0.1-0.1,0,0-0.2C62.2,124.8,62.2,125,62.3,124.8z
	 M62.5,124.5C62.5,124.5,62.5,124.5,62.5,124.5C62.5,124.5,62.5,124.5,62.5,124.5z M62.6,124.5C62.5,124.7,62.5,124.6,62.6,124.5
	C62.6,124.5,62.6,124.5,62.6,124.5z"/>
<path d="M66.4,119.9c0.2,0,0.2,0.1,0.3,0.1c0,0.1,0.1,0.2,0.3,0.2c1.1-0.3,2.2-0.5,3.2-0.6c0.3,0,0.9-0.1,1.1,0
	c0.2-0.2,0.2,0.1,0.4,0.1c0.1-0.1,0.2,0.1,0.2,0.1c0,0.1,0.2,0.1-0.1,0.2c0.1,0,0.1,0.2-0.1,0.3c0,0-0.1,0.2-0.1,0.2
	c0,0.2-0.1,0.2-0.1,0.2c0,0.2,0.2,0.2,0.2,0.3c-0.1,0.1-0.1,0.1-0.2,0.3c-0.3-0.1-0.2,0.2-0.1,0.2c0,0.2-0.3-0.1-0.2,0
	c-0.2,0-0.2,0.1-0.4,0c-0.2,0.1-0.3,0-0.4,0.2c-0.1,0.1-0.2,0,0-0.1c-0.1,0.1-0.2,0-0.3,0.1s0,0-0.2,0.1c0-0.2-0.3,0.1-0.3,0
	c-0.1,0-0.3,0.1-0.4,0.1c0,0.1-0.3-0.1-0.5,0.1c0,0,0,0,0.1,0c0,0,0,0,0,0c0.2,0,0.4,0.1,0.1,0.2c0-0.2-0.3,0.2-0.4,0.1
	c0,0-0.5,0.2-0.3,0c-0.2-0.1-0.1,0.2-0.2,0.1c-0.2,0.1-0.3-0.1-0.3-0.1c0.2,0.2-0.3,0.3-0.2,0.1c-0.2-0.1-0.1-0.1-0.1-0.2
	c-0.2-0.2,0,0.3-0.2,0.1c-0.2,0,0,0.2-0.2,0.2c-0.1-0.1-0.2,0.1-0.1,0.3c-0.1,0.2-0.1-0.2-0.1,0.1c0,0.1,0,0-0.1,0.2
	c0.1,0.1-0.1,0.1,0,0.2c0,0.3-0.3,0.2-0.2,0.3c-0.1,0.1,0,0.1,0,0.3c-0.1,0.2-0.3,0.3-0.1,0.4c0,0,0,0.1-0.1,0.1c0,0,0,0,0,0
	c0,0,0,0,0,0c0,0.1,0,0.1-0.1,0.1c0,0,0.2,0.2-0.1,0.2c0,0,0,0.2,0,0.4c0,0,0,0,0,0c0,0,0,0,0,0c0,0,0,0,0,0.1c1-0.3,2-0.6,3-0.7
	c0.4,0,0.9-0.1,1.2,0c0,0,0.1,0,0.1,0.2c0.2,0.2-0.1,0.1,0.1,0.2c-0.2,0.2,0,0.1,0,0.3c-0.1-0.1-0.1,0,0,0.1c0.2,0,0,0.1,0,0.2
	c-0.1-0.1-0.1-0.3-0.1,0c0.1,0.1,0.3,0.3,0.1,0.2c0,0-0.1,0.1-0.2,0.2c0,0,0,0,0,0c0,0,0,0,0.1,0c0.1,0.1,0.2,0.1,0.1,0.2
	c-0.3,0.2,0,0-0.1,0.2c0.2-0.1,0,0.2-0.1,0.2c-0.2-0.1-0.2,0.2-0.1,0.1c0.1,0-0.1,0.2-0.1,0.1c0,0.2-0.5,0.1-0.4,0.2
	c-0.2-0.1-0.2,0.2-0.3,0.1c-0.2,0.2-0.2-0.1-0.2,0.1c-0.2,0-0.4-0.1-0.6,0c-0.1,0.1-0.3,0-0.4,0.1c-0.1,0-0.1,0-0.2,0
	c-0.2-0.1,0,0.2-0.2,0.1c0.2-0.1-0.5,0-0.2,0.1c-0.2,0.2-0.2-0.2-0.4,0c-0.2,0.2-0.1,0.1-0.2,0.1c-0.1,0-0.2,0-0.2,0.1
	c0.1,0.1-0.1,0.1,0,0c-0.1,0.1-0.2,0.1-0.3,0.1c-0.1,0.1-0.2,0.1-0.2,0.1c-0.1-0.1-0.1,0.1-0.2,0c0,0.2-0.5,0.2-0.4,0.2
	c-0.2-0.1-0.1,0.5-0.2,0.8c-0.2,0,0.1,0.1,0,0.4c-0.1,0.1,0,0.3,0,0.4c-0.1,0,0.2,0.3-0.1,0.4c0,0.4,0.1-0.1,0.1,0.2
	c0,0,0,0.1,0,0.1c0,0,0,0,0,0c0.1,0,0.1,0.1,0,0.1c0,0.1,0.1,0.1,0.1,0.2c0.1,0.3-0.1,0,0,0.2c0.1,0.1,0,0.1,0.1,0.2
	c0.8-0.2,1.6-0.8,2.3-1.3c0.1,0,0.1,0,0.3,0.1c0.1-0.1,0.1,0,0.2,0.1c0.3-0.1-0.1,0.2,0.1,0.1c0.2,0.1,0.3-0.2,0.4,0
	c-0.1,0.1,0.1,0.1,0.2,0c0.1,0,0.1,0.2,0.1,0.1c0,0,0.1,0,0,0c0,0,0,0,0-0.1c0,0.2,0.5-0.1,0.4,0.1c0.3,0,0.1,0.3,0.2,0.3
	c0.1,0,0,0.2,0.2,0.1c-0.1,0.2-0.2-0.1-0.2,0.1c0,0.2-0.2,0.1-0.1,0c-0.1,0-0.2,0.3-0.1,0.2c0,0.1-0.1,0.2-0.3,0.3
	c-0.2,0.2-0.4,0.2-0.5,0.4c-0.1,0.1-0.4,0.2-0.2,0.2c0.1,0,0.3-0.2,0.4-0.2c0,0.2,0.1,0.1,0.2,0.1c0.1-0.1,0.3-0.2,0.3-0.3
	c0.2-0.1,0.2,0-0.1,0.1c-0.3,0.1-0.5,0.4-0.7,0.5c-0.1,0.2-0.3,0.1-0.3,0.2c-0.1,0-0.2,0.2-0.4,0.2c-0.1,0-0.1,0.1-0.3,0.2
	c-0.3,0.1-0.7,0.3-1.1,0.3c-0.3,0-0.6-0.1-0.9-0.2c-0.2,0-0.3-0.1-0.5-0.2c0.2,0-0.1-0.2-0.2-0.2c-0.2-0.1-0.1,0.1-0.2,0
	c-0.3-0.2,0,0.1-0.2,0c-0.1-0.1-0.1-0.1-0.2-0.1c0,0,0,0,0,0c0,0,0,0,0,0c0,0-0.1,0-0.1,0c-0.8-0.4-1-1.3-1.1-2.1
	c-0.1-1.8,0.3-3.6,0.8-5.3c0.1-0.3,0.4-0.8,0.3-0.9c0-0.2-0.1-0.1-0.2-0.4c-0.2,0.1-0.1-0.2-0.1-0.3c0.1-0.1-0.2,0-0.3-0.2
	c0.4,0-0.1-0.1,0.1-0.2c0.2,0,0.1-0.1,0.2-0.2c-0.1-0.2,0-0.2,0-0.3c0.2,0,0.2-0.2,0.2-0.2c-0.1-0.2-0.1,0-0.2-0.1
	c0.2,0,0.1-0.1-0.1-0.1c0.1,0.2-0.2-0.3-0.2-0.2c0-0.1,0.4-0.1,0.2-0.1c0.7-0.2,1.6-0.1,1.6-0.7c0-0.2,0.2-0.3,0.2-0.2
	C66.1,120.1,66.1,119.9,66.4,119.9C66.3,119.9,66.3,119.9,66.4,119.9z M64.8,131.5C64.8,131.5,64.8,131.5,64.8,131.5
	C64.8,131.5,64.8,131.5,64.8,131.5z M65.6,131.8C65.6,131.8,65.6,131.8,65.6,131.8C65.6,131.8,65.6,131.8,65.6,131.8z M66.4,124.4
	C66.3,124.5,66.5,124.4,66.4,124.4L66.4,124.4z M66.6,131.9c0.3,0.1,0.3,0.1,0.5,0c0-0.1-0.4,0.1-0.2,0
	C67.1,131.8,66.8,131.8,66.6,131.9C66.7,131.8,66.5,131.9,66.6,131.9z M66.7,131.9C66.6,132,66.8,131.9,66.7,131.9
	C66.7,131.9,66.7,131.9,66.7,131.9z M66.8,119.9C66.9,120.1,66.6,120,66.8,119.9C66.8,119.9,66.8,119.9,66.8,119.9z M67.1,131.8
	c-0.2,0.3,0,0.1,0.2,0.1c0.1,0,0.3,0,0.2-0.1C67.4,131.8,67.2,131.9,67.1,131.8z M67.5,122.2C67.6,122.2,67.6,122.2,67.5,122.2
	C67.5,122.2,67.5,122.2,67.5,122.2z M68.3,131.4c-0.1,0.1-0.3,0.1-0.4,0.2c-0.3,0.2,0,0.1,0,0.1c0.2,0,0.3-0.1,0.5-0.1
	c0-0.1,0.4-0.4,0.2-0.2c0.1,0.1,0.2-0.2,0.1-0.2C68.6,131.4,68.4,131.3,68.3,131.4z M68.1,131.8C68.1,131.8,68.1,131.8,68.1,131.8
	C68,131.8,68.1,131.8,68.1,131.8C68.1,131.9,68.1,131.9,68.1,131.8C68.2,131.8,68.2,131.8,68.1,131.8z M69.4,129.6
	C69.4,129.6,69.4,129.6,69.4,129.6C69.4,129.6,69.4,129.6,69.4,129.6z M69.7,121.9C69.7,122,69.5,121.9,69.7,121.9
	C69.7,121.9,69.7,121.9,69.7,121.9z M69.8,130.6C69.6,130.8,69.6,130.6,69.8,130.6C70,130.6,69.8,130.5,69.8,130.6z M70,130.6
	C70,130.6,70,130.6,70,130.6C70,130.6,70,130.6,70,130.6z M70.7,125.4C70.7,125.4,70.7,125.4,70.7,125.4
	C70.7,125.4,70.7,125.4,70.7,125.4z M70.7,125.7C70.7,125.7,70.7,125.7,70.7,125.7C70.8,125.6,70.8,125.8,70.7,125.7z M71,121.4
	C70.9,121.5,71.1,121.4,71,121.4C71,121.4,71,121.4,71,121.4z M71.4,120.4c0.1,0.1-0.1,0.3,0.2,0.2
	C71.5,120.4,71.7,120.4,71.4,120.4C71.4,120.4,71.4,120.4,71.4,120.4z"/>
<path d="M79.9,119.1c0.1,0.1,0.3,0.3,0.4,0.4c0.1,0.1,0.2,0,0.3,0.1c0.1,0.2,0.4,0.2,0.4,0.4c0.2,0.2,0.2,0.4,0.3,0.6
	c0,0.4,0.2,0.3,0.2,0.7c-0.1,0-0.1,0.1-0.1,0.2c0.1-0.2,0.2,0.3,0,0.2c0,0.4,0,0.9,0,1.3c-0.1,0.1,0.2,0.1,0,0.2
	c-0.1,0.1,0,0.1,0,0.2c0-0.1,0-0.1,0-0.1v0c0.1-0.1,0.1-0.1,0.1,0.2c-0.1,0-0.2,0.4-0.1,0.3c0.1,0.2,0,0.4,0,0.7
	c0.1,0.1-0.1,0.4,0.1,0.2c0,0.2,0,0.2-0.1,0.1c0,0,0,0,0,0c0,0,0,0,0,0.1c0,0.3,0.2,0.3,0,0.5c0.1,0.1-0.2,0.4,0,0.5
	c0,0.2-0.2,0-0.1,0.2c0.1-0.1,0.1,0.1,0.2,0.1c-0.1,0.1-0.2,0.1-0.2,0.2c0.2,0,0.2,0.2,0,0.3c0,0.1,0.4,0,0.2,0.1
	c-0.2-0.1-0.1,0.2-0.2,0.1c-0.1-0.1-0.1,0.1-0.1,0.1c-0.1,0.1,0.4-0.1,0.2,0c-0.2,0,0.1,0.2-0.1,0.1c-0.1,0.1,0.1,0-0.1,0.2
	c-0.1-0.1,0,0.1-0.1,0.2c-0.1,0,0.1,0.3-0.1,0.3c0,0.2,0,0.2,0,0.5c-0.1,0.2,0,0.4-0.1,0.6c0.2,0.1,0,0.1,0.1,0.2
	c-0.1,0-0.1,0.3-0.1,0.4c0.2,0.1-0.1,0.1,0,0.2c-0.1,0.1,0,0.4-0.1,0.5c0.1,0.2,0,0.3,0.1,0.4c0,0.3-0.4-0.2-0.3,0
	c-0.1,0-0.1,0.1-0.1,0.1c-0.1,0-0.2,0.1-0.3,0c0.1,0-0.2-0.1-0.2-0.1c0,0.2-0.2-0.2-0.2-0.1c-0.1,0.2-0.2-0.2-0.4-0.1
	c0-0.2-0.2-0.3-0.1-0.1c-0.1,0.2-0.3-0.1-0.3,0.1c-0.1,0.3-0.1-0.1-0.2,0c0,0.1-0.2-0.1-0.2,0c-0.2,0,0.2-0.2-0.1-0.2
	c0-0.5,0.1-1.1,0.1-1.6c-0.1-0.3,0.2-1-0.2-0.9c-0.4-0.2,0.4,0,0.2-0.2c0.1-0.1,0-0.2-0.3-0.1c0.2,0.1-0.1,0.2,0,0
	c-0.1,0-0.3,0-0.4,0.1c-0.2,0-0.2,0.2,0,0.1c0.2,0.1-0.3,0.1-0.2,0.2c0.1,0,0,0.1,0.1,0.1c-0.2,0-0.6,0.2-0.6,0
	c-0.2,0.2-0.1,0-0.3,0c-0.2,0.2-0.3,0-0.5,0.1c-0.1-0.2-0.3,0-0.4-0.1c0,0.1,0,0.3-0.1,0.1c-0.1,0.1-0.1,0.2,0.1,0.1
	c0.2,0,0.1,0.4-0.1,0.3c-0.1,0.1,0,0.3-0.1,0.2c-0.1-0.3-0.3,0.5-0.2,0.4c0.1,0,0.1,0.3-0.1,0.2c0-0.2-0.4,1-0.4,1
	c0-0.1-0.2,0.1,0,0.1c0,0.2-0.1,0.3-0.1,0.1c-0.1,0.1-0.1,0.3-0.1,0.2c0,0,0,0.1-0.1,0.1c0,0.1-0.1,0.1-0.1,0.1
	c-0.3-0.1,0.2,0.2,0,0.1c0.1,0.2-0.2-0.1-0.2,0c-0.1-0.2-0.3,0.4-0.2,0c0.1-0.1-0.2-0.3-0.1-0.1c0,0.1,0,0.1-0.1,0.1c0,0,0.1,0,0,0
	c0,0,0,0,0,0c0,0,0-0.1-0.1-0.2c-0.3,0.1,0.1,0,0,0.2c0-0.1-0.2,0.1-0.2-0.1c0.2-0.1-0.2-0.2-0.2,0c0.2-0.2,0.1,0.2,0,0.1
	c0-0.1-0.2-0.1-0.1-0.1c-0.1-0.4-0.2,0.3-0.2-0.1c0.1,0,0.1-0.3-0.1-0.2c-0.2,0.1,0-0.2-0.1-0.2c-0.1,0-0.2,0.1-0.3,0.1
	c0,0.1-0.2,0.1-0.2,0.1c0.1-0.2-0.2,0.2-0.1-0.1c0-0.1,0-0.3,0-0.3c0.1-0.2,0.1-0.1,0.1-0.3c0,0,0-0.2,0-0.2c0.9-3.1,2.5-7,3.8-8.8
	c0.5-0.7,1.1-1.5,1.9-1.8c-0.1,0.1,0.1,0,0.1,0c0,0,0.1-0.1,0.1-0.1C79.7,118.9,79.8,119,79.9,119.1z M74.8,131
	C74.8,131,74.8,131,74.8,131C74.8,131,74.8,131,74.8,131z M76.2,129.3C76.3,129.6,76.1,129.3,76.2,129.3
	C76.2,129.3,76.1,129.3,76.2,129.3z M76.7,128c0.2,0.2-0.1,0,0,0.1C76.5,128.1,76.5,128,76.7,128C76.6,128,76.7,128,76.7,128z
	 M77.8,127.7C77.8,127.7,77.8,127.7,77.8,127.7c-0.3,0-0.5,0.1-0.8,0.1c-0.4,0,0,0.2,0.1,0.1c0.1,0,0.4,0,0.3-0.1
	C77.5,127.8,77.9,127.8,77.8,127.7C77.8,127.7,77.8,127.7,77.8,127.7z M77.3,128C77.3,128.1,76.9,128.1,77.3,128
	C77.3,128,77.3,128,77.3,128z M79.3,122.1c-0.1,0.1-0.1,0.3-0.2,0.3c0,0.2-0.4,0.2-0.2,0.3c0.1,0-0.3,0.4-0.3,0.2
	c0.1-0.1,0.1,0,0.1-0.2c-0.1,0.1-0.2,0-0.2,0.1c0,0,0,0,0,0c0,0,0,0,0,0c0,0-0.1,0.1-0.1,0.1c0,0,0,0,0,0c0,0,0,0,0,0.1
	c0,0,0,0.1-0.1,0c0,0.1,0.1,0,0,0.2c-0.2,0.2,0.1,0.1,0.1,0.2c0,0,0,0.3-0.1,0.1c0.2-0.2-0.1-0.1-0.1,0.1c-0.1,0.1-0.1,0.2-0.2,0.2
	c0,0.2-0.1,0.2-0.2,0.3c0,0.3,0.1,0,0.2-0.1c0.1-0.1,0.1-0.4,0.2-0.3c0,0-0.1,0.1-0.1,0.3c-0.1,0.1-0.1,0.1-0.2,0.3
	c-0.2,0.1,0,0.4-0.2,0.4c0-0.2,0-0.1-0.1,0.1c-0.2,0-0.3,0.2-0.1,0.3c0,0,0,0.1,0,0.1c0.2,0.1,1.1-0.1,1.6-0.1
	c0.1-0.7,0.1-1.5,0.2-2.2c0-0.3,0.2-0.9,0-1C79.3,122,79.3,122.1,79.3,122.1z M77.6,124.8c0.1,0.1,0.1-0.1,0.2-0.2c-0.1,0,0,0,0-0.1
	C77.7,124.6,77.7,124.7,77.6,124.8z M77.7,124.9C77.9,125.1,77.7,125.1,77.7,124.9C77.7,124.9,77.7,124.9,77.7,124.9z M78.6,127.7
	c0,0-0.1,0-0.1,0.1C78.1,127.8,78.4,127.8,78.6,127.7C78.5,127.7,78.5,127.7,78.6,127.7z M78.4,127.7c0-0.2-0.2,0,0.1-0.2
	C78.6,127.5,78.5,127.6,78.4,127.7z M78.5,123C78.5,123,78.5,123,78.5,123C78.5,123,78.5,123,78.5,123z M78.6,122.9
	C78.6,122.9,78.6,122.9,78.6,122.9C78.6,122.9,78.6,122.9,78.6,122.9z M78.7,123C78.7,123,78.7,123,78.7,123
	C78.8,123,78.6,123.2,78.7,123z M79.3,121.8c-0.1,0.1-0.1,0.2-0.2,0.2c0,0.1-0.3,0.4-0.2,0.3c0.1,0.2,0.3-0.2,0.2-0.2
	C79.2,122,79.3,122,79.3,121.8C79.4,121.9,79.4,121.9,79.3,121.8C79.4,121.8,79.4,121.8,79.3,121.8c0.1,0,0.1-0.1,0.1-0.1
	C79.4,121.7,79.3,121.8,79.3,121.8z M79.2,121.7C79.1,121.9,79.3,121.8,79.2,121.7C79.2,121.7,79.2,121.7,79.2,121.7z M79.4,121.9
	C79.4,121.9,79.4,121.9,79.4,121.9C79.4,121.9,79.4,121.9,79.4,121.9z M80.6,130.8C80.7,130.9,80.6,130.9,80.6,130.8
	C80.6,130.8,80.6,130.8,80.6,130.8z M81.4,124.6C81.4,124.6,81.4,124.6,81.4,124.6C81.3,124.6,81.4,124.7,81.4,124.6z"/>
<path d="M88.3,118.6c0.1,0,0.2,0.1,0.2,0.1c-0.1-0.1,0.2,0,0,0.2c0.1-0.1,0.1,0.2,0.2,0.2c0.1,0.1,0.2,0.2,0.2,0.2
	c0.1,0.1,0.1,0,0.2,0c0.1,0,0,0.2,0.2,0.2c0.2-0.1,0,0.2,0.1,0.1c0.1,0.1,0.2,0.2,0.2,0.4c0,0.1,0.2-0.1,0.1,0.3
	c0,0.1,0,0.2-0.1,0.3c0,0.2,0,0.3,0.1,0.5c-0.1,0.5,0-0.3-0.1,0.1c0,0.2-0.1,0.2-0.1,0.4c0,0,0,0,0,0.1c0,0,0,0,0,0c0,0,0,0.1,0,0.2
	c-0.1,0-0.1,0.4-0.1,0.4c0,0.2,0,0.2-0.1,0.4c-0.1,0.2,0,0.4-0.1,0.6c0,0,0,0,0,0c0,0,0,0,0,0c0,0.1,0,0.1,0,0.1
	c0,0.1-0.1,0.2-0.1,0.3c-0.1,0.1-0.1,0.4-0.1,0.4c-0.1,0.1,0,0.1,0,0.2c0,0.2-0.1,0.6-0.1,0.8c-0.1,0.4-0.2,0.9-0.3,1.4
	c-0.1,0.3-0.1,0.7-0.1,1c0,0.3-0.1,0.4-0.1,0.7c0,0.3,0,0.5-0.1,0.8c0,0.1,0,0.2-0.1,0.5c-0.1,0.3,0,0.7-0.1,0.9
	c0,0.1,0.1,0.3-0.1,0.5c0.1,0,0.1,0.2,0,0.2c-0.2,0.2,0-0.2-0.2-0.2c0.1-0.1,0,0-0.1-0.2c-0.1,0.1-0.1,0.2-0.1,0
	c-0.1,0.3-0.1,0-0.2,0c0-0.2-0.1,0.2-0.1,0c-0.1-0.2-0.2,0.1-0.2,0.1c-0.1-0.2-0.2-0.1-0.3-0.1c-0.2,0.2-0.3-0.8-0.4-0.6
	c-0.1-0.2-0.2,0.1-0.2,0.1c-0.1,0.1-0.1,0.3-0.3,0.5c0-0.1,0,0-0.1,0.1c-0.2,0.1-0.1,0-0.1-0.1c-0.1,0.1-0.3,0.3-0.6,0.2
	c-0.1-0.1-0.1-0.1-0.2-0.1c0,0.1-0.1,0.1,0,0c-0.1,0-0.2,0-0.3-0.1c-0.2-0.1-0.3,0-0.4-0.1c-0.1,0.1-0.1-0.1-0.1-0.1
	c-0.2-0.1-0.1-0.1-0.4-0.2c-0.2,0-0.2-0.1-0.5-0.1c-0.3,0.2,0,0-0.3-0.1c-0.1,0,0.1,0.2-0.2,0c-0.8-0.6-1-1.7-0.9-2.6
	c0.1-2.4,0.8-4.8,1.7-7c0.1-0.5,0.6-1.1,0.5-1.4c0.2-0.2,0.1-0.1,0.1-0.2c0.1-0.2,0.3-0.1,0.3,0c0.2-0.1,0-0.2,0.3-0.1
	c0.1,0,0.2,0.2,0.3,0.3c-0.1,0.2,0,0.2,0.1,0.4c0.1-0.3-0.1,0.2,0.1,0c0,0.2-0.1,0.2,0.1,0c-0.1-0.2,0.3,0,0.1,0
	c0.2,0.1-0.2,0.2-0.1,0.2c0-0.1,0.1,0,0.2,0.1c0.1,0.1,0.1,0.2,0.2,0.2c0,0,0,0,0,0c0,0,0,0,0,0c0,0.2,0,0.4-0.1,0.6
	c-0.1,0.1-0.3,0.4-0.1,0.4c-0.1,0.2-0.1,0.2-0.1,0.4c-0.1,0.3-0.1-0.1-0.2,0.2c0.2,0.1-0.1,0.1,0,0.3c0.2,0.1-0.1,0.5-0.1,0.3
	c-0.1,0.1-0.1,0.1,0,0.3c0,0-0.1,0-0.2,0.1c-0.1,0.1,0,0.2,0,0.2c-0.1,0.2,0,0.1,0,0.3c-0.2-0.1-0.1,0-0.2,0.1c0,0,0,0,0,0
	c0,0,0,0,0,0c-0.1,0.2,0,0.2-0.1,0.3c0,0.1-0.2,0.3-0.1,0.5c0.1,0.1,0.1,0.3,0,0.3c-0.1-0.2-0.1,0.2-0.1,0.2
	c-0.2,0.1,0.1,0.2-0.1,0.2c0.1,0.2,0,0-0.1,0.2c0.1-0.2,0.1,0.3,0,0.4c0,0.1-0.1,0.3-0.1,0.4c-0.1,0.2-0.1,0.3-0.1,0.4
	c0,0-0.2,0.2,0,0.2c0,0,0,0.1-0.1,0.1c0,0,0,0,0,0c0,0,0,0.1,0,0.1c0,0.1,0,0.1-0.1,0.1c0,0,0,0,0,0c0.1,0,0,0,0,0
	c0,0,0,0.1,0.1,0.1c-0.1,0.1-0.1,0.3-0.1,0.3c-0.1,0.1,0,0.2,0,0.3c0.1,0.1-0.1,0.5,0.1,0.6c-0.1,0.1,0.1,0.2,0,0.4
	c0,0.1-0.1,0.4,0.1,0.2c0.4-0.3,0.7-0.6,1-1c0.3-0.4,0.8-0.7,0.9-1.2c0.2-1.8,0.6-3.5,1-5.2c0.2-1,0.4-2,0.8-2.9
	c0-0.3,0.1,0.2,0.1,0c0.1-0.1,0-0.1,0.2-0.2C88.3,118.5,88.3,118.6,88.3,118.6z M83.3,130.4C83.3,130.4,83.2,130.4,83.3,130.4
	C83.2,130.4,83.3,130.4,83.3,130.4z M84.1,130.5c0.1,0.1,0.1,0.1,0.2,0.1C84.7,130.9,84.4,130.5,84.1,130.5
	C84.1,130.5,84.1,130.5,84.1,130.5z M84.2,126.8C84.2,126.8,84.2,126.8,84.2,126.8C84.2,126.8,84.2,126.8,84.2,126.8z M84.3,125.6
	C84.5,125.5,84.3,125.7,84.3,125.6C84.3,125.6,84.3,125.6,84.3,125.6z M85.7,130.4c-0.1,0-0.3,0.1-0.4,0.2c-0.2,0-0.2,0-0.3,0
	c-0.1,0-0.1,0-0.2,0c0,0,0,0,0,0c0,0,0,0,0,0c0,0,0,0-0.1,0c0,0-0.1-0.1-0.1,0c0.1,0.2,0.4,0.2,0.6,0.2c-0.2,0.2,0,0,0.1-0.1
	c0,0.2,0.4,0,0.6-0.1c0.2-0.2-0.1,0-0.1-0.2C85.8,130.4,85.8,130.4,85.7,130.4z M84.8,130.6C84.8,130.6,84.8,130.6,84.8,130.6
	C84.8,130.6,84.8,130.6,84.8,130.6z M85.2,122.7L85.2,122.7L85.2,122.7z M85.2,130.5C85.1,130.5,85.4,130.5,85.2,130.5
	C85.3,130.5,85.2,130.5,85.2,130.5z M85.6,120.2c0.2,0.2,0.1-0.1,0.1-0.2C85.4,120.2,85.3,120.2,85.6,120.2z M85.8,120.1
	C85.8,120.1,85.8,120.1,85.8,120.1C85.8,120.1,85.8,120.1,85.8,120.1z M89,123.8C89,123.8,89,123.8,89,123.8
	C88.9,123.8,89.1,123.8,89,123.8z"/>
<path d="M95.7,118.4c0.4,0.1,0.4,0.1,0.5,0.3c0.2,0.1,0.1,0.3,0.3,0.3c0,0.1,0.1,0.3,0.1,0.4c-0.1,0.3,0.2,0.2,0.1,0.4
	c0,0.2,0.2,0.4,0.2,0.5c0,0,0,0.2,0.1,0.2c-0.1,0.2,0.2,0.4,0,0.6c0,0.2-0.1,0.4-0.2,0.7c0,0.2-0.2,0.4-0.3,0.7c0,0,0,0,0,0
	c0,0,0,0,0,0c0,0,0,0,0,0.1c-0.1,0-0.2,0.2-0.1,0.3c0,0-0.2,0-0.2,0.2c0.1,0-0.1,0.3-0.1,0.1c-0.1,0-0.2,0.2-0.1,0.3
	c-0.1,0.4-0.1-0.1-0.3,0.3c-0.2,0.3,0,0.2-0.2,0.5c-0.1,0.2-0.3,0.3-0.2,0.4c-0.1,0.1,0.1,0.1,0,0.1c-0.2,0.1-0.1,0.3-0.5-0.1
	c-0.4-0.4-1.1-1.1-0.8-1.7c0.3-0.6,0.7-1.2,1-1.8c0.2-0.1,0.1-0.5,0.2-0.3c0.1-0.1,0.1-0.3-0.1-0.2c0.1-0.1,0-0.1-0.1,0
	c-0.1,0,0.2,0.4-0.1,0.2c-0.2-0.1,0,0.1,0,0.1c-0.3,0.1-0.7,0.1-0.8,0.2c0-0.2-0.2,0.1-0.2,0.1c-0.3,0.2-0.7,0.4-0.9,0.6
	c-0.1,0.2-0.5,0.1-0.5,0.3c0.1,0.1-0.1,0.1-0.2,0.2c-0.1-0.2-0.4,0.3-0.5,0.4c-0.2,0-0.3,0.5-0.3,0.3c-0.2,0.2-0.1,0.1-0.1,0.3
	c-0.1,0-0.2,0.1-0.2,0.2c-0.1,0.1,0,0.2-0.1,0.2c-0.1,0.2-0.2,0.2-0.2,0.4c0.3,0.3,0.8,0.5,1.1,0.7c0.8,0.4,1.8,0.7,2.4,1.4
	c0.2,0.2,0.1,0.2,0.2,0.3c0,0.1,0,0.1,0.1,0.2c0,0,0,0,0,0c0,0,0,0,0,0c0,0,0.1,0.1,0.1,0.2c0.4,0.5,0.6,1,0.6,1.6
	c0,0.2-0.1,0.3-0.1,0.4c0,0.2-0.4,0.3-0.2,0.4c-0.2,0.2-0.5,0.4-0.7,0.6c-0.2,0.1-0.3,0.2-0.5,0.2c-0.1,0.1-0.2,0.1-0.4,0.1
	c-0.1,0.1-0.2,0.1-0.2,0.1c-0.1,0-0.2,0.1-0.2,0.1c-0.2,0.1-0.2,0.1-0.3,0.1c-0.2,0.1-0.3,0.1-0.4,0.1c-0.1,0.1-0.1,0-0.3,0.1
	c-0.1,0-0.1,0-0.2,0c-0.3,0-0.1,0-0.2,0.1c-0.1,0-0.1,0-0.2,0c0,0,0,0,0,0c0,0,0,0,0,0c-0.1,0-0.1,0-0.2,0c-0.1-0.1,0,0.1-0.1,0
	c-0.2,0.1-0.5,0.2-0.4-0.1c-0.2-0.2,0.2,0.1,0.1,0c0.1-0.1,0.2,0,0.2,0c0,0,0,0,0-0.1c0.2-0.1,0.4,0,0.6-0.1c0.2-0.2,0.1,0,0.4-0.1
	c0-0.1,0.1-0.2,0.2-0.1c0.1-0.1,0.1,0,0.2,0c0.2,0,0.2-0.1,0.2-0.2c0.1,0,0.2,0.1,0.3,0.1c0.1,0-0.1-0.1,0-0.1
	c0.2-0.1,0.3,0.1,0.4,0c0-0.1-0.3,0-0.1-0.1c0.4-0.1,0.1-0.1-0.1,0c-0.2,0.1-0.4,0.1-0.6,0.1c-0.1,0.1-0.2,0-0.3,0.1
	c-0.2,0-0.4,0-0.5,0.1c-0.2,0.1-0.1-0.1-0.3,0c-0.2,0-0.2,0.2-0.2,0c-0.2,0,0,0.2-0.2,0c-0.1,0.1,0.1-0.1-0.1-0.1
	c-0.2,0-0.7,0-0.6-0.1c0,0,0,0,0,0c0,0-0.1,0,0,0c-0.1,0-0.3,0-0.4-0.2c-0.1-0.2,0.1-0.2-0.2-0.3c-0.1,0.1-0.2,0-0.3,0
	c-0.2,0-0.2-0.2-0.3-0.2c-0.3-0.1,0.5-0.2,0.2-0.2c-0.2-0.1,0.1,0,0.1-0.2c1.1-0.2,2.3-0.4,3.3-0.9c0.2-0.2,1.1-0.5,0.6-0.7
	c-0.2-0.1-0.4-0.2-0.6-0.2c-0.2-0.1-0.5-0.2-0.8-0.3c-0.2-0.1-0.3-0.1-0.5-0.3c-0.3-0.2-0.7-0.4-0.9-0.7c-0.1-0.2-0.2-0.4-0.3-0.7
	c-0.1-0.1-0.1-0.1-0.1-0.2c-0.1-0.2-0.1-0.4-0.2-0.6c-0.1,0.2-0.1,0,0-0.1c-0.2,0.1-0.2,0-0.2-0.2c0,0.1,0-0.2-0.1-0.1
	c-0.1,0-0.2-0.5-0.1-0.7c0-0.8,0.4-1.5,0.9-2.1c1.1-1.3,2.5-2.3,4.1-2.7c0.3-0.1,0.6-0.2,0.8-0.2C95.4,118.4,95.6,118.4,95.7,118.4z
	 M89.9,124.9c-0.1,0,0.3,0.3,0.2,0.2C90,125.1,89.9,125.1,89.9,124.9C89.9,124.9,90,125,89.9,124.9z M90,124.9
	C90.2,125.2,90,125.1,90,124.9C90,124.8,90,124.9,90,124.9z M90.2,125C90.2,125.4,90.3,125.2,90.2,125C90.2,124.9,90.2,125,90.2,125
	z M90.6,125.5C90.7,125.8,90.8,125.8,90.6,125.5C90.6,125.5,90.6,125.5,90.6,125.5z M90.8,125.9C90.8,125.9,90.8,125.9,90.8,125.9
	c-0.1,0,0.1,0,0,0.1C90.9,126.1,91,125.9,90.8,125.9C90.8,125.9,90.8,125.9,90.8,125.9C90.8,125.9,90.8,125.9,90.8,125.9z
	 M90.8,125.9C90.8,125.9,90.8,125.9,90.8,125.9C90.8,125.9,90.8,125.9,90.8,125.9z M90.9,130.4C90.9,130.5,90.8,130.5,90.9,130.4
	C90.9,130.4,90.9,130.4,90.9,130.4z M91,126.1C90.9,126.2,91.1,126.3,91,126.1C91.1,126.1,91,126.1,91,126.1z M91.2,126.2
	C91.3,126.3,91.3,126.4,91.2,126.2c0.2,0.2,0.3,0.3,0.3,0.2C91.4,126.3,91.3,126.2,91.2,126.2C91.2,126.2,91.2,126.2,91.2,126.2z
	 M91.7,126.6C91.5,126.5,91.7,126.6,91.7,126.6c0,0.1,0.3,0.2,0.3,0.2c0,0,0,0,0,0c0,0,0,0,0.1,0c0,0,0,0,0,0
	c0.1,0.1,0.2,0.2,0.3,0.1c0.1-0.2-0.1-0.1-0.2-0.2c0,0.1-0.3,0.1-0.3-0.1C91.8,126.6,91.6,126.5,91.7,126.6z M91.6,130.8
	C91.6,130.8,91.7,130.8,91.6,130.8C91.7,130.8,91.6,130.8,91.6,130.8z M91.7,130.7C91.7,130.7,91.7,130.7,91.7,130.7
	C91.6,130.7,91.7,130.7,91.7,130.7C91.7,130.7,91.8,130.7,91.7,130.7C91.7,130.7,91.7,130.7,91.7,130.7z M91.7,126.6
	C91.8,126.6,91.6,126.6,91.7,126.6C91.7,126.6,91.7,126.6,91.7,126.6z M91.7,130.7C91.7,130.7,91.7,130.7,91.7,130.7
	C91.7,130.7,91.7,130.7,91.7,130.7z M92.1,126.8C92.1,126.8,92.1,126.8,92.1,126.8C92.1,126.8,92.1,126.8,92.1,126.8z M92.2,126.8
	C92.3,126.8,92.3,126.8,92.2,126.8C92.4,126.8,92.2,126.9,92.2,126.8z M92.7,127c0,0.1,0.2,0.2,0.3,0.2c0.1,0,0.2,0.1,0.3,0.1
	c0.1,0.1,0.1,0,0,0c-0.2-0.1-0.1-0.1,0.2,0c0.1,0.1,0.3,0.1,0.2,0c0-0.1-0.2-0.1-0.2-0.1c-0.1-0.1-0.3-0.1-0.4-0.2
	C92.9,126.9,92.7,127.1,92.7,127C92.8,126.9,92.7,126.9,92.7,127z M92.9,127.3C93.1,127.3,92.9,127.3,92.9,127.3
	C92.8,127.2,92.9,127.3,92.9,127.3z M96.5,122.9C96.5,122.9,96.4,122.9,96.5,122.9C96.5,122.8,96.5,122.8,96.5,122.9z M96.6,122.4
	L96.6,122.4C96.6,122.4,96.6,122.4,96.6,122.4z"/>
<path d="M288.7,177.8c0.4,0.1,0.6,0.3,0.8,0.5c0.2,0.2,0.3,0.4,0.4,0.5c0.1,0.1,0,0.1,0.1,0.2c0,0.1,0.3,0.3,0.2,0.4
	c0,0.2,0.2,0.6,0.1,0.4c0,0,0,0.1,0,0.1c-0.1,0,0,0,0,0c0,0.1,0.1,0.2,0.1,0.3c0.1,0.3,0.2,0.5,0.1,0.8c0,0.3,0.2,0.6,0.1,0.8
	c0,0.2-0.1,0.6-0.1,0.8c-0.1,0.4-0.1,0.4-0.2,0.8c-0.1,0.2-0.1,0.4-0.2,0.6c0,0,0-0.2-0.1,0.1c0.1,0.1,0,0.3,0,0.4
	c-0.1,0.1-0.3,0.4-0.1,0.1c0,0.2-0.3,0.5-0.2,0.3c0-0.1-0.2,0.3-0.1,0.3c-0.2,0.1-0.1,0.4-0.2,0.2c-0.1,0.1,0,0.3-0.1,0.2
	c0,0.1-0.1,0-0.1,0.1c0,0-0.1,0.1,0,0.1c0,0,0,0,0,0c0,0,0,0,0,0c0,0,0,0,0,0c-0.1,0.1-0.1,0.1-0.2,0.2c0,0.1,0.1-0.2,0.1,0
	c-0.2,0.3-0.3,0.6-0.5,0.8c-0.1,0.2-0.2,0.3-0.3,0.5c0.1,0.1,0,0-0.1,0.3c-0.1,0-0.2,0.2-0.3,0.4c0,0,0,0,0,0c0,0,0,0,0,0
	c0,0,0,0.1,0,0.1c0,0,0,0.1-0.1,0.2c-0.2,0.2-0.4,0.4-0.6,0.6c-0.1,0.1-0.1,0.1-0.1,0.2c-0.1,0.1-0.1,0.1-0.2,0.2
	c-0.1,0.1-0.4,0.3-0.5,0.4c-0.1,0.1-0.4,0.2-0.6,0.3c0,0-0.3,0.2-0.3,0c-0.2,0,0.4-0.1,0.5-0.2c0.1-0.1,0.3-0.3,0.1-0.3
	c-0.3-0.1-0.1,0.1-0.2,0.2c-0.1,0-0.1-0.2-0.2-0.1c-0.1,0-0.4,0.1-0.3,0.1c-0.2,0-0.3,0.1-0.4-0.1c-0.1,0.1-0.4,0-0.5-0.2
	c-0.2-0.1-0.5-0.1-0.6-0.4c0-0.2-0.2-0.1-0.4-0.2c-0.2-0.1-0.2-0.3-0.4-0.3c0.1-0.2,0.1-0.8,0.1-1.2c0.2-1.8,0.6-3.6,1-5.3
	c-0.1,0,0.2-0.4,0.1-0.4c0,0-0.3,0.1-0.3,0c-0.2-0.1,0.1-0.2,0-0.2c-0.3,0,0-0.4-0.2-0.4c-0.2,0-0.1-0.2-0.2-0.2
	c0-0.2,0-0.2-0.1-0.3c0-0.1,0.2-0.2,0-0.2c0-0.2-0.3-0.1-0.4-0.3c-0.2-0.2,0-0.4,0.1-0.4c0.2-0.3,0.5-0.6,0.8-0.8
	c0.9-0.6,2-1,3.1-1.1C287.7,177.6,288.2,177.7,288.7,177.8z M283.8,181.1C283.9,181.3,284.1,181.2,283.8,181.1
	C283.9,181.1,283.9,181.1,283.8,181.1z M285.2,190c-0.1,0.1-0.1,0.2-0.1,0.1c-0.1,0-0.2,0.1-0.2-0.2
	C285,189.9,285.1,189.8,285.2,190z M286.8,180.1c-0.2,0,0,0.1,0,0.1c0,0,0,0,0,0c-0.1,0.1,0,0,0,0c0,0,0,0-0.1,0.1
	c-0.1,0.1,0.1,0.2,0,0.3c0-0.2-0.1,0.3-0.1,0.4c-0.1,0.1,0,0.3,0,0.4c0.1,0.1-0.1,0.3-0.1,0.5c-0.1,0.1-0.2,0.6,0,0.5
	c-0.1,0.2-0.1,0.4-0.2,0.7s-0.2,0.7-0.1,0.9c0,0.2,0,0.4-0.2,0.5c0,0.1-0.1,0.2,0,0.3c0.2-0.1-0.1,0.1,0,0.1c0,0,0,0,0,0.1
	c0,0,0,0,0,0c-0.1,0,0,0,0,0c0,0.1-0.1,0.1-0.1,0.3c0,0.2,0,0.4-0.1,0.5c-0.1,0.2,0,0.4-0.1,0.5c0,0.1,0.1,0.4-0.1,0.2
	c0,0.2-0.1,0.7-0.1,0.7c0,0.1,0.1,0,0.3-0.2c1.3-1.5,2.4-3.1,3.2-4.9c0.1-0.3,0.5-1.1,0.2-1.2c0.1,0,0.1-0.1,0-0.1
	c-0.3,0,0.1-0.1-0.1-0.2c-0.2-0.1-0.3-0.1-0.5-0.1c-0.2-0.1-0.2,0-0.4-0.1c-0.2,0-0.5,0.1-0.6,0c-0.2,0.1-0.3,0-0.5,0
	c-0.2,0.1-0.2,0.1-0.4,0.1C286.5,180.4,287,180.1,286.8,180.1C286.8,180.1,286.8,180.1,286.8,180.1z M285.7,186.6
	C285.7,186.7,285.6,186.6,285.7,186.6C285.7,186.6,285.7,186.6,285.7,186.6z M286,189.5C286.1,189.6,285.8,189.6,286,189.5
	C286,189.5,286,189.5,286,189.5C286,189.5,286,189.5,286,189.5C286,189.5,286,189.5,286,189.5z M286,184.7
	C286,184.7,286,184.7,286,184.7C286,184.7,286,184.7,286,184.7z M286.3,189.4c-0.1,0.2,0.2-0.1,0.2-0.1
	C286.4,189.3,286.4,189.4,286.3,189.4z M286.8,180.2C286.8,180.2,286.8,180.2,286.8,180.2C286.8,180.2,286.8,180.2,286.8,180.2z
	 M286.9,180C286.9,180.1,287.1,180,286.9,180C286.9,180,286.9,180,286.9,180z M287.1,179.8C286.9,179.9,286.9,180,287.1,179.8
	C287.1,180,287.4,179.9,287.1,179.8C287.2,179.8,287.1,179.9,287.1,179.8z M287.6,179.9c-0.1,0.1-0.4-0.1-0.5,0.1
	C287.1,180.2,287.4,180,287.6,179.9c0.1,0,0.2,0.1,0.4,0.1c0.2-0.2-0.1-0.1-0.1-0.1C287.8,179.9,287.7,179.9,287.6,179.9z
	 M287.6,179.7C287.6,179.8,287.6,179.8,287.6,179.7C287.5,179.8,287.5,179.8,287.6,179.7c-0.2,0.1-0.4,0-0.2,0.2
	c0.1-0.2,0.2,0,0.3,0c0.2,0,0.1-0.1,0.2,0c0,0,0,0,0,0c0,0,0,0,0,0C287.8,179.8,287.8,179.7,287.6,179.7
	C287.6,179.8,287.6,179.8,287.6,179.7z M288.1,179.9C288.1,180.1,288.2,179.9,288.1,179.9c0,0,0.1-0.1-0.2-0.1
	C287.9,179.8,288,179.9,288.1,179.9z M287.9,188.1C287.9,188.1,287.9,188.1,287.9,188.1C288,188.1,287.9,188.1,287.9,188.1z
	 M288,180.1C287.9,180.2,288.2,180.1,288,180.1C288,180.1,288,180.1,288,180.1z M288.4,180c0.2,0.1,0.4,0.1,0.7,0.2
	c0.2,0,0.1-0.1,0.2,0.1c0.1,0,0.3,0.1,0.2,0c0-0.2-0.1-0.2-0.2-0.3c-0.2-0.1-0.2,0-0.4-0.1c0,0.1-0.2,0.1-0.4,0
	C288.2,180,288.4,180.1,288.4,180z M289,180.3C289.3,180.4,288.8,180.4,289,180.3C288.9,180.3,288.9,180.3,289,180.3z M289.4,185.9
	C289.4,185.9,289.4,185.9,289.4,185.9C289.4,185.9,289.4,185.9,289.4,185.9z M289.5,185.8C289.5,185.7,289.5,185.7,289.5,185.8
	C289.5,185.7,289.5,185.7,289.5,185.8z M290.4,179.9C290.4,179.9,290.4,179.9,290.4,179.9C290.4,179.8,290.4,179.9,290.4,179.9z"/>
<path d="M293.5,177.4c0.2,0,0.2,0.1,0.3,0.1c0,0.1,0.1,0.2,0.3,0.2c1.1-0.3,2.2-0.5,3.2-0.6c0.4,0,0.9-0.1,1.1,0
	c0.2-0.2,0.3,0.1,0.4,0.1c0.1-0.1,0.2,0.1,0.2,0.1c0,0.1,0.2,0.1,0,0.1c0.1,0,0.1,0.2-0.1,0.3c0,0-0.1,0.2-0.1,0.2
	c0,0.2,0,0.2-0.1,0.2c0,0.2,0.2,0.2,0.1,0.3c-0.1,0.1-0.1,0.1-0.1,0.3c-0.3-0.1-0.2,0.2-0.1,0.2c0,0.1-0.3-0.1-0.2,0
	c-0.1,0-0.2,0.1-0.4,0c-0.2,0.1-0.3,0-0.4,0.1c-0.1,0.1-0.2,0,0-0.1c-0.1,0.1-0.2,0-0.3,0.1c-0.1,0,0,0-0.2,0.1c0-0.2-0.3,0.1-0.3,0
	c-0.1,0-0.2,0.1-0.4,0.1c0,0.1-0.3-0.1-0.5,0.1c0,0,0,0,0,0c0,0,0,0,0,0c0.2,0,0.4,0.1,0.1,0.2c0-0.2-0.3,0.2-0.4,0.1
	c0,0-0.5,0.2-0.3,0c-0.2-0.1-0.1,0.1-0.2,0.1c-0.2,0.1-0.3-0.1-0.3-0.1c0.1,0.2-0.3,0.3-0.2,0.1c-0.2-0.1-0.1-0.1,0-0.1
	c-0.3-0.2,0,0.3-0.1,0.1c-0.2,0,0,0.2-0.1,0.2c-0.1-0.1-0.1,0.1-0.1,0.3c-0.1,0.2,0-0.2-0.1,0.1c0,0.1,0,0-0.1,0.2
	c0.1,0.1-0.1,0.1,0,0.2c0,0.3-0.3,0.2-0.2,0.3c-0.1,0.1,0,0.1,0,0.3c0,0.2-0.3,0.3-0.1,0.4c0,0,0,0.1-0.1,0.1c0,0,0,0,0,0
	c0,0,0,0,0,0c0,0.1,0,0.1-0.1,0.1c0,0,0.2,0.2,0,0.2c0,0,0,0.2,0,0.4c0,0,0,0,0,0c0,0,0,0,0,0c0,0,0,0,0,0.1c1-0.3,2-0.5,3-0.7
	c0.4,0,0.9-0.1,1.2,0c0,0,0.1,0,0.1,0.2c0.2,0.2-0.1,0.1,0.1,0.1c-0.2,0.1,0,0.1,0,0.3c-0.1-0.1-0.1,0,0,0.1c0.2,0,0,0.1,0,0.2
	c-0.1-0.1-0.1-0.3-0.1,0c0.1,0.1,0.3,0.3,0.1,0.2c0,0-0.1,0.1-0.2,0.1c0,0,0,0,0,0c0,0,0,0,0.1,0c0.1,0.1,0.2,0.1,0,0.2
	c-0.3,0.2,0,0,0,0.1c0.1-0.1,0,0.2-0.1,0.2c-0.2,0-0.1,0.2-0.1,0.1c0.1,0-0.1,0.2-0.1,0.1c0,0.2-0.5,0.1-0.4,0.2
	c-0.2-0.1-0.2,0.2-0.3,0.1c-0.2,0.2-0.2-0.1-0.2,0.1c-0.2,0-0.4-0.1-0.6,0c-0.1,0.1-0.3,0-0.4,0.1c-0.1,0-0.1,0-0.2,0
	c-0.2-0.1,0,0.2-0.2,0.1c0.2-0.1-0.5,0-0.2,0.1c-0.2,0.1-0.2-0.2-0.4,0c-0.2,0.1-0.1,0.1-0.2,0.1c-0.1,0-0.2,0-0.2,0.1
	c0.1,0.1-0.1,0.1,0,0c-0.1,0.1-0.2,0.1-0.3,0.1c-0.1,0.1-0.2,0.1-0.2,0.1c-0.1-0.1-0.1,0.1-0.2,0c0,0.2-0.5,0.2-0.4,0.2
	c-0.2-0.1-0.1,0.5-0.2,0.8c-0.1,0,0.1,0.1,0,0.4c-0.1,0.1,0,0.3,0,0.4c-0.1,0,0.2,0.3,0,0.4c0,0.4,0.1-0.1,0,0.2c0,0,0,0.1,0,0.1
	c0,0,0,0,0,0c0.1,0,0,0.1,0,0.1c0,0.1,0,0.1,0.1,0.2c0.1,0.3-0.1,0,0,0.2c0.1,0.1,0,0.1,0.1,0.2c0.8-0.2,1.6-0.8,2.3-1.3
	c0.1,0,0.1,0,0.3,0.1c0.1-0.1,0.1,0,0.2,0.1c0.3-0.1-0.1,0.2,0.1,0.1c0.1,0.1,0.3-0.2,0.4,0c-0.1,0.1,0.1,0.1,0.1,0
	c0.1,0,0.1,0.2,0.1,0.1c0,0,0,0,0,0c0,0,0,0,0-0.1c0,0.2,0.5-0.1,0.4,0.1c0.3,0,0.1,0.3,0.2,0.3c0.1,0,0,0.2,0.2,0.1
	c0,0.2-0.1-0.1-0.2,0.1c0,0.2-0.2,0.1-0.1,0c-0.1,0-0.2,0.3-0.1,0.2c0,0.1-0.1,0.2-0.3,0.3c-0.2,0.2-0.4,0.2-0.5,0.4
	c-0.1,0.1-0.4,0.2-0.2,0.2c0.1,0,0.3-0.2,0.4-0.2c0,0.2,0.1,0.1,0.2,0.1c0.1-0.1,0.3-0.2,0.3-0.3c0.2-0.1,0.1,0,0,0.1
	c-0.3,0.1-0.5,0.4-0.7,0.5c-0.1,0.2-0.3,0.1-0.3,0.2c-0.1,0-0.2,0.2-0.4,0.2c-0.1,0-0.1,0.1-0.3,0.2c-0.3,0.1-0.7,0.3-1,0.3
	c-0.3,0-0.6-0.1-0.9-0.2c-0.2,0-0.3-0.1-0.5-0.2c0.2,0-0.1-0.2-0.2-0.2c-0.2-0.1-0.1,0.1-0.2,0c-0.3-0.2,0,0.1-0.2,0
	c-0.1-0.1-0.1-0.1-0.2-0.1c0,0,0,0,0,0c0,0,0,0,0,0c0,0-0.1,0-0.1,0c-0.8-0.4-1-1.3-1.1-2.1c-0.1-1.8,0.3-3.6,0.8-5.3
	c0.1-0.3,0.4-0.8,0.3-0.9c0-0.2-0.1-0.1-0.2-0.4c-0.2,0.1-0.1-0.2-0.1-0.3c0.1-0.1-0.2,0-0.3-0.2c0.4,0-0.1-0.1,0.1-0.2
	c0.2,0,0.1-0.1,0.2-0.1c-0.1-0.2,0-0.2,0-0.3c0.2,0,0.2-0.1,0.2-0.2c0-0.2-0.1,0-0.2-0.1c0.1,0,0-0.1-0.1-0.1
	c0.1,0.2-0.2-0.3-0.1-0.2c0-0.1,0.4-0.1,0.1-0.1c0.7-0.2,1.6-0.1,1.6-0.7c0-0.2,0.2-0.2,0.1-0.2
	C293.3,177.6,293.3,177.4,293.5,177.4C293.5,177.4,293.5,177.4,293.5,177.4z M291.9,189C291.9,189,291.9,189,291.9,189
	C291.9,189,291.9,189,291.9,189z M292.7,189.3C292.7,189.3,292.7,189.4,292.7,189.3C292.7,189.4,292.7,189.4,292.7,189.3z
	 M293.5,181.9C293.4,182,293.6,181.9,293.5,181.9C293.6,181.9,293.6,181.9,293.5,181.9z M293.7,189.4c0.3,0.1,0.3,0.1,0.5,0
	c0-0.1-0.4,0.1-0.1,0C294.2,189.3,293.9,189.4,293.7,189.4C293.8,189.4,293.7,189.4,293.7,189.4z M293.8,189.5
	C293.8,189.5,293.9,189.5,293.8,189.5C293.8,189.5,293.8,189.5,293.8,189.5z M293.9,177.5C294.1,177.7,293.8,177.5,293.9,177.5
	C293.9,177.5,293.9,177.5,293.9,177.5z M294.3,189.4c-0.2,0.3,0,0.1,0.2,0.1c0,0,0.3,0,0.1-0.1C294.6,189.4,294.3,189.4,294.3,189.4
	z M294.6,179.7C294.7,179.8,294.8,179.7,294.6,179.7C294.6,179.7,294.6,179.7,294.6,179.7z M295.4,188.9c0,0.1-0.3,0.1-0.4,0.2
	c-0.2,0.2,0,0.1,0,0.1c0.2,0,0.3-0.1,0.5-0.1c0-0.1,0.4-0.4,0.2-0.2c0.1,0.1,0.2-0.2,0.1-0.2C295.8,188.9,295.6,188.9,295.4,188.9z
	 M295.3,189.4C295.3,189.4,295.3,189.4,295.3,189.4C295.1,189.4,295.2,189.4,295.3,189.4C295.2,189.5,295.3,189.5,295.3,189.4
	C295.3,189.3,295.3,189.4,295.3,189.4z M296.5,187.1C296.5,187.1,296.5,187.1,296.5,187.1C296.5,187.1,296.5,187.1,296.5,187.1z
	 M296.8,179.4C296.9,179.5,296.7,179.4,296.8,179.4C296.8,179.4,296.8,179.4,296.8,179.4z M297,188.1
	C296.7,188.3,296.8,188.2,297,188.1C297.1,188.1,296.9,188.1,297,188.1z M297.1,188.2C297.1,188.2,297.1,188.2,297.1,188.2
	C297.1,188.2,297.1,188.2,297.1,188.2z M297.8,182.9C297.8,182.9,297.8,182.9,297.8,182.9C297.8,182.9,297.8,182.9,297.8,182.9z
	 M297.9,183.2C297.9,183.2,297.9,183.2,297.9,183.2C297.9,183.2,297.9,183.3,297.9,183.2z M298.1,179C298.1,179,298.2,179,298.1,179
	C298.1,179,298.1,179,298.1,179z M298.5,177.9c0.1,0.1,0,0.3,0.2,0.2C298.7,177.9,298.8,177.9,298.5,177.9
	C298.6,177.9,298.5,177.9,298.5,177.9z"/>
<path d="M304.8,176.4c0,0,0.2,0.1,0.2,0c-0.1-0.1,0.2,0,0,0.1c0.1-0.1,0.1,0.2,0.2,0.2c0.1,0.1,0.3,0.2,0.2,0.2c0.1,0.1,0.1,0,0.2,0
	c0.1-0.1,0,0.2,0.1,0.2c0.1-0.1,0,0.1,0.1,0.1c0.1,0.1,0.2,0.2,0.2,0.4c0,0.1,0.2-0.1,0.1,0.3c0,0.1,0,0.2-0.1,0.3
	c0,0.2,0,0.3,0,0.5c-0.1,0.5,0-0.4-0.1,0.1c0,0.2-0.1,0.2,0,0.4c0,0,0,0,0,0.1c0,0,0,0,0,0c0,0,0,0.1,0,0.1
	c-0.1,0.1-0.1,0.4-0.1,0.5c0,0.2,0,0.2-0.1,0.4c-0.1,0.2,0,0.4-0.1,0.6c0,0,0,0,0,0c0,0,0,0,0,0c0,0.1,0,0.1,0,0.1
	c0,0.1,0,0.2-0.1,0.4c-0.1,0.1,0,0.4-0.1,0.4c-0.1,0.1,0,0.1,0,0.2c0,0.2-0.1,0.6-0.1,0.8c-0.1,0.4-0.1,0.9-0.3,1.4
	c-0.1,0.3,0,0.7-0.1,1c0,0.3-0.1,0.4-0.1,0.7c0,0.3,0,0.5-0.1,0.8c0,0.1,0,0.2,0,0.5c0,0.3,0,0.7,0,0.9c0,0.1,0.1,0.3-0.1,0.5
	c0.1,0,0,0.2,0,0.2c-0.1,0.3,0-0.2-0.2-0.2c0.1-0.2,0,0-0.1-0.2c-0.1,0.1-0.1,0.2-0.1,0c-0.1,0.3-0.1,0-0.2,0c0-0.2-0.1,0.2-0.1,0
	c-0.1-0.2-0.1,0.1-0.2,0.1c-0.1-0.2-0.1-0.1-0.3-0.1c-0.2,0.2-0.3-0.8-0.5-0.5c-0.1-0.2-0.1,0.1-0.2,0.1c-0.1,0.1-0.1,0.3-0.3,0.5
	c0-0.1,0,0-0.1,0.1c-0.2,0.1-0.1,0-0.1-0.1c-0.1,0.1-0.3,0.3-0.6,0.3c0-0.1-0.1-0.1-0.2-0.1c0,0.1-0.1,0.1,0,0c-0.1,0-0.2,0-0.2-0.1
	c-0.2-0.1-0.3,0-0.4-0.1c-0.1,0.1-0.1-0.1-0.1-0.1c-0.2,0-0.1-0.1-0.4-0.2c-0.3,0-0.2-0.1-0.5-0.1c-0.3,0.2,0,0-0.3-0.1
	c-0.1,0,0.1,0.2-0.2,0c-0.8-0.6-1-1.6-0.9-2.6c0.1-2.4,0.8-4.8,1.7-7.1c0.1-0.5,0.6-1.1,0.5-1.4c0.2-0.2,0.1-0.1,0.1-0.2
	c0.1-0.2,0.3-0.1,0.3,0c0.1-0.1,0-0.2,0.3-0.1c0.1,0,0.2,0.2,0.3,0.2c-0.1,0.2,0,0.2,0,0.4c0.1-0.3,0,0.2,0.1,0c0,0.2-0.1,0.2,0.1,0
	c-0.1-0.2,0.3-0.1,0.1,0c0.1,0.1-0.2,0.2,0,0.2c0-0.1,0.1,0,0.2,0c0.1,0.1,0.1,0.2,0.2,0.1c0,0,0,0,0,0c0,0,0,0,0,0
	c0,0.2,0,0.4-0.1,0.6c-0.1,0.1-0.3,0.4-0.1,0.5c-0.1,0.2-0.1,0.2-0.1,0.5c-0.1,0.4-0.1-0.1-0.2,0.2c0.2,0.1,0,0.1,0,0.3
	c0.2,0.1-0.1,0.5,0,0.3c-0.1,0.1-0.1,0.1,0,0.3c0,0-0.1,0-0.2,0.1c-0.1,0.1,0,0.2,0,0.2c-0.1,0.2,0,0.1,0,0.3
	c-0.1-0.1-0.1,0-0.1,0.1c0,0,0,0,0,0c0,0,0,0,0,0c-0.1,0.2,0,0.2-0.1,0.3c0,0.1-0.1,0.3-0.1,0.5c0.1,0.1,0.1,0.3,0,0.3
	c-0.1-0.2-0.1,0.2-0.1,0.2c-0.2,0.1,0,0.2-0.1,0.2c0.1,0.2,0,0-0.1,0.2c0.1-0.2,0.1,0.3,0,0.4c0,0.1,0,0.3-0.1,0.5
	c-0.1,0.2-0.1,0.3-0.1,0.4c0,0-0.2,0.3,0,0.2c0,0,0,0.1,0,0.1c0,0,0,0,0,0c0,0,0,0.1,0,0.1c0,0.1,0,0.1,0,0.1c0,0,0,0,0,0
	c0,0,0,0,0,0c0,0,0,0.1,0.1,0.1c0,0.1-0.1,0.3-0.1,0.4c0,0.1,0,0.2,0,0.3c0.1,0.1-0.1,0.5,0.1,0.6c-0.1,0.1,0.1,0.2,0,0.4
	c0,0.1-0.1,0.4,0.1,0.2c0.4-0.3,0.7-0.6,1-1c0.3-0.4,0.8-0.8,0.9-1.3c0.2-1.8,0.6-3.5,1-5.3c0.2-1,0.5-2,0.8-2.9
	c0-0.3,0.1,0.2,0.1,0c0.1-0.1,0-0.1,0.2-0.2C304.8,176.4,304.8,176.4,304.8,176.4z M299.8,188.5
	C299.8,188.6,299.6,188.5,299.8,188.5C299.7,188.5,299.7,188.5,299.8,188.5z M300.6,188.6c0.1,0.1,0.1,0.1,0.2,0.1
	C301.2,189,300.9,188.6,300.6,188.6C300.6,188.6,300.6,188.6,300.6,188.6z M300.6,184.9C300.6,184.9,300.6,184.9,300.6,184.9
	C300.7,184.9,300.7,184.9,300.6,184.9z M300.8,183.7c0.1-0.2,0,0,0-0.1C300.8,183.7,300.8,183.7,300.8,183.7z M302.2,188.5
	c-0.1,0-0.3,0.1-0.4,0.2c-0.2,0-0.2,0-0.3,0c-0.1,0-0.1,0-0.1,0c0,0,0,0,0,0c0,0,0,0,0,0c0,0,0,0-0.1,0c0,0-0.1-0.1-0.1,0
	c0.1,0.2,0.4,0.1,0.6,0.1c-0.1,0.2,0,0,0.1-0.1c0,0.2,0.4,0,0.6-0.1c0.3-0.2-0.1,0,0-0.2C302.3,188.4,302.3,188.5,302.2,188.5z
	 M301.3,188.7C301.3,188.7,301.3,188.7,301.3,188.7C301.3,188.7,301.3,188.7,301.3,188.7z M301.7,180.8L301.7,180.8L301.7,180.8z
	 M301.7,188.5C301.6,188.6,301.8,188.5,301.7,188.5C301.7,188.5,301.7,188.5,301.7,188.5z M302.1,178.3c0.1,0.2,0.1-0.1,0.1-0.2
	C301.9,178.3,301.8,178.3,302.1,178.3z M302.3,178.1C302.3,178.1,302.3,178.1,302.3,178.1S302.3,178.1,302.3,178.1z M305.5,181.6
	C305.5,181.6,305.5,181.6,305.5,181.6C305.4,181.6,305.5,181.6,305.5,181.6z"/>
<path d="M314.2,175.3c0.3,0,0.1,0.2,0.4,0.1c0,0.2,0,0.1,0.1,0.2c-0.3,0-0.1,0.2-0.2,0.3c0,0.1-0.2,0.1-0.2,0.4c0,0,0,0,0,0
	c0,0,0,0,0,0c0,0,0,0,0,0.1c0,0.1,0.1,0.2-0.1,0.2c0,0.1,0.1,0.1,0,0.3c-0.1,0-0.1,0-0.1,0.1c-0.1,0.1,0.1,0.4,0,0.3
	c-0.2-0.1-0.2,0.2-0.3,0.1c0.1-0.2-0.3,0.1-0.2-0.1c-0.2,0.1,0.1,0.4-0.2,0.2c0.1,0,0,0,0.1-0.1c-0.1-0.1-0.2,0-0.1,0.1
	c-0.1,0-0.3,0.2-0.1,0c-0.2,0-0.4,0.2-0.5,0.1c-0.1,0-0.2,0.1-0.4,0.1c-0.1,0-0.3,0.1-0.3,0c-0.3-0.1-0.2,0.3-0.2,0.1
	c-0.2,0.2,0,0.1,0,0.2c0,0,0,0,0,0c0,0,0,0,0,0c-0.1,0.1,0.4,0,0.1,0.1c-0.2,0.1,0.1,0.1-0.1,0.2c0,0.1-0.1,0.4-0.1,0.4
	c0.2,0-0.1,0.3,0.1,0.2c0.2,0-0.3,0.1-0.2,0.2c0.1,0.1,0,0.3,0,0.5c0-0.1-0.2-0.1-0.2,0.3c-0.1,0.1,0.1,0.4-0.1,0.3
	c0,0.1,0.2,0.2,0,0.1c0,0.2-0.1,0.1,0,0.2c0.2-0.1,0,0.3-0.1,0.1c-0.1,0.2-0.1,0.4-0.1,0.5c-0.1,0.3,0.1,0.2-0.1,0.3
	c0,0.1-0.1,0.2-0.1,0.3c0,0.1-0.1,0.2,0,0.2c0,0.1-0.1,0.3-0.1,0.4c0,0.1-0.1,0.3-0.1,0.4c-0.1,0.1,0,0.2-0.1,0.2
	c0,0.1-0.1,0.2,0,0.3c-0.1,0.2,0,0.5-0.1,0.8c-0.1,0.2,0,0.2-0.1,0.5c0,0.1-0.1-0.1,0,0.2c-0.1,0.1,0,0.2-0.1,0.3
	c-0.1,0.1,0,0.4-0.1,0.4c0.1,0.1,0,0.3,0,0.4c0,0.1,0,0.2-0.1,0.3c0,0,0,0.1,0,0.3c0,0,0.1,0.2,0,0.3c0,0.2,0.1,0.2,0.1,0.4
	c0,0.1-0.1,0.2-0.1,0.3c0,0.2-0.2,0-0.1-0.1c0.2-0.1,0-0.1-0.1,0c0,0.4-0.4,0.1,0,0.4c-0.1,0.1-0.2-0.1-0.3-0.1c0,0-0.1,0.2-0.2,0.2
	c0-0.1-0.1-0.2-0.2-0.1c0.1,0-0.1,0.2-0.1,0c-0.1,0-0.1,0.1-0.2,0c-0.1-0.1,0,0.4-0.1,0c0.1-0.1,0-0.1,0-0.2c0,0,0,0,0,0
	c0,0,0,0,0,0c0,0-0.1,0-0.1,0c0.1,0.2-0.2-0.1-0.1,0.1c0,0.2-0.1,0-0.3,0.1c0.2,0.1,0,0-0.1,0.1c0,0.1-0.2,0.2-0.2-0.1
	c0-0.1-0.1-0.4,0-0.7c0.3-2.4,0.8-4.9,1.5-7.3c0.1-0.4,0.3-0.9,0.4-1.3c0.1-0.2,0-0.2-0.1-0.1c-0.2,0-0.4,0.1-0.5,0.1
	c-0.2,0.1-0.3,0.1-0.4,0.2c-0.1,0-0.3-0.1-0.3,0.1c0,0-0.1,0-0.1,0.1c0,0,0-0.1,0-0.1c-0.1,0,0,0.1,0,0.1c-0.2,0.1-0.2-0.1-0.4,0
	c-0.1,0.1-0.4,0.1-0.5,0.1c0,0-0.2,0.1-0.3,0c-0.1,0.1-0.2,0.1-0.3,0.1c-0.2,0.2-0.3,0-0.1-0.1c0.2,0,0.5-0.1,0.2-0.2
	c-0.2,0.1,0-0.2-0.2-0.1c-0.4,0.1-0.1,0,0.1-0.1c0.3,0,0.2-0.1,0.2-0.2c-0.4,0,0.2-0.1-0.1-0.1c0.4-0.1-0.3,0,0.1-0.1
	c0-0.2-0.2-0.1,0-0.3c0-0.1-0.2-0.2,0-0.3c0.2-0.1,0.1-0.3,0.2-0.3c-0.2,0-0.1-0.4-0.2-0.3c-0.1-0.1,0-0.2,0.2-0.4
	c1.9-0.4,3.9-0.9,5.8-1.2C313.3,175.4,313.7,175.3,314.2,175.3z M308.2,178.8C308.2,178.8,308.2,178.8,308.2,178.8
	C308.2,178.8,308.2,178.8,308.2,178.8z M308.4,187.7C308.4,187.8,308.4,187.8,308.4,187.7C308.4,187.7,308.4,187.7,308.4,187.7z
	 M309.8,188.3c0-0.1,0.1,0.2-0.1,0.2c0-0.1,0-0.2,0-0.3C309.8,188.1,309.9,188.1,309.8,188.3z M309.8,187.1c0.1-0.1,0-0.1,0-0.4
	C309.7,186.8,309.7,187.1,309.8,187.1z M309.8,186.2C309.8,186.5,310,186.2,309.8,186.2C309.8,186.2,309.8,186.2,309.8,186.2z
	 M309.9,185.5C309.8,186,310,185.7,309.9,185.5C309.9,185.4,310,185.5,309.9,185.5z M311.1,181.1
	C311.1,181.4,310.9,181.1,311.1,181.1C311.1,181.1,311.1,181.1,311.1,181.1z M312.5,177.8c-0.3,0,0,0,0-0.1
	C312.5,177.7,312.5,177.8,312.5,177.8z M312.9,177.6c0.1,0,0.4-0.1,0.1-0.1C313,177.5,313,177.5,312.9,177.6
	C312.9,177.5,312.9,177.5,312.9,177.6z M314.3,176.7C314.3,176.7,314.3,176.7,314.3,176.7C314.4,176.7,314.3,176.9,314.3,176.7z
	 M314.3,176.6C314.4,176.6,314.4,176.6,314.3,176.6C314.5,176.6,314.3,176.7,314.3,176.6z M314.8,175.8c0-0.1-0.2,0.1-0.1-0.1
	c0,0,0,0,0,0C314.8,175.6,314.9,175.8,314.8,175.8z"/>
<path d="M319.3,174.6c0.4,0.1,0.4,0.1,0.5,0.2c0.2,0.1,0.1,0.3,0.3,0.3c0,0.1,0.1,0.3,0.1,0.3c-0.1,0.3,0.2,0.2,0.1,0.4
	c0,0.2,0.2,0.3,0.2,0.5c0,0,0,0.2,0,0.2c0,0.2,0.2,0.4,0,0.6c0,0.2-0.1,0.4-0.1,0.7c0,0.2-0.2,0.5-0.3,0.7c0,0,0,0,0,0c0,0,0,0,0,0
	c0,0,0,0,0,0.1c-0.1,0-0.2,0.2-0.1,0.4c0,0-0.2,0-0.2,0.2c0.1-0.1-0.1,0.3,0,0.1c-0.1,0-0.2,0.3-0.1,0.3c-0.1,0.4-0.1-0.1-0.3,0.3
	c-0.1,0.3,0,0.2-0.2,0.5c-0.1,0.2-0.3,0.4-0.2,0.5c-0.1,0.1,0,0.1,0,0.1c-0.1,0.1-0.1,0.3-0.5-0.1c-0.4-0.4-1.1-1-0.8-1.6
	c0.3-0.6,0.7-1.2,1-1.9c0.2-0.1,0.1-0.5,0.2-0.3c0.1-0.1,0.1-0.3-0.1-0.2c0.1-0.1,0-0.1-0.1,0c-0.1,0,0.2,0.4-0.1,0.2
	c-0.2-0.1,0,0.1,0,0.1c-0.3,0.1-0.7,0.2-0.8,0.3c0-0.2-0.1,0.1-0.2,0.2c-0.3,0.2-0.7,0.5-0.9,0.7c-0.1,0.2-0.5,0.2-0.5,0.4
	c0.1,0.1-0.1,0.1-0.2,0.2c-0.1-0.2-0.4,0.4-0.5,0.4c-0.2,0-0.2,0.5-0.3,0.4c-0.2,0.2-0.1,0.1,0,0.3c-0.1,0-0.2,0.1-0.2,0.2
	c-0.1,0.1,0,0.1-0.1,0.2c-0.1,0.2-0.1,0.2-0.2,0.4c0.3,0.2,0.8,0.4,1.1,0.5c0.8,0.3,1.8,0.5,2.4,1.1c0.2,0.1,0.1,0.2,0.2,0.3
	c0,0.1,0,0.1,0.1,0.1c0,0,0,0,0,0c0,0,0,0,0,0c0,0,0.1,0.1,0.1,0.1c0.5,0.4,0.6,0.9,0.6,1.5c0,0.2,0,0.3-0.1,0.5
	c0,0.2-0.4,0.4-0.2,0.4c-0.2,0.3-0.5,0.5-0.7,0.7c-0.2,0.1-0.3,0.2-0.5,0.2c-0.1,0.1-0.2,0.2-0.4,0.2c0,0.1-0.2,0.1-0.2,0.1
	c-0.1,0-0.2,0.1-0.2,0.1c-0.2,0.1-0.2,0.1-0.3,0.1c-0.2,0.1-0.4,0.1-0.4,0.1c-0.1,0.2-0.1,0-0.3,0.1c-0.1,0-0.1,0-0.2,0.1
	c-0.3,0-0.1,0-0.2,0.1c0,0-0.1,0-0.2,0c0,0,0,0,0,0c0,0,0,0,0,0c-0.1,0-0.1,0-0.2,0c-0.1-0.1,0,0.1-0.1,0c-0.1,0.1-0.5,0.2-0.4,0
	c-0.1-0.2,0.2,0.1,0.1,0c0.1-0.1,0.1,0,0.2,0c0,0,0,0,0-0.1c0.2-0.1,0.4-0.1,0.6-0.2c0.2-0.2,0.1,0,0.4-0.1c0-0.1,0.1-0.2,0.2-0.1
	c0-0.1,0.1,0,0.2-0.1c0.1,0,0.2-0.2,0.1-0.2c0.1-0.1,0.2,0.1,0.3,0c0.1-0.1-0.1-0.1,0-0.1c0.2-0.1,0.3,0.1,0.4,0
	c0-0.1-0.3,0.1-0.1-0.1c0.4-0.2,0.1-0.1-0.1,0c-0.2,0.1-0.4,0.2-0.6,0.2c-0.1,0.1-0.2,0-0.3,0.1c-0.1,0-0.4,0.1-0.5,0.1
	c-0.1,0.1-0.1-0.1-0.3,0c-0.1,0-0.2,0.3-0.2,0.1c-0.2,0,0,0.2-0.2,0c-0.1,0.1,0.1-0.1-0.1-0.1c-0.2,0-0.6,0.1-0.6,0c0,0,0,0,0,0
	c0,0-0.1,0,0,0c-0.1,0-0.3,0-0.4-0.2c0-0.2,0.1-0.2-0.2-0.3c-0.1,0.1-0.1,0-0.3,0c-0.2,0-0.1-0.2-0.3-0.1c-0.3-0.1,0.5-0.3,0.2-0.2
	c-0.2-0.1,0.1,0,0.1-0.2c1.1-0.4,2.3-0.7,3.3-1.3c0.2-0.2,1.1-0.6,0.6-0.7c-0.2-0.1-0.4-0.2-0.6-0.2c-0.2-0.1-0.5-0.2-0.8-0.3
	c-0.2-0.1-0.3-0.1-0.5-0.2c-0.3-0.1-0.6-0.3-0.9-0.6c-0.1-0.2-0.1-0.4-0.3-0.6c-0.1-0.1,0-0.1,0-0.2c-0.1-0.1,0-0.4-0.2-0.6
	c-0.1,0.2-0.1,0,0-0.1c-0.1,0.1-0.2,0-0.2-0.2c0,0.1,0-0.2-0.1-0.1c-0.1,0-0.2-0.5-0.1-0.7c0-0.8,0.4-1.6,0.9-2.2
	c1-1.4,2.5-2.6,4.1-3.2c0.3-0.1,0.6-0.2,0.8-0.3C319.1,174.6,319.2,174.6,319.3,174.6z M313.6,181.8c-0.1,0,0.3,0.2,0.1,0.2
	C313.7,182,313.6,181.9,313.6,181.8C313.6,181.7,313.7,181.9,313.6,181.8z M313.7,181.7C313.9,182,313.6,181.9,313.7,181.7
	C313.7,181.7,313.7,181.7,313.7,181.7z M313.9,181.8C313.9,182.3,314,181.9,313.9,181.8C313.9,181.8,313.9,181.8,313.9,181.8z
	 M314.3,182.3C314.3,182.5,314.5,182.5,314.3,182.3C314.3,182.3,314.3,182.3,314.3,182.3z M314.5,182.6
	C314.5,182.6,314.5,182.6,314.5,182.6c-0.1,0.1,0.1,0,0,0.1C314.6,182.8,314.6,182.6,314.5,182.6
	C314.5,182.6,314.5,182.6,314.5,182.6C314.5,182.6,314.5,182.6,314.5,182.6z M314.5,182.6C314.5,182.6,314.5,182.6,314.5,182.6
	C314.5,182.6,314.5,182.6,314.5,182.6z M314.6,187.1C314.6,187.2,314.5,187.2,314.6,187.1C314.5,187.1,314.6,187.1,314.6,187.1z
	 M314.7,182.8C314.6,182.9,314.8,183,314.7,182.8C314.7,182.8,314.7,182.8,314.7,182.8z M314.9,182.9c0.1,0.1,0.1,0.1,0.1,0.1
	c0.1,0.1,0.3,0.2,0.2,0C315.1,183,315,182.9,314.9,182.9C314.9,182.9,314.8,182.9,314.9,182.9z M315.4,183.2
	C315.1,183.2,315.4,183.3,315.4,183.2c0,0.1,0.3,0.2,0.3,0.2c0,0,0,0,0,0c0,0,0,0,0,0c0,0,0,0,0,0c0.1,0,0.2,0.1,0.3,0.1
	c0.1-0.2-0.1-0.1-0.2-0.2c0,0.1-0.3,0.1-0.3-0.1C315.5,183.2,315.3,183.2,315.4,183.2z M315.3,187.4
	C315.3,187.4,315.3,187.4,315.3,187.4C315.3,187.4,315.3,187.4,315.3,187.4z M315.4,187.4C315.3,187.4,315.3,187.3,315.4,187.4
	C315.3,187.4,315.4,187.4,315.4,187.4C315.4,187.4,315.5,187.4,315.4,187.4C315.4,187.3,315.4,187.4,315.4,187.4z M315.4,183.2
	C315.5,183.3,315.3,183.2,315.4,183.2C315.4,183.2,315.4,183.2,315.4,183.2z M315.4,187.4C315.4,187.4,315.3,187.4,315.4,187.4
	C315.4,187.4,315.4,187.4,315.4,187.4z M315.8,183.4C315.8,183.4,315.8,183.4,315.8,183.4C315.8,183.4,315.8,183.4,315.8,183.4z
	 M315.9,183.4C315.9,183.4,315.9,183.4,315.9,183.4C316,183.4,315.9,183.5,315.9,183.4z M316.4,183.5c0,0.1,0.2,0.1,0.3,0.2
	c0.1,0,0.1,0.1,0.3,0.1c0.1,0.1,0.1,0,0,0c-0.2-0.1-0.1-0.1,0.1,0c0.1,0.1,0.3,0.1,0.2,0c0-0.1-0.2-0.1-0.2-0.1
	c-0.1,0-0.3-0.1-0.4-0.1C316.6,183.3,316.4,183.6,316.4,183.5C316.4,183.4,316.4,183.5,316.4,183.5z M316.6,183.8
	C316.8,183.8,316.6,183.8,316.6,183.8C316.5,183.7,316.6,183.9,316.6,183.8z M320.1,178.9C320.1,178.9,320.1,178.9,320.1,178.9
	C320.1,178.9,320.1,178.9,320.1,178.9z M320.2,178.5L320.2,178.5C320.3,178.5,320.3,178.5,320.2,178.5z"/>
<path d="M325.5,173.8c0.1,0,0.3,0.1,0.4,0.3c0.1,0.2,0.4,0.3,0.3,0.5c0.2,0.1,0.4,0.3,0.4,0.6c0.1,0,0,0.1,0.1,0.3
	c0.1,0.3,0.1,0.7,0.1,0.9c0,0.1,0.1,0.3,0.1,0.4c0,0-0.3,0.5-0.1,0.3c0.1,0.4-0.1-0.1-0.1,0.2c-0.1,0.2,0.2-0.1,0.1,0.1
	c0,0.2-0.1,0.6-0.2,0.6c-0.1,0.1-0.1,0-0.2,0.2c-0.1,0.1,0,0.2-0.2,0.4c0,0.1-0.1,0.1-0.1,0.2c0-0.2-0.1-0.1-0.2,0
	c0-0.2-0.1-0.1,0-0.2c0.1-0.2-0.2,0.2-0.1-0.1c-0.1,0-0.1,0-0.3-0.1c-0.1,0.1-0.3,0.1-0.2-0.1c-0.1,0.1-0.2,0.1-0.3,0
	c0,0-0.2-0.1-0.1-0.2c-0.1-0.1,0.1-0.1,0-0.2c0.1-0.2,0.1-0.2-0.1-0.2c-0.3-0.2,0.2,0,0-0.1c-0.1-0.1-0.2-0.1-0.3,0
	c0,0-0.4-0.1-0.2-0.2c-0.2,0.1-0.1,0.2-0.3,0.2c-0.1,0.2-0.2,0.4-0.3,0.5c-0.2,0.1-0.1,0.1-0.2,0.3c-0.1,0.1-0.2,0.3-0.2,0.4
	c-0.1,0.2-0.1,0.4-0.3,0.6c0,0.1-0.2,0.4-0.2,0.5c-0.1,0.2-0.1,0.2-0.1,0.3c0,0,0,0,0,0c0,0,0,0,0,0.1c0,0-0.1,0.1-0.1,0.1
	c0,0,0,0.1,0,0.1c0,0.1,0,0.2,0,0.1c0,0.1-0.1,0.2-0.1,0.4c-0.1,0-0.1,0.2-0.1,0.2c0,0.2,0,0.5-0.1,0.8c0,0.1,0,0.2-0.1,0.2
	c0.1,0.2-0.1,0-0.1,0.2c0,0.1,0,0.2,0,0.2c0.1,0.1,0,0.2,0,0.3c0,0.1,0,0.1,0,0.1c0,0,0,0,0,0c0,0,0,0,0,0c0,0.1,0,0.1,0,0.2
	c0,0.2,0.1,0.2,0,0.4c0,0,0,0,0,0c0,0,0,0,0,0c-0.1,0.1,0,0.1,0,0.1c0,0.1,0.1,0.1,0,0.3c0,0.1,0.1,0.3,0.2,0.4
	c-0.1,0.3,0.1,0.4,0.4,0.2c0.9-0.6,1.7-1.5,2.4-2.3c0.1-0.1,0.3-0.3,0.1,0c0.2-0.3,0.2-0.1,0.4-0.3c0.1-0.1,0.2,0.1,0.1,0.1
	c0.1,0.1,0.1,0.2,0.3,0.3c0.1-0.2,0.1-0.1,0.2,0.1c-0.1,0.3,0.1-0.1,0.2-0.1c-0.1,0.3,0,0.2,0.1,0.4c0,0,0,0,0-0.1c0,0-0.1,0,0,0
	c0,0,0,0,0,0c0,0,0,0,0-0.1c0,0,0,0,0.1,0c0,0.1,0,0.2,0.1,0.2c0,0,0.2-0.3,0.1-0.1c0.2-0.1,0,0.3-0.1,0.4c0-0.1,0-0.2-0.1-0.1
	c0.1,0-0.1,0.2,0.1,0.2c0.3,0.1-0.2,0.1,0,0.2c-0.1,0-0.1,0.1-0.2,0.2c0,0,0,0,0,0c0,0.1,0,0.1-0.1,0.1c0.2,0-0.1,0-0.1,0.1
	c-0.2,0.1,0,0.3,0,0.4c-0.1-0.1-0.1,0.1-0.1,0.1c-0.1-0.1,0,0.1-0.1,0.1c-0.1-0.1,0.1-0.1,0.1-0.2c0-0.1-0.1-0.2-0.1-0.1
	c-0.1,0.1-0.3,0.3-0.3,0.5c-0.2-0.1-0.1,0.1-0.2,0.1c0,0-0.1,0-0.1,0.1c0,0.1,0,0.2-0.1,0.2c-0.1-0.1-0.2,0.1,0,0.1
	c-0.1,0.1-0.2-0.1-0.1,0.1c0.1,0,0.1,0.1,0,0.1c-0.1,0.1-0.1-0.1-0.2-0.1c0,0.1,0,0.1-0.2,0.1c0,0,0,0.1,0,0.1c0,0,0,0,0,0
	c0.1,0,0,0.1,0,0c-0.1,0.1-0.2,0.1-0.2,0.1c0,0.1-0.4,0.2-0.4,0.2c-0.1,0.1-0.3,0.1-0.5,0.1c-0.1-0.3,0,0.1-0.2,0
	c0-0.1-0.3-0.1-0.4-0.1c-0.2,0-0.4-0.1-0.6-0.1c0.4,0.2-0.2-0.1-0.1,0.1c0.1,0.1,0.3,0,0.3,0.1c0.1,0.1,0.5,0.2,0.2,0.2
	c-0.2,0.1-0.2-0.1-0.4-0.1c-0.1-0.1-0.2-0.1-0.4-0.1c0.2-0.1,0-0.1,0-0.1c-0.3-0.2,0.2,0.1,0-0.2c-0.3-0.3-0.1,0.2-0.2-0.1
	c0-0.1-0.3-0.3-0.5-0.2c-0.2,0-0.6-0.4-0.5-0.2c-0.3-0.2-0.6-0.6-0.7-0.9c-0.1-0.2-0.1-0.4-0.1-0.5c0-0.1,0-0.2,0-0.3
	c0-0.7,0-1.4,0.2-2.1c0.5-2.3,1.5-4.5,3.1-6.4c0.2-0.3,0.5-0.6,0.8-0.8c0.1-0.2,0.2-0.1,0.4-0.3c0-0.1,0.7-0.1,0.5-0.1c0,0,0,0,0,0
	C325.2,173.7,325.4,173.8,325.5,173.8z M322.2,183.5C322.2,183.5,322.2,183.5,322.2,183.5C322.2,183.5,322.2,183.5,322.2,183.5z
	 M322.6,181C322.7,181,322.5,181,322.6,181C322.6,181,322.6,181,322.6,181z M322.8,180.4C322.8,180.4,322.8,180.4,322.8,180.4
	C322.8,180.4,322.8,180.4,322.8,180.4z M323.8,186.1c0.1,0.1,0,0.1-0.1,0.1c-0.2,0-0.2-0.1-0.1-0.2
	C323.7,186.3,323.7,186.1,323.8,186.1z M323.8,186.4c-0.4,0,0.1,0,0.1-0.1C324.1,186.3,323.8,186.3,323.8,186.4z M323.7,178.1
	C323.6,178.2,323.8,178.1,323.7,178.1C323.7,178.1,323.7,178.1,323.7,178.1z M326.2,184.5c0,0.1-0.3,0.2-0.3,0.3
	c-0.2,0.2-0.2,0.2-0.3,0.3c-0.1,0.1-0.3,0.3-0.4,0.4c0,0,0,0,0,0c0,0.1-0.1,0.1-0.1,0.1c0,0.1-0.1,0.1-0.1,0c-0.2,0,0,0.2-0.3,0.2
	c-0.1,0.3-0.1-0.1-0.1,0.2c-0.1,0.1-0.1,0.1-0.2,0.2c0,0,0,0,0,0c0,0,0,0,0,0c0,0-0.1,0-0.1,0.1c-0.2-0.1-0.1-0.2,0.1-0.2
	c0.1-0.2,0.3-0.1,0.5-0.3c0.1,0,0.3-0.3,0.3-0.3c0.1-0.1,0.4-0.3,0.5-0.5c0,0,0.2-0.3,0.4-0.5C326.2,184.4,326.2,184.5,326.2,184.5z
	 M324.4,185.6C324.4,185.6,324.5,185.6,324.4,185.6C324.4,185.6,324.4,185.6,324.4,185.6C324.4,185.6,324.4,185.6,324.4,185.6
	C324.4,185.6,324.4,185.6,324.4,185.6z M324.4,185.6C324.4,185.6,324.4,185.6,324.4,185.6C324.4,185.6,324.4,185.6,324.4,185.6z
	 M324.6,185.8c-0.3,0.1,0-0.1,0-0.1C324.6,185.7,324.6,185.8,324.6,185.8z M324.5,186.1C324.5,186.1,324.5,186.1,324.5,186.1
	C324.5,186.1,324.5,186.1,324.5,186.1z M324.7,177.6C324.8,177.8,324.7,177.7,324.7,177.6C324.7,177.6,324.7,177.6,324.7,177.6z
	 M325.6,181.9c0,0.2,0,0.2,0,0.1c0,0,0.1,0,0,0c0,0,0,0,0,0C325.7,182,325.7,181.9,325.6,181.9C325.6,181.9,325.6,181.9,325.6,181.9
	z M325.6,182.1C325.6,182.1,325.6,182.1,325.6,182.1C325.6,182.1,325.6,182.1,325.6,182.1z M326.3,178.4
	C326.3,178.4,326.3,178.4,326.3,178.4C326.3,178.4,326.3,178.5,326.3,178.4z M326.4,184.2C326.3,184.3,326.3,184.2,326.4,184.2
	C326.4,184.1,326.4,184.1,326.4,184.2z M326.6,184c-0.1,0,0.2-0.2,0.2-0.3C326.8,183.8,326.6,183.9,326.6,184z M326.5,183.4
	C326.6,183.4,326.6,183.4,326.5,183.4C326.6,183.4,326.5,183.4,326.5,183.4z M327,182.9C327.1,183,326.9,182.9,327,182.9
	C327.1,182.8,327.1,182.8,327,182.9C327.1,182.8,327,182.9,327,182.9z"/>
<path d="M330.2,173.1c0.1-0.1,0.2,0.1,0.2,0.2c0.1,0.1,0.2,0.3,0.5,0.2c0,0,0,0.2,0.1,0.2c0.2,0,0,0.2,0.1,0.3
	c0.1,0.1,0.2,0,0.2,0.1c-0.1,0.1,0.1,0.3,0.1,0.6c0,0.3-0.2,0.1-0.2,0.3c0.1,0.1,0.1,0.1,0.1,0.2c-0.1,0.2-0.3,0.3-0.1,0.3
	c-0.1,0.2,0,0.2-0.1,0c0,0.1-0.1,0.2-0.1,0.3c0,0,0,0,0,0c-0.1,0,0,0,0,0c0,0.1,0,0.3-0.1,0.5c-0.1,0.3,0,0.2-0.2,0.6
	c0,0.1-0.1,0.5-0.1,0.6c0,0-0.1,0.1-0.1,0.3c0.2,0.1-0.1,0-0.1,0.2c0.1,0.2,0,0.1-0.1,0.4c0.8-0.2,1.7-0.4,2.5-0.6
	c0.3-1.4,0.7-2.8,1-4.1c0.1-0.3,0.1-0.7,0.3-0.8c0.1-0.2,0.5-0.4,0.5-0.1c0.2,0.2-0.2-0.3,0.1-0.1c0.1-0.1,0,0.2,0.1,0.2
	c0,0.2,0.2,0.1,0.1,0.3c0.1-0.1,0.1,0.1,0.2,0c-0.1,0.2,0.2,0,0.2,0.2c0.2-0.1,0,0,0.2,0.1c0.1,0.3,0.2-0.1,0.2,0.1
	c0,0.2,0.1,0.3,0,0.5c0,0,0.2,0.2,0,0.2c-0.1,0.3,0.3-0.2,0.1,0.2c-0.1-0.2,0,0.1-0.1,0.2c0.1,0.2-0.2,0.1,0,0.2
	c-0.1,0.1-0.2,0.2-0.2,0.4c0,0.1,0.1,0.2,0,0.2c-0.1,0.3,0,0.6-0.1,0.9c-0.2,0.6-0.2,1.1-0.4,1.7c0,0.3-0.2,0.6-0.1,0.9
	c-0.1,0.1,0,0.2-0.1,0.3c0,0.1,0,0.3,0,0.4c-0.1,0.4-0.1,0.9-0.2,1.4c0,0.1-0.1,0.4-0.1,0.6c0,0,0,0.1,0,0.1c0,0.2-0.1,0.2,0,0.3
	c-0.1,0.1,0,0.3-0.1,0.5c0,0.3,0,0.6-0.1,0.8c0,0.2,0,0.3,0,0.6c0,0,0,0,0,0c0,0,0,0,0,0c0,0,0,0,0,0.1c0,0.1,0,0.3,0,0.4
	c0,0.3-0.2,0.2-0.1,0c0-0.4-0.1,0.2-0.1-0.1c0-0.2-0.2-0.1-0.2,0c0-0.1-0.1,0-0.1-0.1c0,0,0,0.1-0.1,0.2c0.1-0.2-0.2,0-0.4-0.1
	c-0.2,0.2-0.1-0.1-0.3,0.1c0,0-0.1-0.3-0.1-0.1c-0.2,0.2,0-0.2-0.2-0.1c-0.1,0,0,0.3-0.2,0.1c0,0.2-0.1,0.2-0.2,0.1
	c0-0.1-0.1-0.2-0.1-0.2c0,0-0.1,0,0,0c0,0-0.1,0,0-0.1c0.1-1.3,0.2-2.6,0.4-3.9c-0.1,0-0.4,0.1-0.6,0.1c-0.1,0-0.4,0.1-0.6,0.2
	c-0.2,0.1-0.4,0-0.5,0.1c-0.1,0-0.4,0.2-0.5,0.1c-0.1-0.1-0.1,0.1-0.3,0.1c0,0.2-0.1,0.4-0.1,0.6c0,0.2,0,0.4-0.1,0.5
	c0,0.3-0.1,0.9-0.1,1.1c-0.1,0,0.1,0.1,0,0.1c0,0.1,0,0.1,0,0.3c0,0,0,0,0,0c0,0,0,0,0,0.1c-0.1,0.1,0,0.2,0,0.3c0,0,0.1,0.4,0,0.3
	c0,0.3,0,0.3,0,0.6c-0.1,0,0,0.6-0.1,0.4c-0.1-0.2-0.2,0.1-0.2-0.2c-0.1,0.1-0.1,0-0.2,0.1c-0.2-0.1,0,0.4-0.2,0.1
	c0.1-0.1-0.1-0.1-0.2-0.1c-0.1-0.2-0.4,0.1-0.3-0.1c0,0-0.1,0-0.1-0.1c0,0-0.1,0.1,0,0c0,0,0,0,0,0c-0.1-0.1-0.1-0.1-0.2-0.1
	c0,0,0,0,0,0c0,0,0,0,0,0c0,0.1,0,0.3,0,0.1c-0.1,0,0-0.1-0.1,0c-0.1-0.1-0.2,0.1-0.1,0.1c-0.1-0.1-0.1-0.1-0.3-0.1
	c0-0.2-0.1-0.1-0.1-0.3c0.1,0-0.1-0.3,0-0.6c0.2-3.3,0.9-6.6,1.9-9.8c0.1-0.3,0.2-0.8,0.3-0.8c0.1-0.4,0.1-0.1,0.3-0.2
	C330,173,330,173.2,330.2,173.1C330.3,173,330.1,173.1,330.2,173.1z M334.5,184.1L334.5,184.1C334.5,184.1,334.5,184.1,334.5,184.1z
	"/>
<path d="M339,172c0.1,0,0.2,0,0.2,0.1c0.1,0.1,0.3,0,0.3,0.2c0,0,0.3,0.3,0.2,0.2c0-0.1,0.1,0.1,0.1,0.1c0,0.2,0,0.3,0.1,0.5
	c0,0.1-0.1,0-0.1,0.1c0,0.2-0.1,0.2,0.1,0.2c-0.1,0.1,0,0.2-0.1,0.1c-0.1,0.2,0,0.3,0,0.4c0.1,0.2-0.1,0.3-0.1,0.4
	c0.1,0,0.1,0.1,0.1,0.2c0,0.4-0.1,0.1-0.2,0.3c0.1,0,0,0.1,0,0.3c-0.1,0.1,0,0.3-0.1,0.4c0,0.2-0.1,0-0.1,0.4c0,0.1-0.1,0.3-0.1,0.4
	c-0.1,0.2,0.1,0,0,0.2c0,0.1,0,0.2-0.1,0.5c0,0.1,0,0.1,0,0.1c0,0,0,0,0,0c0,0,0,0,0,0c0,0.1,0,0.3-0.1,0.4c0,0.3-0.1,0.6-0.1,0.9
	c0,0-0.1,0.4-0.1,0.5c0,0.4-0.1,0.8-0.2,1.1c0,0.3-0.1,0.6-0.1,0.9c0,0.1-0.1,0.4-0.1,0.6c0.8-0.1,1.6-0.3,2.4-0.2
	c0.1,0.1,0.2,0.1,0.4,0.1c0,0.1,0.2,0.2,0.1,0.2c0.1,0.1,0.1,0.4,0,0.1c0,0-0.1,0-0.1,0.1c0,0,0,0,0,0c0,0.1,0,0.1,0.1,0.1
	c-0.1,0.2-0.2-0.1-0.1,0.1c-0.2,0.1-0.1,0.1-0.1,0.2c0,0.2,0.2,0,0.3,0.2c0,0.1-0.5,0.1-0.2,0.3c-0.1,0.2,0,0.2-0.1,0.3
	c0.1,0,0.1,0.1,0,0.2c-0.1,0,0,0.2,0,0.3c-0.1,0.3-0.2-0.2-0.2,0.1c0.1,0.2-0.3,0-0.3,0c0,0.1,0.1,0.2,0,0.1c-0.2,0.1-0.2,0-0.3,0.1
	c-0.1-0.1-0.2,0-0.2,0c0-0.1-0.2,0.1-0.3,0c-0.1,0-0.3,0.1-0.2,0c0,0-0.3,0.1-0.4,0.1c0-0.1-0.2,0.1-0.1-0.1
	c-0.1,0.2-0.3,0.1-0.5,0.2c-0.1-0.1-0.2,0-0.2,0c0,0,0,0,0,0c0,0-0.1,0-0.1,0.1c-0.1,0-0.1,0-0.2,0c0,0,0,0,0,0c0,0-0.1,0-0.1,0
	c0,0,0,0,0,0c0,0-0.1,0-0.1,0c0,0,0,0,0,0c0,0,0,0,0,0c0,0,0,0-0.1,0c0,0.1-0.2,0.1-0.5,0.1c0.2,0,0,0.1-0.1,0.1c0,0-0.1,0-0.2,0.1
	c0,0,0.1,0,0.2,0c0,0,0,0,0,0c0,0.1,0,0.1-0.2,0.1c0.1,0.1-0.2,0-0.1,0.1c-0.1,0.1-0.2-0.1-0.3,0c0,0.1-0.1,0.1-0.1,0.1c0,0,0,0,0,0
	c0,0,0,0,0,0c-0.1,0-0.1,0-0.2,0.1c-0.2,0.1,0-0.1,0-0.1c0,0,0-0.1,0-0.1c0,0,0,0,0,0.1c0,0,0,0,0,0c0,0.1,0,0-0.1,0
	c0.4-0.1-0.2-0.1,0-0.2c0-0.1,0.1-0.2,0-0.3c0.1,0.2-0.1,0-0.1,0c0.1-0.1-0.2-0.1,0.1-0.1c-0.1-0.1-0.2-0.2-0.1-0.4
	c0,0.1-0.2,0.2-0.2,0c0.1,0,0-0.4,0.1-0.2c0.2,0,0-0.2,0-0.2c0.1-0.1,0-0.3,0-0.3c0.1-0.1,0.2,0.2,0.1-0.1c-0.1,0-0.1-0.2-0.2-0.2
	c-0.1-0.1-0.1-0.2,0.1-0.3c0.2-0.4,0.7-0.1,0.7-0.7c0.4-2.8,1-5.6,1.7-8.4c0.1-0.3,0.3-0.8,0.3-1.1c-0.2-0.1-0.1-0.2-0.1-0.3
	c0.1-0.1,0.3-0.1,0.5-0.2C338.7,171.8,338.9,171.8,339,172z M335.5,184.6C335.5,184.8,335.2,184.7,335.5,184.6
	C335.4,184.6,335.5,184.6,335.5,184.6z M335.6,184.6C335.6,184.6,335.6,184.6,335.6,184.6C335.6,184.6,335.6,184.6,335.6,184.6z
	 M335.8,184.6C335.8,184.6,335.8,184.6,335.8,184.6C335.8,184.6,335.8,184.6,335.8,184.6z M335.8,184.4
	C335.8,184.5,335.9,184.4,335.8,184.4C335.8,184.4,335.8,184.4,335.8,184.4z M336.1,184.3C335.7,184.4,336.4,184.3,336.1,184.3
	C336.2,184.3,336.2,184.3,336.1,184.3z M336.6,184.3C336.6,184.3,336.6,184.3,336.6,184.3C336.6,184.3,336.6,184.3,336.6,184.3z
	 M336.7,184.3c-0.1,0.2-0.1,0-0.1,0C336.7,184.3,336.7,184.3,336.7,184.3z M336.7,184.3C336.8,184.3,336.8,184.3,336.7,184.3
	C336.7,184.3,336.7,184.3,336.7,184.3z M337.1,183.9C337.1,184,337.3,183.9,337.1,183.9C337.2,183.9,337.2,183.9,337.1,183.9z
	 M337.3,184.1C337.3,184.1,337.3,184.1,337.3,184.1C337.3,184.1,337.3,184.1,337.3,184.1z M337.6,184.1L337.6,184.1
	C337.6,184.1,337.6,184.1,337.6,184.1z M338.6,183.7c0.1,0,0.4-0.1,0.4-0.1c-0.1,0-0.3,0-0.4,0C338.4,183.5,338.2,183.6,338.6,183.7
	z M339.4,183.5C339.1,183.7,339.6,183.5,339.4,183.5C339.4,183.5,339.4,183.5,339.4,183.5z M339.7,183.5
	C339.8,183.6,340.1,183.5,339.7,183.5C339.7,183.5,339.7,183.5,339.7,183.5C339.7,183.5,339.7,183.5,339.7,183.5z M339.8,174.7
	C339.9,174.7,339.8,174.7,339.8,174.7C339.8,174.7,339.8,174.7,339.8,174.7c0,0,0-0.1,0-0.2C339.9,174.6,339.9,174.7,339.8,174.7z
	 M340.6,183.3C340.6,183.3,340.6,183.3,340.6,183.3C340.5,183.3,340.5,183.5,340.6,183.3z"/>
<path d="M347,171.2c0.1,0.1,0.3,0.3,0.5,0.4c0.1,0.1,0.2,0,0.3,0.1c0.1,0.2,0.4,0.2,0.4,0.4c0.2,0.1,0.2,0.4,0.3,0.6
	c0,0.4,0.2,0.3,0.2,0.7c-0.1,0-0.1,0.1-0.1,0.2c0.1-0.2,0.2,0.3,0,0.1c0,0.4,0,0.9,0,1.3c-0.1,0.1,0.2,0,0,0.2c-0.1,0.1,0,0.1,0,0.2
	c0,0,0-0.1,0-0.1v0c0-0.1,0.1-0.1,0.1,0.2c-0.1,0-0.2,0.4-0.1,0.3c0.1,0.2,0,0.4,0,0.6c0,0.1-0.1,0.4,0.1,0.2c0,0.2,0,0.1-0.1,0.1
	c0,0,0,0,0,0c0,0,0,0,0,0.1c0,0.3,0.2,0.3,0,0.5c0.1,0.1-0.2,0.4,0,0.5c0,0.2-0.2,0-0.1,0.2c0.1-0.1,0.1,0.1,0.2,0.1
	c-0.1,0.1-0.2,0.1-0.2,0.2c0.2,0,0.2,0.2,0,0.3c0,0.1,0.4-0.1,0.2,0.1c-0.2-0.1-0.1,0.2-0.2,0.1c-0.1-0.1-0.1,0.1-0.1,0.1
	c-0.1,0.1,0.4-0.1,0.2,0c-0.2,0,0.1,0.2-0.1,0.1c-0.1,0.1,0,0-0.1,0.2c-0.1-0.1,0,0.1-0.1,0.2c-0.1,0,0.1,0.3,0,0.3
	c0,0.2,0,0.2,0,0.5c0,0.2,0,0.4,0,0.6c0.2,0.1,0,0.1,0,0.2c-0.1,0-0.1,0.3-0.1,0.4c0.1,0.1-0.1,0.1,0,0.2c-0.1,0.1,0,0.4-0.1,0.5
	c0,0.2,0,0.3,0.1,0.4c0,0.3-0.4-0.2-0.3,0c-0.1,0-0.1,0.1-0.1,0.1c-0.1,0-0.2,0.1-0.3,0c0.1,0-0.2-0.1-0.2-0.1
	c0,0.2-0.2-0.2-0.2-0.1c-0.1,0.2-0.2-0.2-0.4-0.1c0-0.2-0.2-0.3-0.1-0.1c-0.1,0.2-0.4-0.1-0.3,0.1c-0.1,0.3-0.1-0.1-0.2,0
	c0,0.1-0.2-0.1-0.2,0.1c-0.2,0,0.2-0.2-0.1-0.2c0-0.5,0.1-1.1,0.1-1.6c0-0.3,0.2-1-0.1-0.9c-0.4-0.2,0.4,0,0.2-0.2
	c0.1-0.1,0-0.2-0.3-0.1c0.2,0.1-0.1,0.2,0,0c-0.1,0-0.3,0.1-0.4,0.1c-0.2,0-0.1,0.2,0,0.1c0.1,0.1-0.3,0.1-0.2,0.2
	c0.1,0,0,0.1,0.1,0.1c-0.2,0-0.6,0.2-0.6,0.1c-0.1,0.2-0.1,0-0.3,0.1c-0.2,0.2-0.4,0-0.5,0.1c-0.1-0.2-0.3,0.1-0.4-0.1
	c0,0.1,0,0.3,0,0.1c-0.1,0.1-0.1,0.2,0.1,0.1c0.1,0,0.1,0.4-0.1,0.3c-0.1,0.1,0,0.3-0.1,0.2c-0.1-0.3-0.3,0.5-0.2,0.4
	c0.1,0,0.1,0.3,0,0.2c0-0.2-0.4,1-0.4,1c0-0.1-0.1,0.1,0,0.1c0,0.2-0.1,0.3-0.1,0.1c-0.1,0.1-0.1,0.3-0.1,0.2c0,0,0,0.1,0,0.1
	c0,0.1,0,0.1-0.1,0.1c-0.3-0.1,0.2,0.2,0,0.1c0.1,0.2-0.3-0.1-0.2,0c-0.1-0.2-0.3,0.4-0.2,0c0.1-0.1-0.1-0.3,0-0.1
	c0,0.1,0,0.1-0.1,0.1c0,0,0.1,0,0,0c0,0,0,0,0,0c0,0,0-0.1,0-0.2c-0.3,0.1,0.1,0,0,0.2c0-0.1-0.2,0.1-0.2-0.1c0.2-0.1-0.2-0.2-0.2,0
	c0.2-0.2,0.1,0.2,0,0.1c0-0.1-0.2-0.1-0.1-0.1c0-0.4-0.2,0.3-0.1-0.1c0.1,0,0.1-0.3-0.1-0.2c-0.2,0.1,0-0.2-0.1-0.2
	c-0.1,0-0.2,0.1-0.3,0.1c0,0.1-0.2,0.1-0.2,0.1c0.1-0.2-0.2,0.2,0-0.1c0-0.1,0-0.3,0-0.3c0.1-0.2,0.1-0.1,0.1-0.3c0,0,0-0.2,0-0.2
	c0.9-3.2,2.5-7.1,3.8-9c0.5-0.7,1.1-1.6,1.9-1.9c-0.1,0.1,0.1,0,0.1,0c0,0,0.1-0.1,0.1-0.1C346.8,171,347,171.1,347,171.2z
	 M342,183.3C342,183.3,342,183.3,342,183.3C342,183.3,342,183.3,342,183.3z M343.4,181.5C343.5,181.8,343.2,181.6,343.4,181.5
	C343.4,181.5,343.3,181.5,343.4,181.5z M343.9,180.2c0.1,0.1-0.1,0,0,0.1C343.7,180.4,343.7,180.2,343.9,180.2
	C343.8,180.2,343.8,180.2,343.9,180.2z M344.9,179.9C344.9,179.9,344.9,179.9,344.9,179.9c-0.3,0.1-0.5,0.1-0.8,0.2
	c-0.4,0,0,0.2,0.1,0.1c0.1,0,0.4,0,0.3-0.1C344.7,180,345.1,180,344.9,179.9C345,179.9,345,179.9,344.9,179.9z M344.5,180.2
	C344.5,180.3,344.1,180.3,344.5,180.2C344.5,180.2,344.5,180.2,344.5,180.2z M346.5,174.2c-0.1,0.1-0.1,0.4-0.2,0.4
	c0,0.2-0.4,0.2-0.2,0.3c0.1,0-0.3,0.4-0.3,0.2c0.1-0.1,0,0,0.1-0.2c-0.1,0.1-0.2,0-0.2,0.1c0,0,0,0,0,0c0,0,0,0,0,0
	c0,0-0.1,0.1-0.1,0.1c0,0,0,0,0,0c0,0,0,0,0,0.1c0,0,0,0.1-0.1,0c0,0.1,0,0,0,0.1c-0.2,0.2,0.1,0.1,0,0.1c0,0,0,0.3-0.1,0.1
	c0.1-0.2-0.1-0.1-0.1,0.1c-0.1,0.1-0.1,0.2-0.2,0.2c0,0.2-0.1,0.2-0.2,0.4c0,0.3,0.1,0,0.2-0.1c0.1-0.1,0.1-0.4,0.2-0.3
	c0,0-0.1,0.1-0.1,0.3c-0.1,0.1-0.1,0.1-0.2,0.4c-0.2,0.1,0,0.4-0.2,0.4c0-0.2,0-0.1-0.1,0.1c-0.2,0-0.3,0.3-0.1,0.3c0,0,0,0.1,0,0.1
	c0.2,0.1,1.1-0.1,1.6-0.2c0.1-0.7,0.1-1.5,0.2-2.2c0-0.3,0.1-0.9,0-1C346.5,174.1,346.5,174.2,346.5,174.2z M344.8,177
	c0.1,0.1,0.1-0.1,0.2-0.2c-0.1,0,0,0,0-0.1C344.9,176.7,344.9,176.9,344.8,177z M344.9,177.1C345,177.3,344.9,177.3,344.9,177.1
	C344.9,177.1,344.9,177.1,344.9,177.1z M345.7,179.9c0,0-0.1,0-0.1,0.1C345.3,179.9,345.5,179.9,345.7,179.9
	C345.7,179.9,345.7,179.9,345.7,179.9z M345.6,179.8c0-0.2-0.1,0,0-0.2C345.8,179.6,345.7,179.8,345.6,179.8z M345.7,175.2
	C345.7,175.2,345.7,175.1,345.7,175.2C345.7,175.2,345.7,175.2,345.7,175.2z M345.8,175C345.8,175,345.8,175,345.8,175
	C345.8,175,345.8,175,345.8,175z M345.9,175.1C345.9,175.1,345.9,175.1,345.9,175.1C346,175.1,345.8,175.3,345.9,175.1z
	 M346.5,173.9c-0.1,0.1-0.1,0.2-0.2,0.3c0,0.1-0.3,0.4-0.2,0.3c0.1,0.1,0.3-0.2,0.2-0.3C346.4,174.1,346.5,174.1,346.5,173.9
	C346.6,174,346.6,174,346.5,173.9C346.6,173.9,346.6,173.9,346.5,173.9c0.1,0,0.1-0.1,0.1-0.1C346.6,173.8,346.5,173.9,346.5,173.9z
	 M346.4,173.8C346.3,174,346.5,173.9,346.4,173.8C346.4,173.8,346.4,173.8,346.4,173.8z M346.6,174C346.6,174,346.6,174,346.6,174
	C346.6,174,346.6,174,346.6,174z M347.8,182.9C347.8,183,347.8,182.9,347.8,182.9C347.8,182.9,347.8,182.9,347.8,182.9z
	 M348.6,176.6C348.5,176.6,348.5,176.6,348.6,176.6C348.5,176.6,348.6,176.7,348.6,176.6z"/>
<path d="M351.6,170.7c0-0.2,0.1,0.2,0.2,0c0-0.2,0.2,0.1,0.3,0.2c0.1-0.2,0.2,0.2,0.2,0.2c0,0.2,0.3-0.2,0.3-0.1
	c0.1,0.1,0,0.1,0.1,0.2c0.1-0.2,0.1-0.1,0.2,0.1c0-0.1,0.1-0.1,0.2-0.1c0,0,0,0,0,0c0,0,0,0,0,0c0.1,0.1,0.1,0.2,0.1,0.3
	c0.1,0.2,0.1,0.4,0.1,0.6c0,0,0,0,0,0c0,0,0,0,0,0c0,0,0,0,0,0.1c0,0.2,0.1,0.1,0.1,0.2c0,0.1,0,0.1,0,0.2c0.1,0.1,0,0.1,0,0.1
	c0,0.1-0.1,0.3,0.1,0.4c-0.1,0-0.1,0.1,0,0.4c0,0,0.1,0.1,0.1,0.3c-0.2,0.1,0,0,0.1,0.2c-0.1,0.1,0,0.2,0,0.4
	c0.1,0.6,0.1,1.3,0.3,1.9c0,0.4,0.1,0.4,0.1,0.1c0.3-1.8,0.8-3.5,1.3-5.2c0.1-0.3,0.2-0.6,0.4-0.9c0,0.2,0.1-0.1,0.2,0
	c0.1,0.3,0.1-0.1,0.2,0.1c0-0.1,0.2-0.1,0.1,0.1c-0.1,0,0,0.2,0.1,0.2c0,0,0.1,0.1,0.2,0.2c0,0.2,0.2,0.1,0.2,0.2
	c0.2,0.1,0.2,0.4,0.2,0.4c0.1-0.2,0.1,0.2,0.1,0.2c-0.1,0.3,0.2,0,0,0.3c-0.1,0.2,0,0.4,0,0.5c0,0.1-0.1,0.2-0.1,0.2
	c0,0,0.2,0.2,0,0.3c-0.1,0.1-0.1,0.2,0,0.3c-0.2,0.1,0,0.3-0.1,0.4c0.1,0,0,0-0.1,0.1c0.2,0.2-0.1,0.2-0.1,0.5c0,0.1-0.1,0.1,0,0.3
	c-0.1,0.2,0,0.4-0.1,0.6c0.1,0.3-0.1,0.2,0,0.5c0.1,0.2,0,0.1-0.1,0.2c0,0,0,0,0,0c0,0,0,0.1,0,0c0,0,0,0,0,0c0,0,0,0,0,0
	c0,0.1,0,0,0,0.2c-0.1,0,0.1,0.1,0,0.2c0,0.1-0.1,0.2,0,0.2c-0.1,0.6-0.2,1.3-0.2,1.9c-0.1,0.4-0.1,0.8-0.1,1.2c0,0,0,0,0,0
	c0,0,0,0,0,0c0,0,0,0.1,0,0.1c0,0.1,0,0.4,0,0.5c0,0.1,0,0.6,0,0.8c0,0.1,0,0.3,0,0.4c0.1,0.1-0.1,0.1,0,0.2c0,0.1-0.1,0.3-0.1,0.3
	c0.1,0,0.2,0.4,0,0.1c-0.2,0.2-0.1-0.2-0.3-0.3c-0.1,0.2,0,0-0.1,0.1c0,0.3-0.1-0.2-0.2,0c0.2,0.2,0.1,0.4,0,0c-0.3,0,0-0.1-0.1-0.1
	c-0.1,0-0.3,0.3-0.3,0.1c0,0.1-0.1-0.1-0.3-0.1c-0.1-0.1-0.2,0-0.2-0.2c0,0.2-0.2,0.2-0.3,0.4c0-0.1-0.3-0.1-0.4-0.4
	c-0.1,0-0.7,0-0.8-0.4c-0.7-1-0.9-2.2-1.2-3.4c-0.1,0.1-0.1,0.6-0.1,0.9c0,0.2,0,0.3-0.1,0.5c0,0.1,0,0.2,0,0.3c0,0.1-0.1,0.3,0,0.5
	c-0.1,0.1,0,0.1-0.1,0.3c0,0.1,0,0.5,0,0.5c0,0.2,0,0.5,0,0.7c0,0.2,0,0.5,0,0.6c0.2,0.2-0.2,0.4,0,0.4c-0.1,0.2,0.1,0.2,0,0.3
	c-0.1,0.2-0.1-0.2-0.2,0.1c-0.1-0.2-0.2-0.1-0.1,0.1c0.1,0.1-0.2,0.1-0.1,0c-0.1-0.3-0.1,0.1-0.2-0.1c-0.1-0.1,0,0.1-0.2,0
	c-0.1,0.2-0.2-0.1-0.2,0.1c0,0,0,0,0,0c0,0,0,0,0,0c-0.1-0.1-0.1,0-0.2,0c0,0,0,0,0,0c0,0,0,0,0,0c0,0-0.1,0-0.1-0.1
	c0-0.2-0.2-0.2-0.2,0c-0.3,0.1-0.3,0-0.5,0.1c0-0.1,0-0.4-0.1-0.5c0-3.4,0.5-6.8,1.4-10.1c0.2-0.5,0.2-1,0.5-1.4
	c0-0.4,0.1,0,0.1-0.2c0.1,0,0.2-0.1,0.3-0.1C351.4,170.6,351.6,170.8,351.6,170.7z M350,182.9C350,182.9,350,182.9,350,182.9
	C350,182.9,350,182.9,350,182.9z M350.2,182.8C350.2,182.8,350.2,182.8,350.2,182.8C350.2,182.9,350.1,182.9,350.2,182.8z
	 M351.4,183.3c-0.1,0.1-0.3-0.2-0.2-0.3C351.3,183.1,351.4,183.1,351.4,183.3z M351.6,179.6C351.6,179.6,351.6,179.6,351.6,179.6
	C351.6,179.6,351.6,179.5,351.6,179.6z M356.1,182.3C356.1,182.2,356.1,182.2,356.1,182.3C356.1,182.3,356.1,182.3,356.1,182.3
	c0.1,0.1-0.1,0.1-0.1-0.1C356,182.2,356,182.2,356.1,182.3z M356.1,179.6C356.1,179.6,356.1,179.6,356.1,179.6
	C356.1,179.6,356.1,179.6,356.1,179.6z"/>
<path d="M363.1,170.3c0.4,0.1,0.6,0.4,0.8,0.5c0.2,0.2,0.3,0.4,0.4,0.5c0.1,0.1,0,0.1,0.1,0.2c0,0.1,0.3,0.3,0.2,0.4
	c0,0.2,0.2,0.6,0.1,0.4c0,0,0,0.1,0,0.1c-0.1,0,0,0,0,0c0,0.1,0.1,0.2,0.1,0.3c0.1,0.3,0.2,0.5,0.1,0.8c0,0.3,0.2,0.6,0.1,0.8
	c0,0.2-0.1,0.6-0.1,0.8c-0.1,0.4-0.1,0.4-0.2,0.8c-0.1,0.2-0.1,0.4-0.2,0.6c0,0,0-0.2-0.1,0.1c0.1,0.1,0,0.3,0,0.4
	c-0.1,0.1-0.2,0.4-0.1,0.1c0,0.2-0.3,0.5-0.2,0.3c0-0.1-0.2,0.3-0.1,0.3c-0.2,0.1-0.1,0.4-0.2,0.2c-0.1,0.1,0,0.3-0.1,0.2
	c0,0.1-0.1,0-0.1,0.1c0,0-0.1,0.1,0,0.1c0,0,0,0,0,0c0,0,0,0,0,0c0,0,0,0,0,0c-0.1,0.1-0.1,0.1-0.2,0.2c0,0.1,0.1-0.2,0.1,0
	c-0.2,0.3-0.3,0.6-0.5,0.8c-0.1,0.2-0.2,0.3-0.3,0.5c0.1,0.1,0,0-0.1,0.3c-0.1,0-0.2,0.2-0.3,0.4c0,0,0,0,0,0c0,0,0,0,0,0
	c0,0,0,0.1,0,0.1c0,0,0,0.1-0.1,0.2c-0.2,0.2-0.4,0.4-0.6,0.6c-0.1,0.1-0.1,0.1-0.1,0.2c-0.1,0.1-0.1,0.1-0.2,0.2
	c-0.1,0.1-0.4,0.3-0.5,0.4c-0.1,0.1-0.4,0.2-0.6,0.3c0,0-0.3,0.2-0.3,0c-0.2,0,0.4-0.1,0.5-0.2c0.1-0.1,0.3-0.3,0.1-0.3
	c-0.3-0.1-0.1,0.1-0.2,0.2c-0.1,0-0.1-0.2-0.2-0.1c-0.1,0-0.4,0.1-0.3,0.1c-0.2,0-0.3,0.1-0.4-0.1c-0.1,0.1-0.4,0-0.5-0.2
	c-0.2-0.1-0.6-0.1-0.6-0.4c0-0.2-0.2-0.1-0.4-0.2c-0.2-0.1-0.2-0.3-0.4-0.3c0.1-0.2,0.1-0.8,0.1-1.2c0.2-1.8,0.5-3.6,1-5.3
	c-0.1,0,0.2-0.4,0.1-0.4c0,0-0.2,0.1-0.3,0c-0.2-0.1,0.1-0.2,0-0.2c-0.3,0,0-0.4-0.2-0.4c-0.2,0-0.1-0.2-0.2-0.2
	c0-0.2,0-0.2-0.1-0.3c0-0.1,0.2-0.2,0-0.2c0-0.2-0.3-0.1-0.4-0.3c-0.3-0.2,0-0.4,0.1-0.4c0.2-0.3,0.5-0.6,0.8-0.8
	c0.9-0.6,2-1.1,3.1-1.1C362.1,170.1,362.6,170.1,363.1,170.3z M358.2,173.6C358.3,173.8,358.5,173.7,358.2,173.6
	C358.3,173.6,358.2,173.6,358.2,173.6z M359.6,182.4c-0.1,0.1-0.1,0.2-0.1,0.1c-0.1,0-0.2,0.1-0.2-0.2
	C359.4,182.4,359.5,182.3,359.6,182.4z M361.2,172.5c-0.2,0,0,0.1,0,0.1c0,0,0,0,0,0c-0.1,0.1,0,0,0,0c0,0,0,0-0.1,0.1
	c-0.1,0.1,0.1,0.2,0,0.3c0-0.2-0.1,0.3-0.1,0.4c-0.1,0.1,0,0.3,0,0.4c0.1,0.1-0.1,0.3-0.1,0.5c-0.1,0.1-0.2,0.6,0,0.5
	c-0.1,0.2-0.1,0.4-0.2,0.7c0,0.3-0.2,0.7-0.1,0.9c0,0.2,0,0.4-0.2,0.5c0,0.1-0.1,0.2,0,0.3c0.2-0.2-0.1,0.1,0,0.1c0,0,0,0,0,0.1
	c0,0,0,0,0,0c-0.1,0,0,0,0,0c0,0.1-0.1,0.1-0.1,0.3c0,0.2,0,0.4-0.1,0.5c-0.1,0.2,0,0.4-0.1,0.5c0,0.1,0.1,0.4-0.1,0.2
	c0,0.2-0.1,0.7-0.1,0.7c0,0.1,0.1,0,0.3-0.2c1.3-1.5,2.4-3.1,3.2-4.9c0.1-0.3,0.5-1.1,0.2-1.2c0.1,0,0.1-0.1,0-0.1
	c-0.3,0,0.1-0.1-0.1-0.2c-0.2-0.1-0.3-0.1-0.5-0.1c-0.2-0.1-0.2,0-0.4-0.1c-0.2,0-0.5,0.1-0.6,0c-0.2,0.1-0.3,0-0.5,0
	c-0.2,0.1-0.2,0.1-0.4,0.1C360.9,172.8,361.4,172.6,361.2,172.5C361.2,172.5,361.2,172.5,361.2,172.5z M360.1,179
	C360.1,179.1,360,179,360.1,179C360.1,179,360.1,179,360.1,179z M360.4,182C360.5,182,360.2,182.1,360.4,182
	C360.4,182,360.4,182,360.4,182C360.4,182,360.4,182,360.4,182C360.4,181.9,360.4,182,360.4,182z M360.4,177.2
	C360.4,177.2,360.4,177.2,360.4,177.2C360.4,177.2,360.4,177.2,360.4,177.2z M360.7,181.9c-0.1,0.2,0.2-0.1,0.2-0.1
	C360.8,181.8,360.8,181.9,360.7,181.9z M361.2,172.6C361.2,172.6,361.2,172.6,361.2,172.6L361.2,172.6z M361.3,172.5
	C361.3,172.5,361.5,172.5,361.3,172.5C361.3,172.4,361.3,172.5,361.3,172.5z M361.5,172.3C361.3,172.3,361.3,172.5,361.5,172.3
	C361.5,172.4,361.8,172.4,361.5,172.3C361.6,172.2,361.5,172.4,361.5,172.3z M362,172.4c-0.1,0.1-0.4-0.1-0.5,0.1
	C361.5,172.6,361.8,172.4,362,172.4c0.1,0,0.2,0.1,0.4,0.1c0.2-0.1-0.1-0.1-0.1-0.1C362.2,172.3,362.1,172.4,362,172.4z M362,172.2
	C362,172.2,362,172.2,362,172.2C361.9,172.2,361.9,172.2,362,172.2c-0.2,0.1-0.4,0-0.2,0.2c0.1-0.2,0.2,0,0.3,0c0.2,0,0.1-0.1,0.2,0
	c0,0,0,0,0,0c0,0,0,0,0,0C362.2,172.2,362.2,172.2,362,172.2C362,172.2,362,172.2,362,172.2z M362.5,172.3
	C362.5,172.6,362.6,172.4,362.5,172.3c0,0,0.1-0.1-0.2-0.1C362.2,172.2,362.4,172.4,362.5,172.3z M362.3,180.5
	C362.3,180.5,362.3,180.5,362.3,180.5C362.4,180.5,362.3,180.5,362.3,180.5z M362.4,172.6C362.3,172.6,362.6,172.6,362.4,172.6
	C362.4,172.6,362.4,172.6,362.4,172.6z M362.8,172.5c0.2,0.1,0.4,0.1,0.7,0.2c0.2,0,0.1-0.1,0.2,0.1c0.1,0,0.3,0.1,0.2,0
	c0-0.2-0.1-0.2-0.2-0.3c-0.2-0.1-0.2,0-0.4-0.1c0,0.1-0.2,0.1-0.4,0C362.6,172.4,362.8,172.6,362.8,172.5z M363.4,172.8
	C363.7,172.9,363.2,172.9,363.4,172.8C363.3,172.8,363.3,172.8,363.4,172.8z M363.8,178.4C363.8,178.4,363.8,178.4,363.8,178.4
	C363.8,178.4,363.8,178.4,363.8,178.4z M363.9,178.2C363.9,178.2,363.9,178.2,363.9,178.2C363.9,178.2,364,178.2,363.9,178.2z
	 M364.8,172.4C364.8,172.4,364.8,172.4,364.8,172.4C364.8,172.4,364.8,172.4,364.8,172.4z"/>
<image style="overflow:visible;opacity:0.25;enable-background:new    ;" width="2146" height="1167" xlink:href="4E778BF3AA374A.png"  transform="matrix(0.239 0 0 0.239 -46.577 9.8191)">
</image>
<path class="st0" d="M71.8,192.5c-3.4,0.2-6.8,0.4-10.1,0.6c-0.4-6.8-0.8-13.6-1.2-20.4c-3.3,7-6.6,14-10,20.9
	c-3.4,0.1-6.8,0.2-10.1,0.2c1-16.4,1.9-32.8,2.9-49.2c3.3,0,6.6-0.1,10-0.2c-0.6,9.6-1.3,19.2-1.9,28.8c3.2-6.4,6.3-12.8,9.5-19.3
	c2.4-0.1,4.8-0.3,7.2-0.4c0.5,6.3,1,12.5,1.5,18.8c3.4-9.8,6.9-19.6,10.3-29.5c3.3-0.3,6.6-0.6,9.9-0.9
	C83.8,158.7,77.8,175.7,71.8,192.5z"/>
<path class="st0" d="M123.1,171.9c-0.6,3.1-2.2,6.2-4.3,8.9c-2.1,2.7-4.7,4.9-7.6,6.4c-1.9,1-4,1.7-6,1.9c-3,0.4-5.7-0.2-7.7-1.6
	c-2-1.4-3.4-3.4-4-6.1c-0.4-1.7-0.4-3.7,0.1-5.8c2.5-11.9,5-23.9,7.4-35.9c3.3-0.4,6.6-0.8,9.8-1.3c-2.5,12-5,24-7.4,36
	c-0.2,1.1-0.1,2,0.2,2.7c0.4,0.7,1,1.3,1.8,1.6c0.5,0.2,1.1,0.2,1.8,0.2c1-0.1,2-0.6,2.9-1.2c0.9-0.6,1.7-1.5,2.2-2.5
	c0.4-0.6,0.7-1.3,0.8-2c2.1-10.3,4.3-20.7,6.4-31.1c0.3-1.7,0.7-3.4,1-5.1c3.3-0.5,6.6-1,9.8-1.5
	C128.1,147.7,125.6,159.8,123.1,171.9z"/>
<path class="st0" d="M167.1,144.6c-0.4,1.7-0.7,3.4-1.1,5.1c-0.6,3.2-2.2,6.3-4.3,9.1c-1.3,1.7-2.9,3.3-4.6,4.6
	c0.9,5.7,1.7,11.3,2.6,17c-3.5,0.6-7,1.3-10.5,1.9c-0.7-4.8-1.5-9.6-2.2-14.4c-1.3,0.2-2.6,0.5-3.9,0.7c-1.1,5.1-2.1,10.2-3.1,15.3
	c-3.3,0.6-6.6,1.1-9.8,1.6c3.5-16.9,7-33.9,10.5-50.9c4.9-0.8,9.8-1.7,14.8-2.6c3-0.6,5.7-0.1,7.7,1.1c2,1.2,3.4,3.2,4,5.7
	C167.5,140.5,167.5,142.5,167.1,144.6z"/>
<path class="st0" d="M185.6,165.6c5.5-1.1,11-2.2,16.5-3.3c-0.7,3.4-1.4,6.8-2.1,10.2c-10.8,2.2-21.6,4.3-32.5,6.4
	c9.4-14.9,18.7-29.9,28-44.8c-5.5,1.1-11.1,2.2-16.6,3.3c0.7-3.4,1.4-6.8,2.1-10.2c10.9-2.1,21.7-4.3,32.6-6.5
	C204.3,135.6,194.9,150.6,185.6,165.6z"/>
<path class="st0" d="M249.1,128.4c-0.6,3.1-2.2,6.3-4.3,9.1c-0.1,0.1-0.1,0.2-0.2,0.3c1.4,1.2,2.4,2.9,2.8,4.9
	c0.4,1.7,0.4,3.6-0.1,5.8c-0.6,3.2-2.2,6.3-4.3,9.1c-2.1,2.8-4.7,5.1-7.6,6.8c-1.9,1.1-4,1.9-6,2.4c-4.9,1-9.8,2-14.8,3
	c3.5-17.1,7-34.2,10.5-51.3c4.1-0.8,8.2-1.6,12.3-2.4c3-0.6,5.7-0.2,7.7,1c2,1.2,3.4,3.2,4,5.7C249.6,124.3,249.6,126.2,249.1,128.4
	z"/>
<path class="st0" d="M286.6,140.7c-0.6,3.1-2.2,6.3-4.3,9c-2.1,2.7-4.7,5-7.6,6.6c-1.9,1.1-4,1.9-6,2.2c-3,0.5-5.7,0.1-7.7-1.1
	c-2-1.2-3.4-3.2-4-5.8c-0.4-1.7-0.4-3.6,0.1-5.8c2.5-12.1,5-24.3,7.5-36.4c3.3-0.6,6.6-1.2,9.9-1.8c-2.5,12.1-5,24.2-7.5,36.4
	c-0.2,1.1-0.1,2,0.2,2.7c0.4,0.7,1,1.2,1.8,1.5c0.5,0.2,1.1,0.2,1.8,0.1c1-0.2,2-0.7,2.9-1.4c0.9-0.7,1.7-1.6,2.2-2.6
	c0.4-0.7,0.6-1.3,0.8-2.1c2.1-10.4,4.3-20.8,6.4-31.2c0.4-1.7,0.7-3.4,1-5.1c3.3-0.5,6.5-1.1,9.8-1.6
	C291.5,116.6,289.1,128.6,286.6,140.7z"/>
<path class="st0" d="M332,115.6c-0.4,1.7-0.7,3.3-1,5c-0.6,3.1-2.2,6.1-4.3,8.7c-1.3,1.6-2.9,3.1-4.6,4.3c0.9,5.7,1.7,11.4,2.6,17.2
	c-3.5,0.4-7,0.8-10.5,1.2c-0.7-4.8-1.5-9.7-2.2-14.5c-1.3,0.2-2.6,0.4-3.9,0.5c-1,5.1-2.1,10.1-3.1,15.2c-3.3,0.5-6.6,0.9-9.8,1.4
	c3.5-16.9,7-33.8,10.5-50.7c4.9-0.7,9.8-1.3,14.8-1.9c3-0.4,5.7,0.3,7.7,1.7c2,1.4,3.4,3.5,4,6.1C332.5,111.6,332.5,113.6,332,115.6
	z"/>
<path class="st0" d="M373,111.8c-3.3,0.1-6.6,0.2-9.8,0.3c0.2-1.1,0.1-2-0.2-2.7s-1-1.4-1.8-1.7c-0.5-0.2-1.1-0.3-1.8-0.3
	c-1,0.1-2,0.4-2.9,1c-0.9,0.6-1.7,1.4-2.2,2.3c-0.4,0.6-0.6,1.3-0.8,2c-1.5,7.1-3,14.1-4.4,21.2c-0.2,1.1-0.1,2,0.2,2.7
	c0.4,0.8,1,1.4,1.8,1.7c0.5,0.2,1.1,0.3,1.8,0.3c1-0.1,2-0.4,2.9-1c0.9-0.6,1.7-1.4,2.2-2.3c0.4-0.6,0.6-1.3,0.8-2
	c0.4-1.9,0.8-3.7,1.2-5.6c-1.6,0.1-3.3,0.2-4.9,0.3c0.7-3.3,1.4-6.6,2.1-10c4.9-0.3,9.8-0.4,14.8-0.6c-1.1,5.2-2.2,10.3-3.3,15.5
	c-0.6,3.1-2.2,6-4.3,8.4c-2.1,2.4-4.7,4.4-7.6,5.7c-1.9,0.9-4,1.4-6,1.5c-3,0.2-5.7-0.5-7.7-2c-2-1.4-3.4-3.5-4-6.2
	c-0.4-1.7-0.4-3.7,0-5.8c1.5-7.1,3-14.2,4.4-21.3c0.6-3.1,2.2-6.1,4.3-8.6c2.1-2.5,4.7-4.5,7.6-5.8c1.9-0.9,4-1.4,6-1.5
	c3-0.1,5.7,0.7,7.7,2.2c2,1.5,3.4,3.7,4,6.4C373.5,107.9,373.5,109.8,373,111.8z"/>
<g>
	<path class="st1" d="M302,108.9c-0.4-0.4-5.8-6.5-5.8-6.5v0c-0.4-0.4-0.9-0.6-1.6-0.5c-3.3,0.5-6.5,1-9.8,1.6
		c-1.4,0.2-2.7,1.6-3,2.9c-0.3,1.3-0.5,2.7-0.8,4c-1.7-1.9-4.4-4.8-4.4-4.8c-0.4-0.4-0.9-0.6-1.6-0.5c-3.3,0.6-6.6,1.2-9.9,1.8
		c-1.4,0.2-2.7,1.6-3,3c-2.5,12.1-5,24.3-7.4,36.4c-0.5,2.4-0.5,4.7-0.1,6.7c0.4,2,1.3,3.7,2.6,5c-0.1-0.1-0.2-0.1-0.2-0.1
		c0,0,5.5,6,5.8,6.3c0.6,0.7,1.4,1.4,2.2,1.9c1.2,0.7,2.6,1.2,4.1,1.5c1.5,0.2,3.1,0.2,4.9-0.1c1.2-0.2,2.3-0.5,3.5-0.9
		c1.2-0.4,2.3-1,3.5-1.6c1.7-0.9,3.3-2.1,4.8-3.4s2.9-2.7,4.1-4.3c1.3-1.6,2.3-3.3,3.2-5.1c0.8-1.8,1.5-3.5,1.8-5.3
		c1.2-6,2.5-12.1,3.7-18.1s2.5-12.1,3.7-18.1C302.5,109.9,302.3,109.3,302,108.9z M286.6,140.7c-0.6,3.1-2.2,6.3-4.3,9
		c-2.1,2.7-4.7,5-7.6,6.6c-1.9,1.1-4,1.9-6,2.2c-3,0.5-5.7,0.1-7.7-1.1c-2-1.2-3.4-3.2-4-5.8c-0.4-1.7-0.4-3.6,0.1-5.8
		c2.5-12.1,5-24.3,7.5-36.4c3.3-0.6,6.6-1.2,9.9-1.8c-2.5,12.1-5,24.2-7.5,36.4c-0.2,1.1-0.1,2,0.2,2.7c0.4,0.7,1,1.2,1.8,1.5
		c0.5,0.2,1.1,0.2,1.8,0.1c1-0.2,2-0.7,2.9-1.4c0.9-0.7,1.7-1.6,2.2-2.6c0.4-0.7,0.6-1.3,0.8-2.1c2.1-10.4,4.3-20.8,6.4-31.2
		c0.4-1.7,0.7-3.4,1-5.1c3.3-0.5,6.5-1.1,9.8-1.6C291.5,116.6,289.1,128.6,286.6,140.7z"/>
	<path class="st1" d="M138.5,140c-0.4-0.4-5.8-6.4-5.8-6.4v0c-0.4-0.4-0.9-0.6-1.6-0.5c-3.3,0.5-6.6,1-9.8,1.5
		c-1.4,0.2-2.7,1.5-3,2.9c-0.3,1.3-0.6,2.7-0.8,4c-1.7-1.9-4.3-4.9-4.4-5c-0.3-0.4-0.9-0.6-1.6-0.5c-3.3,0.4-6.6,0.9-9.8,1.3
		c-1.4,0.2-2.7,1.4-3,2.8c-2.5,12-5,23.9-7.4,35.9c-0.5,2.4-0.5,4.6-0.1,6.7c0.4,2,1.3,3.8,2.6,5.2c-0.1-0.1-0.2-0.2-0.2-0.2
		c0,0,5.5,6.4,5.8,6.7c0.6,0.8,1.4,1.5,2.2,2c1.2,0.8,2.6,1.4,4.1,1.7c1.5,0.3,3.2,0.3,4.9,0.1c1.2-0.2,2.3-0.4,3.5-0.8
		c1.2-0.4,2.3-0.9,3.5-1.5c1.7-0.9,3.3-2,4.8-3.3s2.9-2.7,4.1-4.3c1.3-1.6,2.3-3.3,3.2-5.1c0.8-1.8,1.5-3.5,1.8-5.3
		c1.2-6,2.5-12.1,3.7-18.1c1.2-6.1,2.5-12.1,3.7-18.1C139,141,138.9,140.4,138.5,140z M123.1,171.9c-0.6,3.1-2.2,6.2-4.3,8.9
		c-2.1,2.7-4.7,4.9-7.6,6.4c-1.9,1-4,1.7-6,1.9c-3,0.4-5.7-0.2-7.7-1.6c-2-1.4-3.4-3.4-4-6.1c-0.4-1.7-0.4-3.7,0.1-5.8
		c2.5-11.9,5-23.9,7.4-35.9c3.3-0.4,6.6-0.8,9.8-1.3c-2.5,12-5,24-7.4,36c-0.2,1.1-0.1,2,0.2,2.7c0.4,0.7,1,1.3,1.8,1.6
		c0.5,0.2,1.1,0.2,1.8,0.2c1-0.1,2-0.6,2.9-1.2c0.9-0.6,1.7-1.5,2.2-2.5c0.4-0.6,0.7-1.3,0.8-2c2.1-10.3,4.3-20.7,6.4-31.1
		c0.3-1.7,0.7-3.4,1-5.1c3.3-0.5,6.6-1,9.8-1.5C128.1,147.7,125.6,159.8,123.1,171.9z"/>
	<g>
		<path class="st1" d="M235.5,146.1c-0.5-0.1-1.1-0.2-1.8,0c-1.6,0.3-3.3,0.6-4.9,1c-0.7,3.4-1.4,6.8-2.1,10.3
			c1.6-0.3,3.3-0.7,4.9-1c1-0.2,2-0.7,2.9-1.4c0.9-0.7,1.7-1.6,2.2-2.6c0.4-0.7,0.6-1.4,0.8-2.1c0.2-1.1,0.1-2-0.2-2.7
			C236.9,146.9,236.3,146.4,235.5,146.1z"/>
		<path class="st1" d="M237.2,126.1c-0.5-0.2-1.1-0.2-1.8,0c-0.8,0.2-1.6,0.3-2.4,0.5c-0.7,3.4-1.4,6.8-2.1,10.2
			c0.8-0.2,1.6-0.3,2.4-0.5c1.1-0.2,2-0.7,2.9-1.4c0.9-0.7,1.7-1.6,2.2-2.6c0.4-0.7,0.6-1.3,0.8-2.1c0.2-1.1,0.1-2-0.3-2.7
			C238.7,126.8,238,126.3,237.2,126.1z"/>
		<path class="st1" d="M257.4,134.2c0.2-1.2,0.4-2.4,0.4-3.5c0-1.1-0.1-2.2-0.3-3.2c-0.3-1.5-0.9-2.8-1.7-3.9
			c-0.2-0.3-0.5-0.6-0.8-0.9c0,0,0,0,0,0c-2-2.2-4-4.4-6.1-6.6c0,0,0,0,0,0c-0.6-0.6-1.2-1.1-1.9-1.6c-1.2-0.7-2.6-1.2-4.1-1.4
			c-1.5-0.2-3.2-0.1-4.9,0.2c-2.1,0.4-4.1,0.8-6.2,1.2s-4.1,0.8-6.1,1.2c-0.7,0.1-1.4,0.5-1.9,1.1c-0.5,0.6-0.9,1.2-1.1,2
			c-1.7,8.6-3.5,17.1-5.2,25.7s-3.5,17.1-5.2,25.7c-0.1,0.7,0,1.3,0.4,1.7c0,0,0,0,0,0c1.9,2.1,3.9,4.1,5.8,6.2
			c0.4,0.4,0.9,0.5,1.6,0.4c2.5-0.5,4.9-1,7.4-1.5c2.5-0.5,4.9-1,7.4-1.5c1.2-0.2,2.3-0.6,3.5-1c1.2-0.5,2.3-1,3.5-1.7
			c1.7-1,3.3-2.1,4.8-3.5c1.5-1.3,2.9-2.8,4.1-4.4c1.3-1.7,2.3-3.4,3.2-5.2c0.8-1.8,1.4-3.6,1.8-5.4c0.2-1.2,0.4-2.4,0.4-3.5
			c0-1.1-0.1-2.2-0.3-3.2c-0.2-0.9-0.5-1.6-0.8-2.4c-0.4-0.7-0.8-1.4-1.3-2.1c0.9-1.4,1.7-2.9,2.3-4.4
			C256.6,137.1,257.1,135.6,257.4,134.2z M249.1,128.4c-0.6,3.1-2.2,6.3-4.3,9.1c-0.1,0.1-0.1,0.2-0.2,0.3c1.4,1.2,2.4,2.9,2.8,4.9
			c0.4,1.7,0.4,3.6-0.1,5.8c-0.6,3.2-2.2,6.3-4.3,9.1c-2.1,2.8-4.7,5.1-7.6,6.8c-1.9,1.1-4,1.9-6,2.4c-4.9,1-9.8,2-14.8,3
			c3.5-17.1,7-34.2,10.5-51.3c4.1-0.8,8.2-1.6,12.3-2.4c3-0.6,5.7-0.2,7.7,1c2,1.2,3.4,3.2,4,5.7
			C249.6,124.3,249.6,126.2,249.1,128.4z"/>
	</g>
	<path class="st1" d="M381.4,112.4c-0.3-1.5-0.9-3-1.6-4.2c-0.3-0.5-0.7-1-1.1-1.5c0,0,0,0,0,0c-1.8-2.3-3.6-4.5-5.4-6.8
		c0,0,0,0,0,0c-0.7-0.9-1.4-1.7-2.3-2.4c-1.2-0.9-2.6-1.6-4.1-2.1c-1.5-0.4-3.2-0.6-4.9-0.6c-1.2,0.1-2.3,0.2-3.5,0.5
		c-1.2,0.3-2.3,0.7-3.5,1.2c-1.7,0.7-3.3,1.7-4.8,2.9s-2.9,2.5-4.1,3.9c-1.3,1.5-2.3,3.2-3.2,4.8c-0.9,1.7-1.5,3.4-1.8,5.2
		c-0.7,3.6-1.5,7.1-2.2,10.6s-1.5,7.1-2.2,10.6c-0.2,1.2-0.4,2.4-0.4,3.5c0,1.1,0.1,2.2,0.3,3.2c0.3,1.5,0.9,2.9,1.7,4.1
		c0.3,0.4,0.6,0.8,0.9,1.2c0,0,0,0-0.1,0c2,2.3,3.9,4.6,5.9,6.9l0,0c0.6,0.7,1.3,1.4,2,1.9c1.2,0.9,2.6,1.5,4.1,1.9
		c1.5,0.4,3.2,0.6,4.9,0.4c1.2-0.1,2.3-0.2,3.5-0.5s2.3-0.7,3.5-1.2c1.7-0.7,3.3-1.6,4.8-2.7c1.5-1.1,2.9-2.4,4.1-3.8
		c1.3-1.5,2.3-3,3.2-4.7c0.8-1.6,1.4-3.3,1.8-5.1c0.5-2.6,1.1-5.1,1.6-7.7c0.5-2.6,1.1-5.1,1.6-7.7c0.1-0.7,0-1.3-0.3-1.7
		c-0.1-0.1-0.5-0.7-1.1-1.4c0.5-0.1,1.1-0.3,1.5-0.7c0.5-0.4,0.9-1.1,1.1-1.7c0.2-1.2,0.4-2.3,0.4-3.4
		C381.7,114.6,381.6,113.5,381.4,112.4z M373,111.8c-3.3,0.1-6.6,0.2-9.8,0.3c0.2-1.1,0.1-2-0.2-2.7s-1-1.4-1.8-1.7
		c-0.5-0.2-1.1-0.3-1.8-0.3c-1,0.1-2,0.4-2.9,1c-0.9,0.6-1.7,1.4-2.2,2.3c-0.4,0.6-0.6,1.3-0.8,2c-1.5,7.1-3,14.1-4.4,21.2
		c-0.2,1.1-0.1,2,0.2,2.7c0.4,0.8,1,1.4,1.8,1.7c0.5,0.2,1.1,0.3,1.8,0.3c1-0.1,2-0.4,2.9-1c0.9-0.6,1.7-1.4,2.2-2.3
		c0.4-0.6,0.6-1.3,0.8-2c0.4-1.9,0.8-3.7,1.2-5.6c-1.6,0.1-3.3,0.2-4.9,0.3c0.7-3.3,1.4-6.6,2.1-10c4.9-0.3,9.8-0.4,14.8-0.6
		c-1.1,5.2-2.2,10.3-3.3,15.5c-0.6,3.1-2.2,6-4.3,8.4c-2.1,2.4-4.7,4.4-7.6,5.7c-1.9,0.9-4,1.4-6,1.5c-3,0.2-5.7-0.5-7.7-2
		c-2-1.4-3.4-3.5-4-6.2c-0.4-1.7-0.4-3.7,0-5.8c1.5-7.1,3-14.2,4.4-21.3c0.6-3.1,2.2-6.1,4.3-8.6c2.1-2.5,4.7-4.5,7.6-5.8
		c1.9-0.9,4-1.4,6-1.5c3-0.1,5.7,0.7,7.7,2.2c2,1.5,3.4,3.7,4,6.4C373.5,107.9,373.5,109.8,373,111.8z"/>
	<g>
		<path class="st1" d="M321.9,114c-0.4-0.7-1-1.3-1.8-1.6c-0.5-0.2-1.1-0.2-1.8-0.2c-1.6,0.2-3.3,0.4-4.9,0.6
			c-1,5.1-2.1,10.1-3.1,15.2c1.6-0.2,3.3-0.4,4.9-0.6c1-0.1,2-0.6,2.9-1.2s1.7-1.5,2.3-2.4c0.4-0.6,0.6-1.3,0.8-2
			c0.4-1.7,0.7-3.3,1-5h0c0,0,0,0,0,0C322.4,115.6,322.3,114.7,321.9,114z"/>
		<path class="st1" d="M340.4,115.5c-0.3-1.5-0.9-2.9-1.7-4.1c-0.8-1.2-6.9-8.3-6.9-8.3c0,0,0,0.1,0,0.1c-0.6-0.6-1.2-1.2-1.9-1.7
			c-2.4-1.7-5.5-2.3-9-1.9c-4.9,0.6-9.8,1.2-14.8,1.9c-1.4,0.2-2.7,1.5-3,2.9c-3.5,16.9-7,33.8-10.5,50.8c-0.1,0.7,0,1.3,0.4,1.7
			c0.2,0.2,5.4,6.1,5.8,6.5c0.4,0.4,0.9,0.6,1.6,0.5c1.6-0.2,3.3-0.5,4.9-0.7c1.6-0.2,3.3-0.4,4.9-0.7c0.7-0.1,1.4-0.5,1.9-1
			c0.5-0.5,1-1.2,1.1-1.9c0.2-1.1,0.5-2.3,0.7-3.4c1.6,1.9,3.8,4.4,4,4.5c0.1,0.1,0.2,0.2,0.3,0.3c0.3,0.2,0.8,0.4,1.3,0.3
			c1.7-0.2,3.5-0.4,5.2-0.6c1.7-0.2,3.5-0.4,5.2-0.6c0.4,0,0.8-0.2,1.2-0.4c0.4-0.2,0.7-0.5,1-0.9c0.3-0.4,0.5-0.8,0.6-1.1
			c0.1-0.4,0.2-0.8,0.1-1.2c-0.4-2.6-0.8-5.2-1.2-7.8s-0.8-5.2-1.2-7.8c0.7-0.6,1.3-1.1,1.9-1.7c0.6-0.6,1.2-1.2,1.7-1.9
			c1.3-1.5,2.3-3.2,3.2-4.9c0.8-1.7,1.5-3.4,1.8-5.2c0.2-0.8,0.4-1.7,0.5-2.5c0.2-0.8,0.4-1.7,0.5-2.5c0.2-1.2,0.4-2.3,0.4-3.5
			C340.7,117.6,340.6,116.6,340.4,115.5z M332,115.6c-0.4,1.7-0.7,3.3-1,5c-0.6,3.1-2.2,6.1-4.3,8.7c-1.3,1.6-2.9,3.1-4.6,4.3
			c0.9,5.7,1.7,11.4,2.6,17.2c-3.5,0.4-7,0.8-10.5,1.2c-0.7-4.8-1.5-9.7-2.2-14.5c-1.3,0.2-2.6,0.4-3.9,0.5
			c-1,5.1-2.1,10.1-3.1,15.2c-3.3,0.5-6.6,0.9-9.8,1.4c3.5-16.9,7-33.8,10.5-50.7c4.9-0.7,9.8-1.3,14.8-1.9c3-0.4,5.7,0.3,7.7,1.7
			c2,1.4,3.4,3.5,4,6.1C332.5,111.6,332.5,113.6,332,115.6z"/>
	</g>
	<g>
		<path class="st1" d="M157,143.8c-0.4-0.7-1-1.2-1.8-1.5c-0.5-0.2-1.1-0.2-1.8-0.1c-1.6,0.3-3.3,0.6-4.9,0.9
			c-1,5.1-2.1,10.2-3.1,15.3c1.6-0.3,3.3-0.6,4.9-0.9c1.1-0.2,2-0.7,2.9-1.4c0.9-0.7,1.7-1.6,2.3-2.6c0.4-0.6,0.6-1.3,0.8-2.1
			c0.4-1.7,0.7-3.4,1.1-5.1h0c0,0,0,0,0,0C157.5,145.4,157.4,144.5,157,143.8z"/>
		<path class="st1" d="M175.4,143.7c-0.3-1.5-0.9-2.8-1.7-3.9c-0.8-1.1-6.9-7.6-6.9-7.6s0,0.1,0,0.1c-0.6-0.6-1.2-1.1-1.9-1.5
			c-2.4-1.5-5.6-1.9-9-1.3c-4.9,0.9-9.8,1.8-14.8,2.6c-1.4,0.2-2.7,1.6-3,3c-3.5,17-7,33.9-10.5,50.9c-0.2,0.7,0,1.3,0.4,1.7
			c0.2,0.2,5.4,6.1,5.8,6.4c0.4,0.4,0.9,0.6,1.6,0.5c1.6-0.3,3.3-0.5,4.9-0.8c1.6-0.3,3.3-0.6,4.9-0.8c0.7-0.1,1.4-0.5,1.9-1.1
			c0.5-0.5,0.9-1.2,1.1-1.9c0.2-1.1,0.5-2.3,0.7-3.4c1.6,1.8,3.8,4.2,3.9,4.3c0.1,0.1,0.2,0.2,0.3,0.2c0.3,0.2,0.8,0.3,1.3,0.2
			c1.7-0.3,3.5-0.6,5.2-1c1.7-0.3,3.5-0.6,5.2-1c0.4-0.1,0.8-0.2,1.2-0.5c0.4-0.2,0.7-0.6,1-1c0.3-0.4,0.5-0.8,0.6-1.2
			c0.1-0.4,0.2-0.8,0.1-1.2c-0.4-2.6-0.8-5.1-1.2-7.7c-0.4-2.6-0.8-5.1-1.2-7.7c0.7-0.6,1.3-1.2,1.9-1.9c0.6-0.6,1.2-1.4,1.7-2.1
			c1.3-1.7,2.3-3.4,3.2-5.2c0.8-1.8,1.5-3.6,1.8-5.4c0.2-0.9,0.4-1.7,0.5-2.6c0.2-0.9,0.4-1.7,0.5-2.6c0.2-1.2,0.4-2.4,0.4-3.5
			C175.8,145.8,175.7,144.7,175.4,143.7z M167.1,144.6c-0.4,1.7-0.7,3.4-1.1,5.1c-0.6,3.2-2.2,6.3-4.3,9.1c-1.3,1.7-2.9,3.3-4.6,4.6
			c0.9,5.7,1.7,11.3,2.6,17c-3.5,0.6-7,1.3-10.5,1.9c-0.7-4.8-1.5-9.6-2.2-14.4c-1.3,0.2-2.6,0.5-3.9,0.7
			c-1.1,5.1-2.1,10.2-3.1,15.3c-3.3,0.6-6.6,1.1-9.8,1.6c3.5-16.9,7-33.9,10.5-50.9c4.9-0.8,9.8-1.7,14.8-2.6c3-0.6,5.7-0.1,7.7,1.1
			c2,1.2,3.4,3.2,4,5.7C167.5,140.5,167.5,142.5,167.1,144.6z"/>
	</g>
	<path class="st1" d="M221.8,125.1c-0.1-0.2-0.2-0.3-0.3-0.4c0,0,0,0,0,0c0,0,0,0,0,0c-1.9-2.1-3.9-4.1-5.8-6.2c0,0,0,0.1,0,0.1
		c-0.4-0.4-0.9-0.6-1.5-0.5c-10.9,2.2-21.7,4.4-32.6,6.5c-1.4,0.3-2.7,1.6-3,3c-0.7,3.4-1.4,6.8-2.1,10.2c-0.1,0.6,0,1.1,0.2,1.5
		c0,0,0,0,0,0c0,0,0.1,0.1,0.1,0.1s0.1,0.1,0.1,0.1c0.9,1,5.4,5.9,5.8,6.2c0.4,0.4,0.9,0.5,1.6,0.4c0.5-0.1,1.1-0.2,1.6-0.3
		c-6.8,10.8-13.5,21.6-20.3,32.3c-0.5,0.9-0.7,1.8-0.4,2.5c0.1,0.2,0.2,0.3,0.4,0.4c0,0-0.1,0-0.1,0.1c0,0,5.7,6.1,5.8,6.2
		c0.1,0.1,0.3,0.2,0.4,0.3c0.3,0.1,0.7,0.2,1.1,0.1c5.4-1,10.8-2.1,16.2-3.2c5.4-1.1,10.8-2.2,16.2-3.3c0.7-0.1,1.4-0.6,1.9-1.1
		c0.5-0.6,0.9-1.3,1.1-2c0.4-1.7,0.7-3.4,1-5.1c0.4-1.7,0.7-3.4,1.1-5.1c0.1-0.7,0-1.3-0.4-1.7c-0.4-0.4-5.8-6.2-5.8-6.2v0
		c-0.4-0.4-0.9-0.5-1.6-0.4c-0.5,0.1-1,0.2-1.5,0.3c2.5-4,5-8,7.5-12c4.2-6.8,8.5-13.6,12.8-20.5c0.3-0.4,0.4-0.9,0.5-1.3
		C222,125.8,221.9,125.4,221.8,125.1z M185.6,165.6c5.5-1.1,11-2.2,16.5-3.3c-0.7,3.4-1.4,6.8-2.1,10.2c-10.8,2.2-21.6,4.3-32.5,6.4
		c9.4-14.9,18.7-29.9,28-44.8c-5.5,1.1-11.1,2.2-16.6,3.3c0.7-3.4,1.4-6.8,2.1-10.2c10.9-2.1,21.7-4.3,32.6-6.5
		C204.3,135.6,194.9,150.6,185.6,165.6z"/>
	<path class="st1" d="M97.8,146.6c0-0.1-0.1-0.1-0.1-0.1c-0.2-0.2-5.7-6.6-5.7-6.6c-0.3-0.5-1-0.8-1.7-0.7c-3.3,0.4-6.6,0.7-9.9,1
		c-1.2,0.1-2.4,1.1-2.9,2.3c-1.5,4.2-2.9,8.4-4.4,12.6c-1.5-1.8-2.9-3.5-2.9-3.5c0,0,0,0.1-0.1,0.1c-0.3-0.5-0.8-0.8-1.6-0.8
		c-2.4,0.2-4.7,0.3-7.1,0.4c0-0.1,0-0.2,0-0.4c0-0.6-0.2-1.1-0.5-1.5c-0.3-0.4-5.7-6.9-5.7-6.9c0,0,0,0,0,0
		c-0.3-0.5-0.9-0.8-1.6-0.8c-3.3,0.1-6.6,0.2-10,0.2c-0.7,0-1.5,0.3-2,0.9c-0.6,0.5-0.9,1.3-1,2c-1,16.4-1.9,32.8-2.9,49.2
		c0,0.6,0.1,1.1,0.5,1.4c0,0,5.5,6.9,5.7,7.2c0,0.1,0.1,0.1,0.1,0.1c0.4,0.4,0.9,0.6,1.5,0.6c1.7,0,3.4-0.1,5.1-0.1
		c1.7-0.1,3.4-0.1,5.1-0.2c0.5,0,1.1-0.2,1.6-0.6c0.5-0.4,0.9-0.8,1.2-1.4c0.8-1.6,1.5-3.2,2.3-4.8c1.7,2,4.4,5.3,4.5,5.5
		c0.1,0.1,0.2,0.2,0.2,0.2c0.3,0.3,0.8,0.4,1.4,0.4c1.7-0.1,3.4-0.2,5.1-0.3c1.7-0.1,3.4-0.2,5.1-0.4c0.6-0.1,1.2-0.3,1.7-0.7
		c0.5-0.4,0.9-1,1.1-1.6c3-8.5,6-16.9,9-25.5s6-17,9-25.6c0.1-0.4,0.2-0.7,0.2-1.1C98.1,147.2,98,146.9,97.8,146.6z M71.8,192.5
		c-3.4,0.2-6.8,0.4-10.1,0.6c-0.4-6.8-0.8-13.6-1.2-20.4c-3.3,7-6.6,14-10,20.9c-3.4,0.1-6.8,0.2-10.1,0.2c1-16.4,1.9-32.8,2.9-49.2
		c3.3,0,6.6-0.1,10-0.2c-0.6,9.6-1.3,19.2-1.9,28.8c3.2-6.4,6.3-12.8,9.5-19.3c2.4-0.1,4.8-0.3,7.2-0.4c0.5,6.3,1,12.5,1.5,18.8
		c3.4-9.8,6.9-19.6,10.3-29.5c3.3-0.3,6.6-0.6,9.9-0.9C83.8,158.7,77.8,175.7,71.8,192.5z"/>
	<g>
		<path class="st1" d="M125.5,118.9c-2.8,0.1-5.3,2.7-5.7,5.8s1.6,5.6,4.3,5.5c2.8-0.1,5.3-2.7,5.7-5.8
			C130.3,121.3,128.3,118.8,125.5,118.9z M127.3,124.5c-0.2,1.6-1.5,2.8-2.9,2.9s-2.4-1.2-2.2-2.8c0.2-1.6,1.5-2.8,2.9-2.9
			C126.6,121.7,127.5,122.9,127.3,124.5z"/>
		<path class="st1" d="M111,121c-2.8,0-5.3,2.6-5.7,5.7c-0.4,3.1,1.6,5.6,4.3,5.6s5.3-2.6,5.7-5.7C115.7,123.5,113.8,121,111,121z
			 M112.8,126.6c-0.2,1.5-1.5,2.8-2.9,2.8c-1.4,0-2.4-1.2-2.2-2.8c0.2-1.6,1.5-2.8,2.9-2.8C112,123.8,113,125.1,112.8,126.6z"/>
	</g>
</g>
<path class="st0" d="M112.8,126.6c-0.2,1.5-1.5,2.8-2.9,2.8c-1.4,0-2.4-1.2-2.2-2.8c0.2-1.6,1.5-2.8,2.9-2.8
	C112,123.8,113,125.1,112.8,126.6z"/>
<path class="st0" d="M127.3,124.5c-0.2,1.6-1.5,2.8-2.9,2.9s-2.4-1.2-2.2-2.8c0.2-1.6,1.5-2.8,2.9-2.9
	C126.6,121.7,127.5,122.9,127.3,124.5z"/>
</svg>
