<?xml version="1.0" encoding="utf-8"?>
<!-- Generator: Adobe Illustrator 26.2.1, SVG Export Plug-In . SVG Version: 6.00 Build 0)  -->
<svg version="1.1" id="Superhero_font" xmlns="http://www.w3.org/2000/svg" xmlns:xlink="http://www.w3.org/1999/xlink" x="0px"
	 y="0px" viewBox="0 0 419.5 297.6" style="enable-background:new 0 0 419.5 297.6;" xml:space="preserve">
<style type="text/css">
	.st0{fill:#231F20;}
	.st1{opacity:0.8;fill:#FFFFFF;}
</style>
<g>
	<path d="M33.4,106.6c0.1,0.1,0.2,0.2,0.4,0.3c0.1,0,0.2,0.2,0.3,0.3c0.1-0.1,0.2,0.1,0.3,0.2c0.2,0.2,0.3,0.3,0.4,0.4
		c0-0.3,0.3,0.3,0.3,0.4c0.2,0.2,0.3,0.6,0.4,0.9c0,0.2,0.1,0.2,0.1,0.3c0,0.2,0,0.2,0,0.3c0,0.2,0.1,0.4,0,0.6
		c0.1,0,0.1-0.1,0.1,0.1c-0.1,0.1-0.1,0.2-0.1,0.2c0,0,0,0,0,0c0.1,0,0,0,0,0c0,0,0.1,0.1,0,0.1c0,0.1,0,0.3,0.1,0.5
		c0,0.4-0.1,0-0.1,0.3c0.2,0.2-0.1,0.2-0.1,0.5c0,0,0,0.1-0.1,0.2c0.1,0,0,0,0,0c0,0.1-0.1,0.2-0.1,0.3c0,0.2,0,0.2-0.1,0.3
		c-0.2,0.1-0.1-0.4-0.2-0.1c-0.1,0.2,0-0.2-0.2-0.1c0,0,0,0-0.1,0c0.1,0.1,0,0.1,0,0c-0.2,0-0.3,0.2-0.2-0.1c-0.2-0.1,0,0.1-0.2,0
		c0.2,0-0.2-0.3-0.1-0.1c-0.1,0-0.2-0.1-0.3-0.1c-0.1,0-0.2-0.3-0.2,0c-0.3,0,0.1-0.3-0.1-0.4c-0.2,0.2,0-0.1-0.1-0.1
		c-0.2,0-0.3,0.1-0.4,0.1c-0.1,0-0.3,0-0.2-0.2c-0.3,0,0.1,0,0-0.2c0.2-0.4,0.3-0.9,0.3-1.4c0-0.1,0.1-0.6-0.1-0.5
		c0,0.3-0.1-0.1-0.1,0.2c-0.2,0.1-0.2,0.3-0.3,0.4c-0.2,0.2-0.3,0.2-0.4,0.4c-0.3,0.2,0,0.2-0.2,0.4c-0.1,0.1-0.2,0.2-0.2,0.3
		c-0.1,0.1,0,0.2-0.1,0.4c-0.1,0.1-0.2,0.2-0.2,0.4c0,0.1,0,0.1,0,0.1c0,0,0,0,0,0c0,0,0,0,0,0c-0.1,0.2-0.1,0.2-0.1,0.4
		c-0.1,0-0.1,0.2-0.2,0.3c0,0.1,0,0.1,0,0.2c0,0,0,0,0,0c0,0.1-0.1,0.2-0.2,0.3c-0.1,0.2,0.1,0.1-0.1,0.3c0,0.1,0,0.4-0.1,0.3
		c-0.1,0.3,0,0.1,0,0.3c0,0.1-0.2,0.3-0.2,0.4c0,0.1-0.2,0.4-0.1,0.4c0,0,0,0.1,0,0.1c0.1,0,0,0,0,0c0,0.1,0,0.3-0.1,0.3
		c0,0,0,0.1,0,0.1c0,0,0,0,0,0c0,0.1,0,0.1,0,0c0,0.1,0,0.2,0,0.3c-0.1,0.1-0.1,0.2,0,0.3c-0.2,0.1,0.1,0-0.1,0.2c0.2,0,0,0,0.1,0.3
		c-0.1,0.1,0.1,0.4,0,0.6c0.1,0.3-0.2,0.4-0.1,0.6c0,0.2-0.1,0.2,0.1,0.4c-0.1,0.1-0.1,0.3,0.2,0.2c0.8-0.3,1.4-0.9,1.9-1.6
		c0.2-0.3,0-0.2-0.1-0.2c0,0.1-0.3,0-0.2,0.1c0,0.2-0.1-0.1-0.1-0.1c-0.2,0,0,0,0-0.1c0.4-0.1,0.3-0.2,0-0.1c-0.2,0,0.1-0.1,0.2-0.2
		c0-0.1-0.1-0.2-0.1-0.3c0.1-0.1-0.4-0.1-0.1-0.2c0.1-0.1-0.1-0.2-0.1-0.3c0-0.1,0-0.2-0.1-0.2c0.1-0.2,0-0.2,0-0.3
		c0.1-0.2,0.4-0.1,0.2-0.4c-0.1-0.1-0.2-0.2-0.4-0.3c-0.1-0.1-0.1-0.3,0.1-0.3c-0.2-0.1,0.1-0.1,0.2-0.1c1.5-0.3,3-0.5,4.4-0.5
		c0.2,0,0.4,0.2,0.6,0.1c-0.3,0.2,0.2,0,0.1,0.2c-0.2,0.1-0.1,0.1-0.1,0.2c0.1,0-0.2,0.2,0,0.1c0.1,0.3-0.1,0.1-0.1,0.4
		c0.1-0.1,0.3,0.1,0.2,0.2c-0.2,0.1,0,0.4-0.1,0.5c0.1,0.2-0.2,0.2-0.1,0.3c0.2,0,0,0.2-0.1,0.3h0c0,0,0,0,0,0c0,0,0,0.1,0,0.1
		c-0.1-0.2-0.1,0.2-0.3,0c0,0,0-0.2-0.2-0.1c0.1,0.2-0.1,0.2-0.3,0.2c0,0-0.1,0-0.1,0c0,0,0,0-0.1-0.1c0,0,0.1,0.1,0.1,0.1
		c-0.1,0-0.2,0.1-0.2,0c-0.2-0.2-0.1,0.2-0.2,0.2c-0.1,0,0,0.2-0.2,0.2c-0.2,0.2-0.1,0.2-0.1,0.3c0.1,0.2,0,0.4,0,0.1
		c-0.3,0.2-0.1,0.2,0,0.3c0.1,0.4-0.4,0.2-0.2,0.2c0.2,0,0-0.3-0.1,0c-0.2,0.2-0.3,0.5-0.4,0.6c-0.1,0.1,0,0.3-0.1,0.5
		c-0.3,0.1-0.2-0.1-0.3,0c0,0.1,0.3,0.1,0.1,0.2c0-0.1-0.2,0.2,0,0.2c0.1-0.2,0.4-0.4,0.5-0.6c0.3-0.4,0.1,0-0.1,0.2
		c-0.1,0.2-0.1,0.4-0.5,0.5c0,0.2-0.1,0-0.1,0.2c-0.1,0.1-0.3,0.1-0.3,0.3c-0.1,0.1-0.2,0.1-0.2,0.2c-0.3,0.1-0.1,0.1-0.4,0.2
		c0-0.1-0.1,0-0.2,0c0,0,0,0,0,0c0,0,0,0,0,0c0.1,0,0,0.1-0.2,0.2c0.1-0.2-0.2-0.1-0.3,0c-0.1,0.2-0.1,0-0.3,0.1
		c-0.3,0-0.2,0.3-0.4,0.1c-0.2,0,0.2-0.2,0.1-0.1c0.1,0,0.2-0.1,0.4-0.1c0.1-0.1,0.5,0,0.4-0.2c0.3-0.1,0.1-0.1,0.1,0
		c0.2-0.1,0.5-0.2,0.5-0.3c0.1-0.1,0.4-0.2,0.4-0.2c0.1-0.1,0.3-0.2,0.3-0.3c-0.2,0.1,0-0.1-0.1-0.1c-0.2,0.1-0.2,0.1-0.3,0.2
		c-0.2,0.1-0.4,0.4-0.6,0.4c-0.1,0.1-0.2,0-0.2,0.2c-0.2,0-0.3,0.1-0.6,0.2c-0.3,0-0.3,0.2-0.4,0.3c-0.1,0-0.1,0-0.2,0
		c0,0,0.1,0,0.1-0.1c0-0.1,0-0.1,0.1-0.2c-0.1-0.2-0.2,0.1-0.4,0c-0.3,0-0.6,0-0.5,0.1c0.1,0.1,0.4,0.2,0.5,0.1
		c0,0.1,0.2,0.1-0.1,0.1c0.2,0.1-0.2,0-0.2,0.1c-0.1-0.1-0.2,0-0.3-0.1c-0.2-0.1-0.4-0.2-0.6-0.2c-0.3-0.3,0.5,0.2,0.1-0.2
		c-0.2-0.1-0.6-0.1-0.8-0.3c-0.3-0.2-0.4,0.2-0.5,0c-0.1,0.1-0.3-0.3-0.4-0.2c-0.7-0.5-1-1.4-1-2.3c0-2.2,0.7-4.3,1.6-6.2
		c0.6-1.3,1.3-2.7,2.5-3.6c0.4-0.2,0.6-0.4,1-0.4c0,0,0,0,0.1,0C33.1,106.5,33.2,106.6,33.4,106.6z M30.5,114.9
		C30.5,114.9,30.5,114.9,30.5,114.9C30.5,114.9,30.5,114.9,30.5,114.9z M31.2,112.4C31,112.8,31.3,112.4,31.2,112.4
		C31.2,112.3,31.2,112.4,31.2,112.4z M31.6,112.1C31.6,112.1,31.6,112.1,31.6,112.1C31.6,112.1,31.6,112.1,31.6,112.1z M32.3,110.3
		c0,0.1,0.2-0.2,0.2-0.2C32.4,110.2,32.4,110.2,32.3,110.3z M33,109.4c-0.3,0.3,0.1,0.1,0.1-0.2C33,109.3,33,109.4,33,109.4z
		 M34.2,117.9L34.2,117.9C34.1,117.9,34.3,118,34.2,117.9z M34.4,117.8C34.4,117.8,34.4,117.8,34.4,117.8
		C34.4,117.8,34.4,117.8,34.4,117.8C34.4,117.9,34.3,117.8,34.4,117.8C34.4,117.7,34.5,117.8,34.4,117.8z M34.4,117.8L34.4,117.8
		C34.4,117.8,34.4,117.8,34.4,117.8z M35.4,116.7c0,0.1-0.1,0.1-0.1,0.2c-0.1,0.1-0.2,0.3-0.2,0.3c-0.2,0.2-0.3,0.3-0.4,0.4
		c0,0.1-0.2,0.1,0-0.1c0.2-0.2,0.3-0.5,0.4-0.6C35.2,117,35.4,116.8,35.4,116.7C35.4,116.7,35.4,116.7,35.4,116.7
		C35.5,116.7,35.5,116.8,35.4,116.7z M35.2,112.7C35.3,112.9,35,112.9,35.2,112.7C35.2,112.7,35.2,112.7,35.2,112.7z M35.6,116.1
		c0,0,0,0.2-0.1,0.2C35.3,116.5,35.4,116.1,35.6,116.1C35.6,116.1,35.6,116.1,35.6,116.1z M35.6,116.5
		C35.7,116.5,35.5,116.6,35.6,116.5C35.6,116.5,35.6,116.5,35.6,116.5z M35.6,115.8C35.6,115.8,35.6,115.8,35.6,115.8
		C35.6,115.8,35.6,115.8,35.6,115.8C35.6,115.8,35.6,115.8,35.6,115.8C35.7,115.8,35.9,115.7,35.6,115.8
		C35.6,115.7,35.6,115.8,35.6,115.8z M36.7,115.7C36.8,115.7,36.8,115.7,36.7,115.7C36.8,115.7,36.8,115.7,36.7,115.7z M37.1,113.8
		C37.1,113.8,37.1,113.8,37.1,113.8C37.2,113.8,37.1,113.8,37.1,113.8C37.1,113.8,37,113.7,37.1,113.8
		C37.1,113.7,37.1,113.8,37.1,113.8z"/>
	<path d="M37.1,115.9C37.3,115.8,37.1,116,37.1,115.9c-0.1-0.1-0.5-0.1-0.2-0.1C37,115.8,37.1,115.8,37.1,115.9z M42,106.3
		c1.2,0.1,2.4,0.4,3,1.4c0.1-0.1,0.1,0.2,0.2,0.3c0,0,0,0,0,0.1c0,0,0,0,0,0c0,0,0,0,0,0c0,0.2,0.1,0.5,0.1,0.6c0,0.1,0,0.5-0.1,0.7
		c0,0.2-0.1,0.4-0.1,0.6c0,0,0,0,0,0c0,0,0,0,0,0c0,0,0,0,0,0c-0.1,0.1-0.1,0.2-0.2,0.2c0,0.1,0,0.4-0.1,0.5c0,0.4-0.3,0.5-0.4,0.8
		c-0.2,0.3-0.3,0.7-0.5,0.9c-0.2,0.2-0.2,0.3-0.3,0.4c-0.2,0.3-0.3,0.3-0.3,0.5c0,0-0.2-0.1-0.3,0.2c0.2,0.3-0.1,0-0.3,0.3
		c-0.2,0.1-0.5,0.2-0.4,0.4c1,0.2,2,0.4,3,0.7c0.2,0.1,0.5,0.3,0.3,0.3c0.1,0,0,0.2,0.1,0.2c0.2-0.3,0,0.2,0.2,0.1
		c0,0.2-0.2,0.1-0.2,0.2c0.1,0.1,0,0.3-0.1,0.4c-0.3,0.2,0,0,0,0.2c0.1,0.1-0.3,0.1,0,0.2c-0.2-0.1-0.1-0.1-0.2,0.1
		c0.1-0.2-0.2,0-0.1,0.2c-0.1,0.1-0.2,0-0.1,0.3c-0.2,0-0.3,0-0.5,0c-0.1-0.1-0.2,0.3-0.4,0.2c0.3,0,0.2-0.2,0.1-0.1
		c-0.1-0.1-0.2,0-0.2-0.1c0-0.1-0.2,0-0.3-0.1c-0.2-0.1-0.2,0.1,0,0.1c0.2,0,0.2,0.2,0,0.1c-0.4,0,0.2,0-0.2-0.1
		c-0.4-0.1,0.1,0,0,0.1c0,0-0.3,0-0.4,0c-0.2-0.1-0.2-0.1-0.4-0.1c-0.1-0.1-0.3-0.1-0.4-0.1c0,0-0.3-0.2-0.2-0.1
		c-0.1,0.1-0.2-0.1-0.3,0c-0.1-0.1-0.3,0-0.5-0.1c-0.1,0-0.3,0-0.3-0.1c-0.2,0-0.4-0.1-0.5-0.1c-0.2,0-0.6-0.2-0.5,0.2
		c0.2-0.1,0,0.4,0,0.3c-0.1,0.1,0,0.2,0.1,0.4c-0.2,0.2-0.2,0.2-0.2,0.4c0,0.2,0,0.2,0,0.4c0.1,0.2-0.1,0.2-0.1,0.3
		c0.1,0.1-0.1,0.1,0,0.2c0,0,0,0.3,0,0.4c-0.1,0.2-0.1,0.1-0.1-0.1c0.1-0.2,0.1-0.3,0.1-0.5c0,0.2-0.1,0.5-0.1,0.6
		c-0.1,0.1-0.1,0.4-0.1,0.6c-0.1,0.5,0-0.3-0.1-0.1c-0.1,0.1-0.2,0.2-0.2-0.1c0,0,0.3,0,0.1-0.2c-0.1-0.3-0.2,0.3-0.2-0.1
		c-0.1,0.2-0.1,0.1-0.2,0c-0.1,0.3-0.1,0-0.3,0.1c-0.2-0.1-0.3,0.1-0.3-0.1c0.2-0.2-0.2-0.2-0.2-0.1c0,0-0.2,0.1-0.3,0.1
		c0,0.3-0.2-0.2-0.2-0.1c0,0.3-0.2,0-0.1,0c0.1-0.5,0.1-1.1,0.2-1.6c-0.1-0.4,0.3-1.1,0-1.4c-0.1,0-0.2,0-0.3,0
		c-0.2-0.2,0.4,0,0.5-0.1c0-0.1-0.3-0.1-0.5-0.1c-0.1-0.1-0.3-0.1-0.5-0.1c-0.2-0.2,0.2,0,0.3-0.1c0-0.2,0.4,0.1,0.1-0.1
		c0.1-0.1-0.1-0.2-0.1-0.2c-0.1-0.1,0.3-0.1,0.1-0.2c0-0.1,0-0.2-0.1-0.4c0,0,0,0,0,0c0,0-0.1,0,0,0c0,0,0,0,0,0c0-0.1,0-0.2,0-0.2
		c0.2,0,0.2,0,0.1-0.1c0-0.2,0.4-0.1,0.2-0.2c0.1-0.2-0.1,0.1-0.2-0.1c0-0.1,0.1-0.1-0.1-0.2c0.1-0.2,0.1-0.2,0.2-0.1
		c0.1-0.1,0-0.1,0-0.2c0.1-0.4,0.4-0.2,0.7-0.1c0.3-1.2,0.5-2.3,0.7-3.5c0.1-0.2,0.2-1.1,0-0.7c-0.1,0.1-0.4,0.1-0.4,0
		c-0.1-0.2-0.2,0.2-0.4,0c0,0.1-0.4,0,0-0.1c0,0,0.1-0.1,0.1-0.1c0,0-0.1,0,0-0.1c0,0,0,0.1,0,0.1c0.1,0,0.1-0.1,0-0.2
		c0.1-0.1-0.1-0.1-0.1-0.2c-0.3,0,0-0.1-0.1-0.2c0-0.2-0.1-0.1-0.1-0.2c0.2-0.1,0.1-0.1,0.1-0.2c-0.1-0.2,0.1-0.2,0.3-0.3
		c0.1-0.1,0.2-0.4,0.1-0.4c0-0.2-0.5,0-0.4-0.3c0,0,0.2-0.2,0.3-0.2c0.9-0.3,1.8-0.4,2.8-0.5C41.4,106.3,41.7,106.3,42,106.3z
		 M38.1,118.9c-0.2,0.2,0.2-0.1,0.1,0C38.2,118.8,38.1,118.8,38.1,118.9z M38.3,108.5c-0.1,0.2,0.2,0.1,0.1,0
		C38.3,108.5,38.3,108.5,38.3,108.5z M39,108.9c-0.1,0.1-0.3,0.1-0.2,0.2C38.9,108.9,39.2,109.1,39,108.9
		C39,108.9,39,108.9,39,108.9C39,108.9,39,108.9,39,108.9C39,108.9,39,108.9,39,108.9z M39,108.9C39,108.9,39,108.9,39,108.9
		C39,108.9,39,108.9,39,108.9z M39.8,119.4c0.2,0.1,0,0.1,0,0.2c0.3,0-0.1,0.1,0,0.3c-0.2,0.2-0.1,0.1-0.1,0
		C39.6,119.8,39.7,119.5,39.8,119.4C39.7,119.3,39.7,119.3,39.8,119.4C39.8,119.3,39.8,119.4,39.8,119.4z M41.4,108.6
		c-0.1-0.1,0,0.2-0.1,0.2c0,0.2,0,0.4-0.1,0.4c0.2,0.1-0.1,0.1,0,0.4c0.1,0,0.1,0.1,0,0.3c-0.1-0.3-0.2,0.3-0.2,0.4
		c0,0.2-0.2,0.4,0,0.5c-0.1,0.1-0.1,0-0.2,0.2c0.1,0,0.1,0.1,0.1,0.2c0,0,0,0,0,0c0,0,0,0,0,0c0,0.1-0.1,0.2-0.1,0.2
		c0.3,0.2,0,0.2-0.1,0.3c0,0,0,0,0,0.1c0,0,0,0,0,0c0,0.1,0,0.1-0.1,0.2c0,0,0,0,0.1,0c0,0.1-0.1,0.1-0.1,0.1c0,0.1-0.1,0.2-0.1,0.2
		c1.1-0.5,2.1-1.2,2.9-2.1c0.2-0.2,0.6-0.6,0.3-0.7c-0.1,0-0.1-0.1-0.2-0.1c0,0,0,0,0,0c-0.1,0-0.1-0.1-0.2-0.1
		c-0.1,0.1-0.3,0.1-0.2,0c0.2,0,0.3-0.2,0.1-0.3c-0.2-0.1-0.1,0-0.2,0.1c0.1-0.1-0.1-0.2-0.2-0.2c-0.1,0-0.4-0.2-0.6-0.2
		c-0.1,0.2-0.3-0.1-0.5,0C41.8,108.6,41.5,108.7,41.4,108.6C41.4,108.6,41.4,108.6,41.4,108.6z M42.8,116.8
		C43,116.9,43,116.8,42.8,116.8C42.9,116.8,42.9,116.8,42.8,116.8z M43.1,109.1C43.2,109.1,43,109.2,43.1,109.1
		C43,109.1,43,109.1,43.1,109.1z M43.2,116.8C43.1,116.9,43.3,116.8,43.2,116.8C43.2,116.8,43.2,116.8,43.2,116.8z M43.3,109.5
		C43.6,109.8,43.2,109.5,43.3,109.5C43.3,109.5,43.3,109.5,43.3,109.5z M43.3,116.9c0.2,0,0.3,0.1,0.2-0.1
		C43.6,116.9,43.1,116.7,43.3,116.9z M44,109.6C43.9,109.9,43.8,109.6,44,109.6C44,109.5,44,109.6,44,109.6z"/>
	<path d="M52.8,105.7c0,0,0.2,0.2,0.2,0.1c-0.1-0.1,0.2,0,0,0.2c0.2-0.1,0.1,0.2,0.2,0.2c0.1,0.1,0.3,0.2,0.2,0.3
		c0.1,0.1,0.1,0,0.2,0c0.1,0,0,0.2,0.2,0.3c0.2-0.1,0,0.2,0.1,0.1c0.1,0.1,0.3,0.2,0.2,0.4c0,0.1,0.2-0.1,0.1,0.3
		c0,0.1,0,0.2-0.1,0.3c0,0.2,0,0.3,0.1,0.5c-0.1,0.6,0-0.4-0.1,0.1c0,0.2-0.1,0.3-0.1,0.5c0,0,0,0,0,0.1c0,0,0,0,0,0
		c0,0,0,0.1,0,0.2c-0.2,0-0.1,0.4-0.2,0.5c0,0.2-0.1,0.2-0.1,0.4c-0.1,0.2,0,0.5-0.1,0.6c0,0,0,0,0,0c0,0,0,0,0,0c0,0.1,0,0.1,0,0.1
		c0,0.1-0.1,0.3-0.1,0.4c-0.1,0.1-0.1,0.4-0.1,0.4c-0.1,0.1,0,0.1,0,0.2c0,0.3-0.1,0.7-0.1,0.8c-0.2,0.5-0.2,1-0.3,1.5
		c-0.1,0.4-0.1,0.8-0.2,1.1c0,0.3-0.1,0.5-0.1,0.8c0,0.3,0,0.6-0.1,0.9c0,0.2,0,0.3-0.1,0.5c0,0.3,0,0.7,0,1c0,0.1,0.1,0.4-0.1,0.5
		c0.1,0,0,0.3,0,0.3c-0.2,0.3,0-0.2-0.2-0.2c0.1-0.2,0,0-0.1-0.2c-0.1,0.1-0.1,0.2-0.1,0c-0.1,0.3-0.2,0-0.2,0c0-0.2-0.1,0.2-0.1,0
		c-0.1-0.2-0.2,0.2-0.2,0.1c-0.1-0.2-0.2-0.2-0.3-0.2c-0.2,0.2-0.4-0.9-0.5-0.6c-0.1-0.2-0.2,0.1-0.2,0.1c-0.1,0.1-0.1,0.4-0.3,0.5
		c0-0.1-0.1,0-0.1,0.1c-0.2,0.1-0.1,0-0.1-0.1c-0.1,0.2-0.3,0.3-0.6,0.3c0-0.1-0.1-0.1-0.3-0.1c0,0.1-0.1,0.1,0,0
		c-0.1,0-0.2,0-0.3-0.1c-0.2-0.1-0.3,0-0.4-0.1c-0.1,0.1-0.1-0.1-0.1-0.1c-0.2-0.1-0.1-0.2-0.4-0.2c-0.3,0-0.2-0.1-0.5-0.1
		c-0.3,0.2,0,0-0.3-0.1c-0.1,0,0.1,0.2-0.2,0c-0.8-0.6-1-1.8-1-2.8c0.1-2.6,0.8-5.1,1.8-7.6c0.1-0.5,0.7-1.2,0.6-1.5
		c0.2-0.2,0.1-0.1,0.1-0.2c0.1-0.2,0.3-0.1,0.3,0c0.2-0.2,0-0.3,0.3-0.1c0.1,0,0.2,0.3,0.3,0.3c-0.1,0.3,0,0.2,0,0.5
		c0.1-0.3-0.1,0.2,0.1,0c0,0.2-0.1,0.3,0.1,0c-0.1-0.3,0.3-0.1,0.1,0c0.2,0.1-0.2,0.2,0,0.2c0-0.1,0.1,0,0.2,0.1
		c0.1,0.1,0.1,0.2,0.3,0.2c0,0,0,0,0,0c0,0,0,0,0,0c0,0.2,0,0.4-0.1,0.6c-0.1,0.2-0.3,0.5-0.1,0.5c-0.1,0.2-0.1,0.2-0.2,0.5
		c-0.1,0.4-0.2-0.1-0.2,0.2c0.2,0.1,0,0.2,0,0.4c0.2,0.1-0.1,0.5,0,0.4c-0.1,0.1-0.1,0.1,0,0.3c0,0-0.2,0-0.2,0.1
		c-0.1,0.1,0,0.2,0,0.3c-0.1,0.2,0,0.1,0,0.3c-0.2-0.1-0.2,0-0.2,0.1c0,0,0,0,0,0c0,0,0,0,0,0c-0.1,0.2,0,0.2-0.1,0.4
		c0,0.1-0.2,0.3-0.1,0.5c0.1,0.1,0.1,0.3,0,0.3c-0.1-0.2-0.2,0.2-0.1,0.2c-0.2,0.1,0.1,0.2-0.1,0.3c0.1,0.2,0,0-0.1,0.2
		c0.1-0.2,0.2,0.3,0,0.5c0,0.1-0.1,0.3-0.1,0.5c-0.1,0.2-0.1,0.3-0.1,0.5c0,0.1-0.2,0.3,0,0.2c0,0,0,0.1,0,0.1c0,0,0,0,0,0
		c0,0,0,0.1,0,0.1c0,0.1,0,0.1-0.1,0.2c0,0,0,0,0,0c0,0,0,0,0,0c0,0,0,0.1,0.1,0.1c-0.1,0.1-0.2,0.3-0.1,0.4c-0.1,0.1,0,0.2,0,0.3
		c0.1,0.1-0.1,0.6,0.1,0.7c-0.1,0.1,0.1,0.2,0,0.4c0,0.2-0.1,0.4,0.1,0.2c0.4-0.3,0.7-0.7,1-1.1c0.3-0.4,0.9-0.8,0.9-1.3
		c0.2-1.9,0.7-3.8,1.1-5.7c0.3-1.1,0.5-2.1,0.9-3.1c0-0.3,0.1,0.2,0.1,0C52.6,105.9,52.6,105.8,52.8,105.7
		C52.8,105.6,52.8,105.7,52.8,105.7z M47.4,118.5C47.4,118.6,47.2,118.5,47.4,118.5C47.4,118.5,47.4,118.5,47.4,118.5z M48.3,118.7
		c0.1,0.1,0.2,0.1,0.2,0.2C48.9,119,48.6,118.6,48.3,118.7C48.3,118.7,48.3,118.7,48.3,118.7z M48.3,114.7
		C48.3,114.7,48.3,114.7,48.3,114.7C48.4,114.7,48.4,114.7,48.3,114.7z M48.5,113.4c0.1-0.2,0,0,0-0.1
		C48.5,113.3,48.5,113.4,48.5,113.4z M50,118.5c-0.1,0-0.3,0.1-0.5,0.2c-0.2,0-0.2,0-0.4,0c-0.1,0-0.1,0-0.2,0v0c0,0,0,0,0,0
		c0,0,0,0-0.1,0c0,0-0.1-0.1-0.1,0c0.1,0.2,0.4,0.2,0.6,0.2c-0.2,0.2,0.1,0,0.1-0.1c0,0.2,0.4,0,0.6-0.1c0.3-0.2-0.1,0-0.1-0.3
		C50.1,118.5,50.1,118.5,50,118.5z M51.3,102.3c0.2,0.1,0.3,0.4,0.3,0.5c0,0.1,0.2,0.2,0.3,0.3c-0.1,0.1,0.1,0.1,0.1,0.2
		c-0.1-0.1-0.1,0,0,0.1c0.1,0.1,0.1,0.2,0.1,0.3c0,0.2-0.1,0.3,0,0.5c0,0.1-0.1,0.1-0.1,0.2c0.1,0.1-0.3,0.2-0.2,0.3
		c0.1,0.1-0.1,0,0,0.1c0,0.1-0.2,0.2-0.3,0.3c0.1,0.1-0.1,0.1-0.1,0.2c-0.1,0.1-0.3,0.2-0.5,0.3c0,0,0.3-0.3,0.3-0.3
		c0.2-0.1,0-0.1-0.1,0c-0.1,0,0,0,0,0c0,0,0,0,0,0c0,0.1-0.2,0.1-0.1,0c0.1-0.1-0.3,0.1-0.1,0.1c0.2-0.1,0,0.2-0.2,0.2
		c-0.1,0,0.2-0.1,0-0.2c-0.2,0,0,0-0.1,0.1c-0.1-0.1-0.2,0.1-0.4,0.1c-0.1,0-0.3-0.3-0.3-0.1c0,0.1-0.2-0.2-0.3-0.2
		c-0.1,0.2,0.1,0.3,0.1,0.4c0,0.2-0.1,0-0.1-0.1c-0.1,0-0.1-0.3-0.2-0.2c-0.1,0-0.1-0.2,0-0.1c0-0.2-0.2-0.4-0.3-0.6
		c-0.3-0.1-0.4-0.4-0.4-0.8c0-0.8,0.7-1.4,1.4-1.6c0.2,0,0.3-0.1,0.5-0.1C51,102.2,51.1,102.3,51.3,102.3z M49.1,118.7
		C49.1,118.7,49.1,118.7,49.1,118.7C49.1,118.8,49.1,118.8,49.1,118.7z M49.5,110.2C49.5,110.2,49.5,110.2,49.5,110.2
		C49.5,110.2,49.5,110.2,49.5,110.2z M49.5,118.6C49.4,118.7,49.6,118.6,49.5,118.6C49.5,118.6,49.5,118.6,49.5,118.6z M49.9,107.6
		c0.2,0.2,0.1-0.1,0.1-0.2C49.7,107.6,49.6,107.5,49.9,107.6z M50.1,107.4C50.1,107.4,50.1,107.4,50.1,107.4
		C50.1,107.4,50.1,107.4,50.1,107.4z M50.5,105.8c-0.2,0-0.4,0.2-0.4,0C50.2,105.8,50.5,105.8,50.5,105.8
		C50.6,105.8,50.5,105.8,50.5,105.8z M50.6,105.7C50.6,105.8,50.5,105.7,50.6,105.7C50.6,105.7,50.6,105.7,50.6,105.7z M50.8,105.7
		C50.6,105.6,50.8,105.6,50.8,105.7C50.9,105.6,50.8,105.7,50.8,105.7z M51.1,105.3L51.1,105.3C51.1,105.3,51.1,105.3,51.1,105.3z
		 M54.8,102.5c0.1,0,0.1,0.2,0.2,0.2c0.1,0.1,0.2,0.3,0.2,0.5c0.1,0.1,0,0.1,0.1,0.2c0,0.2,0,0.5-0.1,0.7c0,0.1-0.1,0.2-0.1,0.2
		c0.1,0.2-0.3,0.2-0.1,0.3c-0.1,0,0,0.1-0.1,0.1c0,0-0.2,0.1-0.1,0c0.1-0.2,0-0.1,0,0c-0.1,0.1-0.3,0.3-0.2,0.3c0,0,0,0.1,0.1-0.1
		c0.2,0.1-0.2,0.2-0.2,0.2c0.1-0.1,0.1-0.2,0-0.1c-0.1-0.1,0.1,0,0.1-0.2c-0.1,0-0.1,0.1-0.2,0.1c0.1,0,0,0.2-0.1,0.1
		c0.1-0.2-0.2,0-0.2,0c-0.1,0.1,0.1,0.1,0.1,0.1c-0.2,0.2-0.3-0.1-0.4,0c-0.1,0.1-0.1-0.2-0.2-0.1c0,0-0.1,0-0.1-0.1
		c-0.2-0.1-0.1,0-0.1,0.1c0.1,0.1,0.1,0.5,0,0.2c-0.1-0.1,0-0.3,0-0.5c-0.2-0.1-0.3-0.4-0.4-0.6c-0.2-0.2-0.3-0.4-0.3-0.7
		c0-0.3,0-0.6,0.2-0.9c0.2-0.5,0.7-0.8,1.2-0.8C54.2,101.8,54.7,102.1,54.8,102.5z M53.4,105.4c0,0.1,0.1,0,0.1,0.1
		c0.1-0.1,0.4-0.1,0.3,0c0,0.1-0.1,0-0.2,0.1C53.5,105.6,53.2,105.6,53.4,105.4C53.4,105.4,53.4,105.4,53.4,105.4z M53.6,111.3
		L53.6,111.3C53.5,111.3,53.6,111.3,53.6,111.3z M54.1,105.4c0.1,0.1-0.3,0.3-0.2,0.1C54,105.4,54,105.4,54.1,105.4
		c0.1,0,0.1-0.2,0.2-0.2C54.5,105.3,54.2,105.4,54.1,105.4z M54.7,104.9c-0.1,0-0.1-0.1,0-0.1C54.8,104.8,54.9,104.9,54.7,104.9z"/>
	<path d="M61,105.4c0.1,0.1,0.2,0,0.4,0.2c0,0,0.2,0.3,0.3,0.2c0,0.2,0.2,0.1,0.3,0.3c0.2,0.1,0.3,0.1,0.5,0.2
		c-0.1,0.1,0.1,0.1,0.1,0.1c-0.2,0,0.1,0.1,0.1,0.2c0.2,0.1,0,0.2,0.2,0.3c0,0.1,0.1,0.3,0.1,0.5c0,0.4,0.1,0.7,0.1,0.9
		c-0.1,0.1-0.2,0.5-0.2,0.7c-0.1,0.3-0.1,0.4-0.1,0.5c0,0,0,0.1,0,0.1c0,0,0,0,0,0c-0.1,0,0,0,0,0c0,0.1-0.1,0.2,0,0.1
		c0,0.2,0,0.3-0.1,0.5c0,0-0.2,0.1-0.2,0.1c-0.2,0.3-0.1,0,0-0.2c-0.1,0.2,0.1-0.1,0.1-0.1c0,0,0,0-0.1,0c0,0,0-0.1,0-0.1
		c0,0.1,0,0.1,0,0.1c-0.1,0-0.2,0-0.2-0.1c0,0-0.1,0-0.1,0c0,0,0,0,0,0c0,0.1,0.1,0.3-0.1,0.2c-0.1,0.1-0.2,0.1-0.1,0.2
		c-0.1,0-0.1,0.1,0.1,0.1c0.1,0,0.2-0.1,0.2,0.1c0.3-0.3,0,0.4-0.1,0.2c-0.2,0.2,0-0.1-0.3,0.1c0,0.3-0.3,0.2-0.3,0.4
		c-0.1,0.1-0.2,0.5-0.2,0c0.2,0,0.1-0.2,0-0.1c-0.1,0.1,0,0.1-0.1,0.2c-0.1,0.1-0.2,0.2-0.3,0.3c-0.1-0.1,0,0.3-0.1,0.2
		c-0.3,0.1-0.2,0.3,0.1,0.4c0.4,0.3,0.8,0.7,1,1.2c0.2,0.3,0.3,0.9,0.2,1.2c-0.2,0,0,0.3,0,0.4c0,0.2-0.2-0.2-0.1,0.1
		c0.2-0.1-0.1,0.3,0,0.3c-0.1,0.3-0.1,0.2-0.1,0.4c-0.1,0.2-0.1,0.1-0.1,0.3c0,0-0.2,0.2,0,0.1c-0.1,0.2-0.3,0.4-0.4,0.5
		c0,0-0.1,0.1-0.1,0.1c0,0,0,0,0,0c0,0,0,0,0,0c-0.1,0.1-0.2,0.2-0.3,0.3c0,0.2-0.5,0.3-0.6,0.5c-0.1,0-0.3,0.3-0.3,0.1
		c-0.1,0.1-0.1,0-0.2,0.1c0,0.1-0.1,0.1,0,0c0,0-0.1,0-0.1,0c0.1,0-0.2,0.3-0.2,0.1c0,0-0.1,0-0.1,0c0,0.2-0.2,0.1,0,0
		c-0.1,0-0.3,0-0.3-0.1c0,0,0,0,0,0c0,0,0.1,0,0.1,0c0.2,0,0.4,0,0.5-0.2c0,0.2,0.3-0.1,0.5-0.1c0.2-0.1,0.4-0.2,0.5-0.4
		c0.2-0.1,0.5-0.4,0.5-0.6c0,0,0,0,0,0c0,0,0,0,0,0c0,0,0,0,0,0c-0.1,0.2-0.2,0.2-0.4,0.4c-0.2,0.1-0.2,0.2-0.3,0.2
		c0.1,0.1-0.1,0.2-0.2,0.2c0,0.1-0.4,0.2-0.1,0c0-0.2-0.3,0.1-0.5,0.1c-0.2,0.2-0.3,0-0.4,0.1c-0.2,0-0.2-0.2-0.4-0.1
		c-0.2,0,0.1,0.1,0.2,0.1c0,0.1-0.4-0.1-0.6-0.1c-0.2-0.1-0.9-0.3-0.5,0c0.3,0.2,0.3,0.1,0.4,0.2c-0.1,0.2,0.6,0.1,0.6,0.3
		c-0.3,0.1-0.2,0.1-0.5-0.1c0-0.1,0,0.1-0.1,0.1c-0.1-0.2-0.5-0.3-0.7-0.5c0.3,0-0.2-0.4-0.4-0.5c-0.2-0.2-0.4-0.2-0.4,0.1h0
		c0,0,0,0,0,0c0,0,0,0,0,0.1c-0.1,0,0,0.4-0.1,0.4c-0.1,0.1,0.1,0.3,0,0.3c-0.1,0.1-0.1,0.4-0.1,0.6c0,0.2,0,0.2-0.1,0.3
		c0.1,0.1-0.1,0.1,0-0.2c0.1-0.1,0-0.6-0.1-0.3c-0.1,0.1-0.1,0.1-0.1,0.2c-0.2,0-0.2,0.3-0.2,0.4c-0.1,0.1-0.3,0.2-0.1-0.1
		c-0.3,0,0,0-0.2,0.1c-0.1-0.1-0.3,0-0.3,0c-0.1-0.2-0.1,0.1-0.2,0.2c0-0.3-0.3,0.3-0.2-0.1c-0.2-0.1-0.3,0-0.1,0.1
		c-0.1,0.2-0.2-0.2-0.3,0c-0.3-0.1,0.1,0,0-0.2c0-0.2,0,0-0.1,0c0-0.1-0.1,0.2-0.3,0c0-0.1-0.1,0.1,0,0.1c0,0.1-0.1,0-0.2-0.1
		c-0.1,0.2-0.2,0.1-0.2-0.1c0.1-1.5,0.5-2.9,0.9-4.4c0.7-2.4,1.5-4.8,2.9-7c0.6-0.9,1.4-1.9,2.5-2.1C60.6,105.3,60.8,105.3,61,105.4
		z M56.4,118.2c0,0.1,0.2-0.1,0.1-0.1c0,0,0,0,0,0C56.5,118.1,56.5,118.2,56.4,118.2z M56.7,117.9C56.8,117.9,56.8,117.9,56.7,117.9
		c0.1,0,0.2,0,0.1-0.1C56.8,117.9,56.8,117.9,56.7,117.9c0.1-0.1-0.1-0.1-0.1-0.2C56.4,117.9,56.8,117.8,56.7,117.9z M56.6,117.6
		C56.6,117.6,56.6,117.6,56.6,117.6C56.7,117.6,56.7,117.6,56.6,117.6C56.7,117.6,56.7,117.6,56.6,117.6
		C56.6,117.7,56.6,117.7,56.6,117.6z M56.8,117.4c-0.1,0.3,0,0.6,0.1,0.1c-0.1-0.1,0.2-0.5,0-0.6C56.8,117.3,56.9,117.2,56.8,117.4z
		 M56.9,116.9c0.1,0.1,0.1-0.2,0.1-0.3C56.9,116.5,56.9,116.8,56.9,116.9z M57,116.9C57,116.9,57,116.9,57,116.9
		C57,116.9,57,116.9,57,116.9z M57.3,115.1C57.3,115.1,57.3,115.1,57.3,115.1C57.3,115.1,57.3,115.1,57.3,115.1
		C57.3,115.1,57.3,115.1,57.3,115.1C57.2,115.3,57.4,115.3,57.3,115.1C57.3,115,57.3,115.1,57.3,115.1z M57.5,114.1
		c-0.1,0.1,0,0.3-0.1,0.4c0,0.2,0,0.4-0.1,0.5c0.2,0,0-0.4,0.2-0.4c-0.1-0.1,0-0.4,0.1-0.4c0-0.1,0.1-0.4,0.1-0.5
		C57.6,113.8,57.6,114,57.5,114.1z M58.2,112.9c-0.2,0-0.2,0.3-0.1,0.2c0.1-0.2,0,0.2-0.1,0.2c-0.3,0.2,0,0.4-0.2,0.6
		c0.1,0-0.2,0.2-0.2,0.6c0,0-0.2,0.6-0.2,0.8c-0.1,0.4,0.2,0,0.1,0.2c0.1,0.5,0.1-0.1,0.3,0.1c-0.2,0-0.1,0-0.1,0.1
		c0.1,0.4,0.9,0.1,1.2-0.3c0.4-0.5,0.9-1.1,0.8-1.7c0-0.1-0.6,0.1-0.2-0.2c0.2,0,0.2-0.4,0.1-0.2c-0.2,0.1-0.3,0-0.4,0
		c-0.2,0-0.3,0.1-0.3,0c0.1,0-0.2,0.1-0.2,0c-0.1,0.2-0.1,0.1-0.2,0c0,0.2-0.4,0.2-0.1,0C58.7,112.9,58,113.1,58.2,112.9
		C58.2,112.9,58.2,112.9,58.2,112.9z M58.5,113.3c0.1,0.1-0.3,0-0.1,0C58.4,113.3,58.4,113.3,58.5,113.3z M58.5,110.8
		c-0.1,0.2,0.3-0.2,0-0.2C58.6,110.8,58.5,110.8,58.5,110.8z M58.6,110.8c0.2-0.2,0.1,0,0-0.2C58.7,110.7,58.6,110.8,58.6,110.8z
		 M58.8,113.4C58.8,113.6,58.6,113.4,58.8,113.4C58.7,113.3,58.8,113.4,58.8,113.4z M58.9,117.7c0,0-0.1,0-0.2,0
		C58.9,117.7,59,117.7,58.9,117.7c0.2,0.1,0.2-0.1-0.1-0.1C58.9,117.7,58.9,117.7,58.9,117.7z M60.4,108.1c0.1-0.2-0.2,0-0.2-0.1
		c-0.2-0.1-0.2,0.2-0.2,0.2c-0.1-0.1-0.2,0.2-0.3,0.3c-0.1-0.1,0,0.2,0.1,0c0.2-0.3,0,0.2-0.2,0.3c-0.1,0.2-0.2,0.2-0.3,0.2
		c-0.1,0.1-0.1,0.2,0.1,0.3c0-0.2-0.1-0.1,0-0.2c-0.2-0.1,0.3,0,0.2,0c0,0.1-0.2,0.2-0.2,0.3c0,0.3-0.3,0.2-0.1,0
		c-0.1,0-0.3,0.1-0.2,0.1c0.1,0.1-0.1,0.3-0.1,0.3c-0.1,0.2-0.2,0.2-0.1,0c-0.2,0,0,0.5-0.2,0.3c-0.1,0.1-0.1,0.3,0.2,0.2
		c0.1,0.1,0.1-0.4,0.2-0.2c0,0.2-0.1,0.1-0.2,0.3c0,0.2-0.2,0-0.1-0.1c-0.2,0.1,0,0.3,0,0.3c0.6-0.6,1.2-1.3,1.5-2.1
		c0-0.3,0.2-0.4,0.2-0.5C60.6,108.1,60.2,108.2,60.4,108.1z M58.8,113.1C58.7,113.2,59.1,113.1,58.8,113.1
		C58.8,113.1,58.8,113.1,58.8,113.1z M58.8,110.6C58.8,110.6,58.8,110.6,58.8,110.6C58.8,110.5,58.8,110.5,58.8,110.6
		C58.8,110.5,58.8,110.6,58.8,110.6z M59.1,117.9C59.3,117.9,58.7,117.9,59.1,117.9C59,117.8,59,117.8,59.1,117.9
		C59.1,117.8,59.1,117.9,59.1,117.9z M59,117.7C59,117.7,58.9,117.7,59,117.7C59,117.7,59,117.7,59,117.7z M59,113.9
		c-0.2,0,0.3-0.3,0.4-0.3C59.4,113.7,59.2,113.9,59,113.9z M59.2,109.9c-0.2,0.1,0-0.1,0.1-0.2C59.3,109.8,59.4,109.9,59.2,109.9z
		 M59.3,117.7C59.3,117.7,59.3,117.7,59.3,117.7C59.3,117.7,59.3,117.7,59.3,117.7C59.2,117.7,59.2,117.7,59.3,117.7z M59.7,113.2
		C59.6,113.5,59.4,113.3,59.7,113.2C59.7,113.3,59.7,113.2,59.7,113.2z M60.1,108.6c-0.3,0.2-0.2,0,0-0.2
		C60.3,108.6,60.1,108.4,60.1,108.6z M60.2,108.1c-0.2,0.1,0.1,0-0.1,0.2C59.9,108.5,60,108.2,60.2,108.1
		C60.2,108.1,60.2,108.1,60.2,108.1z M60.2,117.4C60.2,117.4,60.2,117.4,60.2,117.4C60.1,117.5,60,117.5,60.2,117.4
		C60.2,117.4,60.2,117.4,60.2,117.4z M60.2,108.3C60.2,108.4,60.2,108.3,60.2,108.3C60.2,108.3,60.2,108.3,60.2,108.3z M60.5,107.5
		c-0.1,0-0.2,0.3-0.1,0.2c0.1,0,0.3-0.1,0.3-0.3c0,0,0.1,0,0,0c0,0,0,0,0,0c0,0,0,0,0,0C60.7,107.5,60.4,107.5,60.5,107.5z
		 M60.5,107.8c0,0.2,0.2,0.1,0.1-0.2C60.6,107.8,60.5,107.7,60.5,107.8z M60.7,107.4C60.7,107.4,60.7,107.4,60.7,107.4
		C60.7,107.4,60.7,107.4,60.7,107.4z M61.1,111.8c-0.1-0.1,0-0.3,0-0.2c0.1,0,0.2,0,0.2-0.1C61.5,111.6,61.2,111.8,61.1,111.8z
		 M61.3,112C61.1,112.3,60.9,112.1,61.3,112C61.3,111.9,61.4,111.9,61.3,112z M61.3,116.8C61.3,116.8,61.3,116.8,61.3,116.8
		C61.3,116.8,61.3,116.8,61.3,116.8z M61.8,111.4c-0.1,0.1-0.1,0.2-0.2,0.3c0,0,0,0,0,0c0,0,0,0,0,0c-0.2,0-0.3,0.3-0.2,0
		C61.6,111.6,61.6,111.5,61.8,111.4C61.8,111.3,61.9,111.4,61.8,111.4z M61.8,110.8c-0.1,0.2-0.2,0.2-0.2,0.2
		c-0.2,0.1,0.1,0.2,0.1,0.1c0-0.2,0.3-0.2,0.2-0.4C61.8,110.8,61.8,110.7,61.8,110.8z M61.9,111.3c-0.2,0,0.1-0.3,0.1-0.3
		C62.2,111.1,61.9,111.2,61.9,111.3z M62.1,110.5c0.1,0.1-0.2,0.1,0.1-0.2C62.2,110.4,62.2,110.5,62.1,110.5z M62.5,109.9
		c0-0.1-0.1,0,0-0.2C62.4,109.9,62.3,110.2,62.5,109.9z M62.7,109.6C62.7,109.6,62.7,109.6,62.7,109.6
		C62.7,109.6,62.7,109.6,62.7,109.6z M62.8,109.7C62.7,109.8,62.6,109.8,62.8,109.7L62.8,109.7z"/>
	<path d="M66.8,104.6c0.2,0,0.2,0.1,0.3,0.1c0,0.1,0.1,0.2,0.3,0.3c1.1-0.4,2.4-0.5,3.5-0.6c0.4,0,1-0.1,1.2,0
		c0.2-0.2,0.3,0.1,0.4,0.1c0.1-0.1,0.2,0.1,0.3,0.1c0,0.1,0.2,0.1,0,0.2c0.1,0,0.1,0.2-0.1,0.3c0,0-0.1,0.2-0.1,0.2
		c0,0.2,0,0.2-0.1,0.2c0,0.2,0.2,0.2,0.2,0.4c-0.1,0.1-0.1,0.1-0.2,0.3c-0.3-0.1-0.2,0.2-0.1,0.3c-0.1,0.2-0.3-0.1-0.3,0
		c-0.2,0-0.3,0.1-0.4,0c-0.2,0.1-0.4,0-0.4,0.2c-0.1,0.1-0.3,0,0-0.1c-0.1,0.1-0.2,0-0.3,0.1s0,0-0.2,0.1c0-0.2-0.3,0.1-0.4,0
		c-0.1,0-0.3,0.1-0.4,0.1c0,0.1-0.3-0.1-0.5,0.1c0,0,0,0,0,0c0,0,0,0,0,0c0.2,0,0.4,0.1,0.1,0.2c0-0.2-0.4,0.2-0.5,0.1
		c0,0-0.5,0.2-0.3,0c-0.2-0.1-0.1,0.2-0.3,0.1c-0.2,0.1-0.3-0.1-0.3-0.1c0.2,0.2-0.4,0.3-0.2,0.2c-0.2-0.1-0.1-0.1,0-0.2
		c-0.3-0.2,0,0.3-0.2,0.1c-0.2,0,0,0.2-0.2,0.2c-0.1-0.1-0.2,0.1-0.1,0.3c-0.1,0.2,0-0.2-0.1,0.1c0,0.1,0,0-0.1,0.2
		c0.1,0.1-0.1,0.1,0,0.2c0,0.3-0.3,0.2-0.2,0.4c-0.1,0.1,0,0.1,0,0.3c-0.1,0.2-0.3,0.4-0.1,0.4c0,0,0,0.1-0.1,0.1c0,0,0,0,0,0
		c0,0,0,0,0,0c0,0.1-0.1,0.1-0.1,0.1c0,0,0.2,0.2-0.1,0.2c0,0,0,0.2,0,0.4c0,0,0,0,0,0c0,0,0,0,0,0c0,0,0,0,0,0.1
		c1.1-0.3,2.2-0.6,3.3-0.7c0.4,0,0.9-0.1,1.3,0c0,0,0.1,0,0.1,0.2c0.3,0.2-0.2,0.1,0.1,0.2c-0.2,0.2,0,0.1,0,0.3
		c-0.1-0.1-0.1,0,0,0.1c0.2,0,0,0.1,0,0.2c-0.1-0.1-0.1-0.3-0.1,0c0.1,0.1,0.3,0.4,0.1,0.2c0,0-0.1,0.1-0.2,0.2c0,0,0,0,0,0
		c0,0,0,0,0.1,0c0.1,0.1,0.2,0.1,0,0.2c-0.3,0.2,0,0,0,0.2c0.2-0.1,0,0.2-0.1,0.2c-0.2,0-0.2,0.2-0.1,0.1c0.2,0-0.1,0.3-0.1,0.1
		c0,0.2-0.6,0.1-0.4,0.3c-0.2-0.1-0.2,0.2-0.3,0.1c-0.2,0.2-0.2-0.1-0.2,0.1c-0.2,0-0.4-0.1-0.6,0c-0.1,0.1-0.3,0-0.4,0.1
		c-0.1,0-0.1,0-0.2,0c-0.2-0.1,0,0.2-0.2,0.1c0.2-0.1-0.5,0-0.2,0.1c-0.3,0.2-0.2-0.2-0.4,0c-0.2,0.2-0.1,0.1-0.2,0.1
		c-0.1,0-0.2,0-0.3,0.1c0.1,0.1-0.1,0.1,0,0c-0.1,0.1-0.2,0.1-0.3,0.1c-0.1,0.1-0.3,0.1-0.2,0.1c-0.2-0.1-0.1,0.2-0.2,0
		c-0.1,0.2-0.5,0.2-0.5,0.2c-0.2-0.1-0.1,0.5-0.2,0.8c-0.2,0,0.1,0.1,0,0.4c-0.1,0.2,0,0.3,0,0.5c-0.1,0,0.2,0.3-0.1,0.4
		c0,0.4,0.1-0.1,0.1,0.3c0,0,0,0.1,0,0.1c0,0,0,0,0,0c0.1,0,0.1,0.1,0,0.1c0,0.1,0.1,0.1,0.1,0.2c0.1,0.3-0.1,0,0,0.3
		c0.1,0.1,0,0.1,0.1,0.2c0.9-0.2,1.7-0.9,2.4-1.4c0.2,0,0.2,0,0.3,0.1c0.1-0.1,0.1,0,0.2,0.1c0.3-0.1-0.1,0.2,0.1,0.1
		c0.2,0.1,0.3-0.2,0.4,0c-0.1,0.2,0.1,0.1,0.2,0c0.2,0,0.1,0.3,0.1,0.1c0,0,0.1,0,0,0c0,0,0,0,0-0.1c0.1,0.2,0.5-0.2,0.4,0.1
		c0.3,0,0.1,0.3,0.3,0.3c0.1,0,0,0.2,0.2,0.2c0,0.3-0.2-0.1-0.3,0.1c0,0.2-0.3,0.1-0.1,0c-0.1,0-0.2,0.3-0.1,0.2
		c0,0.1-0.1,0.3-0.3,0.3c-0.2,0.2-0.4,0.2-0.5,0.4c-0.1,0.1-0.4,0.2-0.3,0.2c0.1,0,0.3-0.2,0.4-0.3c0,0.3,0.1,0.1,0.2,0.1
		c0.1-0.1,0.3-0.2,0.4-0.3c0.2-0.1,0.2,0-0.1,0.2c-0.3,0.1-0.5,0.5-0.7,0.5c-0.1,0.2-0.3,0.1-0.3,0.3c-0.1,0-0.2,0.2-0.4,0.2
		c-0.1,0-0.1,0.1-0.3,0.2c-0.3,0.2-0.7,0.3-1.1,0.3c-0.4,0-0.6-0.2-0.9-0.2c-0.2,0-0.3-0.1-0.6-0.2c0.2,0-0.1-0.2-0.2-0.2
		c-0.3-0.2-0.1,0.2-0.3,0c-0.3-0.2,0,0.1-0.2,0c-0.1-0.1-0.1-0.1-0.2-0.1c0,0,0,0,0,0c0,0,0,0,0,0c-0.1,0-0.1,0-0.1,0
		c-0.8-0.4-1.1-1.4-1.2-2.3c-0.1-1.9,0.3-3.8,0.9-5.7c0.1-0.3,0.4-0.9,0.3-1c0-0.2-0.1-0.2-0.2-0.4c-0.2,0.1-0.2-0.2-0.1-0.3
		c0.1-0.1-0.2,0-0.3-0.2c0.4,0-0.1-0.1,0.1-0.2c0.2,0,0.1-0.1,0.2-0.2c-0.1-0.2,0-0.2,0-0.3c0.2,0,0.2-0.2,0.2-0.2
		c0-0.2-0.1,0-0.2-0.1c0.2,0,0-0.1-0.1-0.1c0.1,0.2-0.3-0.3-0.2-0.3c0-0.1,0.4-0.1,0.2-0.1c0.8-0.3,1.7-0.1,1.7-0.8
		c0-0.2,0.2-0.3,0.2-0.2C66.6,104.8,66.6,104.6,66.8,104.6C66.8,104.6,66.8,104.6,66.8,104.6z M65.1,117.2
		C65.1,117.2,65.1,117.2,65.1,117.2C65.1,117.2,65.1,117.2,65.1,117.2z M66,117.5C66,117.5,66,117.5,66,117.5
		C66,117.6,66,117.5,66,117.5z M66.9,109.5C66.8,109.6,67,109.5,66.9,109.5L66.9,109.5z M67.1,117.6c0.3,0.1,0.4,0.1,0.5,0
		c0-0.1-0.4,0.1-0.2,0C67.7,117.5,67.3,117.6,67.1,117.6C67.2,117.5,67,117.6,67.1,117.6z M67.2,117.7
		C67.1,117.7,67.3,117.7,67.2,117.7C67.2,117.7,67.2,117.7,67.2,117.7z M67.3,104.7C67.5,104.9,67.1,104.8,67.3,104.7
		C67.3,104.7,67.3,104.7,67.3,104.7z M67.7,117.5c-0.2,0.3,0,0.1,0.2,0.1c0.1,0,0.4,0,0.2-0.1C68,117.5,67.7,117.6,67.7,117.5z
		 M68.1,107.1C68.2,107.2,68.2,107.1,68.1,107.1C68.1,107.1,68,107.1,68.1,107.1z M68.9,117.1c-0.1,0.1-0.3,0.1-0.4,0.2
		c-0.3,0.2-0.1,0.1,0,0.1c0.2,0,0.4-0.1,0.5-0.2c0-0.1,0.4-0.4,0.2-0.2c0.1,0.1,0.2-0.2,0.1-0.2C69.3,117.1,69.1,117,68.9,117.1z
		 M68.8,117.5C68.8,117.5,68.8,117.5,68.8,117.5C68.6,117.5,68.7,117.5,68.8,117.5C68.7,117.6,68.7,117.6,68.8,117.5
		C68.8,117.5,68.8,117.5,68.8,117.5z M70.1,115.1C70.1,115.1,70.1,115.1,70.1,115.1C70.1,115.1,70.1,115.1,70.1,115.1z M70.4,106.8
		C70.5,106.9,70.3,106.8,70.4,106.8C70.4,106.8,70.4,106.8,70.4,106.8z M70.6,116.2C70.3,116.4,70.4,116.2,70.6,116.2
		C70.7,116.2,70.5,116.1,70.6,116.2z M70.7,116.2C70.7,116.2,70.7,116.2,70.7,116.2C70.8,116.2,70.8,116.3,70.7,116.2z M71.5,110.6
		C71.5,110.6,71.5,110.6,71.5,110.6C71.5,110.6,71.5,110.6,71.5,110.6z M71.5,110.9C71.6,110.9,71.6,110.9,71.5,110.9
		C71.6,110.9,71.6,111,71.5,110.9z M71.8,106.3C71.8,106.4,71.9,106.3,71.8,106.3C71.9,106.3,71.8,106.3,71.8,106.3z M72.3,105.2
		c0.1,0.1,0,0.3,0.2,0.2C72.4,105.2,72.6,105.2,72.3,105.2C72.3,105.2,72.3,105.2,72.3,105.2z"/>
	<path d="M81.4,103.8c0.2,0.1,0.3,0.4,0.5,0.4c0.1,0.1,0.2,0,0.3,0.1c0.1,0.2,0.4,0.2,0.4,0.4c0.2,0.2,0.3,0.4,0.4,0.7
		c0,0.4,0.2,0.3,0.2,0.7c-0.1,0-0.1,0.1-0.1,0.2c0.1-0.2,0.2,0.4,0,0.2c-0.1,0.5,0,1,0,1.4c-0.1,0.1,0.2,0.1,0,0.2
		c-0.1,0.1,0,0.1,0,0.2c0,0,0-0.1,0-0.1v0c0.1-0.1,0.1-0.1,0.1,0.2c-0.1,0-0.2,0.4-0.1,0.4c0.1,0.3,0,0.4,0,0.7
		c0,0.1-0.1,0.4,0.1,0.3c0,0.2,0,0.2-0.1,0.2c0,0,0,0,0,0c0,0,0,0,0,0.1c0,0.3,0.2,0.3,0,0.5c0.2,0.1-0.2,0.4,0,0.6
		c0,0.2-0.2,0-0.1,0.2c0.1-0.1,0.1,0.1,0.3,0.1c-0.1,0.1-0.2,0.1-0.2,0.2c0.2,0,0.2,0.2,0,0.3c0,0.1,0.4,0,0.2,0.1
		c-0.2-0.1-0.1,0.2-0.2,0.1c-0.1-0.1-0.1,0.1-0.1,0.1c-0.1,0.1,0.4-0.1,0.2,0c-0.2,0,0.1,0.2-0.1,0.1c-0.1,0.1,0.1,0-0.1,0.2
		c-0.1-0.2-0.1,0.2-0.1,0.2c-0.1,0,0.1,0.3-0.1,0.3c0,0.2,0,0.2,0,0.5c0,0.2,0,0.4-0.1,0.6c0.2,0.1,0,0.1,0.1,0.2
		c-0.1,0-0.1,0.4-0.1,0.4c0.2,0.1-0.1,0.1,0,0.2c-0.1,0.1,0,0.4-0.1,0.5c0.1,0.2,0,0.3,0.1,0.5c0,0.3-0.4-0.2-0.3,0
		c-0.1,0-0.1,0.1-0.1,0.1c-0.1,0-0.3,0.1-0.3,0c0.1,0-0.2-0.1-0.2-0.1c0,0.3-0.2-0.2-0.2-0.1c-0.1,0.2-0.2-0.2-0.4-0.1
		c0.1-0.2-0.2-0.3-0.1-0.1c-0.1,0.2-0.4-0.1-0.4,0.1c-0.1,0.4-0.1-0.1-0.2,0c0,0.1-0.2-0.1-0.2,0c-0.2,0,0.3-0.3-0.1-0.2
		c0-0.6,0.1-1.2,0.1-1.7c-0.1-0.3,0.2-1.1-0.2-1c-0.4-0.2,0.5,0,0.3-0.3c0.1-0.1,0-0.3-0.4-0.1c0.2,0.1-0.1,0.2,0,0
		c-0.1,0-0.3,0-0.4,0.1c-0.2,0-0.2,0.2,0,0.1c0.2,0.1-0.3,0.2-0.2,0.2c0.2,0,0,0.1,0.2,0.1c-0.2,0-0.6,0.2-0.7,0
		c-0.2,0.2-0.2,0-0.3,0c-0.2,0.2-0.4,0-0.5,0.1c-0.1-0.2-0.3,0-0.5-0.1c0,0.1,0,0.3,0,0.2c-0.1,0.1-0.1,0.2,0.1,0.1
		c0.2,0,0.1,0.4-0.1,0.3c-0.1,0.1,0,0.3-0.1,0.2c-0.1-0.3-0.3,0.5-0.2,0.4c0.1,0,0.1,0.3,0,0.2c0-0.2-0.4,1-0.5,1.1
		c0-0.2-0.2,0.1,0,0.1c-0.1,0.2-0.1,0.3-0.1,0.1c-0.1,0.1-0.1,0.3-0.1,0.3c0,0,0,0.1,0,0.2c0,0.1-0.1,0.1-0.1,0.1
		c-0.3-0.1,0.2,0.2,0,0.1c0.1,0.2-0.3-0.1-0.2,0c-0.1-0.2-0.3,0.5-0.2,0c0.1-0.1-0.2-0.3,0-0.1c0,0.1,0,0.2-0.1,0.1c0,0,0.1,0,0,0
		c0,0,0,0,0,0c0,0-0.1-0.1,0-0.2c-0.4,0.1,0.1,0,0,0.2c0-0.1-0.2,0.1-0.2-0.1c0.2-0.1-0.2-0.2-0.2,0c0.2-0.2,0.1,0.2,0,0.1
		c0-0.2-0.2-0.1-0.1-0.2c-0.1-0.4-0.2,0.3-0.2-0.1c0.1,0,0.2-0.3-0.1-0.2c-0.2,0.1,0-0.2-0.1-0.2c-0.1,0-0.2,0.1-0.3,0.1
		c0,0.1-0.2,0.1-0.2,0.1c0.1-0.2-0.3,0.2-0.1-0.1c0-0.1,0-0.3,0-0.4c0.1-0.2,0.1-0.1,0.2-0.3c0,0,0-0.2,0-0.3c1-3.4,2.7-7.5,4.1-9.5
		c0.6-0.8,1.2-1.6,2-2c-0.1,0.1,0.1,0,0.1,0c0,0,0.1-0.1,0.2-0.1C81.2,103.6,81.4,103.7,81.4,103.8z M76,116.6
		C76,116.6,76,116.6,76,116.6C76,116.6,76,116.6,76,116.6z M77.5,114.8C77.6,115.1,77.3,114.8,77.5,114.8
		C77.4,114.8,77.4,114.8,77.5,114.8z M78,113.4c0.2,0.2-0.1,0,0,0.1C77.8,113.5,77.8,113.4,78,113.4C77.9,113.4,77.9,113.4,78,113.4
		z M79.1,113.1C79.1,113.1,79.1,113.1,79.1,113.1c-0.3,0-0.6,0.1-0.9,0.2c-0.4,0-0.1,0.2,0.1,0.1c0.1,0,0.5,0,0.4-0.1
		C78.9,113.2,79.3,113.2,79.1,113.1C79.2,113.1,79.1,113.1,79.1,113.1z M78.7,113.4C78.7,113.5,78.3,113.5,78.7,113.4
		C78.6,113.4,78.6,113.4,78.7,113.4z M80.8,107.1c-0.1,0.2-0.1,0.4-0.2,0.4c0,0.2-0.4,0.2-0.2,0.3c0.1,0-0.3,0.4-0.3,0.2
		c0.2-0.1,0,0,0.1-0.2c-0.1,0.1-0.2,0-0.2,0.1c0,0,0,0,0,0c0,0,0,0,0,0c0,0-0.1,0.1-0.1,0.1c0,0,0,0,0,0c0,0,0,0,0,0.1
		c0,0,0,0.1-0.1,0c0,0.1,0.1,0,0,0.2c-0.3,0.2,0.1,0.1,0.1,0.2c0,0-0.1,0.3-0.1,0.2c0.2-0.2-0.1-0.1-0.1,0.1
		c-0.1,0.1-0.1,0.2-0.2,0.2c0,0.2-0.1,0.2-0.2,0.4c-0.1,0.3,0.1,0,0.2-0.1c0.1-0.1,0.1-0.4,0.3-0.3c0,0-0.2,0.2-0.1,0.4
		c-0.1,0.2-0.1,0.1-0.2,0.4c-0.2,0.1,0,0.4-0.2,0.4c0-0.2,0-0.1-0.1,0.1c-0.2,0-0.4,0.3-0.1,0.3c0,0,0,0.1,0,0.1
		c0.2,0.2,1.2-0.1,1.7-0.1c0.1-0.8,0.1-1.6,0.2-2.4c0-0.4,0.2-0.9,0-1.1C80.8,106.9,80.9,107.1,80.8,107.1z M79,110
		c0.1,0.1,0.1-0.1,0.2-0.3c-0.1,0,0,0,0-0.1C79.1,109.7,79.1,109.9,79,110z M79.1,110.1C79.3,110.3,79,110.3,79.1,110.1
		C79.1,110.1,79.1,110.1,79.1,110.1z M80,113.1c0,0-0.1,0-0.2,0.1C79.5,113.2,79.8,113.2,80,113.1C80,113.1,80,113.1,80,113.1z
		 M79.9,113.1c0-0.2-0.2,0,0.1-0.2C80.1,112.9,80,113,79.9,113.1z M79.9,108C79.9,108,80,108,79.9,108C80,108.1,80,108.1,79.9,108z
		 M80,107.9C80,107.9,80,107.9,80,107.9C80,107.9,80,107.9,80,107.9z M80.2,108C80.2,108,80.2,108,80.2,108
		C80.3,108,80.1,108.2,80.2,108z M80.9,106.7c-0.1,0.1-0.1,0.2-0.2,0.3c0,0.1-0.3,0.4-0.2,0.3c0.1,0.2,0.3-0.2,0.2-0.3
		C80.7,107,80.8,106.9,80.9,106.7C80.9,106.9,80.9,106.8,80.9,106.7C80.9,106.8,80.9,106.8,80.9,106.7c0.1,0,0.1-0.1,0.1-0.2
		C80.9,106.6,80.9,106.7,80.9,106.7z M80.7,106.6C80.6,106.9,80.8,106.7,80.7,106.6C80.7,106.6,80.7,106.6,80.7,106.6z M80.9,106.8
		C80.9,106.8,80.9,106.8,80.9,106.8C80.9,106.8,80.9,106.8,80.9,106.8z M82.2,116.5C82.3,116.6,82.2,116.5,82.2,116.5
		C82.2,116.5,82.2,116.5,82.2,116.5z M83,109.7C83,109.7,83,109.7,83,109.7C82.9,109.7,83.1,109.8,83,109.7z"/>
	<path d="M90.5,103.2c0.1,0,0.2,0.2,0.2,0.1c-0.1-0.1,0.2,0,0,0.2c0.2-0.1,0.1,0.3,0.2,0.2c0.1,0.1,0.3,0.2,0.2,0.3
		c0.2,0.1,0.1,0,0.2,0c0.1,0,0,0.2,0.2,0.3c0.2-0.1,0,0.2,0.1,0.1c0.1,0.1,0.3,0.2,0.2,0.4c0,0.1,0.2-0.1,0.1,0.3
		c0,0.1,0.1,0.2-0.1,0.3c0,0.2,0,0.3,0.1,0.5c-0.1,0.6,0-0.4-0.1,0.1c0,0.2-0.1,0.3-0.1,0.5c0,0,0,0,0,0.1c0,0,0,0,0,0
		c0,0,0,0.1,0,0.2c-0.2,0-0.1,0.4-0.2,0.5c0,0.2,0,0.2-0.1,0.4c-0.1,0.2,0,0.5-0.1,0.6c0,0,0,0,0,0c0,0,0,0,0,0c0,0.1,0,0.1,0,0.1
		c0,0.1-0.1,0.3-0.1,0.4c-0.1,0.1-0.1,0.4-0.1,0.4c-0.1,0.1,0,0.1,0,0.2c0,0.3-0.1,0.7-0.1,0.8c-0.2,0.5-0.2,1-0.3,1.5
		c-0.1,0.4,0,0.8-0.2,1.1c0,0.3-0.1,0.5-0.1,0.8c0,0.3,0,0.6-0.1,0.9c0,0.2,0,0.3-0.1,0.5c0,0.3,0,0.7-0.1,1c0,0.1,0.1,0.4-0.1,0.5
		c0.1,0,0.1,0.3,0,0.3c-0.2,0.3,0-0.2-0.2-0.2c0.1-0.2,0,0-0.1-0.2c-0.1,0.1-0.1,0.2-0.1,0c-0.1,0.3-0.2,0-0.2,0
		c0-0.2-0.1,0.2-0.1,0c-0.2-0.2-0.2,0.2-0.2,0.1c-0.1-0.2-0.2-0.2-0.3-0.2c-0.2,0.2-0.4-0.9-0.5-0.6c-0.1-0.2-0.2,0.1-0.2,0.1
		c-0.1,0.1-0.1,0.4-0.3,0.5c0-0.1-0.1,0-0.1,0.1c-0.2,0.1-0.1,0-0.1-0.1c-0.1,0.2-0.3,0.3-0.6,0.3c-0.1-0.1-0.1-0.1-0.3-0.1
		c0,0.1-0.1,0.1,0,0c-0.1,0-0.2,0-0.3-0.1c-0.2-0.1-0.3,0-0.4-0.1c-0.1,0.1-0.1-0.1-0.1-0.1c-0.2-0.1-0.1-0.2-0.4-0.3
		c-0.3,0-0.2-0.1-0.5-0.1c-0.3,0.2-0.1,0-0.3-0.1c-0.1,0,0.1,0.2-0.2,0c-0.8-0.6-1-1.8-1-2.8c0.1-2.6,0.8-5.1,1.8-7.6
		c0.1-0.5,0.7-1.1,0.6-1.5c0.2-0.2,0.1-0.1,0.1-0.2c0.1-0.2,0.3-0.1,0.3,0c0.2-0.2,0-0.3,0.3-0.1c0.1,0,0.2,0.3,0.3,0.3
		c-0.1,0.3,0,0.2,0,0.5c0.1-0.3,0,0.2,0.1,0c0,0.2-0.1,0.3,0.1,0c-0.1-0.3,0.3,0,0.1,0c0.2,0.1-0.2,0.2,0,0.2c0-0.1,0.1,0,0.2,0.1
		c0.1,0.1,0.1,0.2,0.3,0.2c0,0,0,0,0,0c0,0,0,0,0,0c0,0.2,0,0.4-0.1,0.6c-0.1,0.2-0.3,0.5-0.1,0.5c-0.1,0.2-0.1,0.2-0.2,0.5
		c-0.1,0.4-0.2-0.1-0.2,0.2c0.2,0.1-0.1,0.2,0,0.4c0.2,0.1-0.1,0.5,0,0.4c-0.2,0.1-0.1,0.1,0,0.3c0,0-0.1,0-0.2,0.1
		c-0.1,0.1,0,0.2,0,0.3c-0.1,0.2-0.1,0.1,0,0.3c-0.2-0.1-0.1,0-0.2,0.1c0,0,0,0,0,0c0,0,0,0,0,0c-0.1,0.2,0,0.2-0.1,0.4
		c0,0.1-0.2,0.3-0.1,0.5c0.1,0.1,0.1,0.3,0,0.3c-0.1-0.2-0.2,0.2-0.1,0.2c-0.2,0.1,0.1,0.2-0.1,0.3c0.1,0.2,0,0-0.1,0.2
		c0.1-0.2,0.2,0.3,0,0.5c0,0.1,0,0.3-0.1,0.5c-0.1,0.2-0.1,0.3-0.1,0.5c0,0-0.2,0.3,0,0.2c0,0,0,0.1,0,0.1c0,0,0,0,0,0
		c0,0,0,0.1,0,0.1c0,0.1,0,0.1-0.1,0.2c0,0,0,0,0,0c0.1,0,0,0,0,0c0,0,0,0.1,0.1,0.1c-0.1,0.1-0.1,0.3-0.1,0.4c0,0.1,0,0.2,0,0.3
		c0.1,0.1-0.1,0.6,0.1,0.7c-0.1,0.1,0.1,0.2,0,0.4c0,0.2-0.1,0.4,0.1,0.2c0.4-0.3,0.7-0.7,1-1c0.3-0.4,0.9-0.8,0.9-1.3
		c0.2-1.9,0.7-3.8,1.1-5.6c0.3-1,0.5-2.1,0.9-3.1c0-0.3,0.1,0.2,0.1,0c0.1-0.1,0-0.1,0.2-0.2C90.5,103.2,90.5,103.2,90.5,103.2z
		 M85.1,116C85.1,116,85,116,85.1,116C85.1,116,85.1,116,85.1,116z M86,116.1c0.1,0.1,0.2,0.1,0.2,0.2
		C86.6,116.5,86.3,116.1,86,116.1C86,116.1,86,116.1,86,116.1z M86,112.1C86,112.1,86,112.1,86,112.1
		C86.1,112.1,86.1,112.1,86,112.1z M86.2,110.9c0.1-0.2-0.1,0,0-0.1C86.2,110.8,86.2,110.9,86.2,110.9z M87.8,116
		c-0.1,0-0.3,0.1-0.5,0.2c-0.2,0-0.2,0-0.4,0c-0.1,0-0.1,0-0.2,0v0c0,0,0,0,0,0c0,0,0,0-0.1,0c0,0-0.1-0.1-0.1,0
		c0.1,0.2,0.4,0.2,0.6,0.2c-0.2,0.2,0.1,0,0.1-0.1c0,0.2,0.4,0,0.6-0.1c0.3-0.2-0.1,0,0-0.3C87.9,116,87.9,116,87.8,116z
		 M86.8,116.2C86.8,116.2,86.8,116.2,86.8,116.2C86.8,116.2,86.8,116.2,86.8,116.2z M87.2,107.7C87.2,107.7,87.2,107.7,87.2,107.7
		C87.2,107.7,87.2,107.7,87.2,107.7z M87.2,116.1C87.1,116.1,87.3,116.1,87.2,116.1C87.2,116.1,87.2,116.1,87.2,116.1z M87.6,105
		c0.2,0.2,0.1-0.1,0.1-0.2C87.4,105,87.3,105,87.6,105z M87.8,104.9C87.8,104.9,87.8,104.9,87.8,104.9S87.8,104.9,87.8,104.9z
		 M91.3,108.9C91.3,108.9,91.3,108.9,91.3,108.9C91.2,108.9,91.3,108.9,91.3,108.9z"/>
	<path d="M98.4,103.1c0.4,0.1,0.4,0.1,0.6,0.3c0.2,0.1,0.2,0.4,0.3,0.4c0,0.1,0.1,0.3,0.1,0.4c-0.1,0.3,0.3,0.3,0.1,0.4
		c0,0.2,0.3,0.4,0.2,0.5c0,0,0,0.2,0.1,0.2c-0.1,0.3,0.2,0.4,0,0.6c0,0.2-0.1,0.4-0.2,0.7c0,0.2-0.3,0.5-0.3,0.7c0,0,0,0,0,0
		c0,0,0,0,0,0c0,0,0,0.1,0,0.1c-0.1,0-0.2,0.2-0.1,0.4c-0.1,0-0.2,0-0.3,0.2c0.2,0-0.1,0.3-0.1,0.1c-0.1,0-0.2,0.3-0.1,0.3
		c-0.1,0.4-0.1-0.1-0.3,0.3c-0.2,0.3,0,0.2-0.3,0.5c-0.1,0.2-0.3,0.4-0.2,0.5c-0.1,0.1,0.1,0.1,0,0.2c-0.2,0.1-0.1,0.4-0.6-0.1
		c-0.5-0.5-1.1-1.2-0.8-1.8c0.3-0.6,0.8-1.3,1.1-1.9c0.2-0.1,0.1-0.6,0.2-0.3c0.1-0.1,0.1-0.3-0.1-0.2c0.1-0.1,0-0.1-0.1,0
		c-0.1,0,0.2,0.5-0.1,0.2c-0.2-0.1,0,0.1,0,0.1c-0.3,0.1-0.8,0.1-0.9,0.2c0-0.2-0.2,0.1-0.2,0.2c-0.3,0.2-0.8,0.5-1,0.7
		c-0.1,0.2-0.5,0.1-0.5,0.3c0.1,0.1-0.1,0.1-0.2,0.2c-0.1-0.2-0.4,0.3-0.5,0.4c-0.2,0-0.3,0.5-0.3,0.4c-0.2,0.2-0.1,0.1-0.1,0.3
		c-0.1,0-0.3,0.1-0.2,0.2c-0.1,0.1,0,0.2-0.1,0.2c-0.1,0.2-0.2,0.2-0.2,0.4c0.4,0.3,0.8,0.5,1.2,0.7c0.9,0.4,1.9,0.8,2.6,1.5
		c0.2,0.2,0.2,0.2,0.2,0.3c0,0.1,0,0.1,0.1,0.2c0,0,0,0,0,0c0,0,0,0,0,0c0,0,0.1,0.1,0.1,0.2c0.5,0.5,0.7,1,0.7,1.7
		c0,0.2,0,0.3-0.1,0.5c0,0.2-0.4,0.3-0.2,0.4c-0.2,0.3-0.5,0.5-0.7,0.6c-0.2,0.1-0.4,0.2-0.5,0.2c-0.1,0.1-0.3,0.2-0.4,0.2
		c0,0.1-0.2,0.1-0.2,0.1c-0.1,0-0.2,0.1-0.3,0.1c-0.2,0.1-0.2,0.1-0.3,0.1c-0.2,0.1-0.4,0.1-0.5,0.1c-0.1,0.2-0.1,0-0.3,0.1
		c-0.1,0-0.1,0-0.2,0c-0.3,0-0.2,0-0.2,0.1c-0.1,0-0.1,0-0.2,0c0,0,0,0,0,0c0,0,0,0,0,0c-0.1,0-0.2,0-0.2,0c-0.1-0.1,0,0.2-0.1,0
		c-0.2,0.1-0.6,0.2-0.4-0.1c-0.2-0.2,0.2,0.1,0.1,0c0.1-0.1,0.2,0,0.2,0c0,0,0,0,0-0.1c0.3-0.1,0.4,0,0.7-0.1c0.2-0.2,0.1,0,0.4-0.1
		c0-0.1,0.1-0.2,0.2-0.1c0.1-0.1,0.1,0,0.2,0c0.2,0,0.2-0.2,0.2-0.2c0.2,0,0.2,0.1,0.3,0.1c0.2,0-0.1-0.1,0-0.2
		c0.2-0.1,0.3,0.1,0.5,0c0-0.1-0.4,0-0.2-0.1c0.5-0.2,0.1-0.1-0.1,0c-0.2,0.1-0.5,0.1-0.7,0.2c-0.1,0.2-0.2,0-0.3,0.1
		c-0.2,0-0.5,0-0.6,0.1c-0.2,0.1-0.1-0.1-0.3,0c-0.2,0-0.2,0.3-0.2,0c-0.2,0,0,0.2-0.3,0c-0.1,0.1,0.1-0.1-0.1-0.1
		c-0.2,0-0.7,0-0.6-0.1c0,0,0,0,0,0c0,0-0.2,0,0,0c-0.1,0-0.3,0-0.4-0.2c-0.1-0.2,0.1-0.2-0.2-0.3c-0.1,0.1-0.2,0-0.3,0
		c-0.2,0-0.2-0.3-0.3-0.2c-0.3-0.2,0.6-0.2,0.2-0.2c-0.2-0.1,0.1,0,0.1-0.2c1.2-0.3,2.4-0.5,3.6-1c0.2-0.2,1.2-0.5,0.6-0.7
		c-0.2-0.1-0.5-0.2-0.6-0.2c-0.3-0.1-0.6-0.2-0.8-0.4c-0.2-0.1-0.3-0.2-0.6-0.3c-0.4-0.2-0.7-0.4-0.9-0.7c-0.1-0.3-0.2-0.5-0.3-0.7
		c-0.1-0.1-0.1-0.1-0.1-0.3c-0.1-0.2,0-0.5-0.2-0.6c-0.1,0.3-0.1,0,0-0.1c-0.2,0.1-0.2,0-0.2-0.2c0,0.1,0-0.3-0.1-0.1
		c-0.1,0-0.2-0.5-0.1-0.8c0-0.8,0.4-1.7,0.9-2.3c1.1-1.4,2.7-2.5,4.4-2.9c0.3-0.1,0.6-0.2,0.9-0.2C98.2,103,98.3,103,98.4,103.1z
		 M92.3,110.1c-0.1,0,0.3,0.3,0.2,0.3C92.3,110.3,92.3,110.3,92.3,110.1C92.3,110,92.3,110.2,92.3,110.1z M92.3,110
		C92.5,110.4,92.3,110.2,92.3,110C92.3,110,92.3,110,92.3,110z M92.5,110.2C92.6,110.7,92.7,110.3,92.5,110.2
		C92.5,110.1,92.5,110.2,92.5,110.2z M93,110.8C93,111,93.3,111,93,110.8C93,110.8,93,110.8,93,110.8z M93.2,111.1
		C93.2,111.1,93.2,111.1,93.2,111.1c-0.1,0.1,0.1,0,0,0.1C93.4,111.3,93.4,111.1,93.2,111.1C93.3,111.1,93.3,111.1,93.2,111.1
		C93.2,111.1,93.2,111.1,93.2,111.1z M93.3,111.1C93.3,111.1,93.3,111.1,93.3,111.1C93.3,111.1,93.3,111.1,93.3,111.1z M93.3,116
		C93.4,116.1,93.2,116.1,93.3,116C93.3,116,93.3,116,93.3,116z M93.5,111.4C93.3,111.4,93.6,111.5,93.5,111.4
		C93.5,111.4,93.5,111.4,93.5,111.4z M93.6,111.5c0.2,0.1,0.2,0.1,0.1,0.1c0.2,0.1,0.3,0.2,0.3,0.1
		C93.9,111.6,93.7,111.5,93.6,111.5C93.6,111.5,93.6,111.5,93.6,111.5z M94.2,111.9C93.9,111.8,94.2,112,94.2,111.9
		c0.1,0.1,0.3,0.3,0.4,0.2c0,0,0,0,0,0c0,0,0,0,0.1,0c0,0,0,0,0,0c0.1,0.1,0.2,0.2,0.4,0.1c0.1-0.2-0.1-0.1-0.3-0.3
		c0,0.1-0.3,0.1-0.4-0.2C94.3,111.9,94.1,111.8,94.2,111.9z M94.1,116.4C94.1,116.4,94.1,116.4,94.1,116.4
		C94.1,116.4,94.1,116.4,94.1,116.4z M94.2,116.3C94.2,116.3,94.2,116.3,94.2,116.3C94.1,116.3,94.2,116.4,94.2,116.3
		C94.2,116.4,94.3,116.4,94.2,116.3C94.2,116.3,94.2,116.3,94.2,116.3z M94.2,111.9C94.3,112,94,111.9,94.2,111.9
		C94.2,111.9,94.2,111.9,94.2,111.9z M94.2,116.4C94.2,116.4,94.2,116.3,94.2,116.4C94.2,116.3,94.2,116.4,94.2,116.4z M94.6,112.1
		L94.6,112.1C94.6,112.1,94.6,112.1,94.6,112.1z M94.8,112.1C94.8,112.1,94.8,112.1,94.8,112.1C94.9,112.1,94.7,112.2,94.8,112.1z
		 M95.3,112.3c0,0.2,0.2,0.2,0.3,0.3c0.1,0,0.2,0.1,0.3,0.1c0.1,0.1,0.1,0,0,0c-0.3-0.1-0.1-0.1,0.2,0c0.1,0.1,0.4,0.1,0.2,0
		c0-0.1-0.2-0.1-0.2-0.1c-0.2-0.1-0.4-0.1-0.4-0.2C95.5,112.2,95.3,112.4,95.3,112.3C95.3,112.2,95.3,112.3,95.3,112.3z M95.5,112.7
		C95.7,112.6,95.5,112.6,95.5,112.7C95.4,112.6,95.5,112.7,95.5,112.7z M99.3,107.9C99.3,107.9,99.3,107.9,99.3,107.9
		C99.3,107.8,99.3,107.9,99.3,107.9z M99.4,107.4L99.4,107.4C99.4,107.4,99.4,107.4,99.4,107.4z"/>
</g>
<g>
	<path d="M294.9,180.1c0.4,0.1,0.6,0.4,0.9,0.5c0.2,0.2,0.3,0.4,0.4,0.5c0.1,0.1,0.1,0.2,0.1,0.2c0,0.2,0.3,0.3,0.2,0.4
		c0,0.2,0.2,0.6,0.2,0.5c0,0,0,0.1,0.1,0.1c-0.1,0,0,0,0,0c0.1,0.1,0.1,0.2,0.1,0.3c0.1,0.3,0.2,0.6,0.2,0.9c0,0.3,0.2,0.7,0.1,0.8
		c0,0.2-0.1,0.6-0.1,0.8c-0.1,0.4-0.1,0.4-0.2,0.9c-0.1,0.2-0.1,0.5-0.2,0.7c0,0,0-0.3-0.1,0.1c0.1,0.1,0.1,0.3-0.1,0.4
		c-0.1,0.1-0.3,0.4-0.1,0.2c0,0.2-0.3,0.6-0.2,0.3c0-0.1-0.3,0.3-0.1,0.4c-0.2,0.1-0.2,0.4-0.2,0.3c-0.2,0.1,0,0.3-0.1,0.2
		c0,0.1-0.1,0-0.1,0.1c-0.1,0-0.1,0.1,0,0.2c0,0,0,0,0,0c0,0,0,0,0,0c0,0,0,0,0,0c-0.1,0.1-0.1,0.1-0.2,0.3c0,0.1,0.2-0.2,0.1,0
		c-0.2,0.3-0.3,0.6-0.6,0.9c-0.1,0.2-0.2,0.3-0.4,0.5c0.1,0.1,0,0-0.2,0.3c-0.1,0-0.2,0.2-0.3,0.4c0,0,0,0,0,0c0,0,0,0,0,0
		c0,0,0,0.1-0.1,0.1c0,0,0,0.1-0.1,0.2c-0.2,0.2-0.4,0.5-0.6,0.6c-0.1,0.1-0.1,0.1-0.2,0.2c-0.1,0.1-0.1,0.1-0.2,0.2
		c-0.2,0.2-0.4,0.3-0.5,0.4c-0.2,0.1-0.5,0.2-0.7,0.3c-0.1,0-0.3,0.2-0.3,0c-0.3,0,0.5-0.1,0.6-0.2c0.2-0.1,0.4-0.3,0.1-0.3
		c-0.3-0.1-0.2,0.1-0.2,0.2c-0.2,0-0.1-0.2-0.2-0.1c-0.1,0-0.4,0.2-0.3,0.1c-0.2,0-0.3,0.1-0.4-0.2c-0.2,0.1-0.4,0-0.6-0.2
		c-0.2-0.1-0.6-0.1-0.6-0.4c0-0.2-0.2-0.1-0.4-0.2c-0.3-0.1-0.2-0.3-0.5-0.3c0.1-0.2,0.1-0.8,0.2-1.3c0.2-1.9,0.6-3.9,1.1-5.7
		c-0.1,0,0.2-0.4,0.1-0.4c0,0-0.3,0.1-0.3,0c-0.2-0.1,0.1-0.2,0-0.3c-0.3,0,0-0.4-0.2-0.4c-0.2,0-0.1-0.2-0.3-0.2
		c0-0.2,0-0.2-0.1-0.4c0-0.1,0.2-0.2,0-0.2c0-0.2-0.3-0.1-0.4-0.4c-0.3-0.2,0-0.4,0.1-0.4c0.2-0.3,0.6-0.6,0.9-0.8
		c1-0.7,2.2-1.1,3.4-1.2C293.8,179.9,294.4,180,294.9,180.1z M289.6,183.7C289.7,183.9,289.9,183.7,289.6,183.7
		C289.6,183.7,289.6,183.7,289.6,183.7z M291.1,193.2c-0.1,0.1-0.1,0.2-0.1,0.1c-0.1,0-0.2,0.1-0.2-0.2
		C290.9,193.2,291,193.1,291.1,193.2z M292.8,182.6c-0.2,0-0.1,0.1,0,0.1c0,0,0,0,0,0c-0.1,0.1,0,0,0,0c0,0,0,0-0.1,0.1
		c-0.1,0.1,0.2,0.2-0.1,0.3c-0.1-0.2-0.1,0.3-0.1,0.4c-0.1,0.1,0,0.4,0,0.4c0.1,0.1-0.1,0.4-0.1,0.6c-0.1,0.1-0.2,0.7-0.1,0.5
		c-0.1,0.2-0.2,0.5-0.2,0.8c0,0.3-0.2,0.7-0.1,0.9c0,0.2,0,0.5-0.2,0.5c0,0.1-0.1,0.3-0.1,0.3c0.2-0.2-0.1,0.1,0.1,0.1
		c0,0,0,0,0,0.1c0,0,0,0,0,0c-0.1,0,0,0,0,0c0,0.1-0.1,0.1-0.1,0.3c0,0.2,0,0.4-0.1,0.6c-0.1,0.2-0.1,0.4-0.1,0.5
		c0,0.2,0.1,0.5-0.1,0.2c0,0.2-0.2,0.7-0.1,0.7c0,0.1,0.2,0,0.3-0.2c1.4-1.6,2.6-3.4,3.5-5.3c0.1-0.4,0.5-1.2,0.3-1.3
		c0.1,0,0.1-0.1,0-0.1c-0.4,0,0.2-0.1-0.1-0.2c-0.2-0.1-0.3-0.2-0.5-0.1c-0.2-0.1-0.2,0-0.4-0.1c-0.2,0-0.5,0.1-0.6,0
		c-0.3,0.1-0.3,0-0.5,0c-0.2,0.1-0.2,0.1-0.5,0.1C292.5,182.9,293.1,182.6,292.8,182.6C292.8,182.6,292.8,182.6,292.8,182.6z
		 M291.6,189.6C291.6,189.7,291.6,189.6,291.6,189.6C291.6,189.6,291.6,189.5,291.6,189.6z M291.9,192.7
		C292,192.8,291.8,192.8,291.9,192.7C291.9,192.7,291.9,192.7,291.9,192.7C291.9,192.7,291.9,192.7,291.9,192.7
		C292,192.7,291.9,192.7,291.9,192.7z M291.9,187.6C291.9,187.6,291.9,187.6,291.9,187.6C291.9,187.6,291.9,187.6,291.9,187.6z
		 M292.3,192.7c-0.1,0.3,0.2-0.1,0.2-0.2C292.4,192.5,292.4,192.6,292.3,192.7z M292.8,182.7C292.8,182.7,292.8,182.7,292.8,182.7
		C292.8,182.7,292.8,182.7,292.8,182.7z M292.9,182.5C293,182.6,293.2,182.5,292.9,182.5C293,182.5,292.9,182.5,292.9,182.5z
		 M293.2,182.3C292.9,182.3,292.9,182.5,293.2,182.3C293.1,182.4,293.4,182.4,293.2,182.3C293.2,182.2,293.1,182.4,293.2,182.3z
		 M293.7,182.4c-0.1,0.1-0.4-0.1-0.5,0.1C293.1,182.7,293.5,182.5,293.7,182.4c0.1,0,0.2,0.1,0.4,0.1c0.2-0.2-0.1-0.1-0.1-0.2
		C293.9,182.4,293.8,182.4,293.7,182.4z M293.7,182.2C293.7,182.2,293.6,182.2,293.7,182.2C293.6,182.2,293.6,182.2,293.7,182.2
		c-0.2,0.1-0.4,0-0.2,0.2c0.1-0.2,0.2,0,0.3,0c0.2,0,0.1-0.1,0.2,0c0,0,0,0,0,0c0,0,0,0,0,0C293.9,182.2,293.9,182.2,293.7,182.2
		C293.7,182.2,293.7,182.2,293.7,182.2z M294.2,182.3C294.2,182.6,294.3,182.4,294.2,182.3c0,0,0.1-0.2-0.2-0.2
		C294,182.2,294.1,182.4,294.2,182.3z M294,191.1C294,191.1,294,191.1,294,191.1C294.1,191.2,294,191.2,294,191.1z M294.1,182.6
		C294,182.7,294.4,182.6,294.1,182.6C294.1,182.6,294.1,182.6,294.1,182.6z M294.5,182.5c0.2,0.1,0.5,0.1,0.7,0.2
		c0.2,0,0.1-0.1,0.2,0.1c0.1,0,0.3,0.1,0.2,0c-0.1-0.2-0.1-0.2-0.3-0.3c-0.2-0.1-0.2,0-0.5-0.1c0,0.2-0.3,0.1-0.5,0
		C294.3,182.5,294.5,182.6,294.5,182.5z M295.1,182.8C295.5,182.9,295,182.9,295.1,182.8C295.1,182.8,295.1,182.8,295.1,182.8z
		 M295.6,188.8C295.6,188.8,295.6,188.8,295.6,188.8C295.6,188.8,295.6,188.8,295.6,188.8z M295.7,188.7
		C295.7,188.7,295.7,188.7,295.7,188.7C295.7,188.6,295.8,188.6,295.7,188.7z M296.7,182.3C296.7,182.3,296.7,182.3,296.7,182.3
		C296.7,182.3,296.7,182.3,296.7,182.3z"/>
	<path d="M300,179.7c0.2,0,0.2,0.1,0.3,0.1c0,0.1,0.2,0.2,0.3,0.3c1.2-0.4,2.3-0.5,3.5-0.6c0.4,0,1-0.2,1.2,0
		c0.2-0.2,0.3,0.1,0.4,0.1c0.1-0.1,0.2,0.1,0.3,0.1c0,0.1,0.2,0.1,0,0.2c0.1,0,0.1,0.2-0.1,0.3c0,0-0.1,0.2-0.1,0.2
		c0.1,0.2-0.1,0.2-0.1,0.2c0,0.2,0.2,0.2,0.2,0.4c-0.1,0.1-0.1,0.1-0.2,0.3c-0.3-0.1-0.2,0.2-0.1,0.3c-0.1,0.2-0.3-0.1-0.3,0
		c-0.2,0-0.3,0.1-0.4,0c-0.2,0.1-0.4,0-0.4,0.2c-0.1,0.1-0.3,0,0-0.1c-0.1,0.1-0.2,0-0.3,0.1c-0.1,0,0,0-0.2,0.1
		c0-0.2-0.3,0.1-0.4,0c-0.1,0-0.3,0.1-0.4,0.1c0,0.1-0.3-0.1-0.5,0.1c0,0,0,0,0,0c0,0,0,0,0,0c0.2,0,0.4,0.1,0.1,0.2
		c0-0.2-0.4,0.2-0.5,0.1c0,0-0.5,0.2-0.3,0c-0.2-0.1-0.1,0.2-0.3,0.1c-0.2,0.1-0.3-0.1-0.3-0.1c0.2,0.2-0.4,0.3-0.2,0.1
		c-0.2-0.1-0.1-0.1,0-0.2c-0.3-0.2,0,0.3-0.2,0.1c-0.2,0,0,0.2-0.2,0.2c-0.1-0.1-0.2,0.1-0.1,0.3c-0.1,0.2,0-0.2-0.1,0.1
		c0,0.1,0,0-0.1,0.2c0.1,0.1-0.1,0.1,0.1,0.2c0,0.3-0.3,0.2-0.2,0.4c-0.1,0.1,0,0.1,0,0.3c-0.1,0.2-0.3,0.4-0.1,0.4
		c0,0,0,0.1-0.1,0.1c0,0,0,0,0,0c0,0,0,0,0,0c0,0.1-0.1,0.1-0.1,0.1c0,0,0.2,0.2-0.1,0.2c0,0,0,0.2,0,0.4c0,0,0,0,0,0c0,0,0,0,0,0
		c0,0,0,0,0,0.1c1.1-0.3,2.2-0.6,3.3-0.7c0.4,0,0.9-0.1,1.3,0c0,0,0.1,0,0.1,0.2c0.3,0.2-0.1,0.1,0.1,0.2c-0.2,0.2,0,0.1,0,0.3
		c-0.1-0.1-0.1,0-0.1,0.1c0.2-0.1,0,0.1,0,0.2c-0.1-0.1-0.1-0.3-0.1,0c0.1,0.1,0.3,0.4,0.1,0.2c0,0-0.1,0.1-0.2,0.2c0,0,0,0,0,0
		c0,0,0,0,0.1,0c0.1,0.1,0.2,0.1,0,0.2c-0.3,0.2,0,0,0,0.2c0.2-0.1,0,0.2-0.1,0.2c-0.2,0-0.2,0.2-0.1,0.1c0.1,0-0.1,0.3-0.1,0.1
		c0,0.2-0.6,0.1-0.4,0.3c-0.2-0.1-0.2,0.2-0.3,0.1c-0.2,0.2-0.2-0.1-0.2,0.1c-0.2,0-0.4-0.1-0.6,0c-0.1,0.1-0.3,0-0.4,0.1
		c-0.1,0-0.1,0-0.2,0c-0.2-0.1,0,0.2-0.2,0.1c0.2-0.1-0.5,0-0.2,0.1c-0.3,0.2-0.2-0.2-0.4,0c-0.2,0.2-0.1,0.1-0.2,0.1
		c-0.1,0-0.2,0-0.3,0.1c0.1,0.1-0.1,0.1,0,0c-0.1,0.1-0.2,0.1-0.3,0.1c-0.1,0.1-0.3,0.1-0.2,0.1c-0.2-0.1-0.1,0.2-0.2,0
		c-0.1,0.2-0.5,0.2-0.5,0.2c-0.2-0.1-0.1,0.5-0.2,0.8c-0.2,0,0.1,0.1,0,0.4c-0.1,0.2,0,0.3,0,0.5c-0.1,0,0.2,0.3-0.1,0.4
		c0,0.4,0.2-0.1,0.1,0.3c0,0,0,0.1,0,0.1c0,0,0,0,0,0c0.1,0,0.1,0.1,0,0.1c0,0.1,0.1,0.1,0.1,0.2c0.1,0.3-0.1,0,0,0.3
		c0.1,0.1,0,0.1,0.1,0.2c0.9-0.2,1.7-0.8,2.4-1.4c0.2,0,0.2,0,0.3,0.1c0.1-0.1,0.1,0,0.2,0.1c0.3-0.1-0.1,0.2,0.1,0.1
		c0.2,0.1,0.3-0.2,0.4,0c-0.1,0.2,0.1,0.1,0.2,0c0.1,0,0.1,0.3,0.1,0.1c0,0,0,0,0,0c0,0,0,0,0-0.1c0,0.2,0.5-0.2,0.4,0.1
		c0.3,0,0.2,0.3,0.3,0.3c0.1,0,0,0.2,0.2,0.1c0,0.3-0.2-0.1-0.3,0.1c0,0.2-0.3,0.1-0.1,0c-0.1,0-0.2,0.3-0.1,0.2
		c0,0.1-0.1,0.3-0.3,0.3c-0.2,0.2-0.4,0.2-0.5,0.4c-0.1,0.1-0.4,0.2-0.3,0.2c0.1,0,0.3-0.2,0.4-0.3c0,0.3,0.1,0.1,0.2,0.1
		c0.1-0.1,0.3-0.2,0.4-0.3c0.2-0.1,0.2,0-0.1,0.2c-0.3,0.1-0.5,0.5-0.7,0.5c-0.1,0.2-0.3,0.1-0.3,0.3c-0.1,0-0.2,0.2-0.4,0.2
		c-0.1,0-0.1,0.1-0.3,0.2c-0.3,0.2-0.7,0.3-1.1,0.3c-0.4,0-0.6-0.2-0.9-0.2c-0.2,0-0.3-0.1-0.6-0.2c0.2,0-0.1-0.2-0.2-0.2
		c-0.3-0.2-0.1,0.2-0.3,0c-0.3-0.2,0,0.1-0.2,0c-0.1-0.1-0.1-0.1-0.2-0.1c0,0,0,0,0,0c0,0,0,0,0,0c0,0-0.1,0-0.1,0
		c-0.8-0.4-1.1-1.4-1.2-2.3c-0.1-1.9,0.3-3.8,0.9-5.7c0.1-0.3,0.4-0.9,0.3-1c0-0.2-0.2-0.2-0.2-0.4c-0.2,0.1-0.2-0.2-0.1-0.3
		c0.1-0.1-0.2,0-0.3-0.2c0.4,0-0.1-0.1,0.1-0.2c0.2,0,0.1-0.1,0.2-0.2c-0.2-0.2,0-0.2,0-0.3c0.2,0,0.2-0.2,0.2-0.2
		c0-0.2-0.1,0-0.2-0.1c0.2,0,0.1-0.1-0.1-0.1c0.1,0.2-0.3-0.3-0.2-0.3c0-0.1,0.4-0.1,0.2-0.1c0.8-0.2,1.7-0.1,1.7-0.7
		c0-0.2,0.2-0.3,0.2-0.2C299.8,179.9,299.8,179.7,300,179.7C300,179.7,300,179.7,300,179.7z M298.3,192.2
		C298.3,192.2,298.3,192.2,298.3,192.2C298.3,192.2,298.3,192.2,298.3,192.2z M299.2,192.5C299.2,192.6,299.2,192.6,299.2,192.5
		C299.2,192.6,299.2,192.6,299.2,192.5z M300.1,184.5C300,184.6,300.2,184.5,300.1,184.5C300.1,184.5,300.1,184.5,300.1,184.5z
		 M300.3,192.6c0.3,0.1,0.4,0.1,0.5,0c0-0.1-0.4,0.1-0.2,0C300.8,192.5,300.5,192.6,300.3,192.6
		C300.4,192.6,300.2,192.6,300.3,192.6z M300.4,192.7C300.3,192.8,300.5,192.7,300.4,192.7C300.4,192.7,300.4,192.7,300.4,192.7z
		 M300.5,179.8C300.7,180,300.3,179.8,300.5,179.8C300.5,179.7,300.5,179.7,300.5,179.8z M300.9,192.6c-0.2,0.3,0,0.1,0.2,0.1
		c0,0,0.4,0,0.2-0.1C301.2,192.6,300.9,192.7,300.9,192.6z M301.3,182.2C301.4,182.2,301.4,182.1,301.3,182.2
		C301.3,182.2,301.2,182.2,301.3,182.2z M302.1,192.1c-0.1,0.1-0.3,0.1-0.4,0.2c-0.3,0.2,0,0.1,0,0.1c0.2,0,0.4-0.1,0.5-0.2
		c0-0.1,0.4-0.4,0.2-0.2c0.1,0.1,0.2-0.2,0.1-0.2C302.5,192.1,302.3,192,302.1,192.1z M302,192.6C302,192.6,302,192.6,302,192.6
		C301.8,192.6,301.9,192.6,302,192.6C301.9,192.7,302,192.7,302,192.6C302,192.5,302,192.6,302,192.6z M303.3,190.1
		C303.3,190.1,303.3,190.1,303.3,190.1C303.3,190.2,303.3,190.2,303.3,190.1z M303.7,181.8C303.7,181.9,303.5,181.8,303.7,181.8
		C303.6,181.8,303.6,181.8,303.7,181.8z M303.8,191.2C303.5,191.5,303.6,191.3,303.8,191.2C303.9,191.2,303.7,191.2,303.8,191.2z
		 M303.9,191.3C303.9,191.3,303.9,191.3,303.9,191.3C304,191.3,304,191.3,303.9,191.3z M304.7,185.6
		C304.7,185.6,304.7,185.6,304.7,185.6C304.7,185.6,304.7,185.6,304.7,185.6z M304.8,185.9C304.8,185.9,304.8,185.9,304.8,185.9
		C304.8,185.9,304.8,186,304.8,185.9z M305,181.3C305,181.4,305.1,181.3,305,181.3C305.1,181.3,305,181.3,305,181.3z M305.5,180.2
		c0.1,0.1-0.1,0.3,0.2,0.2C305.6,180.2,305.8,180.2,305.5,180.2C305.5,180.2,305.5,180.2,305.5,180.2z"/>
	<path d="M312.2,178.6c0,0,0.2,0.1,0.2,0c-0.1-0.1,0.2,0,0,0.2c0.2-0.1,0.1,0.2,0.2,0.2c0.1,0.1,0.3,0.2,0.2,0.2
		c0.1,0.1,0.1,0,0.2,0c0.2,0,0,0.2,0.2,0.3c0.2-0.2,0,0.2,0.1,0.1c0.1,0.1,0.3,0.2,0.2,0.4c0,0.1,0.2-0.1,0.1,0.3
		c0,0.1,0,0.2-0.1,0.3c0,0.2,0,0.3,0.1,0.5c-0.1,0.6,0-0.4-0.1,0.1c0,0.2-0.1,0.3-0.1,0.5c0,0,0,0,0,0.1c0,0,0,0,0,0
		c0,0,0,0.1,0,0.2c-0.2,0-0.1,0.4-0.2,0.5c0,0.2,0,0.2-0.1,0.4c-0.1,0.2,0,0.5-0.1,0.6c0,0,0,0,0,0c0,0,0,0,0,0c0,0.1,0,0.1,0,0.1
		c0,0.1-0.1,0.3-0.1,0.4c-0.1,0.1-0.1,0.4-0.1,0.4c-0.1,0.1,0,0.1,0,0.2c0,0.3-0.1,0.7-0.1,0.8c-0.1,0.5-0.2,1-0.3,1.5
		c-0.1,0.4-0.1,0.8-0.2,1.1c0,0.3-0.1,0.5-0.1,0.8c0,0.3,0,0.6-0.1,0.9c0,0.2,0,0.3-0.1,0.5c0,0.3,0,0.7-0.1,1
		c0,0.1,0.1,0.3-0.1,0.5c0.1,0,0,0.2,0,0.3c-0.2,0.3,0-0.2-0.2-0.2c0.1-0.2,0,0-0.1-0.2c-0.1,0.1-0.1,0.2-0.1,0
		c-0.1,0.3-0.1,0-0.2,0c0-0.2-0.1,0.2-0.1,0c-0.2-0.2-0.2,0.2-0.2,0.2c-0.1-0.2-0.2-0.1-0.3-0.1c-0.2,0.2-0.4-0.9-0.5-0.6
		c-0.1-0.2-0.2,0.2-0.2,0.1c-0.1,0.1-0.1,0.4-0.3,0.5c0-0.1,0,0-0.1,0.1c-0.2,0.1-0.1,0-0.1-0.1c-0.1,0.2-0.3,0.3-0.6,0.3
		c0-0.1-0.1-0.1-0.3-0.1c0,0.1-0.1,0.1,0,0c-0.1,0-0.2,0-0.3-0.1c-0.2-0.1-0.3,0-0.4-0.1c-0.1,0.1-0.1-0.1-0.1-0.1
		c-0.2,0-0.1-0.2-0.4-0.2c-0.3,0-0.2-0.1-0.5-0.1c-0.3,0.2,0,0-0.3-0.1c-0.1,0,0.1,0.2-0.2,0c-0.8-0.6-1-1.8-1-2.8
		c0.1-2.6,0.8-5.2,1.8-7.6c0.1-0.5,0.7-1.2,0.6-1.5c0.2-0.2,0.1-0.1,0.1-0.2c0.1-0.2,0.3-0.1,0.3,0c0.2-0.2,0-0.3,0.3-0.1
		c0.1,0,0.2,0.2,0.3,0.3c-0.1,0.3,0,0.2,0.1,0.5c0.1-0.3,0,0.2,0.1,0c0,0.2-0.1,0.3,0.1,0c-0.1-0.2,0.3-0.1,0.1,0
		c0.2,0.1-0.2,0.2-0.1,0.2c0.1-0.1,0.1,0,0.2,0c0.1,0.1,0.1,0.2,0.3,0.2c0,0,0,0,0,0c0,0,0,0,0,0c0,0.2,0.1,0.4-0.1,0.6
		c-0.1,0.2-0.3,0.5-0.1,0.5c-0.1,0.2-0.1,0.2-0.2,0.5c-0.1,0.4-0.1-0.1-0.2,0.2c0.2,0.1-0.1,0.2,0,0.4c0.2,0.1-0.1,0.5-0.1,0.4
		c-0.1,0.1-0.1,0.1,0,0.3c0,0-0.1,0-0.2,0.1c-0.1,0.1,0,0.2,0,0.3c-0.1,0.2-0.1,0.1,0,0.3c-0.2-0.1-0.2,0-0.2,0.1c0,0,0,0,0,0
		c0,0,0,0,0,0c-0.1,0.2,0,0.2-0.1,0.4c0,0.1-0.2,0.3-0.1,0.5c0.1,0.1,0.1,0.3,0,0.3c-0.1-0.2-0.1,0.3-0.1,0.2
		c-0.2,0.1,0,0.2-0.1,0.3c0.1,0.2,0,0-0.1,0.2c0.1-0.2,0.2,0.3,0,0.5c0,0.1,0,0.3-0.1,0.5c-0.1,0.2-0.1,0.3-0.1,0.5
		c0,0-0.2,0.3,0,0.2c0,0,0,0.1-0.1,0.1c0,0,0,0,0,0c0,0,0,0.1,0,0.1c0,0.1,0,0.1-0.1,0.2c0,0,0,0,0,0c0.1,0,0,0,0,0
		c0,0-0.1,0.1,0.1,0.1c-0.1,0.1-0.1,0.3-0.1,0.4c-0.1,0.1,0,0.2,0,0.3c0.1,0.1-0.1,0.6,0.1,0.7c-0.1,0.1,0.1,0.2,0,0.4
		c0,0.2-0.1,0.4,0.1,0.2c0.4-0.3,0.7-0.7,1-1.1c0.3-0.5,0.9-0.8,0.9-1.4c0.2-1.9,0.7-3.8,1.1-5.7c0.3-1.1,0.5-2.2,0.9-3.2
		c0-0.3,0.1,0.2,0.1,0c0.1-0.1,0-0.1,0.2-0.3C312.2,178.6,312.3,178.6,312.2,178.6z M306.8,191.7
		C306.9,191.7,306.7,191.7,306.8,191.7C306.8,191.7,306.8,191.7,306.8,191.7z M307.7,191.8c0.1,0.1,0.2,0.1,0.2,0.1
		C308.3,192.1,308,191.7,307.7,191.8C307.7,191.8,307.7,191.8,307.7,191.8z M307.8,187.8C307.8,187.8,307.8,187.8,307.8,187.8
		C307.8,187.8,307.8,187.8,307.8,187.8z M308,186.5c0.1-0.2,0,0,0-0.1C307.9,186.4,307.9,186.5,308,186.5z M309.5,191.6
		c-0.1,0-0.3,0.1-0.5,0.2c-0.2,0-0.2,0-0.4,0c-0.1,0-0.1,0-0.2,0c0,0,0,0,0,0c0,0,0,0,0,0c0,0,0,0-0.1,0c0,0-0.1-0.1-0.1,0
		c0.1,0.2,0.4,0.2,0.6,0.2c-0.2,0.2,0,0,0.1-0.1c0,0.2,0.4,0,0.6-0.1c0.3-0.2-0.1,0-0.1-0.3C309.6,191.5,309.6,191.6,309.5,191.6z
		 M308.5,191.8C308.5,191.8,308.5,191.8,308.5,191.8C308.5,191.8,308.5,191.8,308.5,191.8z M308.9,183.3L308.9,183.3L308.9,183.3z
		 M308.9,191.7C308.8,191.7,309,191.7,308.9,191.7C308.9,191.7,308.9,191.7,308.9,191.7z M309.3,180.6c0.2,0.2,0.1-0.1,0.1-0.2
		C309.1,180.6,309,180.6,309.3,180.6z M309.5,180.4C309.5,180.4,309.5,180.4,309.5,180.4S309.5,180.4,309.5,180.4z M313,184.2
		C313,184.2,313,184.2,313,184.2C312.9,184.2,313,184.2,313,184.2z"/>
	<path d="M322.4,177.4c0.3,0,0.1,0.2,0.5,0.2c0,0.2,0,0.1,0.1,0.2c-0.3,0-0.1,0.2-0.2,0.4c0.1,0.1-0.2,0.2-0.2,0.4c0,0,0,0,0,0
		c0,0,0,0,0,0c0,0,0,0,0,0.1c0,0.1,0.1,0.2-0.1,0.2c0,0.1,0.1,0.2,0,0.3c-0.1,0-0.1,0-0.1,0.1c-0.1,0.1,0.1,0.4,0,0.3
		c-0.2-0.1-0.2,0.2-0.4,0.2c0.1-0.2-0.4,0.1-0.2-0.1c-0.2,0.1,0.1,0.4-0.2,0.2c0.2,0,0,0,0.1-0.1c-0.1-0.2-0.2,0-0.2,0.1
		c-0.1,0-0.3,0.2-0.2,0c-0.2,0-0.4,0.2-0.6,0.1c-0.1,0-0.3,0.1-0.5,0.1c-0.1,0-0.3,0.1-0.4,0c-0.3-0.1-0.3,0.3-0.3,0.1
		c-0.2,0.2,0,0.1,0.1,0.2c0,0,0,0,0,0c0,0,0,0,0,0c-0.2,0.1,0.4,0,0.1,0.1c-0.2,0.1,0.1,0.1-0.1,0.2c0,0.1-0.2,0.4-0.1,0.4
		c0.3,0-0.1,0.3,0.1,0.2c0.2,0-0.3,0.1-0.2,0.3c0.2,0.1,0,0.3,0,0.5c0-0.1-0.2-0.1-0.2,0.3c-0.1,0.1,0.2,0.4-0.1,0.3
		c0,0.1,0.2,0.2,0,0.1c0,0.2-0.1,0.1-0.1,0.2c0.2-0.1,0,0.4-0.1,0.2c-0.1,0.2-0.1,0.4-0.2,0.6c-0.1,0.3,0.1,0.2-0.1,0.4
		c0,0.1-0.1,0.2-0.1,0.4c0,0.1-0.1,0.2,0,0.3c0,0.1-0.1,0.3-0.1,0.4c0,0.1-0.1,0.3-0.1,0.4c-0.1,0.1,0,0.3-0.1,0.2
		c0,0.1-0.1,0.2,0,0.3c-0.1,0.2,0,0.6-0.1,0.9c-0.2,0.2,0,0.2-0.1,0.5c0,0.1-0.1-0.1,0,0.2c-0.1,0.1,0,0.2-0.1,0.4
		c-0.1,0.1,0,0.4-0.1,0.4c0.1,0.2,0,0.3,0,0.4c-0.1,0.1,0,0.2-0.1,0.3c0.1,0,0,0.1,0,0.3c0,0,0.1,0.2-0.1,0.3c0,0.2,0.1,0.2,0.1,0.4
		c0,0.1-0.1,0.2-0.1,0.3c0,0.2-0.2,0-0.1-0.1c0.2-0.1,0-0.1-0.1,0c0.1,0.4-0.4,0.1-0.1,0.4c-0.1,0.1-0.2-0.1-0.4-0.1
		c0,0-0.1,0.2-0.2,0.2c0-0.1-0.1-0.2-0.3-0.1c0.1,0-0.1,0.2-0.1,0c-0.1,0-0.2,0.1-0.2,0c-0.1-0.1,0,0.4-0.2,0c0.1-0.1,0-0.2,0-0.2
		c0,0,0,0,0,0c0,0,0,0,0,0c-0.1,0-0.1,0-0.1,0c0.1,0.2-0.2-0.1-0.2,0.1c0,0.2-0.2,0-0.3,0.1c0.2,0.1,0,0-0.1,0.1
		c-0.1,0.1-0.2,0.2-0.2-0.1c0-0.1-0.1-0.5,0-0.8c0.3-2.6,0.8-5.3,1.6-7.9c0.2-0.5,0.4-1,0.5-1.4c0.1-0.2,0-0.3-0.1-0.2
		c-0.2,0-0.4,0.1-0.6,0.1c-0.2,0.1-0.3,0.1-0.4,0.2c-0.1,0-0.3-0.1-0.3,0.1c0,0-0.1,0-0.1,0.1c0,0,0-0.1,0-0.1c-0.1,0,0,0.1,0,0.1
		c-0.2,0.1-0.3-0.1-0.5,0c-0.2,0.1-0.4,0.1-0.5,0.2c-0.1,0-0.2,0.1-0.3,0c-0.2,0.1-0.2,0.1-0.4,0.1c-0.2,0.2-0.3,0-0.1-0.1
		c0.2,0,0.5-0.1,0.2-0.2c-0.2,0.2,0-0.2-0.2-0.2c-0.5,0.1-0.2,0,0.1-0.1c0.3,0,0.2-0.1,0.2-0.2c-0.4,0,0.2-0.1-0.1-0.1
		c0.4-0.1-0.3,0,0.1-0.1c0-0.2-0.2-0.1,0-0.3c0-0.1-0.2-0.2,0-0.3c0.2-0.1,0.1-0.3,0.2-0.3c-0.2,0-0.1-0.5-0.2-0.3
		c-0.1-0.2,0-0.3,0.2-0.4c2.1-0.5,4.2-1,6.3-1.3C321.4,177.5,321.9,177.4,322.4,177.4z M315.9,181.2
		C315.9,181.2,315.9,181.2,315.9,181.2C315.9,181.2,315.9,181.2,315.9,181.2z M316.1,190.8C316.1,190.8,316.1,190.8,316.1,190.8
		C316.1,190.8,316.1,190.8,316.1,190.8z M317.6,191.4c-0.1-0.1,0.1,0.2-0.2,0.2c0-0.1,0-0.2,0-0.4
		C317.7,191.2,317.8,191.2,317.6,191.4z M317.6,190.1c0.1-0.1,0-0.2,0-0.4C317.6,189.8,317.5,190.1,317.6,190.1z M317.7,189.2
		C317.6,189.5,317.8,189.1,317.7,189.2C317.7,189.2,317.7,189.2,317.7,189.2z M317.8,188.4C317.7,188.9,317.8,188.6,317.8,188.4
		C317.8,188.3,317.8,188.4,317.8,188.4z M319,183.7C319.1,183.9,318.8,183.7,319,183.7C319,183.6,319,183.7,319,183.7z M320.6,180.1
		c-0.3,0,0,0,0-0.1C320.6,180,320.6,180.1,320.6,180.1z M320.9,179.8c0.1,0,0.4-0.1,0.2-0.1C321.1,179.7,321.1,179.7,320.9,179.8
		C321,179.7,321,179.8,320.9,179.8z M322.5,178.9C322.5,178.9,322.5,178.9,322.5,178.9C322.6,178.9,322.5,179.1,322.5,178.9z
		 M322.5,178.8C322.5,178.8,322.5,178.8,322.5,178.8C322.7,178.8,322.5,178.9,322.5,178.8z M323.1,177.9c0-0.1-0.3,0.2-0.1-0.1
		c0,0,0,0,0,0C323.1,177.7,323.1,178,323.1,177.9z"/>
	<path d="M327.9,176.6c0.4,0.1,0.4,0.1,0.6,0.2c0.2,0.1,0.2,0.4,0.3,0.3c0,0.1,0.1,0.3,0.1,0.4c-0.1,0.3,0.3,0.2,0.1,0.4
		c0,0.2,0.3,0.4,0.2,0.5c0.1,0,0,0.2,0.1,0.2c-0.1,0.3,0.2,0.4,0,0.6c0,0.2-0.1,0.4-0.2,0.7c0,0.2-0.3,0.5-0.3,0.8c0,0,0,0,0,0
		c0,0,0,0,0,0c0,0,0,0,0,0.1c-0.1,0-0.2,0.2-0.1,0.4c0,0-0.2,0-0.3,0.3c0.1-0.1-0.1,0.3-0.1,0.1c-0.1,0-0.2,0.3-0.1,0.3
		c-0.2,0.4-0.1-0.1-0.3,0.3c-0.2,0.3,0,0.2-0.3,0.5c-0.1,0.2-0.3,0.4-0.2,0.5c-0.1,0.1,0.1,0.1,0,0.2c-0.2,0.1-0.1,0.4-0.6-0.1
		c-0.5-0.4-1.1-1-0.8-1.7c0.3-0.7,0.8-1.3,1.1-2.1c0.2-0.1,0.1-0.6,0.2-0.4c0.1-0.1,0.1-0.3-0.1-0.2c0.1-0.1,0-0.1-0.1,0
		c-0.1,0,0.2,0.4-0.1,0.2c-0.2-0.1,0,0.1,0,0.2c-0.3,0.1-0.8,0.2-0.9,0.3c0-0.2-0.2,0.1-0.2,0.2c-0.3,0.2-0.8,0.5-1,0.8
		c-0.1,0.2-0.5,0.2-0.5,0.4c0.1,0.1-0.1,0.1-0.2,0.3c-0.1-0.2-0.4,0.4-0.5,0.5c-0.2,0-0.3,0.5-0.3,0.4c-0.2,0.3-0.1,0.1-0.1,0.3
		c-0.1,0-0.3,0.1-0.2,0.2c-0.1,0.1,0,0.2-0.1,0.2c-0.1,0.2-0.2,0.2-0.2,0.5c0.4,0.3,0.8,0.4,1.2,0.6c0.9,0.3,1.9,0.6,2.6,1.2
		c0.2,0.1,0.1,0.2,0.2,0.3c0,0.1,0,0.1,0.1,0.2c0,0,0,0,0,0c0,0,0,0,0,0c0,0,0.1,0.1,0.1,0.1c0.5,0.5,0.7,0.9,0.7,1.6
		c0,0.2-0.1,0.3-0.1,0.5c0,0.2-0.4,0.4-0.2,0.4c-0.2,0.3-0.5,0.5-0.7,0.7c-0.2,0.1-0.4,0.2-0.5,0.2c-0.1,0.1-0.3,0.2-0.4,0.2
		c0,0.1-0.2,0.1-0.2,0.1c-0.1,0-0.2,0.1-0.3,0.1c-0.2,0.1-0.2,0.1-0.3,0.1c-0.2,0.1-0.4,0.1-0.5,0.2c-0.2,0.2-0.1,0-0.3,0.1
		c-0.1,0-0.1,0-0.2,0.1c-0.3,0-0.2,0-0.2,0.1c0,0-0.1,0-0.2,0c0,0,0,0,0,0c0,0,0,0,0,0c-0.1,0-0.2,0-0.2,0c-0.1-0.1,0,0.2-0.1,0.1
		c-0.2,0.1-0.6,0.2-0.4,0c-0.2-0.2,0.2,0.1,0.1,0c0.1-0.1,0.2,0,0.2,0c0,0,0,0,0-0.1c0.3-0.1,0.4-0.1,0.7-0.2c0.2-0.2,0.1,0,0.4-0.1
		c0-0.1,0.1-0.2,0.2-0.1c0.1-0.1,0.1,0,0.2-0.1c0.2,0,0.2-0.2,0.2-0.2c0.1-0.1,0.2,0.1,0.3,0c0.2-0.1-0.1-0.1,0-0.2
		c0.2-0.1,0.3,0.1,0.5,0c0-0.1-0.4,0.1-0.2-0.1c0.5-0.2,0.1-0.1-0.1,0c-0.2,0.1-0.5,0.2-0.7,0.2c-0.1,0.2-0.2,0-0.3,0.1
		c-0.2,0-0.5,0.1-0.6,0.2c-0.2,0.1-0.1-0.1-0.3,0c-0.2,0-0.2,0.3-0.2,0.1c-0.2,0,0,0.2-0.3,0c-0.1,0.1,0.1-0.1-0.1-0.1
		c-0.2,0-0.7,0.1-0.6,0c0,0,0,0,0,0c0,0-0.2,0,0,0c-0.1,0-0.3,0-0.4-0.2c-0.1-0.2,0.1-0.2-0.2-0.3c-0.1,0.1-0.2,0-0.3,0
		c-0.2,0-0.2-0.2-0.3-0.2c-0.3-0.1,0.6-0.3,0.2-0.2c-0.2-0.1,0.1,0,0.1-0.2c1.2-0.4,2.4-0.7,3.6-1.4c0.2-0.2,1.2-0.7,0.6-0.8
		c-0.2-0.1-0.5-0.2-0.6-0.2c-0.3-0.1-0.6-0.2-0.8-0.3c-0.2-0.1-0.3-0.1-0.6-0.2c-0.4-0.2-0.7-0.3-0.9-0.6c-0.1-0.2-0.2-0.4-0.3-0.7
		c-0.1-0.1-0.1-0.1-0.1-0.2c-0.1-0.2,0-0.5-0.2-0.6c-0.1,0.3-0.1,0,0-0.1c-0.2,0.1-0.2,0-0.2-0.2c0,0.1,0-0.3-0.1-0.1
		c-0.1,0-0.2-0.5-0.1-0.8c0-0.8,0.4-1.7,0.9-2.4c1.1-1.5,2.7-2.8,4.4-3.5c0.3-0.1,0.6-0.2,0.9-0.3
		C327.7,176.6,327.8,176.6,327.9,176.6z M321.7,184.4c-0.1,0,0.3,0.3,0.2,0.2C321.8,184.6,321.8,184.6,321.7,184.4
		C321.7,184.3,321.8,184.5,321.7,184.4z M321.8,184.3C322,184.7,321.8,184.5,321.8,184.3C321.8,184.3,321.8,184.3,321.8,184.3z
		 M322,184.4C322.1,184.9,322.2,184.6,322,184.4C322,184.4,322,184.4,322,184.4z M322.5,184.9C322.5,185.2,322.7,185.2,322.5,184.9
		C322.5,184.9,322.5,184.9,322.5,184.9z M322.7,185.3C322.7,185.3,322.7,185.3,322.7,185.3c-0.2,0.1,0.1,0,0,0.1
		C322.8,185.5,322.9,185.3,322.7,185.3C322.7,185.3,322.7,185.3,322.7,185.3C322.7,185.3,322.7,185.3,322.7,185.3z M322.7,185.3
		C322.7,185.3,322.7,185.3,322.7,185.3C322.7,185.3,322.7,185.3,322.7,185.3z M322.8,190.1C322.8,190.3,322.7,190.3,322.8,190.1
		C322.8,190.2,322.8,190.2,322.8,190.1z M322.9,185.5C322.8,185.6,323,185.7,322.9,185.5C323,185.5,323,185.5,322.9,185.5z
		 M323.1,185.6c0.2,0.1,0.2,0.1,0.1,0.1c0.2,0.1,0.3,0.2,0.3,0C323.4,185.7,323.2,185.6,323.1,185.6
		C323.1,185.6,323.1,185.6,323.1,185.6z M323.7,185.9C323.4,185.9,323.6,186,323.7,185.9c0.1,0.1,0.3,0.2,0.4,0.2c0,0,0,0,0,0
		c0,0,0,0,0.1,0c0,0,0,0,0,0c0.1,0,0.2,0.2,0.4,0.1c0.1-0.2-0.1-0.1-0.3-0.2c0,0.1-0.3,0.1-0.4-0.1
		C323.8,185.9,323.6,185.9,323.7,185.9z M323.6,190.4C323.6,190.4,323.6,190.4,323.6,190.4C323.6,190.5,323.6,190.5,323.6,190.4z
		 M323.6,190.4C323.6,190.4,323.6,190.4,323.6,190.4C323.6,190.4,323.6,190.4,323.6,190.4C323.7,190.5,323.7,190.4,323.6,190.4
		C323.7,190.4,323.7,190.4,323.6,190.4z M323.7,185.9C323.8,186,323.5,185.9,323.7,185.9C323.7,185.9,323.7,185.9,323.7,185.9z
		 M323.6,190.4C323.6,190.4,323.6,190.4,323.6,190.4C323.7,190.4,323.7,190.4,323.6,190.4z M324.1,186.1L324.1,186.1
		C324.1,186.1,324.1,186.1,324.1,186.1z M324.2,186.1C324.3,186.1,324.3,186.1,324.2,186.1C324.4,186.1,324.2,186.2,324.2,186.1z
		 M324.7,186.2c0,0.2,0.2,0.2,0.3,0.2c0.1,0,0.2,0.1,0.3,0.1c0.1,0.1,0.1,0,0,0c-0.3-0.1-0.1-0.1,0.2,0c0.1,0.1,0.4,0.1,0.2,0
		c0-0.1-0.2-0.1-0.2-0.1c-0.2,0-0.4-0.1-0.4-0.1C324.9,186.1,324.8,186.3,324.7,186.2C324.8,186.2,324.8,186.2,324.7,186.2z
		 M325,186.6C325.1,186.5,325,186.5,325,186.6C324.9,186.5,325,186.6,325,186.6z M328.8,181.3C328.8,181.3,328.8,181.3,328.8,181.3
		C328.8,181.3,328.8,181.3,328.8,181.3z M328.9,180.8C328.9,180.8,328.9,180.8,328.9,180.8C328.9,180.8,328.9,180.8,328.9,180.8z"/>
	<path d="M334.5,175.8c0.1,0,0.3,0.2,0.4,0.3c0.1,0.2,0.4,0.4,0.4,0.5c0.2,0.1,0.4,0.3,0.5,0.6c0.2,0,0,0.2,0.2,0.3
		c0.2,0.3,0.1,0.8,0.2,1c0,0.1,0.1,0.4,0.1,0.4c0,0-0.4,0.5-0.1,0.3c0.1,0.4-0.1-0.1-0.1,0.2c-0.1,0.3,0.2-0.1,0.1,0.1
		c0,0.2-0.1,0.6-0.2,0.6c-0.2,0.1-0.1,0-0.2,0.2c-0.1,0.1,0,0.2-0.2,0.4c0,0.1-0.1,0.2-0.2,0.2c0-0.2-0.1-0.1-0.2,0
		c0-0.2-0.1-0.1,0-0.2c0.1-0.2-0.2,0.2-0.1-0.1c-0.1,0-0.1,0-0.3-0.1c-0.1,0.1-0.3,0.1-0.2-0.1c-0.2,0.1-0.3,0.2-0.3,0
		c0,0-0.2-0.2-0.1-0.2c-0.1-0.2,0.2-0.1,0-0.2c0.1-0.2,0.1-0.2-0.1-0.2c-0.3-0.3,0.2,0,0.1-0.1c-0.1-0.1-0.3-0.1-0.3,0
		c0,0-0.4-0.1-0.2-0.2c-0.2,0.1-0.1,0.3-0.3,0.2c-0.2,0.2-0.3,0.4-0.4,0.6c-0.2,0.2-0.1,0.1-0.2,0.3c-0.1,0.1-0.2,0.3-0.3,0.4
		c-0.1,0.2-0.2,0.5-0.3,0.7c0,0.1-0.2,0.4-0.2,0.5c-0.1,0.2-0.1,0.2-0.1,0.3c0,0,0,0,0,0c0,0,0,0,0,0.1c0,0-0.1,0.1-0.1,0.2
		c0,0,0,0.1,0,0.1c0,0.1,0,0.2-0.1,0.2c0,0.1-0.1,0.2-0.1,0.4c-0.1,0-0.1,0.2-0.1,0.2c0,0.2,0.1,0.6-0.1,0.8c0,0.1,0,0.2-0.1,0.2
		c0.1,0.2-0.1,0-0.1,0.2c0.1,0.1,0,0.2,0,0.2c0.1,0.1,0,0.2,0,0.3c0,0.1,0,0.1,0,0.2c0,0,0,0,0,0c0,0,0,0,0,0c0,0.1,0,0.1,0,0.2
		c0,0.2,0.1,0.2,0,0.4c0,0,0,0,0,0c0,0,0,0,0,0c-0.1,0.1,0,0.1,0,0.1c0,0.1,0.1,0.1,0,0.3c0,0.1,0.1,0.4,0.2,0.4
		c-0.1,0.3,0.1,0.5,0.5,0.2c1-0.7,1.8-1.6,2.6-2.5c0.1-0.1,0.3-0.3,0.1,0c0.2-0.3,0.2-0.1,0.4-0.3c0.1-0.1,0.2,0.1,0.1,0.1
		c0.1,0.1,0.1,0.2,0.3,0.3c0.2-0.2,0.1-0.1,0.2,0.1c-0.2,0.3,0.2-0.1,0.3-0.1c-0.1,0.3,0,0.2,0.1,0.4c0,0,0,0,0-0.1c0,0-0.1,0,0,0
		c0,0,0,0,0,0c0,0,0,0,0-0.1c0,0,0,0,0.1,0c0,0.1,0,0.2,0.1,0.2c0,0,0.3-0.4,0.2-0.1c0.2-0.1,0.1,0.3-0.1,0.4
		c-0.1-0.1,0-0.2-0.2-0.1c0.1,0-0.2,0.2,0.1,0.2c0.3,0.1-0.3,0.1,0,0.2c-0.1,0-0.1,0.1-0.2,0.2c0,0,0,0,0,0c0,0.1,0,0.1-0.1,0.1
		c0.2,0-0.2,0-0.2,0.1c-0.2,0.1,0,0.3,0,0.4c-0.1-0.1-0.1,0.1-0.1,0.2c-0.1-0.1,0,0.1-0.1,0.1c-0.1-0.1,0.1-0.1,0.1-0.2
		c0-0.1-0.1-0.2-0.1-0.1c-0.1,0.1-0.3,0.3-0.3,0.5c-0.2-0.1-0.2,0.1-0.2,0.1c0,0-0.1,0-0.2,0.1c0,0.1,0,0.2-0.1,0.3
		c-0.1-0.1-0.2,0.1,0,0.1c-0.1,0.2-0.2-0.1-0.2,0.1c0.1,0,0.1,0.1,0,0.1c-0.2,0.1-0.1-0.1-0.2-0.1c0,0.2,0,0.1-0.2,0.1
		c0,0,0,0.1,0,0.1c0,0,0,0,0,0c0.1,0,0,0.1-0.1,0c-0.1,0.1-0.2,0.1-0.2,0.2c0,0.1-0.4,0.2-0.4,0.3c-0.1,0.2-0.3,0.1-0.5,0.2
		c-0.1-0.3,0,0.1-0.2,0c0-0.1-0.3-0.2-0.4-0.1c-0.2,0-0.5-0.1-0.7-0.1c0.4,0.2-0.2-0.1-0.1,0.1c0.1,0.1,0.3,0,0.4,0.1
		c0.1,0.1,0.5,0.2,0.2,0.2c-0.2,0.1-0.2-0.1-0.5-0.1c-0.1-0.1-0.2-0.1-0.4-0.1c0.3-0.1,0-0.2,0-0.1c-0.3-0.2,0.2,0.1-0.1-0.2
		c-0.3-0.3-0.1,0.2-0.3-0.1c0-0.1-0.3-0.3-0.5-0.3c-0.2,0-0.6-0.4-0.6-0.2c-0.3-0.3-0.6-0.6-0.8-1c-0.1-0.2-0.2-0.4-0.1-0.6
		c0-0.1,0-0.3-0.1-0.3c0-0.8,0-1.5,0.2-2.3c0.5-2.4,1.7-4.9,3.3-6.9c0.3-0.3,0.5-0.7,0.8-0.8c0.1-0.2,0.3-0.2,0.5-0.3
		c0.1-0.1,0.8-0.1,0.6-0.2c0,0,0,0,0,0C334.3,175.7,334.4,175.8,334.5,175.8z M331,186.3C331,186.3,331,186.2,331,186.3
		C331,186.2,331,186.3,331,186.3z M331.5,183.5C331.6,183.6,331.3,183.5,331.5,183.5C331.5,183.5,331.5,183.5,331.5,183.5z
		 M331.6,182.9C331.6,182.9,331.7,182.9,331.6,182.9C331.7,182.9,331.7,182.9,331.6,182.9z M332.8,189.1c0.1,0.2,0,0.1-0.1,0.2
		c-0.2,0-0.2-0.1-0.1-0.2C332.6,189.2,332.7,189.1,332.8,189.1z M332.7,189.3c-0.4,0,0.1,0,0.1-0.1
		C333.1,189.3,332.8,189.3,332.7,189.3z M332.6,180.4C332.6,180.5,332.7,180.4,332.6,180.4C332.7,180.4,332.6,180.4,332.6,180.4z
		 M335.3,187.3c0,0.2-0.3,0.2-0.3,0.3c-0.2,0.2-0.2,0.2-0.3,0.3c-0.1,0.1-0.3,0.3-0.4,0.4c0,0,0,0,0,0c0,0.1-0.1,0.1-0.1,0.1
		c0,0.1-0.1,0.1-0.1,0c-0.2,0-0.1,0.2-0.3,0.2c-0.1,0.4-0.1-0.1-0.2,0.2c-0.1,0.1-0.2,0.1-0.3,0.2c0,0,0,0,0,0c0,0,0,0,0,0
		c0,0-0.1,0-0.1,0.1c-0.2-0.1-0.1-0.2,0.1-0.2c0.2-0.2,0.3-0.1,0.5-0.3c0.1,0,0.3-0.3,0.3-0.3c0.1-0.2,0.4-0.3,0.6-0.5
		c0.1,0,0.3-0.3,0.4-0.5C335.3,187.3,335.3,187.3,335.3,187.3z M333.4,188.5C333.4,188.5,333.5,188.5,333.4,188.5
		C333.4,188.5,333.4,188.5,333.4,188.5C333.4,188.5,333.4,188.5,333.4,188.5C333.3,188.5,333.4,188.5,333.4,188.5z M333.4,188.5
		C333.4,188.5,333.4,188.5,333.4,188.5C333.4,188.5,333.4,188.5,333.4,188.5z M333.6,188.7c-0.3,0.1,0-0.1,0-0.2
		C333.6,188.6,333.6,188.7,333.6,188.7z M333.5,189C333.5,189,333.5,189,333.5,189C333.5,189,333.5,189,333.5,189z M333.8,179.9
		C333.8,180.1,333.7,180,333.8,179.9C333.7,179.9,333.7,179.9,333.8,179.9z M334.7,184.6c0,0.2,0,0.2,0,0.2c0,0,0.2,0,0,0
		c0,0,0,0,0,0C334.8,184.6,334.8,184.5,334.7,184.6C334.7,184.5,334.7,184.6,334.7,184.6z M334.7,184.7
		C334.7,184.7,334.7,184.7,334.7,184.7C334.7,184.7,334.7,184.7,334.7,184.7z M335.4,180.7C335.4,180.7,335.4,180.7,335.4,180.7
		C335.4,180.7,335.4,180.9,335.4,180.7z M335.6,187C335.4,187.1,335.4,187,335.6,187C335.6,186.9,335.6,186.9,335.6,187z
		 M335.7,186.7c-0.2,0,0.2-0.2,0.2-0.3C336,186.6,335.7,186.6,335.7,186.7z M335.7,186.1C335.7,186.1,335.7,186.1,335.7,186.1
		C335.7,186.1,335.7,186.1,335.7,186.1z M336.2,185.6C336.3,185.7,336,185.6,336.2,185.6C336.3,185.5,336.3,185.5,336.2,185.6
		C336.3,185.5,336.2,185.6,336.2,185.6z"/>
	<path d="M339.6,175.1c0.1-0.1,0.2,0.1,0.2,0.2c0.1,0.2,0.2,0.3,0.5,0.3c0,0,0.1,0.2,0.1,0.2c0.2,0,0,0.2,0.1,0.3
		c0.1,0.2,0.2,0,0.2,0.1c-0.1,0.1,0.1,0.3,0.1,0.6c0,0.3-0.2,0.1-0.2,0.3c0.2,0.1,0.1,0.2,0.1,0.2c-0.1,0.2-0.3,0.3-0.2,0.3
		c-0.1,0.2,0,0.2-0.1,0c-0.1,0.1-0.1,0.2-0.1,0.3c0,0,0,0,0,0c-0.1,0,0,0,0,0c0,0.2-0.1,0.3-0.1,0.6c-0.1,0.4,0,0.2-0.2,0.6
		c0,0.1-0.1,0.5-0.1,0.6c0,0-0.1,0.1-0.1,0.3c0.2,0.1-0.1,0-0.1,0.2c0.1,0.3,0,0.1-0.1,0.4c0.9-0.2,1.8-0.4,2.8-0.6
		c0.3-1.5,0.7-3,1.1-4.4c0.1-0.3,0.1-0.7,0.3-0.8c0.1-0.2,0.5-0.4,0.5-0.2c0.2,0.2-0.2-0.4,0.1-0.1c0.1-0.2,0,0.3,0.2,0.2
		c0,0.2,0.3,0.2,0.1,0.3c0.2-0.2,0.1,0.1,0.3,0c-0.2,0.2,0.2,0,0.2,0.2c0.2-0.1,0,0,0.2,0.1c0.1,0.3,0.2-0.1,0.2,0.1
		c0,0.2,0.2,0.3,0,0.6c0,0,0.2,0.2,0,0.2c-0.1,0.3,0.3-0.2,0.1,0.2c-0.1-0.2,0,0.1-0.1,0.2c0.1,0.2-0.2,0.1,0,0.2
		c-0.1,0.1-0.2,0.3-0.2,0.5c0,0.1,0.1,0.2,0,0.2c-0.1,0.3,0,0.6-0.1,0.9c-0.2,0.6-0.3,1.2-0.4,1.8c0,0.3-0.2,0.7-0.2,1
		c-0.1,0.1,0,0.2-0.1,0.4c0,0.2,0,0.3-0.1,0.4c-0.1,0.5-0.2,1-0.2,1.5c0,0.1-0.1,0.5-0.1,0.6c0,0,0,0.1,0,0.2c0,0.2-0.1,0.2,0,0.3
		c-0.1,0.1,0,0.4-0.1,0.6c-0.1,0.3,0,0.6-0.1,0.8c0,0.3,0,0.4-0.1,0.6c0,0,0,0,0,0c0,0,0,0,0,0c0,0,0,0,0,0.1c0,0.2,0,0.3-0.1,0.4
		c0,0.3-0.2,0.2-0.1,0c0-0.4-0.1,0.3-0.2-0.1c0-0.2-0.2-0.1-0.2,0c0.1-0.1-0.1,0-0.1,0c0,0,0,0.2-0.1,0.2c0.1-0.3-0.2,0-0.4-0.1
		c-0.2,0.2-0.1-0.1-0.4,0.1c0,0-0.1-0.4-0.1-0.2c-0.2,0.2-0.1-0.2-0.2-0.2c-0.1,0,0,0.3-0.2,0.2c0,0.3-0.1,0.2-0.2,0.1
		c0-0.1-0.1-0.2-0.1-0.2c0,0-0.1,0,0,0c-0.1,0-0.1,0-0.1-0.1c0.1-1.4,0.3-2.8,0.4-4.3c-0.2,0-0.5,0.1-0.6,0.2
		c-0.1,0-0.4,0.1-0.7,0.2c-0.2,0.1-0.4,0-0.5,0.1c-0.1,0-0.5,0.2-0.6,0.2c-0.1-0.1-0.2,0.1-0.4,0.1c0,0.2-0.1,0.4-0.1,0.6
		c-0.1,0.2-0.1,0.4-0.1,0.6c0,0.3-0.1,0.9-0.1,1.2c-0.1,0,0.1,0.2,0,0.2c0,0.1,0.1,0.1,0,0.3c0,0,0,0,0,0c0,0,0,0,0,0.1
		c-0.1,0.2,0.1,0.2,0,0.3c0,0,0.1,0.4-0.1,0.3c0,0.3,0,0.3,0,0.6c-0.1,0,0,0.6-0.1,0.5c-0.2-0.2-0.2,0.1-0.2-0.3
		c-0.1,0.1-0.2,0-0.2,0.1c-0.2-0.1,0,0.4-0.2,0.1c0.1-0.1-0.1-0.1-0.2-0.1c-0.1-0.2-0.4,0.1-0.3-0.1c0,0-0.1,0-0.1-0.1
		c0,0-0.2,0.1-0.1,0c0,0,0,0,0,0c-0.1-0.1-0.2-0.1-0.2-0.2c0,0,0,0,0,0c0,0,0,0,0,0c0,0.1,0,0.3-0.1,0.1c-0.1,0,0-0.1-0.1,0
		c-0.1-0.1-0.2,0.1-0.2,0.2c-0.1-0.1-0.1-0.1-0.3-0.2c0-0.3-0.1-0.1-0.1-0.3c0.1,0-0.1-0.3,0-0.6c0.2-3.5,0.9-7.1,2.1-10.6
		c0.1-0.3,0.2-0.8,0.3-0.8c0.1-0.4,0.1-0.1,0.3-0.2C339.5,175,339.4,175.1,339.6,175.1C339.7,174.9,339.5,175.1,339.6,175.1z
		 M344.3,186.9L344.3,186.9C344.3,186.9,344.3,186.9,344.3,186.9z"/>
	<path d="M349.2,173.8c0.2,0,0.2,0,0.3,0.1c0.1,0.1,0.3,0,0.4,0.2c0.1,0,0.3,0.4,0.2,0.2c0-0.2,0.1,0.2,0.1,0.2c0,0.2,0,0.4,0.1,0.5
		c0,0.2-0.1,0-0.2,0.2c0,0.3-0.1,0.2,0.1,0.3c-0.1,0.1,0,0.2-0.1,0.2c-0.1,0.2,0,0.3,0,0.4c0.1,0.2-0.1,0.3-0.1,0.4
		c0.2,0,0.1,0.1,0.1,0.3c0,0.4-0.2,0.1-0.2,0.3c0.1,0,0.1,0.2-0.1,0.3c-0.1,0.1,0,0.4-0.1,0.4c0,0.2-0.1,0-0.2,0.4
		c-0.1,0.1-0.1,0.3-0.1,0.4c-0.1,0.2,0.1,0,0,0.2c0,0.1,0,0.2-0.1,0.5c0,0.1,0,0.1,0,0.1c0,0,0,0,0,0c0,0,0,0,0,0
		c-0.1,0.2,0,0.3-0.1,0.5c0,0.3-0.2,0.6-0.2,1c0,0-0.1,0.4-0.1,0.6c-0.1,0.4-0.2,0.8-0.2,1.2c-0.1,0.3-0.2,0.7-0.1,1
		c0,0.1-0.1,0.4-0.1,0.6c0.9-0.1,1.8-0.3,2.6-0.2c0.2,0.1,0.2,0.1,0.4,0.1c0,0.1,0.3,0.2,0.1,0.2c0.1,0.1,0.1,0.5-0.1,0.1
		c0,0-0.1,0-0.1,0.1c0,0,0,0,0,0c0,0.1,0,0.1,0.1,0.1c-0.1,0.2-0.3-0.1-0.1,0.2c-0.2,0.2-0.1,0.2-0.2,0.2c0,0.2,0.2,0,0.3,0.2
		c0,0.1-0.6,0.1-0.2,0.3c-0.2,0.2,0.1,0.2-0.2,0.3c0.1,0,0.1,0.1,0,0.2c-0.1,0,0,0.2-0.1,0.3c-0.1,0.3-0.3-0.2-0.2,0.2
		c0.1,0.2-0.3,0-0.3,0c0,0.1,0.1,0.3,0,0.1c-0.2,0.1-0.2,0-0.3,0.1c-0.1-0.1-0.3,0-0.2,0c0-0.1-0.3,0.1-0.3,0c-0.1,0-0.4,0.1-0.3,0
		c0,0-0.3,0.1-0.5,0.1c0-0.1-0.2,0.1-0.2-0.1c-0.1,0.2-0.3,0.1-0.5,0.2c-0.1-0.1-0.2,0-0.3,0c0,0,0,0,0,0c0,0-0.1,0-0.1,0.1
		c-0.1,0-0.1,0-0.2,0c0,0,0,0,0,0c0,0-0.1,0-0.1,0c0,0-0.1,0,0,0c-0.1,0-0.1,0-0.2,0c0,0,0,0,0,0c0,0,0,0,0,0c0,0-0.1,0-0.1,0
		c0,0.1-0.3,0.1-0.5,0.1c0.2,0-0.1,0.2-0.2,0.1c0,0-0.1,0-0.2,0.1c0,0,0.1,0,0.2,0c0,0,0,0,0,0c0,0.1,0,0.1-0.2,0.1
		c0.1,0.1-0.2,0-0.1,0.1c-0.1,0.1-0.2-0.1-0.3,0c-0.1,0.1-0.1,0.1-0.2,0.1c0,0,0,0,0,0c0,0,0,0,0,0c-0.1,0-0.1,0-0.2,0.1
		c-0.3,0.1,0-0.1,0-0.1c0,0,0-0.1,0-0.1c0,0,0,0,0,0.1c0,0,0,0,0,0c0,0.1,0,0-0.1,0c0.4-0.1-0.2-0.1,0-0.2c0-0.1,0.1-0.2,0-0.3
		c0.1,0.2-0.2,0-0.1,0c0.1-0.1-0.2-0.1,0.1-0.1c-0.1-0.1-0.2-0.2-0.1-0.4c0,0.1-0.3,0.2-0.2,0c0.1,0,0-0.5,0.1-0.3
		c0.2,0,0-0.2,0.1-0.2c0.2-0.1,0-0.3,0-0.3c0.1-0.1,0.2,0.2,0.2-0.1c-0.1,0-0.1-0.2-0.3-0.2c-0.1-0.1-0.1-0.2,0.1-0.3
		c0.3-0.4,0.8-0.1,0.8-0.7c0.4-3,1.1-6,1.9-9c0.1-0.4,0.3-0.8,0.3-1.1c-0.2-0.1-0.1-0.2-0.1-0.3c0.2-0.1,0.4-0.2,0.6-0.2
		C348.8,173.6,349.1,173.6,349.2,173.8z M345.3,187.4C345.4,187.7,345,187.5,345.3,187.4C345.3,187.4,345.4,187.4,345.3,187.4z
		 M345.5,187.4C345.5,187.4,345.5,187.4,345.5,187.4C345.5,187.4,345.5,187.4,345.5,187.4z M345.7,187.5
		C345.7,187.5,345.7,187.5,345.7,187.5C345.7,187.5,345.7,187.5,345.7,187.5z M345.7,187.2C345.7,187.3,345.8,187.2,345.7,187.2
		C345.7,187.2,345.7,187.2,345.7,187.2z M346.1,187.1C345.5,187.2,346.3,187.1,346.1,187.1C346.1,187.1,346.1,187.1,346.1,187.1z
		 M346.6,187.1C346.6,187.1,346.5,187.1,346.6,187.1C346.5,187.1,346.6,187.1,346.6,187.1z M346.7,187.1c-0.1,0.2-0.1,0-0.1,0
		C346.6,187.1,346.6,187.1,346.7,187.1z M346.7,187.1C346.7,187.1,346.7,187.1,346.7,187.1C346.7,187.1,346.7,187.1,346.7,187.1z
		 M347.1,186.7C347.1,186.8,347.3,186.7,347.1,186.7C347.2,186.7,347.2,186.7,347.1,186.7z M347.3,186.9
		C347.3,186.9,347.3,186.9,347.3,186.9C347.3,186.9,347.3,186.9,347.3,186.9z M347.6,186.8L347.6,186.8
		C347.6,186.9,347.6,186.9,347.6,186.8z M348.7,186.4c0.1,0,0.5-0.1,0.4-0.2c-0.1,0-0.3,0-0.4,0
		C348.5,186.3,348.3,186.4,348.7,186.4z M349.5,186.3C349.3,186.5,349.7,186.3,349.5,186.3C349.6,186.2,349.6,186.3,349.5,186.3z
		 M349.9,186.3C350,186.4,350.3,186.2,349.9,186.3C349.9,186.3,349.9,186.2,349.9,186.3C349.9,186.3,349.9,186.3,349.9,186.3z
		 M350,176.7C350.1,176.8,350,176.7,350,176.7C350,176.7,350,176.7,350,176.7c0,0,0-0.1,0.1-0.2C350.1,176.6,350.1,176.7,350,176.7z
		 M350.9,186C350.8,186,350.8,186,350.9,186C350.8,186,350.7,186.3,350.9,186z"/>
	<path d="M357.8,172.9c0.2,0.1,0.3,0.4,0.5,0.4c0.1,0.1,0.2,0,0.3,0.1c0.1,0.2,0.4,0.2,0.4,0.4c0.2,0.2,0.3,0.4,0.4,0.6
		c0,0.4,0.2,0.3,0.2,0.7c-0.1,0-0.1,0.1-0.1,0.2c0.1-0.2,0.2,0.4,0,0.2c0,0.5,0.1,1,0,1.4c-0.1,0.1,0.2,0,0,0.2
		c-0.1,0.1,0,0.1,0,0.2c0,0,0-0.1,0-0.1c0,0,0,0,0,0c0.1-0.1,0.1-0.1,0.1,0.2c-0.1,0-0.2,0.4-0.1,0.4c0.1,0.2,0,0.4,0,0.7
		c0,0.1-0.1,0.4,0.1,0.3c0,0.2,0,0.2-0.1,0.2c0,0,0,0,0,0c0,0,0,0-0.1,0.1c0,0.3,0.2,0.3,0.1,0.5c0.2,0.1-0.2,0.4,0,0.6
		c0,0.2-0.2,0-0.1,0.2c0.1-0.1,0.1,0.1,0.3,0.1c-0.1,0.1-0.2,0.1-0.2,0.2c0.2,0,0.2,0.2,0,0.3c0,0.1,0.4-0.1,0.2,0.1
		c-0.2-0.1-0.1,0.2-0.2,0.1c-0.1-0.1-0.1,0.1-0.1,0.1c-0.1,0.1,0.4-0.1,0.2,0c-0.2,0,0.1,0.2-0.1,0.1c-0.1,0.1,0,0-0.1,0.3
		c-0.1-0.2,0,0.2-0.1,0.2c-0.1,0,0.1,0.3,0,0.3c0,0.2,0,0.2,0,0.5c-0.1,0.2,0,0.4-0.1,0.6c0.2,0.1,0,0.1,0.1,0.2
		c-0.1,0-0.1,0.4-0.1,0.4c0.2,0.1-0.1,0.1,0,0.2c-0.1,0.1,0,0.4-0.1,0.5c0,0.2,0,0.3,0.1,0.5c0,0.3-0.4-0.2-0.3,0
		c-0.1,0-0.1,0.1-0.1,0.1c-0.1,0-0.3,0.1-0.3,0c0.1,0-0.2-0.1-0.2-0.1c0,0.3-0.2-0.2-0.2-0.1c-0.1,0.3-0.2-0.2-0.4-0.1
		c0.1-0.2-0.2-0.3-0.1-0.1c-0.1,0.2-0.4-0.1-0.4,0.1c-0.1,0.4-0.1-0.1-0.2,0c0,0.1-0.2-0.1-0.2,0.1c-0.2,0,0.3-0.3-0.1-0.2
		c0-0.6,0.1-1.2,0.1-1.7c0-0.3,0.2-1.1-0.2-1c-0.4-0.2,0.5,0,0.3-0.3c0.1-0.1,0-0.3-0.4-0.1c0.2,0.1-0.1,0.2,0,0
		c-0.1,0-0.3,0.1-0.4,0.1c-0.2,0-0.2,0.2,0,0.1c0.2,0.1-0.3,0.2-0.2,0.2c0.1,0,0,0.1,0.2,0.1c-0.2,0-0.6,0.2-0.7,0.1
		c-0.2,0.2-0.1,0-0.3,0.1c-0.2,0.2-0.4,0-0.5,0.1c-0.1-0.2-0.3,0.1-0.5-0.1c0,0.1,0,0.3-0.1,0.2c-0.1,0.1-0.1,0.3,0.1,0.1
		c0.2,0,0.1,0.4-0.1,0.3c-0.1,0.1,0,0.3-0.1,0.2c-0.1-0.3-0.3,0.5-0.2,0.4c0.1,0,0.1,0.3-0.1,0.2c0-0.2-0.4,1.1-0.5,1.1
		c0-0.2-0.2,0.1,0,0.1c0,0.2-0.2,0.3-0.1,0.1c-0.1,0.1-0.1,0.4-0.1,0.3c0,0,0,0.1-0.1,0.2c0,0.1-0.1,0.1-0.1,0.1
		c-0.3-0.1,0.2,0.2,0,0.1c0.1,0.2-0.3-0.1-0.2,0c-0.1-0.2-0.3,0.5-0.2,0c0.1-0.1-0.2-0.3-0.1-0.1c0,0.1,0,0.2-0.1,0.1c0,0,0.1,0,0,0
		c0,0,0,0,0,0c0,0-0.1-0.1-0.1-0.2c-0.4,0.1,0.1,0-0.1,0.2c0-0.1-0.2,0.1-0.2-0.1c0.2-0.1-0.2-0.2-0.2,0c0.2-0.2,0.1,0.2,0,0.1
		c0-0.2-0.2-0.1-0.1-0.2c-0.1-0.4-0.2,0.3-0.2-0.1c0.1,0,0.1-0.3-0.1-0.2c-0.2,0.1,0-0.2-0.1-0.2c-0.1,0-0.2,0.1-0.3,0.1
		c0,0.1-0.2,0.1-0.2,0.1c0.1-0.3-0.3,0.2-0.1-0.1c0-0.1,0-0.3,0-0.4c0.1-0.2,0.1-0.1,0.2-0.4c0-0.1,0-0.2,0-0.3
		c1-3.4,2.7-7.7,4.1-9.7c0.6-0.8,1.1-1.7,2-2.1c-0.1,0.1,0.1,0,0.1,0c0,0,0.1-0.1,0.2-0.1C357.6,172.7,357.8,172.8,357.8,172.9z
		 M352.4,186C352.4,186,352.4,186,352.4,186C352.4,186,352.4,186,352.4,186z M353.9,184.1C354,184.4,353.7,184.2,353.9,184.1
		C353.9,184.1,353.8,184.1,353.9,184.1z M354.4,182.7c0.2,0.2-0.1,0-0.1,0.1C354.2,182.8,354.2,182.7,354.4,182.7
		C354.3,182.7,354.4,182.7,354.4,182.7z M355.5,182.3C355.5,182.3,355.5,182.3,355.5,182.3c-0.3,0.1-0.6,0.1-0.9,0.2
		c-0.4,0,0,0.2,0.1,0.1c0.1,0,0.5,0,0.4-0.1C355.3,182.4,355.7,182.5,355.5,182.3C355.6,182.3,355.6,182.3,355.5,182.3z
		 M355.1,182.6C355.1,182.8,354.7,182.8,355.1,182.6C355.1,182.6,355.1,182.6,355.1,182.6z M357.2,176.2c-0.1,0.2-0.1,0.4-0.2,0.4
		c0,0.2-0.4,0.2-0.2,0.3c0.1,0-0.3,0.4-0.3,0.3c0.2-0.1,0,0,0.1-0.2c-0.1,0.1-0.2,0-0.2,0.1c0,0,0,0,0,0c0,0,0,0,0,0
		c0,0-0.1,0.1-0.1,0.1c0,0,0,0,0,0c0,0,0,0,0,0.1c0,0,0,0.1-0.1,0c0,0.1,0,0,0,0.2c-0.3,0.2,0.1,0,0,0.2c0,0-0.1,0.3-0.1,0.2
		c0.2-0.2-0.1-0.1-0.1,0.1c-0.1,0.1-0.1,0.2-0.2,0.2c0,0.2-0.1,0.2-0.2,0.4c0,0.3,0.1,0,0.2-0.2c0.1-0.1,0.1-0.4,0.3-0.3
		c-0.1,0-0.2,0.2-0.1,0.4c-0.1,0.2-0.1,0.1-0.2,0.4c-0.2,0.1,0,0.4-0.2,0.4c0-0.2,0-0.1-0.1,0.1c-0.2,0-0.4,0.3-0.1,0.3
		c0,0,0,0.1,0,0.1c0.2,0.1,1.2-0.1,1.7-0.2c0.1-0.8,0.1-1.6,0.2-2.4c0-0.4,0.2-0.9,0-1.1C357.3,176.1,357.3,176.2,357.2,176.2z
		 M355.4,179.2c0.1,0.1,0.1-0.1,0.2-0.3c-0.1,0,0,0,0-0.1C355.5,178.9,355.5,179.1,355.4,179.2z M355.5,179.4
		C355.7,179.5,355.5,179.5,355.5,179.4C355.5,179.4,355.5,179.4,355.5,179.4z M356.4,182.3c0,0-0.1,0-0.2,0.1
		C355.9,182.4,356.2,182.4,356.4,182.3C356.4,182.3,356.4,182.3,356.4,182.3z M356.3,182.3c0-0.2-0.2,0,0.1-0.2
		C356.5,182.1,356.4,182.2,356.3,182.3z M356.3,177.3C356.4,177.3,356.4,177.2,356.3,177.3C356.4,177.3,356.4,177.3,356.3,177.3z
		 M356.4,177.1C356.4,177.1,356.4,177.1,356.4,177.1C356.5,177.1,356.5,177.1,356.4,177.1z M356.6,177.2
		C356.6,177.2,356.6,177.2,356.6,177.2C356.7,177.2,356.5,177.4,356.6,177.2z M357.3,175.9c-0.2,0.1-0.1,0.2-0.2,0.3
		c0,0.1-0.3,0.4-0.2,0.3c0.1,0.2,0.3-0.3,0.2-0.3C357.1,176.2,357.2,176.1,357.3,175.9C357.3,176,357.4,176,357.3,175.9
		C357.3,175.9,357.3,175.9,357.3,175.9c0.1,0,0.1-0.1,0.1-0.2C357.3,175.8,357.3,175.9,357.3,175.9z M357.1,175.8
		C357,176,357.3,175.9,357.1,175.8C357.2,175.8,357.1,175.8,357.1,175.8z M357.3,176C357.3,176,357.3,176,357.3,176
		C357.3,176,357.3,176,357.3,176z M358.6,185.6C358.7,185.7,358.6,185.6,358.6,185.6C358.6,185.6,358.6,185.6,358.6,185.6z
		 M359.5,178.8C359.4,178.8,359.4,178.8,359.5,178.8C359.3,178.8,359.5,178.9,359.5,178.8z"/>
	<path d="M362.7,172.4c0-0.2,0.1,0.2,0.2,0c0-0.2,0.3,0.1,0.3,0.2c0.2-0.2,0.2,0.2,0.3,0.2c-0.1,0.2,0.3-0.2,0.3-0.1
		c0.2,0.1-0.1,0.1,0.1,0.2c0.1-0.2,0.2-0.1,0.3,0.1c0.1-0.1,0.1-0.1,0.2-0.1c0,0,0,0,0,0c0,0,0,0,0,0c0.1,0.1,0.1,0.2,0.2,0.3
		c0.1,0.2,0.1,0.5,0.2,0.6c0,0,0,0,0,0c0,0,0,0,0,0c0,0,0,0,0,0.1c0,0.2,0.1,0.1,0.1,0.3c0,0.1,0,0.2,0,0.2c0.2,0.1,0,0.1,0,0.1
		c0,0.2-0.1,0.4,0.1,0.5c-0.1,0-0.2,0.2,0,0.4c-0.1,0,0.2,0.1,0.1,0.3c-0.2,0.1,0,0,0.1,0.2c-0.1,0.2,0,0.2,0,0.5
		c0.1,0.7,0.1,1.4,0.3,2.1c0,0.5,0.1,0.4,0.1,0.1c0.3-1.9,0.8-3.8,1.4-5.6c0.1-0.3,0.2-0.7,0.4-0.9c0,0.2,0.1-0.1,0.3,0
		c0.1,0.3,0.1-0.1,0.2,0.1c0-0.1,0.2-0.1,0.2,0.1c-0.1,0,0,0.2,0.1,0.3c0,0,0.1,0.2,0.2,0.2c0,0.3,0.3,0.1,0.3,0.2
		c0.2,0.1,0.2,0.4,0.2,0.5c0.1-0.2,0.1,0.3,0.1,0.2c-0.1,0.3,0.2,0,0,0.3c-0.1,0.3,0,0.4,0,0.5c0,0.1-0.1,0.2-0.1,0.2
		c0,0,0.2,0.2,0,0.3c-0.1,0.1-0.2,0.2,0,0.3c-0.2,0.1,0,0.3-0.1,0.4c0.1,0,0,0-0.1,0.1c0.2,0.2-0.2,0.2-0.1,0.5c0,0.1-0.1,0.1,0,0.3
		c-0.1,0.2-0.1,0.4-0.1,0.6c0.1,0.3-0.2,0.3,0,0.5c0.1,0.2,0,0.1-0.1,0.2c0,0,0,0,0,0c0,0,0,0.1,0,0c0,0,0,0,0,0c0,0,0,0,0,0
		c-0.1,0.1,0,0,0,0.2c-0.1,0,0.1,0.1,0,0.2c0,0.1-0.1,0.2,0,0.2c-0.1,0.7-0.2,1.4-0.3,2.1c-0.1,0.4-0.1,0.9-0.1,1.3c0,0,0,0,0,0
		c0,0,0,0,0,0c0,0,0,0.1,0,0.1c0,0.1,0,0.5,0,0.6c0,0.2,0,0.6-0.1,0.9c0,0.1,0,0.3,0,0.5c0.1,0.1-0.1,0.2,0.1,0.2
		c0,0.1-0.1,0.3-0.1,0.3c0.1,0,0.2,0.4,0,0.1c-0.2,0.2-0.1-0.2-0.3-0.3c-0.1,0.2,0,0-0.2,0.1c0,0.3-0.1-0.2-0.2,0
		c0.2,0.2,0.1,0.4,0,0c-0.4,0,0-0.1-0.1-0.1c-0.2,0-0.3,0.3-0.3,0.1c0,0.2-0.2-0.1-0.3-0.1c-0.1-0.2-0.2,0-0.3-0.2
		c0,0.2-0.3,0.3-0.3,0.4c0-0.1-0.3-0.1-0.4-0.4c-0.1,0-0.7,0-0.9-0.4c-0.8-1.1-1-2.4-1.3-3.7c-0.1,0.1-0.1,0.7-0.1,0.9
		c0,0.2,0,0.3-0.1,0.5c0,0.1,0,0.2,0,0.3c0,0.1-0.1,0.4-0.1,0.5c-0.1,0.1,0.1,0.1-0.1,0.3c0.1,0.1,0,0.5,0,0.5c0,0.2,0,0.6-0.1,0.7
		c0,0.2,0,0.5-0.1,0.6c0.3,0.2-0.2,0.5,0,0.4c-0.1,0.2,0.2,0.2,0,0.4c-0.1,0.3-0.2-0.3-0.2,0.1c-0.1-0.2-0.2-0.1-0.2,0.1
		c0.1,0.1-0.3,0.1-0.1,0c-0.1-0.3-0.2,0.2-0.2-0.1c-0.2-0.2,0,0.2-0.2,0c-0.1,0.2-0.2-0.1-0.2,0.1c0,0,0,0,0,0c0,0,0,0,0,0
		c-0.1-0.1-0.2,0-0.2,0c0,0,0,0,0,0c0,0,0,0,0,0c0,0-0.1,0-0.1-0.1c0-0.2-0.2-0.3-0.2,0c-0.3,0.1-0.3,0-0.6,0.1c0-0.1,0-0.4-0.1-0.5
		c0-3.6,0.6-7.3,1.5-10.9c0.2-0.5,0.2-1.1,0.5-1.5c0-0.4,0.1,0,0.2-0.2c0.1,0,0.2-0.1,0.3-0.1C362.5,172.3,362.7,172.5,362.7,172.4z
		 M361,185.6C361,185.6,361,185.6,361,185.6C361,185.6,361,185.6,361,185.6z M361.2,185.5C361.2,185.5,361.2,185.5,361.2,185.5
		C361.2,185.6,361.2,185.6,361.2,185.5z M362.5,186c-0.1,0.1-0.3-0.3-0.2-0.3C362.4,185.8,362.5,185.8,362.5,186z M362.7,182
		C362.7,182,362.7,182,362.7,182C362.7,182,362.7,182,362.7,182z M367.5,184.9C367.5,184.9,367.6,184.9,367.5,184.9
		C367.6,184.9,367.6,184.9,367.5,184.9c0.1,0.1-0.1,0.1-0.1-0.1C367.5,184.8,367.5,184.9,367.5,184.9z M367.6,182
		C367.6,182,367.6,182,367.6,182C367.6,182,367.6,182,367.6,182z"/>
	<path d="M375.2,172c0.4,0.1,0.6,0.4,0.9,0.5c0.2,0.2,0.3,0.4,0.4,0.5c0.1,0.1,0.1,0.2,0.1,0.2c0,0.2,0.3,0.3,0.2,0.4
		c0,0.2,0.2,0.6,0.2,0.5c0,0,0,0.1,0.1,0.1c-0.1,0,0,0,0,0c0,0.1,0.1,0.2,0.1,0.3c0.1,0.3,0.2,0.6,0.2,0.9c0,0.3,0.2,0.7,0.1,0.8
		c0,0.2-0.1,0.6-0.1,0.8c-0.1,0.4-0.1,0.4-0.2,0.9c-0.1,0.2-0.1,0.5-0.2,0.7c0,0,0-0.3-0.1,0.1c0.1,0.1,0,0.3-0.1,0.4
		c-0.1,0.1-0.3,0.4-0.1,0.2c0,0.2-0.3,0.5-0.2,0.3c0-0.1-0.3,0.3-0.1,0.4c-0.2,0.1-0.1,0.4-0.2,0.3c-0.2,0.1,0,0.3-0.1,0.2
		c0,0.1-0.1,0-0.1,0.1c-0.1,0-0.1,0.1,0,0.2c0,0,0,0,0,0c0,0,0,0,0,0c0,0,0,0,0,0c-0.1,0.1-0.1,0.1-0.2,0.3c0,0.1,0.2-0.2,0.1,0
		c-0.2,0.3-0.3,0.6-0.6,0.9c-0.1,0.2-0.2,0.3-0.4,0.5c0.1,0.1,0,0-0.2,0.3c-0.1,0-0.2,0.2-0.3,0.4c0,0,0,0,0,0c0,0,0,0,0,0
		c0,0,0,0.1-0.1,0.1c0,0,0,0.1-0.1,0.2c-0.2,0.2-0.4,0.5-0.6,0.6c-0.1,0.1-0.1,0.1-0.2,0.2c-0.1,0.1-0.1,0.1-0.2,0.2
		c-0.1,0.2-0.4,0.3-0.5,0.4c-0.2,0.1-0.5,0.2-0.7,0.3c-0.1,0-0.3,0.2-0.3,0c-0.3,0,0.5-0.1,0.6-0.2c0.2-0.1,0.4-0.3,0.1-0.3
		c-0.3-0.1-0.2,0.1-0.2,0.2c-0.1,0-0.1-0.2-0.2-0.1c-0.1,0-0.4,0.2-0.3,0.1c-0.2,0-0.3,0.1-0.4-0.2c-0.2,0.1-0.4,0-0.6-0.2
		c-0.2-0.1-0.6-0.1-0.6-0.4c0-0.2-0.2-0.1-0.4-0.2c-0.3-0.1-0.2-0.3-0.5-0.3c0.1-0.2,0.1-0.9,0.2-1.3c0.2-1.9,0.6-3.9,1.1-5.8
		c-0.1,0,0.2-0.4,0.1-0.4c0,0-0.3,0.1-0.3,0c-0.2-0.1,0.1-0.2,0-0.3c-0.3,0,0-0.4-0.2-0.4c-0.2,0-0.1-0.2-0.3-0.2
		c0-0.2,0-0.2-0.1-0.4c-0.1-0.1,0.2-0.2,0-0.2c-0.1-0.2-0.3-0.1-0.4-0.3c-0.3-0.2,0-0.4,0.1-0.4c0.2-0.4,0.6-0.6,0.9-0.9
		c1-0.7,2.2-1.2,3.4-1.2C374.1,171.7,374.6,171.8,375.2,172z M369.9,175.6C370,175.8,370.1,175.6,369.9,175.6
		C369.9,175.6,369.9,175.6,369.9,175.6z M371.4,185.1c-0.1,0.1-0.1,0.2-0.1,0.1c-0.1,0-0.2,0.1-0.2-0.2
		C371.2,185,371.3,184.9,371.4,185.1z M373.1,174.4c-0.2,0-0.1,0.1,0,0.1c0,0,0,0,0,0c-0.1,0.1,0,0,0,0c0,0,0,0-0.1,0.1
		c-0.1,0.1,0.2,0.2-0.1,0.3c0-0.2-0.1,0.3-0.1,0.4c-0.1,0.1,0,0.4,0,0.4c0.1,0.1-0.1,0.4-0.1,0.6c-0.1,0.1-0.2,0.7-0.1,0.5
		c-0.1,0.2-0.2,0.5-0.2,0.8c0,0.3-0.2,0.7-0.1,0.9c0,0.2,0,0.5-0.2,0.5c0,0.1-0.1,0.3-0.1,0.3c0.2-0.2-0.1,0.1,0.1,0.1
		c0,0,0,0,0,0.1c0,0,0,0,0,0c-0.1,0,0,0,0,0c0,0.1-0.1,0.1-0.1,0.3c0,0.2,0.1,0.4-0.1,0.6c-0.1,0.2-0.1,0.4-0.1,0.5
		c0,0.2,0.1,0.5-0.1,0.2c0,0.2-0.2,0.7-0.1,0.7c0,0.1,0.2,0,0.3-0.2c1.4-1.6,2.6-3.4,3.5-5.3c0.2-0.4,0.5-1.2,0.3-1.3
		c0.1,0,0.1-0.1,0-0.1c-0.4,0,0.2-0.1-0.1-0.2c-0.2-0.1-0.3-0.2-0.5-0.1c-0.2-0.1-0.2,0-0.4-0.1c-0.2,0-0.5,0.1-0.6,0
		c-0.3,0.1-0.3,0-0.5,0c-0.2,0.1-0.2,0.1-0.5,0.1C372.8,174.7,373.3,174.4,373.1,174.4C373.1,174.4,373.1,174.4,373.1,174.4z
		 M371.9,181.4C371.9,181.5,371.8,181.4,371.9,181.4C371.9,181.4,371.9,181.4,371.9,181.4z M372.2,184.6
		C372.3,184.6,372,184.7,372.2,184.6C372.2,184.6,372.2,184.6,372.2,184.6C372.2,184.6,372.2,184.6,372.2,184.6
		C372.3,184.6,372.2,184.6,372.2,184.6z M372.2,179.4C372.2,179.4,372.2,179.4,372.2,179.4C372.2,179.4,372.2,179.4,372.2,179.4z
		 M372.5,184.5c-0.1,0.3,0.2-0.1,0.2-0.2C372.7,184.4,372.7,184.5,372.5,184.5z M373.1,174.5C373.1,174.5,373.1,174.5,373.1,174.5
		L373.1,174.5z M373.2,174.3C373.2,174.4,373.4,174.3,373.2,174.3C373.2,174.3,373.2,174.3,373.2,174.3z M373.4,174.1
		C373.2,174.2,373.2,174.3,373.4,174.1C373.4,174.3,373.7,174.2,373.4,174.1C373.5,174.1,373.4,174.2,373.4,174.1z M374,174.2
		c-0.1,0.1-0.4-0.1-0.5,0.1c0,0.2,0.4,0,0.5,0c0.2-0.1,0.2,0,0.4,0c0.2-0.2-0.1-0.1-0.1-0.2C374.2,174.2,374,174.2,374,174.2z
		 M374,174C373.9,174,373.9,174.1,374,174C373.9,174.1,373.9,174.1,374,174c-0.2,0.1-0.4,0-0.2,0.2c0.1-0.2,0.2,0,0.3,0
		c0.2,0,0.1-0.1,0.2,0c0,0,0,0,0,0c0,0,0,0,0,0C374.2,174.1,374.1,174,374,174C374,174,374,174.1,374,174z M374.5,174.2
		C374.5,174.5,374.6,174.2,374.5,174.2c0,0,0.1-0.2-0.2-0.2C374.2,174,374.4,174.2,374.5,174.2z M374.3,183
		C374.3,183,374.3,183,374.3,183C374.3,183,374.3,183,374.3,183z M374.4,174.4C374.3,174.5,374.6,174.4,374.4,174.4
		C374.4,174.4,374.4,174.4,374.4,174.4z M374.8,174.3c0.2,0.1,0.5,0.1,0.7,0.3c0.2,0,0.1-0.1,0.2,0.1c0.1,0,0.3,0.1,0.2,0
		c0-0.2-0.1-0.2-0.3-0.3c-0.2-0.1-0.2,0-0.5-0.1c0,0.2-0.3,0.1-0.5,0C374.6,174.3,374.8,174.5,374.8,174.3z M375.4,174.7
		C375.8,174.8,375.3,174.8,375.4,174.7C375.4,174.6,375.4,174.7,375.4,174.7z M375.9,180.7C375.9,180.7,375.9,180.7,375.9,180.7
		C375.9,180.7,375.9,180.7,375.9,180.7z M376,180.5C376,180.5,376,180.5,376,180.5C376,180.5,376.1,180.5,376,180.5z M377,174.2
		C377,174.2,377,174.2,377,174.2C377,174.2,377,174.2,377,174.2z"/>
</g>
<image style="overflow:visible;opacity:0.25;enable-background:new    ;" width="2158" height="1158" xlink:href="BD8BD37E4464B58D.png"  transform="matrix(0.2581 0 0 0.2581 -67.8808 -0.6225)">
</image>
<path class="st0" d="M396.9,99.6c-0.4-0.5-6-7.6-6-7.6c0,0,0,0,0,0c-0.4-0.5-0.9-0.7-1.6-0.7c-10.1,0.2-20.3,0.7-30.4,1.5
	c-1.4,0.1-2.8,1.4-3.1,2.8c-0.7,3.5-1.4,6.9-2.2,10.3c-0.2,0.7,0,1.4,0.4,1.8c0,0,0,0,0,0c0,0,5.6,6.7,6,7.1
	c0.3,0.4,0.9,0.6,1.6,0.6c-2.2,10.3-4.3,20.7-6.5,31c-0.2,0.8,0,1.4,0.5,1.8c0,0,0,0,0,0c0,0,5.6,6.6,5.9,7.1
	c0.4,0.4,0.9,0.7,1.6,0.6c1.7-0.1,3.4-0.2,5.1-0.3c1.7-0.1,3.4-0.2,5.1-0.3c0.7,0,1.4-0.4,2-0.8c0.6-0.5,1-1.1,1.1-1.9
	c1.3-6.4,2.7-12.8,4.1-19.2c1.3-6.4,2.7-12.8,4-19.2c1.3,0,2.5-0.1,3.8-0.1c1.3,0,2.5,0,3.8-0.1c0.7,0,1.4-0.3,2-0.8
	c0.6-0.5,1-1.1,1.1-1.8c0.4-1.7,0.7-3.4,1.1-5.1c0.4-1.7,0.7-3.4,1.1-5.1C397.4,100.7,397.3,100.1,396.9,99.6z M386.6,104.1
	c-3.4,0.1-6.8,0.2-10.1,0.3c-2.9,13.7-5.8,27.4-8.6,41.1c-3.4,0.2-6.8,0.4-10.2,0.7c2.9-13.8,5.8-27.5,8.6-41.3
	c-3.4,0.2-6.8,0.5-10.1,0.7c0.7-3.5,1.4-6.9,2.2-10.3c10.1-0.8,20.3-1.3,30.4-1.5C388,97.3,387.3,100.7,386.6,104.1z"/>
<path class="st1" d="M61.6,158.1c-3.4,0.3-6.8,0.5-10.2,0.7c0.2-0.7,0.2-1.4,0-2c-0.1-0.6-0.4-1.1-0.8-1.6c-0.4-0.5-0.8-0.8-1.4-1
	c-0.6-0.2-1.2-0.3-1.9-0.3c-0.7,0-1.4,0.2-2.1,0.5c-0.7,0.3-1.3,0.7-1.9,1.2c-0.6,0.5-1,1-1.4,1.7s-0.7,1.3-0.8,2
	c-0.1,0.7-0.1,1.2-0.1,1.5c0.1,0.4,0.2,0.7,0.5,1c0.2,0.2,0.4,0.5,0.8,0.8c0.4,0.4,1,0.7,1.7,1.1c0.9,0.5,2,1,3.1,1.5
	c1.6,0.7,3.2,1.5,4.9,2.5c0.9,0.6,1.8,1.3,2.7,2.2c0.9,1,1.7,2.3,2.2,3.9c0.5,1.8,0.6,3.9,0.1,6.2c-0.4,2.1-1.3,4.2-2.5,6.1
	c-1.2,1.9-2.6,3.6-4.3,5.1c-1.7,1.5-3.5,2.7-5.5,3.5c-2,0.9-4.1,1.4-6.2,1.4c-2.1,0.1-4-0.3-5.7-1c-1.7-0.7-3.1-1.8-4.1-3.2
	c-1.1-1.4-1.9-3-2.2-4.8c-0.4-1.8-0.4-3.8,0.1-5.9c3.4,0,6.8-0.1,10.2-0.2c-0.2,0.7-0.1,1.4,0,2c0.1,0.6,0.4,1.1,0.7,1.6
	c0.4,0.5,0.8,0.8,1.4,1c0.6,0.2,1.2,0.4,1.9,0.3c0.7,0,1.4-0.2,2.1-0.5c0.6-0.3,1.3-0.7,1.8-1.2c0.6-0.5,1.1-1.1,1.4-1.7
	c0.4-0.6,0.7-1.3,0.8-2c0.1-0.7,0.1-1.2,0.1-1.5c-0.1-0.4-0.2-0.7-0.5-1c-0.2-0.2-0.4-0.5-0.8-0.8c-0.4-0.4-1-0.7-1.7-1.1
	c-0.9-0.5-2-1-3.1-1.5c-1.5-0.7-3.2-1.5-4.9-2.6c-0.9-0.6-1.8-1.4-2.7-2.3c-0.9-1.1-1.7-2.4-2.2-4c-0.5-1.8-0.6-4-0.1-6.2
	c0.5-2.1,1.3-4.1,2.5-6c1.2-1.9,2.6-3.5,4.3-5c1.7-1.4,3.5-2.6,5.5-3.5c2-0.9,4.1-1.4,6.2-1.5c2.1-0.1,4,0.2,5.7,0.9
	c1.7,0.7,3.1,1.7,4.1,3c1.1,1.3,1.9,2.9,2.2,4.7C62.1,154,62.1,156,61.6,158.1z"/>
<path class="st1" d="M99.1,150.3c-3.4,0.5-6.8,0.9-10.1,1.3c-2.9,13.9-5.8,27.8-8.6,41.7c-3.4,0.4-6.8,0.7-10.2,1
	c2.9-13.8,5.8-27.7,8.6-41.5c-3.4,0.4-6.8,0.7-10.1,1c0.7-3.5,1.4-6.9,2.2-10.4c10.1-0.9,20.3-2.1,30.4-3.5
	C100.5,143.4,99.8,146.8,99.1,150.3z"/>
<path class="st1" d="M136.4,169.9c-0.7,3.3-2.3,6.5-4.4,9.3c-2.2,2.8-4.9,5.2-7.9,6.8c-2,1.1-4.1,1.9-6.2,2.2
	c-3.1,0.5-5.9-0.1-8-1.4c-2.1-1.3-3.5-3.4-4.1-6.1c-0.4-1.8-0.4-3.8,0.1-5.9c2.6-12.4,5.1-24.9,7.7-37.4c3.4-0.5,6.8-1.1,10.2-1.6
	c-2.6,12.5-5.1,25-7.7,37.4c-0.2,1.1-0.1,2.1,0.2,2.8c0.4,0.8,1,1.3,1.8,1.6c0.6,0.2,1.2,0.2,1.9,0.1c1.1-0.2,2.1-0.7,3-1.4
	s1.7-1.6,2.3-2.6c0.4-0.7,0.7-1.4,0.8-2.1c2.2-10.7,4.4-21.5,6.6-32.3c0.4-1.7,0.7-3.5,1.1-5.3c3.4-0.6,6.8-1.2,10.2-1.8
	C141.6,144.9,139,157.4,136.4,169.9z"/>
<path class="st1" d="M182.9,135.6c-3.4,0.7-6.8,1.4-10.1,2c-2.9,14.1-5.8,28.3-8.6,42.4c-3.4,0.7-6.8,1.3-10.2,2
	c2.9-14.1,5.8-28.2,8.6-42.3c-3.4,0.7-6.8,1.3-10.1,1.9c0.7-3.5,1.4-7,2.2-10.6c10.1-1.9,20.3-3.9,30.4-6
	C184.3,128.5,183.6,132.1,182.9,135.6z"/>
<path class="st1" d="M224.5,127c-3.4,0.7-6.8,1.4-10.1,2.1c-2.9,14.2-5.8,28.3-8.6,42.5c-3.4,0.7-6.8,1.4-10.2,2.1
	c2.9-14.2,5.8-28.3,8.6-42.5c-3.4,0.7-6.8,1.4-10.1,2.1c0.7-3.5,1.4-7.1,2.2-10.6c10.1-2.1,20.3-4.2,30.4-6.3
	C226,119.9,225.3,123.4,224.5,127z"/>
<path class="st1" d="M265.7,122.5c-3.4,0.6-6.8,1.3-10.2,2c0.2-1.1,0.1-2-0.3-2.8c-0.4-0.7-1-1.3-1.9-1.5c-0.6-0.1-1.2-0.2-1.9,0
	c-1.1,0.2-2.1,0.7-3,1.5c-0.9,0.7-1.8,1.7-2.3,2.7c-0.4,0.7-0.7,1.4-0.8,2.1c-1.5,7.5-3.1,15-4.6,22.5c-0.2,1.1-0.1,2.1,0.3,2.8
	c0.4,0.7,1,1.3,1.8,1.5c0.6,0.2,1.2,0.2,1.9,0c1.1-0.2,2.1-0.7,3-1.5c0.9-0.7,1.7-1.7,2.3-2.7c0.4-0.7,0.7-1.4,0.8-2.1
	c0.4-2,0.8-4,1.2-6c-1.7,0.3-3.4,0.7-5.1,1c0.7-3.5,1.4-7.1,2.2-10.6c5.1-1,10.2-2,15.2-3c-1.1,5.5-2.3,11-3.4,16.5
	c-0.7,3.3-2.3,6.5-4.4,9.4c-2.2,2.9-4.9,5.3-7.9,7.1c-2,1.2-4.1,2-6.2,2.4c-3.1,0.6-5.9,0.2-8-1c-2.1-1.2-3.5-3.2-4.1-5.9
	c-0.4-1.7-0.4-3.8,0.1-5.9c1.5-7.5,3.1-15,4.6-22.5c0.7-3.3,2.3-6.6,4.4-9.4c2.2-2.9,4.9-5.3,7.9-7.1c2-1.2,4.1-2,6.2-2.4
	c3.1-0.6,5.9-0.2,8,1.1c2.1,1.3,3.5,3.3,4.1,5.9C266.2,118.3,266.2,120.4,265.7,122.5z"/>
<path class="st1" d="M291.2,154.8c0-3.4,0.1-6.8,0.1-10.2c-3,0.5-6,1-9.1,1.6c-1.4,3.6-2.8,7.3-4.2,10.9c-3.4,0.6-6.8,1.3-10.3,1.9
	c7.4-18.3,14.9-36.6,22.3-54.8c3.5-0.6,7-1.2,10.4-1.7c0.3,16.9,0.6,33.8,0.9,50.7C298,153.7,294.6,154.2,291.2,154.8z"/>
<path class="st1" d="M349.5,111.4c-0.4,1.7-0.7,3.5-1.1,5.2c-0.7,3.2-2.3,6.3-4.4,9c-1.4,1.7-3,3.2-4.7,4.4
	c0.9,5.9,1.8,11.8,2.7,17.7c-3.6,0.4-7.2,0.8-10.8,1.2c-0.8-5-1.5-10-2.3-15c-1.3,0.2-2.7,0.3-4.1,0.5c-1.1,5.2-2.2,10.5-3.2,15.7
	c-3.4,0.5-6.8,0.9-10.2,1.4c3.6-17.5,7.2-34.9,10.8-52.4c5.1-0.7,10.2-1.3,15.2-1.9c3.1-0.4,5.9,0.3,8,1.8c2.1,1.4,3.5,3.6,4.1,6.3
	C349.9,107.2,349.9,109.3,349.5,111.4z"/>
<path class="st1" d="M386.6,104.1c-3.4,0.1-6.8,0.2-10.1,0.3c-2.9,13.7-5.8,27.4-8.6,41.1c-3.4,0.2-6.8,0.4-10.2,0.7
	c2.9-13.8,5.8-27.5,8.6-41.3c-3.4,0.2-6.8,0.5-10.1,0.7c0.7-3.5,1.4-6.9,2.2-10.3c10.1-0.8,20.3-1.3,30.4-1.5
	C388,97.3,387.3,100.7,386.6,104.1z"/>
<path class="st0" d="M291.4,134.4c0.1-4.2,0.1-8.5,0.2-12.7c-1.7,4.5-3.5,9.1-5.2,13.6C288.1,135,289.7,134.7,291.4,134.4z"/>
<path class="st0" d="M309.6,133.5c-0.2-8.4-0.3-16.9-0.4-25.3c0-0.6-0.2-1-0.6-1.3c-0.4-0.3-5.9-6.5-5.9-6.5c0,0,0,0,0,0
	c-0.1-0.1-0.1-0.1-0.1-0.2c-0.4-0.3-0.9-0.4-1.5-0.3c-1.7,0.3-3.5,0.6-5.2,0.8c-1.7,0.3-3.5,0.6-5.2,0.9c-0.6,0.1-1.2,0.4-1.7,0.9
	c-0.5,0.4-0.9,1-1.2,1.6c-3.7,9.1-7.4,18.2-11.1,27.4c-3.7,9.1-7.4,18.3-11.1,27.5c-0.2,0.4-0.3,0.8-0.2,1.2c0,0.4,0.1,0.7,0.3,1
	c0,0.1,0.1,0.1,0.2,0.1c0,0,0,0,0,0c2,2.1,3.9,4.2,5.9,6.3c0.2,0.3,0.4,0.5,0.7,0.6c0.3,0.1,0.7,0.1,1,0.1c1.7-0.3,3.4-0.6,5.1-0.9
	c1.7-0.3,3.4-0.6,5.1-0.9c0.6-0.1,1.2-0.4,1.7-0.9c0.5-0.5,0.9-1,1.2-1.7c0.6-1.4,1.1-2.9,1.7-4.3c0.3-0.8,0.6-1.6,0.9-2.3
	c2,2.2,3.9,4.3,5.9,6.5c0.1,0.1,0.1,0.1,0.2,0.2c0.4,0.3,0.9,0.4,1.5,0.3c1.7-0.3,3.4-0.6,5.1-0.8c1.7-0.3,3.4-0.5,5.1-0.8
	c0.4-0.1,0.8-0.2,1.2-0.4c0.4-0.2,0.7-0.5,1-0.9c0.3-0.3,0.5-0.7,0.7-1.1c0.2-0.4,0.2-0.8,0.2-1.2
	C309.9,150.4,309.7,142,309.6,133.5z M291.2,154.8c0-3.4,0.1-6.8,0.1-10.2c-3,0.5-6,1-9.1,1.6c-1.4,3.6-2.8,7.3-4.2,10.9
	c-3.4,0.6-6.8,1.3-10.3,1.9c7.4-18.3,14.9-36.6,22.3-54.8c3.5-0.6,7-1.2,10.4-1.7c0.3,16.9,0.6,33.8,0.9,50.7
	C298,153.7,294.6,154.2,291.2,154.8z"/>
<path class="st0" d="M274.4,121.6c-0.3-1.5-0.9-2.9-1.7-4.1c-0.3-0.5-0.7-0.9-1.1-1.3c0,0,0,0,0,0c-1.8-2-3.7-4-5.5-6c0,0,0,0,0,0.1
	c-0.7-0.8-1.5-1.5-2.4-2.1c-1.2-0.8-2.7-1.2-4.2-1.5c-1.6-0.2-3.3-0.1-5.1,0.2c-1.2,0.2-2.4,0.6-3.6,1.1c-1.2,0.5-2.4,1.1-3.6,1.8
	c-1.7,1-3.4,2.2-4.9,3.6c-1.6,1.4-3,3-4.3,4.6c-1.3,1.7-2.4,3.6-3.3,5.4c-0.9,1.9-1.5,3.7-1.9,5.6c-0.8,3.8-1.5,7.5-2.3,11.3
	c-0.8,3.8-1.5,7.5-2.3,11.3c-0.3,1.3-0.4,2.5-0.4,3.6c0,1.2,0.1,2.3,0.3,3.3c0.3,1.5,0.9,2.9,1.7,4c0.3,0.4,0.6,0.7,0.9,1.1
	c0,0,0,0-0.1,0c2,2.1,4,4.3,6.1,6.4l0,0c0.6,0.7,1.3,1.2,2.1,1.7c1.3,0.7,2.7,1.2,4.3,1.4c1.6,0.2,3.3,0.1,5-0.2
	c1.2-0.2,2.4-0.6,3.6-1.1c1.2-0.5,2.4-1.1,3.6-1.8c1.7-1,3.4-2.2,4.9-3.6c1.5-1.4,3-2.9,4.3-4.6c1.3-1.7,2.4-3.5,3.3-5.4
	c0.9-1.8,1.5-3.7,1.9-5.6c0.6-2.8,1.1-5.5,1.7-8.3c0.6-2.8,1.1-5.5,1.7-8.3c0.2-0.7,0-1.3-0.4-1.7c-0.1-0.1-0.5-0.6-1.1-1.2
	c0.6-0.2,1.1-0.5,1.6-1c0.6-0.6,1-1.3,1.1-2c0.3-1.3,0.4-2.5,0.4-3.6C274.7,123.8,274.6,122.7,274.4,121.6z M265.7,122.5
	c-3.4,0.6-6.8,1.3-10.2,2c0.2-1.1,0.1-2-0.3-2.8c-0.4-0.7-1-1.3-1.9-1.5c-0.6-0.1-1.2-0.2-1.9,0c-1.1,0.2-2.1,0.7-3,1.5
	c-0.9,0.7-1.8,1.7-2.3,2.7c-0.4,0.7-0.7,1.4-0.8,2.1c-1.5,7.5-3.1,15-4.6,22.5c-0.2,1.1-0.1,2.1,0.3,2.8c0.4,0.7,1,1.3,1.8,1.5
	c0.6,0.2,1.2,0.2,1.9,0c1.1-0.2,2.1-0.7,3-1.5c0.9-0.7,1.7-1.7,2.3-2.7c0.4-0.7,0.7-1.4,0.8-2.1c0.4-2,0.8-4,1.2-6
	c-1.7,0.3-3.4,0.7-5.1,1c0.7-3.5,1.4-7.1,2.2-10.6c5.1-1,10.2-2,15.2-3c-1.1,5.5-2.3,11-3.4,16.5c-0.7,3.3-2.3,6.5-4.4,9.4
	c-2.2,2.9-4.9,5.3-7.9,7.1c-2,1.2-4.1,2-6.2,2.4c-3.1,0.6-5.9,0.2-8-1c-2.1-1.2-3.5-3.2-4.1-5.9c-0.4-1.7-0.4-3.8,0.1-5.9
	c1.5-7.5,3.1-15,4.6-22.5c0.7-3.3,2.3-6.6,4.4-9.4c2.2-2.9,4.9-5.3,7.9-7.1c2-1.2,4.1-2,6.2-2.4c3.1-0.6,5.9-0.2,8,1.1
	c2.1,1.3,3.5,3.3,4.1,5.9C266.2,118.3,266.2,120.4,265.7,122.5z"/>
<path class="st0" d="M339,109.6c-0.4-0.8-1-1.4-1.8-1.7c-0.6-0.2-1.2-0.3-1.9-0.2c-1.7,0.2-3.4,0.4-5.1,0.6
	c-1.1,5.2-2.2,10.4-3.2,15.7c1.7-0.2,3.4-0.4,5.1-0.6c1.1-0.1,2.1-0.6,3-1.2c0.9-0.6,1.8-1.5,2.3-2.5c0.4-0.6,0.7-1.3,0.8-2.1
	c0.4-1.7,0.7-3.5,1.1-5.2h0c0,0,0,0,0,0C339.5,111.3,339.4,110.4,339,109.6z"/>
<path class="st0" d="M358.1,111.4c-0.3-1.6-0.9-3-1.7-4.2c-0.8-1.3-7.2-8.6-7.2-8.6c0,0,0,0.1,0,0.1c-0.6-0.6-1.2-1.2-1.9-1.7
	c-2.5-1.7-5.7-2.5-9.3-2.1c-5.1,0.6-10.2,1.2-15.2,1.9c-1.4,0.2-2.8,1.5-3.1,3c-3.6,17.4-7.2,34.9-10.8,52.4c-0.2,0.7,0,1.4,0.4,1.8
	c0.2,0.2,5.6,6.3,6,6.7c0.4,0.4,0.9,0.6,1.6,0.5c1.7-0.2,3.4-0.5,5.1-0.7c1.7-0.2,3.4-0.5,5.1-0.7c0.7-0.1,1.4-0.5,2-1
	c0.6-0.5,1-1.2,1.1-1.9c0.2-1.2,0.5-2.3,0.7-3.5c1.7,2,4,4.6,4.1,4.7c0.1,0.1,0.2,0.2,0.3,0.3c0.4,0.3,0.8,0.4,1.4,0.3
	c1.8-0.2,3.6-0.4,5.4-0.6c1.8-0.2,3.6-0.4,5.4-0.5c0.4,0,0.9-0.2,1.3-0.4c0.4-0.2,0.8-0.5,1.1-0.9c0.3-0.4,0.5-0.8,0.7-1.2
	c0.1-0.4,0.2-0.8,0.1-1.2c-0.4-2.7-0.8-5.4-1.2-8c-0.4-2.7-0.8-5.4-1.2-8c0.7-0.6,1.3-1.1,1.9-1.8c0.6-0.6,1.2-1.3,1.8-1.9
	c1.3-1.6,2.4-3.3,3.3-5c0.9-1.7,1.5-3.5,1.9-5.4c0.2-0.9,0.4-1.7,0.6-2.6c0.2-0.9,0.4-1.7,0.5-2.6c0.2-1.2,0.4-2.4,0.4-3.6
	C358.4,113.5,358.3,112.4,358.1,111.4z M349.5,111.4c-0.4,1.7-0.7,3.5-1.1,5.2c-0.7,3.2-2.3,6.3-4.4,9c-1.4,1.7-3,3.2-4.7,4.4
	c0.9,5.9,1.8,11.8,2.7,17.7c-3.6,0.4-7.2,0.8-10.8,1.2c-0.8-5-1.5-10-2.3-15c-1.3,0.2-2.7,0.3-4.1,0.5c-1.1,5.2-2.2,10.5-3.2,15.7
	c-3.4,0.5-6.8,0.9-10.2,1.4c3.6-17.5,7.2-34.9,10.8-52.4c5.1-0.7,10.2-1.3,15.2-1.9c3.1-0.4,5.9,0.3,8,1.8c2.1,1.4,3.5,3.6,4.1,6.3
	C349.9,107.2,349.9,109.3,349.5,111.4z"/>
<path class="st0" d="M109.4,144.5c-0.4-0.4-6-6.7-6-6.7s0,0,0,0c-0.4-0.4-0.9-0.6-1.6-0.5c-10.1,1.4-20.3,2.6-30.4,3.5
	c-1.4,0.1-2.8,1.4-3.1,2.8c-0.7,3.5-1.4,6.9-2.2,10.3c-0.2,0.7,0,1.4,0.4,1.8c0,0,0,0,0,0c0,0,5.6,6.6,6,7.1
	c0.3,0.4,0.9,0.6,1.6,0.6c-2.2,10.4-4.3,20.7-6.5,31.1c-0.2,0.8,0,1.4,0.5,1.8c0,0,0,0,0,0c0,0,5.6,6.6,5.9,7
	c0.4,0.4,0.9,0.6,1.6,0.6c1.7-0.2,3.4-0.3,5.1-0.5c1.7-0.2,3.4-0.4,5.1-0.6c0.7-0.1,1.4-0.5,2-1c0.6-0.5,1-1.2,1.1-1.9
	c1.3-6.5,2.7-13,4.1-19.6c1.3-6.5,2.7-13.1,4-19.6c1.3-0.2,2.5-0.3,3.8-0.5s2.5-0.3,3.8-0.5c0.7-0.1,1.4-0.5,2-1
	c0.6-0.6,1-1.2,1.1-2c0.4-1.7,0.7-3.5,1.1-5.2s0.7-3.5,1.1-5.3C109.9,145.6,109.8,144.9,109.4,144.5z M99.1,150.3
	c-3.4,0.5-6.8,0.9-10.1,1.3c-2.9,13.9-5.8,27.8-8.6,41.7c-3.4,0.4-6.8,0.7-10.2,1c2.9-13.8,5.8-27.7,8.6-41.5
	c-3.4,0.4-6.8,0.7-10.1,1c0.7-3.5,1.4-6.9,2.2-10.4c10.1-0.9,20.3-2.1,30.4-3.5C100.5,143.4,99.8,146.8,99.1,150.3z"/>
<path class="st0" d="M193.2,129.1c-0.4-0.4-6-6.4-6-6.4s0,0,0,0c-0.4-0.4-0.9-0.6-1.6-0.4c-10.1,2.1-20.3,4.1-30.4,6
	c-1.4,0.3-2.8,1.7-3.1,3.1c-0.7,3.5-1.4,7-2.2,10.6c-0.2,0.8,0,1.4,0.4,1.8c0,0,0,0,0,0c0,0,5.6,6.1,6,6.5c0.3,0.4,0.9,0.5,1.6,0.4
	c-2.2,10.6-4.3,21.2-6.5,31.7c-0.2,0.8,0,1.4,0.5,1.8c0,0,0,0,0,0c0,0,5.6,6,5.9,6.4c0.4,0.4,0.9,0.6,1.6,0.4c1.7-0.3,3.4-0.7,5.1-1
	c1.7-0.3,3.4-0.7,5.1-1c0.7-0.1,1.4-0.6,2-1.1c0.6-0.6,1-1.3,1.1-2c1.3-6.6,2.7-13.2,4.1-19.9s2.7-13.2,4-19.9
	c1.3-0.3,2.5-0.5,3.8-0.8c1.3-0.3,2.5-0.5,3.8-0.8c0.7-0.1,1.4-0.6,2-1.1c0.6-0.6,1-1.3,1.1-2c0.4-1.8,0.7-3.5,1.1-5.3
	c0.4-1.8,0.7-3.5,1.1-5.3C193.7,130.1,193.6,129.5,193.2,129.1z M182.9,135.6c-3.4,0.7-6.8,1.4-10.1,2c-2.9,14.1-5.8,28.3-8.6,42.4
	c-3.4,0.7-6.8,1.3-10.2,2c2.9-14.1,5.8-28.2,8.6-42.3c-3.4,0.7-6.8,1.3-10.1,1.9c0.7-3.5,1.4-7,2.2-10.6c10.1-1.9,20.3-3.9,30.4-6
	C184.3,128.5,183.6,132.1,182.9,135.6z"/>
<path class="st0" d="M234.9,120.5c-0.4-0.4-6-6.4-6-6.4s0,0,0,0c-0.4-0.4-0.9-0.6-1.6-0.4c-10.1,2.1-20.3,4.2-30.4,6.3
	c-1.4,0.3-2.8,1.7-3.1,3.2c-0.7,3.5-1.4,7.1-2.2,10.6c-0.2,0.8,0,1.4,0.4,1.7c0,0,0,0,0,0c0,0,5.6,6,6,6.4c0.3,0.4,0.9,0.5,1.6,0.4
	c-2.2,10.6-4.3,21.2-6.5,31.9c-0.2,0.8,0,1.4,0.5,1.8c0,0,0,0,0,0c0,0,5.6,5.9,5.9,6.3c0.4,0.4,0.9,0.6,1.6,0.4
	c1.7-0.4,3.4-0.7,5.1-1.1c1.7-0.4,3.4-0.7,5.1-1.1c0.7-0.2,1.4-0.6,2-1.2c0.6-0.6,1-1.3,1.1-2c1.3-6.6,2.7-13.3,4.1-19.9
	c1.3-6.6,2.7-13.3,4-19.9c1.3-0.3,2.5-0.5,3.8-0.8c1.3-0.3,2.5-0.5,3.8-0.8c0.7-0.1,1.4-0.6,2-1.1c0.6-0.6,1-1.3,1.1-2
	c0.4-1.8,0.7-3.5,1.1-5.3c0.4-1.8,0.7-3.5,1.1-5.3C235.4,121.5,235.2,120.9,234.9,120.5z M224.5,127c-3.4,0.7-6.8,1.4-10.1,2.1
	c-2.9,14.2-5.8,28.3-8.6,42.5c-3.4,0.7-6.8,1.4-10.2,2.1c2.9-14.2,5.8-28.3,8.6-42.5c-3.4,0.7-6.8,1.4-10.1,2.1
	c0.7-3.5,1.4-7.1,2.2-10.6c10.1-2.1,20.3-4.2,30.4-6.3C226,119.9,225.3,123.4,224.5,127z"/>
<path class="st0" d="M152.4,136.6c-0.4-0.4-6-6.5-6-6.5v0c-0.4-0.4-0.9-0.6-1.7-0.5c-3.4,0.6-6.8,1.2-10.2,1.8
	c-1.4,0.2-2.8,1.6-3.1,3.1c-0.3,1.4-0.6,2.8-0.9,4.2c-1.8-1.9-4.5-4.9-4.6-5c-0.4-0.4-0.9-0.6-1.7-0.5c-3.4,0.6-6.8,1.1-10.2,1.6
	c-1.4,0.2-2.8,1.6-3.1,3c-2.6,12.5-5.1,24.9-7.7,37.3c-0.5,2.5-0.5,4.8-0.1,6.9c0.5,2.1,1.4,3.9,2.7,5.3c-0.1-0.1-0.2-0.2-0.2-0.2
	c0,0,5.7,6.4,6,6.7c0.7,0.8,1.4,1.5,2.3,2c1.3,0.8,2.7,1.3,4.3,1.6c1.6,0.3,3.3,0.3,5,0c1.2-0.2,2.4-0.5,3.6-0.9
	c1.2-0.4,2.4-1,3.6-1.7c1.7-1,3.4-2.1,5-3.5c1.5-1.3,3-2.9,4.3-4.5c1.3-1.7,2.4-3.5,3.3-5.3c0.9-1.8,1.5-3.7,1.9-5.6
	c1.3-6.3,2.6-12.5,3.9-18.8c1.3-6.3,2.6-12.6,3.9-18.8C152.9,137.6,152.7,137,152.4,136.6z M136.4,169.9c-0.7,3.3-2.3,6.5-4.4,9.3
	c-2.2,2.8-4.9,5.2-7.9,6.8c-2,1.1-4.1,1.9-6.2,2.2c-3.1,0.5-5.9-0.1-8-1.4c-2.1-1.3-3.5-3.4-4.1-6.1c-0.4-1.8-0.4-3.8,0.1-5.9
	c2.6-12.4,5.1-24.9,7.7-37.4c3.4-0.5,6.8-1.1,10.2-1.6c-2.6,12.5-5.1,25-7.7,37.4c-0.2,1.1-0.1,2.1,0.2,2.8c0.4,0.8,1,1.3,1.8,1.6
	c0.6,0.2,1.2,0.2,1.9,0.1c1.1-0.2,2.1-0.7,3-1.4s1.7-1.6,2.3-2.6c0.4-0.7,0.7-1.4,0.8-2.1c2.2-10.7,4.4-21.5,6.6-32.3
	c0.4-1.7,0.7-3.5,1.1-5.3c3.4-0.6,6.8-1.2,10.2-1.8C141.6,144.9,139,157.4,136.4,169.9z"/>
<path class="st0" d="M70.3,158.1c-0.2-1-0.6-2-1-2.9c-0.4-0.9-1-1.7-1.6-2.5c-0.6-0.8-6-7.1-6-7.1c-1.3-1.5-2.9-2.7-4.8-3.5
	c-2-0.8-4.2-1.1-6.6-1c-2.4,0.1-4.8,0.7-7.2,1.7c-2.3,1-4.5,2.3-6.5,4c-2,1.7-3.7,3.6-5,5.8c-1.4,2.2-2.4,4.6-2.9,7
	c-0.6,2.6-0.5,5.2,0.1,7.4c0.5,1.7,1.4,3.3,2.6,4.7c0,0,3.9,5,5.5,6.8c-3.2,0.1-6.4,0.2-9.6,0.2c-0.7,0-1.4,0.3-2,0.7
	c-0.6,0.5-1,1.1-1.1,1.8c-0.5,2.4-0.5,4.7-0.1,6.9c0.4,2.1,1.3,4,2.6,5.7c0,0,5.4,6.7,6,7.5c0.6,0.8,1.4,1.5,2.2,2.1
	c0.8,0.6,1.7,1.1,2.7,1.6c1,0.4,2.1,0.8,3.2,0.9c1.1,0.2,2.2,0.3,3.4,0.2c0,0,0,0,0,0c0,0,0,0,0,0c1.2-0.1,2.4-0.2,3.6-0.5
	c1.2-0.3,2.4-0.7,3.6-1.2c1.2-0.5,2.3-1.1,3.4-1.8c1.1-0.7,2.1-1.5,3.1-2.4c1-0.9,1.9-1.8,2.7-2.8c0.8-1,1.6-2.1,2.3-3.2
	c0.7-1.2,1.3-2.3,1.8-3.5c0.5-1.2,0.9-2.4,1.1-3.6c0.3-1.3,0.4-2.6,0.4-3.9c0-1.3-0.2-2.4-0.5-3.5c-0.2-0.9-0.6-1.7-1-2.4
	c-0.4-0.7-6.2-7.7-7-8.7c1.5-0.1,3-0.2,4.6-0.3c1.7-0.1,3.4-0.3,5.1-0.4c0.7-0.1,1.4-0.4,2-0.9c0.6-0.5,1-1.2,1.1-1.9
	c0.3-1.2,0.4-2.4,0.4-3.6C70.6,160.3,70.5,159.2,70.3,158.1z M61.6,158.1c-3.4,0.3-6.8,0.5-10.2,0.7c0.2-0.7,0.2-1.4,0-2
	c-0.1-0.6-0.4-1.1-0.8-1.6c-0.4-0.5-0.8-0.8-1.4-1c-0.6-0.2-1.2-0.3-1.9-0.3c-0.7,0-1.4,0.2-2.1,0.5c-0.7,0.3-1.3,0.7-1.9,1.2
	c-0.6,0.5-1,1-1.4,1.7s-0.7,1.3-0.8,2c-0.1,0.7-0.1,1.2-0.1,1.5c0.1,0.4,0.2,0.7,0.5,1c0.2,0.2,0.4,0.5,0.8,0.8
	c0.4,0.4,1,0.7,1.7,1.1c0.9,0.5,2,1,3.1,1.5c1.6,0.7,3.2,1.5,4.9,2.5c0.9,0.6,1.8,1.3,2.7,2.2c0.9,1,1.7,2.3,2.2,3.9
	c0.5,1.8,0.6,3.9,0.1,6.2c-0.4,2.1-1.3,4.2-2.5,6.1c-1.2,1.9-2.6,3.6-4.3,5.1c-1.7,1.5-3.5,2.7-5.5,3.5c-2,0.9-4.1,1.4-6.2,1.4
	c-2.1,0.1-4-0.3-5.7-1c-1.7-0.7-3.1-1.8-4.1-3.2c-1.1-1.4-1.9-3-2.2-4.8c-0.4-1.8-0.4-3.8,0.1-5.9c3.4,0,6.8-0.1,10.2-0.2
	c-0.2,0.7-0.1,1.4,0,2c0.1,0.6,0.4,1.1,0.7,1.6c0.4,0.5,0.8,0.8,1.4,1c0.6,0.2,1.2,0.4,1.9,0.3c0.7,0,1.4-0.2,2.1-0.5
	c0.6-0.3,1.3-0.7,1.8-1.2c0.6-0.5,1.1-1.1,1.4-1.7c0.4-0.6,0.7-1.3,0.8-2c0.1-0.7,0.1-1.2,0.1-1.5c-0.1-0.4-0.2-0.7-0.5-1
	c-0.2-0.2-0.4-0.5-0.8-0.8c-0.4-0.4-1-0.7-1.7-1.1c-0.9-0.5-2-1-3.1-1.5c-1.5-0.7-3.2-1.5-4.9-2.6c-0.9-0.6-1.8-1.4-2.7-2.3
	c-0.9-1.1-1.7-2.4-2.2-4c-0.5-1.8-0.6-4-0.1-6.2c0.5-2.1,1.3-4.1,2.5-6c1.2-1.9,2.6-3.5,4.3-5c1.7-1.4,3.5-2.6,5.5-3.5
	c2-0.9,4.1-1.4,6.2-1.5c2.1-0.1,4,0.2,5.7,0.9c1.7,0.7,3.1,1.7,4.1,3c1.1,1.3,1.9,2.9,2.2,4.7C62.1,154,62.1,156,61.6,158.1z"/>
</svg>
