<?xml version="1.0" encoding="utf-8"?>
<!-- Generator: Adobe Illustrator 26.2.1, SVG Export Plug-In . SVG Version: 6.00 Build 0)  -->
<svg version="1.1" id="Superhero_font" xmlns="http://www.w3.org/2000/svg" xmlns:xlink="http://www.w3.org/1999/xlink" x="0px"
	 y="0px" viewBox="0 0 419.5 297.6" style="enable-background:new 0 0 419.5 297.6;" xml:space="preserve">
<style type="text/css">
	.st0{fill:#231F20;}
	.st1{opacity:0.8;fill:#FFFFFF;}
</style>
<path d="M54.8,80.8c0.1,0.1,0.3,0.2,0.4,0.3c0.1,0,0.3,0.2,0.4,0.3c0.1-0.1,0.2,0.1,0.4,0.2c0.2,0.2,0.4,0.3,0.4,0.5
	c0-0.3,0.3,0.3,0.3,0.5c0.3,0.3,0.3,0.7,0.5,1.1c0,0.3,0.1,0.2,0.1,0.4c0,0.2,0,0.2,0,0.3c0,0.3,0.1,0.5,0,0.7
	c0.1,0,0.2-0.1,0.1,0.1c-0.2,0.1-0.1,0.2-0.1,0.3c0,0,0,0,0,0c0.1,0,0,0,0,0c0,0.1,0.1,0.1,0,0.1c0,0.1,0,0.4,0.1,0.6
	c0,0.5-0.2,0-0.2,0.3c0.2,0.3-0.1,0.3-0.1,0.6c0,0,0,0.1-0.1,0.2c0.1,0.1,0,0.1,0,0c0,0.1-0.1,0.2-0.1,0.3c-0.1,0.2,0,0.3-0.1,0.3
	c-0.3,0.1-0.1-0.5-0.2-0.1c-0.1,0.2,0-0.2-0.3-0.2c0,0-0.1,0-0.1,0c0.1,0.1,0,0.1,0,0c-0.2,0-0.4,0.2-0.2-0.2c-0.2-0.1,0,0.2-0.2,0
	c0.2,0-0.2-0.3-0.1-0.1c-0.1-0.1-0.2-0.1-0.3-0.1c-0.2,0-0.3-0.4-0.2-0.1c-0.4,0.1,0.2-0.4-0.1-0.5c-0.2,0.2,0-0.1-0.2-0.1
	c-0.2,0-0.3,0.1-0.5,0.1c-0.1-0.1-0.3,0-0.2-0.2c-0.4,0,0.2,0,0-0.2c0.2-0.5,0.3-1.1,0.3-1.7c0-0.2,0.1-0.8-0.1-0.6
	c0,0.3-0.1-0.1-0.1,0.2c-0.2,0.1-0.2,0.3-0.3,0.5c-0.2,0.2-0.3,0.2-0.5,0.5c-0.3,0.2,0,0.2-0.3,0.5c-0.1,0.1-0.2,0.3-0.3,0.4
	c-0.1,0.2,0,0.2-0.2,0.4c-0.1,0.1-0.2,0.3-0.3,0.5c0,0.1,0,0.1,0,0.1c0,0,0,0,0,0c0,0,0,0,0,0c-0.1,0.2-0.1,0.3-0.2,0.4
	c-0.1,0-0.2,0.2-0.3,0.4c0,0.1,0,0.2,0,0.2c0,0,0,0,0,0c0,0.1-0.1,0.2-0.2,0.3c-0.1,0.3,0.1,0.1-0.1,0.3c0,0.1,0,0.5-0.2,0.3
	c-0.1,0.4,0,0.1,0,0.4c-0.1,0.1-0.2,0.4-0.2,0.5c0,0.1-0.2,0.4-0.1,0.5c0,0,0,0.1,0,0.1c0.1,0,0,0,0,0c0,0.1,0,0.3-0.2,0.4
	c0,0.1,0,0.1,0,0.2c0,0,0,0,0,0c0,0.1,0,0.1,0,0c0,0.1,0,0.2,0,0.3c-0.1,0.2-0.2,0.3,0,0.4c-0.2,0.1,0.1,0-0.1,0.2
	c0.2,0.1,0,0.1,0.1,0.3c-0.2,0.1,0.1,0.5-0.1,0.7c0.1,0.3-0.2,0.5-0.1,0.7c0,0.2-0.1,0.2,0.1,0.4c-0.1,0.1-0.1,0.3,0.2,0.2
	c0.9-0.4,1.7-1.1,2.3-1.9c0.2-0.3,0-0.2-0.2-0.2c0,0.1-0.4,0-0.3,0.1c-0.1,0.2-0.2-0.1-0.1-0.1c-0.3-0.1,0,0,0-0.1
	c0.5-0.1,0.3-0.2,0-0.1c-0.3-0.1,0.1-0.1,0.2-0.2c0-0.1-0.1-0.2-0.1-0.3c0.2-0.1-0.5-0.1-0.1-0.2c0.1-0.1-0.1-0.2-0.1-0.4
	c0-0.1,0-0.2-0.2-0.3c0.1-0.2,0-0.3,0-0.3c0.1-0.3,0.5-0.1,0.3-0.5c-0.1-0.2-0.2-0.2-0.4-0.3c-0.1-0.1-0.1-0.4,0.2-0.3
	c-0.3-0.2,0.2-0.1,0.2-0.2c1.8-0.4,3.5-0.5,5.3-0.6c0.3,0,0.4,0.3,0.7,0.2c-0.3,0.2,0.3,0,0.1,0.3c-0.2,0.1-0.2,0.1-0.2,0.3
	c0.1,0-0.3,0.2,0,0.2c0.1,0.3-0.1,0.1-0.1,0.4c0.1-0.1,0.4,0.1,0.2,0.3c-0.2,0.1,0,0.4-0.2,0.6c0.1,0.2-0.3,0.2-0.1,0.4
	c0.2,0-0.1,0.2-0.1,0.4h0c0,0,0,0,0,0c0,0,0,0.1,0,0.1c-0.2-0.3-0.1,0.2-0.4,0c-0.1,0,0-0.2-0.2-0.1c0.1,0.2-0.1,0.2-0.3,0.2
	c0,0-0.1,0-0.1,0c0,0,0,0-0.1-0.1c0,0,0.1,0.1,0.1,0.1c-0.1,0-0.2,0.1-0.2,0.1c-0.2-0.2-0.2,0.3-0.3,0.2c-0.1,0-0.1,0.3-0.2,0.2
	c-0.2,0.3-0.1,0.2-0.1,0.3c0.1,0.2,0,0.5,0,0.1c-0.3,0.2-0.1,0.3,0,0.3c0.1,0.5-0.5,0.2-0.3,0.2c0.3,0,0-0.3-0.1,0
	c-0.2,0.2-0.3,0.6-0.5,0.7c-0.1,0.2,0,0.3-0.2,0.6c-0.3,0.1-0.2-0.1-0.3,0c0,0.1,0.4,0.1,0.1,0.2c-0.1-0.1-0.2,0.3,0,0.2
	c0.2-0.2,0.4-0.5,0.6-0.7c0.4-0.5,0.2,0-0.1,0.3c-0.1,0.2-0.2,0.5-0.5,0.6c0,0.3-0.1,0-0.1,0.2c-0.1,0.1-0.4,0.2-0.4,0.3
	c-0.1,0.1-0.2,0.1-0.3,0.2c-0.4,0.1-0.2,0.1-0.4,0.2c0-0.2-0.1-0.1-0.2,0c0,0,0,0,0,0c0,0,0,0,0,0c0.1,0,0,0.1-0.2,0.2
	c0.1-0.2-0.2-0.1-0.4,0c-0.1,0.3-0.1,0-0.3,0.1c-0.3-0.1-0.2,0.4-0.5,0.1c-0.2,0,0.3-0.2,0.2-0.1c0.2,0,0.2-0.1,0.4-0.1
	c0.1-0.1,0.6,0,0.5-0.3c0.3-0.1,0.1-0.1,0.1,0.1c0.3-0.1,0.5-0.2,0.6-0.4c0.1-0.1,0.4-0.2,0.5-0.3c0.1-0.1,0.3-0.2,0.3-0.3
	c-0.2,0.1,0-0.2-0.1-0.1c-0.2,0.1-0.3,0.1-0.3,0.2c-0.2,0.2-0.5,0.5-0.7,0.5c-0.1,0.2-0.2,0-0.2,0.2c-0.2,0-0.4,0.1-0.7,0.2
	c-0.3,0-0.3,0.2-0.4,0.4c-0.1,0-0.1,0-0.2,0c0,0,0.1,0,0.1-0.1c-0.1-0.1,0-0.1,0.1-0.2c-0.2-0.2-0.2,0.1-0.4,0
	c-0.3-0.1-0.7-0.1-0.6,0.1c0.1,0.1,0.5,0.2,0.6,0.2c0.1,0.1,0.2,0.2-0.1,0.1c0.2,0.1-0.2-0.1-0.2,0.1c-0.1-0.1-0.3-0.1-0.3-0.1
	c-0.2-0.2-0.5-0.2-0.7-0.3c-0.3-0.4,0.6,0.2,0.1-0.2c-0.3-0.1-0.7-0.1-0.9-0.3c-0.3-0.2-0.5,0.2-0.6,0c-0.1,0.1-0.3-0.3-0.5-0.2
	c-0.8-0.6-1.2-1.7-1.1-2.7c0-2.6,0.9-5.1,1.9-7.4c0.8-1.6,1.6-3.2,2.9-4.3c0.4-0.3,0.7-0.5,1.2-0.5c0,0,0.1,0,0.1,0
	C54.4,80.7,54.6,80.8,54.8,80.8z M51.4,90.6C51.4,90.6,51.4,90.6,51.4,90.6C51.4,90.6,51.4,90.6,51.4,90.6z M52.1,87.7
	C51.9,88.2,52.2,87.7,52.1,87.7C52.1,87.6,52.1,87.6,52.1,87.7z M52.6,87.3C52.6,87.2,52.6,87.2,52.6,87.3
	C52.6,87.2,52.6,87.3,52.6,87.3z M53.5,85.2c0,0.2,0.2-0.3,0.2-0.3C53.6,85,53.6,85,53.5,85.2z M54.3,84.1c-0.3,0.4,0.1,0.1,0.1-0.2
	C54.3,84,54.3,84,54.3,84.1z M55.7,94.3L55.7,94.3C55.6,94.2,55.8,94.4,55.7,94.3z M56,94.1C56,94.1,56,94.1,56,94.1
	C56,94.1,56,94.1,56,94.1c0,0.1-0.2,0.1,0-0.1C56,94,56.1,94.1,56,94.1z M56,94.1L56,94.1C56,94.1,56,94.1,56,94.1z M57.2,92.9
	c0,0.1-0.1,0.2-0.1,0.3c-0.1,0.1-0.2,0.3-0.3,0.4c-0.2,0.2-0.3,0.4-0.4,0.5c0,0.1-0.2,0.2,0-0.1c0.2-0.3,0.3-0.6,0.5-0.7
	C57,93.1,57.1,92.9,57.2,92.9c0,0-0.1-0.1,0-0.1C57.3,92.9,57.3,92.9,57.2,92.9z M56.9,88C57,88.2,56.6,88.3,56.9,88
	C57,88,56.9,88,56.9,88z M57.4,92.1c0,0.1,0,0.2-0.1,0.2C57.1,92.6,57.2,92.1,57.4,92.1C57.4,92.1,57.4,92.1,57.4,92.1z M57.4,92.6
	C57.5,92.6,57.3,92.7,57.4,92.6C57.4,92.5,57.4,92.5,57.4,92.6z M57.4,91.7C57.4,91.7,57.4,91.7,57.4,91.7
	C57.4,91.7,57.4,91.7,57.4,91.7C57.4,91.7,57.4,91.7,57.4,91.7C57.5,91.8,57.7,91.6,57.4,91.7C57.4,91.7,57.4,91.7,57.4,91.7z
	 M58.8,91.6C58.8,91.6,58.8,91.6,58.8,91.6C58.8,91.6,58.8,91.6,58.8,91.6z M59.2,89.3C59.2,89.3,59.2,89.3,59.2,89.3
	C59.3,89.4,59.2,89.3,59.2,89.3C59.2,89.3,59.1,89.3,59.2,89.3C59.2,89.3,59.2,89.3,59.2,89.3z"/>
<path d="M59.2,91.8c0.2-0.1,0,0.2-0.1,0.1c0-0.2-0.5-0.2-0.1-0.3C59.1,91.7,59.2,91.7,59.2,91.8z M65.1,80.4
	c1.4,0.1,2.9,0.5,3.6,1.7c0.1-0.1,0.1,0.2,0.2,0.3c0,0,0,0,0,0.1c0,0,0,0,0,0c0,0,0,0,0,0c0,0.2,0.1,0.6,0.2,0.7
	c-0.1,0.1,0,0.6-0.1,0.8c0,0.3-0.1,0.4-0.2,0.7c0,0,0,0,0,0c0,0,0,0,0,0c0,0,0,0,0,0.1c-0.1,0.1-0.1,0.2-0.2,0.2
	c0,0.2-0.1,0.4-0.1,0.6c0,0.5-0.3,0.6-0.5,1c-0.2,0.4-0.4,0.8-0.6,1.1c-0.2,0.3-0.2,0.4-0.4,0.5c-0.2,0.3-0.3,0.3-0.4,0.6
	c0,0-0.2-0.2-0.3,0.2c0.2,0.4-0.2,0-0.3,0.3c-0.2,0.1-0.6,0.3-0.5,0.5c1.2,0.3,2.4,0.4,3.5,0.9c0.3,0.1,0.6,0.3,0.3,0.3
	c0.2,0,0,0.3,0.1,0.2c0.3-0.3,0,0.3,0.2,0.1c0,0.2-0.2,0.1-0.2,0.2c0.1,0.1,0,0.3-0.1,0.5c-0.4,0.3,0,0,0,0.2c0.1,0.1-0.3,0.1,0,0.3
	c-0.2-0.1-0.2-0.1-0.3,0.1c0.1-0.2-0.2,0-0.1,0.2c-0.1,0.1-0.2,0-0.1,0.4c-0.3,0-0.3,0-0.6,0c-0.1-0.1-0.3,0.4-0.5,0.2
	c0.3,0,0.2-0.3,0.1-0.2c-0.1-0.1-0.2,0-0.2-0.1C67.4,93,67.3,93,67.1,93c-0.2-0.1-0.2,0.1,0,0.1c0.2,0,0.2,0.2,0,0.1
	c-0.5,0,0.2,0-0.3-0.1c-0.4-0.1,0.2,0.1,0,0.1c0-0.1-0.4,0-0.5-0.1c-0.2-0.1-0.3-0.1-0.5-0.1c-0.1-0.2-0.3-0.1-0.5-0.1
	c0,0-0.4-0.3-0.2-0.1c-0.1,0.1-0.2-0.1-0.4,0c-0.2-0.1-0.4,0.1-0.6-0.1c-0.1,0-0.3,0-0.4-0.1c-0.2,0-0.5-0.1-0.6-0.1
	c-0.2,0-0.7-0.2-0.6,0.3c0.3-0.1,0,0.5,0,0.4c-0.1,0.2,0,0.3,0.1,0.5c-0.2,0.2-0.2,0.3-0.2,0.5c0,0.2,0,0.2,0,0.4
	c0.1,0.2-0.1,0.2-0.1,0.4c0.1,0.1-0.1,0.1,0,0.2c0,0-0.1,0.3,0,0.5c-0.1,0.2-0.1,0.1-0.1-0.1c0.1-0.3,0.1-0.4,0.1-0.6
	c0,0.2-0.1,0.6-0.1,0.7c-0.1,0.1-0.1,0.5-0.1,0.7c-0.1,0.6,0-0.4-0.1-0.1c-0.1,0.1-0.3,0.2-0.2-0.2c-0.1,0,0.4,0,0.1-0.2
	c-0.1-0.3-0.2,0.3-0.3-0.1c-0.1,0.2-0.1,0.1-0.2,0c-0.1,0.3-0.2,0-0.4,0.1c-0.2-0.2-0.3,0.1-0.4-0.1c0.2-0.3-0.2-0.2-0.2-0.1
	c-0.1,0-0.2,0.2-0.3,0.1c0,0.3-0.3-0.3-0.3-0.1c0,0.3-0.3,0-0.1,0c0.1-0.6,0.1-1.3,0.2-1.9c-0.1-0.5,0.4-1.4,0-1.6
	c-0.1,0-0.2,0-0.4,0c-0.3-0.3,0.4-0.1,0.6-0.1c0-0.1-0.4-0.2-0.5-0.1c-0.1-0.1-0.4-0.1-0.6-0.1c-0.2-0.2,0.2,0,0.3-0.1
	c0-0.2,0.4,0.1,0.2-0.2c0.1-0.1-0.1-0.2-0.1-0.3c-0.1-0.1,0.3-0.1,0.1-0.3c0-0.1,0-0.2-0.1-0.4c0,0,0,0,0-0.1c0,0-0.1,0,0,0
	c0,0,0,0,0,0c0-0.1-0.1-0.2,0-0.3c0.2,0,0.2,0.1,0.1-0.1c0.1-0.2,0.4-0.2,0.2-0.2c0.1-0.3-0.2,0.1-0.3-0.1c0-0.2,0.1-0.2-0.1-0.2
	c0.1-0.2,0.2-0.3,0.3-0.1c0.1-0.1,0-0.1,0.1-0.3c0.1-0.4,0.5-0.2,0.9-0.2c0.3-1.4,0.6-2.8,0.9-4.1c0.2-0.3,0.3-1.3,0-0.8
	c-0.1,0.2-0.5,0.1-0.5,0c-0.1-0.2-0.3,0.2-0.5,0.1c0,0.2-0.5,0,0-0.1c0,0,0.1-0.1,0.1-0.1c0,0-0.2-0.1,0-0.1c0,0.1,0,0.1,0,0.1
	c0.1,0,0.2-0.1,0-0.2c0.2-0.1-0.2-0.1-0.1-0.3c-0.3,0,0-0.1-0.1-0.3c0-0.2-0.1-0.1-0.1-0.3c0.2-0.1,0.1-0.1,0.1-0.3
	c-0.2-0.2,0.2-0.3,0.3-0.3c0.1-0.1,0.2-0.5,0.1-0.4c0-0.3-0.6,0-0.5-0.3c0,0,0.2-0.2,0.4-0.2c1.1-0.3,2.2-0.5,3.3-0.5
	C64.3,80.4,64.7,80.4,65.1,80.4z M60.3,95.4c-0.2,0.2,0.3-0.1,0.2,0C60.5,95.3,60.4,95.3,60.3,95.4z M60.6,83
	c-0.1,0.2,0.3,0.1,0.2,0C60.7,83,60.6,83,60.6,83z M61.5,83.5c-0.1,0.1-0.3,0.1-0.2,0.2C61.3,83.5,61.7,83.7,61.5,83.5
	C61.5,83.5,61.5,83.5,61.5,83.5C61.5,83.5,61.5,83.5,61.5,83.5C61.4,83.5,61.4,83.5,61.5,83.5z M61.5,83.5
	C61.5,83.5,61.5,83.5,61.5,83.5C61.5,83.5,61.5,83.5,61.5,83.5z M62.4,96c0.2,0.1,0,0.1,0,0.2c0.4,0-0.1,0.1,0,0.3
	c-0.2,0.2-0.1,0.1-0.1,0C62.2,96.5,62.2,96.1,62.4,96C62.3,95.9,62.3,95.9,62.4,96C62.4,96,62.4,96,62.4,96z M64.4,83.1
	c-0.1-0.1-0.1,0.2-0.1,0.3c0,0.2,0,0.4-0.1,0.5c0.2,0.1-0.1,0.1,0,0.4c0.1,0.1,0.1,0.1,0,0.3C64.1,84.3,64,85,64,85.2
	c0,0.2-0.2,0.5,0,0.5c-0.1,0.1-0.1-0.1-0.2,0.3c0.1,0,0.1,0.1,0.1,0.2c0,0,0,0,0,0c0,0,0,0,0,0c0,0.1-0.1,0.2-0.2,0.3
	c0.3,0.2,0,0.2-0.1,0.4c0,0,0,0,0,0.1c0.1,0,0,0,0,0c0,0.1,0,0.2-0.1,0.2c0,0,0,0,0.1,0c0,0.1-0.1,0.1-0.1,0.1
	c0,0.1-0.1,0.2-0.1,0.3c1.3-0.6,2.5-1.4,3.5-2.5c0.2-0.3,0.7-0.8,0.3-0.8c-0.1,0-0.1-0.1-0.2-0.1c0,0,0,0,0,0C67.1,84.1,67,84,67,84
	c-0.1,0.1-0.3,0.1-0.2,0c0.2,0,0.4-0.2,0.1-0.3c-0.2-0.1-0.1,0-0.3,0.1c0.1-0.1-0.1-0.3-0.3-0.3c-0.1-0.1-0.4-0.2-0.7-0.2
	c-0.1,0.2-0.3-0.1-0.6,0C64.8,83.1,64.5,83.2,64.4,83.1C64.4,83.1,64.4,83.1,64.4,83.1z M66.1,92.9C66.2,93,66.2,92.9,66.1,92.9
	C66.1,92.9,66.1,92.9,66.1,92.9z M66.3,83.7c0.2,0.1-0.1,0.1-0.1-0.1C66.3,83.7,66.3,83.7,66.3,83.7z M66.5,92.9
	C66.3,93,66.6,92.9,66.5,92.9C66.5,92.9,66.5,92.9,66.5,92.9z M66.6,84.2c0.3,0.3-0.2,0.1-0.1-0.1C66.5,84.1,66.6,84.2,66.6,84.2z
	 M66.6,93c0.2,0,0.4,0.1,0.2-0.1C66.9,93,66.4,92.8,66.6,93z M67.4,84.3C67.3,84.7,67.2,84.3,67.4,84.3
	C67.4,84.2,67.5,84.3,67.4,84.3z"/>
<path d="M77.9,79.6c0.1,0,0.3,0.2,0.3,0.1c-0.1-0.2,0.3,0,0,0.2c0.2-0.1,0.2,0.3,0.2,0.3c0.1,0.1,0.3,0.3,0.2,0.3
	c0.2,0.1,0.1-0.1,0.3,0c0.2-0.1,0,0.3,0.2,0.3c0.2-0.2,0,0.2,0.2,0.1c0.1,0.1,0.3,0.3,0.3,0.5c0,0.1,0.2-0.1,0.1,0.4
	c0,0.1,0.1,0.2-0.1,0.4c0,0.2,0,0.4,0.1,0.6c-0.1,0.7,0-0.5-0.1,0.1c0,0.2-0.1,0.3-0.1,0.6c0,0,0,0,0,0.1c0,0,0,0,0,0
	c0,0,0,0.1,0,0.2c-0.2,0.1-0.1,0.5-0.2,0.6c-0.1,0.3-0.1,0.2-0.1,0.5c-0.1,0.2,0,0.6-0.1,0.7c0,0,0,0,0,0c0,0,0,0,0,0
	c0,0.1,0,0.1,0,0.1c0,0.2-0.1,0.3-0.1,0.5c-0.1,0.1-0.1,0.5-0.1,0.5c-0.1,0.2,0,0.1-0.1,0.3c0,0.3-0.2,0.8-0.1,1
	c-0.2,0.6-0.2,1.2-0.3,1.8c-0.1,0.4-0.1,0.9-0.2,1.3c0,0.4-0.1,0.5-0.1,1c0,0.3,0,0.7-0.1,1.1c0,0.2,0,0.3-0.1,0.6
	c-0.1,0.3,0,0.9-0.1,1.2c0,0.2,0.1,0.4-0.1,0.6c0.1,0,0.1,0.3,0,0.3c-0.2,0.3,0-0.3-0.2-0.2c0.1-0.2-0.1,0-0.1-0.2
	c-0.1,0.1-0.1,0.3-0.1,0c-0.1,0.4-0.2,0-0.2,0c0-0.2-0.1,0.3-0.2,0.1c-0.2-0.2-0.2,0.2-0.3,0.2c-0.1-0.2-0.2-0.2-0.4-0.2
	c-0.3,0.2-0.4-1.1-0.6-0.7c-0.1-0.2-0.2,0.2-0.3,0.1c-0.1,0.1-0.2,0.4-0.4,0.6c0-0.1-0.1-0.1-0.2,0.1c-0.3,0.1-0.1,0-0.2-0.1
	c-0.1,0.2-0.3,0.4-0.7,0.3c-0.1-0.1-0.2-0.1-0.3-0.1c0,0.1-0.1,0.1,0,0c-0.1,0-0.2,0-0.3-0.1c-0.3-0.1-0.3,0-0.5-0.2
	c-0.1,0.1-0.2-0.1-0.2-0.1c-0.3-0.1-0.1-0.2-0.5-0.3c-0.3,0-0.3-0.1-0.6-0.1c-0.3,0.2-0.1-0.1-0.4-0.1c-0.1,0,0.2,0.3-0.3,0
	c-1-0.8-1.2-2.1-1.2-3.4c0.1-3.1,1-6.1,2.2-9.1c0.2-0.6,0.8-1.4,0.7-1.8c0.2-0.2,0.1-0.1,0.1-0.2c0.2-0.2,0.4-0.1,0.4,0
	c0.2-0.2,0-0.3,0.4-0.1c0.1,0,0.3,0.3,0.4,0.3c-0.1,0.3,0,0.3,0.1,0.6c0.1-0.4-0.1,0.3,0.1,0c0,0.3-0.1,0.3,0.1,0.1
	c-0.1-0.3,0.3-0.1,0.2,0c0.2,0.1-0.2,0.2-0.1,0.3c0.1-0.1,0.2,0.1,0.2,0.1c0.1,0.1,0.1,0.3,0.3,0.2c0,0,0,0,0,0c0,0,0,0,0,0
	c0,0.2,0.1,0.5-0.1,0.7c-0.1,0.2-0.4,0.5-0.1,0.6c-0.1,0.2-0.1,0.2-0.2,0.6c-0.2,0.5-0.2-0.1-0.2,0.3c0.3,0.1-0.1,0.2,0,0.4
	c0.2,0.1-0.1,0.6-0.1,0.4c-0.2,0.2-0.1,0.1,0,0.3c0,0-0.2,0.1-0.2,0.1c-0.1,0.1,0,0.3,0,0.3c-0.1,0.3-0.1,0.2,0,0.4
	c-0.2-0.1-0.2,0-0.2,0.1c0,0,0,0,0,0c0,0,0,0,0,0c-0.1,0.2,0,0.3-0.1,0.4c0,0.1-0.2,0.4-0.2,0.6c0.1,0.1,0.1,0.4,0,0.3
	c-0.1-0.3-0.2,0.3-0.1,0.3c-0.2,0.2,0.1,0.3-0.1,0.3c0.2,0.2,0,0-0.1,0.3c0.1-0.3,0.2,0.4,0,0.5c0,0.1-0.1,0.4-0.1,0.6
	c-0.1,0.2-0.1,0.4-0.1,0.6c0,0.1-0.3,0.3,0,0.2c0,0,0,0.1-0.1,0.1c0,0,0,0,0,0c0,0,0,0.1,0,0.1c0,0.1,0,0.1-0.1,0.2c0,0,0,0,0,0
	c0.1,0,0,0,0,0c0,0-0.1,0.1,0.1,0.2c-0.1,0.1-0.2,0.4-0.1,0.5c-0.1,0.2,0,0.3,0,0.4c0.2,0.1-0.1,0.7,0.1,0.8
	c-0.2,0.1,0.1,0.2,0.1,0.5c0,0.2-0.1,0.5,0.1,0.2c0.5-0.4,0.9-0.8,1.2-1.3c0.4-0.5,1-1,1.1-1.6c0.3-2.3,0.8-4.5,1.3-6.7
	c0.3-1.3,0.6-2.5,1.1-3.7c0-0.4,0.1,0.2,0.1,0C77.7,79.9,77.7,79.8,77.9,79.6C77.9,79.6,78,79.6,77.9,79.6z M71.5,95
	C71.5,95.1,71.3,95,71.5,95C71.4,95,71.5,95,71.5,95z M72.5,95.2c0.1,0.1,0.2,0.1,0.3,0.2C73.3,95.6,72.9,95.1,72.5,95.2
	C72.6,95.2,72.6,95.2,72.5,95.2z M72.6,90.4C72.6,90.4,72.6,90.4,72.6,90.4C72.6,90.4,72.6,90.4,72.6,90.4z M72.8,88.8
	c0.2-0.2-0.1,0,0-0.1C72.8,88.7,72.8,88.8,72.8,88.8z M74.6,95c-0.1,0-0.4,0.1-0.5,0.2c-0.2,0-0.3,0-0.4,0c-0.1,0.1-0.2,0-0.2,0v0
	c0,0,0,0,0,0c0,0,0,0-0.1,0.1c0,0-0.1-0.1-0.1-0.1c0.2,0.3,0.5,0.2,0.8,0.2c-0.2,0.2,0.1,0,0.2-0.1c0,0.2,0.5,0,0.7-0.1
	c0.3-0.2-0.2-0.1-0.1-0.3C74.8,94.9,74.8,95,74.6,95z M76.1,75.7c0.2,0.1,0.3,0.4,0.4,0.6c0,0.1,0.2,0.2,0.3,0.3
	c-0.1,0.2,0.2,0.1,0.1,0.2c-0.1-0.1-0.1,0,0,0.1c0.2,0.1,0.1,0.2,0.1,0.4c0.1,0.2-0.1,0.4,0,0.5c-0.1,0.1-0.1,0.1-0.2,0.2
	c0.1,0.1-0.3,0.2-0.2,0.4c0.2,0.1-0.1,0.1,0,0.1c0,0.1-0.3,0.2-0.3,0.3c0.1,0.1-0.1,0.1-0.2,0.2c-0.2,0.1-0.3,0.2-0.5,0.3
	c0,0,0.4-0.3,0.3-0.3c0.2-0.2,0-0.1-0.1,0c-0.1,0,0,0,0,0c0,0,0,0,0,0c0,0.1-0.3,0.1-0.1,0c0.1-0.1-0.3,0.1-0.2,0.1
	c0.2-0.1,0,0.2-0.2,0.2c-0.2,0,0.2-0.2,0.1-0.2c-0.2,0-0.1,0-0.1,0.1c-0.1-0.1-0.3,0.1-0.4,0.1c-0.1,0-0.3-0.3-0.3-0.2
	c0,0.2-0.2-0.3-0.3-0.2c-0.1,0.2,0.1,0.3,0.1,0.4c0,0.2-0.1,0-0.1-0.1c-0.2,0.1-0.1-0.4-0.2-0.3c-0.1,0-0.1-0.2,0-0.1
	c0-0.2-0.2-0.5-0.3-0.7c-0.3-0.2-0.5-0.5-0.5-0.9c0-0.9,0.8-1.7,1.7-1.9c0.2,0,0.4-0.1,0.6-0.1C75.7,75.5,75.9,75.5,76.1,75.7z
	 M73.5,95.2C73.5,95.2,73.5,95.2,73.5,95.2C73.5,95.2,73.5,95.2,73.5,95.2z M73.9,85.1C73.9,85.1,73.9,85.1,73.9,85.1
	C73.9,85.1,73.9,85.1,73.9,85.1z M74,95.1C73.9,95.1,74.1,95.1,74,95.1C74,95.1,74,95.1,74,95.1z M74.5,81.9
	c0.2,0.3,0.1-0.1,0.1-0.2C74.3,81.9,74.1,81.8,74.5,81.9z M74.7,81.7C74.7,81.7,74.7,81.7,74.7,81.7C74.7,81.7,74.7,81.7,74.7,81.7z
	 M75.1,79.8c-0.2-0.1-0.4,0.2-0.4,0c0.1-0.1,0.5,0,0.5-0.1C75.3,79.7,75.2,79.7,75.1,79.8z M75.3,79.6
	C75.3,79.8,75.2,79.7,75.3,79.6C75.3,79.6,75.3,79.6,75.3,79.6z M75.5,79.6c-0.2,0,0,0,0.1-0.1C75.6,79.6,75.5,79.6,75.5,79.6z
	 M75.9,79.2L75.9,79.2C75.9,79.2,75.9,79.2,75.9,79.2z M80.3,75.9c0.1,0,0.2,0.3,0.3,0.3c0.1,0.2,0.2,0.3,0.3,0.5
	c0.2,0.1,0,0.1,0.1,0.3c0,0.2,0,0.6-0.1,0.8c0,0.1-0.1,0.2-0.1,0.2c0.1,0.2-0.3,0.3-0.2,0.4c-0.2,0,0,0.1-0.1,0.1
	c0,0-0.3,0.1-0.2-0.1c0.2-0.2,0-0.1-0.1,0c-0.1,0.1-0.3,0.4-0.2,0.3c0,0,0,0.1,0.1-0.1c0.2,0.1-0.2,0.2-0.3,0.3
	c0.1-0.1,0.2-0.3-0.1-0.1c-0.1-0.1,0.2,0,0.1-0.2c-0.1,0-0.1,0.1-0.2,0.2c0.1,0,0,0.3-0.1,0.1c0.1-0.2-0.2,0-0.2,0
	c-0.1,0.1,0.1,0.1,0.1,0.2c-0.2,0.2-0.3-0.1-0.5,0c-0.1,0.1-0.2-0.2-0.3-0.1c0,0-0.1-0.1-0.2-0.1c-0.2-0.2-0.1,0-0.1,0.1
	c0.1,0.1,0.1,0.6,0,0.3c-0.1-0.2-0.1-0.4-0.1-0.6c-0.3-0.2-0.4-0.4-0.5-0.7c-0.2-0.2-0.4-0.5-0.4-0.9c0-0.4,0.1-0.8,0.2-1.1
	c0.2-0.6,0.8-1,1.4-1C79.6,75,80.2,75.3,80.3,75.9z M78.7,79.4c0,0.1,0.1,0,0.1,0.1c0.1-0.1,0.5-0.1,0.3,0c0,0.1-0.2,0-0.3,0.1
	C78.8,79.6,78.3,79.5,78.7,79.4C78.6,79.3,78.6,79.4,78.7,79.4z M78.9,86.3L78.9,86.3C78.8,86.3,78.9,86.4,78.9,86.3z M79.5,79.3
	c0.1,0.1-0.4,0.4-0.3,0.1C79.4,79.3,79.4,79.4,79.5,79.3c0.1,0,0.1-0.2,0.2-0.2C79.9,79.2,79.6,79.3,79.5,79.3z M80.3,78.7
	c-0.2,0.1-0.1-0.1,0-0.1C80.3,78.7,80.4,78.7,80.3,78.7z"/>
<path d="M87.7,79.3c0.1,0.1,0.3,0,0.4,0.3c0-0.1,0.2,0.4,0.4,0.2c0,0.3,0.3,0.1,0.3,0.3c0.2,0.1,0.3,0.1,0.5,0.2
	c-0.2,0.1,0.1,0.1,0.1,0.2c-0.3,0,0.1,0.2,0.2,0.3c0.3,0.1,0,0.3,0.2,0.4c0,0.2,0.1,0.4,0.1,0.6c0,0.4,0.2,0.9,0.1,1.1
	c-0.1,0.1-0.2,0.6-0.2,0.8c-0.1,0.4-0.1,0.5-0.2,0.6c0,0,0,0.1,0,0.1c0,0,0,0,0,0c-0.1,0,0,0,0,0c0,0.2-0.1,0.3,0,0.2
	c0,0.3,0,0.4-0.1,0.6c-0.1,0-0.2,0.2-0.2,0.2c-0.2,0.3-0.1-0.1,0-0.2c-0.1,0.3,0.2-0.2,0.1-0.1c0,0,0,0-0.1,0c0,0,0-0.1,0-0.1
	c0,0.1,0,0.1,0,0.1c-0.1,0-0.2,0-0.2-0.1c0,0-0.1,0-0.1,0c0,0,0,0,0,0c0,0.1,0.2,0.4-0.1,0.2c-0.1,0.1-0.3,0.2-0.2,0.2
	c-0.1,0-0.1,0.2,0.1,0.1c0.2,0,0.2-0.2,0.2,0.1c0.4-0.4,0,0.5-0.1,0.2c-0.3,0.3,0-0.1-0.3,0.1c0,0.3-0.3,0.3-0.3,0.4
	c-0.1,0.2-0.2,0.5-0.2,0c0.2,0,0.1-0.2-0.1-0.2c-0.1,0.1,0,0.2-0.1,0.2c-0.1,0.1-0.3,0.2-0.3,0.3c-0.2-0.1,0,0.3-0.2,0.2
	c-0.3,0.1-0.3,0.4,0.1,0.4c0.5,0.3,1,0.8,1.2,1.5c0.2,0.4,0.4,1.1,0.2,1.4c-0.2,0,0,0.3,0,0.4c0,0.3-0.2-0.2-0.2,0.1
	c0.2-0.1-0.1,0.4,0,0.3c-0.1,0.3-0.1,0.3-0.2,0.5c-0.1,0.2-0.2,0.2-0.2,0.4c0,0-0.2,0.2,0,0.1c-0.2,0.3-0.4,0.5-0.4,0.6
	c0,0-0.1,0.1-0.1,0.2c0,0,0,0,0,0c0,0,0,0,0,0c-0.1,0.1-0.2,0.2-0.3,0.3c0,0.2-0.6,0.3-0.7,0.6c-0.1-0.1-0.3,0.3-0.4,0.1
	c-0.1,0.1-0.1,0-0.3,0.1c0,0.1-0.1,0.1,0,0c0,0-0.1,0-0.1,0c0.1,0-0.2,0.3-0.2,0.1c-0.1,0-0.1,0-0.2,0c0,0.2-0.2,0.1,0,0
	c-0.2,0-0.3,0-0.3-0.1c0,0,0,0,0,0c0,0,0.1,0,0.1,0c0.2,0,0.5,0,0.6-0.2c0,0.2,0.4-0.1,0.6-0.1c0.2-0.2,0.5-0.2,0.6-0.5
	c0.2-0.1,0.5-0.5,0.6-0.7c0,0,0,0,0,0c0,0,0,0,0,0c0,0,0,0,0-0.1c-0.1,0.2-0.2,0.3-0.4,0.5c-0.2,0.2-0.2,0.2-0.4,0.2
	c0.1,0.2-0.1,0.2-0.2,0.2c0,0.1-0.5,0.2-0.2,0.1c0-0.2-0.3,0.1-0.6,0.1c-0.3,0.2-0.3,0-0.5,0.1c-0.2,0.1-0.2-0.2-0.5-0.1
	c-0.3,0,0.1,0.1,0.2,0.1c0.1,0.2-0.5-0.1-0.7-0.1c-0.3-0.1-1.1-0.3-0.6,0c0.3,0.3,0.3,0.1,0.5,0.2c-0.1,0.2,0.7,0.1,0.7,0.3
	c-0.3,0.1-0.3,0.1-0.6-0.1c0-0.1,0,0.1-0.2,0.1c-0.1-0.3-0.6-0.3-0.8-0.6c0.3,0-0.2-0.5-0.5-0.6C83.3,92.6,83,92.7,83,93
	c0,0,0,0,0,0c0,0,0,0,0,0c0,0,0,0,0,0.1c-0.1,0,0,0.5-0.1,0.4c-0.1,0.2,0.1,0.4-0.1,0.3c-0.1,0.1-0.1,0.5-0.1,0.7
	c0,0.2,0,0.2-0.2,0.4c0.1,0.1-0.1,0.1,0-0.2c0.1-0.1,0-0.7-0.1-0.3c-0.2,0.2-0.1,0.1-0.1,0.2c-0.2,0-0.2,0.4-0.3,0.5
	c-0.1,0.1-0.3,0.2-0.1-0.1c-0.3,0,0,0-0.3,0.1c-0.1-0.1-0.3-0.1-0.4,0c-0.1-0.3-0.1,0.2-0.2,0.2c0-0.3-0.3,0.3-0.2-0.1
	c-0.2-0.1-0.3-0.1-0.1,0.1c-0.1,0.3-0.2-0.2-0.4-0.1c-0.3-0.1,0.1,0,0-0.2c0-0.2-0.1-0.1-0.2-0.1c0-0.2-0.1,0.2-0.3,0
	c0-0.2-0.1,0.1,0,0.1c0,0.1-0.1,0-0.2-0.1c-0.1,0.2-0.3,0.1-0.3-0.2c0.1-1.8,0.6-3.5,1-5.3c0.8-2.9,1.8-5.8,3.5-8.4
	c0.7-1.1,1.7-2.3,3-2.4C87.2,79.2,87.4,79.2,87.7,79.3z M82.3,94.6c0,0.1,0.3-0.1,0.1-0.1h0C82.3,94.4,82.4,94.6,82.3,94.6z
	 M82.6,94.3c0.1,0,0.1,0,0.1-0.1c0,0,0.1,0,0,0c0,0,0,0,0,0c0,0-0.2-0.1-0.3-0.2C82.2,94.3,82.7,94.1,82.6,94.3z M82.5,93.9
	C82.5,93.9,82.5,93.9,82.5,93.9C82.5,93.9,82.5,93.9,82.5,93.9C82.6,93.9,82.6,93.8,82.5,93.9C82.4,93.9,82.5,93.9,82.5,93.9z
	 M82.7,93.6c-0.2,0.3,0,0.7,0.1,0.2c-0.1-0.1,0.2-0.6,0-0.7C82.7,93.4,82.8,93.4,82.7,93.6z M82.8,93c0.1,0.2,0.1-0.3,0.1-0.4
	C82.8,92.6,82.9,92.9,82.8,93z M83,93C83,93,83,93,83,93C83,93,83,93,83,93z M83.3,90.9C83.3,90.9,83.3,90.9,83.3,90.9
	C83.3,90.9,83.3,90.9,83.3,90.9C83.3,90.9,83.3,90.9,83.3,90.9c0,0.2,0.1,0.2,0.1-0.1C83.3,90.8,83.3,90.9,83.3,90.9z M83.6,89.7
	c-0.1,0.2,0,0.3-0.2,0.4c-0.1,0.3,0,0.4-0.2,0.6c0.3,0,0-0.5,0.3-0.5c-0.1-0.1,0-0.5,0.1-0.5c0-0.1,0.1-0.5,0.1-0.6
	C83.6,89.3,83.6,89.6,83.6,89.7z M84.4,88.3c-0.2,0-0.3,0.3-0.1,0.2c0.1-0.3,0,0.2-0.1,0.2c-0.4,0.3,0,0.5-0.2,0.7
	c0.1,0-0.3,0.3-0.2,0.7c0,0-0.2,0.7-0.2,1c-0.2,0.5,0.2,0,0.2,0.3c0.1,0.6,0.1-0.1,0.4,0.1c-0.2,0.1-0.1,0-0.1,0.2
	c0.1,0.4,1.1,0.1,1.4-0.3c0.5-0.5,1.1-1.3,1-2.1c0-0.1-0.7,0.2-0.2-0.2c0.3,0,0.3-0.4,0.1-0.3c-0.2,0.1-0.3-0.1-0.5,0
	c-0.3,0-0.3,0.1-0.4,0c0.1,0-0.3,0.1-0.3,0c-0.1,0.3-0.1,0.1-0.2-0.1c0.1,0.3-0.5,0.2-0.1,0C85,88.3,84.1,88.6,84.4,88.3
	C84.4,88.2,84.4,88.2,84.4,88.3z M84.7,88.8c0.2,0.1-0.3,0-0.1,0C84.6,88.8,84.7,88.8,84.7,88.8z M84.7,85.8
	c-0.2,0.2,0.3-0.3,0.1-0.3C84.8,85.7,84.7,85.7,84.7,85.8z M84.9,85.8c0.2-0.2,0.2,0,0.1-0.2C84.9,85.7,84.9,85.7,84.9,85.8z
	 M85,88.9C85,89.1,84.8,88.8,85,88.9C85,88.8,85,88.9,85,88.9z M85.3,94c0,0-0.1,0-0.2,0C85.2,94,85.4,94,85.3,94
	c0.3,0.1,0.3-0.1-0.1-0.1C85.2,93.9,85.2,94,85.3,94z M87,82.6c0.1-0.2-0.2,0-0.2-0.1c-0.2-0.1-0.2,0.2-0.2,0.2
	c-0.2-0.1-0.2,0.3-0.3,0.4c-0.1-0.1,0,0.3,0.1,0c0.3-0.3,0,0.2-0.2,0.4c-0.1,0.3-0.3,0.2-0.4,0.2c-0.1,0.1-0.1,0.2,0.1,0.4
	c-0.1-0.2-0.1-0.2,0-0.2c-0.2-0.2,0.3,0,0.2,0c-0.1,0.1-0.2,0.2-0.2,0.3c0,0.4-0.4,0.2-0.1-0.1c-0.1,0.1-0.3,0.1-0.2,0.1
	c0.1,0.2-0.1,0.4-0.2,0.4c-0.1,0.2-0.2,0.3-0.1,0c-0.2,0,0,0.6-0.3,0.3c-0.1,0.1-0.1,0.3,0.2,0.2c0.1,0.1,0.1-0.5,0.3-0.2
	c0,0.2-0.1,0.2-0.2,0.4c0,0.3-0.3,0-0.1-0.1c-0.3,0.1,0,0.3,0,0.4c0.8-0.7,1.5-1.6,1.8-2.5c0.1-0.4,0.2-0.4,0.2-0.6
	C87.3,82.6,86.8,82.7,87,82.6z M85.1,88.5C85,88.7,85.4,88.5,85.1,88.5C85.1,88.5,85.1,88.5,85.1,88.5z M85.1,85.5
	C85.1,85.5,85.1,85.5,85.1,85.5C85.1,85.4,85.1,85.4,85.1,85.5C85.1,85.4,85.1,85.4,85.1,85.5z M85.5,94.2c0.2,0-0.5,0-0.1-0.1
	C85.3,94.1,85.3,94.1,85.5,94.2C85.4,94.1,85.4,94.2,85.5,94.2z M85.3,94C85.3,94,85.3,94,85.3,94C85.3,94,85.3,94,85.3,94z
	 M85.3,89.5c-0.2,0,0.3-0.3,0.5-0.4C85.8,89.2,85.5,89.4,85.3,89.5z M85.6,84.7c-0.2,0.1,0-0.1,0.1-0.3
	C85.7,84.5,85.8,84.7,85.6,84.7z M85.7,94C85.7,94,85.7,94,85.7,94C85.7,94,85.7,94,85.7,94C85.6,94,85.6,94,85.7,94z M86.2,88.7
	C86,89,85.8,88.7,86.2,88.7C86.2,88.7,86.2,88.7,86.2,88.7z M86.7,83.1c-0.3,0.2-0.2,0,0-0.3C86.9,83.1,86.6,82.9,86.7,83.1z
	 M86.8,82.6c-0.2,0.2,0.2,0-0.1,0.2C86.3,83.1,86.6,82.6,86.8,82.6C86.7,82.5,86.8,82.5,86.8,82.6z M86.8,93.6
	C86.8,93.6,86.8,93.6,86.8,93.6C86.7,93.7,86.5,93.7,86.8,93.6C86.8,93.6,86.8,93.6,86.8,93.6z M86.8,82.8
	C86.7,82.9,86.8,82.7,86.8,82.8C86.8,82.7,86.8,82.7,86.8,82.8z M87.1,81.9c-0.2,0-0.2,0.3-0.1,0.2c0.2,0,0.4-0.2,0.4-0.3
	c0,0,0.1,0,0,0c0,0,0,0,0,0c0,0,0,0,0-0.1C87.3,81.9,87.1,81.8,87.1,81.9z M87.1,82.2c0,0.3,0.2,0.1,0.2-0.2
	C87.2,82.2,87.1,82.1,87.1,82.2z M87.4,81.7C87.4,81.7,87.4,81.7,87.4,81.7C87.4,81.7,87.4,81.7,87.4,81.7z M87.9,87
	c-0.1-0.1,0-0.3,0-0.3c0.1,0,0.2,0,0.3-0.1C88.4,86.7,88,87,87.9,87z M88.1,87.1C87.8,87.5,87.7,87.3,88.1,87.1
	C88.1,87.1,88.2,87.1,88.1,87.1z M88.1,92.9C88.1,92.9,88.1,92.9,88.1,92.9C88.1,92.9,88.1,92.9,88.1,92.9z M88.7,86.4
	c-0.1,0.2-0.1,0.3-0.2,0.4c0,0,0,0,0,0c0,0,0,0,0,0c-0.2,0-0.3,0.3-0.2,0C88.4,86.7,88.4,86.5,88.7,86.4
	C88.7,86.4,88.7,86.4,88.7,86.4z M88.6,85.7c-0.1,0.2-0.2,0.2-0.2,0.3c-0.2,0.1,0.1,0.2,0.2,0.1c0-0.2,0.3-0.2,0.2-0.4
	C88.7,85.8,88.7,85.7,88.6,85.7z M88.8,86.4c-0.2,0,0.1-0.4,0.1-0.4C89.1,86.1,88.8,86.3,88.8,86.4z M89.1,85.4
	c0.1,0.1-0.2,0.1,0.1-0.2C89.2,85.3,89.1,85.4,89.1,85.4z M89.5,84.7c0-0.1-0.1-0.1,0-0.2C89.4,84.7,89.3,85,89.5,84.7z M89.7,84.3
	C89.7,84.3,89.7,84.3,89.7,84.3C89.7,84.3,89.7,84.3,89.7,84.3z M89.8,84.4C89.8,84.6,89.7,84.5,89.8,84.4L89.8,84.4z"/>
<path d="M94.7,78.4c0.3,0,0.3,0.1,0.4,0.1c0,0.1,0.2,0.3,0.4,0.3c1.4-0.5,2.8-0.6,4.2-0.8c0.5,0,1.2-0.2,1.4,0
	c0.3-0.2,0.3,0.2,0.5,0.1c0.1-0.2,0.3,0.1,0.3,0.1c0,0.1,0.2,0.2-0.1,0.2c0.1,0.1,0.1,0.2-0.1,0.3c0,0-0.2,0.3-0.2,0.3
	c0.1,0.2-0.1,0.2-0.1,0.3c0,0.2,0.3,0.2,0.2,0.4c-0.1,0.1-0.1,0.2-0.2,0.3c-0.4-0.1-0.3,0.3-0.2,0.3c-0.1,0.2-0.3-0.1-0.3,0
	c-0.2,0-0.3,0.2-0.5,0c-0.2,0.1-0.4,0-0.5,0.2c-0.2,0.1-0.3,0,0-0.2c-0.2,0.1-0.2,0-0.4,0.1c-0.2,0.1,0,0-0.2,0.2
	c0-0.2-0.3,0.1-0.4,0c-0.2,0-0.3,0.1-0.5,0.1c0,0.1-0.3-0.1-0.6,0.1c0,0,0,0,0.1,0c0,0,0,0,0,0c0.2-0.1,0.5,0.1,0.2,0.3
	c0-0.2-0.4,0.3-0.5,0.1c0,0-0.6,0.3-0.4,0.1c-0.3-0.1-0.1,0.2-0.3,0.1c-0.2,0.2-0.3-0.1-0.4-0.1c0.2,0.2-0.4,0.4-0.3,0.2
	c-0.2-0.1-0.1-0.2-0.1-0.2c-0.3-0.2,0,0.3-0.2,0.2c-0.2,0,0,0.2-0.2,0.3c-0.2-0.1-0.2,0.2-0.2,0.3c-0.1,0.3-0.1-0.2-0.1,0.1
	c0,0.2,0,0-0.1,0.3c0.1,0.1-0.1,0.1,0.1,0.3c0,0.3-0.3,0.3-0.2,0.4c-0.1,0.1,0,0.2,0,0.3c-0.1,0.3-0.3,0.4-0.2,0.5
	c0,0-0.1,0.1-0.1,0.1c0,0,0,0,0,0c0,0,0,0,0,0c0,0.1-0.1,0.2-0.1,0.1c0,0,0.2,0.2-0.1,0.2c0,0,0,0.3,0,0.5c0,0,0,0,0,0c0,0,0,0,0,0
	c0,0,0,0,0,0.1c1.3-0.4,2.6-0.7,3.9-0.9c0.5,0,1.1-0.1,1.6,0c0,0.1,0.1-0.1,0.2,0.2c0.3,0.2-0.2,0.1,0.1,0.2c-0.3,0.2,0,0.1,0,0.4
	c-0.1-0.1-0.1,0-0.1,0.1c0.2-0.1,0,0.2,0,0.2c-0.1-0.1-0.1-0.4-0.2,0c0.1,0.1,0.4,0.4,0.1,0.3c0,0-0.2,0.1-0.2,0.2c0,0,0,0,0,0
	c0,0,0,0,0.1,0c0.2,0.1,0.3,0.2,0.1,0.2c-0.3,0.2,0,0-0.1,0.2c0.2-0.1,0,0.2-0.1,0.2c-0.3-0.1-0.2,0.3-0.1,0.1
	c0.2,0-0.1,0.3-0.1,0.1c0,0.2-0.7,0.2-0.5,0.3c-0.2-0.1-0.3,0.2-0.3,0.1c-0.2,0.2-0.2-0.1-0.3,0.1c-0.3,0-0.5-0.1-0.8,0
	c-0.1,0.1-0.4,0.1-0.5,0.1c-0.1,0-0.2,0-0.2,0c-0.2-0.1-0.1,0.2-0.2,0.1c0.2-0.1-0.6,0-0.2,0.1c-0.3,0.2-0.3-0.2-0.5,0
	c-0.3,0.2-0.2,0.1-0.2,0.1c-0.1,0-0.2,0-0.3,0.1c0.1,0.1-0.1,0.1,0,0c-0.1,0.1-0.2,0.1-0.3,0.1c-0.1,0.1-0.3,0.1-0.2,0.2
	c-0.2-0.2-0.1,0.2-0.3,0c-0.1,0.3-0.6,0.2-0.5,0.2c-0.2-0.1-0.2,0.6-0.2,1c-0.2,0,0.1,0.1,0,0.5c-0.1,0.2,0,0.4,0,0.6
	c-0.1,0,0.2,0.4-0.1,0.5c0,0.5,0.2-0.1,0.1,0.3c0,0,0,0.1,0,0.1c0,0,0,0,0,0c0.2,0.1,0.1,0.1,0,0.1c0,0.1,0.1,0.2,0.1,0.3
	c0.2,0.4-0.1,0,0,0.3c0.1,0.2,0,0.1,0.1,0.2c1.1-0.3,2-1,2.9-1.7c0.2,0,0.2,0,0.4,0.1c0.1-0.1,0.1,0,0.2,0.1
	c0.4-0.1-0.1,0.2,0.1,0.1c0.2,0.2,0.4-0.2,0.5,0c-0.1,0.2,0.1,0.2,0.2,0c0.2,0,0.1,0.3,0.2,0.1c0,0,0.1,0,0,0c0,0,0,0,0-0.1
	c0.1,0.2,0.6-0.2,0.5,0.1c0.4,0,0.2,0.4,0.3,0.3c0.1-0.1,0,0.2,0.2,0.2c-0.1,0.3-0.2-0.1-0.3,0.1c0,0.3-0.3,0.1-0.1,0
	c-0.1,0-0.3,0.4-0.1,0.2c0,0.1-0.1,0.3-0.4,0.4c-0.2,0.2-0.5,0.3-0.6,0.5c-0.1,0.1-0.5,0.3-0.3,0.2c0.1,0,0.4-0.2,0.5-0.3
	c0,0.3,0.1,0.1,0.3,0.1c0.1-0.1,0.4-0.3,0.4-0.4c0.2-0.1,0.2,0-0.1,0.2c-0.3,0.2-0.6,0.5-0.9,0.6c-0.1,0.3-0.4,0.1-0.4,0.3
	c-0.2-0.1-0.3,0.2-0.5,0.2c-0.1,0-0.2,0.1-0.4,0.2c-0.3,0.2-0.9,0.3-1.4,0.4c-0.4,0.1-0.7-0.2-1.1-0.3c-0.3,0-0.3-0.1-0.7-0.2
	c0.3,0-0.1-0.3-0.2-0.3c-0.3-0.2-0.1,0.2-0.3,0c-0.4-0.3,0,0.1-0.3,0c-0.1-0.1-0.1-0.1-0.3-0.1c0,0,0,0,0,0c0,0,0,0,0,0
	c-0.1,0-0.1,0-0.2,0c-1-0.5-1.3-1.6-1.4-2.7c-0.1-2.3,0.4-4.6,1-6.8c0.1-0.4,0.5-1.1,0.3-1.2c0-0.3-0.2-0.2-0.2-0.5
	c-0.2,0.1-0.2-0.2-0.1-0.4c0.2-0.1-0.3,0-0.4-0.2c0.5,0-0.2-0.1,0.2-0.3c0.2,0,0.1-0.1,0.2-0.2c-0.2-0.2,0-0.2,0-0.4
	c0.3,0,0.3-0.2,0.3-0.3c-0.1-0.2-0.1,0-0.2-0.1c0.2,0,0.1-0.1-0.1-0.1c0.1,0.2-0.3-0.3-0.2-0.3c0-0.2,0.5-0.1,0.2-0.2
	c0.9-0.3,2-0.1,2-0.9c0-0.2,0.3-0.3,0.2-0.3C94.4,78.7,94.4,78.4,94.7,78.4C94.6,78.4,94.7,78.4,94.7,78.4z M92.6,93.4
	C92.6,93.4,92.6,93.4,92.6,93.4C92.6,93.4,92.6,93.4,92.6,93.4z M93.6,93.8c0,0,0.1,0,0.1,0C93.7,93.8,93.7,93.8,93.6,93.8z
	 M94.8,84.2C94.6,84.3,94.8,84.2,94.8,84.2C94.8,84.2,94.8,84.2,94.8,84.2z M95,93.9c0.3,0.1,0.4,0.2,0.6,0c0-0.1-0.5,0.1-0.2,0
	C95.7,93.7,95.2,93.8,95,93.9C95.1,93.8,94.9,93.9,95,93.9z M95.1,93.9C95,94,95.2,93.9,95.1,93.9C95.1,93.9,95.1,93.9,95.1,93.9z
	 M95.3,78.5C95.4,78.7,95,78.5,95.3,78.5C95.2,78.5,95.2,78.5,95.3,78.5z M95.7,93.8c-0.2,0.3,0,0.1,0.2,0.1c0.1,0.1,0.4,0,0.2-0.2
	C96.1,93.8,95.7,93.9,95.7,93.8z M96.1,81.4C96.3,81.5,96.3,81.3,96.1,81.4C96.2,81.4,96.1,81.4,96.1,81.4z M97.2,93.3
	c-0.1,0.1-0.4,0.2-0.5,0.3c-0.3,0.3-0.1,0.1,0,0.2c0.2,0,0.5-0.2,0.6-0.2c0-0.1,0.5-0.5,0.2-0.2c0.2,0.2,0.2-0.3,0.2-0.3
	C97.6,93.2,97.4,93.1,97.2,93.3z M97,93.8C97,93.8,97,93.8,97,93.8C96.8,93.8,96.9,93.8,97,93.8c-0.1,0.1,0,0.1,0.1-0.1
	C97,93.7,97,93.8,97,93.8z M98.6,90.9C98.6,90.9,98.6,90.9,98.6,90.9C98.6,90.9,98.6,90.9,98.6,90.9z M99,81C99,81.1,98.8,81,99,81
	C99,81,99,81,99,81z M99.1,92.2c-0.3,0.3-0.2,0.1,0-0.1C99.3,92.1,99.1,92.1,99.1,92.2z M99.3,92.3C99.3,92.2,99.3,92.2,99.3,92.3
	C99.4,92.2,99.4,92.3,99.3,92.3z M100.3,85.5C100.3,85.5,100.3,85.5,100.3,85.5C100.3,85.5,100.3,85.5,100.3,85.5z M100.3,85.9
	C100.3,85.8,100.3,85.8,100.3,85.9C100.4,85.8,100.4,86,100.3,85.9z M100.6,80.4C100.6,80.5,100.8,80.4,100.6,80.4
	C100.7,80.4,100.7,80.4,100.6,80.4z M101.2,79.1c0.2,0.2-0.1,0.4,0.2,0.2C101.3,79.1,101.6,79.1,101.2,79.1
	C101.2,79.1,101.2,79.1,101.2,79.1z"/>
<path d="M112.1,77.4c0.2,0.1,0.4,0.4,0.6,0.5c0.1,0.1,0.2,0,0.3,0.1c0.1,0.2,0.5,0.3,0.5,0.5c0.2,0.2,0.3,0.5,0.4,0.8
	c0,0.5,0.3,0.4,0.3,0.9c-0.1,0-0.1,0.2-0.1,0.3c0.2-0.2,0.2,0.4,0,0.2c-0.1,0.6,0.1,1.2,0,1.7c-0.1,0.2,0.3,0.1,0,0.2
	c-0.1,0.1,0,0.1,0,0.3c0-0.1,0-0.1,0-0.1v0c0.1-0.2,0.1-0.1,0.1,0.3c-0.1,0-0.2,0.5-0.2,0.4c0.1,0.3,0,0.5,0,0.8
	c0.1,0.2-0.1,0.5,0.1,0.3c0,0.3,0,0.2-0.1,0.2c0,0,0,0,0,0c0,0,0,0-0.1,0.1c0,0.4,0.2,0.3,0.1,0.6c0.2,0.2-0.2,0.5,0,0.7
	c0,0.3-0.2,0-0.1,0.3c0.1-0.1,0.1,0.2,0.3,0.2c-0.1,0.1-0.3,0.1-0.3,0.3c0.2,0,0.3,0.3,0,0.4c0,0.1,0.5,0,0.3,0.1
	c-0.2-0.1-0.1,0.3-0.3,0.2c-0.1-0.1-0.2,0.1-0.1,0.2c-0.2,0.1,0.5-0.1,0.2,0c-0.2,0,0.2,0.2-0.1,0.2c-0.1,0.1,0.1,0.1-0.2,0.3
	c-0.1-0.2-0.1,0.2-0.1,0.3c-0.1,0,0.1,0.4-0.1,0.3c0,0.3,0,0.3,0,0.6c-0.1,0.2,0,0.5-0.1,0.8c0.2,0.1,0,0.1,0.1,0.2
	c-0.1,0-0.1,0.4-0.1,0.5c0.2,0.2-0.1,0.1,0,0.3c-0.1,0.2,0,0.5-0.1,0.6c0.1,0.2,0,0.4,0.1,0.6c0,0.3-0.5-0.3-0.4,0
	c-0.1,0-0.2,0.1-0.2,0.1c-0.1,0-0.3,0.2-0.3,0c0.1,0-0.2-0.2-0.3-0.1c0,0.3-0.2-0.2-0.2-0.1c-0.2,0.3-0.2-0.3-0.5-0.2
	c0.1-0.2-0.3-0.4-0.1-0.2c-0.1,0.3-0.5-0.1-0.4,0.1c-0.1,0.4-0.1-0.1-0.2,0c0,0.1-0.2-0.2-0.2,0.1c-0.2,0,0.3-0.3-0.1-0.2
	c0.1-0.7,0.1-1.4,0.1-2.1c-0.1-0.3,0.3-1.3-0.2-1.2c-0.5-0.3,0.5,0,0.3-0.3c0.1-0.1,0-0.3-0.4-0.1c0.2,0.1-0.1,0.3,0,0
	c-0.1,0-0.4,0-0.5,0.1c-0.3,0-0.2,0.2,0,0.1c0.2,0.1-0.4,0.2-0.2,0.2c0.2,0,0,0.1,0.2,0.2c-0.2,0-0.7,0.2-0.8,0
	c-0.2,0.2-0.2,0-0.4,0c-0.3,0.2-0.5,0-0.6,0.1c-0.1-0.2-0.4,0-0.5-0.1c0,0.1,0,0.4-0.1,0.2c-0.1,0.1-0.2,0.3,0.1,0.1
	c0.2,0,0.1,0.5-0.1,0.3c-0.1,0.2,0,0.3-0.2,0.3c-0.1-0.3-0.4,0.6-0.2,0.5c0.1,0,0.1,0.3-0.1,0.2c0-0.3-0.5,1.2-0.5,1.3
	c0-0.2-0.2,0.2,0,0.1c-0.1,0.2-0.2,0.4-0.1,0.1c-0.1,0.1-0.2,0.4-0.1,0.3c0,0,0,0.1-0.1,0.2c0,0.1-0.1,0.1-0.2,0.1
	c-0.4-0.2,0.2,0.2,0,0.2c0.1,0.2-0.3-0.1-0.3,0c-0.2-0.3-0.4,0.5-0.2,0c0.2-0.2-0.2-0.4-0.1-0.1c0,0.2,0,0.2-0.1,0.2
	c0,0,0.1,0,0-0.1c0,0,0,0,0,0c0-0.1-0.1-0.2-0.1-0.2c-0.4,0.1,0.1,0-0.1,0.3c0-0.1-0.3,0.1-0.3-0.1c0.2-0.1-0.2-0.3-0.2,0
	c0.2-0.3,0.1,0.3,0,0.2c0-0.2-0.3-0.1-0.1-0.2c-0.1-0.5-0.2,0.3-0.2-0.1c0.2-0.1,0.2-0.4-0.1-0.2c-0.3,0.1,0-0.2-0.1-0.2
	c-0.1,0-0.3,0.1-0.3,0.1c0,0.1-0.2,0.1-0.2,0.1c0.1-0.3-0.3,0.2-0.1-0.1c0-0.1,0-0.3,0-0.4c0.1-0.3,0.1-0.1,0.2-0.4
	c0-0.1,0.1-0.2,0-0.3c1.2-4,3.2-9,4.9-11.3c0.7-0.9,1.4-1.9,2.4-2.4c-0.1,0.1,0.1,0,0.2,0.1c0,0,0.1-0.1,0.2-0.1
	C111.8,77.1,112,77.2,112.1,77.4z M105.6,92.7C105.6,92.7,105.6,92.7,105.6,92.7C105.6,92.7,105.6,92.7,105.6,92.7z M107.4,90.5
	C107.5,90.9,107.2,90.6,107.4,90.5C107.3,90.5,107.3,90.5,107.4,90.5z M108,88.8c0.2,0.2-0.2,0.1-0.1,0.1
	C107.7,89,107.7,88.9,108,88.8C107.9,88.9,107.9,88.9,108,88.8z M109.4,88.5C109.4,88.5,109.4,88.5,109.4,88.5
	c-0.3,0.1-0.7,0.1-1,0.2c-0.5,0-0.1,0.2,0.2,0.1c0.1-0.1,0.5,0,0.5-0.1C109.1,88.6,109.6,88.7,109.4,88.5
	C109.4,88.5,109.4,88.5,109.4,88.5z M108.8,88.8C108.8,89,108.3,89,108.8,88.8C108.8,88.8,108.8,88.8,108.8,88.8z M111.3,81.3
	c-0.1,0.2-0.1,0.5-0.2,0.4c0,0.2-0.5,0.3-0.2,0.4c0.1,0-0.4,0.5-0.3,0.3c0.2-0.1,0.1,0,0.1-0.3c-0.1,0.1-0.2,0-0.2,0.1c0,0,0,0,0,0
	c0,0,0,0,0,0.1c0,0-0.1,0.1-0.1,0.1c0,0,0,0,0,0c0,0,0,0,0,0.1c0,0-0.1,0.1-0.1,0c0,0.1,0.1,0,0,0.2c-0.3,0.2,0.2,0.1,0.1,0.2
	c0,0-0.1,0.4-0.2,0.2c0.2-0.2-0.2-0.1-0.2,0.1c-0.1,0.1-0.1,0.2-0.2,0.3c0,0.3-0.1,0.2-0.2,0.5c-0.1,0.3,0.1-0.1,0.2-0.2
	c0.2-0.1,0.1-0.5,0.3-0.4c-0.1,0-0.2,0.2-0.1,0.4c-0.1,0.2-0.2,0.1-0.2,0.4c-0.3,0.1,0,0.5-0.3,0.5c0-0.3,0-0.2-0.1,0.1
	c-0.2-0.1-0.4,0.3-0.2,0.4c0,0,0,0.1,0,0.1c0.2,0.2,1.4-0.1,2.1-0.2c0.1-1,0.2-1.9,0.2-2.8c0-0.4,0.2-1.1,0-1.3
	C111.4,81.1,111.4,81.3,111.3,81.3z M109.2,84.8c0.2,0.1,0.1-0.2,0.3-0.3c-0.2,0,0.1,0,0-0.2C109.3,84.4,109.3,84.6,109.2,84.8z
	 M109.3,84.9C109.5,85.2,109.3,85.1,109.3,84.9C109.3,84.9,109.3,84.9,109.3,84.9z M110.4,88.5c0,0-0.1,0-0.2,0.1
	c-0.4,0-0.1,0,0.1-0.2C110.3,88.5,110.4,88.5,110.4,88.5z M110.2,88.4c0-0.2-0.2-0.1,0.1-0.3C110.5,88.2,110.3,88.4,110.2,88.4z
	 M110.3,82.5C110.3,82.5,110.3,82.4,110.3,82.5C110.4,82.5,110.3,82.5,110.3,82.5z M110.4,82.3C110.4,82.3,110.4,82.3,110.4,82.3
	C110.4,82.3,110.4,82.3,110.4,82.3z M110.6,82.4C110.6,82.4,110.6,82.4,110.6,82.4C110.7,82.4,110.5,82.7,110.6,82.4z M111.4,80.9
	c-0.2,0.1-0.2,0.2-0.3,0.3c0,0.1-0.3,0.5-0.2,0.4c0.1,0.2,0.3-0.3,0.3-0.3c0.1-0.1,0.2-0.1,0.3-0.2C111.5,81.1,111.5,81,111.4,80.9
	C111.5,81,111.5,81,111.4,80.9c0.1,0,0.1-0.1,0.1-0.2C111.5,80.8,111.4,80.8,111.4,80.9z M111.3,80.8
	C111.1,81,111.4,80.9,111.3,80.8C111.3,80.7,111.2,80.8,111.3,80.8z M111.5,81C111.5,81,111.5,81,111.5,81
	C111.5,81,111.5,81,111.5,81z M113,92.5C113.1,92.6,113,92.6,113,92.5C113,92.5,113,92.5,113,92.5z M114,84.4
	C114,84.4,114,84.4,114,84.4C113.9,84.4,114.1,84.5,114,84.4z"/>
<path d="M122.9,76.7c0.1,0,0.3,0.2,0.3,0.1c-0.1-0.2,0.3,0,0,0.2c0.2-0.1,0.2,0.3,0.2,0.3c0.1,0.1,0.3,0.3,0.2,0.3
	c0.2,0.1,0.1,0,0.3,0c0.2,0,0,0.3,0.2,0.3c0.2-0.2,0,0.2,0.2,0.1c0.1,0.2,0.3,0.3,0.3,0.5c0,0.1,0.2-0.1,0.1,0.4
	c0,0.1,0.1,0.2-0.1,0.4c0,0.2,0,0.4,0.1,0.6c-0.1,0.7,0-0.5-0.1,0.1c0,0.2-0.1,0.3-0.1,0.6c0,0,0,0,0,0.1c0,0,0,0,0,0
	c0,0,0,0.1,0,0.2c-0.2,0-0.1,0.5-0.2,0.6c-0.1,0.3-0.1,0.2-0.1,0.5c-0.1,0.2,0,0.6-0.1,0.7c0,0,0,0,0,0c0,0,0,0,0,0
	c0,0.1,0,0.1,0,0.1c0,0.2-0.1,0.3-0.1,0.5c-0.1,0.1-0.1,0.5-0.1,0.5c-0.1,0.2,0,0.1-0.1,0.3c0,0.3-0.2,0.8-0.1,1
	c-0.2,0.6-0.2,1.2-0.3,1.8c-0.1,0.4-0.1,0.9-0.2,1.3c0,0.4-0.1,0.5-0.1,1c0,0.3,0,0.7-0.1,1.1c0,0.2,0,0.3-0.1,0.6
	c-0.1,0.3,0,0.9-0.1,1.2c0,0.2,0.1,0.4-0.1,0.6c0.1,0,0.1,0.3,0,0.3c-0.2,0.3,0-0.3-0.2-0.2c0.1-0.2-0.1,0-0.1-0.2
	c-0.1,0.1-0.1,0.3-0.1,0c-0.1,0.3-0.2,0-0.2,0c0-0.2-0.1,0.3-0.2,0c-0.2-0.2-0.2,0.2-0.3,0.2c-0.1-0.2-0.2-0.2-0.4-0.2
	c-0.3,0.2-0.4-1.1-0.6-0.7c-0.1-0.2-0.2,0.2-0.3,0.1c-0.1,0.1-0.2,0.4-0.4,0.6c0-0.1-0.1-0.1-0.2,0.1c-0.3,0.1-0.1,0-0.2-0.1
	c-0.1,0.2-0.3,0.4-0.7,0.3c-0.1-0.1-0.2-0.1-0.3-0.1c0,0.1-0.1,0.1,0,0c-0.1,0-0.2,0-0.3-0.1c-0.3-0.1-0.3,0-0.5-0.2
	c-0.1,0.1-0.2-0.1-0.2-0.1c-0.3-0.1-0.1-0.2-0.5-0.3c-0.3,0-0.3-0.1-0.6-0.1c-0.3,0.2-0.1-0.1-0.4-0.1c-0.1,0,0.2,0.3-0.3,0
	c-1-0.8-1.2-2.1-1.2-3.4c0.1-3.1,1-6.1,2.2-9.1c0.2-0.6,0.8-1.4,0.7-1.8c0.2-0.2,0.1-0.1,0.1-0.2c0.2-0.2,0.4-0.1,0.4,0
	c0.2-0.2,0-0.3,0.4-0.1c0.1,0,0.3,0.3,0.4,0.3c-0.1,0.3,0,0.3,0.1,0.6c0.1-0.3-0.1,0.3,0.1,0c0,0.3-0.1,0.3,0.1,0.1
	c-0.1-0.3,0.3-0.1,0.2,0c0.2,0.1-0.2,0.2-0.1,0.3c0.1-0.1,0.2,0.1,0.2,0.1c0.1,0.1,0.1,0.3,0.3,0.2c0,0,0,0,0,0c0,0,0,0,0,0
	c0,0.2,0.1,0.5-0.1,0.7c-0.1,0.2-0.4,0.5-0.1,0.6c-0.1,0.2-0.1,0.2-0.2,0.6c-0.2,0.5-0.2-0.1-0.2,0.3c0.3,0.1-0.1,0.2,0,0.4
	c0.2,0.1-0.1,0.6-0.1,0.4c-0.2,0.2-0.1,0.1,0,0.3c0,0-0.2,0.1-0.2,0.1c-0.1,0.1,0,0.3,0,0.3c-0.1,0.3-0.1,0.2,0,0.4
	c-0.2-0.1-0.2,0-0.2,0.1c0,0,0,0,0,0c0,0,0,0,0,0c-0.1,0.2,0,0.3-0.1,0.4c0,0.1-0.2,0.4-0.2,0.6c0.1,0.1,0.1,0.4,0,0.3
	c-0.1-0.3-0.2,0.3-0.1,0.3c-0.2,0.1,0.1,0.3-0.1,0.3c0.2,0.2,0,0-0.1,0.3c0.1-0.3,0.2,0.4,0,0.5c0,0.1-0.1,0.4-0.1,0.6
	c-0.1,0.2-0.1,0.4-0.1,0.5c0,0.1-0.3,0.3,0,0.2c0,0,0,0.1-0.1,0.1c0,0,0,0,0,0c0,0,0,0.1,0,0.1c0,0.1,0,0.1-0.1,0.2c0,0,0,0,0,0
	c0.1,0,0,0,0,0c0,0-0.1,0.1,0.1,0.2c-0.1,0.1-0.2,0.4-0.1,0.5c-0.1,0.2,0,0.3,0,0.4c0.2,0.1-0.1,0.7,0.1,0.8
	c-0.2,0.1,0.1,0.2,0.1,0.5c0,0.2-0.1,0.5,0.1,0.2c0.5-0.3,0.9-0.8,1.2-1.2c0.4-0.5,1-1,1.1-1.6c0.3-2.3,0.8-4.5,1.3-6.7
	c0.3-1.2,0.6-2.5,1.1-3.7c0-0.4,0.1,0.2,0.1,0c0.1-0.1,0-0.1,0.2-0.3C122.9,76.7,123,76.7,122.9,76.7z M116.4,91.9
	C116.5,92,116.3,91.9,116.4,91.9C116.4,91.9,116.4,91.9,116.4,91.9z M117.5,92.1c0.1,0.1,0.2,0.1,0.3,0.2
	C118.3,92.6,117.9,92.1,117.5,92.1C117.6,92.1,117.6,92.1,117.5,92.1z M117.6,87.4C117.6,87.3,117.6,87.3,117.6,87.4
	C117.7,87.3,117.6,87.4,117.6,87.4z M117.8,85.8c0.2-0.2-0.1,0,0-0.1C117.8,85.7,117.8,85.8,117.8,85.8z M119.6,92
	c-0.1,0-0.4,0.1-0.5,0.2c-0.2-0.1-0.3,0-0.4,0c-0.1,0-0.2,0-0.2,0v0c0,0,0,0,0,0c0,0,0,0-0.1,0c0,0-0.1-0.1-0.1-0.1
	c0.2,0.3,0.5,0.2,0.8,0.2c-0.2,0.2,0.1,0,0.2-0.1c0,0.2,0.5,0,0.7-0.1c0.3-0.2-0.2-0.1-0.1-0.3C119.8,91.9,119.8,92,119.6,92z
	 M118.5,92.2C118.5,92.2,118.5,92.2,118.5,92.2C118.5,92.2,118.5,92.2,118.5,92.2z M118.9,82.1C118.9,82.1,118.9,82.1,118.9,82.1
	C118.9,82.1,118.9,82.1,118.9,82.1z M119,92.1C118.9,92.1,119.1,92,119,92.1C119,92.1,119,92.1,119,92.1z M119.5,78.9
	c0.2,0.3,0.1-0.1,0.1-0.2C119.3,78.9,119.1,78.8,119.5,78.9z M119.7,78.7C119.7,78.7,119.7,78.7,119.7,78.7S119.7,78.7,119.7,78.7z
	 M123.9,83.4L123.9,83.4C123.7,83.4,123.9,83.5,123.9,83.4z"/>
<path d="M132.4,76.6c0.5,0.2,0.5,0.1,0.7,0.4c0.2,0.1,0.2,0.5,0.4,0.4c0,0.2,0.1,0.3,0.2,0.5c-0.1,0.3,0.3,0.3,0.1,0.5
	c0,0.2,0.3,0.5,0.2,0.6c0.1,0.1,0,0.3,0.1,0.3c-0.1,0.3,0.2,0.5,0.1,0.7c0,0.3-0.2,0.5-0.2,0.8c0,0.2-0.3,0.6-0.3,0.9c0,0,0,0,0,0
	c0,0,0,0,0,0c0,0,0,0.1,0,0.1c-0.2,0-0.3,0.3-0.2,0.4c-0.1,0-0.2,0-0.3,0.3c0.2,0-0.1,0.4-0.1,0.1c-0.1,0-0.2,0.3-0.1,0.3
	c-0.2,0.5-0.1-0.1-0.3,0.3c-0.2,0.4,0,0.3-0.3,0.6c-0.1,0.2-0.3,0.5-0.3,0.6c-0.1,0.1,0.1,0.1,0,0.2c-0.2,0.1-0.1,0.4-0.7-0.2
	c-0.6-0.6-1.4-1.4-1-2.1c0.4-0.8,0.9-1.5,1.3-2.3c0.2-0.1,0.1-0.7,0.2-0.4c0.2-0.1,0.1-0.3-0.2-0.3c0.1-0.1,0-0.2-0.1,0
	c-0.1,0,0.3,0.6-0.1,0.3c-0.3-0.2,0,0.2,0,0.2c-0.3,0.1-0.9,0.2-1,0.3c0-0.2-0.2,0.1-0.3,0.2c-0.4,0.2-0.9,0.5-1.2,0.8
	c-0.2,0.3-0.6,0.1-0.6,0.4c0.1,0.1-0.1,0.1-0.2,0.3c-0.1-0.2-0.5,0.4-0.6,0.5c-0.2,0-0.3,0.6-0.3,0.4c-0.2,0.3-0.1,0.1-0.1,0.3
	c-0.1,0-0.3,0.1-0.2,0.2c-0.1,0.2,0,0.2-0.1,0.3c-0.1,0.3-0.2,0.2-0.3,0.5c0.5,0.4,1,0.6,1.5,0.8c1.1,0.5,2.3,0.9,3.1,1.8
	c0.2,0.2,0.2,0.2,0.3,0.4c0,0.1,0.1,0.1,0.1,0.2c0,0,0,0,0,0c0,0,0,0.1,0,0.1c0,0.1,0.1,0.1,0.2,0.2c0.6,0.6,0.8,1.2,0.8,2.1
	c0,0.3-0.1,0.4-0.1,0.6c0,0.2-0.5,0.4-0.3,0.5c-0.2,0.3-0.6,0.5-0.9,0.8c-0.2,0.1-0.4,0.2-0.6,0.2c-0.1,0.1-0.3,0.2-0.5,0.2
	c-0.1,0.1-0.3,0.1-0.3,0.1c-0.2,0-0.3,0.1-0.3,0.1c-0.2,0.1-0.3,0.1-0.4,0.1c-0.2,0.1-0.5,0.1-0.6,0.1c-0.2,0.2-0.2-0.1-0.4,0.1
	c-0.1,0-0.2,0-0.3,0c-0.3,0-0.2,0-0.3,0.1c-0.1,0-0.1,0-0.2,0c0,0,0,0,0,0c0,0,0,0,0,0c-0.1,0-0.2,0-0.3,0c-0.1-0.2,0,0.2-0.1,0
	c-0.2,0.1-0.7,0.2-0.5-0.1c-0.2-0.3,0.3,0.2,0.1,0c0.1-0.1,0.2,0,0.2,0.1c0,0,0,0-0.1-0.1c0.3-0.1,0.5,0,0.8-0.1
	c0.2-0.3,0.1,0,0.5-0.1c0-0.1,0.1-0.3,0.3-0.1c0.1-0.1,0.1,0.1,0.3,0c0.2,0,0.2-0.2,0.2-0.2c0.2,0,0.3,0.1,0.4,0.1
	c0.2,0-0.1-0.2,0-0.2c0.3-0.1,0.4,0.2,0.5,0c0-0.1-0.4,0-0.2-0.1c0.5-0.2,0.1-0.1-0.2,0c-0.3,0.1-0.5,0.1-0.8,0.2
	c-0.1,0.2-0.3,0-0.4,0.1c-0.2,0-0.6,0.1-0.7,0.1c-0.2,0.1-0.1-0.1-0.4-0.1c-0.2,0-0.2,0.3-0.3,0.1c-0.3,0,0,0.2-0.3,0
	c-0.2,0.1,0.1-0.1-0.1-0.2c-0.2-0.1-0.8,0-0.7-0.1c0,0,0,0,0-0.1c0,0.1-0.2,0,0,0c-0.1-0.1-0.4,0-0.5-0.3c-0.1-0.2,0.1-0.3-0.3-0.4
	c-0.1,0.1-0.2,0-0.3,0c-0.2,0-0.2-0.3-0.4-0.2c-0.3-0.2,0.7-0.3,0.3-0.2c-0.2-0.2,0.1,0,0.1-0.2c1.4-0.3,2.9-0.6,4.3-1.2
	c0.3-0.2,1.4-0.6,0.7-0.8c-0.3-0.1-0.6-0.3-0.8-0.3c-0.3-0.2-0.7-0.3-1-0.4c-0.2-0.2-0.4-0.2-0.7-0.3c-0.4-0.2-0.8-0.5-1.1-0.9
	c-0.2-0.3-0.2-0.5-0.4-0.8c-0.1-0.1-0.1-0.1-0.1-0.3c-0.1-0.2-0.1-0.6-0.2-0.8c-0.1,0.3-0.1,0,0-0.1c-0.2,0.1-0.2,0-0.2-0.3
	c0,0.2,0-0.3-0.1-0.1c-0.1-0.1-0.2-0.6-0.2-0.9c0-1,0.5-2,1.1-2.8c1.4-1.7,3.2-2.9,5.3-3.5c0.3-0.1,0.7-0.2,1.1-0.2
	C132.1,76.5,132.3,76.5,132.4,76.6z M125,84.9c-0.1,0,0.4,0.4,0.2,0.3C125.1,85.2,125,85.2,125,84.9C125,84.9,125.1,85.1,125,84.9z
	 M125.1,84.8C125.4,85.3,125.1,85.1,125.1,84.8C125.1,84.8,125.1,84.8,125.1,84.8z M125.4,85C125.4,85.6,125.6,85.2,125.4,85
	C125.4,84.9,125.4,85,125.4,85z M125.9,85.7C126,86,126.2,86,125.9,85.7C125.9,85.7,125.9,85.7,125.9,85.7z M126.2,86.1
	C126.2,86.1,126.2,86.1,126.2,86.1c-0.2,0.1,0.2,0,0,0.1C126.3,86.4,126.3,86.2,126.2,86.1C126.2,86.1,126.2,86.1,126.2,86.1
	C126.2,86.1,126.2,86.1,126.2,86.1z M126.2,86.1C126.2,86.1,126.2,86.1,126.2,86.1C126.2,86.1,126.2,86.1,126.2,86.1z M126.3,91.9
	c0,0.2-0.2,0.1-0.1,0C126.2,91.9,126.3,92,126.3,91.9z M126.5,86.4C126.3,86.5,126.6,86.6,126.5,86.4
	C126.5,86.4,126.5,86.4,126.5,86.4z M126.6,86.6c0.2,0.1,0.2,0.2,0.1,0.1c0.2,0.1,0.3,0.3,0.3,0.1C127,86.7,126.8,86.6,126.6,86.6
	C126.7,86.6,126.6,86.5,126.6,86.6z M127.3,87C127,86.9,127.3,87.1,127.3,87c0.1,0.1,0.3,0.3,0.4,0.3c0,0,0,0,0,0c0,0,0,0,0.1,0
	c0,0,0,0,0,0c0.2,0.1,0.2,0.2,0.4,0.2c0.1-0.2-0.2-0.2-0.3-0.3c0,0.1-0.3,0.1-0.4-0.2C127.5,87,127.2,86.9,127.3,87z M127.2,92.4
	C127.2,92.4,127.2,92.4,127.2,92.4C127.2,92.4,127.2,92.4,127.2,92.4z M127.3,92.3C127.3,92.3,127.3,92.3,127.3,92.3
	C127.2,92.4,127.3,92.4,127.3,92.3C127.3,92.4,127.4,92.4,127.3,92.3C127.3,92.3,127.3,92.3,127.3,92.3z M127.3,87
	C127.4,87.1,127.1,87,127.3,87C127.3,87,127.3,87,127.3,87z M127.3,92.4C127.3,92.4,127.3,92.4,127.3,92.4
	C127.3,92.4,127.3,92.4,127.3,92.4z M127.8,87.3L127.8,87.3C127.8,87.3,127.8,87.3,127.8,87.3z M128,87.3
	C128,87.3,128,87.3,128,87.3C128.2,87.3,127.9,87.5,128,87.3z M128.6,87.5c0,0.2,0.3,0.2,0.4,0.3c0.1,0,0.2,0.1,0.4,0.1
	c0.1,0.1,0.1,0,0,0c-0.3-0.2-0.2-0.2,0.2,0c0.2,0.1,0.4,0.1,0.3,0c0-0.1-0.3-0.1-0.3-0.2c-0.2-0.1-0.4-0.1-0.5-0.2
	c-0.2-0.2-0.4,0.1-0.3-0.2C128.7,87.5,128.6,87.5,128.6,87.5z M128.9,88c0.2,0,0,0-0.1-0.1C128.8,87.9,128.9,88,128.9,88z
	 M133.4,82.3C133.4,82.3,133.4,82.3,133.4,82.3C133.4,82.2,133.4,82.2,133.4,82.3z M133.6,81.7L133.6,81.7
	C133.6,81.7,133.6,81.7,133.6,81.7z"/>
<path d="M272.6,198.9c0.5,0.1,0.8,0.4,1.1,0.6c0.3,0.2,0.3,0.5,0.5,0.6c0.1,0.1,0.1,0.2,0.1,0.2c0,0.2,0.4,0.3,0.2,0.5
	c0,0.2,0.2,0.7,0.2,0.6c0,0,0,0.1,0.1,0.1c-0.1,0,0,0.1,0,0c0.1,0.1,0.1,0.3,0.1,0.4c0.1,0.4,0.2,0.7,0.2,1c0,0.4,0.2,0.8,0.2,1
	c0,0.2-0.1,0.7-0.1,1c-0.1,0.5-0.1,0.5-0.3,1c-0.1,0.3-0.1,0.5-0.2,0.8c0,0,0-0.3-0.1,0.1c0.1,0.1,0.1,0.4-0.1,0.5
	c-0.1,0.1-0.3,0.5-0.1,0.2c0,0.3-0.4,0.7-0.2,0.4c0-0.1-0.3,0.4-0.1,0.4c-0.2,0.1-0.2,0.5-0.3,0.3c-0.2,0.1,0,0.4-0.1,0.2
	c-0.1,0.1-0.2,0.1-0.1,0.1c-0.1,0-0.1,0.1,0,0.2c0,0,0,0,0,0c0,0,0,0,0,0c0,0,0,0,0,0c-0.1,0.1-0.2,0.2-0.2,0.3c0,0.2,0.2-0.3,0.1,0
	c-0.2,0.3-0.4,0.8-0.7,1c-0.1,0.2-0.2,0.4-0.4,0.6c0.1,0.1,0,0-0.2,0.3c-0.1,0-0.3,0.3-0.4,0.5c0,0,0,0,0,0c0,0,0,0,0,0
	c0,0,0,0.1-0.1,0.1c0,0,0,0.1-0.2,0.2c-0.2,0.3-0.5,0.6-0.7,0.8c-0.1,0.1-0.1,0.1-0.2,0.2c-0.1,0.1-0.2,0.2-0.3,0.2
	c-0.2,0.2-0.4,0.4-0.6,0.5c-0.2,0.2-0.5,0.3-0.8,0.4c-0.1,0-0.4,0.3-0.3,0c-0.3,0,0.5-0.2,0.7-0.2c0.2-0.1,0.4-0.4,0.2-0.3
	c-0.4-0.2-0.2,0.1-0.2,0.2c-0.2,0-0.1-0.3-0.3-0.1c-0.2,0-0.5,0.2-0.4,0.1c-0.3,0-0.3,0.1-0.5-0.2c-0.2,0.1-0.5-0.1-0.7-0.2
	c-0.2-0.1-0.7-0.2-0.8-0.5c0-0.2-0.3-0.1-0.5-0.2c-0.3-0.1-0.3-0.4-0.5-0.4c0.1-0.3,0.1-1,0.2-1.5c0.3-2.3,0.7-4.6,1.3-6.8
	c-0.1,0,0.2-0.5,0.1-0.5c-0.1,0-0.3,0.1-0.4,0c-0.3-0.1,0.1-0.2,0-0.3c-0.4,0,0-0.5-0.3-0.5c-0.2-0.1-0.2-0.2-0.3-0.3
	c0-0.2,0-0.3-0.1-0.4c-0.1-0.1,0.2-0.3,0-0.3c-0.1-0.2-0.4-0.1-0.5-0.4c-0.3-0.2,0-0.5,0.2-0.5c0.3-0.4,0.7-0.7,1.1-1
	c1.2-0.8,2.6-1.3,4.1-1.4C271.3,198.6,271.9,198.7,272.6,198.9z M266.2,203.1C266.3,203.4,266.6,203.2,266.2,203.1
	C266.3,203.1,266.3,203.1,266.2,203.1z M268,214.5c-0.1,0.1-0.2,0.3-0.2,0.1c-0.1,0-0.3,0.1-0.2-0.2
	C267.7,214.5,267.9,214.3,268,214.5z M270,201.8c-0.2,0-0.1,0.1,0,0.1c0,0,0,0,0,0c-0.1,0.1,0,0,0,0c0,0,0,0.1-0.1,0.1
	c-0.2,0.1,0.2,0.2-0.1,0.3c-0.1-0.2-0.1,0.4-0.1,0.5c-0.1,0.1,0,0.4,0,0.5c0.1,0.2-0.1,0.4-0.1,0.7c-0.1,0.1-0.2,0.8-0.1,0.6
	c-0.1,0.2-0.2,0.6-0.2,0.9c0,0.3-0.3,0.9-0.1,1.1c0,0.3,0,0.6-0.2,0.6c0,0.1-0.1,0.3-0.1,0.4c0.3-0.2-0.1,0.1,0.1,0.1c0,0,0,0,0,0.1
	c0,0,0,0,0,0c-0.1,0,0,0,0,0c0,0.1-0.1,0.1-0.1,0.4c0,0.2,0.1,0.5-0.2,0.7c-0.1,0.2-0.1,0.5-0.1,0.6c-0.1,0.2,0.1,0.5-0.1,0.3
	c0,0.2-0.2,0.9-0.1,0.9c0,0.1,0.2,0,0.4-0.3c1.6-1.9,3.1-4,4.1-6.4c0.2-0.4,0.6-1.4,0.3-1.6c0.1,0,0.2-0.2,0-0.1
	c-0.4,0,0.2-0.1-0.2-0.2c-0.3-0.1-0.4-0.2-0.6-0.2c-0.3-0.1-0.3,0.1-0.5-0.1c-0.2,0.1-0.6,0.1-0.8,0c-0.3,0.1-0.4,0.1-0.6,0
	c-0.2,0.1-0.3,0.1-0.5,0.2C269.7,202.2,270.4,201.8,270,201.8C270.1,201.8,270.1,201.8,270,201.8z M268.6,210.1
	C268.6,210.3,268.5,210.1,268.6,210.1C268.6,210.1,268.6,210.1,268.6,210.1z M269,213.9C269.1,214,268.8,214,269,213.9
	C269,213.9,269,213.9,269,213.9C269,213.9,269,213.9,269,213.9C269.1,213.9,269,213.9,269,213.9z M269,207.8
	C269,207.7,269,207.7,269,207.8C269,207.7,269,207.7,269,207.8z M269.4,213.8c-0.1,0.3,0.3-0.1,0.3-0.2
	C269.6,213.7,269.5,213.8,269.4,213.8z M270.1,201.9C270.1,201.9,270.1,201.9,270.1,201.9C270.1,201.9,270.1,201.9,270.1,201.9z
	 M270.2,201.7C270.2,201.8,270.5,201.7,270.2,201.7C270.2,201.7,270.2,201.7,270.2,201.7z M270.5,201.4
	C270.1,201.5,270.2,201.7,270.5,201.4C270.4,201.6,270.8,201.6,270.5,201.4C270.5,201.4,270.4,201.6,270.5,201.4z M271.1,201.6
	c-0.1,0.1-0.5-0.1-0.6,0.1c0,0.2,0.4,0,0.6,0c0.2-0.1,0.3,0.1,0.5,0c0.3-0.2-0.2-0.1-0.1-0.2C271.3,201.5,271.2,201.6,271.1,201.6z
	 M271.1,201.3C271.1,201.3,271,201.4,271.1,201.3c-0.1,0-0.1,0-0.1,0c-0.2,0.1-0.4,0-0.2,0.2c0.2-0.3,0.3-0.1,0.4-0.1
	c0.2,0,0.1-0.1,0.2-0.1c0,0,0,0,0,0c0,0,0,0,0,0C271.4,201.4,271.3,201.3,271.1,201.3C271.1,201.3,271.1,201.4,271.1,201.3z
	 M271.7,201.5C271.7,201.8,271.8,201.6,271.7,201.5c0.1,0,0.1-0.2-0.3-0.2C271.4,201.3,271.7,201.6,271.7,201.5z M271.5,212
	C271.5,212,271.5,212,271.5,212C271.5,212,271.5,212.1,271.5,212z M271.6,201.8C271.5,201.9,271.9,201.8,271.6,201.8
	C271.6,201.8,271.6,201.8,271.6,201.8z M272.1,201.7c0.2,0.1,0.6,0.2,0.9,0.3c0.2-0.1,0.1-0.1,0.2,0.1c0.1,0,0.4,0.1,0.2,0
	c-0.1-0.2-0.1-0.2-0.3-0.4c-0.2-0.2-0.2,0-0.5-0.1c0,0.2-0.3,0.1-0.6,0C271.9,201.6,272.1,201.8,272.1,201.7z M272.8,202.1
	C273.3,202.2,272.6,202.2,272.8,202.1C272.8,202,272.8,202,272.8,202.1z M273.4,209.3C273.4,209.2,273.4,209.2,273.4,209.3
	C273.4,209.2,273.4,209.3,273.4,209.3z M273.5,209.1C273.5,209,273.5,209,273.5,209.1C273.5,209,273.6,209,273.5,209.1z
	 M274.7,201.5C274.7,201.5,274.7,201.5,274.7,201.5C274.7,201.4,274.7,201.5,274.7,201.5z"/>
<path d="M278.7,198.3c0.2,0,0.3,0.1,0.4,0.2c0,0.1,0.2,0.3,0.4,0.3c1.4-0.4,2.8-0.6,4.2-0.8c0.5,0,1.2-0.2,1.4,0
	c0.3-0.2,0.3,0.1,0.5,0.1c0.1-0.2,0.3,0.1,0.3,0.1c0,0.1,0.2,0.2-0.1,0.2c0.1,0.1,0.1,0.2-0.1,0.4c0,0-0.2,0.3-0.2,0.3
	c0.1,0.2-0.1,0.2-0.1,0.3c0,0.2,0.3,0.2,0.2,0.4c-0.1,0.1-0.1,0.2-0.2,0.3c-0.4-0.1-0.3,0.3-0.2,0.3c-0.1,0.2-0.3-0.1-0.3,0
	c-0.2,0-0.3,0.2-0.5,0c-0.2,0.1-0.4,0-0.5,0.2c-0.2,0.1-0.3,0,0-0.2c-0.2,0.1-0.2,0-0.4,0.1c-0.2,0.1,0,0-0.2,0.2
	c0-0.2-0.3,0.1-0.4,0c-0.2,0-0.3,0.1-0.5,0.1c0,0.1-0.3-0.1-0.6,0.1c0,0,0,0,0.1,0c0,0,0,0,0,0c0.2-0.1,0.5,0.1,0.2,0.3
	c0-0.2-0.4,0.3-0.5,0.1c0,0-0.6,0.3-0.4,0.1c-0.2-0.1-0.1,0.2-0.3,0.1c-0.2,0.2-0.3-0.1-0.4-0.1c0.2,0.2-0.4,0.4-0.3,0.2
	c-0.2-0.1-0.1-0.2-0.1-0.2c-0.3-0.2,0,0.3-0.2,0.2c-0.2,0,0,0.2-0.2,0.3c-0.2-0.1-0.2,0.2-0.2,0.3c-0.1,0.3-0.1-0.2-0.1,0.1
	c0,0.2,0,0-0.1,0.3c0.1,0.1-0.1,0.1,0.1,0.3c0,0.3-0.3,0.3-0.2,0.4c-0.1,0.1,0,0.2,0,0.3c-0.1,0.3-0.3,0.4-0.2,0.5
	c0,0-0.1,0.1-0.1,0.1c0,0,0,0,0,0c0,0,0,0,0,0c0,0.1-0.1,0.2-0.1,0.1c0,0,0.2,0.2-0.1,0.2c0,0,0,0.3,0,0.5c0,0,0,0,0,0c0,0,0,0,0,0
	c0,0,0,0,0,0.1c1.3-0.3,2.6-0.7,3.9-0.9c0.5,0,1.1-0.1,1.6,0c0,0.1,0.1-0.1,0.2,0.2c0.3,0.2-0.2,0.1,0.1,0.2c-0.3,0.2,0,0.1,0,0.4
	c-0.1-0.1-0.1,0-0.1,0.1c0.2-0.1,0,0.2,0,0.2c-0.1-0.1-0.1-0.4-0.2,0c0.1,0.1,0.4,0.4,0.1,0.3c0,0-0.2,0.1-0.2,0.2c0,0,0,0,0,0
	c0,0,0,0,0.1,0c0.2,0.1,0.2,0.2,0.1,0.2c-0.3,0.2,0,0-0.1,0.2c0.2-0.1,0,0.2-0.1,0.2c-0.3-0.1-0.2,0.3-0.1,0.1
	c0.2,0-0.1,0.3-0.1,0.1c0,0.2-0.7,0.2-0.5,0.3c-0.2-0.1-0.3,0.2-0.3,0.1c-0.2,0.2-0.2-0.1-0.3,0.1c-0.3,0-0.5-0.1-0.7,0
	c-0.1,0.1-0.4,0.1-0.5,0.1c-0.1,0-0.2,0-0.2,0c-0.2-0.1-0.1,0.2-0.2,0.1c0.2-0.1-0.6,0-0.2,0.1c-0.3,0.2-0.3-0.2-0.5,0
	c-0.3,0.2-0.2,0.1-0.2,0.1c-0.1,0-0.2,0-0.3,0.1c0.1,0.1-0.1,0.1,0,0c-0.1,0.1-0.2,0.1-0.3,0.1c-0.1,0.1-0.3,0.1-0.2,0.2
	c-0.2-0.2-0.1,0.2-0.3,0c-0.1,0.3-0.6,0.2-0.5,0.2c-0.2-0.1-0.2,0.6-0.2,1c-0.2,0,0.1,0.1,0,0.5c-0.1,0.2,0,0.4,0,0.6
	c-0.1,0,0.2,0.4-0.1,0.5c0,0.5,0.2-0.1,0.1,0.3c0,0,0,0.1,0,0.1c0,0,0,0,0,0c0.2,0.1,0.1,0.1,0,0.1c0,0.1,0.1,0.2,0.1,0.3
	c0.2,0.4-0.1,0,0,0.3c0.1,0.2,0,0.1,0.1,0.2c1.1-0.3,2-1,2.9-1.7c0.2,0,0.2,0,0.4,0.1c0.1-0.1,0.1,0,0.2,0.1
	c0.4-0.1-0.1,0.2,0.1,0.1c0.2,0.2,0.4-0.2,0.5,0c-0.1,0.2,0.1,0.2,0.2,0c0.2,0,0.1,0.3,0.2,0.1c0,0,0.1,0,0,0c0,0,0,0,0-0.1
	c0.1,0.2,0.6-0.2,0.5,0.1c0.4,0,0.2,0.3,0.3,0.3c0.1-0.1,0,0.2,0.2,0.2c-0.1,0.3-0.2-0.1-0.3,0.1c0,0.3-0.3,0.1-0.1,0
	c-0.1,0-0.3,0.4-0.1,0.2c0,0.1-0.1,0.3-0.4,0.4c-0.2,0.2-0.5,0.3-0.6,0.5c-0.1,0.1-0.5,0.3-0.3,0.2c0.1,0,0.4-0.2,0.5-0.3
	c0,0.3,0.1,0.1,0.3,0.1c0.1-0.1,0.4-0.3,0.4-0.4c0.2-0.1,0.2,0-0.1,0.2c-0.3,0.2-0.6,0.6-0.9,0.6c-0.1,0.3-0.4,0.1-0.4,0.3
	c-0.2-0.1-0.3,0.2-0.5,0.2c-0.1,0-0.2,0.1-0.4,0.2c-0.3,0.2-0.9,0.3-1.4,0.4c-0.4,0.1-0.8-0.2-1.1-0.3c-0.3,0-0.3-0.1-0.7-0.2
	c0.3,0-0.1-0.3-0.2-0.3c-0.3-0.2-0.1,0.2-0.3,0c-0.4-0.3,0,0.1-0.3,0c-0.1-0.1-0.1-0.1-0.3-0.1c0,0,0,0,0,0c0,0,0,0,0,0
	c-0.1,0-0.1,0-0.2,0c-1-0.5-1.3-1.7-1.4-2.8c-0.1-2.3,0.4-4.6,1-6.8c0.1-0.4,0.5-1.1,0.3-1.2c0-0.3-0.2-0.2-0.2-0.5
	c-0.2,0.1-0.2-0.2-0.1-0.4c0.2-0.1-0.3,0-0.4-0.2c0.5,0-0.2-0.1,0.2-0.3c0.2,0,0.1-0.1,0.2-0.2c-0.2-0.2,0-0.2,0-0.4
	c0.3,0,0.3-0.2,0.3-0.2c-0.1-0.2-0.1,0-0.2-0.1c0.2,0,0.1-0.1-0.1-0.1c0.1,0.2-0.3-0.3-0.2-0.3c0-0.2,0.5-0.1,0.2-0.1
	c0.9-0.3,2-0.1,2-0.9c0-0.2,0.3-0.3,0.2-0.3C278.4,198.6,278.4,198.3,278.7,198.3C278.6,198.3,278.7,198.3,278.7,198.3z
	 M276.6,213.2C276.6,213.2,276.6,213.2,276.6,213.2C276.6,213.2,276.6,213.2,276.6,213.2z M277.6,213.7c0,0,0.1,0,0.1,0
	C277.7,213.7,277.7,213.7,277.6,213.7z M278.8,204.1C278.6,204.2,278.8,204.1,278.8,204.1L278.8,204.1z M279,213.8
	c0.3,0.1,0.5,0.2,0.6,0c0-0.1-0.5,0.1-0.2,0C279.6,213.7,279.2,213.8,279,213.8C279.1,213.7,278.9,213.8,279,213.8z M279.1,213.9
	C279,213.9,279.2,213.8,279.1,213.9C279.1,213.9,279.1,213.9,279.1,213.9z M279.3,198.4C279.4,198.7,279,198.5,279.3,198.4
	C279.2,198.4,279.2,198.4,279.3,198.4z M279.7,213.7c-0.2,0.3,0,0.1,0.2,0.1c0.1,0.1,0.4,0,0.2-0.2
	C280.1,213.7,279.7,213.8,279.7,213.7z M280.1,201.3C280.3,201.4,280.3,201.3,280.1,201.3C280.1,201.3,280.1,201.3,280.1,201.3z
	 M281.2,213.2c-0.1,0.1-0.4,0.2-0.5,0.3c-0.3,0.3-0.1,0.1,0,0.2c0.2,0,0.5-0.1,0.6-0.2c0-0.1,0.5-0.5,0.2-0.2
	c0.2,0.2,0.2-0.3,0.2-0.3C281.6,213.2,281.4,213,281.2,213.2z M281,213.7C281,213.7,281,213.7,281,213.7
	C280.8,213.7,280.9,213.7,281,213.7c-0.1,0.1,0,0.1,0.1-0.1C281,213.7,281,213.7,281,213.7z M282.6,210.8
	C282.6,210.8,282.6,210.8,282.6,210.8C282.6,210.8,282.6,210.8,282.6,210.8z M283,200.9C283,201,282.8,200.9,283,200.9
	C282.9,200.9,283,200.9,283,200.9z M283.1,212.1c-0.3,0.3-0.3,0.1,0-0.1C283.3,212.1,283.1,212,283.1,212.1z M283.3,212.2
	C283.3,212.2,283.3,212.2,283.3,212.2C283.4,212.2,283.4,212.2,283.3,212.2z M284.3,205.5C284.3,205.4,284.3,205.4,284.3,205.5
	C284.3,205.4,284.3,205.4,284.3,205.5z M284.3,205.8C284.3,205.8,284.3,205.8,284.3,205.8C284.4,205.7,284.4,205.9,284.3,205.8z
	 M284.6,200.3C284.6,200.4,284.7,200.3,284.6,200.3C284.7,200.3,284.6,200.3,284.6,200.3z M285.2,199c0.2,0.2-0.1,0.4,0.2,0.2
	C285.3,198.9,285.6,199,285.2,199C285.2,199,285.2,199,285.2,199z"/>
<path d="M293.2,197.1c0.1,0,0.3,0.2,0.3,0.1c-0.1-0.1,0.3,0,0,0.2c0.2-0.1,0.2,0.3,0.2,0.2c0.1,0.1,0.3,0.3,0.2,0.3
	c0.2,0.1,0.1-0.1,0.3-0.1c0.2-0.1,0,0.3,0.2,0.3c0.2-0.2,0,0.2,0.2,0.1c0.1,0.1,0.3,0.3,0.3,0.5c0,0.1,0.2-0.1,0.1,0.4
	c0,0.1,0.1,0.2-0.1,0.4c0,0.2,0,0.4,0.1,0.6c-0.1,0.7,0-0.5-0.1,0.1c0,0.2-0.1,0.3-0.1,0.6c0,0,0,0,0,0.1c0,0,0,0,0,0
	c0,0,0,0.1,0,0.2c-0.2,0.1-0.1,0.5-0.2,0.6c-0.1,0.3-0.1,0.2-0.1,0.5c-0.1,0.2,0,0.6-0.1,0.7c0,0,0,0,0,0c0,0,0,0,0,0
	c0,0.1,0,0.1,0,0.1c0,0.2-0.1,0.3-0.1,0.5c-0.1,0.1-0.1,0.5-0.1,0.5c-0.1,0.2,0,0.1-0.1,0.3c0,0.3-0.2,0.8-0.1,1
	c-0.2,0.6-0.2,1.2-0.3,1.8c-0.1,0.4-0.1,0.9-0.2,1.3c0,0.4-0.1,0.6-0.1,1c0,0.3,0,0.7-0.1,1.1c0,0.2,0,0.3-0.1,0.6
	c-0.1,0.3,0,0.9-0.1,1.2c0,0.2,0.1,0.4-0.1,0.6c0.1,0,0.1,0.3,0,0.3c-0.2,0.3,0-0.2-0.2-0.2c0.1-0.2-0.1,0-0.1-0.2
	c-0.1,0.1-0.1,0.3-0.1,0c-0.1,0.4-0.2,0-0.2,0c0-0.2-0.1,0.3-0.2,0.1c-0.2-0.2-0.2,0.2-0.3,0.2c-0.1-0.2-0.2-0.2-0.4-0.2
	c-0.3,0.2-0.4-1-0.6-0.7c-0.1-0.2-0.2,0.2-0.3,0.1c-0.1,0.2-0.2,0.4-0.4,0.6c0-0.1-0.1-0.1-0.2,0.1c-0.3,0.1-0.1,0-0.2-0.1
	c-0.1,0.2-0.3,0.4-0.7,0.4c-0.1-0.1-0.2-0.1-0.3-0.1c0,0.1-0.1,0.1,0,0c-0.1,0-0.2,0-0.3-0.1c-0.3-0.1-0.3,0-0.5-0.1
	c-0.1,0.1-0.2-0.1-0.2-0.1c-0.3-0.1-0.1-0.2-0.5-0.3c-0.3,0.1-0.3-0.1-0.6-0.1c-0.3,0.2-0.1-0.1-0.4-0.1c-0.1,0.1,0.2,0.3-0.3,0
	c-1-0.7-1.2-2.1-1.2-3.3c0.1-3.1,1-6.2,2.2-9.1c0.2-0.6,0.8-1.4,0.7-1.8c0.2-0.2,0.1-0.1,0.1-0.2c0.2-0.2,0.4-0.1,0.4,0
	c0.2-0.2,0-0.3,0.4-0.2c0.1,0,0.3,0.3,0.4,0.3c-0.1,0.3,0,0.3,0.1,0.6c0.1-0.4-0.1,0.3,0.1,0c0,0.3-0.1,0.3,0.1,0.1
	c-0.1-0.3,0.3-0.1,0.2,0c0.2,0.1-0.2,0.2-0.1,0.3c0.1-0.1,0.2,0,0.2,0.1c0.1,0.1,0.1,0.3,0.3,0.2c0,0,0,0,0,0c0,0,0,0,0,0
	c0,0.2,0.1,0.5-0.1,0.7c-0.1,0.2-0.4,0.6-0.1,0.6c-0.1,0.2-0.1,0.2-0.2,0.6c-0.2,0.5-0.2-0.1-0.2,0.3c0.3,0.1-0.1,0.2,0,0.4
	c0.2,0.1-0.1,0.6-0.1,0.4c-0.2,0.2-0.1,0.1,0,0.3c0,0-0.2,0.1-0.2,0.1c-0.1,0.1,0,0.3,0,0.3c-0.1,0.3-0.1,0.2,0,0.4
	c-0.2-0.1-0.2,0-0.2,0.2c0,0,0,0,0,0c0,0,0,0,0,0c-0.1,0.2,0,0.3-0.1,0.4c0,0.1-0.2,0.4-0.2,0.6c0.1,0.1,0.1,0.3,0,0.3
	c-0.1-0.3-0.2,0.3-0.1,0.3c-0.2,0.2,0.1,0.3-0.1,0.3c0.2,0.2,0,0-0.1,0.3c0.1-0.3,0.2,0.4,0,0.5c0,0.1-0.1,0.4-0.1,0.6
	c-0.1,0.2-0.1,0.4-0.1,0.6c0,0.1-0.3,0.3,0,0.2c0,0,0,0.1-0.1,0.1c0,0,0,0,0,0c0,0,0,0.1,0,0.1c0,0.1,0,0.1-0.1,0.2c0,0,0,0,0,0
	c0.1,0,0,0,0,0c0,0-0.1,0.1,0.1,0.2c-0.1,0.1-0.2,0.4-0.1,0.5c-0.1,0.2,0,0.3,0,0.4c0.2,0.1-0.1,0.7,0.1,0.8
	c-0.2,0.2,0.1,0.2,0.1,0.5c0,0.2-0.1,0.5,0.1,0.2c0.5-0.4,0.9-0.8,1.2-1.3c0.4-0.5,1-1,1.1-1.7c0.3-2.3,0.8-4.5,1.3-6.8
	c0.3-1.3,0.6-2.6,1.1-3.8c0-0.4,0.1,0.2,0.1,0c0.1-0.1,0-0.1,0.2-0.3C293.2,197,293.3,197,293.2,197.1z M286.7,212.6
	C286.8,212.7,286.6,212.6,286.7,212.6C286.7,212.6,286.7,212.6,286.7,212.6z M287.8,212.8c0.1,0.1,0.2,0.1,0.3,0.2
	C288.6,213.2,288.2,212.7,287.8,212.8C287.8,212.8,287.8,212.8,287.8,212.8z M287.9,208C287.9,208,287.9,208,287.9,208
	C287.9,208,287.9,208,287.9,208z M288.1,206.5c0.2-0.2-0.1,0,0-0.1C288.1,206.4,288,206.5,288.1,206.5z M289.9,212.6
	c-0.1,0-0.4,0.1-0.5,0.2c-0.2,0-0.3,0.1-0.4,0c-0.1,0.1-0.2,0-0.2,0c0,0,0,0,0,0c0,0,0,0,0,0c0,0,0,0-0.1,0.1c0,0-0.1-0.1-0.1-0.1
	c0.2,0.3,0.5,0.2,0.8,0.2c-0.2,0.2,0.1,0,0.2-0.1c0,0.2,0.5,0,0.7-0.2c0.3-0.2-0.2,0-0.1-0.3C290,212.4,290,212.5,289.9,212.6z
	 M288.7,212.8C288.8,212.8,288.8,212.8,288.7,212.8C288.8,212.8,288.7,212.8,288.7,212.8z M289.2,202.7L289.2,202.7L289.2,202.7z
	 M289.3,212.6C289.1,212.7,289.4,212.6,289.3,212.6C289.3,212.6,289.3,212.6,289.3,212.6z M289.7,199.4c0.2,0.3,0.1-0.1,0.1-0.2
	C289.5,199.4,289.4,199.4,289.7,199.4z M290,199.2C290,199.2,290,199.2,290,199.2S290,199.2,290,199.2z M294.1,203.7L294.1,203.7
	C294,203.7,294.2,203.8,294.1,203.7z"/>
<path d="M305.3,195.6c0.3,0,0.2,0.3,0.6,0.2c0.1,0.3-0.1,0.1,0.1,0.2c-0.3,0-0.1,0.2-0.3,0.4c0.1,0.1-0.3,0.2-0.3,0.5c0,0,0,0,0,0
	c0,0,0,0,0,0c0,0,0,0,0,0.1c0,0.1,0.1,0.2-0.1,0.3c0.1,0.1,0.2,0.2,0,0.4c-0.1-0.1-0.1,0-0.2,0.1c-0.1,0.1,0.1,0.5,0,0.4
	c-0.2-0.1-0.2,0.2-0.4,0.2c0.1-0.2-0.4,0.2-0.3-0.1c-0.2,0.1,0.1,0.5-0.3,0.2c0.2,0,0,0,0.1-0.1c-0.1-0.2-0.2,0-0.2,0.1
	c-0.1,0.1-0.4,0.3-0.2,0c-0.2,0.1-0.5,0.3-0.7,0.2c-0.1-0.1-0.3,0.1-0.5,0.1c-0.1,0-0.4,0.1-0.4,0.1c-0.3-0.1-0.3,0.3-0.3,0.1
	c-0.3,0.3,0,0.1,0.1,0.2c0,0,0,0,0,0c0,0,0,0,0,0c-0.2,0.1,0.5,0,0.1,0.1c-0.2,0.1,0.1,0.1-0.1,0.3c0.1,0.1-0.2,0.5-0.1,0.5
	c0.3,0-0.1,0.4,0.1,0.3c0.3,0-0.4,0.1-0.2,0.3c0.2,0.2-0.1,0.4,0,0.6c0-0.1-0.2-0.2-0.3,0.3c-0.1,0.1,0.2,0.5-0.1,0.4
	c0,0.1,0.2,0.2,0,0.2c0,0.2-0.1,0.1-0.1,0.3c0.2-0.2,0,0.4-0.1,0.2c-0.1,0.2-0.1,0.5-0.2,0.7c-0.1,0.4,0.1,0.2-0.1,0.4
	c0,0.1-0.1,0.3-0.1,0.4c0,0.1-0.1,0.2-0.1,0.3c0,0.1-0.1,0.4-0.1,0.5c0,0.1-0.2,0.4-0.1,0.5c-0.2,0.1,0,0.3-0.1,0.3
	c-0.1,0.1-0.1,0.2-0.1,0.3c-0.1,0.3,0,0.7-0.1,1c-0.2,0.3,0,0.2-0.1,0.6c0,0.1-0.1-0.1,0,0.2c-0.1,0.2,0,0.3-0.1,0.4
	c-0.1,0.1,0,0.5-0.2,0.5c0.2,0.2,0,0.3,0,0.5c-0.1,0.1,0.1,0.3-0.1,0.4c0.1,0,0.1,0.1,0,0.4c0,0,0.1,0.2-0.1,0.3
	c0,0.2,0.1,0.3,0.1,0.5c0,0.1-0.1,0.3-0.1,0.4c0,0.2-0.3,0-0.2-0.1c0.3-0.2,0-0.2-0.1,0.1c0.1,0.5-0.5,0.1-0.1,0.5
	c-0.1,0.1-0.2-0.2-0.4-0.2c-0.1,0-0.1,0.3-0.2,0.2c0-0.1-0.2-0.3-0.3-0.1c0.2,0-0.1,0.2-0.1,0c-0.1,0-0.2,0.1-0.3,0
	c-0.2-0.1,0,0.5-0.2,0c0.1-0.1,0-0.2,0-0.2c0,0,0,0,0,0c0,0,0,0,0,0c-0.1,0-0.1,0-0.2,0c0.1,0.2-0.3-0.2-0.2,0.1
	c0,0.2-0.2,0-0.4,0.1c0.2,0.1,0,0-0.1,0.2c-0.1,0.1-0.2,0.2-0.2-0.1c-0.1-0.1-0.1-0.6,0-1c0.4-3.2,1-6.3,1.9-9.4
	c0.2-0.6,0.4-1.2,0.5-1.7c0.1-0.3,0-0.3-0.1-0.2c-0.2,0-0.5,0.1-0.7,0.1c-0.2,0.1-0.3,0.1-0.5,0.2c-0.2,0.1-0.4-0.1-0.3,0.1
	c0,0-0.1,0.1-0.1,0.1c0,0,0-0.1,0-0.2c-0.1,0,0,0.1,0,0.2c-0.2,0.1-0.3-0.1-0.5,0c-0.2,0.2-0.5,0.1-0.6,0.2c-0.1,0-0.3,0.1-0.4,0.1
	c-0.2,0.1-0.2,0.2-0.4,0.1c-0.2,0.2-0.4,0-0.1-0.1c0.2,0,0.6-0.1,0.2-0.3c-0.3,0.2,0-0.3-0.2-0.2c-0.6,0.1-0.2,0,0.2-0.1
	c0.4,0,0.2-0.1,0.3-0.2c-0.5,0,0.3-0.2-0.1-0.1c0.5-0.2-0.4,0,0.1-0.1c0-0.2-0.2-0.1,0-0.4c0.1-0.1-0.2-0.3,0.1-0.4
	c0.2-0.1,0.1-0.4,0.2-0.4c-0.2,0-0.1-0.5-0.3-0.4c-0.1-0.2,0-0.3,0.2-0.5c2.5-0.6,5-1.2,7.5-1.5
	C304.1,195.7,304.7,195.6,305.3,195.6z M297.6,200.1C297.6,200.1,297.6,200.1,297.6,200.1C297.6,200.1,297.6,200.1,297.6,200.1z
	 M297.8,211.6C297.8,211.6,297.8,211.6,297.8,211.6C297.8,211.6,297.8,211.6,297.8,211.6z M299.7,212.3c-0.1-0.1,0.1,0.3-0.2,0.2
	c0-0.1,0-0.3,0-0.4C299.7,212.1,299.8,212.1,299.7,212.3z M299.6,210.8c0.2-0.2-0.1-0.2,0-0.5C299.6,210.4,299.5,210.7,299.6,210.8z
	 M299.7,209.6C299.7,210,299.9,209.6,299.7,209.6C299.7,209.6,299.7,209.6,299.7,209.6z M299.8,208.7c-0.1,0.6,0.1,0.3,0-0.1
	C299.8,208.6,299.9,208.7,299.8,208.7z M301.3,203.1c0.1,0.3-0.2,0,0-0.1C301.3,203,301.3,203.1,301.3,203.1z M303.2,198.8
	c-0.3,0,0,0,0-0.2C303.2,198.7,303.2,198.8,303.2,198.8z M303.6,198.5c0.1,0,0.5-0.1,0.2-0.1c0,0-0.1,0-0.1,0
	C303.7,198.4,303.7,198.5,303.6,198.5z M305.5,197.4C305.5,197.4,305.5,197.4,305.5,197.4C305.6,197.4,305.4,197.6,305.5,197.4z
	 M305.5,197.3C305.5,197.3,305.5,197.3,305.5,197.3C305.7,197.3,305.5,197.4,305.5,197.3z M306.1,196.2c0-0.1-0.3,0.2-0.1-0.1
	c0,0,0,0,0,0C306.2,196,306.3,196.3,306.1,196.2z"/>
<path d="M311.9,194.7c0.5,0.1,0.5,0.1,0.7,0.3c0.2,0.1,0.2,0.4,0.4,0.4c0,0.2,0.1,0.3,0.2,0.4c-0.1,0.4,0.3,0.3,0.1,0.5
	c0,0.2,0.3,0.4,0.2,0.6c0.1,0.1,0,0.3,0.1,0.3c-0.1,0.3,0.2,0.5,0.1,0.7c0,0.3-0.2,0.5-0.2,0.9c0,0.2-0.3,0.6-0.3,0.9c0,0,0,0,0,0
	c0,0,0,0,0,0c0,0,0,0.1,0,0.1c-0.2,0-0.2,0.3-0.2,0.5c-0.1,0-0.2,0-0.3,0.3c0.2-0.1-0.1,0.4-0.1,0.1c-0.1,0-0.3,0.3-0.1,0.3
	c-0.2,0.5-0.1-0.1-0.3,0.4c-0.2,0.4,0,0.3-0.3,0.6c-0.1,0.2-0.3,0.5-0.3,0.6c-0.1,0.1,0.1,0.1,0,0.2c-0.2,0.1-0.1,0.4-0.7-0.1
	c-0.6-0.5-1.4-1.2-1-2c0.4-0.8,0.9-1.6,1.3-2.4c0.2-0.1,0.1-0.7,0.2-0.4c0.2-0.1,0.1-0.4-0.2-0.2c0.1-0.1,0-0.2-0.1,0
	c-0.1,0,0.3,0.5-0.1,0.3c-0.3-0.1,0,0.2,0,0.2c-0.3,0.2-0.9,0.3-1,0.4c0-0.2-0.2,0.1-0.3,0.2c-0.4,0.3-0.9,0.6-1.2,0.9
	c-0.2,0.3-0.6,0.2-0.6,0.5c0.1,0.1-0.1,0.1-0.2,0.3c-0.1-0.2-0.5,0.5-0.6,0.6c-0.2,0.1-0.3,0.6-0.3,0.5c-0.2,0.3-0.1,0.1-0.1,0.3
	c-0.1,0.1-0.3,0.1-0.2,0.3c-0.1,0.2,0,0.2-0.1,0.3c-0.1,0.3-0.2,0.2-0.3,0.5c0.5,0.3,1,0.5,1.5,0.7c1.1,0.4,2.3,0.7,3.1,1.4
	c0.2,0.2,0.2,0.2,0.3,0.3c0,0.1,0.1,0.1,0.1,0.2c0,0,0,0,0,0c0,0,0,0.1,0,0.1c0,0.1,0.1,0.1,0.2,0.2c0.6,0.6,0.8,1.1,0.8,2
	c0,0.3-0.1,0.4-0.1,0.6c0,0.2-0.5,0.5-0.3,0.5c-0.2,0.3-0.6,0.6-0.9,0.9c-0.2,0.1-0.4,0.3-0.6,0.3c-0.1,0.1-0.3,0.2-0.5,0.3
	c-0.1,0.1-0.3,0.1-0.3,0.2c-0.2,0-0.3,0.1-0.3,0.1c-0.2,0.1-0.3,0.1-0.4,0.1c-0.2,0.1-0.5,0.1-0.6,0.2c-0.2,0.2-0.2,0-0.4,0.2
	c-0.1,0-0.2,0-0.3,0.1c-0.3,0-0.2,0-0.3,0.1c-0.1,0-0.1,0-0.2,0c0,0,0,0,0,0c0,0,0,0,0,0c-0.1,0-0.2,0-0.3,0.1
	c-0.1-0.1,0,0.2-0.1,0.1c-0.2,0.1-0.7,0.3-0.5-0.1c-0.2-0.3,0.2,0.1,0.1,0c0.1-0.1,0.2,0,0.2,0c0,0,0,0-0.1-0.1
	c0.3-0.2,0.5-0.1,0.8-0.2c0.2-0.3,0.1-0.1,0.5-0.1c0-0.1,0.1-0.3,0.3-0.1c0.1-0.1,0.1,0,0.3-0.1c0.2,0,0.2-0.2,0.2-0.2
	c0.2-0.1,0.3,0.1,0.4,0c0.2-0.1-0.1-0.2,0-0.2c0.3-0.1,0.4,0.1,0.5-0.1c0-0.1-0.4,0.1-0.2-0.1c0.5-0.2,0.1-0.1-0.2,0
	c-0.3,0.1-0.5,0.2-0.8,0.3c-0.1,0.2-0.3,0-0.4,0.2c-0.2,0.1-0.6,0.1-0.7,0.2c-0.2,0.1-0.1-0.1-0.4,0c-0.2,0-0.2,0.3-0.3,0.1
	c-0.3,0.1,0,0.2-0.3,0c-0.2,0.1,0.1-0.1-0.1-0.1c-0.2,0-0.8,0.1-0.7,0c0,0,0,0,0-0.1c0,0.1-0.2,0,0,0c-0.1,0-0.4,0-0.5-0.2
	c-0.1-0.2,0.1-0.3-0.3-0.4c-0.1,0.1-0.2,0-0.3,0c-0.2,0.1-0.2-0.3-0.4-0.2c-0.3-0.2,0.7-0.3,0.3-0.3c-0.2-0.1,0.1,0,0.1-0.2
	c1.4-0.5,2.9-0.9,4.3-1.7c0.3-0.2,1.4-0.8,0.7-0.9c-0.2-0.1-0.6-0.2-0.8-0.2c-0.3-0.1-0.7-0.2-1-0.3c-0.2-0.1-0.4-0.1-0.7-0.3
	c-0.4-0.2-0.8-0.4-1.1-0.8c-0.2-0.3-0.2-0.5-0.4-0.8c-0.1-0.1-0.1-0.1-0.1-0.3c-0.1-0.2-0.1-0.6-0.2-0.7c-0.1,0.3-0.1,0,0-0.1
	c-0.2,0.1-0.3,0-0.2-0.2c0,0.2,0-0.3-0.1-0.1c-0.1,0-0.2-0.6-0.2-0.9c0-1,0.5-2,1.1-2.9c1.4-1.8,3.2-3.3,5.3-4.1
	c0.3-0.1,0.7-0.3,1.1-0.3C311.7,194.6,311.8,194.6,311.9,194.7z M304.6,203.9c-0.1,0.1,0.4,0.3,0.2,0.3
	C304.6,204.2,304.6,204.2,304.6,203.9C304.6,203.9,304.6,204.1,304.6,203.9z M304.7,203.9C304.9,204.3,304.6,204.1,304.7,203.9
	C304.6,203.8,304.7,203.8,304.7,203.9z M304.9,204c0.1,0.6,0.2,0.2,0-0.1C304.9,203.9,304.9,204,304.9,204z M305.4,204.6
	C305.5,204.9,305.8,204.9,305.4,204.6C305.5,204.6,305.4,204.6,305.4,204.6z M305.7,205C305.7,205,305.7,205,305.7,205
	c-0.2,0.1,0.2,0,0,0.1C305.9,205.3,305.9,205,305.7,205C305.8,205,305.8,205,305.7,205C305.7,205,305.7,205,305.7,205z M305.8,205
	C305.8,205.1,305.8,205.1,305.8,205C305.8,205,305.8,205,305.8,205z M305.8,210.8c0,0.2-0.2,0.2-0.1,0
	C305.8,210.8,305.8,210.8,305.8,210.8z M306,205.3C305.8,205.4,306.1,205.5,306,205.3C306,205.3,306,205.3,306,205.3z M306.2,205.4
	c0.2,0.1,0.2,0.1,0.1,0.1c0.2,0.1,0.3,0.3,0.3,0.1C306.5,205.5,306.3,205.4,306.2,205.4C306.2,205.4,306.2,205.4,306.2,205.4z
	 M306.9,205.8C306.5,205.7,306.8,205.9,306.9,205.8c0.1,0.1,0.3,0.3,0.4,0.2c0,0,0,0,0,0c0,0,0,0,0.1,0c0,0,0,0,0,0
	c0.2,0.1,0.2,0.2,0.4,0.1c0.1-0.2-0.2-0.2-0.3-0.3c0,0.1-0.3,0.1-0.4-0.1C307,205.8,306.8,205.7,306.9,205.8z M306.8,211.2
	C306.8,211.2,306.8,211.2,306.8,211.2C306.8,211.2,306.8,211.2,306.8,211.2z M306.8,211.1C306.8,211.1,306.8,211.1,306.8,211.1
	C306.8,211.1,306.8,211.2,306.8,211.1C306.9,211.2,307,211.2,306.8,211.1C306.9,211.1,306.8,211.1,306.8,211.1z M306.9,205.8
	C307,205.9,306.7,205.8,306.9,205.8C306.8,205.8,306.9,205.8,306.9,205.8z M306.8,211.2C306.8,211.2,306.8,211.1,306.8,211.2
	C306.8,211.1,306.8,211.2,306.8,211.2z M307.4,206C307.4,206,307.4,206,307.4,206C307.4,206,307.4,206,307.4,206z M307.6,206
	C307.6,206,307.6,206,307.6,206C307.7,206,307.5,206.2,307.6,206z M308.2,206.1c0,0.2,0.3,0.2,0.4,0.3c0.1-0.1,0.2,0.1,0.4,0.1
	c0.1,0.1,0.1-0.1,0,0c-0.3-0.1-0.2-0.2,0.2,0c0.2,0.1,0.4,0.1,0.3,0c0-0.1-0.3-0.1-0.3-0.1c-0.2-0.1-0.4-0.1-0.5-0.2
	c-0.2-0.2-0.4,0.1-0.3-0.1C308.2,206.1,308.2,206.1,308.2,206.1z M308.5,206.6c0.2,0,0,0-0.1-0.1
	C308.3,206.5,308.4,206.6,308.5,206.6z M313,200.3C313,200.3,313,200.3,313,200.3C313,200.2,313,200.3,313,200.3z M313.1,199.7
	L313.1,199.7C313.1,199.7,313.1,199.7,313.1,199.7z"/>
<path d="M319.9,193.7c0.2,0.1,0.3,0.2,0.5,0.4c0.1,0.2,0.5,0.4,0.4,0.6c0.2,0.2,0.5,0.4,0.5,0.7c0.2,0,0,0.2,0.2,0.4
	c0.2,0.3,0.1,0.9,0.2,1.2c0,0.1,0.2,0.4,0.1,0.5c0,0-0.4,0.6-0.1,0.4c0.1,0.5-0.1-0.1-0.2,0.2c-0.1,0.3,0.2-0.1,0.1,0.1
	c0,0.2-0.1,0.7-0.2,0.8c-0.2,0.1-0.2,0-0.2,0.2c-0.1,0.1-0.1,0.3-0.2,0.5c0,0.1-0.1,0.2-0.2,0.3c0-0.3-0.1-0.1-0.2,0.1
	c0-0.2-0.1-0.1,0-0.2c0.1-0.2-0.3,0.2-0.1-0.1c-0.1,0-0.2,0-0.3-0.1c-0.1,0.1-0.3,0.1-0.2-0.1c-0.2,0.1-0.3,0.2-0.3-0.1
	c0,0-0.2-0.2-0.2-0.3c-0.1-0.2,0.2-0.1,0-0.3c0.1-0.2,0.2-0.2-0.1-0.3c-0.4-0.3,0.2,0.1,0.1-0.1c-0.1-0.1-0.3-0.1-0.3-0.1
	c0-0.1-0.5-0.1-0.2-0.3c-0.3,0.2-0.1,0.3-0.4,0.3c-0.2,0.3-0.3,0.5-0.4,0.7c-0.2,0.2-0.1,0.2-0.2,0.4c-0.1,0.1-0.2,0.4-0.3,0.5
	c-0.2,0.3-0.2,0.6-0.4,0.8c0,0.2-0.2,0.5-0.3,0.6c-0.1,0.2-0.1,0.3-0.2,0.4c0,0,0,0,0,0c0,0,0,0,0,0.1c-0.1,0.1-0.1,0.1-0.1,0.2
	c0,0,0,0.1,0,0.1c0,0.1,0,0.3-0.1,0.2c0,0.1-0.1,0.3-0.1,0.5c-0.2,0-0.1,0.2-0.2,0.3c0,0.2,0.1,0.7-0.2,1c0,0.1,0,0.2-0.1,0.2
	c0.2,0.2-0.1,0-0.1,0.2c0.1,0.1,0,0.2-0.1,0.3c0.1,0.2,0,0.3,0,0.4c0,0.1,0,0.1,0,0.2c0,0,0,0,0,0c0,0,0,0,0,0c0,0.1,0,0.2-0.1,0.2
	c0,0.2,0.1,0.3,0.1,0.5c0,0,0,0,0,0c0,0,0,0,0,0c-0.1,0.1,0,0.1,0,0.1c0,0.1,0.1,0.1,0,0.3c0,0.1,0.1,0.4,0.2,0.5
	c-0.1,0.3,0.1,0.6,0.5,0.3c1.2-0.8,2.2-1.9,3.1-3c0.1-0.1,0.4-0.4,0.2,0c0.2-0.3,0.3-0.1,0.5-0.4c0.2-0.1,0.2,0.1,0.1,0.1
	c0.1,0.2,0.1,0.2,0.4,0.4c0.2-0.2,0.2-0.1,0.3,0.1c-0.2,0.4,0.2-0.2,0.3-0.1c-0.1,0.4,0,0.2,0.1,0.5c0,0,0,0,0.1-0.1
	c0,0-0.1,0,0-0.1c0,0,0,0,0,0c0,0,0-0.1,0-0.1c0,0,0,0,0.1,0c0,0.2,0,0.2,0.1,0.3c0,0,0.3-0.4,0.2-0.1c0.3-0.1,0.1,0.4-0.1,0.5
	c-0.1-0.1,0-0.3-0.2-0.2c0.1,0-0.2,0.3,0.1,0.2c0.4,0.1-0.3,0.1,0,0.2c-0.1,0-0.2,0.1-0.3,0.2c0,0,0,0,0,0c0,0.1-0.1,0.1-0.1,0.1
	c0.3,0-0.2,0-0.2,0.2c-0.2,0.1,0,0.4,0,0.5c-0.1-0.1-0.2,0.1-0.2,0.2c-0.1-0.1,0,0.1-0.2,0.1c-0.2-0.1,0.1-0.1,0.2-0.2
	c0-0.1-0.1-0.3-0.2-0.1c-0.1,0.1-0.4,0.4-0.3,0.6c-0.2-0.1-0.2,0.1-0.2,0.1c0,0.1-0.1,0-0.2,0.1c0,0.1,0,0.3-0.1,0.3
	c-0.1-0.1-0.2,0.1,0,0.2c-0.2,0.2-0.3-0.1-0.2,0.1c0.2,0,0.1,0.1,0,0.2c-0.2,0.1-0.1-0.1-0.3-0.1c0,0.2,0.1,0.1-0.2,0.1
	c0,0.1,0,0.1,0,0.1c0,0,0,0,0,0c0.1,0,0,0.1-0.1,0.1c-0.1,0.1-0.3,0.2-0.2,0.2c0,0.2-0.5,0.2-0.5,0.3c-0.2,0.2-0.4,0.1-0.6,0.2
	c-0.1-0.3,0,0.1-0.2,0c0-0.1-0.4-0.2-0.5-0.1c-0.3,0-0.6-0.1-0.8-0.1c0.4,0.2-0.2-0.1-0.1,0.2c0.1,0.2,0.3,0,0.4,0.2
	c0.1,0.1,0.6,0.2,0.2,0.3c-0.2,0.2-0.2-0.1-0.6-0.2c-0.2-0.1-0.3-0.1-0.5-0.2c0.3-0.1,0-0.2,0-0.1c-0.4-0.3,0.2,0.1-0.1-0.2
	c-0.3-0.3-0.1,0.2-0.3-0.1c0-0.1-0.4-0.3-0.6-0.3c-0.3,0-0.7-0.5-0.7-0.2c-0.4-0.3-0.7-0.7-0.9-1.2c-0.1-0.2-0.2-0.5-0.2-0.7
	c0-0.2,0-0.3-0.1-0.4c0-0.9,0-1.8,0.2-2.8c0.6-2.9,2-5.8,4-8.2c0.3-0.3,0.6-0.8,1-1c0.2-0.2,0.3-0.2,0.6-0.3
	c0.1-0.2,0.9-0.1,0.7-0.2c0,0,0,0,0,0C319.6,193.5,319.7,193.7,319.9,193.7z M315.6,206.2C315.6,206.2,315.6,206.1,315.6,206.2
	C315.6,206.1,315.6,206.2,315.6,206.2z M316.2,202.9C316.3,203,316,202.9,316.2,202.9C316.2,202.9,316.2,202.9,316.2,202.9z
	 M316.4,202.2C316.4,202.1,316.4,202.1,316.4,202.2C316.4,202.1,316.4,202.1,316.4,202.2z M317.7,209.5c0.1,0.2,0,0.1-0.2,0.2
	c-0.3,0-0.3-0.1-0.1-0.3C317.6,209.7,317.6,209.6,317.7,209.5z M317.7,209.8c-0.5,0,0.1-0.1,0.2-0.1
	C318.1,209.8,317.7,209.8,317.7,209.8z M317.5,199.2C317.5,199.3,317.6,199.2,317.5,199.2C317.6,199.2,317.6,199.2,317.5,199.2z
	 M320.8,207.5c0,0.2-0.3,0.2-0.3,0.4c-0.2,0.3-0.3,0.2-0.3,0.4c-0.1,0.1-0.3,0.4-0.5,0.5c0,0,0,0,0,0c0,0.1-0.1,0.2-0.1,0.1
	c0,0.1-0.1,0.1-0.1,0.1c-0.2,0.1-0.1,0.2-0.3,0.2c-0.1,0.4-0.1-0.1-0.2,0.2c-0.1,0.1-0.2,0.1-0.3,0.2c0,0,0,0,0,0c0,0,0,0,0,0
	c-0.1,0-0.1,0.1-0.2,0.1c-0.2-0.1-0.1-0.3,0.1-0.3c0.2-0.2,0.4-0.2,0.6-0.4c0.1-0.1,0.4-0.3,0.4-0.4c0.2-0.2,0.5-0.4,0.7-0.6
	c0.1-0.1,0.3-0.4,0.5-0.6C320.8,207.4,320.8,207.4,320.8,207.5z M318.5,208.9C318.5,208.9,318.6,208.9,318.5,208.9
	C318.5,208.9,318.5,208.9,318.5,208.9C318.5,208.9,318.4,208.9,318.5,208.9C318.4,208.9,318.5,208.9,318.5,208.9z M318.5,208.9
	C318.5,208.9,318.5,208.9,318.5,208.9C318.5,208.9,318.5,208.9,318.5,208.9z M318.7,209.1c-0.4,0.1,0-0.2,0-0.2
	C318.8,209,318.8,209.1,318.7,209.1z M318.6,209.5C318.6,209.5,318.6,209.5,318.6,209.5C318.6,209.5,318.6,209.5,318.6,209.5z
	 M318.9,198.6C319,198.8,318.8,198.7,318.9,198.6C318.9,198.6,318.9,198.6,318.9,198.6z M320,204.2c0,0.3,0,0.3,0,0.2c0,0,0.2,0,0,0
	c0,0,0,0,0,0C320.1,204.3,320.1,204.1,320,204.2C320,204.1,320,204.2,320,204.2z M320.1,204.3C320.1,204.3,320.1,204.3,320.1,204.3
	C320.1,204.3,320.1,204.3,320.1,204.3z M320.9,199.6C320.9,199.5,320.9,199.5,320.9,199.6C320.9,199.6,320.9,199.7,320.9,199.6z
	 M321.1,207C320.9,207.2,320.9,207.1,321.1,207C321.1,207,321.1,207,321.1,207z M321.3,206.8c-0.2-0.1,0.3-0.3,0.2-0.4
	C321.6,206.6,321.3,206.6,321.3,206.8z M321.2,206C321.2,206,321.2,206,321.2,206C321.3,206,321.2,206,321.2,206z M321.9,205.4
	C322,205.6,321.6,205.4,321.9,205.4C321.9,205.3,321.9,205.3,321.9,205.4C322,205.3,321.9,205.4,321.9,205.4z"/>
<path d="M325.9,192.8c0.1-0.1,0.3,0.1,0.2,0.2c0.1,0.2,0.2,0.4,0.6,0.3c0,0,0.1,0.3,0.1,0.2c0.3,0,0,0.2,0.2,0.4
	c0.1,0.2,0.2,0,0.2,0.1c-0.1,0.1,0.1,0.4,0.1,0.7c0,0.4-0.3,0.1-0.2,0.4c0.2,0.1,0.1,0.2,0.1,0.3c-0.1,0.2-0.4,0.4-0.2,0.4
	c-0.1,0.2-0.1,0.3-0.1,0c-0.1,0.1-0.1,0.2-0.1,0.3c0,0,0,0,0,0c-0.1,0,0,0,0,0c0,0.2-0.1,0.4-0.2,0.7c-0.1,0.4,0,0.3-0.2,0.8
	c0,0.1-0.1,0.6-0.1,0.7c0,0.1-0.1,0.2-0.1,0.4c0.3,0.2-0.2,0-0.1,0.3c0.1,0.3,0,0.1-0.1,0.5c1.1-0.3,2.2-0.5,3.3-0.7
	c0.4-1.8,0.9-3.5,1.4-5.3c0.1-0.4,0.2-0.8,0.3-1c0.2-0.3,0.6-0.5,0.6-0.2c0.3,0.3-0.2-0.4,0.2-0.1c0.1-0.2,0,0.3,0.2,0.3
	c0,0.2,0.3,0.2,0.2,0.4c0.2-0.2,0.1,0.1,0.3,0c-0.2,0.3,0.2,0,0.2,0.3c0.3-0.2,0,0.1,0.2,0.1c0.1,0.4,0.3-0.1,0.3,0.1
	c0,0.3,0.2,0.3,0,0.7c0,0,0.2,0.2,0,0.2c-0.2,0.4,0.4-0.2,0.1,0.3c-0.2-0.3,0,0.1-0.1,0.3c0.2,0.2-0.2,0.2,0,0.3
	c-0.1,0.1-0.2,0.3-0.3,0.6c0.1,0.1,0.2,0.2,0,0.3c-0.2,0.4,0,0.8-0.2,1.1c-0.2,0.7-0.3,1.5-0.5,2.2c0,0.4-0.2,0.8-0.2,1.2
	c-0.1,0.1,0,0.3-0.1,0.4c0,0.2,0,0.4-0.1,0.5c-0.1,0.6-0.2,1.2-0.2,1.8c0,0.1-0.1,0.6-0.1,0.7c0,0.1,0,0.1,0,0.2
	c0,0.2-0.1,0.3,0,0.3c-0.1,0.1,0,0.4-0.1,0.7c-0.1,0.3,0,0.7-0.1,1c0,0.3,0,0.4-0.1,0.7c0,0,0,0,0,0c0,0,0,0,0,0c0,0,0,0,0,0.1
	c0,0.2,0,0.3-0.1,0.5c0,0.4-0.2,0.3-0.2,0c0-0.5-0.2,0.3-0.2-0.1c0-0.3-0.2-0.1-0.3,0c0.1-0.2-0.1,0-0.1-0.1c0,0.1,0,0.2-0.1,0.2
	c0.1-0.3-0.3,0-0.5-0.1c-0.2,0.2-0.1-0.1-0.4,0.1c0,0-0.1-0.4-0.1-0.2c-0.2,0.2-0.1-0.2-0.3-0.2c-0.1-0.1,0,0.4-0.3,0.2
	c0,0.3-0.1,0.3-0.3,0.2c0-0.1-0.1-0.2-0.2-0.2c0,0-0.1,0,0,0c-0.1,0-0.1-0.1-0.1-0.1c0.1-1.7,0.3-3.4,0.5-5.1
	c-0.2,0-0.6,0.1-0.8,0.2c-0.1,0-0.5,0.2-0.8,0.2c-0.3,0.1-0.5,0-0.6,0.1c-0.2,0-0.6,0.2-0.7,0.2c-0.2-0.1-0.2,0.2-0.4,0.1
	c-0.1,0.2-0.1,0.5-0.1,0.7c-0.1,0.3-0.1,0.5-0.1,0.7c0,0.4-0.1,1.1-0.2,1.4c-0.1,0,0.2,0.2,0,0.2c0,0.1,0.1,0.2,0,0.3c0,0,0,0,0,0
	c0,0,0,0,0,0.1c-0.1,0.2,0.1,0.3,0,0.3c0,0,0.1,0.5-0.1,0.3c0,0.4,0,0.4,0,0.8c-0.1,0.1,0,0.7-0.2,0.5c-0.2-0.2-0.2,0.1-0.3-0.3
	c-0.1,0.1-0.2,0-0.3,0.1c-0.3-0.2,0,0.5-0.2,0.1c0.1-0.2-0.1-0.1-0.2-0.1c-0.1-0.2-0.5,0.1-0.3-0.1c0,0-0.1-0.1-0.1-0.1
	c0,0-0.2,0.1-0.1,0c0,0,0,0,0,0c-0.1-0.1-0.2-0.1-0.2-0.2c0,0,0,0,0,0c0,0,0,0,0,0c0,0.1,0,0.4-0.1,0.2c-0.1,0.1,0-0.1-0.2-0.1
	c-0.1-0.1-0.2,0.1-0.2,0.2c-0.2-0.1-0.2-0.2-0.4-0.2c0-0.3-0.1-0.1-0.1-0.4c0.1,0-0.1-0.3,0-0.7c0.3-4.2,1.1-8.5,2.5-12.6
	c0.2-0.4,0.3-1,0.4-1c0.2-0.5,0.2-0.2,0.4-0.2c0.2-0.2,0.2,0,0.4-0.2C326,192.7,325.8,192.8,325.9,192.8z M331.4,206.9L331.4,206.9
	C331.5,206.9,331.4,206.9,331.4,206.9z"/>
<path d="M337.3,191.3c0.2,0,0.2,0.1,0.3,0.1c0.1,0.1,0.4-0.1,0.4,0.3c0.1,0.1,0.3,0.4,0.3,0.2c0-0.2,0.2,0.2,0.2,0.2
	c-0.1,0.2,0.1,0.4,0.1,0.6c0.1,0.2-0.2,0-0.2,0.2c0,0.3-0.1,0.2,0.1,0.3c-0.1,0.1,0,0.3-0.2,0.2c-0.1,0.3,0.1,0.3,0,0.5
	c0.1,0.3-0.1,0.4-0.2,0.5c0.2,0,0.1,0.1,0.1,0.3c-0.1,0.5-0.2,0.1-0.2,0.4c0.1-0.1,0.1,0.2-0.1,0.4c-0.1,0.1,0,0.4-0.1,0.5
	c0,0.2-0.2,0-0.2,0.5c-0.1,0.1-0.1,0.4-0.1,0.5c-0.2,0.3,0.2,0,0,0.3c0,0.1,0,0.3-0.1,0.6c0,0.1,0,0.1,0,0.1c0,0,0,0,0,0
	c0,0,0,0,0,0c-0.1,0.2-0.1,0.4-0.1,0.6c0,0.4-0.2,0.7-0.2,1.1c0.1,0.1-0.1,0.5-0.1,0.7c-0.1,0.5-0.2,1-0.2,1.5
	c-0.1,0.4-0.2,0.8-0.2,1.1c0,0.2-0.1,0.5-0.1,0.7c1-0.2,2.1-0.3,3.1-0.3c0.2,0.1,0.2,0.2,0.5,0.2c0.1,0.1,0.3,0.3,0.1,0.3
	c0.1,0.1,0.1,0.6-0.1,0.1c-0.1,0-0.1,0-0.1,0.1c0,0,0,0,0,0c0,0.1,0.1,0.2,0.1,0.1c-0.1,0.2-0.3-0.1-0.2,0.2
	c-0.2,0.2-0.1,0.2-0.2,0.3c-0.1,0.3,0.2,0,0.3,0.2c-0.1,0.1-0.7,0.1-0.3,0.3c-0.2,0.2,0.1,0.2-0.2,0.4c0.1,0,0.2,0.1,0,0.2
	c-0.2,0.1,0,0.2-0.1,0.3c-0.1,0.4-0.3-0.2-0.3,0.2c0.1,0.3-0.4,0-0.4,0c0,0.2,0.1,0.3,0,0.2c-0.2,0.1-0.2,0-0.4,0.1
	c-0.1-0.1-0.3,0-0.3,0c0-0.1-0.3,0.1-0.4,0c-0.1,0-0.4,0.2-0.3,0c0,0-0.3,0.1-0.5,0.2c0-0.1-0.2,0.1-0.2-0.1
	c-0.1,0.2-0.4,0.1-0.6,0.3c-0.1-0.1-0.2-0.1-0.3,0c0,0,0,0,0,0c0,0-0.1,0.1-0.1,0.1c-0.1,0-0.1,0-0.2,0c0,0,0,0,0,0c0,0-0.1,0-0.1,0
	c0,0-0.1,0,0,0c-0.1,0-0.1,0-0.2,0c0,0,0,0,0,0c0,0,0,0,0,0c0,0-0.1,0-0.1,0c0,0.1-0.3,0.1-0.6,0.1c0.2,0-0.1,0.2-0.2,0.1
	c0,0-0.2,0-0.3,0.1c0.1,0,0.1,0,0.2,0c0,0,0,0,0,0c0,0.1-0.1,0.1-0.2,0.1c0.1,0.1-0.2,0-0.1,0.1c-0.2,0.1-0.3-0.1-0.4,0
	c-0.1,0.1-0.1,0.1-0.2,0.1c0,0,0,0,0,0c0,0,0,0,0,0c-0.1,0-0.2,0-0.2,0.1c-0.3,0.1,0-0.1,0-0.2c0,0,0-0.1,0-0.1c0,0,0,0,0,0.1
	c0,0,0,0-0.1,0c0,0.2,0,0-0.1,0c0.5-0.1-0.3-0.1,0-0.2c0-0.1,0.2-0.2,0-0.4c0.1,0.3-0.2,0-0.1,0c0.1-0.1-0.3-0.1,0.1-0.2
	c-0.1-0.1-0.2-0.2-0.2-0.5c0,0.1-0.3,0.3-0.2,0c0.1,0,0.1-0.6,0.1-0.3c0.2,0,0-0.2,0.1-0.2c0.2-0.2,0-0.4,0-0.4
	c0.2-0.1,0.3,0.3,0.2-0.1c-0.1,0-0.2-0.2-0.3-0.2c-0.2-0.1-0.2-0.2,0.1-0.4c0.3-0.5,0.9-0.1,0.9-0.8c0.5-3.6,1.3-7.2,2.2-10.8
	c0.1-0.4,0.3-1,0.3-1.4c-0.2-0.1-0.1-0.3-0.1-0.3c0.2-0.1,0.4-0.2,0.7-0.2C336.9,191.1,337.2,191.1,337.3,191.3z M332.7,207.6
	C332.8,207.9,332.4,207.7,332.7,207.6C332.7,207.6,332.8,207.6,332.7,207.6z M332.9,207.6C332.9,207.6,332.9,207.6,332.9,207.6
	C332.9,207.6,332.9,207.6,332.9,207.6z M333.1,207.6C333.2,207.6,333.2,207.6,333.1,207.6C333.2,207.6,333.1,207.6,333.1,207.6z
	 M333.2,207.3C333.2,207.4,333.3,207.3,333.2,207.3C333.2,207.3,333.2,207.3,333.2,207.3z M333.6,207.2
	C333,207.3,333.9,207.2,333.6,207.2C333.7,207.2,333.7,207.2,333.6,207.2z M334.2,207.2C334.2,207.2,334.2,207.2,334.2,207.2
	C334.2,207.2,334.2,207.2,334.2,207.2z M334.3,207.2c-0.2,0.2-0.1,0.1-0.1,0C334.3,207.2,334.3,207.2,334.3,207.2z M334.3,207.2
	C334.4,207.2,334.4,207.2,334.3,207.2C334.3,207.2,334.3,207.2,334.3,207.2z M334.9,206.7C334.8,206.8,335.1,206.6,334.9,206.7
	C335,206.7,334.9,206.7,334.9,206.7z M335.1,206.9C335.1,206.9,335.1,206.9,335.1,206.9C335.1,206.9,335.1,206.9,335.1,206.9z
	 M335.4,206.9L335.4,206.9C335.5,206.9,335.4,206.9,335.4,206.9z M336.8,206.4c0.1,0,0.6-0.1,0.5-0.2c-0.2,0-0.3,0-0.5,0
	C336.4,206.2,336.3,206.4,336.8,206.4z M337.7,206.2c-0.3,0.2,0.3,0,0.1,0C337.8,206.2,337.8,206.2,337.7,206.2z M338.1,206.2
	C338.3,206.3,338.6,206.1,338.1,206.2C338.2,206.2,338.2,206.2,338.1,206.2C338.1,206.2,338.1,206.2,338.1,206.2z M338.3,194.8
	C338.4,194.9,338.3,194.8,338.3,194.8C338.3,194.8,338.3,194.8,338.3,194.8c0,0,0-0.1,0.1-0.2C338.4,194.6,338.4,194.8,338.3,194.8z
	 M339.3,205.9C339.3,205.9,339.3,205.9,339.3,205.9C339.2,205.9,339.1,206.2,339.3,205.9z"/>
<path d="M347.6,190.3c0.2,0.1,0.4,0.4,0.6,0.5c0.1,0.1,0.2,0,0.3,0.1c0.1,0.2,0.5,0.3,0.5,0.5c0.3,0.2,0.3,0.5,0.4,0.8
	c0,0.5,0.3,0.4,0.3,0.9c-0.1,0-0.1,0.2-0.1,0.3c0.2-0.2,0.2,0.4,0,0.2c-0.1,0.6,0.1,1.2,0,1.7c-0.1,0.2,0.2,0.1,0,0.2
	c-0.1,0.1,0,0.1,0,0.3c0-0.1,0-0.1,0-0.1v0c0.1-0.2,0.1-0.1,0.1,0.3c-0.1,0.1-0.2,0.5-0.2,0.4c0.1,0.3,0,0.5,0,0.8
	c0.1,0.2-0.1,0.5,0.1,0.3c0,0.3,0,0.2-0.1,0.2c0,0,0,0,0,0c0,0,0,0-0.1,0.1c0,0.4,0.2,0.3,0.1,0.6c0.2,0.2-0.2,0.5,0,0.7
	c0,0.3-0.2,0-0.1,0.3c0.1-0.1,0.1,0.2,0.3,0.1c-0.1,0.1-0.3,0.1-0.3,0.3c0.2,0,0.3,0.3,0,0.4c0,0.1,0.5-0.1,0.3,0.1
	c-0.2-0.1-0.1,0.3-0.3,0.2c-0.1-0.1-0.2,0.1-0.1,0.2c-0.2,0.1,0.5-0.1,0.2,0c-0.2,0,0.2,0.2-0.1,0.2c-0.1,0.1,0.1,0.1-0.2,0.3
	c-0.1-0.2-0.1,0.2-0.1,0.3c-0.1,0,0.1,0.4-0.1,0.3c0,0.3,0,0.3,0,0.6c-0.1,0.2,0,0.5-0.1,0.8c0.2,0.1,0,0.1,0.1,0.2
	c-0.1,0.1-0.1,0.4-0.1,0.5c0.2,0.2-0.1,0.1,0,0.3c-0.1,0.2,0,0.5-0.1,0.6c0.1,0.2,0,0.4,0.1,0.6c0,0.3-0.5-0.2-0.4,0
	c-0.1,0-0.2,0.1-0.2,0.1c-0.1,0-0.3,0.2-0.3,0c0.1-0.1-0.2-0.2-0.3-0.1c0,0.3-0.2-0.2-0.2-0.1c-0.2,0.3-0.2-0.3-0.5-0.2
	c0.1-0.2-0.3-0.4-0.1-0.2c-0.1,0.3-0.5-0.1-0.4,0.1c-0.1,0.4-0.1-0.1-0.2,0c0,0.1-0.2-0.2-0.2,0.1c-0.2,0,0.3-0.3-0.1-0.2
	c0.1-0.7,0.1-1.4,0.1-2.1c-0.1-0.3,0.3-1.3-0.2-1.2c-0.5-0.3,0.5,0,0.3-0.3c0.1-0.1,0-0.3-0.4-0.1c0.2,0.1-0.1,0.3,0,0
	c-0.1,0-0.4,0.1-0.5,0.1c-0.3,0-0.2,0.2,0,0.1c0.2,0.1-0.4,0.2-0.2,0.3c0.2,0,0,0.1,0.2,0.2c-0.2,0-0.7,0.2-0.8,0.1
	c-0.2,0.2-0.2,0-0.4,0.1c-0.3,0.2-0.5,0.1-0.6,0.1c-0.1-0.2-0.4,0.1-0.5-0.1c0,0.1,0,0.4-0.1,0.2c-0.1,0.1-0.2,0.3,0.1,0.1
	c0.2,0,0.1,0.5-0.1,0.4c-0.1,0.2,0,0.3-0.2,0.3c-0.1-0.3-0.4,0.6-0.2,0.5c0.1,0,0.1,0.3-0.1,0.2c0-0.3-0.5,1.3-0.5,1.3
	c0-0.2-0.2,0.2,0,0.1c-0.1,0.2-0.2,0.4-0.1,0.1c-0.1,0.1-0.2,0.4-0.1,0.3c0,0,0,0.1-0.1,0.2c0,0.1-0.1,0.1-0.2,0.1
	c-0.4-0.2,0.2,0.2,0,0.2c0.1,0.2-0.3-0.1-0.3,0c-0.2-0.3-0.4,0.6-0.2,0c0.2-0.2-0.2-0.4-0.1-0.1c0,0.2,0,0.2-0.1,0.2
	c0,0,0.1,0,0-0.1c0,0,0,0,0,0c0-0.1-0.1-0.2-0.1-0.2c-0.4,0.1,0.1,0-0.1,0.3c0-0.1-0.3,0.1-0.3-0.1c0.3-0.1-0.2-0.3-0.2,0
	c0.2-0.3,0.1,0.3,0,0.2c0-0.2-0.3-0.1-0.1-0.2c-0.1-0.5-0.2,0.4-0.2-0.1c0.2-0.1,0.2-0.4-0.1-0.2c-0.3,0.1,0-0.2-0.1-0.2
	c-0.1,0-0.3,0.1-0.3,0.1c0,0.1-0.2,0.1-0.2,0.1c0.1-0.3-0.3,0.2-0.1-0.1c0-0.1,0-0.3,0-0.4c0.1-0.3,0.1-0.1,0.2-0.4
	c0-0.1,0.1-0.2,0-0.3c1.2-4.1,3.2-9.2,4.9-11.5c0.7-1,1.4-2,2.4-2.5c-0.1,0.1,0.1,0,0.2,0c0,0,0.1-0.1,0.2-0.1
	C347.4,190.1,347.6,190.1,347.6,190.3z M341.1,205.9C341.1,205.9,341.2,205.9,341.1,205.9C341.1,205.9,341.1,205.9,341.1,205.9z
	 M342.9,203.6C343,204,342.7,203.7,342.9,203.6C342.9,203.6,342.8,203.6,342.9,203.6z M343.5,201.9c0.2,0.2-0.2,0.1-0.1,0.1
	C343.3,202.1,343.3,202,343.5,201.9C343.5,201.9,343.5,201.9,343.5,201.9z M344.9,201.5C344.9,201.5,344.9,201.5,344.9,201.5
	c-0.3,0.1-0.7,0.1-1,0.2c-0.5,0-0.1,0.2,0.2,0.1c0.1-0.1,0.5,0,0.4-0.1C344.6,201.6,345.1,201.7,344.9,201.5
	C344.9,201.5,344.9,201.5,344.9,201.5z M344.3,201.9C344.4,202,343.9,202,344.3,201.9C344.3,201.9,344.3,201.9,344.3,201.9z
	 M346.9,194.2c-0.1,0.2-0.1,0.5-0.2,0.5c0,0.2-0.5,0.3-0.2,0.4c0.1,0-0.4,0.5-0.3,0.3c0.2-0.2,0.1,0,0.1-0.3c-0.1,0.1-0.2,0-0.2,0.1
	c0,0,0,0,0,0c0,0,0,0,0,0.1c0,0-0.1,0.1-0.1,0.1c0,0,0,0,0,0c0,0,0,0,0,0.1c0,0-0.1,0.1-0.1,0.1c0,0.1,0.1,0,0,0.2
	c-0.3,0.2,0.2,0.1,0.1,0.2c0,0-0.1,0.4-0.2,0.2c0.2-0.2-0.2-0.1-0.2,0.2c-0.1,0.1-0.1,0.2-0.2,0.3c0,0.3-0.1,0.2-0.2,0.5
	c-0.1,0.4,0.1-0.1,0.2-0.2c0.2-0.1,0.1-0.5,0.3-0.4c-0.1,0-0.2,0.2-0.1,0.4c-0.1,0.2-0.2,0.1-0.2,0.5c-0.3,0.1,0,0.5-0.3,0.5
	c0-0.3,0-0.2-0.1,0.1c-0.2,0-0.4,0.3-0.2,0.4c0,0,0,0.1,0,0.1c0.2,0.2,1.4-0.1,2.1-0.2c0.1-1,0.2-1.9,0.2-2.8c0-0.4,0.2-1.1,0-1.3
	C346.9,194.1,347,194.2,346.9,194.2z M344.8,197.8c0.2,0.1,0.1-0.2,0.3-0.3c-0.2,0,0.1,0,0-0.2C344.9,197.5,344.8,197.7,344.8,197.8
	z M344.8,198C345.1,198.2,344.8,198.1,344.8,198C344.8,197.9,344.8,197.9,344.8,198z M345.9,201.5c0,0-0.1,0.1-0.2,0.1
	c-0.5,0-0.1,0,0.1-0.2C345.9,201.5,345.9,201.5,345.9,201.5z M345.8,201.4c0-0.2-0.2,0,0.1-0.3C346,201.2,345.9,201.4,345.8,201.4z
	 M345.9,195.4C345.9,195.4,345.9,195.4,345.9,195.4C345.9,195.4,345.9,195.4,345.9,195.4z M346,195.2C346,195.2,346,195.2,346,195.2
	C346,195.2,346,195.2,346,195.2z M346.1,195.4C346.1,195.4,346.1,195.4,346.1,195.4C346.2,195.4,346,195.7,346.1,195.4z M347,193.8
	c-0.2,0.1-0.2,0.2-0.3,0.3c0,0.1-0.3,0.5-0.2,0.4c0.1,0.2,0.3-0.3,0.3-0.3c0.1-0.1,0.2-0.2,0.3-0.3C347,194,347.1,193.9,347,193.8
	C347,193.9,347,193.9,347,193.8c0.1,0,0.1-0.1,0.1-0.2C347,193.7,347,193.8,347,193.8z M346.8,193.7
	C346.7,194,346.9,193.8,346.8,193.7C346.8,193.7,346.8,193.7,346.8,193.7z M347,193.9C347,193.9,347,193.9,347,193.9
	C347,193.9,347,193.9,347,193.9z M348.6,205.4C348.7,205.5,348.6,205.4,348.6,205.4C348.6,205.4,348.6,205.4,348.6,205.4z
	 M349.6,197.3C349.5,197.3,349.5,197.3,349.6,197.3C349.4,197.3,349.6,197.4,349.6,197.3z"/>
<path d="M353.4,189.7c0-0.3,0.1,0.3,0.2,0c0-0.3,0.3,0.1,0.4,0.2c0.2-0.3,0.3,0.2,0.3,0.2c-0.1,0.3,0.3-0.3,0.3-0.1
	c0.2,0.1-0.1,0.2,0.1,0.3c0.1-0.3,0.2-0.1,0.3,0.2c0.1-0.1,0.1-0.1,0.2-0.1c0,0,0,0,0,0c0,0,0,0,0,0c0.1,0.1,0.2,0.2,0.2,0.3
	c0.2,0.3,0.1,0.6,0.2,0.7c0,0,0,0,0,0c0,0,0,0,0,0c0,0,0,0.1,0,0.1c0,0.3,0.1,0.2,0.2,0.3c0,0.1,0,0.2,0,0.3c0.2,0.2,0,0.1,0,0.1
	c-0.1,0.2-0.1,0.4,0.1,0.6c-0.1,0-0.2,0.2,0,0.5c-0.1,0,0.2,0.1,0.1,0.3c-0.2,0.2,0,0,0.1,0.3c-0.1,0.2,0,0.2,0,0.5
	c0.2,0.8,0.2,1.7,0.3,2.5c0,0.5,0.2,0.5,0.1,0.1c0.4-2.3,1-4.5,1.7-6.7c0.1-0.4,0.3-0.8,0.5-1.1c0,0.3,0.1-0.1,0.3,0
	c0.2,0.3,0.1-0.1,0.2,0.1c0-0.1,0.3-0.2,0.2,0.1c-0.1,0,0,0.3,0.1,0.3c0,0,0.1,0.2,0.2,0.2c0,0.3,0.3,0.1,0.3,0.3
	c0.2,0.1,0.2,0.5,0.3,0.5c0.1-0.2,0.1,0.3,0.1,0.2c-0.1,0.3,0.2,0,0,0.4c-0.1,0.3,0,0.5,0,0.6c0,0.1-0.1,0.3-0.1,0.3
	c0,0.1,0.3,0.3,0,0.4c-0.1,0.1-0.2,0.2,0,0.3c-0.3,0.2,0,0.4-0.2,0.5c0.1,0,0.1,0.1-0.1,0.1c0.3,0.2-0.2,0.2-0.1,0.6
	c0.1,0.1-0.1,0.1-0.1,0.3c-0.1,0.2-0.1,0.5-0.1,0.7c0.1,0.4-0.2,0.3,0,0.6c0.1,0.3,0,0.1-0.1,0.3c0,0,0,0,0,0c0,0.1,0,0.1,0,0
	c0,0,0,0,0,0c0,0,0,0,0,0c-0.1,0.1,0,0,0,0.3c-0.1,0,0.1,0.1,0,0.2c0,0.1-0.1,0.3-0.1,0.3c-0.1,0.8-0.2,1.6-0.3,2.5
	c-0.1,0.5-0.1,1-0.1,1.5c0,0,0,0,0,0c0,0,0,0,0,0c0,0,0,0.1,0,0.1c0,0.2,0,0.5,0,0.7c0,0.2,0,0.7-0.1,1c0,0.2,0,0.4,0,0.5
	c0.1,0.2-0.1,0.2,0.1,0.3c-0.1,0.1-0.1,0.4-0.1,0.4c0.1,0.1,0.3,0.5,0,0.2c-0.2,0.2-0.2-0.3-0.4-0.4c-0.1,0.3-0.1-0.1-0.2,0.1
	c0,0.3-0.1-0.3-0.2,0c0.2,0.2,0.2,0.5,0,0.1c-0.4,0,0.1-0.1-0.1-0.2c-0.2,0-0.4,0.4-0.4,0.1c-0.1,0.2-0.2-0.2-0.4-0.1
	c-0.1-0.2-0.3,0-0.3-0.2c0,0.3-0.3,0.3-0.3,0.5c0-0.2-0.4-0.1-0.5-0.5c-0.1,0.1-0.9,0-1.1-0.5c-0.9-1.3-1.2-2.9-1.6-4.4
	c-0.2,0.2-0.2,0.8-0.2,1.1c0,0.3,0,0.4-0.1,0.6c0,0.1,0,0.3,0,0.4c0,0.1-0.2,0.4-0.1,0.6c-0.1,0.1,0.1,0.2-0.1,0.3
	c0.1,0.1,0,0.6,0,0.6c0,0.3,0,0.7-0.1,0.9c0,0.3,0,0.6-0.1,0.7c0.3,0.2-0.2,0.5,0,0.5c-0.1,0.2,0.2,0.2,0,0.4
	c-0.1,0.3-0.2-0.3-0.3,0.1c-0.2-0.2-0.2-0.1-0.2,0.1c0.1,0.1-0.3,0.1-0.2,0c-0.1-0.3-0.2,0.2-0.3-0.1c-0.2-0.2,0,0.2-0.2,0
	c-0.1,0.2-0.2-0.1-0.3,0.1c0,0,0,0,0,0c0,0,0,0,0,0c-0.1-0.1-0.2,0-0.3,0c0,0,0,0,0,0c0,0,0,0,0,0c0,0-0.1,0-0.1-0.1
	c0-0.2-0.3-0.3-0.3,0c-0.4,0.1-0.3,0-0.7,0.1c-0.1-0.1,0-0.5-0.1-0.6c0-4.3,0.7-8.7,1.7-13c0.2-0.6,0.3-1.3,0.6-1.8
	c0-0.5,0.1,0,0.2-0.2c0.2,0.1,0.2-0.1,0.4-0.1C353.2,189.6,353.5,189.8,353.4,189.7z M351.4,205.3
	C351.4,205.3,351.4,205.3,351.4,205.3C351.4,205.3,351.4,205.3,351.4,205.3z M351.7,205.3C351.7,205.3,351.7,205.3,351.7,205.3
	C351.7,205.4,351.6,205.4,351.7,205.3z M353.2,205.9c-0.1,0.1-0.4-0.3-0.2-0.4C353.1,205.6,353.3,205.6,353.2,205.9z M353.4,201.1
	C353.4,201.1,353.4,201.1,353.4,201.1C353.4,201.1,353.5,201.1,353.4,201.1z M359.2,204.6C359.2,204.6,359.2,204.5,359.2,204.6
	C359.3,204.6,359.3,204.6,359.2,204.6c0.1,0.1-0.2,0.1-0.1-0.1C359.2,204.5,359.2,204.5,359.2,204.6z M359.3,201.1
	C359.3,201.1,359.3,201.1,359.3,201.1C359.3,201.1,359.3,201.1,359.3,201.1z"/>
<path d="M368.3,189.2c0.4,0.1,0.8,0.5,1.1,0.6c0.3,0.2,0.3,0.5,0.5,0.6c0.1,0.1,0.1,0.2,0.1,0.2c0,0.2,0.4,0.4,0.2,0.5
	c0,0.2,0.2,0.7,0.2,0.6c0,0,0,0.1,0.1,0.1c-0.1,0,0,0.1,0,0c0.1,0.1,0.1,0.3,0.1,0.4c0.1,0.4,0.2,0.7,0.2,1c0,0.4,0.2,0.8,0.2,1
	c0,0.2-0.1,0.7-0.1,1c-0.1,0.5-0.1,0.5-0.3,1c-0.1,0.3-0.1,0.5-0.2,0.8c0,0,0-0.3-0.1,0.1c0.1,0.1,0.1,0.4-0.1,0.5
	c-0.1,0.1-0.3,0.5-0.1,0.2c0,0.3-0.4,0.6-0.2,0.3c0-0.1-0.3,0.4-0.1,0.4c-0.2,0.1-0.2,0.5-0.3,0.3c-0.2,0.1,0,0.4-0.1,0.2
	c-0.1,0.1-0.2,0-0.1,0.1c-0.1,0-0.1,0.1,0,0.2c0,0,0,0,0,0c0,0,0,0,0,0c0,0,0,0,0,0c-0.1,0.1-0.2,0.2-0.2,0.3c0,0.2,0.2-0.3,0.1,0
	c-0.2,0.3-0.4,0.8-0.7,1c-0.1,0.2-0.3,0.3-0.4,0.6c0.1,0.1,0,0-0.2,0.3c-0.1,0-0.3,0.3-0.4,0.5c0,0,0,0,0,0c0,0,0,0,0,0
	c0,0,0,0.1-0.1,0.1c0,0,0,0.1-0.2,0.2c-0.2,0.3-0.5,0.6-0.7,0.7c-0.1,0.1-0.1,0.1-0.2,0.2c-0.1,0.1-0.2,0.2-0.3,0.2
	c-0.2,0.2-0.4,0.4-0.6,0.5c-0.2,0.2-0.5,0.3-0.8,0.4c-0.1,0-0.4,0.3-0.3,0c-0.3,0,0.5-0.2,0.7-0.3c0.2-0.1,0.4-0.4,0.2-0.3
	c-0.4-0.2-0.2,0.1-0.2,0.2c-0.2,0-0.1-0.3-0.3-0.1c-0.2,0-0.5,0.2-0.4,0.1c-0.3,0-0.3,0.1-0.5-0.2c-0.2,0.1-0.5,0-0.7-0.2
	c-0.2-0.1-0.7-0.1-0.8-0.5c0-0.2-0.3-0.1-0.5-0.2c-0.3-0.1-0.3-0.4-0.5-0.4c0.1-0.3,0.1-1,0.2-1.5c0.3-2.3,0.7-4.6,1.3-6.9
	c-0.1,0,0.2-0.5,0.1-0.5c-0.1,0-0.3,0.2-0.4,0c-0.3-0.1,0.1-0.2,0-0.3c-0.4,0.1,0-0.5-0.3-0.5c-0.2-0.1-0.2-0.2-0.3-0.3
	c0-0.2,0-0.3-0.1-0.4c-0.1-0.1,0.2-0.3,0-0.3c-0.1-0.2-0.4-0.1-0.5-0.4c-0.3-0.2,0-0.5,0.2-0.5c0.3-0.4,0.7-0.7,1.1-1.1
	c1.2-0.8,2.6-1.4,4.1-1.4C367.1,188.9,367.7,189,368.3,189.2z M362,193.4C362.1,193.7,362.3,193.5,362,193.4
	C362.1,193.4,362,193.4,362,193.4z M363.8,204.8c-0.1,0.1-0.2,0.3-0.2,0.1c-0.1,0-0.3,0.1-0.2-0.2
	C363.5,204.7,363.7,204.6,363.8,204.8z M365.8,192c-0.2,0-0.1,0.1,0,0.1c0,0,0,0,0,0c-0.1,0.1,0,0,0,0c0,0,0,0.1-0.1,0.1
	c-0.2,0.1,0.2,0.2-0.1,0.3c-0.1-0.2-0.1,0.4-0.1,0.5c-0.1,0.1,0,0.4,0,0.5c0.1,0.2-0.1,0.4-0.1,0.7c-0.1,0.1-0.2,0.8-0.1,0.6
	c-0.1,0.2-0.2,0.6-0.2,0.9c0,0.3-0.3,0.9-0.1,1.1c0,0.3,0,0.6-0.2,0.6c0,0.1-0.1,0.3-0.1,0.4c0.3-0.2-0.1,0.1,0.1,0.1c0,0,0,0,0,0.1
	c0,0,0,0,0,0c-0.1,0,0,0,0,0c0,0.1-0.1,0.1-0.1,0.4c0,0.2,0.1,0.5-0.2,0.7c-0.1,0.2-0.1,0.5-0.1,0.6c-0.1,0.2,0.1,0.5-0.1,0.3
	c0,0.2-0.2,0.9-0.1,0.9c0,0.1,0.2,0,0.4-0.3c1.6-1.9,3.1-4,4.1-6.3c0.2-0.4,0.6-1.4,0.3-1.6c0.1,0,0.2-0.2,0-0.1
	c-0.4,0,0.2-0.1-0.2-0.2c-0.3-0.1-0.4-0.2-0.6-0.2c-0.2-0.2-0.3,0-0.5-0.1c-0.2,0-0.6,0.1-0.8,0c-0.3,0.1-0.4,0.1-0.6,0
	c-0.2,0.1-0.3,0.1-0.5,0.2C365.5,192.4,366.1,192.1,365.8,192C365.8,192,365.8,192,365.8,192z M364.4,200.4
	C364.4,200.5,364.3,200.4,364.4,200.4C364.4,200.4,364.4,200.4,364.4,200.4z M364.8,204.2C364.9,204.2,364.6,204.3,364.8,204.2
	C364.7,204.2,364.7,204.2,364.8,204.2C364.8,204.2,364.8,204.2,364.8,204.2C364.9,204.2,364.8,204.2,364.8,204.2z M364.8,198
	C364.8,198,364.8,198,364.8,198C364.8,198,364.8,198,364.8,198z M365.2,204.1c-0.1,0.3,0.3-0.1,0.3-0.2
	C365.4,203.9,365.3,204,365.2,204.1z M365.9,192.2C365.8,192.2,365.8,192.2,365.9,192.2C365.8,192.2,365.8,192.2,365.9,192.2z
	 M366,191.9C366,192,366.2,192,366,191.9C366,191.9,366,191.9,366,191.9z M366.3,191.7C365.9,191.7,366,191.9,366.3,191.7
	C366.2,191.8,366.6,191.8,366.3,191.7C366.3,191.7,366.2,191.8,366.3,191.7z M366.9,191.9c-0.1,0.1-0.5-0.1-0.6,0.1
	c0,0.2,0.4,0,0.6,0c0.2-0.1,0.3,0.1,0.5,0c0.3-0.2-0.2-0.1-0.1-0.2C367.1,191.8,367,191.8,366.9,191.9z M366.9,191.6
	C366.9,191.6,366.8,191.6,366.9,191.6c-0.1,0-0.1,0-0.1,0c-0.2,0.1-0.4,0-0.2,0.2c0.2-0.3,0.3-0.1,0.4-0.1c0.2,0,0.1-0.1,0.2,0
	c0,0,0,0,0,0c0,0,0,0,0,0C367.2,191.6,367.1,191.6,366.9,191.6C366.9,191.6,366.9,191.6,366.9,191.6z M367.5,191.8
	C367.5,192.1,367.6,191.8,367.5,191.8c0.1,0,0.1-0.2-0.3-0.2C367.2,191.6,367.4,191.8,367.5,191.8z M367.3,202.3
	C367.3,202.3,367.3,202.3,367.3,202.3C367.3,202.3,367.3,202.3,367.3,202.3z M367.4,192.1C367.3,192.2,367.7,192.1,367.4,192.1
	C367.4,192.1,367.4,192.1,367.4,192.1z M367.9,192c0.2,0.2,0.6,0.2,0.9,0.3c0.2,0,0.1-0.1,0.2,0.1c0.1,0,0.4,0.1,0.2,0
	c-0.1-0.2-0.1-0.2-0.3-0.4c-0.3-0.2-0.2,0-0.5-0.1c0,0.2-0.3,0.1-0.6,0C367.7,191.9,367.9,192.1,367.9,192z M368.6,192.3
	C369.1,192.5,368.4,192.5,368.6,192.3C368.6,192.3,368.6,192.3,368.6,192.3z M369.2,199.6C369.2,199.5,369.2,199.5,369.2,199.6
	C369.2,199.5,369.2,199.6,369.2,199.6z M369.3,199.4C369.3,199.3,369.3,199.3,369.3,199.4C369.3,199.3,369.4,199.3,369.3,199.4z
	 M370.5,191.8C370.5,191.8,370.5,191.8,370.5,191.8C370.5,191.8,370.5,191.8,370.5,191.8z"/>
<image style="overflow:visible;opacity:0.25;enable-background:new    ;" width="1850" height="1150" xlink:href="2A949B9629680223.png"  transform="matrix(0.3074 0 0 0.3074 -74.484 -30.5101)">
</image>
<path class="st0" d="M170.5,117.4c-3-3.3-6-6.7-9-10c-0.6-0.6-1.4-0.9-2.5-0.7c-7,1.1-14,2.1-21,3.1c-7,1-14,1.9-21,2.7
	c-1.1,0.1-2.1,0.7-2.9,1.5c-0.8,0.8-1.5,1.8-1.7,2.9c-2.7,13-5.4,26-8.1,39c-2.7,13-5.4,26-8.1,39c-0.2,1,0,1.9,0.5,2.6c0,0,0,0,0,0
	c0,0,8.5,9.9,9,10.6c0.6,0.6,1.4,1,2.5,0.8c7-0.8,14-1.6,21-2.6c7-0.9,14-1.9,21-2.9c1.1-0.2,2.1-0.7,2.9-1.5c0.8-0.8,1.5-1.9,1.7-3
	c0.5-2.6,1.1-5.2,1.6-7.9c0.5-2.6,1.1-5.2,1.6-7.9c0.2-1.1,0-2-0.5-2.6c-0.4-0.4-4.5-5.1-7.1-7.9c0.6-0.3,1.1-0.6,1.6-1.1
	c0.8-0.8,1.5-1.8,1.7-2.9c0.5-2.6,1.1-5.2,1.6-7.9c0.5-2.6,1.1-5.2,1.6-7.9c0.2-1.1,0-2-0.5-2.6c-2.3-2.6-4.6-5.1-6.9-7.7
	c0.7-0.1,1.5-0.2,2.2-0.3c3.8-0.6,7.6-1.1,11.4-1.7c1.1-0.2,2.1-0.8,2.9-1.6c0.8-0.8,1.5-1.9,1.7-3c0.5-2.6,1.1-5.3,1.6-7.9
	s1.1-5.3,1.6-7.9C171.3,119,171.1,118,170.5,117.4z M155,126.4c-8.9,1.3-17.8,2.6-26.7,3.8c-1.1,5.2-2.2,10.4-3.2,15.7
	c6.3-0.8,12.7-1.7,19.1-2.6c-1.1,5.2-2.2,10.5-3.2,15.7c-6.3,0.9-12.7,1.8-19.1,2.5c-1.1,5.2-2.2,10.4-3.2,15.7
	c8.9-1.1,17.8-2.3,26.7-3.6c-1.1,5.2-2.2,10.5-3.2,15.7c-14,2-28,3.8-41.9,5.2c5.4-26,10.8-52,16.2-78.1c14-1.7,28-3.6,41.9-5.8
	C157.2,115.9,156.1,121.1,155,126.4z"/>
<path class="st1" d="M356.3,159.7c-5.3,0.3-10.6,0.6-15.8,1c-2.2-12.6-4.4-25.1-6.6-37.6c-2.7,12.9-5.4,25.9-8.1,38.9
	c-5.1,0.5-10.2,1-15.2,1.6c5.4-26,10.8-52,16.2-77.9c5.3-0.5,10.6-0.9,15.8-1.3c2.2,12.6,4.4,25.1,6.6,37.7
	c2.7-12.9,5.4-25.7,8.1-38.6c5.1-0.2,10.2-0.4,15.3-0.6C367.1,108.4,361.7,134,356.3,159.7z"/>
<path class="st0" d="M277.3,158.8c-0.5-0.6-9-10.1-9-10.1c-0.5-0.6-1.4-0.9-2.4-0.8c-2.5,0.4-5.1,0.8-7.6,1.2
	c1.2-5.9,2.4-11.8,3.6-17.7c2-9.8,4.1-19.7,6.1-29.5c0.2-1.1,0-2-0.5-2.6c-0.5-0.6-9-10.1-9-10.1c-0.6-0.6-1.4-0.9-2.5-0.7
	c-2.5,0.4-5.1,0.8-7.6,1.2s-5.1,0.8-7.6,1.2c-1,0.2-2.1,0.7-2.9,1.6c-0.8,0.8-1.5,1.9-1.7,3c-2.7,13.1-5.4,26.3-8.1,39.5
	c-2.7,13.2-5.4,26.3-8.1,39.5c-0.2,1.1,0,2,0.5,2.6c0,0,8.5,9.4,9,10c0.6,0.6,1.4,0.9,2.5,0.7c6.3-1,12.7-2.1,19.1-3.1
	c6.3-1,12.7-2,19.1-2.9c1-0.2,2.1-0.7,2.9-1.5c0.8-0.8,1.5-1.9,1.7-2.9c0.5-2.6,1.1-5.2,1.6-7.9c0.5-2.6,1.1-5.2,1.6-7.9
	C278,160.4,277.8,159.5,277.3,158.8z M261.8,167.7c-12.7,1.9-25.4,4-38.1,6.1c5.4-26.3,10.8-52.6,16.2-78.9
	c5.1-0.8,10.2-1.6,15.3-2.4c-4.3,21-8.6,42-13,63.1c7.6-1.2,15.2-2.4,22.9-3.6C263.9,157.1,262.8,162.4,261.8,167.7z"/>
<path class="st1" d="M261.8,167.7c-12.7,1.9-25.4,4-38.1,6.1c5.4-26.3,10.8-52.6,16.2-78.9c5.1-0.8,10.2-1.6,15.3-2.4
	c-4.3,21-8.6,42-13,63.1c7.6-1.2,15.2-2.4,22.9-3.6C263.9,157.1,262.8,162.4,261.8,167.7z"/>
<path class="st1" d="M292.8,165.7c-5.1,0.7-10.2,1.4-15.3,2.1c5.4-26.2,10.8-52.3,16.2-78.5c5.1-0.7,10.2-1.3,15.3-1.9
	C303.6,113.5,298.2,139.6,292.8,165.7z"/>
<path class="st1" d="M217.1,123.9c-0.5,2.6-1.1,5.3-1.6,7.9c-1,4.9-3.4,9.7-6.6,13.9c-2,2.6-4.4,5-7.1,7.1c1.3,8.8,2.7,17.6,4,26.4
	c-5.4,0.9-10.8,1.8-16.2,2.7c-1.1-7.4-2.3-14.9-3.4-22.3c-2,0.3-4.1,0.7-6.1,1c-1.6,7.9-3.2,15.8-4.9,23.7
	c-5.1,0.8-10.2,1.6-15.3,2.4c5.4-26.3,10.8-52.5,16.2-78.8c7.6-1.2,15.2-2.5,22.9-3.7c4.7-0.8,8.9,0,12,1.9c3.1,1.9,5.3,5.1,6.1,9
	C217.7,117.6,217.7,120.7,217.1,123.9z"/>
<path class="st0" d="M321.3,94.9c-3-3.5-6-7-9-10.5c-0.3-0.3-0.6-0.6-1-0.7c-0.4-0.1-0.9-0.2-1.4-0.1c-1.3,0.1-2.5,0.3-3.8,0.4
	c-1.3,0.2-2.5,0.3-3.8,0.5c-1.3,0.2-2.5,0.3-3.8,0.5c-1.3,0.2-2.5,0.3-3.8,0.5c-0.5,0.1-1.1,0.2-1.6,0.5c-0.5,0.3-1,0.6-1.4,1
	c-0.4,0.4-0.8,0.8-1.1,1.3c-0.3,0.5-0.5,1-0.6,1.6c-1.4,6.5-2.7,13.1-4.1,19.6c-1.4,6.5-2.7,13.1-4,19.6c-1.4,6.5-2.7,13.1-4.1,19.6
	c-1.4,6.6-2.7,13.1-4.1,19.6c-0.1,0.6-0.1,1,0,1.5c0.1,0.5,0.3,0.8,0.6,1.1c0,0,8.5,9.6,9,10.2c0.6,0.6,1.4,0.9,2.5,0.8
	c2.5-0.3,5.1-0.7,7.6-1c2.5-0.3,5.1-0.6,7.6-1c1.1-0.1,2.1-0.7,2.9-1.5c0.8-0.8,1.5-1.8,1.7-2.9c2.7-13,5.4-26,8.1-39
	c2.7-13,5.4-26,8.1-39C322,96.5,321.8,95.5,321.3,94.9z M292.8,165.7c-5.1,0.7-10.2,1.4-15.3,2.1c5.4-26.2,10.8-52.3,16.2-78.5
	c5.1-0.7,10.2-1.3,15.3-1.9C303.6,113.5,298.2,139.6,292.8,165.7z"/>
<path class="st0" d="M384.8,91.4c-0.6-0.7-9-11.4-9-11.3c-0.6-0.7-1.4-1.1-2.5-1.1c-2.5,0.1-5.1,0.1-7.6,0.2s-5.1,0.2-7.6,0.3
	c-1,0.1-2.1,0.5-2.9,1.3c-0.8,0.7-1.5,1.7-1.7,2.8c-0.4,1.8-0.8,3.7-1.2,5.5c-2.2-2.7-4.4-5.3-6.5-7.9c0,0,0,0.1-0.1,0.2
	c-0.1-0.1-0.1-0.3-0.3-0.4c-0.5-0.4-1.2-0.6-2-0.5c-2.6,0.2-5.3,0.4-7.9,0.6c-2.6,0.2-5.3,0.4-7.9,0.7c-1.1,0.1-2.1,0.6-2.9,1.4
	c-0.8,0.8-1.5,1.8-1.7,2.9c-2.7,13-5.4,26-8.1,39c-2.7,13-5.4,26-8.1,39c-0.2,1.1,0,2,0.5,2.6c0,0,8.5,9.8,9,10.4
	c0.6,0.6,1.4,1,2.5,0.9c2.5-0.3,5.1-0.5,7.6-0.7c2.5-0.2,5.1-0.5,7.6-0.7c1.1-0.1,2.1-0.6,2.9-1.4c0.8-0.8,1.5-1.8,1.7-2.8
	c0.4-1.9,0.8-3.7,1.2-5.6c2.1,2.5,4.3,5.1,6.4,7.7c0.1,0.2,0.3,0.3,0.5,0.5c0.5,0.4,1.2,0.6,2,0.5c2.6-0.2,5.3-0.3,7.9-0.5
	c2.6-0.1,5.3-0.2,7.9-0.3c1,0,2.1-0.5,2.9-1.2c0.8-0.7,1.5-1.7,1.7-2.8c2.7-12.8,5.4-25.6,8.1-38.3c2.7-12.8,5.4-25.5,8.1-38.2
	C385.5,93.1,385.3,92.1,384.8,91.4z M356.3,159.7c-5.3,0.3-10.6,0.6-15.8,1c-2.2-12.6-4.4-25.1-6.6-37.6
	c-2.7,12.9-5.4,25.9-8.1,38.9c-5.1,0.5-10.2,1-15.2,1.6c5.4-26,10.8-52,16.2-77.9c5.3-0.5,10.6-0.9,15.8-1.3
	c2.2,12.6,4.4,25.1,6.6,37.7c2.7-12.9,5.4-25.7,8.1-38.6c5.1-0.2,10.2-0.4,15.3-0.6C367.1,108.4,361.7,134,356.3,159.7z"/>
<path class="st1" d="M91.3,141.9c-1,4.8-3.4,9.4-6.6,13.4c-0.1,0.1-0.2,0.3-0.3,0.4c2.2,2.1,3.7,4.8,4.4,8.1
	c0.6,2.7,0.6,5.7-0.1,8.9c-1,4.8-3.4,9.4-6.6,13.4c-3.2,3.9-7.3,7.1-11.8,9.1c-3,1.4-6.2,2.2-9.3,2.3c-7.6,0.4-15.2,0.6-22.9,0.6
	c5.4-25.5,10.8-51,16.2-76.6c6.3-0.2,12.7-0.6,19-1c4.7-0.3,8.9,0.8,12,3c3.1,2.2,5.3,5.5,6.1,9.5C91.9,135.7,91.9,138.7,91.3,141.9
	z"/>
<path class="st0" d="M70.2,167c-0.8-0.3-1.8-0.5-2.8-0.4c-2.5,0.1-5.1,0.3-7.6,0.4c-1.1,5.1-2.2,10.3-3.2,15.4
	c2.5-0.1,5.1-0.2,7.6-0.3c1.6-0.1,3.1-0.6,4.5-1.6c1.4-0.9,2.6-2.2,3.5-3.6c0.6-0.9,1-2,1.2-3.1c0.3-1.6,0.2-3-0.4-4.2
	C72.4,168.4,71.4,167.5,70.2,167z"/>
<path class="st0" d="M72.8,136.3c-0.8-0.3-1.8-0.5-2.9-0.4c-1.3,0.1-2.5,0.2-3.8,0.2c-1.1,5.1-2.2,10.3-3.2,15.4
	c1.3-0.1,2.5-0.1,3.8-0.2c1.6-0.1,3.2-0.7,4.5-1.6c1.4-0.9,2.6-2.2,3.5-3.6c0.6-0.9,1-2,1.2-3c0.3-1.6,0.2-3.1-0.4-4.2
	C75.1,137.8,74.1,136.8,72.8,136.3z"/>
<path class="st0" d="M104.1,152.1c0.4-1.9,0.6-3.6,0.6-5.4c0-1.8-0.2-3.4-0.5-5c-0.5-2.3-1.4-4.4-2.6-6.3c-0.4-0.6-0.8-1-1.2-1.5
	c0,0,0,0,0.1,0c-3.1-3.7-6.3-7.3-9.4-11c0,0,0,0,0,0.1c-0.9-1-1.9-2-3-2.8c-1.9-1.3-4-2.3-6.4-2.9c-2.4-0.6-4.9-0.8-7.6-0.6
	c-3.2,0.2-6.4,0.4-9.6,0.6c-3.2,0.2-6.3,0.3-9.5,0.4c-1.1,0-2.1,0.5-2.9,1.2c-0.8,0.7-1.5,1.7-1.7,2.8c-2.7,12.8-5.4,25.6-8.1,38.3
	c-2.7,12.8-5.4,25.5-8.1,38.2c-0.2,1,0,2,0.5,2.7c0,0,0,0,0.1,0c3,3.8,6,7.6,9,11.3c0.5,0.7,1.4,1.1,2.5,1.1
	c3.8-0.1,7.6-0.2,11.4-0.4c3.8-0.2,7.6-0.3,11.4-0.6c1.8-0.1,3.6-0.4,5.4-0.9c1.8-0.5,3.6-1.1,5.4-2c2.6-1.2,5.1-2.7,7.4-4.6
	c2.3-1.8,4.5-3.9,6.4-6.3c2-2.4,3.6-5,4.9-7.6c1.3-2.6,2.3-5.4,2.8-8.1c0.4-1.9,0.6-3.6,0.6-5.4c0-1.7-0.1-3.4-0.5-5
	c-0.3-1.3-0.7-2.6-1.2-3.8c-0.6-1.2-1.2-2.3-2-3.4c1.5-2.1,2.7-4.2,3.6-6.4C102.9,156.6,103.6,154.4,104.1,152.1z M91.3,141.9
	c-1,4.8-3.4,9.4-6.6,13.4c-0.1,0.1-0.2,0.3-0.3,0.4c2.2,2.1,3.7,4.8,4.4,8.1c0.6,2.7,0.6,5.7-0.1,8.9c-1,4.8-3.4,9.4-6.6,13.4
	c-3.2,3.9-7.3,7.1-11.8,9.1c-3,1.4-6.2,2.2-9.3,2.3c-7.6,0.4-15.2,0.6-22.9,0.6c5.4-25.5,10.8-51,16.2-76.6c6.3-0.2,12.7-0.6,19-1
	c4.7-0.3,8.9,0.8,12,3c3.1,2.2,5.3,5.5,6.1,9.5C91.9,135.7,91.9,138.7,91.3,141.9z"/>
<path class="st0" d="M201.4,122.3c-0.5-1.1-1.5-1.9-2.8-2.3c-0.8-0.3-1.8-0.3-2.9-0.1c-2.5,0.4-5.1,0.8-7.6,1.3
	c-1.6,7.9-3.2,15.8-4.9,23.7c2.5-0.4,5.1-0.8,7.6-1.2c1.6-0.3,3.1-1,4.5-2.1c1.4-1,2.6-2.4,3.5-3.9c0.6-1,1-2,1.2-3.2
	c0.5-2.6,1.1-5.3,1.6-7.9h0c0,0,0,0,0,0C202.2,124.8,202,123.4,201.4,122.3z"/>
<path class="st0" d="M230,122.8c-0.5-2.3-1.4-4.4-2.6-6.2c-1.2-1.8-10.8-12.1-10.8-12.1s0,0.1,0.1,0.1c-0.9-0.9-1.8-1.7-2.9-2.4
	c-3.8-2.4-8.6-3.1-14-2.2c-7.6,1.3-15.2,2.5-22.9,3.8c-2.1,0.3-4.2,2.4-4.6,4.6c-5.4,26.3-10.8,52.5-16.2,78.8c-0.2,1.1,0,2,0.6,2.6
	c0.3,0.3,8.4,9.4,9,10c0.5,0.6,1.4,0.9,2.5,0.7c2.5-0.4,5.1-0.8,7.6-1.2c2.5-0.4,5.1-0.8,7.6-1.2c1.1-0.2,2.1-0.8,2.9-1.6
	c0.8-0.8,1.5-1.9,1.7-3c0.4-1.8,0.7-3.5,1.1-5.3c2.6,2.8,6,6.6,6.1,6.8c0.1,0.1,0.3,0.3,0.5,0.4c0.5,0.4,1.2,0.5,2,0.4
	c2.7-0.5,5.4-0.9,8.1-1.4c2.7-0.5,5.4-0.9,8.1-1.4c0.6-0.1,1.3-0.4,1.9-0.7c0.6-0.4,1.1-0.9,1.6-1.5c0.5-0.6,0.8-1.2,1-1.9
	c0.2-0.6,0.3-1.3,0.2-1.8c-0.6-4-1.2-8-1.8-11.9c-0.6-4-1.2-7.9-1.8-11.9c1-0.9,2-1.9,2.9-2.9c0.9-1,1.8-2,2.6-3.1
	c1.9-2.5,3.6-5.2,4.9-7.9c1.3-2.7,2.3-5.5,2.8-8.3c0.3-1.3,0.5-2.6,0.8-4c0.3-1.3,0.5-2.6,0.8-4c0.4-1.9,0.6-3.7,0.6-5.4
	C230.5,126.1,230.3,124.4,230,122.8z M217.1,123.9c-0.5,2.6-1.1,5.3-1.6,7.9c-1,4.9-3.4,9.7-6.6,13.9c-2,2.6-4.4,5-7.1,7.1
	c1.3,8.8,2.7,17.6,4,26.4c-5.4,0.9-10.8,1.8-16.2,2.7c-1.1-7.4-2.3-14.9-3.4-22.3c-2,0.3-4.1,0.7-6.1,1c-1.6,7.9-3.2,15.8-4.9,23.7
	c-5.1,0.8-10.2,1.6-15.3,2.4c5.4-26.3,10.8-52.5,16.2-78.8c7.6-1.2,15.2-2.5,22.9-3.7c4.7-0.8,8.9,0,12,1.9c3.1,1.9,5.3,5.1,6.1,9
	C217.7,117.6,217.7,120.7,217.1,123.9z"/>
<path class="st1" d="M155,126.4c-8.9,1.3-17.8,2.6-26.7,3.8c-1.1,5.2-2.2,10.4-3.2,15.7c6.3-0.8,12.7-1.7,19.1-2.6
	c-1.1,5.2-2.2,10.5-3.2,15.7c-6.3,0.9-12.7,1.8-19.1,2.5c-1.1,5.2-2.2,10.4-3.2,15.7c8.9-1.1,17.8-2.3,26.7-3.6
	c-1.1,5.2-2.2,10.5-3.2,15.7c-14,2-28,3.8-41.9,5.2c5.4-26,10.8-52,16.2-78.1c14-1.7,28-3.6,41.9-5.8
	C157.2,115.9,156.1,121.1,155,126.4z"/>
</svg>
