<?xml version="1.0" encoding="utf-8"?>
<!-- Generator: Adobe Illustrator 26.2.1, SVG Export Plug-In . SVG Version: 6.00 Build 0)  -->
<svg version="1.1" id="Superhero_font" xmlns="http://www.w3.org/2000/svg" xmlns:xlink="http://www.w3.org/1999/xlink" x="0px"
	 y="0px" viewBox="0 0 419.5 297.6" style="enable-background:new 0 0 419.5 297.6;" xml:space="preserve">
<style type="text/css">
	.st0{fill:#231F20;}
	.st1{opacity:0.8;fill:#FFFFFF;}
</style>
<path d="M35,107.1c0.1,0.1,0.2,0.1,0.4,0.3c0.1,0,0.2,0.2,0.3,0.3c0.1-0.1,0.2,0.1,0.3,0.2c0.2,0.1,0.3,0.3,0.4,0.4
	c0-0.3,0.3,0.3,0.3,0.4c0.2,0.2,0.3,0.6,0.4,0.9c0,0.2,0.1,0.2,0.1,0.3c0,0.1,0,0.2,0,0.3c0,0.2,0,0.4,0,0.5c0.1,0,0.1-0.1,0.1,0.1
	c-0.1,0.1-0.1,0.2-0.1,0.2c0,0,0,0,0,0c0.1,0,0,0,0,0c0,0,0.1,0.1,0,0.1c0,0.1,0,0.3,0.1,0.5c0,0.4-0.1,0-0.1,0.3
	c0.2,0.2-0.1,0.2-0.1,0.5c0,0,0,0.1,0,0.2c0,0,0,0.1,0,0c0,0.1-0.1,0.2-0.1,0.3c-0.1,0.2,0,0.2-0.1,0.3c-0.2,0.1-0.1-0.4-0.2-0.1
	c-0.1,0.2,0-0.2-0.2-0.1c0,0,0,0-0.1,0c0.1,0.1,0,0.1,0,0c-0.2,0-0.3,0.1-0.2-0.1c-0.2-0.1,0,0.1-0.2,0c0.2,0-0.2-0.3-0.1-0.1
	c-0.1,0-0.2-0.1-0.3-0.1c-0.1,0-0.2-0.3-0.2,0c-0.3,0,0.1-0.3-0.1-0.4c-0.2,0.1,0-0.1-0.1-0.1c-0.2,0-0.3,0.1-0.4,0.1
	c-0.1,0-0.3,0-0.2-0.2c-0.3,0,0.1,0,0-0.2c0.2-0.4,0.3-0.9,0.3-1.4c0-0.1,0.1-0.6-0.1-0.5c0,0.3,0-0.1-0.1,0.1
	c-0.2,0.1-0.2,0.3-0.3,0.4c-0.2,0.2-0.3,0.2-0.4,0.4c-0.3,0.2,0,0.2-0.2,0.4c-0.1,0.1-0.2,0.2-0.2,0.3c-0.1,0.1,0,0.2-0.1,0.4
	c-0.1,0.1-0.2,0.2-0.2,0.4c0,0.1,0,0.1,0,0.1c0,0,0,0,0,0c0,0,0,0,0,0c-0.1,0.2-0.1,0.2-0.1,0.4c-0.1,0-0.1,0.2-0.2,0.3
	c0,0.1,0,0.1,0,0.2c0,0,0,0,0,0c0,0.1-0.1,0.1-0.2,0.3c-0.1,0.2,0.1,0.1-0.1,0.3c0,0.1,0,0.4-0.1,0.3c-0.1,0.3,0,0.1,0,0.3
	c-0.1,0.1-0.2,0.3-0.2,0.4c0,0-0.2,0.4-0.1,0.4c0,0,0,0,0,0.1c0.1,0,0,0,0,0c0,0.1,0,0.3-0.1,0.3c0,0,0,0.1,0,0.1c0,0,0,0,0,0
	c0,0.1,0,0.1,0,0c0,0.1,0,0.2,0,0.3c-0.1,0.1-0.1,0.2,0,0.3c-0.2,0.1,0,0-0.1,0.2c0.2,0,0,0,0.1,0.3c-0.1,0.1,0.1,0.4,0,0.6
	c0.1,0.3-0.2,0.4-0.1,0.6c0,0.2-0.1,0.2,0.1,0.4c-0.1,0.1-0.1,0.3,0.2,0.2c0.8-0.3,1.4-0.9,1.9-1.6c0.2-0.3,0-0.2-0.1-0.2
	c0,0.1-0.3,0-0.2,0.1c0,0.2-0.1-0.1-0.1-0.1c-0.2,0,0,0,0-0.1c0.4-0.1,0.3-0.2,0-0.1c-0.2,0,0.1-0.1,0.2-0.1c0-0.1-0.1-0.2-0.1-0.3
	c0.1-0.1-0.4-0.1-0.1-0.2c0.1-0.1-0.1-0.2-0.1-0.3c0-0.1,0-0.2-0.1-0.2c0.1-0.2,0-0.2,0-0.3c0.1-0.2,0.4-0.1,0.2-0.4
	c-0.1-0.1-0.2-0.2-0.4-0.3c-0.1-0.1-0.1-0.3,0.1-0.3c-0.2-0.1,0.1-0.1,0.2-0.1c1.5-0.3,2.9-0.4,4.4-0.5c0.2,0,0.4,0.2,0.6,0.1
	c-0.3,0.2,0.2,0,0.1,0.2c-0.2,0.1-0.1,0.1-0.1,0.2c0.1,0-0.2,0.2,0,0.1c0.1,0.3-0.1,0.1-0.1,0.4c0.1-0.1,0.3,0.1,0.2,0.2
	c-0.2,0.1,0,0.4-0.1,0.5c0.1,0.2-0.2,0.2-0.1,0.3c0.1,0,0,0.2-0.1,0.3h0c0,0,0,0,0,0c0,0,0,0.1,0,0.1c-0.1-0.2-0.1,0.2-0.3,0
	c0,0,0-0.2-0.2-0.1c0.1,0.2-0.1,0.2-0.3,0.2c0,0-0.1,0-0.1,0c0,0,0,0-0.1-0.1c0,0,0.1,0.1,0.1,0.1c-0.1,0-0.2,0.1-0.2,0
	c-0.2-0.2-0.1,0.2-0.2,0.2c-0.1,0,0,0.2-0.2,0.2c-0.1,0.2-0.1,0.2-0.1,0.3c0.1,0.2,0,0.4,0,0.1c-0.3,0.2-0.1,0.2,0,0.3
	c0.1,0.4-0.4,0.2-0.2,0.2c0.2,0,0-0.3-0.1,0c-0.2,0.2-0.3,0.5-0.4,0.6c-0.1,0.1,0,0.3-0.1,0.5c-0.3,0.1-0.2-0.1-0.3,0
	c0,0.1,0.3,0.1,0.1,0.2c0-0.1-0.1,0.2,0,0.2c0.1-0.2,0.4-0.4,0.5-0.6c0.3-0.4,0.1,0-0.1,0.2c-0.1,0.1-0.1,0.4-0.4,0.5
	c0,0.2-0.1,0-0.1,0.2c-0.1,0.1-0.3,0.1-0.3,0.3c-0.1,0.1-0.2,0.1-0.2,0.2c-0.3,0.1-0.1,0.1-0.4,0.2c0-0.1-0.1,0-0.2,0c0,0,0,0,0,0
	c0,0,0,0,0,0c0.1,0,0,0.1-0.2,0.2c0.1-0.2-0.2-0.1-0.3,0c-0.1,0.2-0.1,0-0.3,0.1c-0.3,0-0.2,0.3-0.4,0.1c-0.2,0,0.2-0.1,0.1-0.1
	c0.1,0,0.2-0.1,0.4-0.1c0-0.1,0.5,0,0.4-0.2c0.3-0.1,0.1-0.1,0.1,0c0.2-0.1,0.4-0.2,0.5-0.3c0.1-0.1,0.4-0.2,0.4-0.2
	c0.1-0.1,0.3-0.2,0.3-0.3c-0.2,0.1,0-0.1-0.1-0.1c-0.2,0.1-0.2,0.1-0.3,0.2c-0.2,0.1-0.4,0.4-0.6,0.4c-0.1,0.1-0.1,0-0.2,0.1
	c-0.1,0-0.3,0.1-0.6,0.2c-0.3,0-0.3,0.2-0.4,0.3c-0.1,0-0.1,0-0.1,0c0,0,0.1,0,0.1-0.1c-0.1-0.1,0-0.1,0.1-0.2
	c-0.1-0.2-0.2,0.1-0.4,0c-0.3,0-0.5,0-0.5,0.1c0.1,0.1,0.4,0.2,0.5,0.1c0.1,0.1,0.2,0.1,0,0.1c0.2,0.1-0.2,0-0.1,0.1
	c-0.1-0.1-0.2,0-0.3-0.1c-0.2-0.1-0.4-0.2-0.6-0.2c-0.3-0.3,0.5,0.2,0.1-0.1c-0.2-0.1-0.5-0.1-0.8-0.3c-0.3-0.2-0.4,0.2-0.5,0
	c-0.1,0.1-0.3-0.3-0.4-0.2c-0.7-0.5-1-1.4-0.9-2.3c0-2.1,0.7-4.2,1.6-6.2c0.6-1.3,1.3-2.6,2.4-3.6c0.4-0.2,0.6-0.4,1-0.4
	c0,0,0.1,0,0.1,0C34.7,107,34.8,107,35,107.1z M32.2,115.2C32.2,115.2,32.2,115.2,32.2,115.2C32.2,115.2,32.2,115.2,32.2,115.2z
	 M32.8,112.8C32.6,113.2,32.9,112.8,32.8,112.8C32.8,112.7,32.8,112.7,32.8,112.8z M33.2,112.4L33.2,112.4
	C33.2,112.4,33.2,112.4,33.2,112.4z M34,110.7c0,0.1,0.1-0.2,0.1-0.2C34,110.6,34,110.6,34,110.7z M34.6,109.8
	c-0.3,0.3,0.1,0.1,0.1-0.1C34.7,109.7,34.6,109.8,34.6,109.8z M35.8,118.3C35.8,118.2,35.8,118.2,35.8,118.3
	C35.7,118.2,35.9,118.4,35.8,118.3z M36,118.1C36,118.1,36,118.1,36,118.1C36,118.1,36,118.1,36,118.1C36,118.2,35.9,118.2,36,118.1
	C36,118.1,36.1,118.1,36,118.1z M36,118.1C36,118.1,36,118.1,36,118.1C36,118.1,36,118.1,36,118.1z M37,117.1c0,0.1-0.1,0.1-0.1,0.2
	c-0.1,0.1-0.1,0.3-0.2,0.3c-0.1,0.2-0.3,0.3-0.4,0.4c0,0.1-0.2,0.1,0-0.1c0.2-0.2,0.3-0.5,0.4-0.6C36.8,117.3,37,117.2,37,117.1
	C37,117.1,37,117,37,117.1C37.1,117.1,37.1,117.1,37,117.1z M36.7,113.1C36.9,113.3,36.6,113.3,36.7,113.1
	C36.8,113.1,36.8,113.1,36.7,113.1z M37.2,116.4c0,0,0,0.2-0.1,0.2C36.9,116.9,37,116.4,37.2,116.4
	C37.1,116.4,37.2,116.4,37.2,116.4z M37.2,116.8C37.3,116.8,37.1,116.9,37.2,116.8C37.2,116.8,37.2,116.8,37.2,116.8z M37.2,116.1
	C37.2,116.1,37.2,116.1,37.2,116.1C37.2,116.1,37.2,116.1,37.2,116.1C37.2,116.1,37.2,116.1,37.2,116.1
	C37.3,116.2,37.5,116.1,37.2,116.1C37.2,116.1,37.2,116.1,37.2,116.1z M38.3,116.1C38.3,116.1,38.3,116.1,38.3,116.1
	C38.3,116.1,38.3,116.1,38.3,116.1z M38.7,114.1C38.7,114.1,38.7,114.1,38.7,114.1C38.8,114.2,38.7,114.2,38.7,114.1
	C38.7,114.2,38.6,114.1,38.7,114.1C38.7,114.1,38.7,114.1,38.7,114.1z"/>
<path d="M38.7,116.2C38.8,116.2,38.7,116.4,38.7,116.2c-0.1-0.1-0.5-0.1-0.2-0.1C38.6,116.2,38.7,116.1,38.7,116.2z M43.6,106.8
	c1.1,0.1,2.4,0.4,3,1.4c0.1-0.1,0.1,0.2,0.2,0.3c0,0,0,0,0,0.1c0,0,0,0,0,0c0,0,0,0,0,0c0,0.2,0.1,0.5,0.1,0.6
	c-0.1,0.1,0,0.5-0.1,0.7c0,0.2-0.1,0.4-0.1,0.6c0,0,0,0,0,0c0,0,0,0,0,0c0,0,0,0,0,0c-0.1,0.1-0.1,0.2-0.2,0.2c0,0.1,0,0.4-0.1,0.5
	c0,0.4-0.3,0.5-0.4,0.8c-0.1,0.3-0.3,0.7-0.5,0.9c-0.2,0.2-0.1,0.3-0.3,0.4c-0.2,0.3-0.3,0.3-0.3,0.5c0,0-0.1-0.1-0.3,0.2
	c0.1,0.3-0.1,0-0.3,0.3c-0.2,0.1-0.5,0.2-0.4,0.4c1,0.2,2,0.4,2.9,0.7c0.2,0.1,0.5,0.3,0.3,0.3c0.1,0,0,0.2,0.1,0.2
	c0.2-0.3,0,0.2,0.2,0.1c0,0.2-0.2,0.1-0.2,0.2c0,0.1,0,0.3-0.1,0.4c-0.3,0.2,0,0,0,0.2c0.1,0.1-0.3,0.1,0,0.2
	c-0.2-0.1-0.1-0.1-0.2,0.1c0.1-0.1-0.2,0-0.1,0.2c-0.1,0.1-0.2,0-0.1,0.3c-0.2,0-0.3,0-0.5,0c-0.1-0.1-0.2,0.3-0.4,0.2
	c0.3,0,0.1-0.2,0.1-0.1c-0.1-0.1-0.2,0-0.2-0.1c0-0.1-0.2,0-0.3-0.1c-0.1-0.1-0.2,0.1,0,0.1c0.2,0,0.1,0.2,0,0.1
	c-0.4,0,0.2,0-0.2-0.1c-0.4-0.1,0.1,0,0,0.1c0,0-0.3,0-0.4,0c-0.2-0.1-0.2-0.1-0.4-0.1c-0.1-0.1-0.3-0.1-0.4-0.1
	c0,0-0.3-0.2-0.2-0.1c-0.1,0.1-0.2-0.1-0.3,0c-0.1-0.1-0.3,0-0.5-0.1c-0.1,0-0.3,0-0.3-0.1c-0.2,0-0.4-0.1-0.5-0.1
	c-0.2,0-0.6-0.1-0.5,0.2c0.2-0.1,0,0.4,0,0.3c-0.1,0.1,0,0.2,0.1,0.4c-0.2,0.2-0.2,0.2-0.2,0.4c0,0.2,0,0.2,0,0.4
	c0.1,0.2-0.1,0.2-0.1,0.3c0.1,0.1-0.1,0.1,0,0.2c0,0-0.1,0.3,0,0.4c-0.1,0.2-0.1,0.1-0.1-0.1c0.1-0.2,0.1-0.3,0-0.5
	c0,0.2-0.1,0.5-0.1,0.6c-0.1,0.1-0.1,0.4-0.1,0.6c-0.1,0.5,0-0.3-0.1-0.1c-0.1,0.1-0.2,0.1-0.2-0.1c0,0,0.3,0,0.1-0.2
	c-0.1-0.3-0.2,0.3-0.2-0.1c-0.1,0.2-0.1,0.1-0.2,0c-0.1,0.3-0.1,0-0.3,0.1c-0.1-0.1-0.3,0.1-0.3-0.1c0.2-0.2-0.2-0.2-0.2-0.1
	c0,0-0.1,0.1-0.3,0.1c0,0.3-0.2-0.2-0.2-0.1c0,0.3-0.2,0-0.1,0c0.1-0.5,0.1-1.1,0.2-1.6c-0.1-0.4,0.3-1.1,0-1.4c-0.1,0-0.2,0-0.3,0
	c-0.2-0.2,0.4,0,0.5-0.1c0-0.1-0.3-0.1-0.4-0.1c0-0.1-0.3-0.1-0.5-0.1c-0.2-0.2,0.2,0,0.3-0.1c0-0.2,0.4,0.1,0.1-0.1
	c0.1-0.1,0-0.2-0.1-0.2c-0.1-0.1,0.3-0.1,0.1-0.2c0-0.1,0-0.1-0.1-0.4c0,0,0,0,0,0c0,0,0,0,0,0c0,0,0,0,0,0c0-0.1-0.1-0.2,0-0.2
	c0.1,0,0.2,0,0.1-0.1c0.1-0.2,0.4-0.1,0.2-0.2c0.1-0.2-0.1,0.1-0.2-0.1c0-0.1,0.1-0.1-0.1-0.2c0.1-0.1,0.1-0.2,0.2-0.1
	c0.1-0.1,0-0.1,0-0.2c0.1-0.4,0.4-0.2,0.7-0.1c0.3-1.1,0.5-2.3,0.7-3.4c0.1-0.2,0.2-1.1,0-0.7c-0.1,0.1-0.4,0.1-0.4,0
	c-0.1-0.2-0.2,0.2-0.4,0c0,0.1-0.4,0,0-0.1c0,0,0.1-0.1,0.1-0.1c0,0-0.1,0,0-0.1c0,0,0,0.1,0,0.1c0.1,0,0.1-0.1,0-0.2
	c0.1-0.1-0.1-0.1-0.1-0.2c-0.3,0,0-0.1-0.1-0.2c0-0.2,0-0.1-0.1-0.2c0.2-0.1,0.1-0.1,0.1-0.2c-0.1-0.2,0.1-0.2,0.3-0.2
	c0.1-0.1,0.2-0.4,0.1-0.4c0-0.2-0.5,0-0.4-0.3c0,0,0.1-0.2,0.3-0.2c0.9-0.3,1.8-0.4,2.7-0.4C43,106.7,43.3,106.7,43.6,106.8z
	 M39.6,119.2c-0.2,0.2,0.2-0.1,0.1,0C39.7,119.1,39.7,119.1,39.6,119.2z M39.8,108.9c-0.1,0.2,0.2,0.1,0.1,0
	C39.9,108.9,39.9,108.9,39.8,108.9z M40.6,109.3c-0.1,0.1-0.3,0.1-0.1,0.1C40.4,109.3,40.8,109.5,40.6,109.3
	C40.6,109.3,40.6,109.3,40.6,109.3C40.6,109.3,40.6,109.3,40.6,109.3C40.5,109.3,40.5,109.3,40.6,109.3z M40.6,109.3
	C40.6,109.3,40.6,109.3,40.6,109.3C40.6,109.3,40.6,109.3,40.6,109.3z M41.3,119.7c0.2,0.1,0,0.1,0,0.2c0.3,0-0.1,0.1,0,0.3
	c-0.2,0.2-0.1,0.1-0.1,0C41.2,120.1,41.2,119.8,41.3,119.7C41.3,119.6,41.3,119.6,41.3,119.7C41.3,119.7,41.3,119.7,41.3,119.7z
	 M43,109c-0.1-0.1-0.1,0.1-0.1,0.2c0,0.2,0,0.4-0.1,0.4c0.2,0.1-0.1,0.1,0,0.4c0.1,0,0.1,0.1,0,0.3c-0.1-0.3-0.1,0.3-0.2,0.4
	c0,0.1-0.2,0.4,0,0.4c-0.1,0.1-0.1,0-0.2,0.2c0.1,0,0.1,0.1,0.1,0.2c0,0,0,0,0,0c0,0,0,0,0,0c0,0.1-0.1,0.2-0.1,0.2
	c0.3,0.2,0,0.1-0.1,0.3c0,0,0,0,0,0c0.1,0,0,0,0,0c0,0.1,0,0.1-0.1,0.2c0,0,0,0,0.1,0c0,0.1,0,0.1-0.1,0.1c0,0.1,0,0.1-0.1,0.2
	c1.1-0.5,2.1-1.2,2.9-2.1c0.1-0.2,0.6-0.6,0.3-0.7c-0.1,0-0.1-0.1-0.2-0.1c0,0,0,0,0,0c-0.1,0-0.1-0.1-0.2-0.1
	c-0.1,0.1-0.3,0.1-0.2,0c0.1,0,0.3-0.2,0.1-0.3c-0.2-0.1-0.1,0-0.2,0.1c0.1-0.1-0.1-0.2-0.2-0.2c-0.1,0-0.4-0.2-0.6-0.2
	c-0.1,0.1-0.3-0.1-0.5,0C43.4,109,43.1,109.1,43,109C43,109,43,109,43,109z M44.4,117.1C44.5,117.2,44.5,117.1,44.4,117.1
	C44.4,117.1,44.4,117.1,44.4,117.1z M44.6,109.5C44.7,109.5,44.5,109.6,44.6,109.5C44.5,109.5,44.6,109.5,44.6,109.5z M44.7,117.1
	C44.6,117.2,44.8,117.1,44.7,117.1C44.8,117.1,44.8,117.1,44.7,117.1z M44.8,109.9C45.1,110.2,44.7,109.9,44.8,109.9
	C44.8,109.9,44.8,109.9,44.8,109.9z M44.8,117.2c0.1,0,0.3,0.1,0.2-0.1C45.1,117.2,44.7,117,44.8,117.2z M45.5,110
	C45.4,110.3,45.4,110,45.5,110C45.5,109.9,45.6,110,45.5,110z"/>
<path d="M54.3,106.1c0,0,0.2,0.1,0.2,0.1c-0.1-0.1,0.2,0,0,0.2c0.1-0.1,0.1,0.2,0.2,0.2c0.1,0.1,0.3,0.2,0.2,0.3
	c0.1,0.1,0.1,0,0.2,0c0.1,0,0,0.2,0.2,0.3c0.2-0.1,0,0.2,0.1,0.1c0.1,0.1,0.3,0.2,0.2,0.4c0,0.1,0.2-0.1,0.1,0.3
	c0,0.1,0,0.2-0.1,0.3c0,0.2,0,0.3,0.1,0.5c-0.1,0.6,0-0.4-0.1,0.1c0,0.2-0.1,0.3-0.1,0.5c0,0,0,0,0,0.1c0,0,0,0,0,0c0,0,0,0.1,0,0.2
	c-0.1,0-0.1,0.4-0.1,0.5c-0.1,0.2,0,0.2-0.1,0.4c-0.1,0.2,0,0.5-0.1,0.6c0,0,0,0,0,0c0,0,0,0,0,0c0,0.1,0,0.1,0,0.1
	c0,0.1-0.1,0.3-0.1,0.4c-0.1,0.1,0,0.4-0.1,0.4c-0.1,0.1,0,0.1,0,0.2c0,0.3-0.1,0.7-0.1,0.8c-0.1,0.5-0.2,1-0.3,1.5
	c-0.1,0.4,0,0.8-0.1,1.1c0,0.3-0.1,0.4-0.1,0.8c0,0.3,0,0.6-0.1,0.9c0,0.2,0,0.3-0.1,0.5c0,0.3,0,0.7,0,1c0,0.1,0.1,0.3-0.1,0.5
	c0.1,0,0,0.3,0,0.3c-0.2,0.3,0-0.2-0.2-0.2c0.1-0.2,0,0-0.1-0.2c-0.1,0.1-0.1,0.2-0.1,0c-0.1,0.3-0.1,0-0.2,0c0-0.2-0.1,0.2-0.1,0
	c-0.1-0.2-0.2,0.1-0.2,0.1c-0.1-0.2-0.2-0.1-0.3-0.1c-0.2,0.2-0.4-0.9-0.5-0.6c-0.1-0.2-0.2,0.1-0.2,0.1c-0.1,0.1-0.1,0.4-0.3,0.5
	c0-0.1-0.1,0-0.1,0.1c-0.2,0.1-0.1,0-0.1-0.1c-0.1,0.1-0.3,0.3-0.6,0.3c-0.1-0.1-0.1-0.1-0.3-0.1c0,0.1-0.1,0.1,0,0
	c-0.1,0-0.2,0-0.3-0.1c-0.2-0.1-0.3,0-0.4-0.1c-0.1,0.1-0.1-0.1-0.1-0.1c-0.2-0.1-0.1-0.1-0.4-0.2c-0.3,0-0.2-0.1-0.5-0.1
	c-0.3,0.2,0,0-0.3-0.1c-0.1,0,0.1,0.2-0.2,0c-0.8-0.6-1-1.8-1-2.8c0.1-2.6,0.8-5.1,1.8-7.5c0.1-0.5,0.7-1.1,0.6-1.5
	c0.2-0.2,0.1-0.1,0.1-0.2c0.1-0.2,0.3-0.1,0.3,0c0.2-0.1,0-0.3,0.3-0.1c0.1,0,0.2,0.3,0.3,0.3c-0.1,0.3,0,0.2,0,0.5
	c0.1-0.3,0,0.2,0.1,0c0,0.2-0.1,0.3,0.1,0c-0.1-0.3,0.3-0.1,0.1,0c0.2,0.1-0.2,0.2,0,0.2c0.1-0.1,0.1,0,0.2,0.1
	c0.1,0.1,0.1,0.2,0.3,0.2c0,0,0,0,0,0c0,0,0,0,0,0c0,0.2,0.1,0.4-0.1,0.6c-0.1,0.1-0.3,0.4-0.1,0.5c-0.1,0.2-0.1,0.2-0.1,0.5
	c-0.1,0.4-0.1-0.1-0.2,0.2c0.2,0.1,0,0.1,0,0.4c0.2,0.1-0.1,0.5,0,0.4c-0.1,0.1-0.1,0.1,0,0.3c0,0-0.1,0-0.2,0.1
	c-0.1,0.1,0,0.2,0,0.3c-0.1,0.2,0,0.1,0,0.3c-0.2-0.1-0.1,0-0.2,0.1c0,0,0,0,0,0c0,0,0,0,0,0c-0.1,0.2,0,0.2-0.1,0.4
	c0,0.1-0.2,0.3-0.1,0.5c0.1,0.1,0.1,0.3,0,0.3c-0.1-0.2-0.1,0.2-0.1,0.2c-0.2,0.1,0.1,0.2-0.1,0.3c0.1,0.2,0,0-0.1,0.2
	c0.1-0.2,0.1,0.3,0,0.4c0,0.1-0.1,0.3-0.1,0.5c-0.1,0.2-0.1,0.3-0.1,0.5c0,0.1-0.2,0.3,0,0.2c0,0,0,0.1,0,0.1c0,0,0,0,0,0
	c0,0,0,0.1,0,0.1c0,0.1,0,0.1-0.1,0.1c0,0,0,0,0,0c0.1,0,0,0,0,0c0,0,0,0.1,0.1,0.1c-0.1,0.1-0.1,0.3-0.1,0.4c-0.1,0.1,0,0.2,0,0.3
	c0.1,0.1-0.1,0.6,0.1,0.7c-0.1,0.1,0.1,0.2,0,0.4c0,0.2-0.1,0.4,0.1,0.2c0.4-0.3,0.7-0.7,1-1c0.3-0.4,0.8-0.8,0.9-1.3
	c0.2-1.9,0.7-3.7,1.1-5.6c0.3-1,0.5-2.1,0.9-3.1c0-0.3,0.1,0.2,0.1,0C54.1,106.3,54,106.3,54.3,106.1
	C54.2,106.1,54.3,106.1,54.3,106.1z M48.9,118.8C48.9,118.9,48.7,118.9,48.9,118.8C48.9,118.8,48.9,118.8,48.9,118.8z M49.8,119
	c0.1,0.1,0.1,0.1,0.2,0.1C50.4,119.4,50,119,49.8,119C49.8,119,49.8,119,49.8,119z M49.8,115C49.8,115,49.8,115,49.8,115
	C49.9,115,49.8,115,49.8,115z M50,113.8c0.1-0.2,0,0,0-0.1C50,113.7,50,113.8,50,113.8z M51.5,118.9c-0.1,0-0.3,0.1-0.4,0.2
	c-0.2,0-0.2,0-0.4,0c-0.1,0-0.1,0-0.2,0c0,0,0,0,0,0c0,0,0,0,0,0c0,0,0,0-0.1,0c0,0-0.1-0.1-0.1,0c0.1,0.2,0.4,0.2,0.6,0.2
	c-0.2,0.2,0,0,0.1-0.1c0,0.2,0.4,0,0.6-0.1c0.3-0.2-0.1,0-0.1-0.3C51.6,118.8,51.6,118.9,51.5,118.9z M52.7,102.8
	c0.2,0.1,0.3,0.4,0.3,0.5c0,0.1,0.2,0.2,0.3,0.3c-0.1,0.1,0.1,0.1,0.1,0.2c-0.1-0.1-0.1,0,0,0.1c0.1,0.1,0.1,0.2,0.1,0.3
	c0,0.2-0.1,0.3,0,0.4c0,0.1-0.1,0.1-0.1,0.2c0.1,0.1-0.3,0.1-0.2,0.3c0.1,0.1-0.1,0,0,0.1c0,0.1-0.2,0.2-0.3,0.3
	c0,0.1-0.1,0.1-0.1,0.2c-0.1,0.1-0.3,0.2-0.4,0.3c0,0,0.3-0.3,0.3-0.3c0.2-0.1,0-0.1-0.1,0c-0.1,0,0,0,0,0c0,0,0,0,0,0
	c0,0.1-0.2,0.1-0.1,0c0.1-0.1-0.3,0.1-0.1,0.1c0.1-0.1,0,0.1-0.2,0.2c-0.1,0,0.2-0.1,0-0.1c-0.1,0,0,0-0.1,0.1
	c-0.1-0.1-0.2,0.1-0.4,0.1c0,0-0.3-0.3-0.3-0.1c0,0.1-0.2-0.2-0.3-0.2c-0.1,0.1,0.1,0.3,0.1,0.4c0,0.2-0.1,0-0.1-0.1
	c-0.1,0-0.1-0.3-0.2-0.2c-0.1,0-0.1-0.2,0-0.1c0-0.2-0.2-0.4-0.3-0.6c-0.3-0.1-0.4-0.4-0.4-0.7c0-0.8,0.7-1.4,1.4-1.6
	c0.2,0,0.3-0.1,0.5-0.1C52.4,102.7,52.6,102.7,52.7,102.8z M50.5,119.1C50.5,119.1,50.5,119.1,50.5,119.1
	C50.5,119.1,50.5,119.1,50.5,119.1z M50.9,110.6L50.9,110.6C50.9,110.6,50.9,110.6,50.9,110.6z M51,118.9
	C50.9,119,51.1,118.9,51,118.9C51,118.9,51,118.9,51,118.9z M51.4,108c0.2,0.2,0.1-0.1,0.1-0.2C51.2,108,51.1,107.9,51.4,108z
	 M51.6,107.8C51.6,107.8,51.6,107.8,51.6,107.8C51.6,107.8,51.6,107.8,51.6,107.8z M51.9,106.2c-0.1,0-0.4,0.1-0.4,0
	C51.7,106.2,51.9,106.2,51.9,106.2C52.1,106.2,52,106.2,51.9,106.2z M52.1,106.1C52.1,106.2,52,106.1,52.1,106.1
	C52.1,106.1,52.1,106.1,52.1,106.1z M52.2,106.1C52.1,106.1,52.2,106.1,52.2,106.1C52.3,106,52.2,106.1,52.2,106.1z M52.5,105.7
	C52.5,105.7,52.5,105.7,52.5,105.7C52.5,105.7,52.5,105.7,52.5,105.7z M56.2,103c0.1,0,0.1,0.2,0.2,0.2c0.1,0.1,0.2,0.3,0.2,0.4
	c0.1,0.1,0,0.1,0.1,0.2c0,0.2,0,0.5-0.1,0.7c0,0.1-0.1,0.1-0.1,0.2c0.1,0.2-0.3,0.2-0.1,0.3c-0.1,0,0,0.1-0.1,0.1c0,0-0.2,0.1-0.1,0
	c0.1-0.2,0-0.1,0,0c0,0.1-0.3,0.3-0.2,0.3c0,0,0,0.1,0.1-0.1c0.2,0.1-0.2,0.2-0.2,0.2c0.1-0.1,0.1-0.2,0-0.1c-0.1-0.1,0.1,0,0.1-0.1
	c-0.1,0-0.1,0.1-0.2,0.1c0.1,0,0,0.2-0.1,0.1c0.1-0.2-0.2,0-0.2,0c-0.1,0.1,0.1,0.1,0.1,0.1c-0.2,0.2-0.3-0.1-0.4,0
	c-0.1,0.1-0.1-0.2-0.2-0.1c0,0-0.1,0-0.1-0.1c-0.1-0.1-0.1,0-0.1,0.1c0.1,0.1,0.1,0.5,0,0.2c-0.1-0.1,0-0.3,0-0.5
	c-0.2-0.1-0.3-0.4-0.4-0.6c-0.2-0.2-0.3-0.4-0.3-0.7c0-0.3,0-0.6,0.2-0.9c0.2-0.5,0.7-0.8,1.2-0.8C55.6,102.2,56.1,102.5,56.2,103z
	 M54.8,105.9c0,0.1,0.1,0,0.1,0.1c0.1-0.1,0.4-0.1,0.3,0c0,0.1-0.1,0-0.2,0.1C54.9,106.1,54.6,106,54.8,105.9
	C54.8,105.9,54.8,105.9,54.8,105.9z M55,111.6L55,111.6C54.9,111.6,55.1,111.7,55,111.6z M55.5,105.8c0,0.1-0.3,0.3-0.2,0.1
	C55.4,105.8,55.4,105.9,55.5,105.8c0.1,0,0.1-0.1,0.2-0.2C55.9,105.8,55.6,105.8,55.5,105.8z M56.2,105.4c-0.1,0-0.1-0.1,0-0.1
	C56.2,105.3,56.3,105.3,56.2,105.4z"/>
<path d="M62.4,105.8c0.1,0.1,0.2,0,0.4,0.2c0,0,0.2,0.3,0.3,0.2c0,0.2,0.2,0.1,0.3,0.3c0.2,0.1,0.3,0.1,0.4,0.2
	c-0.1,0.1,0,0.1,0.1,0.1c-0.2,0,0.1,0.1,0.1,0.2c0.2,0.1,0,0.2,0.2,0.3c0,0.1,0.1,0.3,0.1,0.5c0,0.4,0.1,0.7,0.1,0.9
	c-0.1,0.1-0.2,0.5-0.2,0.7c-0.1,0.3-0.1,0.4-0.1,0.5c0,0,0,0.1,0,0.1c0,0,0,0,0,0c-0.1,0,0,0,0,0c0,0.1-0.1,0.2,0,0.1
	c0,0.2,0,0.3-0.1,0.5c-0.1,0-0.2,0.1-0.2,0.1c-0.2,0.3-0.1,0,0-0.2c-0.1,0.2,0.1-0.1,0.1-0.1c0,0,0,0-0.1,0c0,0,0-0.1,0-0.1
	c0,0.1,0,0.1,0,0.1c-0.1,0-0.2,0-0.1-0.1c0,0,0,0-0.1,0c0,0,0,0,0,0c0,0.1,0.1,0.3-0.1,0.2c-0.1,0.1-0.2,0.1-0.1,0.2
	c-0.1,0-0.1,0.1,0.1,0.1c0.1,0,0.2-0.1,0.2,0.1c0.3-0.3,0,0.4-0.1,0.1c-0.2,0.2,0-0.1-0.3,0.1c0,0.3-0.3,0.2-0.3,0.4
	c-0.1,0.1-0.2,0.4-0.1,0c0.2,0,0.1-0.1,0-0.1c-0.1,0.1,0,0.1-0.1,0.2c-0.1,0.1-0.2,0.2-0.3,0.3c-0.1-0.1,0,0.3-0.1,0.2
	c-0.3,0.1-0.2,0.3,0.1,0.4c0.4,0.3,0.8,0.7,1,1.2c0.1,0.3,0.3,0.9,0.2,1.2c-0.1,0,0,0.3,0,0.4c0,0.2-0.2-0.2-0.1,0.1
	c0.2-0.1-0.1,0.3,0,0.3c-0.1,0.3-0.1,0.2-0.1,0.4c0,0.2-0.1,0.1-0.1,0.3c0,0-0.2,0.2,0,0.1c-0.1,0.2-0.3,0.4-0.4,0.5
	c0,0-0.1,0.1-0.1,0.1c0,0,0,0,0,0c0,0,0,0,0,0c-0.1,0.1-0.2,0.2-0.3,0.3c0,0.2-0.5,0.3-0.5,0.5c-0.1,0-0.3,0.3-0.3,0.1
	c-0.1,0.1-0.1,0-0.2,0.1c0,0.1-0.1,0.1,0,0c0,0,0,0-0.1,0c0.1,0-0.2,0.3-0.2,0.1c-0.1,0-0.1,0-0.1,0c0,0.2-0.2,0.1,0,0
	c-0.1,0-0.3,0-0.3-0.1c0,0,0,0,0,0c0,0,0.1,0,0.1,0c0.2,0,0.4,0,0.5-0.1c0,0.2,0.3-0.1,0.5-0.1c0.2-0.1,0.4-0.2,0.5-0.4
	c0.2-0.1,0.4-0.4,0.5-0.6c0,0,0,0,0,0c0,0,0,0,0,0c0,0,0,0,0,0c-0.1,0.2-0.2,0.2-0.4,0.4c-0.2,0.1-0.2,0.2-0.3,0.2
	c0.1,0.1-0.1,0.1-0.2,0.2c0,0.1-0.4,0.2-0.1,0c0-0.2-0.3,0.1-0.5,0.1c-0.2,0.2-0.3,0-0.4,0.1c-0.2,0-0.2-0.2-0.4-0.1
	c-0.2,0,0,0.1,0.2,0.1c0,0.1-0.4-0.1-0.6-0.1c-0.2-0.1-0.9-0.3-0.5,0c0.3,0.2,0.3,0.1,0.4,0.2c-0.1,0.2,0.5,0.1,0.6,0.3
	c-0.3,0.1-0.2,0.1-0.5-0.1c0-0.1,0,0.1-0.1,0.1c-0.1-0.2-0.5-0.3-0.7-0.5c0.3,0-0.2-0.4-0.4-0.5c-0.1-0.2-0.4-0.2-0.4,0.1h0
	c0,0,0,0,0,0c0,0,0,0,0,0.1c-0.1,0,0,0.4-0.1,0.4c-0.1,0.1,0.1,0.3,0,0.3c-0.1,0.1-0.1,0.4-0.1,0.6c0,0.2,0,0.2-0.1,0.4
	c0.1,0.1-0.1,0.1,0-0.1c0.1-0.1,0-0.6-0.1-0.3c-0.1,0.1-0.1,0.1-0.1,0.2c-0.2,0-0.2,0.3-0.2,0.4c-0.1,0.1-0.3,0.2-0.1-0.1
	c-0.3,0,0,0-0.2,0.1c-0.1-0.1-0.3,0-0.3,0c-0.1-0.2-0.1,0.1-0.1,0.1c0-0.3-0.3,0.3-0.2-0.1c-0.1-0.1-0.3,0-0.1,0.1
	c-0.1,0.2-0.2-0.2-0.3,0c-0.3-0.1,0.1,0,0-0.2c0-0.2-0.1,0-0.1,0c0-0.1-0.1,0.2-0.3,0c0-0.1-0.1,0.1,0,0.1c0,0.1-0.1,0-0.2-0.1
	c-0.1,0.2-0.2,0.1-0.2-0.1c0.1-1.5,0.5-2.9,0.8-4.4c0.7-2.4,1.5-4.8,2.9-7c0.6-0.9,1.4-1.9,2.5-2C61.9,105.7,62.1,105.7,62.4,105.8z
	 M57.8,118.5c0,0.1,0.2-0.1,0.1-0.1h0C57.9,118.4,57.9,118.5,57.8,118.5z M58.1,118.2C58.2,118.2,58.2,118.2,58.1,118.2
	c0.1,0,0.1,0,0.1-0.1C58.2,118.2,58.2,118.2,58.1,118.2c0.1-0.1-0.1-0.1-0.1-0.2C57.8,118.2,58.2,118.2,58.1,118.2z M58.1,118
	L58.1,118C58.1,117.9,58.1,117.9,58.1,118C58.1,117.9,58.1,117.9,58.1,118C58,118,58,118,58.1,118z M58.2,117.7
	c-0.1,0.3,0,0.6,0.1,0.1c-0.1-0.1,0.2-0.5,0-0.5C58.2,117.6,58.3,117.5,58.2,117.7z M58.3,117.2c0.1,0.1,0.1-0.2,0.1-0.3
	C58.3,116.9,58.3,117.1,58.3,117.2z M58.4,117.2L58.4,117.2L58.4,117.2z M58.7,115.5C58.7,115.4,58.7,115.4,58.7,115.5
	C58.7,115.4,58.7,115.5,58.7,115.5L58.7,115.5c0,0.2,0.1,0.1,0.1-0.1C58.7,115.4,58.7,115.4,58.7,115.5z M58.9,114.4
	c-0.1,0.1,0,0.3-0.1,0.4c0,0.2,0,0.4-0.1,0.5c0.2,0,0-0.4,0.2-0.4c-0.1-0.1,0-0.4,0.1-0.4c0-0.1,0.1-0.4,0.1-0.5
	C59,114.2,59,114.4,58.9,114.4z M59.6,113.3c-0.2,0-0.2,0.3-0.1,0.2c0.1-0.2,0,0.2-0.1,0.2c-0.3,0.2,0,0.4-0.2,0.5
	c0.1,0-0.2,0.2-0.2,0.6c0,0-0.2,0.6-0.2,0.8c-0.1,0.4,0.2,0,0.1,0.2c0.1,0.5,0.1-0.1,0.3,0.1c-0.2,0-0.1,0-0.1,0.1
	c0,0.4,1,0.1,1.2-0.3c0.4-0.4,0.9-1.1,0.8-1.7c0-0.1-0.6,0.1-0.2-0.2c0.2,0,0.2-0.4,0.1-0.2c-0.2,0.1-0.3,0-0.4,0
	c-0.2,0-0.3,0.1-0.3,0c0.1,0-0.2,0.1-0.2,0c-0.1,0.2-0.1,0.1-0.1,0c0,0.2-0.4,0.2-0.1,0C60.1,113.3,59.4,113.5,59.6,113.3
	C59.6,113.3,59.6,113.3,59.6,113.3z M59.9,113.7c0.1,0.1-0.3,0-0.1,0C59.8,113.7,59.8,113.7,59.9,113.7z M59.9,111.2
	c-0.1,0.2,0.3-0.2,0-0.2C60,111.1,59.8,111.2,59.9,111.2z M60,111.2c0.2-0.2,0.1,0,0-0.2C60,111.1,60,111.2,60,111.2z M60.1,113.8
	C60.1,114,60,113.7,60.1,113.8C60.1,113.7,60.1,113.8,60.1,113.8z M60.3,118c0,0-0.1,0-0.2,0C60.3,118.1,60.4,118.1,60.3,118
	c0.2,0.1,0.2-0.1-0.1-0.1C60.2,118,60.3,118,60.3,118z M61.8,108.5c0.1-0.2-0.2,0-0.2-0.1c-0.2-0.1-0.2,0.2-0.2,0.2
	c-0.1-0.1-0.2,0.2-0.3,0.3c-0.1-0.1,0,0.2,0.1,0c0.2-0.3,0,0.2-0.2,0.3c-0.1,0.2-0.2,0.2-0.3,0.2c-0.1,0.1-0.1,0.2,0.1,0.3
	c-0.1-0.2-0.1-0.1,0-0.2c-0.2-0.1,0.3,0,0.2,0c0,0.1-0.2,0.2-0.2,0.3c0,0.3-0.3,0.2-0.1,0c-0.1,0-0.3,0.1-0.2,0.1
	c0.1,0.1-0.1,0.3-0.1,0.3c-0.1,0.2-0.1,0.2-0.1,0c-0.2,0,0,0.5-0.2,0.3c-0.1,0.1-0.1,0.3,0.2,0.1c0,0.1,0.1-0.4,0.2-0.2
	c0,0.2-0.1,0.1-0.2,0.3c0,0.2-0.2,0-0.1-0.1c-0.2,0.1,0,0.3,0,0.3c0.6-0.6,1.2-1.3,1.5-2.1c0.1-0.3,0.2-0.4,0.2-0.5
	C62,108.5,61.6,108.7,61.8,108.5z M60.2,113.5C60.1,113.6,60.4,113.5,60.2,113.5C60.2,113.4,60.2,113.5,60.2,113.5z M60.2,111
	C60.2,110.9,60.2,110.9,60.2,111C60.2,110.9,60.2,110.9,60.2,111C60.2,110.9,60.2,110.9,60.2,111z M60.5,118.2
	C60.7,118.2,60.1,118.2,60.5,118.2C60.4,118.2,60.4,118.2,60.5,118.2C60.4,118.2,60.5,118.2,60.5,118.2z M60.4,118.1
	C60.4,118,60.3,118,60.4,118.1C60.4,118,60.3,118,60.4,118.1z M60.4,114.3c-0.2,0,0.3-0.3,0.4-0.3C60.7,114.1,60.5,114.2,60.4,114.3
	z M60.6,110.3c-0.1,0.1,0-0.1,0.1-0.2C60.7,110.2,60.7,110.3,60.6,110.3z M60.7,118C60.7,118,60.7,118,60.7,118
	C60.7,118,60.7,118,60.7,118C60.6,118,60.6,118,60.7,118z M61.1,113.6C61,113.8,60.8,113.6,61.1,113.6
	C61.1,113.6,61.1,113.6,61.1,113.6z M61.5,109c-0.3,0.1-0.2,0,0-0.2C61.7,109,61.5,108.8,61.5,109z M61.6,108.5
	c-0.2,0.1,0.1,0-0.1,0.1C61.2,109,61.4,108.6,61.6,108.5C61.6,108.5,61.6,108.5,61.6,108.5z M61.6,117.7
	C61.6,117.7,61.6,117.7,61.6,117.7C61.5,117.8,61.3,117.8,61.6,117.7C61.6,117.7,61.6,117.7,61.6,117.7z M61.6,108.7
	C61.5,108.8,61.6,108.7,61.6,108.7C61.6,108.7,61.6,108.7,61.6,108.7z M61.9,108c-0.1,0-0.2,0.3-0.1,0.1c0.1,0,0.3-0.1,0.3-0.3
	c0,0,0.1,0,0,0c0,0,0,0,0,0c0,0,0,0,0,0C62,107.9,61.8,107.9,61.9,108z M61.9,108.2c0,0.2,0.2,0.1,0.1-0.1
	C62,108.2,61.9,108.1,61.9,108.2z M62.1,107.8C62.1,107.8,62.1,107.8,62.1,107.8C62.1,107.8,62.1,107.8,62.1,107.8z M62.5,112.2
	c-0.1-0.1,0-0.3,0-0.2c0.1,0,0.1,0,0.2-0.1C62.9,112,62.6,112.2,62.5,112.2z M62.7,112.3C62.4,112.7,62.3,112.5,62.7,112.3
	C62.7,112.3,62.7,112.3,62.7,112.3z M62.7,117.1C62.7,117.1,62.7,117.1,62.7,117.1C62.7,117.1,62.7,117.1,62.7,117.1z M63.2,111.7
	c0,0.1-0.1,0.2-0.2,0.3c0,0,0,0,0,0c0,0,0,0,0,0c-0.2,0-0.3,0.3-0.2,0C62.9,111.9,63,111.8,63.2,111.7
	C63.2,111.7,63.2,111.8,63.2,111.7z M63.1,111.2c-0.1,0.1-0.2,0.2-0.2,0.2c-0.1,0.1,0.1,0.2,0.1,0.1c0-0.2,0.3-0.2,0.2-0.4
	C63.2,111.2,63.2,111.1,63.1,111.2z M63.3,111.7c-0.2,0,0.1-0.3,0.1-0.3C63.5,111.5,63.3,111.6,63.3,111.7z M63.5,110.9
	c0.1,0.1-0.2,0.1,0.1-0.1C63.6,110.8,63.5,110.9,63.5,110.9z M63.9,110.3c0-0.1-0.1,0,0-0.2C63.7,110.3,63.7,110.6,63.9,110.3z
	 M64,110C64,110,64,110,64,110C64.1,110,64.1,110,64,110z M64.1,110.1C64.1,110.2,64,110.2,64.1,110.1
	C64.1,110.1,64.1,110.1,64.1,110.1z"/>
<path d="M68.2,105.1c0.2,0,0.2,0.1,0.3,0.1c0,0.1,0.1,0.2,0.3,0.3c1.1-0.4,2.3-0.5,3.5-0.6c0.4,0,1-0.1,1.2,0
	c0.2-0.2,0.3,0.1,0.4,0.1c0.1-0.1,0.2,0.1,0.3,0.1c0,0.1,0.2,0.1,0,0.2c0.1,0,0.1,0.2-0.1,0.3c0,0-0.1,0.2-0.1,0.2
	c0,0.2,0,0.2-0.1,0.2c0,0.2,0.2,0.2,0.2,0.4c-0.1,0.1-0.1,0.1-0.2,0.3c-0.3-0.1-0.2,0.2-0.1,0.3c0,0.2-0.3-0.1-0.3,0
	c-0.2,0-0.3,0.1-0.4,0c-0.2,0.1-0.4,0-0.4,0.2c-0.1,0.1-0.3,0,0-0.1c-0.1,0.1-0.2,0-0.3,0.1s0,0-0.2,0.1c0-0.2-0.3,0.1-0.4,0
	c-0.1,0-0.3,0.1-0.4,0.1c0,0.1-0.3-0.1-0.5,0.1c0,0,0,0,0,0c0,0,0,0,0,0c0.2,0,0.4,0.1,0.1,0.2c0-0.2-0.4,0.2-0.4,0.1
	c0,0-0.5,0.2-0.3,0c-0.2-0.1-0.1,0.2-0.3,0.1c-0.2,0.1-0.3-0.1-0.3-0.1c0.2,0.2-0.4,0.3-0.2,0.1c-0.2-0.1-0.1-0.1,0-0.2
	c-0.3-0.2,0,0.3-0.2,0.1c-0.2,0,0,0.2-0.2,0.2c-0.1-0.1-0.2,0.1-0.1,0.3c-0.1,0.2,0-0.2-0.1,0.1c0,0.1,0,0-0.1,0.2
	c0.1,0.1-0.1,0.1,0.1,0.2c0,0.3-0.3,0.2-0.2,0.4c-0.1,0.1,0,0.1,0,0.3c-0.1,0.2-0.3,0.4-0.1,0.4c0,0-0.1,0.1-0.1,0.1c0,0,0,0,0,0
	c0,0,0,0,0,0c0,0.1-0.1,0.1-0.1,0.1c0,0,0.2,0.2,0,0.2c0,0,0,0.2,0,0.4c0,0,0,0,0,0c0,0,0,0,0,0c0,0,0,0,0,0.1
	c1.1-0.3,2.1-0.6,3.2-0.7c0.4,0,0.9-0.1,1.3,0c0,0,0.1,0,0.1,0.2c0.3,0.2-0.1,0.1,0.1,0.2c-0.2,0.2,0,0.1,0,0.3
	c-0.1-0.1-0.1,0-0.1,0.1c0.2,0,0,0.1,0,0.2c-0.1-0.1-0.1-0.3-0.1,0c0.1,0.1,0.3,0.4,0.1,0.2c0,0-0.1,0.1-0.2,0.2c0,0,0,0,0,0
	c0,0,0,0,0.1,0c0.1,0.1,0.2,0.1,0,0.2c-0.3,0.2,0,0,0,0.2c0.2-0.1,0,0.2-0.1,0.2c-0.2-0.1-0.2,0.2-0.1,0.1c0.1,0-0.1,0.3-0.1,0.1
	c0,0.2-0.5,0.1-0.4,0.3c-0.2-0.1-0.2,0.2-0.3,0.1c-0.2,0.2-0.2-0.1-0.2,0.1c-0.2,0-0.4-0.1-0.6,0c-0.1,0.1-0.3,0-0.4,0.1
	c-0.1,0-0.1,0-0.2,0c-0.2-0.1-0.1,0.2-0.2,0.1c0.2-0.1-0.5,0-0.2,0.1c-0.3,0.2-0.2-0.2-0.4,0c-0.2,0.2-0.1,0.1-0.2,0.1
	c-0.1,0-0.2,0-0.3,0.1c0.1,0.1-0.1,0.1,0,0c-0.1,0.1-0.2,0.1-0.3,0.1c-0.1,0.1-0.3,0.1-0.2,0.1c-0.1-0.1-0.1,0.1-0.2,0
	c-0.1,0.2-0.5,0.2-0.4,0.2c-0.2-0.1-0.1,0.5-0.2,0.8c-0.2,0,0.1,0.1,0,0.4c-0.1,0.1,0,0.3,0,0.5c-0.1,0,0.2,0.3,0,0.4
	c0,0.4,0.1-0.1,0,0.3c0,0,0,0.1,0,0.1c0,0,0,0,0,0c0.1,0,0.1,0.1,0,0.1c0,0.1,0,0.1,0.1,0.2c0.1,0.3-0.1,0,0,0.3
	c0.1,0.1,0,0.1,0.1,0.2c0.9-0.2,1.7-0.8,2.4-1.4c0.1,0,0.1,0,0.3,0.1c0.1-0.1,0.1,0,0.2,0.1c0.3-0.1-0.1,0.2,0.1,0.1
	c0.2,0.1,0.3-0.2,0.4,0c-0.1,0.1,0.1,0.1,0.2,0c0.1,0,0.1,0.3,0.1,0.1c0,0,0,0,0,0c0,0,0,0,0-0.1c0,0.2,0.5-0.1,0.4,0.1
	c0.3,0,0.1,0.3,0.3,0.3c0.1,0,0,0.2,0.2,0.1c0,0.3-0.2-0.1-0.3,0.1c0,0.2-0.3,0.1-0.1,0c-0.1,0-0.2,0.3-0.1,0.2
	c0,0.1-0.1,0.3-0.3,0.3c-0.2,0.2-0.4,0.2-0.5,0.4c-0.1,0.1-0.4,0.2-0.3,0.2c0.1,0,0.3-0.2,0.4-0.3c0,0.3,0.1,0.1,0.2,0.1
	c0.1-0.1,0.3-0.2,0.4-0.3c0.2-0.1,0.2,0,0,0.1c-0.3,0.1-0.5,0.4-0.7,0.5c-0.1,0.2-0.3,0.1-0.3,0.3c-0.1,0-0.2,0.2-0.4,0.2
	c-0.1,0-0.1,0.1-0.3,0.2c-0.3,0.1-0.7,0.3-1.1,0.3c-0.4,0-0.6-0.1-0.9-0.2c-0.2,0-0.3-0.1-0.5-0.2c0.2,0-0.1-0.2-0.2-0.2
	c-0.3-0.2-0.1,0.1-0.3,0c-0.3-0.2,0,0.1-0.2,0c-0.1-0.1-0.1-0.1-0.2-0.1c0,0,0,0,0,0c0,0,0,0,0,0c0,0-0.1,0-0.1,0
	c-0.8-0.4-1.1-1.4-1.2-2.3c-0.1-1.9,0.3-3.8,0.9-5.7c0.1-0.3,0.4-0.9,0.3-1c0-0.2-0.1-0.1-0.2-0.4c-0.2,0.1-0.1-0.2-0.1-0.3
	c0.1-0.1-0.2,0-0.3-0.2c0.4,0-0.1-0.1,0.1-0.2c0.2,0,0.1-0.1,0.2-0.2c-0.1-0.2,0-0.2,0-0.3c0.2,0,0.2-0.2,0.2-0.2
	c0-0.2-0.1,0-0.2-0.1c0.2,0,0-0.1-0.1-0.1c0.1,0.2-0.3-0.3-0.2-0.3c0-0.1,0.4-0.1,0.2-0.1c0.8-0.3,1.7-0.1,1.7-0.7
	c0-0.2,0.2-0.3,0.2-0.2C68,105.3,68,105.1,68.2,105.1C68.1,105.1,68.1,105.1,68.2,105.1z M66.4,117.5
	C66.4,117.5,66.4,117.5,66.4,117.5C66.5,117.5,66.4,117.5,66.4,117.5z M67.3,117.8C67.3,117.9,67.4,117.9,67.3,117.8
	C67.4,117.9,67.3,117.9,67.3,117.8z M68.2,109.9C68.1,110,68.3,109.9,68.2,109.9L68.2,109.9z M68.4,117.9c0.3,0.1,0.4,0.1,0.5,0
	c0-0.1-0.4,0.1-0.2,0C69,117.8,68.6,117.9,68.4,117.9C68.5,117.9,68.3,117.9,68.4,117.9z M68.5,118C68.4,118.1,68.6,118,68.5,118
	C68.5,118,68.5,118,68.5,118z M68.6,105.2C68.8,105.4,68.4,105.2,68.6,105.2C68.6,105.2,68.6,105.2,68.6,105.2z M69,117.9
	c-0.2,0.3,0,0.1,0.2,0.1c0.1,0,0.4,0,0.2-0.1C69.3,117.8,69,117.9,69,117.9z M69.4,107.5C69.5,107.6,69.5,107.5,69.4,107.5
	C69.4,107.5,69.3,107.5,69.4,107.5z M70.2,117.4c0,0.1-0.3,0.1-0.4,0.2c-0.3,0.2,0,0.1,0,0.1c0.2,0,0.4-0.1,0.5-0.1
	c0-0.1,0.4-0.4,0.2-0.2c0.1,0.1,0.2-0.2,0.1-0.2C70.6,117.4,70.4,117.3,70.2,117.4z M70.1,117.9C70.1,117.9,70.1,117.8,70.1,117.9
	C69.9,117.8,70,117.9,70.1,117.9C70,118,70.1,118,70.1,117.9C70.1,117.8,70.1,117.8,70.1,117.9z M71.4,115.4
	C71.4,115.5,71.4,115.5,71.4,115.4C71.4,115.5,71.4,115.5,71.4,115.4z M71.7,107.2C71.8,107.3,71.5,107.2,71.7,107.2
	C71.7,107.2,71.7,107.2,71.7,107.2z M71.9,116.5C71.6,116.8,71.7,116.6,71.9,116.5C72,116.5,71.8,116.5,71.9,116.5z M72,116.6
	C72,116.6,72,116.6,72,116.6C72.1,116.6,72.1,116.6,72,116.6z M72.8,111C72.8,111,72.8,111,72.8,111C72.8,111,72.8,111,72.8,111z
	 M72.8,111.3C72.8,111.3,72.8,111.3,72.8,111.3C72.9,111.3,72.9,111.4,72.8,111.3z M73.1,106.7C73,106.8,73.2,106.7,73.1,106.7
	C73.1,106.7,73.1,106.7,73.1,106.7z M73.6,105.6c0.1,0.1-0.1,0.3,0.2,0.2C73.7,105.6,73.9,105.7,73.6,105.6
	C73.6,105.6,73.6,105.6,73.6,105.6z"/>
<path d="M82.6,104.2c0.1,0.1,0.3,0.4,0.5,0.4c0.1,0.1,0.2,0,0.3,0.1c0.1,0.2,0.4,0.3,0.4,0.4c0.2,0.2,0.3,0.4,0.4,0.7
	c0,0.4,0.2,0.3,0.2,0.7c-0.1,0-0.1,0.1-0.1,0.2c0.1-0.2,0.2,0.4,0,0.2c0,0.5,0.1,1,0,1.4c-0.1,0.1,0.2,0.1,0,0.2
	c-0.1,0.1,0,0.1,0,0.2c0,0,0-0.1,0-0.1v0c0.1-0.1,0.1-0.1,0.1,0.2c-0.1,0-0.2,0.4-0.1,0.4c0.1,0.3,0,0.4,0,0.7
	c0.1,0.1-0.1,0.4,0.1,0.3c0,0.2,0,0.2-0.1,0.1h0c0,0,0,0-0.1,0.1c0,0.3,0.2,0.3,0.1,0.5c0.1,0.1-0.2,0.4,0,0.6c0,0.2-0.2,0-0.1,0.2
	c0.1-0.1,0.1,0.1,0.3,0.1c-0.1,0.1-0.2,0.1-0.2,0.2c0.2,0,0.2,0.2,0,0.3c0,0.1,0.4,0,0.2,0.1c-0.2-0.1-0.1,0.2-0.2,0.1
	c-0.1-0.1-0.1,0.1-0.1,0.1c-0.1,0.1,0.4-0.1,0.2,0c-0.2,0,0.1,0.2-0.1,0.1c-0.1,0.1,0.1,0-0.1,0.2c-0.1-0.1,0,0.1-0.1,0.2
	c-0.1,0,0.1,0.3,0,0.3c0,0.2,0,0.2,0,0.5c0,0.2,0,0.4,0,0.6c0.2,0.1,0,0.1,0,0.2c-0.1,0-0.1,0.4-0.1,0.4c0.2,0.1-0.1,0.1,0,0.2
	c-0.1,0.1,0,0.4-0.1,0.5c0,0.2,0,0.3,0.1,0.5c0,0.3-0.4-0.2-0.3,0c-0.1,0-0.1,0.1-0.1,0.1c-0.1,0-0.3,0.1-0.3,0
	c0.1,0-0.2-0.1-0.2-0.1c0,0.3-0.2-0.2-0.2-0.1c-0.1,0.2-0.2-0.2-0.4-0.1c0-0.2-0.2-0.3-0.1-0.1c-0.1,0.2-0.4-0.1-0.4,0.1
	c-0.1,0.4-0.1-0.1-0.2,0c0,0.1-0.2-0.1-0.2,0c-0.2,0,0.3-0.3-0.1-0.2c0-0.6,0.1-1.1,0.1-1.7c0-0.3,0.2-1.1-0.2-1
	c-0.4-0.2,0.4,0,0.3-0.3c0.1-0.1,0-0.3-0.4-0.1c0.2,0.1-0.1,0.2,0,0c-0.1,0-0.3,0-0.4,0.1c-0.2,0-0.2,0.2,0,0.1
	c0.2,0.1-0.3,0.1-0.2,0.2c0.1,0,0,0.1,0.1,0.1c-0.2,0-0.6,0.2-0.7,0c-0.2,0.2-0.1,0-0.3,0c-0.2,0.2-0.4,0-0.5,0.1
	c-0.1-0.2-0.3,0-0.4-0.1c0,0.1,0,0.3,0,0.1c-0.1,0.1-0.1,0.2,0.1,0.1c0.2,0,0.1,0.4-0.1,0.3c-0.1,0.1,0,0.3-0.1,0.2
	c-0.1-0.3-0.3,0.5-0.2,0.4c0.1,0,0.1,0.3,0,0.2c0-0.2-0.4,1-0.4,1.1c0-0.2-0.2,0.1,0,0.1c0,0.2-0.1,0.3-0.1,0.1
	c-0.1,0.1-0.1,0.3-0.1,0.3c0,0,0,0.1,0,0.1c0,0.1,0,0.1-0.1,0.1c-0.3-0.1,0.2,0.2,0,0.1c0.1,0.2-0.3-0.1-0.2,0
	c-0.1-0.2-0.3,0.4-0.2,0c0.1-0.1-0.2-0.3,0-0.1c0,0.1,0,0.2-0.1,0.1c0,0,0.1,0,0,0c0,0,0,0,0,0c0,0,0-0.1,0-0.2
	c-0.4,0.1,0.1,0-0.1,0.2c0-0.1-0.2,0.1-0.2-0.1c0.2-0.1-0.2-0.2-0.2,0c0.2-0.2,0.1,0.3,0,0.1c0-0.2-0.2-0.1-0.1-0.2
	c0-0.4-0.2,0.3-0.2-0.1c0.1,0,0.1-0.3-0.1-0.2c-0.2,0.1,0-0.2-0.1-0.2c-0.1,0-0.2,0.1-0.3,0.1c0,0.1-0.2,0.1-0.2,0.1
	c0.1-0.2-0.3,0.2-0.1-0.1c0-0.1,0-0.3,0-0.4c0.1-0.2,0.1-0.1,0.1-0.3c0,0,0-0.2,0-0.3c1-3.4,2.7-7.5,4.1-9.4c0.5-0.8,1.1-1.6,2-2
	c-0.1,0.1,0.1,0,0.1,0c0,0,0.1-0.1,0.1-0.1C82.4,104,82.6,104.1,82.6,104.2z M77.2,117C77.2,117,77.2,117,77.2,117
	C77.2,117,77.2,117,77.2,117z M78.7,115.1C78.8,115.5,78.5,115.2,78.7,115.1C78.7,115.1,78.6,115.1,78.7,115.1z M79.2,113.8
	c0.2,0.2-0.1,0-0.1,0.1C79,113.9,79,113.8,79.2,113.8C79.2,113.8,79.2,113.8,79.2,113.8z M80.4,113.4
	C80.3,113.5,80.3,113.5,80.4,113.4c-0.3,0-0.6,0.1-0.9,0.1c-0.4,0-0.1,0.2,0.1,0.1c0.1,0,0.4,0,0.4-0.1
	C80.1,113.5,80.5,113.6,80.4,113.4C80.4,113.4,80.4,113.4,80.4,113.4z M79.9,113.8C79.9,113.9,79.5,113.9,79.9,113.8
	C79.9,113.8,79.9,113.8,79.9,113.8z M82,107.5c-0.1,0.1-0.1,0.4-0.2,0.4c0,0.2-0.4,0.2-0.2,0.3c0.1,0-0.3,0.4-0.3,0.2
	c0.1-0.1,0.1,0,0.1-0.2c-0.1,0.1-0.2,0-0.2,0.1c0,0,0,0,0,0c0,0,0,0,0,0c0,0-0.1,0.1-0.1,0.1c0,0,0,0,0,0c0,0,0,0,0,0.1
	c0,0,0,0.1-0.1,0c0,0.1,0,0,0,0.2c-0.3,0.2,0.1,0.1,0,0.2c0,0,0,0.3-0.1,0.1c0.2-0.2-0.1-0.1-0.1,0.1c-0.1,0.1-0.1,0.2-0.2,0.2
	c0,0.2-0.1,0.2-0.2,0.4c0,0.3,0.1,0,0.2-0.1c0.1-0.1,0.1-0.4,0.3-0.3c0,0-0.1,0.1-0.1,0.4c-0.1,0.1-0.1,0.1-0.2,0.4
	c-0.2,0.1,0,0.4-0.2,0.4c0-0.2,0-0.1-0.1,0.1c-0.2,0-0.4,0.3-0.1,0.3c0,0,0,0.1,0,0.1c0.2,0.1,1.2-0.1,1.7-0.1
	c0.1-0.8,0.1-1.6,0.2-2.4c0-0.4,0.2-0.9,0-1.1C82,107.4,82.1,107.5,82,107.5z M80.2,110.4c0.1,0.1,0.1-0.1,0.2-0.3c-0.1,0,0,0,0-0.1
	C80.3,110.1,80.3,110.3,80.2,110.4z M80.3,110.5C80.5,110.7,80.3,110.7,80.3,110.5C80.3,110.5,80.3,110.5,80.3,110.5z M81.2,113.5
	c0,0-0.1,0-0.1,0.1C80.7,113.5,81,113.5,81.2,113.5C81.2,113.5,81.2,113.5,81.2,113.5z M81.1,113.4c0-0.2-0.2,0,0.1-0.2
	C81.3,113.2,81.2,113.4,81.1,113.4z M81.1,108.5C81.2,108.5,81.2,108.4,81.1,108.5C81.2,108.5,81.2,108.5,81.1,108.5z M81.2,108.3
	C81.2,108.3,81.2,108.3,81.2,108.3C81.2,108.3,81.2,108.3,81.2,108.3z M81.4,108.4C81.4,108.4,81.4,108.4,81.4,108.4
	C81.5,108.4,81.3,108.6,81.4,108.4z M82.1,107.2c-0.1,0.1-0.1,0.2-0.2,0.3c0,0.1-0.3,0.4-0.2,0.3c0.1,0.2,0.3-0.2,0.2-0.3
	C81.9,107.4,82,107.3,82.1,107.2C82.1,107.3,82.1,107.3,82.1,107.2C82.1,107.2,82.1,107.2,82.1,107.2c0.1,0,0.1-0.1,0.1-0.1
	C82.1,107.1,82.1,107.1,82.1,107.2z M81.9,107.1C81.8,107.3,82,107.1,81.9,107.1C81.9,107,81.9,107,81.9,107.1z M82.1,107.2
	C82.1,107.2,82.1,107.2,82.1,107.2C82.1,107.2,82.1,107.2,82.1,107.2z M83.4,116.8C83.5,116.9,83.4,116.9,83.4,116.8
	C83.4,116.8,83.4,116.8,83.4,116.8z M84.2,110.1C84.2,110.1,84.2,110.1,84.2,110.1C84.1,110.1,84.3,110.2,84.2,110.1z"/>
<path d="M91.6,103.7c0,0,0.2,0.1,0.2,0.1c-0.1-0.1,0.2,0,0,0.2c0.1-0.1,0.1,0.3,0.2,0.2c0.1,0.1,0.3,0.2,0.2,0.3
	c0.1,0.1,0.1,0,0.2,0c0.1,0,0,0.2,0.2,0.3c0.2-0.1,0,0.2,0.1,0.1c0.1,0.1,0.3,0.2,0.2,0.4c0,0.1,0.2-0.1,0.1,0.3
	c0,0.1,0.1,0.2-0.1,0.3c0,0.2,0,0.3,0.1,0.5c-0.1,0.5,0-0.4-0.1,0.1c0,0.2-0.1,0.3-0.1,0.5c0,0,0,0,0,0.1c0,0,0,0,0,0
	c0,0,0,0.1,0,0.2c-0.1,0-0.1,0.4-0.1,0.5c-0.1,0.2,0,0.2-0.1,0.4c-0.1,0.2,0,0.5-0.1,0.6c0,0,0,0,0,0c0,0,0,0,0,0c0,0.1,0,0.1,0,0.1
	c0,0.1-0.1,0.3-0.1,0.4c-0.1,0.1,0,0.4-0.1,0.4c-0.1,0.1,0,0.1-0.1,0.2c0,0.3-0.1,0.7-0.1,0.8c-0.1,0.5-0.2,1-0.3,1.5
	c-0.1,0.4-0.1,0.8-0.1,1.1c0,0.3-0.1,0.4-0.1,0.8c0,0.3,0,0.6-0.1,0.9c0,0.2,0,0.3,0,0.5c0,0.3,0,0.7,0,1c0,0.1,0.1,0.4-0.1,0.5
	c0.1,0,0.1,0.3,0,0.3c-0.2,0.3,0-0.2-0.2-0.2c0.1-0.2,0,0-0.1-0.2c-0.1,0.1-0.1,0.2-0.1,0c-0.1,0.3-0.1,0-0.2,0c0-0.2-0.1,0.2-0.1,0
	c-0.1-0.2-0.2,0.1-0.2,0.1c-0.1-0.2-0.2-0.1-0.3-0.2c-0.2,0.2-0.4-0.9-0.5-0.6c-0.1-0.2-0.2,0.1-0.2,0.1c-0.1,0.1-0.1,0.4-0.3,0.5
	c0-0.1-0.1,0-0.1,0.1c-0.2,0.1-0.1,0-0.1-0.1c-0.1,0.1-0.3,0.3-0.6,0.3c0-0.1-0.1-0.1-0.3-0.1c0,0.1-0.1,0.1,0,0
	c-0.1,0-0.2,0-0.3-0.1c-0.2-0.1-0.3,0-0.4-0.1c-0.1,0.1-0.1-0.1-0.1-0.1c-0.2-0.1-0.1-0.1-0.4-0.3c-0.3,0-0.2-0.1-0.5-0.1
	c-0.3,0.2,0,0-0.3-0.1c-0.1,0,0.1,0.2-0.2,0c-0.8-0.6-1-1.8-1-2.8c0.1-2.6,0.8-5.1,1.8-7.5c0.1-0.5,0.7-1.1,0.6-1.5
	c0.2-0.2,0.1-0.1,0.1-0.2c0.1-0.2,0.3-0.1,0.3,0c0.2-0.1,0-0.3,0.3-0.1c0.1,0,0.2,0.3,0.3,0.3c-0.1,0.3,0,0.2,0,0.5
	c0.1-0.3-0.1,0.2,0.1,0c0,0.2-0.1,0.3,0.1,0c-0.1-0.3,0.3,0,0.1,0c0.2,0.1-0.2,0.2,0,0.2c0-0.1,0.1,0,0.2,0.1
	c0.1,0.1,0.1,0.3,0.3,0.2c0,0,0,0,0,0c0,0,0,0,0,0c0,0.2,0,0.4-0.1,0.6c-0.1,0.1-0.3,0.4-0.1,0.5c-0.1,0.2-0.1,0.2-0.1,0.5
	c-0.1,0.4-0.1-0.1-0.2,0.2c0.2,0.1,0,0.1,0,0.4c0.2,0.1-0.1,0.5,0,0.4c-0.1,0.1-0.1,0.1,0,0.3c0,0-0.1,0-0.2,0.1
	c-0.1,0.1,0,0.2,0,0.3c-0.1,0.2-0.1,0.1,0,0.3c-0.2-0.1-0.1,0-0.2,0.1c0,0,0,0,0,0c0,0,0,0,0,0c-0.1,0.2,0,0.2-0.1,0.4
	c0,0.1-0.2,0.3-0.1,0.5c0.1,0.1,0.1,0.3,0,0.3c-0.1-0.2-0.1,0.2-0.1,0.2c-0.2,0.1,0.1,0.2-0.1,0.3c0.1,0.2,0,0-0.1,0.2
	c0.1-0.2,0.1,0.3,0,0.4c0,0.1,0,0.3-0.1,0.5c-0.1,0.2-0.1,0.3-0.1,0.4c0,0.1-0.2,0.3,0,0.2c0,0,0,0.1,0,0.1c0,0,0,0,0,0
	c0,0,0,0.1,0,0.1c0,0.1,0,0.1,0,0.1c0,0,0,0,0,0c0,0,0,0,0,0c0,0,0,0.1,0.1,0.1c-0.1,0.1-0.1,0.3-0.1,0.4c0,0.1,0,0.2,0,0.3
	c0.1,0.1-0.1,0.6,0.1,0.7c-0.1,0.1,0.1,0.2,0.1,0.4c0,0.2-0.1,0.4,0.1,0.2c0.4-0.3,0.7-0.7,1-1c0.3-0.4,0.8-0.8,0.9-1.3
	c0.2-1.9,0.7-3.7,1.1-5.6c0.3-1,0.5-2.1,0.9-3.1c0-0.3,0.1,0.2,0.1,0C91.5,103.8,91.4,103.8,91.6,103.7
	C91.6,103.6,91.7,103.7,91.6,103.7z M86.2,116.3C86.3,116.4,86.1,116.3,86.2,116.3C86.2,116.3,86.2,116.3,86.2,116.3z M87.1,116.5
	c0.1,0.1,0.1,0.1,0.2,0.1C87.8,116.9,87.4,116.4,87.1,116.5C87.2,116.5,87.2,116.5,87.1,116.5z M87.2,112.5
	C87.2,112.5,87.2,112.5,87.2,112.5C87.2,112.5,87.2,112.5,87.2,112.5z M87.4,111.2c0.1-0.2-0.1,0,0-0.1
	C87.3,111.2,87.3,111.2,87.4,111.2z M88.9,116.4c-0.1,0-0.3,0.1-0.4,0.2c-0.2,0-0.2,0-0.4,0c-0.1,0-0.1,0-0.2,0c0,0,0,0,0,0
	c0,0,0,0,0,0c0,0,0,0-0.1,0c0,0-0.1-0.1-0.1,0c0.1,0.2,0.4,0.2,0.6,0.2c-0.2,0.2,0,0,0.1-0.1c0,0.2,0.4,0,0.6-0.1
	c0.3-0.2-0.1,0,0-0.3C89,116.3,89,116.4,88.9,116.4z M87.9,116.6C87.9,116.6,87.9,116.6,87.9,116.6
	C87.9,116.6,87.9,116.6,87.9,116.6z M88.3,108.1L88.3,108.1L88.3,108.1z M88.3,116.4C88.2,116.5,88.5,116.4,88.3,116.4
	C88.4,116.4,88.4,116.4,88.3,116.4z M88.7,105.5c0.2,0.2,0.1-0.1,0.1-0.2C88.6,105.5,88.4,105.4,88.7,105.5z M88.9,105.3
	C88.9,105.3,88.9,105.3,88.9,105.3S88.9,105.3,88.9,105.3z M92.4,109.3L92.4,109.3C92.3,109.3,92.4,109.3,92.4,109.3z"/>
<path d="M99.5,103.5c0.4,0.1,0.4,0.1,0.5,0.3c0.2,0.1,0.1,0.4,0.3,0.4c0,0.1,0.1,0.3,0.1,0.4c-0.1,0.3,0.3,0.3,0.1,0.4
	c0,0.2,0.3,0.4,0.2,0.5c0,0.1,0,0.2,0,0.2c0,0.3,0.2,0.4,0.1,0.6c0,0.2-0.1,0.4-0.2,0.7c0,0.2-0.3,0.5-0.3,0.7c0,0,0,0,0,0
	c0,0,0,0,0,0c0,0,0,0,0,0.1c-0.1,0-0.2,0.2-0.1,0.4c-0.1,0-0.2,0-0.3,0.2c0.1,0-0.1,0.3,0,0.1c-0.1,0-0.2,0.3-0.1,0.3
	c-0.1,0.4-0.1-0.1-0.3,0.3c-0.2,0.3,0,0.2-0.3,0.5c-0.1,0.2-0.3,0.4-0.2,0.5c-0.1,0.1,0,0.1,0,0.1c-0.2,0.1-0.1,0.4-0.6-0.1
	c-0.5-0.5-1.1-1.2-0.8-1.8c0.3-0.6,0.8-1.2,1.1-1.9c0.2-0.1,0.1-0.5,0.2-0.3c0.1-0.1,0.1-0.3-0.1-0.2c0.1-0.1,0-0.1-0.1,0
	c-0.1,0,0.2,0.5-0.1,0.2c-0.2-0.1,0,0.1,0,0.1c-0.3,0.1-0.8,0.1-0.9,0.2c0-0.2-0.2,0.1-0.2,0.1c-0.3,0.2-0.8,0.4-1,0.7
	c-0.1,0.2-0.5,0.1-0.5,0.3c0.1,0.1-0.1,0.1-0.2,0.2c-0.1-0.2-0.4,0.3-0.5,0.4c-0.2,0-0.3,0.5-0.3,0.4c-0.2,0.2-0.1,0.1,0,0.3
	c-0.1,0-0.3,0.1-0.2,0.2c-0.1,0.1,0,0.2-0.1,0.2c-0.1,0.2-0.2,0.2-0.2,0.4c0.4,0.3,0.8,0.5,1.2,0.7c0.9,0.4,1.9,0.8,2.6,1.5
	c0.2,0.2,0.1,0.2,0.2,0.3c0,0.1,0.1,0.1,0.1,0.2c0,0,0,0,0,0c0,0,0,0,0,0c0,0,0.1,0.1,0.1,0.2c0.5,0.5,0.7,1,0.7,1.7
	c0,0.2-0.1,0.3-0.1,0.5c0,0.2-0.4,0.3-0.2,0.4c-0.2,0.3-0.5,0.4-0.7,0.6c-0.2,0.1-0.4,0.2-0.5,0.2c-0.1,0.1-0.3,0.2-0.4,0.2
	c0,0.1-0.2,0.1-0.2,0.1c-0.1,0-0.2,0.1-0.3,0.1c-0.2,0.1-0.2,0.1-0.3,0.1c-0.2,0.1-0.4,0.1-0.5,0.1c-0.1,0.2-0.1,0-0.3,0.1
	c-0.1,0-0.1,0-0.2,0c-0.3,0-0.1,0-0.2,0.1c-0.1,0-0.1,0-0.2,0c0,0,0,0,0,0c0,0,0,0,0,0c-0.1,0-0.1,0-0.2,0c-0.1-0.1,0,0.2-0.1,0
	c-0.2,0.1-0.6,0.2-0.4-0.1c-0.2-0.2,0.2,0.1,0.1,0c0.1-0.1,0.2,0,0.2,0c0,0,0,0-0.1-0.1c0.3-0.1,0.4,0,0.7-0.1
	c0.2-0.2,0.1,0,0.4-0.1c0-0.1,0.1-0.2,0.2-0.1c0.1-0.1,0.1,0,0.2,0c0.2,0,0.2-0.2,0.2-0.2c0.1,0,0.2,0.1,0.3,0.1
	c0.1,0-0.1-0.1,0-0.2c0.2-0.1,0.3,0.1,0.4,0c0-0.1-0.4,0-0.1-0.1c0.4-0.1,0.1-0.1-0.1,0c-0.2,0.1-0.4,0.1-0.7,0.2
	c-0.1,0.1-0.2,0-0.3,0.1c-0.2,0-0.5,0-0.6,0.1c-0.2,0.1-0.1-0.1-0.3,0c-0.2,0-0.2,0.3-0.2,0c-0.2,0,0,0.2-0.3,0
	c-0.1,0.1,0.1-0.1-0.1-0.1c-0.2,0-0.7,0-0.6-0.1c0,0,0,0,0,0c0,0-0.1,0,0,0c-0.1,0-0.3,0-0.4-0.2c0-0.2,0.1-0.2-0.2-0.3
	c-0.1,0.1-0.2,0-0.3,0c-0.2,0-0.2-0.3-0.3-0.2c-0.3-0.1,0.6-0.2,0.2-0.2c-0.2-0.1,0.1,0,0.1-0.2c1.2-0.3,2.4-0.5,3.5-1
	c0.2-0.2,1.2-0.5,0.6-0.7c-0.2-0.1-0.5-0.2-0.6-0.2c-0.3-0.1-0.5-0.2-0.8-0.4c-0.2-0.1-0.3-0.1-0.6-0.3c-0.4-0.2-0.7-0.4-0.9-0.7
	c-0.1-0.3-0.2-0.4-0.3-0.7c-0.1-0.1,0-0.1,0-0.3c-0.1-0.2-0.1-0.5-0.2-0.6c-0.1,0.3-0.1,0,0-0.1c-0.2,0.1-0.2,0-0.2-0.2
	c0,0.1,0-0.3-0.1-0.1c-0.1,0-0.2-0.5-0.1-0.8c0-0.8,0.4-1.6,0.9-2.3c1.1-1.4,2.7-2.4,4.4-2.9c0.3-0.1,0.6-0.2,0.9-0.2
	C99.3,103.5,99.4,103.5,99.5,103.5z M93.4,110.5c-0.1,0,0.3,0.3,0.2,0.3C93.4,110.7,93.4,110.7,93.4,110.5
	C93.3,110.4,93.4,110.6,93.4,110.5z M93.4,110.4C93.6,110.8,93.4,110.6,93.4,110.4C93.4,110.4,93.4,110.4,93.4,110.4z M93.6,110.6
	C93.7,111,93.8,110.7,93.6,110.6C93.6,110.5,93.6,110.5,93.6,110.6z M94.1,111.1C94.1,111.4,94.4,111.4,94.1,111.1
	C94.1,111.1,94.1,111.1,94.1,111.1z M94.3,111.5C94.3,111.5,94.3,111.5,94.3,111.5c-0.1,0.1,0.1,0,0,0.1
	C94.4,111.7,94.5,111.5,94.3,111.5C94.4,111.5,94.4,111.5,94.3,111.5C94.3,111.5,94.3,111.5,94.3,111.5z M94.3,111.5
	C94.3,111.5,94.3,111.5,94.3,111.5C94.3,111.5,94.3,111.5,94.3,111.5z M94.4,116.3C94.4,116.4,94.3,116.4,94.4,116.3
	C94.4,116.3,94.4,116.3,94.4,116.3z M94.5,111.8C94.4,111.8,94.6,111.9,94.5,111.8C94.6,111.8,94.6,111.8,94.5,111.8z M94.7,111.9
	c0.1,0.1,0.2,0.1,0.1,0.1c0.1,0.1,0.3,0.2,0.3,0.1C95,112,94.8,111.9,94.7,111.9C94.7,111.9,94.7,111.8,94.7,111.9z M95.3,112.2
	C95,112.1,95.2,112.3,95.3,112.2c0.1,0.1,0.3,0.3,0.4,0.2c0,0,0,0,0,0c0,0,0,0,0.1,0c0,0,0,0,0,0c0.1,0.1,0.2,0.2,0.4,0.1
	c0.1-0.2-0.1-0.1-0.3-0.3c0,0.1-0.3,0.1-0.4-0.1C95.4,112.3,95.2,112.2,95.3,112.2z M95.2,116.7C95.2,116.7,95.2,116.7,95.2,116.7
	C95.2,116.7,95.2,116.7,95.2,116.7z M95.2,116.7C95.2,116.7,95.2,116.7,95.2,116.7C95.2,116.7,95.2,116.7,95.2,116.7
	C95.3,116.7,95.4,116.7,95.2,116.7C95.3,116.6,95.3,116.7,95.2,116.7z M95.3,112.2C95.3,112.3,95.1,112.2,95.3,112.2
	C95.2,112.2,95.3,112.2,95.3,112.2z M95.2,116.7C95.2,116.7,95.2,116.7,95.2,116.7C95.2,116.7,95.2,116.7,95.2,116.7z M95.7,112.5
	C95.7,112.5,95.7,112.5,95.7,112.5C95.7,112.4,95.7,112.4,95.7,112.5z M95.8,112.5C95.9,112.5,95.9,112.5,95.8,112.5
	C96,112.5,95.8,112.6,95.8,112.5z M96.3,112.7c0,0.1,0.2,0.2,0.3,0.2c0.1,0,0.2,0.1,0.3,0.1c0.1,0.1,0.1,0,0,0
	c-0.3-0.1-0.1-0.1,0.2,0c0.1,0.1,0.4,0.1,0.2,0c0-0.1-0.2-0.1-0.2-0.1c-0.1-0.1-0.4-0.1-0.4-0.2c-0.2-0.2-0.3,0.1-0.3-0.1
	C96.4,112.6,96.3,112.6,96.3,112.7z M96.6,113C96.7,113,96.6,113,96.6,113C96.5,112.9,96.6,113.1,96.6,113z M100.4,108.3
	C100.4,108.3,100.3,108.3,100.4,108.3C100.4,108.3,100.4,108.3,100.4,108.3z M100.5,107.8L100.5,107.8
	C100.5,107.8,100.5,107.8,100.5,107.8z"/>
<path d="M294.2,179.9c0.4,0.1,0.6,0.4,0.9,0.5c0.2,0.2,0.3,0.4,0.4,0.5c0.1,0.1,0.1,0.2,0.1,0.2c0,0.2,0.3,0.3,0.2,0.4
	c0,0.2,0.2,0.6,0.2,0.5c0,0,0,0.1,0.1,0.1c-0.1,0,0,0,0,0c0.1,0.1,0.1,0.2,0.1,0.3c0.1,0.3,0.2,0.6,0.2,0.8c0,0.3,0.2,0.7,0.1,0.8
	c0,0.2-0.1,0.6-0.1,0.8c-0.1,0.4-0.1,0.4-0.2,0.9c-0.1,0.2-0.1,0.4-0.2,0.7c0,0,0-0.3-0.1,0.1c0.1,0.1,0,0.3,0,0.4
	c-0.1,0.1-0.3,0.4-0.1,0.2c0,0.2-0.3,0.5-0.2,0.3c0-0.1-0.3,0.3-0.1,0.4c-0.2,0.1-0.1,0.4-0.2,0.3c-0.2,0.1,0,0.3-0.1,0.2
	c0,0.1-0.1,0-0.1,0.1c-0.1,0-0.1,0.1,0,0.1c0,0,0,0,0,0c0,0,0,0,0,0c0,0,0,0,0,0c-0.1,0.1-0.1,0.1-0.2,0.3c0,0.1,0.2-0.2,0.1,0
	c-0.2,0.3-0.3,0.6-0.6,0.9c-0.1,0.2-0.2,0.3-0.4,0.5c0.1,0.1,0,0-0.2,0.3c-0.1,0-0.2,0.2-0.3,0.4c0,0,0,0,0,0c0,0,0,0,0,0
	c0,0,0,0.1,0,0.1c0,0,0,0.1-0.1,0.2c-0.2,0.2-0.4,0.5-0.6,0.6c-0.1,0.1-0.1,0.1-0.2,0.2c-0.1,0.1-0.1,0.1-0.2,0.2
	c-0.1,0.2-0.4,0.3-0.5,0.4c-0.2,0.1-0.4,0.2-0.7,0.3c-0.1,0-0.3,0.2-0.3,0c-0.3,0,0.4-0.1,0.5-0.2c0.2-0.1,0.4-0.3,0.1-0.3
	c-0.3-0.1-0.2,0.1-0.2,0.2c-0.1,0-0.1-0.2-0.2-0.1c-0.1,0-0.4,0.1-0.3,0.1c-0.2,0-0.3,0.1-0.4-0.1c-0.2,0.1-0.4,0-0.6-0.2
	c-0.2-0.1-0.6-0.1-0.6-0.4c0-0.2-0.2-0.1-0.4-0.2c-0.3-0.1-0.2-0.3-0.4-0.3c0.1-0.2,0.1-0.8,0.2-1.3c0.2-1.9,0.6-3.8,1.1-5.7
	c-0.1,0,0.2-0.4,0.1-0.4c0,0-0.3,0.1-0.3,0c-0.2-0.1,0.1-0.2,0-0.3c-0.3,0,0-0.4-0.2-0.4c-0.2,0-0.1-0.2-0.3-0.2
	c0-0.2,0-0.2-0.1-0.4c-0.1-0.1,0.2-0.2,0-0.2c0-0.2-0.3-0.1-0.4-0.4c-0.3-0.2,0-0.4,0.1-0.4c0.2-0.3,0.5-0.6,0.9-0.8
	c1-0.7,2.2-1.1,3.4-1.1C293.1,179.7,293.7,179.8,294.2,179.9z M289,183.4C289.1,183.6,289.2,183.5,289,183.4
	C289,183.4,289,183.4,289,183.4z M290.5,192.9c-0.1,0.1-0.1,0.2-0.1,0.1c-0.1,0-0.2,0.1-0.2-0.2
	C290.2,192.9,290.3,192.7,290.5,192.9z M292.1,182.3c-0.2,0,0,0.1,0,0.1c0,0,0,0,0,0c-0.1,0.1,0,0,0,0c0,0,0,0-0.1,0.1
	c-0.1,0.1,0.2,0.2,0,0.3c0-0.2-0.1,0.3-0.1,0.4c-0.1,0.1,0,0.4,0,0.4c0.1,0.1-0.1,0.4-0.1,0.6c-0.1,0.1-0.2,0.7,0,0.5
	c-0.1,0.2-0.2,0.5-0.2,0.8c0,0.3-0.2,0.7-0.1,0.9c0,0.2,0,0.5-0.2,0.5c0,0.1-0.1,0.3-0.1,0.3c0.2-0.2-0.1,0.1,0.1,0.1c0,0,0,0,0,0.1
	c0,0,0,0,0,0c-0.1,0,0,0,0,0c0,0.1-0.1,0.1-0.1,0.3c0,0.2,0.1,0.4-0.1,0.6c-0.1,0.2-0.1,0.4-0.1,0.5c0,0.1,0.1,0.4-0.1,0.2
	c0,0.2-0.1,0.7-0.1,0.7c0,0.1,0.2,0,0.3-0.2c1.3-1.6,2.6-3.3,3.4-5.3c0.1-0.4,0.5-1.2,0.3-1.3c0.1,0,0.1-0.1,0-0.1
	c-0.4,0,0.2-0.1-0.1-0.2c-0.2-0.1-0.3-0.1-0.5-0.1c-0.2-0.1-0.2,0-0.4-0.1c-0.2,0-0.5,0.1-0.6,0c-0.3,0.1-0.3,0-0.5,0
	c-0.2,0.1-0.2,0.1-0.4,0.1C291.9,182.6,292.5,182.4,292.1,182.3C292.2,182.3,292.1,182.3,292.1,182.3z M291,189.2
	C291,189.4,290.9,189.2,291,189.2C291,189.2,291,189.2,291,189.2z M291.3,192.4C291.4,192.4,291.1,192.5,291.3,192.4
	C291.2,192.4,291.2,192.4,291.3,192.4C291.3,192.4,291.3,192.4,291.3,192.4C291.3,192.4,291.3,192.4,291.3,192.4z M291.3,187.3
	C291.3,187.3,291.3,187.3,291.3,187.3C291.3,187.3,291.3,187.3,291.3,187.3z M291.6,192.3c-0.1,0.3,0.2-0.1,0.2-0.1
	C291.8,192.2,291.7,192.3,291.6,192.3z M292.2,182.4C292.1,182.4,292.1,182.4,292.2,182.4C292.1,182.4,292.2,182.4,292.2,182.4z
	 M292.3,182.3C292.3,182.3,292.5,182.3,292.3,182.3C292.3,182.2,292.3,182.2,292.3,182.3z M292.5,182
	C292.2,182.1,292.2,182.3,292.5,182C292.5,182.2,292.8,182.1,292.5,182C292.5,182,292.4,182.1,292.5,182z M293,182.2
	c-0.1,0.1-0.4-0.1-0.5,0.1C292.4,182.4,292.8,182.2,293,182.2c0.1,0,0.2,0.1,0.4,0.1c0.2-0.2-0.1-0.1-0.1-0.2
	C293.2,182.1,293.1,182.1,293,182.2z M293,181.9C293,182,293,182,293,181.9C292.9,182,292.9,182,293,181.9c-0.2,0.1-0.4,0-0.2,0.2
	c0.1-0.2,0.2,0,0.3,0c0.2,0,0.1-0.1,0.2,0c0,0,0,0,0,0c0,0,0,0,0,0C293.3,182,293.2,182,293,181.9C293,182,293,182,293,181.9z
	 M293.5,182.1C293.5,182.4,293.6,182.2,293.5,182.1c0,0,0.1-0.2-0.2-0.1C293.3,182,293.5,182.1,293.5,182.1z M293.4,190.8
	C293.4,190.8,293.4,190.8,293.4,190.8C293.4,190.9,293.4,190.9,293.4,190.8z M293.4,182.3C293.3,182.4,293.7,182.3,293.4,182.3
	C293.5,182.3,293.4,182.3,293.4,182.3z M293.9,182.3c0.2,0.1,0.5,0.1,0.7,0.2c0.2,0,0.1-0.1,0.2,0.1c0.1,0,0.3,0.1,0.2,0
	c-0.1-0.2-0.1-0.2-0.3-0.3c-0.2-0.1-0.2,0-0.4-0.1c0,0.2-0.3,0.1-0.5,0C293.7,182.2,293.8,182.4,293.9,182.3z M294.5,182.6
	C294.9,182.7,294.3,182.7,294.5,182.6C294.4,182.5,294.4,182.5,294.5,182.6z M294.9,188.5C294.9,188.5,294.9,188.5,294.9,188.5
	C294.9,188.5,294.9,188.5,294.9,188.5z M295,188.4C295,188.4,295,188.4,295,188.4C295,188.3,295.1,188.3,295,188.4z M296,182.1
	C296,182.1,296,182.1,296,182.1C296,182.1,296,182.1,296,182.1z"/>
<path d="M299.3,179.4c0.2,0,0.2,0.1,0.3,0.1c0,0.1,0.1,0.2,0.3,0.3c1.1-0.4,2.3-0.5,3.5-0.6c0.4,0,1-0.1,1.2,0
	c0.2-0.2,0.3,0.1,0.4,0.1c0.1-0.1,0.2,0.1,0.3,0.1c0,0.1,0.2,0.1-0.1,0.2c0.1,0,0.1,0.2-0.1,0.3c0,0-0.1,0.2-0.1,0.2
	c0.1,0.2,0,0.2-0.1,0.2c0,0.2,0.2,0.2,0.2,0.4c-0.1,0.1-0.1,0.1-0.2,0.3c-0.3-0.1-0.2,0.2-0.1,0.3c0,0.2-0.3-0.1-0.3,0
	c-0.2,0-0.3,0.1-0.4,0c-0.2,0.1-0.4,0-0.4,0.2c-0.1,0.1-0.3,0,0-0.1c-0.1,0.1-0.2,0-0.3,0.1c-0.1,0,0,0-0.2,0.1c0-0.2-0.3,0.1-0.4,0
	c-0.1,0-0.3,0.1-0.4,0.1c0,0.1-0.3-0.1-0.5,0.1c0,0,0,0,0.1,0c0,0,0,0,0,0c0.2,0,0.4,0.1,0.1,0.2c0-0.2-0.4,0.2-0.4,0.1
	c0,0-0.5,0.2-0.3,0c-0.2-0.1-0.1,0.2-0.3,0.1c-0.2,0.1-0.3-0.1-0.3-0.1c0.2,0.2-0.4,0.3-0.2,0.1c-0.2-0.1-0.1-0.1-0.1-0.2
	c-0.3-0.2,0,0.3-0.2,0.1c-0.2,0,0,0.2-0.2,0.2c-0.1-0.1-0.2,0.1-0.1,0.3c-0.1,0.2,0-0.2-0.1,0.1c0,0.1,0,0-0.1,0.2
	c0.1,0.1-0.1,0.1,0,0.2c0,0.3-0.3,0.2-0.2,0.4c-0.1,0.1,0,0.1,0,0.3c-0.1,0.2-0.3,0.4-0.1,0.4c0,0-0.1,0.1-0.1,0.1c0,0,0,0,0,0
	c0,0,0,0,0,0c0,0.1-0.1,0.1-0.1,0.1c0,0,0.2,0.2,0,0.2c0,0,0,0.2,0,0.4c0,0,0,0,0,0c0,0,0,0,0,0c0,0,0,0,0,0.1
	c1.1-0.3,2.1-0.6,3.2-0.7c0.4,0,0.9-0.1,1.3,0c0,0,0.1,0,0.1,0.2c0.3,0.2-0.1,0.1,0.1,0.1c-0.2,0.2,0,0.1,0,0.3
	c-0.1-0.1-0.1,0,0,0.1c0.2-0.1,0,0.1,0,0.2c-0.1-0.1-0.1-0.3-0.1,0c0.1,0.1,0.3,0.4,0.1,0.2c0,0-0.1,0.1-0.2,0.2c0,0,0,0,0,0
	c0,0,0,0,0.1,0c0.1,0.1,0.2,0.1,0.1,0.2c-0.3,0.2,0,0-0.1,0.2c0.2-0.1,0,0.2-0.1,0.2c-0.2,0-0.2,0.2-0.1,0.1c0.1,0-0.1,0.3-0.1,0.1
	c0,0.2-0.5,0.1-0.4,0.3c-0.2-0.1-0.2,0.2-0.3,0.1c-0.2,0.2-0.2-0.1-0.2,0.1c-0.2,0-0.4-0.1-0.6,0c-0.1,0.1-0.3,0-0.4,0.1
	c-0.1,0-0.1,0-0.2,0c-0.2-0.1,0,0.2-0.2,0.1c0.2-0.1-0.5,0-0.2,0.1c-0.3,0.2-0.2-0.2-0.4,0c-0.2,0.2-0.1,0.1-0.2,0.1
	c-0.1,0-0.2,0-0.3,0.1c0.1,0.1-0.1,0.1,0,0c-0.1,0.1-0.2,0.1-0.3,0.1c-0.1,0.1-0.3,0.1-0.2,0.1c-0.1-0.1-0.1,0.1-0.2,0
	c-0.1,0.2-0.5,0.2-0.4,0.2c-0.2-0.1-0.1,0.5-0.2,0.8c-0.2,0,0.1,0.1,0,0.4c-0.1,0.1,0,0.3,0,0.5c-0.1,0,0.2,0.3,0,0.4
	c0,0.4,0.1-0.1,0,0.3c0,0,0,0.1,0,0.1c0,0,0,0,0,0c0.1,0,0,0.1,0,0.1c0,0.1,0,0.1,0.1,0.2c0.1,0.3-0.1,0,0,0.3
	c0.1,0.1,0,0.1,0.1,0.2c0.9-0.2,1.7-0.8,2.4-1.4c0.1,0,0.1,0,0.3,0.1c0.1-0.1,0.1,0,0.2,0.1c0.3-0.1-0.1,0.2,0.1,0.1
	c0.2,0.1,0.3-0.2,0.4,0c-0.1,0.1,0.1,0.1,0.2,0c0.1,0,0.1,0.3,0.1,0.1c0,0,0.1,0,0,0c0,0,0,0,0-0.1c0,0.2,0.5-0.1,0.4,0.1
	c0.3,0,0.1,0.3,0.3,0.3c0.1,0,0,0.2,0.2,0.1c0,0.3-0.2-0.1-0.3,0.1c0,0.2-0.3,0.1-0.1,0c-0.1,0-0.2,0.3-0.1,0.2
	c0,0.1-0.1,0.3-0.3,0.3c-0.2,0.2-0.4,0.2-0.5,0.4c-0.1,0.1-0.4,0.2-0.3,0.2c0.1,0,0.3-0.2,0.4-0.3c0,0.3,0.1,0.1,0.2,0.1
	c0.1-0.1,0.3-0.2,0.4-0.3c0.2-0.1,0.2,0,0,0.1c-0.3,0.1-0.5,0.5-0.7,0.5c-0.1,0.2-0.3,0.1-0.3,0.3c-0.1,0-0.2,0.2-0.4,0.2
	c-0.1,0-0.1,0.1-0.3,0.2c-0.3,0.1-0.7,0.3-1.1,0.3c-0.4,0-0.6-0.1-0.9-0.2c-0.2,0-0.3-0.1-0.5-0.2c0.2,0-0.1-0.2-0.2-0.2
	c-0.3-0.2-0.1,0.1-0.3,0c-0.3-0.2,0,0.1-0.2,0c-0.1-0.1-0.1-0.1-0.2-0.1c0,0,0,0,0,0c0,0,0,0,0,0c-0.1,0-0.1,0-0.1,0
	c-0.8-0.4-1.1-1.4-1.2-2.3c-0.1-1.9,0.3-3.8,0.9-5.6c0.1-0.3,0.4-0.9,0.3-1c0-0.2-0.1-0.1-0.2-0.4c-0.2,0.1-0.1-0.2-0.1-0.3
	c0.1-0.1-0.2,0-0.3-0.2c0.4,0-0.1-0.1,0.1-0.2c0.2,0,0.1-0.1,0.2-0.1c-0.1-0.2,0-0.2,0-0.3c0.2,0,0.2-0.2,0.2-0.2
	c-0.1-0.2-0.1,0-0.2-0.1c0.2,0,0.1-0.1-0.1-0.1c0.1,0.2-0.3-0.3-0.2-0.3c0-0.1,0.4-0.1,0.2-0.1c0.8-0.2,1.7-0.1,1.7-0.7
	c0-0.2,0.2-0.3,0.2-0.2C299.2,179.7,299.1,179.5,299.3,179.4C299.3,179.4,299.3,179.4,299.3,179.4z M297.6,191.8
	C297.6,191.8,297.6,191.8,297.6,191.8C297.6,191.8,297.6,191.8,297.6,191.8z M298.4,192.2C298.5,192.2,298.5,192.2,298.4,192.2
	C298.5,192.2,298.5,192.2,298.4,192.2z M299.4,184.3C299.3,184.4,299.4,184.3,299.4,184.3C299.4,184.3,299.4,184.3,299.4,184.3z
	 M299.6,192.3c0.3,0.1,0.4,0.1,0.5,0c0-0.1-0.4,0.1-0.2,0C300.1,192.2,299.7,192.3,299.6,192.3C299.6,192.2,299.5,192.3,299.6,192.3
	z M299.6,192.4C299.6,192.4,299.8,192.3,299.6,192.4C299.7,192.4,299.6,192.4,299.6,192.4z M299.8,179.5
	C299.9,179.7,299.6,179.6,299.8,179.5C299.8,179.5,299.8,179.5,299.8,179.5z M300.1,192.2c-0.2,0.3,0,0.1,0.2,0.1c0,0,0.4,0,0.2-0.1
	C300.5,192.2,300.2,192.3,300.1,192.2z M300.5,181.9C300.6,182,300.7,181.9,300.5,181.9C300.5,181.9,300.5,181.9,300.5,181.9z
	 M301.4,191.8c-0.1,0.1-0.3,0.1-0.4,0.2c-0.3,0.2-0.1,0.1,0,0.1c0.2,0,0.4-0.1,0.5-0.1c0-0.1,0.4-0.4,0.2-0.2
	c0.1,0.1,0.2-0.2,0.1-0.2C301.7,191.8,301.5,191.7,301.4,191.8z M301.2,192.2C301.2,192.2,301.2,192.2,301.2,192.2
	C301.1,192.2,301.2,192.3,301.2,192.2C301.1,192.3,301.2,192.3,301.2,192.2C301.3,192.2,301.3,192.2,301.2,192.2z M302.6,189.8
	C302.6,189.8,302.6,189.8,302.6,189.8C302.6,189.8,302.6,189.8,302.6,189.8z M302.9,181.6C302.9,181.7,302.7,181.6,302.9,181.6
	C302.9,181.6,302.9,181.6,302.9,181.6z M303,190.9C302.8,191.2,302.8,191,303,190.9C303.2,190.9,303,190.8,303,190.9z M303.2,191
	C303.2,191,303.2,190.9,303.2,191C303.2,190.9,303.2,191,303.2,191z M303.9,185.4C303.9,185.4,303.9,185.4,303.9,185.4
	C303.9,185.4,303.9,185.4,303.9,185.4z M304,185.6C304,185.6,304,185.6,304,185.6C304.1,185.6,304.1,185.8,304,185.6z M304.2,181.1
	C304.2,181.2,304.3,181.1,304.2,181.1C304.3,181.1,304.3,181.1,304.2,181.1z M304.7,180c0.1,0.1-0.1,0.3,0.2,0.2
	C304.8,180,305,180,304.7,180C304.7,180,304.7,180,304.7,180z"/>
<path d="M311.4,178.4c0.1,0,0.2,0.1,0.2,0c-0.1-0.1,0.2,0,0,0.2c0.1-0.1,0.1,0.2,0.2,0.2c0.1,0.1,0.3,0.2,0.2,0.2
	c0.1,0.1,0.1,0,0.2,0c0.1,0,0,0.2,0.2,0.3c0.2-0.1,0,0.2,0.1,0.1c0.1,0.1,0.3,0.2,0.2,0.4c0,0.1,0.2-0.1,0.1,0.3
	c0,0.1,0.1,0.2-0.1,0.3c0,0.2,0,0.3,0.1,0.5c-0.1,0.6,0-0.4-0.1,0.1c0,0.2-0.1,0.3-0.1,0.5c0,0,0,0,0,0.1c0,0,0,0,0,0
	c0,0,0,0.1,0,0.2c-0.1,0.1-0.1,0.4-0.1,0.5c0,0.2,0,0.2-0.1,0.4c-0.1,0.2,0,0.5-0.1,0.6c0,0,0,0,0,0c0,0,0,0,0,0c0,0.1,0,0.1,0,0.1
	c0,0.1,0,0.3-0.1,0.4c-0.1,0.1,0,0.4-0.1,0.4c-0.1,0.1,0,0.1-0.1,0.2c0,0.3-0.1,0.7-0.1,0.8c-0.1,0.5-0.2,1-0.3,1.5
	c-0.1,0.4-0.1,0.8-0.1,1.1c0,0.3-0.1,0.5-0.1,0.8c0,0.3,0,0.6-0.1,0.9c0,0.2,0,0.3,0,0.5c0,0.3,0,0.7,0,1c0,0.1,0.1,0.3-0.1,0.5
	c0.1,0,0,0.3,0,0.3c-0.2,0.3,0-0.2-0.2-0.2c0.1-0.2-0.1,0-0.1-0.2c-0.1,0.1-0.1,0.2-0.1,0c-0.1,0.3-0.1,0-0.2,0c0-0.2-0.1,0.2-0.1,0
	c-0.1-0.2-0.2,0.2-0.2,0.1c-0.1-0.2-0.2-0.1-0.3-0.1c-0.2,0.2-0.4-0.9-0.5-0.6c-0.1-0.2-0.2,0.1-0.2,0.1c-0.1,0.1-0.1,0.4-0.3,0.5
	c0-0.1-0.1,0-0.1,0.1c-0.2,0.1-0.1,0-0.1-0.1c-0.1,0.1-0.3,0.3-0.6,0.3c0-0.1-0.1-0.1-0.3-0.1c0,0.1-0.1,0.1,0,0
	c-0.1,0-0.2,0-0.3-0.1c-0.2-0.1-0.3,0-0.4-0.1c-0.1,0.1-0.1-0.1-0.1-0.1c-0.2,0-0.1-0.1-0.4-0.2c-0.3,0-0.2-0.1-0.5-0.1
	c-0.3,0.2-0.1,0-0.3-0.1c-0.1,0,0.1,0.2-0.2,0c-0.8-0.6-1-1.7-1-2.8c0.1-2.6,0.8-5.1,1.8-7.6c0.1-0.5,0.7-1.2,0.6-1.5
	c0.2-0.2,0.1-0.1,0.1-0.2c0.1-0.2,0.3-0.1,0.3,0c0.2-0.2,0-0.3,0.3-0.1c0.1,0,0.2,0.2,0.3,0.3c-0.1,0.3,0,0.2,0,0.5
	c0.1-0.3,0,0.2,0.1,0c0,0.2-0.1,0.3,0.1,0c-0.1-0.2,0.3-0.1,0.1,0c0.2,0.1-0.2,0.2,0,0.2c0-0.1,0.1,0,0.2,0c0.1,0.1,0.1,0.2,0.3,0.1
	c0,0,0,0,0,0c0,0,0,0,0,0c0,0.2,0,0.4-0.1,0.6c-0.1,0.1-0.3,0.5-0.1,0.5c-0.1,0.2-0.1,0.2-0.1,0.5c-0.1,0.4-0.1-0.1-0.2,0.2
	c0.2,0.1,0,0.1,0,0.4c0.2,0.1-0.1,0.5,0,0.4c-0.1,0.1-0.1,0.1,0,0.3c0,0-0.1,0-0.2,0.1c-0.1,0.1,0,0.2,0,0.3c-0.1,0.2-0.1,0.1,0,0.3
	c-0.2-0.1-0.1,0-0.2,0.1c0,0,0,0,0,0c0,0,0,0,0,0c-0.1,0.2,0,0.2-0.1,0.4c0,0.1-0.2,0.3-0.1,0.5c0.1,0.1,0.1,0.3,0,0.3
	c-0.1-0.2-0.1,0.3-0.1,0.2c-0.2,0.1,0.1,0.2-0.1,0.3c0.1,0.2,0,0-0.1,0.2c0.1-0.2,0.1,0.3,0,0.4c0,0.1,0,0.3-0.1,0.5
	c-0.1,0.2-0.1,0.3-0.1,0.5c0,0.1-0.2,0.3,0,0.2c0,0,0,0.1,0,0.1c0,0,0,0,0,0c0,0,0,0.1,0,0.1c0,0.1,0,0.1,0,0.1c0,0,0,0,0,0
	c0.1,0,0,0,0,0c0,0,0,0.1,0.1,0.1c0,0.1-0.1,0.3-0.1,0.4c0,0.1,0,0.2,0,0.3c0.1,0.1-0.1,0.6,0.1,0.7c-0.1,0.1,0.1,0.2,0.1,0.4
	c0,0.2-0.1,0.4,0.1,0.2c0.4-0.3,0.7-0.7,1-1.1c0.3-0.4,0.8-0.8,0.9-1.4c0.2-1.9,0.7-3.8,1.1-5.6c0.3-1,0.5-2.1,0.9-3.1
	c0-0.3,0.1,0.2,0.1,0C311.3,178.6,311.2,178.6,311.4,178.4C311.4,178.3,311.4,178.4,311.4,178.4z M306,191.3
	C306.1,191.4,305.9,191.3,306,191.3C306,191.3,306,191.3,306,191.3z M306.9,191.5c0.1,0.1,0.1,0.1,0.2,0.1
	C307.5,191.8,307.2,191.4,306.9,191.5C306.9,191.5,306.9,191.5,306.9,191.5z M307,187.5C307,187.5,307,187.5,307,187.5
	C307,187.5,307,187.5,307,187.5z M307.2,186.2c0.1-0.2-0.1,0,0-0.1C307.1,186.1,307.1,186.2,307.2,186.2z M308.6,191.3
	c-0.1,0-0.3,0.1-0.4,0.2c-0.2,0-0.2,0-0.4,0c-0.1,0-0.1,0-0.2,0v0c0,0,0,0,0,0c0,0,0,0-0.1,0c0,0-0.1-0.1-0.1,0
	c0.1,0.2,0.4,0.1,0.6,0.2c-0.2,0.2,0,0,0.1-0.1c0,0.2,0.4,0,0.6-0.1c0.3-0.2-0.1,0-0.1-0.3C308.7,191.2,308.7,191.3,308.6,191.3z
	 M307.7,191.5C307.7,191.5,307.7,191.5,307.7,191.5C307.7,191.5,307.7,191.5,307.7,191.5z M308.1,183.1
	C308.1,183,308.1,183,308.1,183.1C308.1,183,308.1,183.1,308.1,183.1z M308.1,191.3C308,191.4,308.2,191.3,308.1,191.3
	C308.1,191.3,308.1,191.3,308.1,191.3z M308.5,180.4c0.2,0.2,0.1-0.1,0.1-0.2C308.3,180.4,308.2,180.4,308.5,180.4z M308.7,180.2
	C308.7,180.2,308.7,180.2,308.7,180.2S308.7,180.2,308.7,180.2z M312.1,183.9L312.1,183.9C312.1,183.9,312.2,184,312.1,183.9z"/>
<path d="M321.4,177.2c0.3,0,0.1,0.2,0.5,0.1c0.1,0.2,0,0.1,0.1,0.2c-0.3,0-0.1,0.2-0.2,0.4c0,0.1-0.2,0.2-0.2,0.4c0,0,0,0,0,0
	c0,0,0,0,0,0c0,0,0,0,0,0c0,0.1,0.1,0.2-0.1,0.2c0,0.1,0.1,0.2,0,0.3c-0.1,0-0.1,0-0.1,0.1c-0.1,0.1,0.1,0.4,0,0.3
	c-0.2-0.1-0.2,0.2-0.4,0.2c0.1-0.2-0.4,0.1-0.2-0.1c-0.2,0.1,0.1,0.4-0.2,0.2c0.2,0,0,0,0.1-0.1c-0.1-0.1-0.2,0-0.2,0.1
	c-0.1,0-0.3,0.2-0.1,0c-0.2,0-0.4,0.2-0.6,0.1c-0.1,0-0.3,0.1-0.4,0.1c-0.1,0-0.3,0.1-0.4,0c-0.3-0.1-0.3,0.3-0.3,0.1
	c-0.2,0.2,0,0.1,0,0.2c0,0,0,0,0,0c0,0,0,0,0,0c-0.2,0.1,0.4,0,0.1,0.1c-0.2,0.1,0.1,0.1-0.1,0.2c0,0.1-0.1,0.4-0.1,0.4
	c0.3,0-0.1,0.3,0.1,0.2c0.2,0-0.3,0.1-0.2,0.3c0.1,0.1-0.1,0.3,0,0.5c0-0.1-0.2-0.1-0.2,0.3c-0.1,0.1,0.2,0.4-0.1,0.3
	c0,0.1,0.2,0.2,0,0.1c0,0.2-0.1,0.1,0,0.2c0.2-0.1,0,0.4-0.1,0.1c-0.1,0.2-0.1,0.4-0.2,0.6c-0.1,0.3,0.1,0.2-0.1,0.4
	c0,0.1-0.1,0.2-0.1,0.4c0,0.1-0.1,0.2-0.1,0.3c0,0.1-0.1,0.3-0.1,0.4c0,0.1-0.1,0.3-0.1,0.4c-0.1,0.1,0,0.3-0.1,0.2
	c0,0.1-0.1,0.2-0.1,0.3c-0.1,0.2,0,0.6-0.1,0.9c-0.2,0.2,0,0.2-0.1,0.5c0,0.1-0.1-0.1,0,0.2c-0.1,0.1,0,0.2-0.1,0.4
	c-0.1,0.1,0,0.4-0.1,0.4c0.1,0.1,0,0.3,0,0.4c-0.1,0.1,0,0.2-0.1,0.3c0,0,0,0.1,0,0.3c0,0,0.1,0.2,0,0.3c0,0.2,0.1,0.2,0.1,0.4
	c0,0.1-0.1,0.2-0.1,0.3c0,0.2-0.2,0-0.1-0.1c0.2-0.1,0-0.1-0.1,0c0.1,0.4-0.4,0.1-0.1,0.4c-0.1,0.1-0.2-0.1-0.4-0.1
	c-0.1,0-0.1,0.2-0.2,0.2c0-0.1-0.1-0.2-0.3-0.1c0.1,0-0.1,0.2-0.1,0c-0.1,0-0.2,0.1-0.2,0c-0.1-0.1,0,0.4-0.2,0c0.1-0.1,0-0.1,0-0.2
	c0,0,0,0,0,0c0,0,0,0,0,0c-0.1,0-0.1,0-0.1,0c0.1,0.2-0.2-0.1-0.2,0.1c0,0.2-0.1,0-0.3,0.1c0.2,0.1,0,0-0.1,0.1
	c-0.1,0.1-0.2,0.2-0.2-0.1c0-0.1-0.1-0.5,0-0.8c0.3-2.6,0.8-5.2,1.6-7.8c0.1-0.5,0.4-1,0.4-1.4c0.1-0.2,0-0.3-0.1-0.1
	c-0.2,0-0.4,0.1-0.6,0.1c-0.2,0.1-0.3,0.1-0.4,0.2c-0.1,0-0.3-0.1-0.3,0.1c0,0-0.1,0-0.1,0.1c0,0,0-0.1,0-0.1c-0.1,0,0,0.1,0,0.1
	c-0.2,0.1-0.3-0.1-0.4,0c-0.2,0.1-0.4,0.1-0.5,0.2c-0.1,0-0.2,0.1-0.3,0c-0.1,0.1-0.2,0.1-0.4,0.1c-0.2,0.2-0.3,0-0.1-0.1
	c0.2,0,0.5-0.1,0.2-0.2c-0.2,0.1,0-0.2-0.2-0.1c-0.5,0.1-0.2,0,0.1-0.1c0.3,0,0.2-0.1,0.2-0.2c-0.4,0,0.2-0.1-0.1-0.1
	c0.4-0.1-0.3,0,0.1-0.1c0-0.2-0.2-0.1,0-0.3c0-0.1-0.2-0.2,0.1-0.3c0.2-0.1,0.1-0.3,0.2-0.3c-0.2,0-0.1-0.4-0.2-0.3
	c-0.1-0.1,0-0.3,0.2-0.4c2.1-0.5,4.2-1,6.2-1.3C320.5,177.3,321,177.2,321.4,177.2z M315,180.9C315,180.9,315,180.9,315,180.9
	C315,180.9,315,180.9,315,180.9z M315.2,190.5C315.2,190.5,315.2,190.5,315.2,190.5C315.2,190.5,315.2,190.5,315.2,190.5z
	 M316.8,191.1c0-0.1,0.1,0.2-0.1,0.2c0-0.1,0-0.2,0-0.4C316.8,190.9,316.9,190.9,316.8,191.1z M316.7,189.8c0.1-0.1-0.1-0.2,0-0.4
	C316.7,189.5,316.6,189.8,316.7,189.8z M316.8,188.9C316.8,189.2,316.9,188.8,316.8,188.9C316.8,188.9,316.8,188.9,316.8,188.9z
	 M316.9,188.1C316.8,188.6,316.9,188.3,316.9,188.1C316.9,188,316.9,188.1,316.9,188.1z M318.1,183.4
	C318.2,183.7,317.9,183.4,318.1,183.4C318.1,183.4,318.1,183.4,318.1,183.4z M319.6,179.9c-0.3,0,0,0,0-0.1
	C319.7,179.8,319.7,179.8,319.6,179.9z M320,179.6c0.1,0,0.4-0.1,0.2-0.1C320.2,179.5,320.1,179.5,320,179.6
	C320.1,179.5,320.1,179.6,320,179.6z M321.6,178.7C321.6,178.7,321.6,178.7,321.6,178.7C321.7,178.7,321.5,178.9,321.6,178.7z
	 M321.6,178.6C321.6,178.6,321.6,178.6,321.6,178.6C321.7,178.6,321.6,178.7,321.6,178.6z M322.1,177.7c0-0.1-0.3,0.1-0.1-0.1
	c0,0,0,0,0,0C322.1,177.5,322.2,177.8,322.1,177.7z"/>
<path d="M327,176.4c0.4,0.1,0.4,0.1,0.5,0.2c0.2,0.1,0.1,0.4,0.3,0.3c0,0.1,0.1,0.3,0.1,0.4c-0.1,0.3,0.3,0.2,0.1,0.4
	c0,0.2,0.3,0.4,0.2,0.5c0.1,0,0,0.2,0,0.2c-0.1,0.3,0.2,0.4,0,0.6c0,0.2-0.1,0.4-0.2,0.7c0,0.2-0.3,0.5-0.3,0.8c0,0,0,0,0,0
	c0,0,0,0,0,0c0,0,0,0.1,0,0.1c-0.1,0-0.2,0.2-0.1,0.4c0,0-0.2,0-0.3,0.3c0.1-0.1-0.1,0.3,0,0.1c-0.1,0-0.2,0.3-0.1,0.3
	c-0.1,0.4-0.1-0.1-0.3,0.3c-0.2,0.3,0,0.2-0.3,0.5c-0.1,0.2-0.3,0.4-0.2,0.5c-0.1,0.1,0.1,0.1,0,0.1c-0.2,0.1-0.1,0.4-0.6-0.1
	c-0.5-0.4-1.1-1-0.8-1.7c0.3-0.7,0.8-1.3,1.1-2c0.2-0.1,0.1-0.6,0.2-0.4c0.1-0.1,0.1-0.3-0.1-0.2c0.1-0.1,0-0.1-0.1,0
	c-0.1,0,0.2,0.4-0.1,0.2c-0.2-0.1,0,0.1,0,0.1c-0.3,0.1-0.8,0.2-0.9,0.3c0-0.2-0.2,0.1-0.2,0.2c-0.3,0.2-0.8,0.5-1,0.8
	c-0.1,0.2-0.5,0.2-0.5,0.4c0.1,0.1-0.1,0.1-0.2,0.3c-0.1-0.2-0.4,0.4-0.5,0.5c-0.2,0-0.3,0.5-0.3,0.4c-0.2,0.3-0.1,0.1,0,0.3
	c-0.1,0-0.3,0.1-0.2,0.2c-0.1,0.1,0,0.2-0.1,0.2c-0.1,0.2-0.2,0.2-0.2,0.4c0.4,0.3,0.8,0.4,1.2,0.6c0.9,0.3,1.9,0.5,2.6,1.2
	c0.2,0.1,0.1,0.2,0.2,0.3c0,0.1,0.1,0.1,0.1,0.1c0,0,0,0,0,0c0,0,0,0,0,0c0,0,0.1,0.1,0.1,0.1c0.5,0.5,0.7,0.9,0.7,1.6
	c0,0.2,0,0.3-0.1,0.5c0,0.2-0.4,0.4-0.2,0.4c-0.2,0.3-0.5,0.5-0.7,0.7c-0.2,0.1-0.4,0.2-0.5,0.2c-0.1,0.1-0.3,0.2-0.4,0.2
	c0,0.1-0.2,0.1-0.2,0.1c-0.1,0-0.2,0.1-0.3,0.1c-0.2,0.1-0.2,0.1-0.3,0.1c-0.2,0.1-0.4,0.1-0.5,0.2c-0.1,0.2-0.1,0-0.3,0.1
	c-0.1,0-0.1,0-0.2,0.1c-0.3,0-0.1,0-0.2,0.1c-0.1,0-0.1,0-0.2,0c0,0,0,0,0,0c0,0,0,0,0,0c-0.1,0-0.1,0-0.2,0c-0.1-0.1,0,0.2-0.1,0
	c-0.2,0.1-0.6,0.2-0.4,0c-0.2-0.2,0.2,0.1,0.1,0c0.1-0.1,0.2,0,0.2,0c0,0,0,0,0-0.1c0.3-0.1,0.4-0.1,0.7-0.2c0.2-0.2,0.1,0,0.4-0.1
	c0-0.1,0.1-0.2,0.2-0.1c0.1-0.1,0.1,0,0.2-0.1c0.2,0,0.2-0.2,0.2-0.2c0.1-0.1,0.2,0.1,0.3,0c0.1-0.1-0.1-0.1,0-0.2
	c0.2-0.1,0.3,0.1,0.4,0c0-0.1-0.4,0.1-0.1-0.1c0.4-0.2,0.1-0.1-0.1,0c-0.2,0.1-0.4,0.2-0.7,0.2c-0.1,0.2-0.2,0-0.3,0.1
	c-0.2,0-0.5,0.1-0.6,0.2c-0.2,0.1-0.1-0.1-0.3,0c-0.2,0-0.2,0.3-0.2,0.1c-0.2,0.1,0,0.2-0.3,0c-0.1,0.1,0.1-0.1-0.1-0.1
	c-0.2,0-0.7,0.1-0.6,0c0,0,0,0,0,0c0,0-0.1,0,0,0c-0.1,0-0.3,0-0.4-0.2c0-0.2,0.1-0.2-0.2-0.3c-0.1,0.1-0.2,0-0.3,0
	c-0.2,0-0.2-0.2-0.3-0.2c-0.3-0.1,0.6-0.3,0.2-0.2c-0.2-0.1,0.1,0,0.1-0.2c1.2-0.4,2.4-0.7,3.5-1.4c0.2-0.2,1.2-0.7,0.6-0.8
	c-0.2-0.1-0.5-0.2-0.6-0.2c-0.3-0.1-0.5-0.2-0.8-0.3c-0.2-0.1-0.3-0.1-0.6-0.2c-0.4-0.2-0.7-0.3-0.9-0.6c-0.1-0.2-0.2-0.4-0.3-0.7
	c-0.1-0.1-0.1-0.1,0-0.2c-0.1-0.1-0.1-0.5-0.2-0.6c-0.1,0.3-0.1,0,0-0.1c-0.2,0.1-0.2,0-0.2-0.2c0,0.1,0-0.3-0.1-0.1
	c-0.1,0-0.2-0.5-0.1-0.7c0-0.8,0.4-1.7,0.9-2.4c1.1-1.5,2.7-2.7,4.4-3.4c0.3-0.1,0.6-0.2,0.9-0.3C326.7,176.4,326.9,176.4,327,176.4
	z M320.8,184.1c-0.1,0,0.3,0.3,0.2,0.2C320.9,184.3,320.8,184.3,320.8,184.1C320.8,184.1,320.9,184.2,320.8,184.1z M320.9,184.1
	C321.1,184.4,320.8,184.3,320.9,184.1C320.9,184,320.9,184,320.9,184.1z M321.1,184.1C321.1,184.6,321.3,184.3,321.1,184.1
	C321.1,184.1,321.1,184.1,321.1,184.1z M321.5,184.7C321.6,184.9,321.8,184.9,321.5,184.7C321.6,184.7,321.6,184.7,321.5,184.7z
	 M321.8,185C321.8,185,321.8,185,321.8,185c-0.1,0.1,0.1,0,0,0.1C321.9,185.2,321.9,185,321.8,185C321.8,185,321.8,185,321.8,185
	C321.8,185,321.8,185,321.8,185z M321.8,185C321.8,185,321.8,185,321.8,185C321.8,185,321.8,185,321.8,185z M321.9,189.8
	C321.9,190,321.7,190,321.9,189.8C321.8,189.8,321.9,189.9,321.9,189.8z M322,185.2C321.9,185.3,322.1,185.4,322,185.2
	C322,185.2,322,185.2,322,185.2z M322.2,185.4c0.1,0.1,0.2,0.1,0.1,0.1c0.1,0.1,0.3,0.2,0.3,0C322.4,185.4,322.3,185.4,322.2,185.4
	C322.2,185.3,322.1,185.3,322.2,185.4z M322.7,185.7C322.5,185.6,322.7,185.8,322.7,185.7c0.1,0.1,0.3,0.2,0.4,0.2c0,0,0,0,0,0
	c0,0,0,0,0.1,0c0,0,0,0,0,0c0.1,0,0.2,0.1,0.4,0.1c0.1-0.2-0.1-0.1-0.3-0.2c0,0.1-0.3,0.1-0.4-0.1
	C322.9,185.7,322.7,185.6,322.7,185.7z M322.6,190.1C322.6,190.1,322.7,190.1,322.6,190.1C322.7,190.1,322.6,190.2,322.6,190.1z
	 M322.7,190.1C322.7,190.1,322.7,190.1,322.7,190.1C322.6,190.1,322.7,190.1,322.7,190.1C322.7,190.1,322.8,190.1,322.7,190.1
	C322.7,190.1,322.7,190.1,322.7,190.1z M322.8,185.6C322.8,185.7,322.6,185.7,322.8,185.6C322.7,185.7,322.7,185.7,322.8,185.6z
	 M322.7,190.1C322.7,190.1,322.7,190.1,322.7,190.1C322.7,190.1,322.7,190.1,322.7,190.1z M323.2,185.8L323.2,185.8
	C323.2,185.8,323.2,185.8,323.2,185.8z M323.3,185.8C323.3,185.8,323.3,185.8,323.3,185.8C323.4,185.8,323.2,186,323.3,185.8z
	 M323.8,186c0,0.1,0.2,0.1,0.3,0.2c0.1,0,0.2,0.1,0.3,0.1c0.1,0.1,0.1,0,0,0c-0.3-0.1-0.1-0.1,0.2,0c0.1,0.1,0.4,0.1,0.2,0
	c0-0.1-0.2-0.1-0.2-0.1c-0.1,0-0.4-0.1-0.4-0.1C324,185.8,323.8,186.1,323.8,186C323.9,185.9,323.8,185.9,323.8,186z M324.1,186.3
	C324.2,186.3,324,186.3,324.1,186.3C323.9,186.2,324,186.3,324.1,186.3z M327.8,181.1C327.8,181.1,327.8,181.1,327.8,181.1
	C327.8,181,327.8,181.1,327.8,181.1z M327.9,180.6L327.9,180.6C327.9,180.6,327.9,180.6,327.9,180.6z"/>
<path d="M333.5,175.6c0.1,0,0.3,0.1,0.4,0.3c0.1,0.2,0.4,0.4,0.4,0.5c0.2,0.1,0.4,0.3,0.4,0.6c0.2,0,0,0.2,0.2,0.3
	c0.1,0.3,0.1,0.8,0.2,1c0,0.1,0.1,0.4,0.1,0.4c0,0-0.4,0.5-0.1,0.3c0.1,0.4-0.1-0.1-0.1,0.2c-0.1,0.3,0.2-0.1,0.1,0.1
	c0,0.2-0.1,0.6-0.2,0.6c-0.2,0.1-0.1,0-0.2,0.2c-0.1,0.1,0,0.2-0.2,0.4c0,0.1-0.1,0.2-0.1,0.2c0-0.2-0.1-0.1-0.2,0
	c0-0.2-0.1-0.1,0-0.2c0.1-0.2-0.2,0.2-0.1-0.1c-0.1,0-0.1,0-0.3-0.1c-0.1,0.1-0.3,0.1-0.2-0.1c-0.1,0.1-0.3,0.1-0.3,0
	c0,0-0.2-0.1-0.1-0.2c-0.1-0.1,0.2-0.1,0-0.2c0.1-0.2,0.1-0.2-0.1-0.2c-0.3-0.3,0.2,0,0-0.1c-0.1-0.1-0.3-0.1-0.3,0
	c0,0-0.4-0.1-0.2-0.2c-0.2,0.1-0.1,0.3-0.3,0.2c-0.2,0.2-0.3,0.4-0.4,0.6c-0.2,0.2-0.1,0.1-0.2,0.3c-0.1,0.1-0.2,0.3-0.3,0.4
	c-0.1,0.2-0.2,0.5-0.3,0.7c0,0.1-0.2,0.4-0.2,0.5c-0.1,0.2-0.1,0.2-0.1,0.3c0,0,0,0,0,0c0,0,0,0,0,0.1c0,0-0.1,0.1-0.1,0.2
	c0,0,0,0.1,0,0.1c0,0.1,0,0.2,0,0.1c0,0.1-0.1,0.2-0.1,0.4c-0.1,0-0.1,0.2-0.1,0.2c0,0.2,0.1,0.6-0.1,0.8c0,0.1,0,0.2-0.1,0.2
	c0.1,0.2-0.1,0-0.1,0.2c0.1,0.1,0,0.2,0,0.2c0.1,0.1,0,0.2,0,0.3c0,0.1,0,0.1,0,0.2c0,0,0,0,0,0c0,0,0,0,0,0c0,0.1,0,0.1,0,0.2
	c0,0.2,0.1,0.2,0,0.4c0,0,0,0,0,0c0,0,0,0,0,0c-0.1,0.1,0,0.1,0,0.1c0,0.1,0.1,0.1,0,0.3c0,0.1,0.1,0.4,0.2,0.4
	c-0.1,0.3,0.1,0.5,0.4,0.2c1-0.7,1.8-1.6,2.6-2.5c0.1-0.1,0.3-0.3,0.1,0c0.2-0.3,0.2-0.1,0.4-0.3c0.1-0.1,0.2,0.1,0.1,0.1
	c0.1,0.1,0.1,0.2,0.3,0.3c0.2-0.2,0.1-0.1,0.2,0.1c-0.2,0.3,0.1-0.1,0.3-0.1c-0.1,0.3,0,0.2,0.1,0.4c0,0,0,0,0-0.1c0,0-0.1,0,0,0
	c0,0,0,0,0,0c0,0,0,0,0-0.1c0,0,0,0,0.1,0c0,0.1,0,0.2,0.1,0.2c0,0,0.3-0.4,0.2-0.1c0.2-0.1,0.1,0.3-0.1,0.4c-0.1-0.1,0-0.2-0.1-0.1
	c0.1,0-0.1,0.2,0.1,0.2c0.3,0.1-0.3,0.1,0,0.2c-0.1,0-0.1,0.1-0.2,0.2c0,0,0,0,0,0c0,0.1-0.1,0.1-0.1,0.1c0.2,0-0.1,0-0.2,0.1
	c-0.2,0.1,0,0.3,0,0.4c-0.1-0.1-0.1,0.1-0.1,0.2c-0.1-0.1,0,0.1-0.1,0.1c-0.1-0.1,0.1-0.1,0.1-0.2c0-0.1-0.1-0.2-0.1-0.1
	c-0.1,0.1-0.3,0.3-0.3,0.5c-0.2-0.1-0.2,0.1-0.2,0.1c0,0-0.1,0-0.1,0.1c0,0.1,0,0.2-0.1,0.3c-0.1-0.1-0.2,0.1,0,0.1
	c-0.1,0.2-0.2-0.1-0.1,0.1c0.1,0,0.1,0.1,0,0.1c-0.2,0.1-0.1-0.1-0.2-0.1c0,0.1,0,0.1-0.2,0.1c0,0,0,0.1,0,0.1c0,0,0,0,0,0
	c0.1,0,0,0.1-0.1,0c-0.1,0.1-0.2,0.1-0.2,0.2c0,0.1-0.4,0.2-0.4,0.3c-0.1,0.1-0.3,0.1-0.5,0.1c-0.1-0.3,0,0.1-0.2,0
	c0-0.1-0.3-0.1-0.4-0.1c-0.2,0-0.5-0.1-0.7-0.1c0.4,0.2-0.2-0.1-0.1,0.1c0.1,0.1,0.3,0,0.4,0.1c0.1,0.1,0.5,0.2,0.2,0.2
	c-0.2,0.1-0.2-0.1-0.5-0.1c-0.1-0.1-0.2-0.1-0.4-0.1c0.3-0.1,0-0.1,0-0.1c-0.3-0.2,0.2,0.1-0.1-0.2c-0.3-0.3-0.1,0.2-0.3-0.1
	c0-0.1-0.3-0.3-0.5-0.3c-0.2,0-0.6-0.4-0.6-0.2c-0.3-0.3-0.6-0.6-0.8-1c-0.1-0.2-0.2-0.4-0.1-0.6c0-0.1,0-0.3,0-0.3
	c0-0.7,0-1.5,0.2-2.3c0.5-2.4,1.6-4.8,3.3-6.8c0.3-0.3,0.5-0.7,0.8-0.8c0.1-0.2,0.3-0.1,0.5-0.3c0.1-0.1,0.8-0.1,0.6-0.1
	c0,0,0,0,0,0C333.3,175.5,333.4,175.6,333.5,175.6z M330,186C330,186,330,186,330,186C330,186,330,186,330,186z M330.5,183.3
	C330.6,183.3,330.3,183.3,330.5,183.3C330.5,183.3,330.5,183.3,330.5,183.3z M330.6,182.6C330.6,182.6,330.6,182.6,330.6,182.6
	C330.6,182.6,330.6,182.6,330.6,182.6z M331.7,188.8c0.1,0.1,0,0.1-0.1,0.2c-0.2,0-0.2-0.1-0.1-0.2
	C331.6,188.9,331.6,188.8,331.7,188.8z M331.7,189c-0.4,0,0.1,0,0.1-0.1C332,189,331.8,189,331.7,189z M331.6,180.2
	C331.5,180.3,331.7,180.2,331.6,180.2C331.6,180.2,331.6,180.2,331.6,180.2z M334.3,187.1c0,0.2-0.3,0.2-0.3,0.3
	c-0.2,0.2-0.2,0.2-0.3,0.3c-0.1,0.1-0.3,0.3-0.4,0.4c0,0,0,0,0,0c0,0.1-0.1,0.1-0.1,0.1c0,0.1-0.1,0.1-0.1,0c-0.2,0,0,0.2-0.3,0.2
	c-0.1,0.4-0.1-0.1-0.2,0.2c-0.1,0.1-0.2,0.1-0.3,0.2c0,0,0,0,0,0c0,0,0,0,0,0c0,0-0.1,0-0.1,0.1c-0.2-0.1-0.1-0.2,0.1-0.2
	c0.2-0.2,0.3-0.1,0.5-0.3c0.1,0,0.3-0.3,0.3-0.3c0.1-0.1,0.4-0.3,0.6-0.5C333.9,187.4,334.1,187.1,334.3,187.1
	C334.3,187,334.3,187,334.3,187.1z M332.4,188.2C332.4,188.2,332.4,188.2,332.4,188.2C332.4,188.2,332.4,188.2,332.4,188.2
	C332.4,188.2,332.4,188.2,332.4,188.2C332.3,188.2,332.4,188.2,332.4,188.2z M332.4,188.2C332.4,188.2,332.4,188.2,332.4,188.2
	C332.4,188.2,332.4,188.2,332.4,188.2z M332.5,188.4c-0.3,0.1,0-0.1,0-0.2C332.6,188.3,332.6,188.4,332.5,188.4z M332.5,188.7
	C332.5,188.7,332.5,188.7,332.5,188.7C332.5,188.7,332.5,188.7,332.5,188.7z M332.7,179.7C332.8,179.8,332.7,179.8,332.7,179.7
	C332.7,179.7,332.7,179.7,332.7,179.7z M333.7,184.3c0,0.2,0,0.2,0,0.2c0,0,0.2,0,0,0c0,0,0,0,0,0
	C333.7,184.4,333.8,184.3,333.7,184.3C333.7,184.3,333.7,184.3,333.7,184.3z M333.7,184.4C333.7,184.4,333.7,184.4,333.7,184.4
	C333.7,184.5,333.7,184.4,333.7,184.4z M334.4,180.5C334.4,180.5,334.4,180.5,334.4,180.5C334.4,180.5,334.4,180.6,334.4,180.5z
	 M334.5,186.7C334.4,186.8,334.4,186.7,334.5,186.7C334.5,186.7,334.5,186.7,334.5,186.7z M334.7,186.5c-0.2,0,0.2-0.2,0.2-0.3
	C335,186.3,334.7,186.4,334.7,186.5z M334.7,185.8C334.7,185.8,334.7,185.8,334.7,185.8C334.7,185.8,334.7,185.9,334.7,185.8z
	 M335.2,185.3C335.3,185.5,335,185.3,335.2,185.3C335.2,185.2,335.2,185.2,335.2,185.3C335.3,185.2,335.2,185.3,335.2,185.3z"/>
<path d="M338.6,174.9c0.1-0.1,0.2,0.1,0.2,0.2c0.1,0.2,0.2,0.3,0.5,0.3c0,0,0,0.2,0.1,0.2c0.2,0,0,0.2,0.1,0.3
	c0.1,0.1,0.2,0,0.2,0.1c-0.1,0.1,0.1,0.3,0.1,0.6c0,0.3-0.2,0.1-0.2,0.3c0.2,0.1,0.1,0.1,0.1,0.2c-0.1,0.2-0.3,0.3-0.1,0.3
	c-0.1,0.2-0.1,0.2-0.1,0c0,0.1-0.1,0.2-0.1,0.3c0,0,0,0,0,0c-0.1,0,0,0,0,0c0,0.2,0,0.3-0.1,0.6c-0.1,0.4,0,0.2-0.2,0.6
	c0,0.1-0.1,0.5-0.1,0.6c0,0-0.1,0.1-0.1,0.3c0.2,0.1-0.1,0-0.1,0.2c0.1,0.3,0,0.1-0.1,0.4c0.9-0.2,1.8-0.4,2.7-0.6
	c0.3-1.5,0.7-2.9,1.1-4.4c0.1-0.3,0.1-0.7,0.3-0.8c0.1-0.2,0.5-0.4,0.5-0.1c0.2,0.2-0.2-0.4,0.1-0.1c0.1-0.2,0,0.3,0.2,0.2
	c0,0.2,0.3,0.2,0.1,0.3c0.1-0.1,0.1,0.1,0.3,0c-0.2,0.2,0.2,0,0.2,0.2c0.2-0.1,0,0,0.2,0.1c0.1,0.3,0.2-0.1,0.2,0.1
	c0,0.2,0.1,0.3,0,0.5c0,0,0.2,0.2,0,0.2c-0.1,0.3,0.3-0.2,0.1,0.2c-0.1-0.2,0,0.1-0.1,0.2c0.1,0.2-0.2,0.1,0,0.2
	c-0.1,0.1-0.2,0.3-0.2,0.5c0,0.1,0.1,0.2,0,0.2c-0.1,0.3,0,0.6-0.1,0.9c-0.2,0.6-0.3,1.2-0.4,1.8c0,0.3-0.2,0.7-0.2,1
	c-0.1,0.1,0,0.2-0.1,0.4c0,0.2,0,0.3,0,0.4c-0.1,0.5-0.1,1-0.2,1.5c0,0.1-0.1,0.5-0.1,0.6c0,0,0,0.1,0,0.2c0,0.2-0.1,0.2,0,0.3
	c-0.1,0.1,0,0.4-0.1,0.6c-0.1,0.3,0,0.6-0.1,0.8c0,0.3,0,0.4,0,0.6c0,0,0,0,0,0c0,0,0,0,0,0c0,0,0,0,0,0.1c0,0.2,0,0.3,0,0.4
	c0,0.3-0.2,0.2-0.1,0c0-0.4-0.1,0.3-0.1-0.1c0-0.2-0.2-0.1-0.2,0c0.1-0.1-0.1,0-0.1-0.1c0,0.1,0,0.1-0.1,0.2c0.1-0.3-0.2,0-0.4-0.1
	c-0.2,0.2-0.1-0.1-0.4,0.1c0,0-0.1-0.4-0.1-0.2c-0.2,0.2-0.1-0.2-0.2-0.1c-0.1,0,0,0.3-0.2,0.2c0,0.3-0.1,0.2-0.2,0.1
	c0-0.1-0.1-0.2-0.1-0.2c0,0-0.1,0,0,0c0,0-0.1,0,0-0.1c0.1-1.4,0.3-2.8,0.4-4.2c-0.2,0-0.5,0.1-0.6,0.1c-0.1,0-0.4,0.1-0.7,0.2
	c-0.2,0.1-0.4,0-0.5,0.1c-0.1,0-0.5,0.2-0.6,0.2c-0.1-0.1-0.2,0.1-0.4,0.1c0,0.2-0.1,0.4-0.1,0.6c-0.1,0.2-0.1,0.4-0.1,0.6
	c0,0.3-0.1,0.9-0.1,1.2c-0.1,0,0.1,0.2,0,0.2c0,0.1,0,0.1,0,0.3c0,0,0,0,0,0c0,0,0,0,0,0.1c-0.1,0.2,0.1,0.2,0,0.3
	c0,0,0.1,0.4,0,0.3c0,0.3,0,0.3,0,0.6c-0.1,0,0,0.6-0.1,0.4c-0.1-0.2-0.2,0.1-0.2-0.3c-0.1,0.1-0.2,0-0.2,0.1
	c-0.2-0.1,0,0.4-0.2,0.1c0.1-0.1-0.1-0.1-0.2-0.1c-0.1-0.2-0.4,0.1-0.3-0.1c0,0-0.1,0-0.1-0.1c0,0-0.2,0.1,0,0c0,0,0,0,0,0
	c-0.1-0.1-0.1-0.1-0.2-0.2c0,0,0,0,0,0c0,0,0,0,0,0c0,0.1,0,0.3-0.1,0.1c-0.1,0,0-0.1-0.1,0c-0.1-0.1-0.2,0.1-0.2,0.1
	c-0.1-0.1-0.1-0.1-0.3-0.2c0-0.3-0.1-0.1-0.1-0.3c0.1,0-0.1-0.3,0-0.6c0.2-3.5,0.9-7,2.1-10.5c0.1-0.3,0.2-0.8,0.3-0.8
	c0.1-0.4,0.1-0.1,0.3-0.2C338.5,174.8,338.4,174.9,338.6,174.9C338.7,174.8,338.4,174.9,338.6,174.9z M343.1,186.6L343.1,186.6
	C343.2,186.6,343.1,186.6,343.1,186.6z"/>
<path d="M348,173.6c0.1,0,0.2,0,0.3,0.1c0.1,0.1,0.3,0,0.4,0.2c0,0,0.3,0.4,0.2,0.2c0-0.1,0.1,0.1,0.1,0.1c0,0.2,0,0.4,0.1,0.5
	c0,0.1-0.1,0-0.2,0.2c0,0.3-0.1,0.2,0.1,0.3c-0.1,0.1,0,0.2-0.1,0.2c-0.1,0.2,0.1,0.3,0,0.4c0.1,0.2-0.1,0.3-0.1,0.4
	c0.1,0,0.1,0.1,0.1,0.3c-0.1,0.4-0.1,0.1-0.2,0.3c0.1,0,0,0.1,0,0.3c-0.1,0.1,0,0.4-0.1,0.4c0,0.2-0.1,0-0.1,0.4
	c0,0.1-0.1,0.3-0.1,0.4c-0.1,0.2,0.1,0,0,0.2c0,0.1,0,0.2-0.1,0.5c0,0.1,0,0.1,0,0.1c0,0,0,0,0,0c0,0,0,0,0,0
	c-0.1,0.1,0,0.3-0.1,0.5c0,0.3-0.1,0.6-0.2,1c0.1,0-0.1,0.4-0.1,0.5c0,0.4-0.1,0.8-0.2,1.2c-0.1,0.3-0.1,0.7-0.1,0.9
	c0,0.1-0.1,0.4-0.1,0.6c0.9-0.1,1.8-0.3,2.6-0.2c0.1,0.1,0.2,0.1,0.4,0.1c0.1,0.1,0.3,0.2,0.1,0.2c0.1,0.1,0.1,0.5,0,0.1
	c-0.1,0-0.1,0-0.1,0.1c0,0,0,0,0,0c0,0.1,0,0.1,0.1,0.1c-0.1,0.2-0.3-0.1-0.1,0.2c-0.2,0.1-0.1,0.1-0.2,0.2c-0.1,0.2,0.2,0,0.3,0.2
	c-0.1,0.1-0.6,0.1-0.2,0.3c-0.2,0.2,0.1,0.2-0.2,0.3c0.1,0,0.1,0.1,0,0.2c-0.1,0,0,0.2,0,0.3c-0.1,0.3-0.3-0.2-0.2,0.2
	c0.1,0.2-0.3,0-0.3,0c0,0.1,0.1,0.3,0,0.1c-0.2,0.1-0.2,0-0.3,0.1c-0.1-0.1-0.3,0-0.2,0c0-0.1-0.3,0.1-0.3,0c-0.1,0-0.4,0.1-0.3,0
	c0,0-0.3,0.1-0.4,0.1c0-0.1-0.2,0.1-0.2-0.1c-0.1,0.2-0.3,0.1-0.5,0.2c-0.1-0.1-0.2,0-0.3,0c0,0,0,0,0,0c0,0-0.1,0-0.1,0.1
	c-0.1,0-0.1,0-0.2,0c0,0,0,0,0,0c0,0-0.1,0-0.1,0c0,0-0.1,0,0,0c-0.1,0-0.1,0-0.1,0c0,0,0,0,0,0c0,0,0,0,0,0c0,0,0,0-0.1,0
	c0,0.1-0.3,0.1-0.5,0.1c0.2,0-0.1,0.1-0.2,0.1c0,0-0.1,0-0.2,0.1c0.1,0,0.1,0,0.2,0c0,0,0,0,0,0c0,0.1,0,0.1-0.2,0.1
	c0.1,0.1-0.2,0-0.1,0.1c-0.1,0.1-0.2-0.1-0.3,0c-0.1,0.1-0.1,0.1-0.2,0.1c0,0,0,0,0,0c0,0,0,0,0,0c-0.1,0-0.1,0-0.2,0.1
	c-0.3,0.1,0-0.1,0-0.1c0,0,0-0.1,0-0.1c0,0,0,0,0,0c0,0,0,0,0,0c0,0.1,0,0-0.1,0c0.4-0.1-0.2-0.1,0-0.2c0-0.1,0.1-0.2,0-0.3
	c0.1,0.2-0.2,0-0.1,0c0.1-0.1-0.2-0.1,0.1-0.1c-0.1-0.1-0.2-0.2-0.1-0.4c0,0.1-0.3,0.2-0.2,0c0.1,0,0.1-0.5,0.1-0.3
	c0.2,0,0-0.2,0-0.2c0.1-0.1,0-0.3,0-0.3c0.1-0.1,0.2,0.2,0.2-0.1c-0.1,0-0.1-0.2-0.3-0.2c-0.1-0.1-0.1-0.2,0.1-0.3
	c0.3-0.4,0.7-0.1,0.8-0.7c0.4-3,1.1-6,1.8-8.9c0.1-0.4,0.3-0.8,0.3-1.1c-0.2-0.1-0.1-0.2-0.1-0.3c0.2-0.1,0.4-0.2,0.6-0.2
	C347.7,173.4,347.9,173.5,348,173.6z M344.2,187.2C344.3,187.4,343.9,187.3,344.2,187.2C344.2,187.1,344.2,187.2,344.2,187.2z
	 M344.4,187.1C344.4,187.1,344.4,187.1,344.4,187.1C344.4,187.2,344.4,187.2,344.4,187.1z M344.5,187.2
	C344.6,187.2,344.6,187.2,344.5,187.2C344.6,187.2,344.6,187.2,344.5,187.2z M344.6,186.9C344.6,187,344.7,186.9,344.6,186.9
	C344.6,186.9,344.6,186.9,344.6,186.9z M344.9,186.8C344.4,186.9,345.2,186.8,344.9,186.8C345,186.8,345,186.8,344.9,186.8z
	 M345.4,186.8C345.4,186.8,345.4,186.8,345.4,186.8C345.4,186.8,345.4,186.8,345.4,186.8z M345.5,186.8c-0.1,0.2-0.1,0-0.1,0
	C345.5,186.8,345.5,186.8,345.5,186.8z M345.6,186.8C345.6,186.8,345.6,186.8,345.6,186.8C345.5,186.8,345.5,186.8,345.6,186.8z
	 M346,186.4C345.9,186.5,346.2,186.4,346,186.4C346.1,186.4,346,186.4,346,186.4z M346.2,186.6C346.2,186.6,346.2,186.6,346.2,186.6
	C346.2,186.6,346.2,186.6,346.2,186.6z M346.5,186.6L346.5,186.6C346.5,186.6,346.5,186.6,346.5,186.6z M347.6,186.1
	c0.1,0,0.5-0.1,0.4-0.1c-0.1,0-0.3,0-0.4,0C347.3,186,347.2,186.1,347.6,186.1z M348.4,186C348.1,186.2,348.6,186,348.4,186
	C348.4,186,348.4,186,348.4,186z M348.7,186C348.8,186.1,349.1,185.9,348.7,186C348.7,186,348.7,186,348.7,186
	C348.7,186,348.7,186,348.7,186z M348.9,176.5C348.9,176.6,348.8,176.6,348.9,176.5C348.9,176.5,348.9,176.5,348.9,176.5
	c0,0,0-0.1,0.1-0.2C348.9,176.4,348.9,176.5,348.9,176.5z M349.7,185.8C349.7,185.8,349.7,185.7,349.7,185.8
	C349.6,185.8,349.5,186,349.7,185.8z"/>
<path d="M356.6,172.8c0.1,0.1,0.3,0.4,0.5,0.4c0.1,0.1,0.2,0,0.3,0.1c0.1,0.2,0.4,0.2,0.4,0.4c0.2,0.2,0.3,0.4,0.4,0.6
	c0,0.4,0.2,0.3,0.2,0.7c-0.1,0-0.1,0.1-0.1,0.2c0.1-0.2,0.2,0.4,0,0.2c-0.1,0.5,0,1,0,1.4c-0.1,0.1,0.2,0,0,0.2
	c-0.1,0.1,0,0.1,0,0.2c0-0.1,0-0.1,0-0.1v0c0-0.1,0.1-0.1,0.1,0.2c-0.1,0-0.2,0.4-0.1,0.4c0.1,0.2,0,0.4,0,0.7
	c0.1,0.1-0.1,0.4,0.1,0.3c0,0.2,0,0.2-0.1,0.1c0,0,0,0,0,0c0,0,0,0,0,0.1c0,0.3,0.2,0.3,0,0.5c0.1,0.1-0.2,0.4,0,0.6
	c0,0.2-0.2,0-0.1,0.2c0.1-0.1,0.1,0.1,0.3,0.1c-0.1,0.1-0.2,0.1-0.2,0.2c0.2,0,0.2,0.2,0,0.3c0,0.1,0.4-0.1,0.2,0.1
	c-0.2-0.1-0.1,0.2-0.2,0.1c-0.1-0.1-0.1,0.1-0.1,0.1c-0.1,0.1,0.4-0.1,0.2,0c-0.2,0,0.1,0.2-0.1,0.1c-0.1,0.1,0,0-0.1,0.3
	c-0.1-0.1-0.1,0.1-0.1,0.2c-0.1,0,0.1,0.3-0.1,0.3c0,0.2,0,0.2,0,0.5c-0.1,0.2,0,0.4-0.1,0.6c0.2,0.1,0,0.1,0.1,0.2
	c-0.1,0-0.1,0.4-0.1,0.4c0.2,0.1-0.1,0.1,0,0.2c-0.1,0.1,0,0.4-0.1,0.5c0.1,0.2,0,0.3,0.1,0.5c0,0.3-0.4-0.2-0.3,0
	c-0.1,0-0.1,0.1-0.1,0.1c-0.1,0-0.3,0.1-0.3,0c0.1,0-0.2-0.1-0.2-0.1c0,0.3-0.2-0.2-0.2-0.1c-0.1,0.3-0.2-0.2-0.4-0.1
	c0.1-0.2-0.2-0.3-0.1-0.1c-0.1,0.2-0.4-0.1-0.4,0.1c-0.1,0.4-0.1-0.1-0.2,0c0,0.1-0.2-0.1-0.2,0.1c-0.2,0,0.3-0.3-0.1-0.2
	c0.1-0.6,0.1-1.1,0.1-1.7c-0.1-0.3,0.2-1.1-0.2-1c-0.4-0.2,0.4,0,0.3-0.3c0.1-0.1,0-0.3-0.4-0.1c0.2,0.1-0.1,0.2,0,0
	c-0.1,0-0.3,0.1-0.4,0.1c-0.2,0-0.2,0.2,0,0.1c0.2,0.1-0.3,0.2-0.2,0.2c0.1,0,0,0.1,0.1,0.1c-0.2,0-0.6,0.2-0.7,0.1
	c-0.2,0.2-0.1,0-0.3,0c-0.2,0.2-0.4,0-0.5,0.1c-0.1-0.2-0.3,0.1-0.4-0.1c0,0.1,0,0.3,0,0.1c-0.1,0.1-0.1,0.3,0.1,0.1
	c0.2,0,0.1,0.4-0.1,0.3c-0.1,0.1,0,0.3-0.1,0.2c-0.1-0.3-0.3,0.5-0.2,0.4c0.1,0,0.1,0.3,0,0.2c0-0.2-0.4,1.1-0.4,1.1
	c0-0.2-0.2,0.1,0,0.1c-0.1,0.2-0.1,0.3-0.1,0.1c-0.1,0.1-0.1,0.4-0.1,0.3c0,0,0,0.1,0,0.1c0,0.1-0.1,0.1-0.1,0.1
	c-0.3-0.1,0.2,0.2,0,0.1c0.1,0.2-0.3-0.1-0.2,0c-0.1-0.2-0.3,0.5-0.2,0c0.1-0.1-0.2-0.3-0.1-0.1c0,0.1,0,0.2-0.1,0.1c0,0,0.1,0,0,0
	c0,0,0,0,0,0c0,0-0.1-0.1,0-0.2c-0.4,0.1,0.1,0,0,0.2c0-0.1-0.2,0.1-0.2-0.1c0.2-0.1-0.2-0.2-0.2,0c0.2-0.2,0.1,0.2,0,0.1
	c0-0.2-0.2-0.1-0.1-0.1c-0.1-0.4-0.2,0.3-0.2-0.1c0.1,0,0.1-0.3-0.1-0.2c-0.2,0.1,0-0.2-0.1-0.2c-0.1,0-0.2,0.1-0.3,0.1
	c0,0.1-0.2,0.1-0.2,0.1c0.1-0.3-0.3,0.2,0-0.1c0-0.1,0-0.3,0-0.4c0.1-0.2,0.1-0.1,0.1-0.4c0,0,0.1-0.2,0-0.3c1-3.4,2.7-7.6,4.1-9.6
	c0.5-0.8,1.1-1.7,2-2.1c-0.1,0.1,0.1,0,0.1,0c0,0,0.1-0.1,0.1-0.1C356.4,172.6,356.5,172.6,356.6,172.8z M351.2,185.7
	C351.2,185.7,351.2,185.7,351.2,185.7C351.2,185.7,351.2,185.7,351.2,185.7z M352.7,183.8C352.8,184.2,352.5,183.9,352.7,183.8
	C352.7,183.8,352.6,183.8,352.7,183.8z M353.2,182.4c0.2,0.2-0.1,0,0,0.1C353,182.6,353,182.5,353.2,182.4
	C353.1,182.4,353.1,182.4,353.2,182.4z M354.3,182.1C354.3,182.1,354.3,182.1,354.3,182.1c-0.3,0.1-0.6,0.1-0.8,0.2
	c-0.4,0,0,0.2,0.1,0.1c0.1,0,0.4,0,0.4-0.1C354.1,182.2,354.5,182.2,354.3,182.1C354.3,182.1,354.3,182.1,354.3,182.1z M353.9,182.4
	C353.9,182.5,353.5,182.5,353.9,182.4C353.8,182.4,353.9,182.4,353.9,182.4z M356,176.1c-0.1,0.1-0.1,0.4-0.2,0.4
	c0,0.2-0.4,0.2-0.2,0.3c0.1,0-0.3,0.4-0.3,0.3c0.1-0.1,0,0,0.1-0.2c-0.1,0.1-0.2,0-0.2,0.1c0,0,0,0,0,0c0,0,0,0,0,0
	c0,0-0.1,0.1-0.1,0.1c0,0,0,0,0,0c0,0,0,0,0,0.1c0,0,0,0.1-0.1,0c0,0.1,0.1,0,0,0.2c-0.3,0.2,0.1,0.1,0.1,0.2c0,0-0.1,0.3-0.1,0.2
	c0.2-0.2-0.1-0.1-0.1,0.1c-0.1,0.1-0.1,0.2-0.2,0.2c0,0.2-0.1,0.2-0.2,0.4c-0.1,0.3,0.1,0,0.2-0.1c0.1-0.1,0.1-0.4,0.3-0.3
	c0,0-0.1,0.2-0.1,0.4c-0.1,0.1-0.1,0.1-0.2,0.4c-0.2,0.1,0,0.4-0.2,0.4c0-0.2,0-0.1-0.1,0.1c-0.2,0-0.4,0.3-0.1,0.3c0,0,0,0.1,0,0.1
	c0.2,0.1,1.2-0.1,1.7-0.2c0.1-0.8,0.1-1.6,0.2-2.4c0-0.4,0.2-0.9,0-1.1C356,175.9,356,176,356,176.1z M354.2,179
	c0.1,0.1,0.1-0.1,0.2-0.3c-0.1,0,0.1,0,0-0.1C354.3,178.7,354.3,178.9,354.2,179z M354.3,179.2C354.5,179.3,354.2,179.3,354.3,179.2
	C354.3,179.1,354.3,179.1,354.3,179.2z M355.2,182.1c0,0-0.1,0-0.1,0.1C354.7,182.1,355,182.1,355.2,182.1
	C355.1,182.1,355.2,182.1,355.2,182.1z M355,182c0-0.2-0.2,0,0.1-0.2C355.3,181.8,355.1,182,355,182z M355.1,177.1
	C355.1,177.1,355.1,177,355.1,177.1C355.2,177.1,355.1,177.1,355.1,177.1z M355.2,176.9C355.2,176.9,355.2,176.9,355.2,176.9
	C355.2,176.9,355.2,176.9,355.2,176.9z M355.3,177C355.4,177,355.4,177,355.3,177C355.4,177,355.3,177.2,355.3,177z M356,175.7
	c-0.1,0.1-0.1,0.2-0.2,0.3c0,0.1-0.3,0.4-0.2,0.3c0.1,0.1,0.3-0.3,0.2-0.3C355.9,176,356,175.9,356,175.7
	C356.1,175.8,356.1,175.8,356,175.7C356.1,175.8,356.1,175.8,356,175.7c0.1,0,0.1-0.1,0.1-0.1C356.1,175.6,356,175.7,356,175.7z
	 M355.9,175.6C355.8,175.8,356,175.7,355.9,175.6C355.9,175.6,355.9,175.6,355.9,175.6z M356.1,175.8
	C356.1,175.8,356.1,175.8,356.1,175.8C356.1,175.8,356.1,175.8,356.1,175.8z M357.4,185.3C357.4,185.4,357.4,185.4,357.4,185.3
	C357.4,185.3,357.4,185.3,357.4,185.3z M358.2,178.6C358.2,178.6,358.2,178.6,358.2,178.6C358.1,178.6,358.3,178.7,358.2,178.6z"/>
<path d="M361.4,172.3c0-0.2,0.1,0.2,0.2,0c0-0.2,0.3,0.1,0.3,0.2c0.2-0.2,0.2,0.2,0.3,0.2c-0.1,0.2,0.3-0.2,0.3-0.1
	c0.2,0.1-0.1,0.1,0.1,0.2c0.1-0.2,0.2-0.1,0.3,0.1c0.1-0.1,0.1-0.1,0.2-0.1c0,0,0,0,0,0c0,0,0,0,0,0c0.1,0.1,0.1,0.2,0.2,0.3
	c0.1,0.2,0.1,0.5,0.2,0.6c0,0,0,0,0,0c0,0,0,0,0,0c0,0,0,0,0,0.1c0,0.2,0.1,0.1,0.1,0.3c0,0.1,0,0.1,0,0.2c0.1,0.1,0,0.1,0,0.1
	c0,0.2-0.1,0.4,0.1,0.5c-0.1,0-0.2,0.2,0,0.4c0,0,0.2,0.1,0.1,0.3c-0.2,0.1,0,0,0.1,0.2c-0.1,0.1,0,0.2,0,0.4
	c0.1,0.7,0.1,1.4,0.3,2.1c0,0.4,0.1,0.4,0.1,0.1c0.3-1.9,0.8-3.8,1.4-5.6c0.1-0.3,0.2-0.7,0.4-0.9c0,0.2,0.1-0.1,0.3,0
	c0.1,0.3,0.1-0.1,0.2,0.1c0-0.1,0.2-0.1,0.2,0.1c-0.1,0,0,0.2,0.1,0.3c0,0,0.1,0.2,0.2,0.2c0,0.3,0.3,0.1,0.3,0.2
	c0.2,0.1,0.2,0.4,0.2,0.4c0.1-0.2,0.1,0.3,0.1,0.2c-0.1,0.3,0.2,0,0,0.3c-0.1,0.3,0,0.4,0,0.5c0,0.1-0.1,0.2-0.1,0.2
	c0,0,0.2,0.2,0,0.3c-0.1,0.1-0.1,0.2,0,0.3c-0.2,0.1,0,0.3-0.1,0.4c0.1,0,0,0-0.1,0.1c0.2,0.2-0.2,0.2-0.1,0.5c0,0.1-0.1,0.1,0,0.3
	c-0.1,0.2-0.1,0.4-0.1,0.6c0.1,0.3-0.1,0.3,0,0.5c0.1,0.2,0,0.1-0.1,0.2c0,0,0,0,0,0c0,0,0,0.1,0,0c0,0,0,0,0,0c0,0,0,0,0,0
	c-0.1,0.1,0,0,0,0.2c-0.1,0,0.1,0.1,0,0.2c0,0.1-0.1,0.2,0,0.2c-0.1,0.7-0.2,1.4-0.3,2.1c-0.1,0.4-0.1,0.9-0.1,1.3c0,0,0,0,0,0
	c0,0,0,0,0,0c0,0,0,0.1,0,0.1c0,0.1,0,0.4,0,0.5c0,0.1,0,0.6-0.1,0.9c0,0.1,0,0.3,0,0.4c0.1,0.1-0.1,0.1,0.1,0.2
	c-0.1,0.1-0.1,0.3-0.1,0.3c0.1,0,0.2,0.4,0,0.1c-0.2,0.2-0.1-0.2-0.3-0.3c-0.1,0.2-0.1,0-0.1,0.1c0,0.3-0.1-0.2-0.2,0
	c0.2,0.2,0.1,0.4,0,0c-0.4,0,0-0.1-0.1-0.1c-0.2,0-0.3,0.3-0.3,0.1c-0.1,0.1-0.2-0.1-0.3-0.1c-0.1-0.2-0.2,0-0.3-0.2
	c0,0.2-0.3,0.3-0.3,0.4c0-0.1-0.3-0.1-0.4-0.4c-0.1,0-0.7,0-0.9-0.4c-0.7-1-1-2.4-1.3-3.6c-0.1,0.1-0.1,0.7-0.1,0.9
	c0,0.2,0,0.3-0.1,0.5c0,0.1,0,0.2,0,0.3c0,0.1-0.1,0.4,0,0.5c-0.1,0.1,0.1,0.1-0.1,0.3c0,0.1,0,0.5,0,0.5c0,0.2,0,0.6,0,0.7
	c0,0.2,0,0.5,0,0.6c0.3,0.2-0.2,0.4,0,0.4c-0.1,0.2,0.2,0.2,0,0.4c-0.1,0.3-0.2-0.3-0.2,0.1c-0.1-0.2-0.2-0.1-0.1,0.1
	c0.1,0.1-0.3,0.1-0.1,0c-0.1-0.3-0.1,0.2-0.2-0.1c-0.1-0.1,0,0.2-0.2,0c-0.1,0.2-0.2-0.1-0.2,0.1c0,0,0,0,0,0c0,0,0,0,0,0
	c-0.1-0.1-0.1,0-0.2,0c0,0,0,0,0,0c0,0,0,0,0,0c0,0-0.1,0-0.1-0.1c0-0.2-0.2-0.3-0.2,0c-0.3,0.1-0.3,0-0.6,0.1c0-0.1,0-0.4-0.1-0.5
	c0-3.6,0.5-7.2,1.4-10.8c0.2-0.5,0.2-1.1,0.5-1.5c0-0.4,0.1,0,0.2-0.2c0.1,0,0.2-0.1,0.3-0.1C361.2,172.2,361.4,172.4,361.4,172.3z
	 M359.7,185.3C359.7,185.3,359.7,185.3,359.7,185.3C359.7,185.3,359.7,185.3,359.7,185.3z M359.9,185.2
	C359.9,185.3,360,185.3,359.9,185.2C359.9,185.3,359.9,185.3,359.9,185.2z M361.2,185.7c-0.1,0.1-0.3-0.3-0.2-0.3
	C361.1,185.5,361.3,185.5,361.2,185.7z M361.4,181.8C361.4,181.8,361.4,181.8,361.4,181.8C361.4,181.7,361.4,181.7,361.4,181.8z
	 M366.2,184.6C366.2,184.6,366.2,184.6,366.2,184.6C366.3,184.6,366.3,184.6,366.2,184.6c0.1,0.1-0.1,0.1-0.1-0.1
	C366.2,184.6,366.2,184.6,366.2,184.6z M366.3,181.8C366.3,181.8,366.3,181.8,366.3,181.8C366.3,181.8,366.3,181.8,366.3,181.8z"/>
<path d="M373.8,171.8c0.4,0.1,0.6,0.4,0.9,0.5c0.2,0.2,0.3,0.4,0.4,0.5c0.1,0.1,0,0.2,0.1,0.2c0,0.2,0.3,0.3,0.2,0.4
	c0,0.2,0.2,0.6,0.2,0.5c0,0,0,0.1,0.1,0.1c-0.1,0,0,0.1,0,0c0,0.1,0.1,0.2,0.1,0.3c0.1,0.3,0.2,0.6,0.2,0.8c0,0.3,0.2,0.7,0.1,0.8
	c0,0.2-0.1,0.6-0.1,0.8c-0.1,0.4-0.1,0.4-0.2,0.9c-0.1,0.2-0.1,0.4-0.2,0.7c0,0,0-0.3-0.1,0.1c0.1,0.1,0.1,0.3-0.1,0.4
	c-0.1,0.1-0.3,0.4-0.1,0.2c0,0.2-0.3,0.5-0.2,0.3c0-0.1-0.3,0.3-0.1,0.4c-0.2,0.1-0.1,0.4-0.2,0.3c-0.2,0.1,0,0.3-0.1,0.2
	c0,0.1-0.1,0-0.1,0.1c-0.1,0-0.1,0.1,0,0.1c0,0,0,0,0,0c0,0,0,0,0,0c0,0,0,0,0,0c-0.1,0-0.1,0.1-0.2,0.3c0,0.1,0.2-0.2,0.1,0
	c-0.2,0.3-0.3,0.6-0.6,0.8c-0.1,0.2-0.2,0.3-0.4,0.5c0.1,0.1,0,0-0.2,0.3c-0.1,0-0.2,0.2-0.3,0.4c0,0,0,0,0,0c0,0,0,0,0,0
	c0,0,0,0.1-0.1,0.1c0,0,0,0.1-0.1,0.2c-0.2,0.2-0.4,0.5-0.6,0.6c-0.1,0.1-0.1,0.1-0.2,0.2c-0.1,0.1-0.1,0.1-0.2,0.2
	c-0.1,0.2-0.4,0.3-0.5,0.4c-0.2,0.1-0.4,0.2-0.7,0.3c-0.1,0-0.3,0.2-0.3,0c-0.3,0,0.4-0.1,0.5-0.2c0.2-0.1,0.4-0.3,0.1-0.3
	c-0.3-0.1-0.2,0.1-0.2,0.2c-0.1,0-0.1-0.2-0.2-0.1c-0.1,0-0.4,0.2-0.3,0.1c-0.2,0-0.3,0.1-0.4-0.1c-0.2,0.1-0.4,0-0.6-0.2
	c-0.2-0.1-0.6-0.1-0.6-0.4c0-0.2-0.2-0.1-0.4-0.2c-0.3-0.1-0.2-0.3-0.4-0.3c0.1-0.2,0.1-0.8,0.2-1.3c0.2-1.9,0.6-3.8,1.1-5.7
	c-0.1,0,0.2-0.4,0.1-0.4c-0.1,0-0.3,0.1-0.3,0c-0.2-0.1,0.1-0.2,0-0.3c-0.3,0,0-0.4-0.2-0.4c-0.2,0-0.1-0.2-0.3-0.2
	c0-0.2,0-0.2-0.1-0.4c-0.1-0.1,0.2-0.2,0-0.2c0-0.2-0.3-0.1-0.4-0.3c-0.3-0.2,0-0.4,0.1-0.4c0.2-0.4,0.5-0.6,0.9-0.9
	c1-0.7,2.2-1.2,3.4-1.2C372.7,171.6,373.3,171.7,373.8,171.8z M368.5,175.4C368.6,175.6,368.8,175.4,368.5,175.4
	C368.6,175.4,368.6,175.4,368.5,175.4z M370,184.8c-0.1,0.1-0.1,0.2-0.1,0.1c-0.1,0-0.2,0.1-0.2-0.2
	C369.8,184.8,369.9,184.7,370,184.8z M371.7,174.2c-0.2,0-0.1,0.1,0,0.1c0,0,0,0,0,0c-0.1,0.1,0,0,0,0c0,0,0,0-0.1,0.1
	c-0.1,0.1,0.2,0.2-0.1,0.3c-0.1-0.2-0.1,0.3-0.1,0.4c-0.1,0.1,0,0.4,0,0.4c0.1,0.1-0.1,0.4-0.1,0.6c-0.1,0.1-0.2,0.7-0.1,0.5
	c-0.1,0.2-0.2,0.5-0.2,0.8c0,0.3-0.2,0.7-0.1,0.9c0,0.2,0,0.5-0.2,0.5c0,0.1-0.1,0.3-0.1,0.3c0.2-0.2-0.1,0.1,0.1,0.1c0,0,0,0,0,0.1
	c0,0,0,0,0,0c-0.1,0,0,0,0,0c0,0.1-0.1,0.1-0.1,0.3c0,0.2,0,0.4-0.1,0.6c-0.1,0.2-0.1,0.4-0.1,0.5c0,0.1,0.1,0.4-0.1,0.2
	c0,0.2-0.1,0.7-0.1,0.7c0,0.1,0.2,0,0.3-0.2c1.3-1.6,2.6-3.3,3.4-5.3c0.1-0.4,0.5-1.2,0.3-1.3c0.1,0,0.1-0.1,0-0.1
	c-0.4,0,0.2-0.1-0.1-0.2c-0.2-0.1-0.3-0.2-0.5-0.1c-0.2-0.1-0.2,0-0.4-0.1c-0.2,0-0.5,0.1-0.6,0c-0.3,0.1-0.3,0-0.5,0
	c-0.2,0.1-0.2,0.1-0.4,0.1C371.4,174.6,372,174.3,371.7,174.2C371.7,174.2,371.7,174.2,371.7,174.2z M370.5,181.2
	C370.5,181.3,370.5,181.2,370.5,181.2C370.5,181.2,370.5,181.2,370.5,181.2z M370.8,184.3C370.9,184.4,370.7,184.4,370.8,184.3
	C370.8,184.3,370.8,184.3,370.8,184.3C370.8,184.3,370.8,184.3,370.8,184.3C370.9,184.3,370.9,184.3,370.8,184.3z M370.8,179.2
	C370.8,179.2,370.8,179.2,370.8,179.2C370.9,179.2,370.8,179.2,370.8,179.2z M371.2,184.2c-0.1,0.3,0.2-0.1,0.2-0.1
	C371.3,184.1,371.3,184.2,371.2,184.2z M371.7,174.3C371.7,174.3,371.7,174.3,371.7,174.3L371.7,174.3z M371.8,174.2
	C371.9,174.2,372.1,174.2,371.8,174.2C371.9,174.1,371.9,174.2,371.8,174.2z M372.1,173.9C371.8,174,371.8,174.2,372.1,173.9
	C372,174.1,372.3,174.1,372.1,173.9C372.1,173.9,372,174,372.1,173.9z M372.6,174.1c-0.1,0.1-0.4-0.1-0.5,0.1c0,0.2,0.4,0,0.5,0
	c0.2-0.1,0.2,0,0.4,0c0.2-0.2-0.1-0.1-0.1-0.2C372.8,174,372.7,174.1,372.6,174.1z M372.6,173.8
	C372.6,173.9,372.5,173.9,372.6,173.8C372.5,173.9,372.5,173.9,372.6,173.8c-0.2,0.1-0.4,0-0.2,0.2c0.1-0.2,0.2,0,0.3,0
	c0.2,0,0.1-0.1,0.2,0c0,0,0,0,0,0c0,0,0,0,0,0C372.8,173.9,372.7,173.9,372.6,173.8C372.6,173.9,372.6,173.9,372.6,173.8z
	 M373.1,174C373.1,174.3,373.2,174.1,373.1,174c0,0,0.1-0.2-0.2-0.2C372.8,173.9,373,174.1,373.1,174z M372.9,182.7
	C372.9,182.7,372.9,182.7,372.9,182.7C373,182.8,372.9,182.8,372.9,182.7z M373,174.3C372.9,174.3,373.3,174.3,373,174.3
	C373,174.3,373,174.3,373,174.3z M373.4,174.2c0.2,0.1,0.5,0.1,0.7,0.3c0.2,0,0.1-0.1,0.2,0.1c0.1,0,0.3,0.1,0.2,0
	c0-0.2-0.1-0.2-0.3-0.3c-0.2-0.1-0.2,0-0.4-0.1c0,0.2-0.3,0.1-0.5,0C373.2,174.1,373.4,174.3,373.4,174.2z M374,174.5
	C374.4,174.6,373.9,174.6,374,174.5C374,174.5,374,174.5,374,174.5z M374.5,180.5C374.5,180.5,374.5,180.5,374.5,180.5
	C374.5,180.5,374.5,180.5,374.5,180.5z M374.6,180.3C374.6,180.3,374.6,180.3,374.6,180.3C374.6,180.3,374.7,180.3,374.6,180.3z
	 M375.6,174.1C375.6,174.1,375.6,174,375.6,174.1C375.6,174,375.6,174.1,375.6,174.1z"/>
<image style="overflow:visible;opacity:0.25;enable-background:new    ;" width="2154" height="1142" xlink:href="BD8BB487DBA8DB1E.png"  transform="matrix(0.2556 0 0 0.2556 -65.4614 2.1108)">
</image>
<path class="st0" d="M73.9,148.4c-0.3-0.4-5.7-6.7-5.7-6.7v0c-0.3-0.4-0.9-0.6-1.5-0.6c-1.6,0.1-3.2,0.2-4.8,0.4
	c-1.6,0.1-3.2,0.2-4.8,0.3c-0.7,0-1.3,0.3-1.9,0.8c-0.5,0.5-0.9,1.1-1.1,1.8c-0.3,1.3-0.5,2.6-0.8,3.8c-1.7-2-4.3-5.2-4.3-5.2
	s0,0,0,0c0,0,0,0,0,0c-0.3-0.4-0.9-0.7-1.6-0.6c-1.6,0.1-3.2,0.1-4.8,0.2c-1.6,0.1-3.2,0.1-4.8,0.1c-0.7,0-1.3,0.3-1.8,0.7
	c-0.5,0.4-0.9,1-1.1,1.7c-1.7,8-3.4,16-5.1,24c-1.7,8-3.4,16-5.1,24c-0.1,0.6,0,1.2,0.3,1.6l0,0c0,0,0,0,0,0.1c0,0,0,0,0,0s0,0,0,0
	c0.4,0.5,5.3,6.7,5.6,7.1c0.4,0.4,0.9,0.7,1.5,0.7c1.6,0,3.2-0.1,4.8-0.1c1.6,0,3.2-0.1,4.8-0.1c0.7,0,1.3-0.3,1.8-0.8
	c0.5-0.5,0.9-1.1,1.1-1.7c0.3-1.3,0.5-2.6,0.8-3.9c1.7,2.1,4.1,5.1,4.3,5.3c0.3,0.4,0.9,0.7,1.5,0.6c1.6-0.1,3.2-0.2,4.8-0.3
	c1.6-0.1,3.2-0.2,4.8-0.3c0.7,0,1.3-0.4,1.8-0.8c0.5-0.5,0.9-1.1,1.1-1.8c1.7-8.1,3.4-16.2,5.1-24.3c1.7-8.1,3.4-16.3,5.1-24.4
	C74.4,149.4,74.2,148.8,73.9,148.4z M56,192.2c-3.2,0.2-6.4,0.4-9.6,0.5c1.4-6.4,2.7-12.9,4.1-19.4c-3.2,0.2-6.4,0.3-9.6,0.4
	c-1.4,6.4-2.7,12.9-4.1,19.3c-3.2,0.1-6.4,0.1-9.6,0.1c3.4-16,6.8-32,10.2-48c3.2-0.1,6.4-0.2,9.6-0.3c-1.4,6.4-2.7,12.9-4.1,19.3
	c3.2-0.1,6.4-0.3,9.6-0.4c1.4-6.5,2.7-12.9,4.1-19.4c3.2-0.2,6.4-0.4,9.6-0.7C62.8,159.8,59.4,176.1,56,192.2z"/>
<path class="st0" d="M317,107.5c-1.9-2.1-3.8-4.3-5.6-6.4c-0.3-0.4-0.9-0.6-1.6-0.5c-4.4,0.6-8.8,1.3-13.2,1.9
	c-4.4,0.7-8.8,1.4-13.2,2.1c-0.7,0.1-1.3,0.5-1.8,1c-0.5,0.5-0.9,1.2-1.1,1.9c-1.7,8.3-3.4,16.5-5.1,24.8
	c-1.7,8.3-3.4,16.6-5.1,24.8c-0.1,0.7,0,1.2,0.3,1.6c0,0,0,0,0,0c0,0,5.3,5.9,5.7,6.2c0.3,0.4,0.9,0.5,1.6,0.4
	c4.4-0.7,8.8-1.5,13.2-2.2c4.4-0.7,8.8-1.4,13.2-2c0.7-0.1,1.3-0.5,1.8-1c0.5-0.5,0.9-1.2,1.1-1.9c0.3-1.6,0.7-3.3,1-4.9
	c0.3-1.6,0.7-3.3,1-4.9c0.1-0.7,0-1.3-0.3-1.6c-0.2-0.3-2.8-3.2-4.4-5c0.4-0.2,0.7-0.4,1-0.7c0.5-0.5,0.9-1.2,1.1-1.8
	c0.3-1.6,0.7-3.3,1-4.9c0.3-1.6,0.7-3.3,1-4.9c0.1-0.7,0-1.3-0.3-1.6c-1.4-1.6-2.9-3.3-4.3-4.9c0.5-0.1,0.9-0.1,1.4-0.2
	c2.4-0.4,4.8-0.7,7.2-1c0.7-0.1,1.3-0.4,1.8-0.9c0.5-0.5,0.9-1.2,1.1-1.8c0.3-1.6,0.7-3.3,1-4.9c0.3-1.6,0.7-3.3,1-4.9
	C317.5,108.5,317.4,107.9,317,107.5z M307.3,112.9c-5.6,0.8-11.2,1.6-16.7,2.5c-0.7,3.3-1.4,6.6-2,9.9c4-0.6,8-1.3,12-1.9
	c-0.7,3.3-1.4,6.6-2,9.9c-4,0.6-8,1.2-12,1.9c-0.7,3.3-1.4,6.6-2,9.9c5.6-0.9,11.2-1.8,16.7-2.6c-0.7,3.3-1.4,6.6-2,9.9
	c-8.8,1.3-17.6,2.8-26.3,4.3c3.4-16.6,6.8-33.1,10.2-49.6c8.8-1.5,17.6-2.8,26.3-4.1C308.6,106.4,308,109.6,307.3,112.9z"/>
<path class="st0" d="M206.5,127c-1.9-2-3.8-4-5.6-6.1c-0.4-0.4-0.9-0.5-1.6-0.4c-4.4,0.9-8.8,1.7-13.2,2.6
	c-4.4,0.9-8.8,1.7-13.2,2.5c-0.7,0.1-1.3,0.5-1.8,1c-0.5,0.5-0.9,1.2-1.1,1.9c-1.7,8.3-3.4,16.6-5.1,24.9
	c-1.7,8.3-3.4,16.6-5.1,24.9c-0.1,0.7,0,1.2,0.3,1.6c0,0,0,0,0,0c0,0,5.3,5.8,5.7,6.2c0.4,0.4,0.9,0.5,1.6,0.4
	c4.4-0.8,8.8-1.7,13.2-2.5c4.4-0.8,8.8-1.7,13.2-2.6c0.7-0.1,1.3-0.5,1.8-1.1c0.5-0.5,0.9-1.2,1.1-1.9c0.3-1.7,0.7-3.3,1-5
	c0.3-1.7,0.7-3.3,1-5c0.1-0.7,0-1.3-0.3-1.6c-0.2-0.2-2.8-3.1-4.4-4.8c0.4-0.2,0.7-0.4,1-0.7c0.5-0.5,0.9-1.2,1.1-1.9
	c0.3-1.7,0.7-3.3,1-5c0.3-1.7,0.7-3.3,1-5c0.1-0.7,0-1.3-0.3-1.6c-1.4-1.6-2.9-3.1-4.3-4.6c0.5-0.1,0.9-0.2,1.4-0.3
	c2.4-0.5,4.8-0.9,7.2-1.4c0.7-0.1,1.3-0.5,1.8-1.1c0.5-0.5,0.9-1.2,1.1-1.9c0.3-1.7,0.7-3.3,1-5c0.3-1.7,0.7-3.3,1-5
	C207,128,206.8,127.4,206.5,127z M196.7,133c-5.6,1.1-11.2,2.2-16.7,3.3c-0.7,3.3-1.4,6.6-2,10c4-0.8,8-1.5,12-2.3
	c-0.7,3.3-1.4,6.7-2,10c-4,0.8-8,1.6-12,2.3c-0.7,3.3-1.4,6.6-2,10c5.6-1.1,11.2-2.1,16.7-3.2c-0.7,3.3-1.4,6.7-2,10
	c-8.8,1.7-17.6,3.4-26.3,5c3.4-16.6,6.8-33.2,10.2-49.8c8.8-1.7,17.6-3.4,26.3-5.1C198.1,126.4,197.4,129.7,196.7,133z"/>
<path class="st0" d="M233.7,160c-0.3-0.4-5.7-6.1-5.7-6.1c-0.3-0.4-0.9-0.5-1.5-0.4c-1.6,0.3-3.2,0.6-4.8,0.9
	c0.8-3.7,1.5-7.5,2.3-11.2c1.3-6.2,2.5-12.5,3.8-18.7c0.1-0.7,0-1.3-0.3-1.6c-0.3-0.4-5.7-6.1-5.7-6.1c-0.3-0.4-0.9-0.5-1.6-0.4
	c-1.6,0.3-3.2,0.6-4.8,0.9c-1.6,0.3-3.2,0.6-4.8,1c-0.7,0.1-1.3,0.5-1.8,1.1c-0.5,0.5-0.9,1.2-1.1,1.9c-1.7,8.3-3.4,16.6-5.1,25
	c-1.7,8.3-3.4,16.6-5.1,25c-0.1,0.7,0,1.3,0.3,1.6c0,0,5.3,5.7,5.7,6.1c0.4,0.4,0.9,0.5,1.6,0.4c4-0.8,8-1.6,12-2.4s8-1.6,12-2.4
	c0.7-0.1,1.3-0.5,1.8-1.1c0.5-0.5,0.9-1.2,1.1-1.9c0.3-1.7,0.7-3.3,1-5c0.3-1.7,0.7-3.3,1-5C234.2,160.9,234,160.4,233.7,160z
	 M223.9,166c-8,1.6-16,3.2-23.9,4.7c3.4-16.6,6.8-33.3,10.2-49.9c3.2-0.6,6.4-1.3,9.6-1.9c-2.7,13.3-5.4,26.6-8.1,39.9
	c4.8-1,9.6-1.9,14.4-2.8C225.3,159.3,224.6,162.6,223.9,166z"/>
<path class="st0" d="M167.6,144.1c-0.3-1.4-0.9-2.7-1.6-3.8c-0.3-0.4-0.6-0.8-1-1.2c-1.8-2-3.7-4-5.5-6c0,0,0,0,0,0
	c-0.6-0.6-1.2-1.2-2-1.7c-1.2-0.7-2.5-1.2-4-1.4c-1.5-0.2-3.1-0.2-4.7,0.1c-2.4,0.4-4.8,0.8-7.2,1.3c-2.4,0.4-4.8,0.8-7.2,1.2
	c-0.7,0.1-1.3,0.5-1.8,1c-0.5,0.5-0.9,1.2-1.1,1.9c-1.7,8.3-3.4,16.5-5.1,24.8c-1.7,8.2-3.4,16.5-5.1,24.7c-0.1,0.7,0,1.3,0.3,1.6
	c0,0,0,0,0,0c1.9,2.1,3.8,4.2,5.6,6.3c0.3,0.4,0.9,0.6,1.6,0.4c2.4-0.4,4.8-0.8,7.2-1.2c2.4-0.4,4.8-0.8,7.2-1.2
	c1.1-0.2,2.3-0.5,3.4-0.9c1.1-0.4,2.3-1,3.4-1.6c1.6-0.9,3.2-2,4.7-3.3c1.4-1.3,2.8-2.7,4-4.3c1.2-1.6,2.3-3.3,3.1-5
	c0.8-1.7,1.4-3.5,1.8-5.2c0.7-3.3,1.4-6.6,2-10c0.7-3.3,1.4-6.6,2-10c0.2-1.2,0.4-2.3,0.4-3.4C168,146.2,167.9,145.1,167.6,144.1z
	 M159.5,145c-1.4,6.6-2.7,13.3-4.1,19.9c-0.6,3.1-2.1,6.1-4.2,8.8c-2,2.7-4.6,4.9-7.4,6.5c-1.9,1.1-3.9,1.8-5.8,2.1
	c-4.8,0.8-9.6,1.6-14.4,2.3c3.4-16.5,6.8-33,10.2-49.5c4.8-0.8,9.6-1.6,14.4-2.4c3-0.5,5.6-0.1,7.5,1.1c2,1.2,3.3,3.1,3.9,5.6
	C160,141,159.9,142.9,159.5,145z"/>
<path class="st1" d="M56,192.2c-3.2,0.2-6.4,0.4-9.6,0.5c1.4-6.4,2.7-12.9,4.1-19.4c-3.2,0.2-6.4,0.3-9.6,0.4
	c-1.4,6.4-2.7,12.9-4.1,19.3c-3.2,0.1-6.4,0.1-9.6,0.1c3.4-16,6.8-32,10.2-48c3.2-0.1,6.4-0.2,9.6-0.3c-1.4,6.4-2.7,12.9-4.1,19.3
	c3.2-0.1,6.4-0.3,9.6-0.4c1.4-6.5,2.7-12.9,4.1-19.4c3.2-0.2,6.4-0.4,9.6-0.7C62.8,159.8,59.4,176.1,56,192.2z"/>
<path class="st1" d="M100.7,149.6c-5.6,0.7-11.2,1.4-16.7,2c-0.7,3.3-1.4,6.5-2,9.8c4-0.4,8-0.9,12-1.3c-0.7,3.3-1.4,6.5-2,9.8
	c-4,0.5-8,0.9-12,1.3c-0.7,3.3-1.4,6.5-2,9.8c5.6-0.5,11.2-1.2,16.7-1.8c-0.7,3.3-1.4,6.5-2,9.8c-8.8,1-17.6,1.9-26.3,2.6
	c3.4-16.2,6.8-32.5,10.2-48.8c8.8-0.8,17.6-1.9,26.3-3C102,143,101.3,146.3,100.7,149.6z"/>
<path class="st1" d="M112.3,186.3c-3.2,0.5-6.4,0.9-9.6,1.3c3.4-16.4,6.8-32.8,10.2-49.3c3.2-0.5,6.4-0.9,9.6-1.4
	C119.1,153.4,115.7,169.8,112.3,186.3z"/>
<path class="st1" d="M159.5,145c-1.4,6.6-2.7,13.3-4.1,19.9c-0.6,3.1-2.1,6.1-4.2,8.8c-2,2.7-4.6,4.9-7.4,6.5
	c-1.9,1.1-3.9,1.8-5.8,2.1c-4.8,0.8-9.6,1.6-14.4,2.3c3.4-16.5,6.8-33,10.2-49.5c4.8-0.8,9.6-1.6,14.4-2.4c3-0.5,5.6-0.1,7.5,1.1
	c2,1.2,3.3,3.1,3.9,5.6C160,141,159.9,142.9,159.5,145z"/>
<path class="st1" d="M196.7,133c-5.6,1.1-11.2,2.2-16.7,3.3c-0.7,3.3-1.4,6.6-2,10c4-0.8,8-1.5,12-2.3c-0.7,3.3-1.4,6.7-2,10
	c-4,0.8-8,1.6-12,2.3c-0.7,3.3-1.4,6.6-2,10c5.6-1.1,11.2-2.1,16.7-3.2c-0.7,3.3-1.4,6.7-2,10c-8.8,1.7-17.6,3.4-26.3,5
	c3.4-16.6,6.8-33.2,10.2-49.8c8.8-1.7,17.6-3.4,26.3-5.1C198.1,126.4,197.4,129.7,196.7,133z"/>
<path class="st1" d="M223.9,166c-8,1.6-16,3.2-23.9,4.7c3.4-16.6,6.8-33.3,10.2-49.9c3.2-0.6,6.4-1.3,9.6-1.9
	c-2.7,13.3-5.4,26.6-8.1,39.9c4.8-1,9.6-1.9,14.4-2.8C225.3,159.3,224.6,162.6,223.9,166z"/>
<path class="st1" d="M267.1,124.3c-0.6,3.1-2.1,6.1-4.2,8.8c-0.1,0.1-0.1,0.2-0.2,0.3c1.4,1.2,2.3,2.8,2.7,4.8
	c0.4,1.7,0.4,3.6-0.1,5.6c-0.6,3.1-2.1,6.1-4.2,8.8c-2,2.7-4.6,5-7.4,6.6c-1.9,1.1-3.9,1.9-5.8,2.2c-4.8,0.9-9.6,1.8-14.4,2.8
	c3.4-16.6,6.8-33.2,10.2-49.8c4-0.8,8-1.5,12-2.3c3-0.5,5.6-0.1,7.5,1.1c1.9,1.2,3.3,3.1,3.9,5.6
	C267.5,120.3,267.5,122.2,267.1,124.3z"/>
<path class="st1" d="M307.3,112.9c-5.6,0.8-11.2,1.6-16.7,2.5c-0.7,3.3-1.4,6.6-2,9.9c4-0.6,8-1.3,12-1.9c-0.7,3.3-1.4,6.6-2,9.9
	c-4,0.6-8,1.2-12,1.9c-0.7,3.3-1.4,6.6-2,9.9c5.6-0.9,11.2-1.8,16.7-2.6c-0.7,3.3-1.4,6.6-2,9.9c-8.8,1.3-17.6,2.8-26.3,4.3
	c3.4-16.6,6.8-33.1,10.2-49.6c8.8-1.5,17.6-2.8,26.3-4.1C308.6,106.4,308,109.6,307.3,112.9z"/>
<path class="st1" d="M346.7,113.1c-0.3,1.6-0.7,3.3-1,4.9c-0.6,3-2.1,5.9-4.2,8.4c-1.3,1.6-2.8,3-4.4,4.2c0.8,5.6,1.7,11.2,2.5,16.7
	c-3.4,0.3-6.8,0.7-10.2,1.1c-0.7-4.7-1.4-9.4-2.1-14.1c-1.3,0.1-2.5,0.3-3.8,0.5c-1,4.9-2,9.8-3.1,14.8c-3.2,0.4-6.4,0.8-9.6,1.3
	c3.4-16.4,6.8-32.8,10.2-49.2c4.8-0.6,9.6-1.2,14.4-1.7c3-0.3,5.6,0.3,7.5,1.7c2,1.4,3.3,3.4,3.9,6
	C347.1,109.2,347.1,111.1,346.7,113.1z"/>
<path class="st1" d="M386.3,109.7c-3.2,0.1-6.4,0.1-9.6,0.3c0.2-1,0.1-1.9-0.2-2.7c-0.4-0.8-1-1.4-1.7-1.7c-0.5-0.2-1.1-0.3-1.8-0.3
	c-1,0-2,0.4-2.8,0.9c-0.9,0.6-1.7,1.3-2.2,2.2c-0.4,0.6-0.6,1.2-0.8,1.9c-1.4,6.9-2.9,13.7-4.3,20.6c-0.2,1-0.1,1.9,0.2,2.7
	c0.4,0.7,1,1.3,1.7,1.6c0.5,0.2,1.1,0.3,1.8,0.3c1-0.1,2-0.4,2.8-1c0.9-0.6,1.6-1.3,2.2-2.2c0.4-0.6,0.6-1.2,0.8-1.9
	c0.4-1.8,0.8-3.6,1.1-5.4c-1.6,0.1-3.2,0.1-4.8,0.2c0.7-3.2,1.4-6.5,2-9.7c4.8-0.2,9.6-0.4,14.4-0.5c-1.1,5-2.1,10-3.2,15
	c-0.6,3-2.1,5.8-4.2,8.2c-2,2.4-4.6,4.3-7.4,5.5c-1.9,0.8-3.9,1.3-5.8,1.5c-3,0.2-5.6-0.6-7.5-2c-2-1.4-3.3-3.5-3.9-6
	c-0.4-1.7-0.4-3.6,0.1-5.6c1.4-6.9,2.9-13.8,4.3-20.7c0.6-3,2.1-5.9,4.2-8.3c2-2.4,4.6-4.4,7.4-5.6c1.9-0.8,3.9-1.3,5.8-1.4
	c3-0.1,5.6,0.7,7.5,2.2c2,1.5,3.3,3.6,3.9,6.2C386.7,105.8,386.7,107.7,386.3,109.7z"/>
<path class="st0" d="M148,142.6c-0.5-0.2-1.1-0.2-1.8-0.1c-1.6,0.3-3.2,0.6-4.8,0.8c-2,9.9-4.1,19.8-6.1,29.8
	c1.6-0.3,3.2-0.5,4.8-0.8c1-0.2,2-0.6,2.8-1.3c0.9-0.7,1.6-1.5,2.2-2.5c0.3-0.6,0.6-1.3,0.8-2c1.4-6.6,2.7-13.2,4.1-19.9
	c0.2-1.1,0.1-1.9-0.3-2.6C149.4,143.4,148.7,142.9,148,142.6z"/>
<path class="st0" d="M394.4,110.3c-0.3-1.5-0.9-2.9-1.6-4.1c-0.3-0.5-0.7-1-1-1.4c0,0,0,0,0,0c-1.7-2.2-3.5-4.4-5.2-6.6c0,0,0,0,0,0
	c-0.6-0.9-1.4-1.7-2.3-2.3c-1.2-0.9-2.5-1.6-4-2c-1.5-0.4-3.1-0.6-4.8-0.6c-1.1,0-2.3,0.2-3.4,0.5c-1.1,0.3-2.3,0.7-3.4,1.2
	c-1.6,0.7-3.2,1.6-4.7,2.7c-1.5,1.1-2.8,2.4-4,3.8c-1.2,1.5-2.3,3-3.1,4.7c-0.8,1.6-1.4,3.3-1.8,5c-0.7,3.4-1.4,6.9-2.2,10.3
	c-0.7,3.4-1.4,6.9-2.2,10.4c-0.2,1.2-0.4,2.3-0.4,3.4c0,1.1,0.1,2.1,0.3,3.2c0.3,1.5,0.9,2.8,1.6,4c0.3,0.4,0.6,0.8,0.9,1.1
	c0,0,0,0-0.1,0c1.9,2.3,3.8,4.5,5.7,6.8l0,0c0.6,0.7,1.2,1.3,2,1.9c1.2,0.9,2.5,1.5,4,1.9c1.5,0.4,3.1,0.6,4.7,0.5
	c1.1-0.1,2.3-0.2,3.4-0.5c1.1-0.3,2.3-0.6,3.4-1.1c1.6-0.7,3.2-1.6,4.7-2.7c1.5-1.1,2.8-2.3,4-3.7c1.2-1.4,2.3-2.9,3.1-4.5
	c0.8-1.6,1.4-3.2,1.8-4.9c0.5-2.5,1.1-5,1.6-7.5c0.5-2.5,1.1-5,1.6-7.5c0.1-0.7,0-1.3-0.3-1.7c-0.1-0.1-0.5-0.6-1-1.3
	c0.5-0.1,1-0.3,1.5-0.7c0.5-0.4,0.9-1,1-1.7c0.2-1.1,0.4-2.2,0.4-3.3C394.7,112.4,394.6,111.3,394.4,110.3z M386.3,109.7
	c-3.2,0.1-6.4,0.1-9.6,0.3c0.2-1,0.1-1.9-0.2-2.7c-0.4-0.8-1-1.4-1.7-1.7c-0.5-0.2-1.1-0.3-1.8-0.3c-1,0-2,0.4-2.8,0.9
	c-0.9,0.6-1.7,1.3-2.2,2.2c-0.4,0.6-0.6,1.2-0.8,1.9c-1.4,6.9-2.9,13.7-4.3,20.6c-0.2,1-0.1,1.9,0.2,2.7c0.4,0.7,1,1.3,1.7,1.6
	c0.5,0.2,1.1,0.3,1.8,0.3c1-0.1,2-0.4,2.8-1c0.9-0.6,1.6-1.3,2.2-2.2c0.4-0.6,0.6-1.2,0.8-1.9c0.4-1.8,0.8-3.6,1.1-5.4
	c-1.6,0.1-3.2,0.1-4.8,0.2c0.7-3.2,1.4-6.5,2-9.7c4.8-0.2,9.6-0.4,14.4-0.5c-1.1,5-2.1,10-3.2,15c-0.6,3-2.1,5.8-4.2,8.2
	c-2,2.4-4.6,4.3-7.4,5.5c-1.9,0.8-3.9,1.3-5.8,1.5c-3,0.2-5.6-0.6-7.5-2c-2-1.4-3.3-3.5-3.9-6c-0.4-1.7-0.4-3.6,0.1-5.6
	c1.4-6.9,2.9-13.8,4.3-20.7c0.6-3,2.1-5.9,4.2-8.3c2-2.4,4.6-4.4,7.4-5.6c1.9-0.8,3.9-1.3,5.8-1.4c3-0.1,5.6,0.7,7.5,2.2
	c2,1.5,3.3,3.6,3.9,6.2C386.7,105.8,386.7,107.7,386.3,109.7z"/>
<path class="st0" d="M336.8,111.4c-0.3-0.7-1-1.3-1.7-1.6c-0.5-0.2-1.1-0.2-1.8-0.2c-1.6,0.2-3.2,0.4-4.8,0.5c-1,4.9-2,9.8-3,14.7
	c1.6-0.2,3.2-0.4,4.8-0.6c1-0.1,2-0.5,2.8-1.1c0.9-0.6,1.7-1.4,2.2-2.4c0.4-0.6,0.6-1.3,0.8-1.9c0.3-1.6,0.7-3.3,1-4.9h0v0
	C337.3,113,337.2,112.1,336.8,111.4z"/>
<path class="st0" d="M354.8,113.1c-0.3-1.5-0.9-2.8-1.6-4c-0.8-1.2-6.8-8.1-6.8-8.1c0,0,0,0.1,0,0.1c-0.5-0.6-1.1-1.2-1.8-1.6
	c-2.4-1.7-5.4-2.4-8.8-2c-4.8,0.5-9.6,1.1-14.4,1.7c-1.3,0.2-2.6,1.4-2.9,2.8c-3.4,16.4-6.8,32.8-10.2,49.3c-0.1,0.7,0,1.3,0.4,1.7
	c0.2,0.2,5.3,6,5.6,6.4c0.3,0.4,0.9,0.6,1.6,0.5c1.6-0.2,3.2-0.4,4.8-0.6s3.2-0.4,4.8-0.6c0.7-0.1,1.3-0.4,1.9-0.9
	c0.5-0.5,0.9-1.1,1.1-1.8c0.2-1.1,0.5-2.2,0.7-3.3c1.6,1.9,3.7,4.3,3.9,4.5c0.1,0.1,0.2,0.2,0.3,0.3c0.3,0.2,0.8,0.4,1.3,0.3
	c1.7-0.2,3.4-0.4,5.1-0.5c1.7-0.2,3.4-0.3,5.1-0.5c0.4,0,0.8-0.2,1.2-0.4c0.4-0.2,0.7-0.5,1-0.8c0.3-0.4,0.5-0.7,0.6-1.1
	c0.1-0.4,0.2-0.8,0.1-1.1c-0.4-2.5-0.7-5.1-1.1-7.6c-0.4-2.5-0.8-5-1.1-7.6c0.6-0.5,1.2-1.1,1.8-1.7c0.6-0.6,1.1-1.2,1.7-1.8
	c1.2-1.5,2.3-3.1,3.1-4.7c0.8-1.6,1.4-3.3,1.8-5c0.2-0.8,0.3-1.6,0.5-2.4c0.2-0.8,0.3-1.6,0.5-2.4c0.2-1.1,0.4-2.3,0.4-3.4
	C355.1,115.1,355,114.1,354.8,113.1z M346.7,113.1c-0.3,1.6-0.7,3.3-1,4.9c-0.6,3-2.1,5.9-4.2,8.4c-1.3,1.6-2.8,3-4.4,4.2
	c0.8,5.6,1.7,11.2,2.5,16.7c-3.4,0.3-6.8,0.7-10.2,1.1c-0.7-4.7-1.4-9.4-2.1-14.1c-1.3,0.1-2.5,0.3-3.8,0.5c-1,4.9-2,9.8-3.1,14.8
	c-3.2,0.4-6.4,0.8-9.6,1.3c3.4-16.4,6.8-32.8,10.2-49.2c4.8-0.6,9.6-1.2,14.4-1.7c3-0.3,5.6,0.3,7.5,1.7c2,1.4,3.3,3.4,3.9,6
	C347.1,109.2,347.1,111.1,346.7,113.1z"/>
<path class="st0" d="M130.2,141.2c-1.9-2.1-3.8-4.2-5.6-6.3c-0.2-0.2-0.4-0.3-0.7-0.4c-0.3-0.1-0.6-0.1-0.9,0
	c-0.8,0.1-1.6,0.2-2.4,0.4c-0.8,0.1-1.6,0.2-2.4,0.4c-0.8,0.1-1.6,0.2-2.4,0.4c-0.8,0.1-1.6,0.2-2.4,0.4c-0.3,0.1-0.7,0.2-1,0.3
	c-0.3,0.2-0.6,0.4-0.9,0.6c-0.3,0.3-0.5,0.5-0.7,0.8c-0.2,0.3-0.3,0.7-0.4,1c-0.8,4.1-1.7,8.2-2.5,12.3s-1.7,8.2-2.5,12.3
	c-0.8,4.1-1.7,8.2-2.5,12.3c-0.8,4.1-1.7,8.2-2.5,12.3c-0.1,0.3-0.1,0.7,0,0.9c0.1,0.3,0.2,0.5,0.3,0.7c0,0,5.3,6.1,5.6,6.4
	c0.4,0.4,0.9,0.6,1.6,0.5c1.6-0.2,3.2-0.4,4.8-0.7c1.6-0.2,3.2-0.5,4.8-0.7c0.7-0.1,1.3-0.5,1.8-1c0.5-0.5,0.9-1.2,1.1-1.9
	c1.7-8.2,3.4-16.5,5.1-24.7c1.7-8.2,3.4-16.5,5.1-24.8C130.6,142.1,130.5,141.5,130.2,141.2z M112.3,186.3c-3.2,0.5-6.4,0.9-9.6,1.3
	c3.4-16.4,6.8-32.8,10.2-49.3c3.2-0.5,6.4-0.9,9.6-1.4C119.1,153.4,115.7,169.8,112.3,186.3z"/>
<path class="st0" d="M110.4,144.2c-1.9-2.1-3.8-4.3-5.6-6.4c-0.4-0.4-0.9-0.6-1.6-0.5c-4.4,0.6-8.8,1.1-13.2,1.6
	c-4.4,0.5-8.8,1-13.2,1.4c-0.7,0.1-1.3,0.4-1.8,0.9c-0.5,0.5-0.9,1.1-1.1,1.8c-1.7,8.1-3.4,16.3-5.1,24.4
	c-1.7,8.1-3.4,16.2-5.1,24.4c-0.1,0.6,0,1.2,0.3,1.6l0,0c0,0,5.3,6.4,5.7,6.8c0.3,0.4,0.9,0.6,1.6,0.6c4.4-0.4,8.8-0.8,13.2-1.3
	c4.4-0.5,8.8-1,13.2-1.5c0.7-0.1,1.3-0.4,1.8-0.9c0.5-0.5,0.9-1.2,1.1-1.8c0.3-1.6,0.7-3.3,1-4.9c0.3-1.6,0.7-3.3,1-4.9
	c0.1-0.7,0-1.3-0.3-1.6c-0.2-0.3-2.9-3.3-4.4-5.1c0.4-0.2,0.7-0.4,1-0.7c0.5-0.5,0.9-1.1,1.1-1.8c0.3-1.6,0.7-3.3,1-4.9
	c0.3-1.6,0.7-3.3,1-4.9c0.1-0.7,0-1.3-0.3-1.6c-1.4-1.6-2.9-3.3-4.3-4.9c0.5-0.1,0.9-0.1,1.4-0.2c2.4-0.3,4.8-0.6,7.2-0.9
	c0.7-0.1,1.3-0.4,1.8-0.9c0.5-0.5,0.9-1.2,1.1-1.8c0.3-1.6,0.7-3.3,1-4.9c0.3-1.6,0.7-3.3,1-4.9
	C110.9,145.1,110.7,144.5,110.4,144.2z M100.7,149.6c-5.6,0.7-11.2,1.4-16.7,2c-0.7,3.3-1.4,6.5-2,9.8c4-0.4,8-0.9,12-1.3
	c-0.7,3.3-1.4,6.5-2,9.8c-4,0.5-8,0.9-12,1.3c-0.7,3.3-1.4,6.5-2,9.8c5.6-0.5,11.2-1.2,16.7-1.8c-0.7,3.3-1.4,6.5-2,9.8
	c-8.8,1-17.6,1.9-26.3,2.6c3.4-16.2,6.8-32.5,10.2-48.8c8.8-0.8,17.6-1.9,26.3-3C102,143,101.3,146.3,100.7,149.6z"/>
<path class="st0" d="M253.8,141.4c-0.5-0.1-1.1-0.2-1.8,0c-1.6,0.3-3.2,0.6-4.8,0.9c-0.7,3.3-1.4,6.6-2,10c1.6-0.3,3.2-0.6,4.8-0.9
	c1-0.2,2-0.7,2.8-1.3c0.9-0.7,1.6-1.6,2.2-2.5c0.4-0.6,0.6-1.3,0.8-2c0.2-1,0.1-1.9-0.2-2.6C255.2,142.1,254.6,141.6,253.8,141.4z"
	/>
<path class="st0" d="M255.5,122c-0.5-0.1-1.1-0.2-1.8,0c-0.8,0.1-1.6,0.3-2.4,0.4c-0.7,3.3-1.4,6.6-2,10c0.8-0.1,1.6-0.3,2.4-0.4
	c1-0.2,2-0.7,2.9-1.3c0.9-0.7,1.6-1.6,2.2-2.5c0.4-0.6,0.6-1.3,0.8-2c0.2-1.1,0.1-1.9-0.3-2.6C256.9,122.7,256.3,122.2,255.5,122z"
	/>
<path class="st0" d="M275.1,130c0.2-1.2,0.4-2.3,0.4-3.4c0-1.1-0.1-2.1-0.3-3.1c-0.3-1.4-0.9-2.7-1.6-3.9c-0.2-0.3-0.5-0.6-0.8-0.9
	c0,0,0,0,0,0c-2-2.1-3.9-4.3-5.9-6.4c0,0,0,0,0,0c-0.6-0.6-1.2-1.1-1.9-1.6c-1.2-0.7-2.5-1.2-4-1.4c-1.5-0.2-3.1-0.2-4.7,0.1
	c-2,0.4-4,0.7-6,1.1c-2,0.4-4,0.7-6,1.1c-0.7,0.1-1.3,0.5-1.9,1.1c-0.5,0.5-0.9,1.2-1.1,1.9c-1.7,8.3-3.4,16.6-5.1,24.9
	c-1.7,8.3-3.4,16.6-5.1,24.9c-0.1,0.7,0,1.3,0.3,1.6c0,0,0,0,0,0c1.9,2,3.8,4,5.6,6.1c0.3,0.4,0.9,0.5,1.6,0.4
	c2.4-0.5,4.8-0.9,7.2-1.4c2.4-0.5,4.8-0.9,7.2-1.4c1.1-0.2,2.3-0.5,3.4-1c1.1-0.4,2.3-1,3.4-1.6c1.6-0.9,3.2-2.1,4.7-3.3
	c1.5-1.3,2.8-2.7,4-4.3c1.2-1.6,2.3-3.3,3.1-5c0.8-1.7,1.4-3.5,1.8-5.2c0.2-1.2,0.4-2.3,0.4-3.4c0-1.1-0.1-2.1-0.3-3.1
	c-0.2-0.8-0.5-1.6-0.8-2.4c-0.3-0.7-0.8-1.4-1.3-2c0.9-1.4,1.7-2.8,2.3-4.2C274.4,132.9,274.8,131.5,275.1,130z M267.1,124.3
	c-0.6,3.1-2.1,6.1-4.2,8.8c-0.1,0.1-0.1,0.2-0.2,0.3c1.4,1.2,2.3,2.8,2.7,4.8c0.4,1.7,0.4,3.6-0.1,5.6c-0.6,3.1-2.1,6.1-4.2,8.8
	c-2,2.7-4.6,5-7.4,6.6c-1.9,1.1-3.9,1.9-5.8,2.2c-4.8,0.9-9.6,1.8-14.4,2.8c3.4-16.6,6.8-33.2,10.2-49.8c4-0.8,8-1.5,12-2.3
	c3-0.5,5.6-0.1,7.5,1.1c1.9,1.2,3.3,3.1,3.9,5.6C267.5,120.3,267.5,122.2,267.1,124.3z"/>
</svg>
