<?xml version="1.0" encoding="utf-8"?>
<!-- Generator: Adobe Illustrator 26.2.1, SVG Export Plug-In . SVG Version: 6.00 Build 0)  -->
<svg version="1.1" id="Superhero_font" xmlns="http://www.w3.org/2000/svg" xmlns:xlink="http://www.w3.org/1999/xlink" x="0px"
	 y="0px" viewBox="0 0 419.5 297.6" style="enable-background:new 0 0 419.5 297.6;" xml:space="preserve">
<style type="text/css">
	.st0{fill:#231F20;}
	.st1{opacity:0.8;fill:#FFFFFF;}
</style>
<g>
	<g>
		<path d="M38.9,112c0.1,0.1,0.2,0.2,0.4,0.3c0.1,0,0.2,0.1,0.3,0.3c0.1-0.1,0.2,0.1,0.3,0.2c0.2,0.2,0.3,0.3,0.4,0.4
			c0-0.3,0.3,0.3,0.3,0.4c0.2,0.2,0.3,0.6,0.4,0.9c0,0.2,0.1,0.2,0.1,0.3c0,0.1,0,0.2,0,0.3c0,0.2,0,0.4,0,0.5
			c0.1,0,0.1-0.1,0.1,0.1c-0.1,0.1-0.1,0.2-0.1,0.2c0,0,0,0,0,0c0.1,0,0,0,0,0c0,0,0.1,0.1,0,0.1c0,0.1,0,0.3,0.1,0.4
			c0,0.4-0.1,0-0.1,0.3c0.2,0.2-0.1,0.2-0.1,0.5c0,0,0,0.1,0,0.2c0,0,0,0,0,0c0,0.1-0.1,0.2-0.1,0.3c-0.1,0.2,0,0.2-0.1,0.3
			c-0.2,0.1-0.1-0.4-0.2-0.1c-0.1,0.2,0-0.2-0.2-0.1c0,0,0,0-0.1,0c0.1,0.1,0,0.1,0,0c-0.2,0-0.3,0.1-0.2-0.1c-0.2-0.1,0,0.1-0.2,0
			c0.2,0-0.2-0.3-0.1-0.1c-0.1,0-0.2-0.1-0.3-0.1c-0.1,0-0.2-0.3-0.2,0c-0.3,0,0.1-0.3-0.1-0.4c-0.2,0.1,0-0.1-0.1-0.1
			c-0.2,0-0.3,0.1-0.4,0.1c-0.1,0-0.3,0-0.2-0.2c-0.3,0,0.1,0,0-0.2c0.2-0.4,0.3-0.9,0.3-1.4c0-0.1,0.1-0.6-0.1-0.5
			c0,0.3,0-0.1-0.1,0.1c-0.2,0.1-0.2,0.3-0.3,0.4c-0.2,0.2-0.3,0.2-0.4,0.4c-0.3,0.2,0,0.2-0.2,0.4c-0.1,0.1-0.2,0.2-0.2,0.3
			c-0.1,0.1,0,0.2-0.1,0.3c-0.1,0.1-0.2,0.2-0.2,0.4c0,0.1,0,0.1,0,0.1c0,0,0,0,0,0c0,0,0,0,0,0c-0.1,0.2-0.1,0.2-0.1,0.3
			c-0.1,0-0.1,0.2-0.2,0.3c0,0.1,0,0.1,0,0.2c0,0,0,0,0,0c0,0.1-0.1,0.1-0.2,0.3c-0.1,0.2,0.1,0.1-0.1,0.3c0,0.1,0,0.4-0.1,0.3
			c-0.1,0.3,0,0.1,0,0.3c-0.1,0.1-0.2,0.3-0.2,0.4c0,0.1-0.2,0.3-0.1,0.4c0,0,0,0.1,0,0.1c0.1,0,0,0,0,0c0,0.1,0,0.3-0.1,0.3
			c0,0,0,0.1,0,0.1c0,0,0,0,0,0c0,0.1,0,0.1,0,0c0,0.1,0,0.2,0,0.3c-0.1,0.1-0.1,0.2,0,0.3c-0.2,0.1,0,0-0.1,0.2c0.2,0,0,0,0.1,0.3
			c-0.1,0.1,0.1,0.4,0,0.6c0.1,0.3-0.2,0.4-0.1,0.6c0,0.2-0.1,0.2,0.1,0.3c-0.1,0.1-0.1,0.3,0.2,0.2c0.8-0.3,1.4-0.9,1.9-1.6
			c0.2-0.3,0-0.2-0.1-0.2c0,0.1-0.3,0-0.2,0.1c0,0.2-0.1-0.1-0.1-0.1c-0.2,0,0,0,0-0.1c0.4-0.1,0.3-0.2,0-0.1
			c-0.2,0,0.1-0.1,0.2-0.1c0-0.1-0.1-0.2-0.1-0.3c0.1-0.1-0.4-0.1-0.1-0.2c0.1-0.1-0.1-0.2-0.1-0.3c0-0.1,0-0.2-0.1-0.2
			c0.1-0.2,0-0.2,0-0.3c0.1-0.2,0.4-0.1,0.2-0.4c-0.1-0.1-0.2-0.2-0.3-0.3c-0.1-0.1-0.1-0.3,0.1-0.3c-0.2-0.1,0.1-0.1,0.2-0.1
			c1.4-0.3,2.9-0.4,4.3-0.5c0.2,0,0.3,0.2,0.6,0.1c-0.3,0.2,0.2,0,0.1,0.2c-0.2,0.1-0.1,0.1-0.1,0.2c0.1,0-0.2,0.2,0,0.1
			c0.1,0.3-0.1,0.1-0.1,0.3c0.1-0.1,0.3,0.1,0.2,0.2c-0.2,0.1,0,0.3-0.1,0.5c0.1,0.2-0.2,0.2-0.1,0.3c0.1,0,0,0.2-0.1,0.3h0
			c0,0,0,0,0,0c0,0,0,0.1,0,0.1c-0.1-0.2-0.1,0.2-0.3,0c0,0,0-0.2-0.2-0.1c0.1,0.2-0.1,0.2-0.3,0.2c0,0-0.1,0-0.1,0c0,0,0,0-0.1-0.1
			c0,0,0.1,0.1,0.1,0.1c-0.1,0-0.2,0.1-0.2,0c-0.2-0.2-0.1,0.2-0.2,0.2c-0.1,0,0,0.2-0.2,0.2c-0.1,0.2-0.1,0.2-0.1,0.3
			c0.1,0.2,0,0.4,0,0.1c-0.3,0.2-0.1,0.2,0,0.3c0.1,0.4-0.4,0.2-0.2,0.2c0.2,0,0-0.3-0.1,0c-0.2,0.2-0.3,0.4-0.4,0.6
			c-0.1,0.1,0,0.3-0.1,0.5c-0.3,0.1-0.2-0.1-0.3,0c0,0.1,0.3,0.1,0.1,0.2c0-0.1-0.1,0.2,0,0.2c0.1-0.2,0.3-0.4,0.5-0.6
			c0.3-0.4,0.1,0-0.1,0.2c-0.1,0.1-0.1,0.4-0.4,0.5c0,0.2-0.1,0-0.1,0.2c-0.1,0.1-0.3,0.1-0.3,0.3c-0.1,0.1-0.2,0.1-0.2,0.2
			c-0.3,0.1-0.1,0.1-0.3,0.2c0-0.1-0.1,0-0.2,0c0,0,0,0,0,0c0,0,0,0,0,0c0.1,0,0,0.1-0.2,0.2c0.1-0.2-0.2-0.1-0.3,0
			c-0.1,0.2-0.1,0-0.3,0.1c-0.3,0-0.2,0.3-0.4,0.1c-0.2,0,0.2-0.1,0.1-0.1c0.1,0,0.2-0.1,0.3-0.1c0-0.1,0.5,0,0.4-0.2
			c0.3-0.1,0.1-0.1,0.1,0c0.2-0.1,0.4-0.2,0.5-0.3c0.1-0.1,0.4-0.2,0.4-0.2c0.1-0.1,0.3-0.2,0.3-0.3c-0.2,0.1,0-0.1-0.1-0.1
			c-0.2,0.1-0.2,0.1-0.3,0.2c-0.2,0.1-0.4,0.4-0.6,0.4c-0.1,0.1-0.1,0-0.2,0.1c-0.1,0-0.3,0.1-0.5,0.2c-0.3,0-0.3,0.2-0.3,0.3
			c-0.1,0-0.1,0-0.1,0c0,0,0.1,0,0.1-0.1c-0.1-0.1,0-0.1,0.1-0.2c-0.1-0.2-0.2,0.1-0.3,0c-0.3,0-0.5,0-0.5,0.1
			c0.1,0.1,0.4,0.2,0.5,0.1c0.1,0.1,0.2,0.1,0,0.1c0.2,0.1-0.2,0-0.1,0.1c-0.1-0.1-0.2,0-0.3-0.1c-0.2-0.1-0.4-0.2-0.5-0.2
			c-0.3-0.3,0.5,0.2,0.1-0.1c-0.2-0.1-0.5-0.1-0.8-0.3c-0.3-0.2-0.4,0.2-0.5,0c-0.1,0.1-0.3-0.3-0.4-0.2c-0.7-0.5-0.9-1.4-0.9-2.2
			c0-2.1,0.7-4.1,1.6-6c0.6-1.3,1.3-2.6,2.4-3.5c0.4-0.2,0.6-0.4,0.9-0.4c0,0,0.1,0,0.1,0C38.6,111.9,38.7,112,38.9,112z M36.1,120
			C36.1,120,36.1,120,36.1,120C36.1,120,36.1,120,36.1,120z M36.7,117.6C36.5,118,36.8,117.6,36.7,117.6
			C36.7,117.6,36.7,117.6,36.7,117.6z M37.1,117.3C37.1,117.3,37.1,117.3,37.1,117.3C37.1,117.3,37.1,117.3,37.1,117.3z M37.9,115.6
			c0,0.1,0.1-0.2,0.1-0.2C37.9,115.4,37.9,115.4,37.9,115.6z M38.5,114.7c-0.3,0.3,0.1,0.1,0.1-0.1
			C38.5,114.6,38.5,114.7,38.5,114.7z M39.6,123L39.6,123C39.6,122.9,39.8,123.1,39.6,123z M39.9,122.8
			C39.9,122.8,39.9,122.8,39.9,122.8C39.9,122.8,39.9,122.8,39.9,122.8C39.9,122.9,39.8,122.9,39.9,122.8
			C39.9,122.8,39.9,122.8,39.9,122.8z M39.9,122.8L39.9,122.8C39.9,122.8,39.9,122.8,39.9,122.8z M40.9,121.8c0,0.1-0.1,0.1-0.1,0.2
			c-0.1,0.1-0.1,0.3-0.2,0.3c-0.1,0.2-0.3,0.3-0.3,0.4c0,0.1-0.2,0.1,0-0.1c0.2-0.2,0.3-0.5,0.4-0.6
			C40.7,122.1,40.8,121.9,40.9,121.8C40.8,121.8,40.8,121.8,40.9,121.8C40.9,121.8,40.9,121.8,40.9,121.8z M40.6,117.9
			C40.7,118.1,40.4,118.1,40.6,117.9C40.7,117.9,40.6,117.9,40.6,117.9z M41,121.2c0,0,0,0.2-0.1,0.2
			C40.8,121.6,40.9,121.2,41,121.2C41,121.2,41,121.2,41,121.2z M41,121.6C41.1,121.6,40.9,121.7,41,121.6
			C41,121.6,41,121.6,41,121.6z M41,120.9C41,120.9,41,120.9,41,120.9C41,120.9,41,120.9,41,120.9C41,120.9,41,120.9,41,120.9
			C41.1,121,41.3,120.8,41,120.9C41,120.8,41,120.9,41,120.9z M42.1,120.8C42.1,120.8,42.2,120.8,42.1,120.8
			C42.2,120.8,42.1,120.8,42.1,120.8z M42.5,118.9C42.5,118.9,42.5,118.9,42.5,118.9C42.6,119,42.5,119,42.5,118.9
			C42.5,119,42.4,118.9,42.5,118.9C42.5,118.9,42.5,118.9,42.5,118.9z"/>
		<path d="M42.5,121C42.6,121,42.5,121.1,42.5,121c-0.1-0.1-0.5-0.1-0.2-0.1C42.4,120.9,42.5,120.9,42.5,121z M47.3,111.7
			c1.1,0.1,2.4,0.4,2.9,1.4c0.1-0.1,0.1,0.2,0.2,0.3c0,0,0,0,0,0.1c0,0,0,0,0,0c0,0,0,0,0,0c0,0.2,0.1,0.4,0.1,0.6
			c-0.1,0.1,0,0.4-0.1,0.6c0,0.2-0.1,0.4-0.1,0.6c0,0,0,0,0,0c0,0,0,0,0,0c0,0,0,0,0,0c-0.1,0.1-0.1,0.2-0.2,0.2
			c0,0.1,0,0.3-0.1,0.5c0,0.4-0.3,0.5-0.4,0.8c-0.1,0.3-0.3,0.7-0.5,0.9c-0.2,0.2-0.1,0.3-0.3,0.4c-0.2,0.3-0.3,0.3-0.3,0.5
			c0,0-0.1-0.1-0.3,0.2c0.1,0.3-0.1,0-0.3,0.3c-0.2,0.1-0.5,0.2-0.4,0.4c1,0.2,2,0.3,2.9,0.7c0.2,0.1,0.4,0.3,0.3,0.3
			c0.1,0,0,0.2,0.1,0.2c0.2-0.3,0,0.2,0.2,0.1c0,0.2-0.2,0.1-0.2,0.2c0,0.1,0,0.3-0.1,0.4c-0.3,0.2,0,0,0,0.2c0.1,0.1-0.3,0.1,0,0.2
			c-0.2-0.1-0.1-0.1-0.2,0.1c0.1-0.1-0.2,0-0.1,0.2c-0.1,0.1-0.2,0-0.1,0.3c-0.2,0-0.3,0-0.5,0c-0.1-0.1-0.2,0.3-0.4,0.2
			c0.3,0,0.1-0.2,0.1-0.1c-0.1-0.1-0.2,0-0.2-0.1c0-0.1-0.2,0-0.3-0.1c-0.1-0.1-0.2,0.1,0,0.1c0.2,0,0.1,0.2,0,0.1
			c-0.4,0,0.2,0-0.2-0.1c-0.4-0.1,0.1,0,0,0.1c0,0-0.3,0-0.4,0c-0.2-0.1-0.2-0.1-0.4-0.1c-0.1-0.1-0.3-0.1-0.4-0.1
			c0,0-0.3-0.2-0.2-0.1c-0.1,0.1-0.2-0.1-0.3,0c-0.1-0.1-0.3,0-0.5-0.1c-0.1,0-0.3,0-0.3-0.1c-0.2,0-0.4-0.1-0.5-0.1
			c-0.2,0-0.6-0.1-0.5,0.2c0.2-0.1,0,0.4,0,0.3c-0.1,0.1,0,0.2,0.1,0.4c-0.2,0.2-0.2,0.2-0.2,0.4c0,0.2,0,0.2,0,0.3
			c0.1,0.2-0.1,0.2-0.1,0.3c0.1,0.1-0.1,0.1,0,0.2c0,0-0.1,0.3,0,0.4c-0.1,0.2-0.1,0.1-0.1-0.1c0.1-0.2,0.1-0.3,0-0.5
			c0,0.2-0.1,0.5-0.1,0.6c-0.1,0.1-0.1,0.4-0.1,0.6c-0.1,0.5,0-0.3-0.1-0.1c-0.1,0.1-0.2,0.1-0.2-0.1c0,0,0.3,0,0.1-0.2
			c-0.1-0.3-0.2,0.3-0.2-0.1c-0.1,0.2-0.1,0.1-0.2,0c-0.1,0.3-0.1,0-0.3,0.1c-0.1-0.1-0.3,0.1-0.3-0.1c0.2-0.2-0.2-0.2-0.2-0.1
			c0,0-0.1,0.1-0.3,0.1c0,0.3-0.2-0.2-0.2-0.1c0,0.3-0.2,0-0.1,0c0.1-0.5,0.1-1.1,0.2-1.6c-0.1-0.4,0.3-1.1,0-1.3
			c-0.1,0-0.2,0-0.3,0c-0.2-0.2,0.3,0,0.5-0.1c0-0.1-0.3-0.1-0.4-0.1c0-0.1-0.3-0.1-0.5-0.1c-0.2-0.2,0.2,0,0.3-0.1
			c0-0.2,0.4,0.1,0.1-0.1c0.1-0.1,0-0.2-0.1-0.2c-0.1-0.1,0.3-0.1,0.1-0.2c0-0.1,0-0.1-0.1-0.4c0,0,0,0,0,0c0,0,0,0,0,0c0,0,0,0,0,0
			c0-0.1-0.1-0.2,0-0.2c0.1,0,0.2,0,0.1-0.1c0.1-0.2,0.3-0.1,0.2-0.2c0.1-0.2-0.1,0.1-0.2-0.1c0-0.1,0.1-0.1-0.1-0.2
			c0.1-0.1,0.1-0.2,0.2-0.1c0.1-0.1,0-0.1,0-0.2c0.1-0.3,0.4-0.2,0.7-0.1c0.3-1.1,0.5-2.2,0.7-3.4c0.1-0.2,0.2-1.1,0-0.7
			c-0.1,0.1-0.4,0.1-0.4,0c-0.1-0.2-0.2,0.2-0.4,0c0,0.1-0.4,0,0-0.1c0,0,0.1-0.1,0.1-0.1c0,0-0.1,0,0-0.1c0,0,0,0.1,0,0.1
			c0.1,0,0.1-0.1,0-0.2c0.1-0.1-0.1-0.1-0.1-0.2c-0.3,0,0-0.1-0.1-0.2c0-0.2,0-0.1-0.1-0.2c0.2-0.1,0.1-0.1,0.1-0.2
			c-0.1-0.2,0.1-0.2,0.3-0.3c0.1-0.1,0.2-0.4,0.1-0.3c0-0.2-0.5,0-0.4-0.3c0,0,0.1-0.2,0.3-0.2c0.9-0.3,1.8-0.4,2.7-0.4
			C46.7,111.7,47,111.7,47.3,111.7z M43.4,123.9c-0.2,0.2,0.2-0.1,0.1,0C43.5,123.8,43.5,123.8,43.4,123.9z M43.6,113.8
			c-0.1,0.2,0.2,0.1,0.1,0C43.7,113.8,43.6,113.8,43.6,113.8z M44.3,114.2c-0.1,0.1-0.3,0.1-0.1,0.1
			C44.2,114.2,44.6,114.4,44.3,114.2C44.3,114.2,44.4,114.2,44.3,114.2C44.3,114.2,44.3,114.2,44.3,114.2
			C44.3,114.2,44.3,114.2,44.3,114.2z M44.3,114.2C44.3,114.2,44.3,114.2,44.3,114.2C44.3,114.2,44.3,114.2,44.3,114.2z M45,124.4
			c0.2,0.1,0,0.1,0,0.2c0.3,0-0.1,0.1,0,0.3c-0.2,0.2-0.1,0.1-0.1,0C44.9,124.8,45,124.5,45,124.4C45,124.3,45,124.3,45,124.4
			C45,124.3,45.1,124.4,45,124.4z M46.7,113.9c-0.1-0.1-0.1,0.1-0.1,0.2c0,0.2,0,0.3-0.1,0.4c0.2,0.1-0.1,0.1,0,0.3
			c0.1,0,0.1,0.1,0,0.3c-0.1-0.3-0.1,0.3-0.2,0.4c0,0.1-0.2,0.4,0,0.4c-0.1,0.1-0.1,0-0.2,0.2c0.1,0,0.1,0.1,0.1,0.2c0,0,0,0,0,0
			c0,0,0,0,0,0c0,0.1-0.1,0.2-0.1,0.2c0.3,0.2,0,0.1-0.1,0.3c0,0,0,0,0,0.1c0.1,0,0,0,0,0c0,0.1,0,0.1-0.1,0.2c0,0,0,0,0.1,0
			c0,0.1,0,0.1-0.1,0.1c0,0.1,0,0.1-0.1,0.2c1.1-0.5,2-1.2,2.9-2c0.1-0.2,0.6-0.6,0.3-0.6c-0.1,0-0.1-0.1-0.2-0.1c0,0,0,0,0,0
			c-0.1,0-0.1-0.1-0.2-0.1c-0.1,0.1-0.3,0.1-0.2,0c0.1,0,0.3-0.2,0.1-0.3c-0.2-0.1-0.1,0-0.2,0.1c0.1-0.1-0.1-0.2-0.2-0.2
			c-0.1,0-0.4-0.2-0.6-0.2c-0.1,0.1-0.3-0.1-0.5,0C47.1,113.9,46.8,114,46.7,113.9C46.7,113.9,46.7,113.9,46.7,113.9z M48,121.9
			C48.2,122,48.2,121.9,48,121.9C48.1,121.9,48.1,121.9,48,121.9z M48.3,114.4C48.4,114.5,48.2,114.5,48.3,114.4
			C48.2,114.4,48.2,114.4,48.3,114.4z M48.4,121.9C48.2,121.9,48.5,121.9,48.4,121.9C48.4,121.9,48.4,121.9,48.4,121.9z M48.5,114.8
			C48.8,115.1,48.4,114.8,48.5,114.8C48.4,114.8,48.5,114.8,48.5,114.8z M48.5,121.9c0.1,0,0.3,0.1,0.2-0.1
			C48.8,122,48.3,121.8,48.5,121.9z M49.1,114.9C49,115.2,49,114.9,49.1,114.9C49.2,114.8,49.2,114.9,49.1,114.9z"/>
		<path d="M57.7,111.1c0,0,0.2,0.1,0.2,0.1c-0.1-0.1,0.2,0,0,0.2c0.1-0.1,0.1,0.2,0.2,0.2c0.1,0.1,0.3,0.2,0.2,0.3
			c0.1,0.1,0.1,0,0.2,0c0.1,0,0,0.2,0.2,0.3c0.2-0.1,0,0.2,0.1,0.1c0.1,0.1,0.3,0.2,0.2,0.4c0,0.1,0.2-0.1,0.1,0.3
			c0,0.1,0,0.2-0.1,0.3c0,0.2,0,0.3,0.1,0.5c-0.1,0.5,0-0.4-0.1,0.1c0,0.2-0.1,0.3-0.1,0.5c0,0,0,0,0,0.1c0,0,0,0,0,0
			c0,0,0,0.1,0,0.2c-0.1,0-0.1,0.4-0.1,0.5c-0.1,0.2,0,0.2-0.1,0.4c-0.1,0.2,0,0.5-0.1,0.6c0,0,0,0,0,0c0,0,0,0,0,0
			c0,0.1,0,0.1,0,0.1c0,0.1-0.1,0.3-0.1,0.4c-0.1,0.1,0,0.4-0.1,0.4c-0.1,0.1,0,0.1,0,0.2c0,0.3-0.1,0.6-0.1,0.8
			c-0.1,0.5-0.2,1-0.3,1.5c-0.1,0.4,0,0.7-0.1,1.1c0,0.3-0.1,0.4-0.1,0.8c0,0.3,0,0.6-0.1,0.9c0,0.2,0,0.3-0.1,0.5c0,0.3,0,0.7,0,1
			c0,0.1,0.1,0.3-0.1,0.5c0.1,0,0,0.3,0,0.3c-0.2,0.3,0-0.2-0.2-0.2c0.1-0.2,0,0-0.1-0.2c-0.1,0.1-0.1,0.2-0.1,0
			c-0.1,0.3-0.1,0-0.2,0c0-0.2-0.1,0.2-0.1,0c-0.1-0.2-0.2,0.1-0.2,0.1c-0.1-0.2-0.2-0.1-0.3-0.1c-0.2,0.2-0.3-0.9-0.5-0.6
			c-0.1-0.2-0.2,0.1-0.2,0.1c-0.1,0.1-0.1,0.4-0.3,0.5c0-0.1-0.1,0-0.1,0.1c-0.2,0.1-0.1,0-0.1-0.1c-0.1,0.1-0.3,0.3-0.6,0.3
			c-0.1-0.1-0.1-0.1-0.3-0.1c0,0.1-0.1,0.1,0,0c-0.1,0-0.2,0-0.3-0.1c-0.2-0.1-0.3,0-0.4-0.1c-0.1,0.1-0.1-0.1-0.1-0.1
			c-0.2-0.1-0.1-0.1-0.4-0.2c-0.3,0-0.2-0.1-0.5-0.1c-0.3,0.2,0,0-0.3-0.1c-0.1,0,0.1,0.2-0.2,0c-0.8-0.6-1-1.7-1-2.7
			c0.1-2.5,0.8-5,1.8-7.4c0.1-0.5,0.6-1.1,0.5-1.5c0.2-0.2,0.1-0.1,0.1-0.2c0.1-0.2,0.3-0.1,0.3,0c0.2-0.1,0-0.3,0.3-0.1
			c0.1,0,0.2,0.3,0.3,0.3c-0.1,0.3,0,0.2,0,0.4c0.1-0.3,0,0.2,0.1,0c0,0.2-0.1,0.3,0.1,0c-0.1-0.3,0.3-0.1,0.1,0
			c0.2,0.1-0.2,0.2,0,0.2c0.1-0.1,0.1,0,0.2,0.1c0.1,0.1,0.1,0.2,0.3,0.2c0,0,0,0,0,0c0,0,0,0,0,0c0,0.2,0.1,0.4-0.1,0.6
			c-0.1,0.1-0.3,0.4-0.1,0.5c-0.1,0.2-0.1,0.2-0.1,0.5c-0.1,0.4-0.1-0.1-0.2,0.2c0.2,0.1,0,0.1,0,0.3c0.2,0.1-0.1,0.5,0,0.3
			c-0.1,0.1-0.1,0.1,0,0.3c0,0-0.1,0-0.2,0.1c-0.1,0.1,0,0.2,0,0.3c-0.1,0.2,0,0.1,0,0.3c-0.2-0.1-0.1,0-0.2,0.1c0,0,0,0,0,0
			c0,0,0,0,0,0c-0.1,0.2,0,0.2-0.1,0.3c0,0.1-0.2,0.3-0.1,0.5c0.1,0.1,0.1,0.3,0,0.3c-0.1-0.2-0.1,0.2-0.1,0.2
			c-0.2,0.1,0.1,0.2-0.1,0.3c0.1,0.2,0,0-0.1,0.2c0.1-0.2,0.1,0.3,0,0.4c0,0.1-0.1,0.3-0.1,0.5c-0.1,0.2-0.1,0.3-0.1,0.4
			c0,0-0.2,0.3,0,0.2c0,0,0,0.1,0,0.1c0,0,0,0,0,0c0,0,0,0.1,0,0.1c0,0.1,0,0.1-0.1,0.1c0,0,0,0,0,0c0.1,0,0,0,0,0
			c0,0,0,0.1,0.1,0.1c-0.1,0.1-0.1,0.3-0.1,0.4c-0.1,0.1,0,0.2,0,0.3c0.1,0.1-0.1,0.5,0.1,0.7c-0.1,0.1,0.1,0.2,0,0.4
			c0,0.2-0.1,0.4,0.1,0.2c0.4-0.3,0.7-0.7,1-1c0.3-0.4,0.8-0.8,0.9-1.3c0.2-1.8,0.6-3.7,1.1-5.5c0.3-1,0.5-2.1,0.9-3
			c0-0.3,0.1,0.2,0.1,0C57.6,111.3,57.5,111.2,57.7,111.1C57.7,111,57.7,111.1,57.7,111.1z M52.4,123.5
			C52.5,123.6,52.3,123.6,52.4,123.5C52.4,123.5,52.4,123.5,52.4,123.5z M53.3,123.7c0.1,0.1,0.1,0.1,0.2,0.1
			C53.9,124,53.6,123.7,53.3,123.7C53.3,123.7,53.3,123.7,53.3,123.7z M53.4,119.8C53.4,119.8,53.4,119.8,53.4,119.8
			C53.4,119.8,53.4,119.8,53.4,119.8z M53.6,118.6c0.1-0.2,0,0,0-0.1C53.5,118.5,53.5,118.6,53.6,118.6z M55,123.6
			c-0.1,0-0.3,0.1-0.4,0.2c-0.2,0-0.2,0-0.3,0c-0.1,0-0.1,0-0.2,0v0c0,0,0,0,0,0c0,0,0,0-0.1,0c0,0-0.1-0.1-0.1,0
			c0.1,0.2,0.4,0.2,0.6,0.2c-0.2,0.2,0,0,0.1-0.1c0,0.2,0.4,0,0.6-0.1c0.3-0.2-0.1,0-0.1-0.3C55.1,123.5,55.1,123.6,55,123.6z
			 M56.2,107.9c0.2,0.1,0.3,0.4,0.3,0.5c0,0.1,0.2,0.2,0.3,0.3c-0.1,0.1,0.1,0.1,0.1,0.2c-0.1-0.1-0.1,0,0,0.1
			c0.1,0.1,0.1,0.2,0.1,0.3c0,0.2-0.1,0.3,0,0.4c0,0.1-0.1,0.1-0.1,0.2c0.1,0.1-0.3,0.1-0.2,0.3c0.1,0.1-0.1,0,0,0.1
			c0,0.1-0.2,0.2-0.3,0.3c0,0.1-0.1,0.1-0.1,0.2c-0.1,0.1-0.3,0.2-0.4,0.3c0,0,0.3-0.3,0.3-0.3c0.2-0.1,0-0.1-0.1,0c-0.1,0,0,0,0,0
			c0,0,0,0,0,0c0,0.1-0.2,0.1-0.1,0c0.1-0.1-0.3,0.1-0.1,0.1c0.1-0.1,0,0.1-0.2,0.2c-0.1,0,0.2-0.1,0-0.1c-0.1,0,0,0-0.1,0.1
			c-0.1-0.1-0.2,0.1-0.3,0.1c0,0-0.3-0.3-0.3-0.1c0,0.1-0.2-0.2-0.3-0.2c-0.1,0.1,0.1,0.3,0.1,0.4c0,0.2-0.1,0-0.1-0.1
			c-0.1,0-0.1-0.3-0.2-0.2c-0.1,0-0.1-0.2,0-0.1c0-0.2-0.2-0.4-0.3-0.6c-0.3-0.1-0.4-0.4-0.4-0.7c0-0.8,0.7-1.4,1.4-1.5
			c0.2,0,0.3-0.1,0.5-0.1C55.9,107.8,56.1,107.8,56.2,107.9z M54.1,123.8C54.1,123.8,54.1,123.8,54.1,123.8
			C54.1,123.8,54.1,123.8,54.1,123.8z M54.5,115.5C54.5,115.5,54.5,115.5,54.5,115.5C54.5,115.5,54.5,115.5,54.5,115.5z M54.5,123.6
			C54.4,123.7,54.6,123.6,54.5,123.6C54.5,123.6,54.5,123.6,54.5,123.6z M54.9,112.9c0.2,0.2,0.1-0.1,0.1-0.2
			C54.7,112.9,54.6,112.9,54.9,112.9z M55.1,112.8C55.1,112.8,55.1,112.8,55.1,112.8C55.1,112.8,55.1,112.8,55.1,112.8z M55.4,111.2
			c-0.1,0-0.3,0.1-0.4,0C55.2,111.2,55.5,111.2,55.4,111.2C55.6,111.2,55.5,111.2,55.4,111.2z M55.6,111.1
			C55.6,111.2,55.5,111.1,55.6,111.1C55.6,111.1,55.6,111.1,55.6,111.1z M55.7,111.1C55.6,111.1,55.7,111,55.7,111.1
			C55.8,111,55.7,111.1,55.7,111.1z M56,110.7L56,110.7C56,110.7,56,110.7,56,110.7z M59.6,108c0.1,0,0.1,0.2,0.2,0.2
			c0.1,0.1,0.2,0.3,0.2,0.4c0.1,0.1,0,0.1,0.1,0.2c0,0.2,0,0.4-0.1,0.6c0,0.1-0.1,0.1-0.1,0.2c0.1,0.2-0.3,0.2-0.1,0.3
			c-0.1,0,0,0.1-0.1,0.1c0,0-0.2,0.1-0.1,0c0.1-0.2,0-0.1,0,0c0,0.1-0.3,0.3-0.2,0.3c0,0,0,0.1,0.1-0.1c0.2,0.1-0.2,0.2-0.2,0.2
			c0.1-0.1,0.1-0.2,0-0.1c-0.1-0.1,0.1,0,0.1-0.1c-0.1,0-0.1,0.1-0.2,0.1c0.1,0,0,0.2-0.1,0.1c0.1-0.2-0.2,0-0.2,0
			c-0.1,0.1,0.1,0.1,0.1,0.1c-0.2,0.2-0.3-0.1-0.4,0c-0.1,0.1-0.1-0.2-0.2-0.1c0,0-0.1,0-0.1-0.1c-0.1-0.1-0.1,0-0.1,0.1
			c0.1,0.1,0.1,0.4,0,0.2c-0.1-0.1,0-0.3,0-0.4c-0.2-0.1-0.3-0.4-0.4-0.6c-0.2-0.2-0.3-0.4-0.3-0.7c0-0.3,0-0.6,0.2-0.9
			c0.2-0.4,0.7-0.8,1.1-0.8C59.1,107.3,59.5,107.6,59.6,108z M58.3,110.9c0,0.1,0.1,0,0.1,0.1c0.1-0.1,0.4-0.1,0.3,0
			c0,0.1-0.1,0-0.2,0.1C58.4,111.1,58,111,58.3,110.9C58.3,110.9,58.3,110.9,58.3,110.9z M58.4,116.5L58.4,116.5
			C58.4,116.5,58.5,116.6,58.4,116.5z M59,110.8c0,0.1-0.3,0.3-0.2,0.1C58.9,110.8,58.9,110.9,59,110.8c0.1,0,0.1-0.1,0.2-0.2
			C59.3,110.8,59,110.8,59,110.8z M59.6,110.4c-0.1,0-0.1-0.1,0-0.1C59.6,110.3,59.7,110.3,59.6,110.4z"/>
		<path d="M65.6,110.8c0.1,0.1,0.2,0,0.3,0.2c0,0,0.2,0.3,0.3,0.2c0,0.2,0.2,0.1,0.3,0.3c0.2,0.1,0.3,0.1,0.4,0.2
			c-0.1,0.1,0,0.1,0.1,0.1c-0.2,0,0.1,0.1,0.1,0.2c0.2,0.1,0,0.2,0.2,0.3c0,0.1,0.1,0.3,0.1,0.5c0,0.3,0.1,0.7,0.1,0.9
			c-0.1,0.1-0.2,0.5-0.2,0.7c-0.1,0.3-0.1,0.4-0.1,0.5c0,0,0,0.1,0,0.1c0,0,0,0,0,0c-0.1,0,0,0,0,0c0,0.1-0.1,0.2,0,0.1
			c0,0.2,0,0.3-0.1,0.5c-0.1,0-0.2,0.1-0.2,0.1c-0.2,0.3-0.1,0,0-0.2c-0.1,0.2,0.1-0.1,0.1-0.1c0,0,0,0-0.1,0c0,0,0-0.1,0-0.1
			c0,0.1,0,0.1,0,0.1c-0.1,0-0.2,0-0.1-0.1c0,0,0,0-0.1,0c0,0,0,0,0,0c0,0.1,0.1,0.3-0.1,0.2c-0.1,0.1-0.2,0.1-0.1,0.2
			c-0.1,0-0.1,0.1,0.1,0.1c0.1,0,0.2-0.1,0.2,0.1c0.3-0.3,0,0.4-0.1,0.1c-0.2,0.2,0-0.1-0.3,0.1c0,0.3-0.3,0.2-0.3,0.3
			c-0.1,0.1-0.2,0.4-0.1,0c0.2,0,0.1-0.1,0-0.1c-0.1,0.1,0,0.1-0.1,0.2c-0.1,0.1-0.2,0.2-0.3,0.3c-0.1-0.1,0,0.3-0.1,0.2
			c-0.3,0.1-0.2,0.3,0.1,0.4c0.4,0.3,0.8,0.7,1,1.2c0.1,0.3,0.3,0.9,0.2,1.1c-0.1,0,0,0.3,0,0.3c0,0.2-0.2-0.2-0.1,0.1
			c0.2-0.1-0.1,0.3,0,0.3c-0.1,0.3-0.1,0.2-0.1,0.4c0,0.2-0.1,0.1-0.1,0.3c0,0-0.2,0.2,0,0.1c-0.1,0.2-0.3,0.4-0.3,0.5
			c0,0-0.1,0.1-0.1,0.1c0,0,0,0,0,0c0,0,0,0,0,0c-0.1,0.1-0.2,0.2-0.3,0.3c0,0.2-0.4,0.3-0.5,0.4c-0.1,0-0.3,0.3-0.3,0.1
			c-0.1,0.1-0.1,0-0.2,0.1c0,0.1-0.1,0.1,0,0c0,0,0,0-0.1,0c0.1,0-0.2,0.3-0.2,0.1c-0.1,0-0.1,0-0.1,0c0,0.2-0.2,0.1,0,0
			c-0.1,0-0.3,0-0.3-0.1c0,0,0,0,0,0c0,0,0.1,0,0.1,0c0.2,0,0.4,0,0.5-0.1c0,0.2,0.3-0.1,0.5-0.1c0.2-0.1,0.4-0.2,0.5-0.4
			c0.2-0.1,0.4-0.4,0.5-0.6c0,0,0,0,0,0c0,0,0,0,0,0c0,0,0,0,0,0c-0.1,0.2-0.2,0.2-0.3,0.4c-0.2,0.1-0.2,0.2-0.3,0.2
			c0.1,0.1-0.1,0.1-0.2,0.2c0,0.1-0.4,0.2-0.1,0c0-0.2-0.3,0.1-0.5,0.1c-0.2,0.2-0.3,0-0.4,0.1c-0.2,0-0.2-0.2-0.4-0.1
			c-0.2,0,0,0.1,0.2,0.1c0,0.1-0.4-0.1-0.6-0.1c-0.2-0.1-0.9-0.3-0.5,0c0.3,0.2,0.3,0.1,0.4,0.2c-0.1,0.2,0.5,0.1,0.6,0.3
			c-0.3,0.1-0.2,0.1-0.5-0.1c0-0.1,0,0.1-0.1,0.1c-0.1-0.2-0.5-0.3-0.6-0.5c0.3,0-0.2-0.4-0.4-0.5c-0.1-0.2-0.4-0.2-0.4,0.1h0
			c0,0,0,0,0,0c0,0,0,0,0,0.1c-0.1,0,0,0.4-0.1,0.3c-0.1,0.1,0.1,0.3,0,0.3c-0.1,0.1-0.1,0.4-0.1,0.6c0,0.2,0,0.2-0.1,0.3
			c0.1,0.1-0.1,0.1,0-0.1c0.1-0.1,0-0.6-0.1-0.3c-0.1,0.1-0.1,0.1-0.1,0.2c-0.2,0-0.2,0.3-0.2,0.4c-0.1,0.1-0.3,0.2-0.1-0.1
			c-0.3,0,0,0-0.2,0.1c-0.1-0.1-0.3,0-0.3,0c-0.1-0.2-0.1,0.1-0.1,0.1c0-0.3-0.3,0.3-0.2-0.1c-0.1-0.1-0.3,0-0.1,0.1
			c-0.1,0.2-0.2-0.2-0.3,0c-0.3-0.1,0.1,0,0-0.2c0-0.2-0.1,0-0.1,0c0-0.1-0.1,0.2-0.3,0c0-0.1-0.1,0.1,0,0.1c0,0.1-0.1,0-0.2-0.1
			c-0.1,0.2-0.2,0.1-0.2-0.1c0.1-1.4,0.5-2.9,0.8-4.3c0.7-2.3,1.5-4.7,2.8-6.8c0.6-0.9,1.3-1.9,2.4-2
			C65.2,110.7,65.4,110.7,65.6,110.8z M61.2,123.2c0,0.1,0.2-0.1,0.1-0.1h0C61.2,123.1,61.3,123.2,61.2,123.2z M61.5,123
			C61.5,122.9,61.5,122.9,61.5,123c0.1,0,0.1,0,0.1-0.1C61.5,122.9,61.6,122.9,61.5,123c0.1-0.1-0.1-0.1-0.1-0.2
			C61.2,123,61.5,122.9,61.5,123z M61.4,122.7C61.4,122.7,61.4,122.7,61.4,122.7C61.4,122.7,61.4,122.7,61.4,122.7
			C61.5,122.6,61.5,122.6,61.4,122.7C61.3,122.7,61.4,122.7,61.4,122.7z M61.5,122.4c-0.1,0.3,0,0.6,0.1,0.1c-0.1-0.1,0.2-0.5,0-0.5
			C61.6,122.3,61.7,122.3,61.5,122.4z M61.7,121.9c0.1,0.1,0.1-0.2,0.1-0.3C61.6,121.6,61.7,121.8,61.7,121.9z M61.8,121.9
			C61.8,121.9,61.8,121.9,61.8,121.9C61.8,121.9,61.8,121.9,61.8,121.9z M62,120.2C62,120.2,62,120.2,62,120.2
			C62.1,120.2,62,120.3,62,120.2C62,120.3,62,120.3,62,120.2C62,120.4,62.1,120.4,62,120.2C62,120.2,62,120.2,62,120.2z M62.3,119.2
			c-0.1,0.1,0,0.3-0.1,0.4c0,0.2,0,0.3-0.1,0.5c0.2,0,0-0.4,0.2-0.4c-0.1-0.1,0-0.4,0.1-0.4c0-0.1,0.1-0.4,0.1-0.5
			C62.3,119,62.3,119.1,62.3,119.2z M62.9,118.1c-0.2,0-0.2,0.3-0.1,0.2c0.1-0.2,0,0.2-0.1,0.2c-0.3,0.2,0,0.4-0.2,0.5
			c0.1,0-0.2,0.2-0.2,0.6c0,0-0.2,0.6-0.2,0.8c-0.1,0.4,0.2,0,0.1,0.2c0.1,0.4,0.1-0.1,0.3,0.1c-0.2,0-0.1,0-0.1,0.1
			c0,0.3,0.9,0.1,1.1-0.3c0.4-0.4,0.9-1.1,0.8-1.7c0-0.1-0.6,0.1-0.2-0.2c0.2,0,0.2-0.4,0.1-0.2c-0.2,0.1-0.3,0-0.4,0
			c-0.2,0-0.3,0.1-0.3,0c0.1,0-0.2,0.1-0.2,0c-0.1,0.2-0.1,0.1-0.1,0c0,0.2-0.4,0.2-0.1,0C63.5,118.1,62.7,118.3,62.9,118.1
			C62.9,118.1,62.9,118.1,62.9,118.1z M63.2,118.5c0.1,0.1-0.3,0-0.1,0C63.1,118.5,63.2,118.5,63.2,118.5z M63.2,116.1
			c-0.1,0.2,0.3-0.2,0-0.2C63.3,116,63.2,116,63.2,116.1z M63.3,116.1c0.2-0.2,0.1,0,0-0.2C63.4,116,63.3,116,63.3,116.1z
			 M63.5,118.6C63.5,118.8,63.3,118.5,63.5,118.6C63.5,118.5,63.5,118.6,63.5,118.6z M63.7,122.8c0,0-0.1,0-0.2,0
			C63.6,122.8,63.7,122.8,63.7,122.8c0.2,0.1,0.2-0.1-0.1-0.1C63.6,122.7,63.6,122.7,63.7,122.8z M65,113.5c0.1-0.2-0.2,0-0.2-0.1
			c-0.2-0.1-0.2,0.2-0.2,0.2c-0.1-0.1-0.2,0.2-0.3,0.3c-0.1-0.1,0,0.2,0.1,0c0.2-0.3,0,0.2-0.2,0.3c-0.1,0.2-0.2,0.2-0.3,0.2
			c-0.1,0.1-0.1,0.2,0.1,0.3c-0.1-0.2-0.1-0.1,0-0.2c-0.2-0.1,0.3,0,0.2,0c0,0.1-0.2,0.2-0.2,0.3c0,0.3-0.3,0.2-0.1,0
			c-0.1,0-0.3,0.1-0.2,0.1c0.1,0.1-0.1,0.3-0.1,0.3c-0.1,0.2-0.1,0.2-0.1,0c-0.2,0,0,0.5-0.2,0.3c-0.1,0.1-0.1,0.3,0.2,0.1
			c0,0.1,0.1-0.4,0.2-0.2c0,0.2-0.1,0.1-0.2,0.3c0,0.2-0.2,0-0.1-0.1c-0.2,0.1,0,0.3,0,0.3c0.6-0.6,1.2-1.3,1.5-2.1
			c0.1-0.3,0.2-0.4,0.2-0.5C65.3,113.5,64.9,113.6,65,113.5z M63.5,118.3C63.4,118.4,63.8,118.3,63.5,118.3
			C63.5,118.3,63.5,118.3,63.5,118.3z M63.5,115.8C63.5,115.8,63.5,115.8,63.5,115.8C63.5,115.8,63.5,115.8,63.5,115.8
			C63.5,115.8,63.5,115.8,63.5,115.8z M63.8,122.9C64,122.9,63.4,122.9,63.8,122.9C63.7,122.9,63.7,122.9,63.8,122.9
			C63.8,122.9,63.8,122.9,63.8,122.9z M63.7,122.8C63.7,122.8,63.7,122.8,63.7,122.8C63.7,122.8,63.7,122.8,63.7,122.8z M63.7,119.1
			c-0.2,0,0.3-0.3,0.4-0.3C64.1,118.9,63.9,119,63.7,119.1z M63.9,115.2c-0.1,0.1,0-0.1,0.1-0.2C64,115.1,64.1,115.2,63.9,115.2z
			 M64,122.8C64,122.8,64,122.8,64,122.8C64,122.8,64,122.8,64,122.8C64,122.8,63.9,122.8,64,122.8z M64.4,118.4
			C64.3,118.7,64.1,118.5,64.4,118.4C64.4,118.5,64.4,118.4,64.4,118.4z M64.8,113.9c-0.3,0.1-0.2,0,0-0.2
			C65,113.9,64.7,113.8,64.8,113.9z M64.9,113.5c-0.2,0.1,0.1,0-0.1,0.1C64.5,113.9,64.7,113.5,64.9,113.5
			C64.9,113.4,64.9,113.5,64.9,113.5z M64.9,122.4C64.9,122.5,64.9,122.5,64.9,122.4C64.8,122.5,64.6,122.5,64.9,122.4
			C64.9,122.4,64.9,122.4,64.9,122.4z M64.9,113.6C64.8,113.7,64.9,113.6,64.9,113.6C64.9,113.6,64.9,113.6,64.9,113.6z M65.2,112.9
			c-0.1,0-0.2,0.3-0.1,0.1c0.1,0,0.3-0.1,0.3-0.3c0,0,0.1,0,0,0c0,0,0,0,0,0c0,0,0,0,0,0C65.3,112.9,65.1,112.8,65.2,112.9z
			 M65.2,113.2c0,0.2,0.2,0.1,0.1-0.1C65.3,113.2,65.2,113.1,65.2,113.2z M65.4,112.8C65.4,112.8,65.4,112.8,65.4,112.8
			C65.4,112.8,65.4,112.8,65.4,112.8z M65.8,117.1c-0.1-0.1,0-0.3,0-0.2c0.1,0,0.1,0,0.2-0.1C66.2,116.8,65.8,117,65.8,117.1z
			 M66,117.2C65.7,117.5,65.6,117.3,66,117.2C65.9,117.1,66,117.1,66,117.2z M65.9,121.9C65.9,121.9,66,121.9,65.9,121.9
			C66,121.9,65.9,121.9,65.9,121.9z M66.4,116.6c0,0.1-0.1,0.2-0.2,0.3c0,0,0,0,0,0c0,0,0,0,0,0c-0.2,0-0.3,0.3-0.2,0
			C66.2,116.8,66.2,116.7,66.4,116.6C66.4,116.6,66.5,116.6,66.4,116.6z M66.4,116.1c-0.1,0.1-0.2,0.2-0.2,0.2
			c-0.1,0.1,0.1,0.2,0.1,0.1c0-0.2,0.3-0.2,0.2-0.3C66.4,116.1,66.4,116,66.4,116.1z M66.5,116.6c-0.2,0,0.1-0.3,0.1-0.3
			C66.8,116.3,66.5,116.5,66.5,116.6z M66.7,115.8c0.1,0.1-0.2,0.1,0.1-0.1C66.8,115.7,66.8,115.7,66.7,115.8z M67.1,115.2
			c0-0.1-0.1,0,0-0.2C67,115.2,66.9,115.5,67.1,115.2z M67.3,114.9C67.3,114.9,67.3,114.9,67.3,114.9
			C67.3,114.9,67.3,114.9,67.3,114.9z M67.4,115C67.3,115.1,67.2,115.1,67.4,115L67.4,115z"/>
		<path d="M71.3,110.1c0.2,0,0.2,0.1,0.3,0.1c0,0.1,0.1,0.2,0.3,0.3c1.1-0.4,2.3-0.5,3.4-0.6c0.4,0,1-0.1,1.2,0
			c0.2-0.2,0.3,0.1,0.4,0.1c0.1-0.1,0.2,0.1,0.3,0.1c0,0.1,0.2,0.1,0,0.2c0.1,0,0.1,0.2-0.1,0.3c0,0-0.1,0.2-0.1,0.2
			c0,0.2,0,0.2-0.1,0.2c0,0.2,0.2,0.2,0.2,0.4c-0.1,0.1-0.1,0.1-0.2,0.3c-0.3-0.1-0.2,0.2-0.1,0.3c0,0.2-0.3-0.1-0.3,0
			c-0.2,0-0.3,0.1-0.4,0c-0.2,0.1-0.3,0-0.4,0.2c-0.1,0.1-0.3,0,0-0.1c-0.1,0.1-0.2,0-0.3,0.1s0,0-0.2,0.1c0-0.2-0.3,0.1-0.4,0
			c-0.1,0-0.3,0.1-0.4,0.1c0,0.1-0.3-0.1-0.5,0.1c0,0,0,0,0,0c0,0,0,0,0,0c0.2,0,0.4,0.1,0.1,0.2c0-0.2-0.3,0.2-0.4,0.1
			c0,0-0.5,0.2-0.3,0c-0.2-0.1-0.1,0.2-0.3,0.1c-0.2,0.1-0.3-0.1-0.3-0.1c0.2,0.2-0.3,0.3-0.2,0.1c-0.2-0.1-0.1-0.1,0-0.2
			c-0.3-0.2,0,0.3-0.2,0.1c-0.2,0,0,0.2-0.2,0.2c-0.1-0.1-0.2,0.1-0.1,0.3c-0.1,0.2,0-0.2-0.1,0.1c0,0.1,0,0-0.1,0.2
			c0.1,0.1-0.1,0.1,0.1,0.2c0,0.3-0.3,0.2-0.2,0.3c-0.1,0.1,0,0.1,0,0.3c-0.1,0.2-0.3,0.4-0.1,0.4c0,0-0.1,0.1-0.1,0.1c0,0,0,0,0,0
			c0,0,0,0,0,0c0,0.1-0.1,0.1-0.1,0.1c0,0,0.2,0.2,0,0.2c0,0,0,0.2,0,0.4c0,0,0,0,0,0c0,0,0,0,0,0c0,0,0,0,0,0.1
			c1.1-0.3,2.1-0.6,3.2-0.7c0.4,0,0.9-0.1,1.3,0c0,0,0.1,0,0.1,0.2c0.3,0.2-0.1,0.1,0.1,0.2c-0.2,0.2,0,0.1,0,0.3
			c-0.1-0.1-0.1,0-0.1,0.1c0.2,0,0,0.1,0,0.2c-0.1-0.1-0.1-0.3-0.1,0c0.1,0.1,0.3,0.4,0.1,0.2c0,0-0.1,0.1-0.2,0.2c0,0,0,0,0,0
			c0,0,0,0,0.1,0c0.1,0.1,0.2,0.1,0,0.2c-0.3,0.2,0,0,0,0.2c0.2-0.1,0,0.2-0.1,0.2c-0.2,0-0.2,0.2-0.1,0.1c0.1,0-0.1,0.3-0.1,0.1
			c0,0.2-0.5,0.1-0.4,0.3c-0.2-0.1-0.2,0.2-0.3,0.1c-0.2,0.2-0.2-0.1-0.2,0.1c-0.2,0-0.4-0.1-0.6,0c-0.1,0.1-0.3,0-0.4,0.1
			c-0.1,0-0.1,0-0.2,0c-0.2-0.1-0.1,0.2-0.2,0.1c0.2-0.1-0.5,0-0.2,0.1c-0.3,0.2-0.2-0.2-0.4,0c-0.2,0.2-0.1,0.1-0.2,0.1
			c-0.1,0-0.2,0-0.3,0.1c0.1,0.1-0.1,0.1,0,0c-0.1,0.1-0.2,0.1-0.3,0.1c-0.1,0.1-0.3,0.1-0.2,0.1c-0.1-0.1-0.1,0.1-0.2,0
			c-0.1,0.2-0.5,0.2-0.4,0.2c-0.2-0.1-0.1,0.5-0.2,0.8c-0.2,0,0.1,0.1,0,0.4c-0.1,0.1,0,0.3,0,0.5c-0.1,0,0.2,0.3,0,0.4
			c0,0.4,0.1-0.1,0,0.3c0,0,0,0.1,0,0.1c0,0,0,0,0,0c0.1,0,0.1,0.1,0,0.1c0,0.1,0,0.1,0.1,0.2c0.1,0.3-0.1,0,0,0.3
			c0.1,0.1,0,0.1,0.1,0.2c0.9-0.2,1.6-0.8,2.4-1.4c0.1,0,0.1,0,0.3,0.1c0.1-0.1,0.1,0,0.2,0.1c0.3-0.1-0.1,0.2,0.1,0.1
			c0.2,0.1,0.3-0.2,0.4,0c-0.1,0.1,0.1,0.1,0.2,0c0.1,0,0.1,0.3,0.1,0.1c0,0,0,0,0,0c0,0,0,0,0-0.1c0,0.2,0.5-0.1,0.4,0.1
			c0.3,0,0.1,0.3,0.3,0.3c0.1,0,0,0.2,0.2,0.1c0,0.3-0.2-0.1-0.3,0.1c0,0.2-0.3,0.1-0.1,0c-0.1,0-0.2,0.3-0.1,0.2
			c0,0.1-0.1,0.3-0.3,0.3c-0.2,0.2-0.4,0.2-0.5,0.4c-0.1,0.1-0.4,0.2-0.3,0.2c0.1,0,0.3-0.2,0.4-0.3c0,0.3,0.1,0.1,0.2,0.1
			c0.1-0.1,0.3-0.2,0.4-0.3c0.2-0.1,0.2,0,0,0.1c-0.3,0.1-0.5,0.4-0.7,0.5c-0.1,0.2-0.3,0.1-0.3,0.3c-0.1,0-0.2,0.2-0.4,0.2
			c-0.1,0-0.1,0.1-0.3,0.2c-0.3,0.1-0.7,0.3-1.1,0.3c-0.3,0-0.6-0.1-0.9-0.2c-0.2,0-0.3-0.1-0.5-0.2c0.2,0-0.1-0.2-0.2-0.2
			c-0.3-0.2-0.1,0.1-0.3,0c-0.3-0.2,0,0.1-0.2,0c-0.1-0.1-0.1-0.1-0.2-0.1c0,0,0,0,0,0c0,0,0,0,0,0c0,0-0.1,0-0.1,0
			c-0.8-0.4-1.1-1.3-1.1-2.2c-0.1-1.8,0.3-3.7,0.8-5.5c0.1-0.3,0.4-0.9,0.3-1c0-0.2-0.1-0.1-0.2-0.4c-0.2,0.1-0.1-0.2-0.1-0.3
			c0.1-0.1-0.2,0-0.3-0.2c0.4,0-0.1-0.1,0.1-0.2c0.2,0,0.1-0.1,0.2-0.2c-0.1-0.2,0-0.2,0-0.3c0.2,0,0.2-0.2,0.2-0.2
			c0-0.2-0.1,0-0.2-0.1c0.2,0,0-0.1-0.1-0.1c0.1,0.2-0.3-0.3-0.2-0.3c0-0.1,0.4-0.1,0.2-0.1c0.8-0.3,1.6-0.1,1.7-0.7
			c0-0.2,0.2-0.3,0.2-0.2C71.1,110.3,71.1,110.1,71.3,110.1C71.3,110.1,71.3,110.1,71.3,110.1z M69.6,122.2
			C69.6,122.2,69.6,122.2,69.6,122.2C69.6,122.2,69.6,122.2,69.6,122.2z M70.5,122.6C70.5,122.6,70.5,122.6,70.5,122.6
			C70.5,122.6,70.5,122.6,70.5,122.6z M71.4,114.8C71.3,114.9,71.4,114.8,71.4,114.8L71.4,114.8z M71.6,122.6c0.3,0.1,0.4,0.1,0.5,0
			c0-0.1-0.4,0.1-0.2,0C72.1,122.5,71.7,122.6,71.6,122.6C71.6,122.6,71.5,122.7,71.6,122.6z M71.6,122.7
			C71.6,122.8,71.8,122.7,71.6,122.7C71.6,122.7,71.6,122.7,71.6,122.7z M71.8,110.2C71.9,110.4,71.6,110.2,71.8,110.2
			C71.7,110.2,71.8,110.2,71.8,110.2z M72.1,122.6c-0.2,0.3,0,0.1,0.2,0.1c0.1,0,0.3,0,0.2-0.1C72.5,122.6,72.2,122.7,72.1,122.6z
			 M72.5,112.5C72.6,112.6,72.6,112.5,72.5,112.5C72.5,112.5,72.5,112.5,72.5,112.5z M73.3,122.1c0,0.1-0.3,0.1-0.4,0.2
			c-0.3,0.2,0,0.1,0,0.1c0.2,0,0.4-0.1,0.5-0.1c0-0.1,0.4-0.4,0.2-0.2c0.1,0.1,0.2-0.2,0.1-0.2C73.7,122.1,73.5,122,73.3,122.1z
			 M73.2,122.6C73.2,122.6,73.2,122.6,73.2,122.6C73,122.6,73.1,122.6,73.2,122.6C73.1,122.7,73.2,122.7,73.2,122.6
			C73.2,122.5,73.2,122.6,73.2,122.6z M74.5,120.2C74.5,120.2,74.5,120.2,74.5,120.2C74.5,120.2,74.5,120.2,74.5,120.2z M74.8,112.2
			C74.8,112.3,74.6,112.2,74.8,112.2C74.8,112.2,74.8,112.2,74.8,112.2z M74.9,121.3C74.7,121.5,74.7,121.3,74.9,121.3
			C75.1,121.2,74.9,121.2,74.9,121.3z M75.1,121.3C75.1,121.3,75.1,121.3,75.1,121.3C75.1,121.3,75.1,121.4,75.1,121.3z M75.8,115.9
			C75.8,115.9,75.8,115.9,75.8,115.9C75.8,115.9,75.8,115.9,75.8,115.9z M75.9,116.1C75.9,116.1,75.9,116.1,75.9,116.1
			C75.9,116.1,75.9,116.2,75.9,116.1z M76.1,111.7C76.1,111.8,76.2,111.7,76.1,111.7C76.2,111.7,76.2,111.7,76.1,111.7z M76.6,110.6
			c0.1,0.1-0.1,0.3,0.2,0.2C76.7,110.6,76.9,110.7,76.6,110.6C76.6,110.6,76.6,110.6,76.6,110.6z"/>
		<path d="M85.4,109.3c0.1,0.1,0.3,0.4,0.5,0.4c0.1,0.1,0.2,0,0.3,0.1c0.1,0.2,0.4,0.2,0.4,0.4c0.2,0.2,0.3,0.4,0.3,0.6
			c0,0.4,0.2,0.3,0.2,0.7c-0.1,0-0.1,0.1-0.1,0.2c0.1-0.2,0.2,0.4,0,0.2c0,0.5,0.1,0.9,0,1.4c-0.1,0.1,0.2,0.1,0,0.2
			c-0.1,0.1,0,0.1,0,0.2c0,0,0-0.1,0-0.1v0c0.1-0.1,0.1-0.1,0.1,0.2c-0.1,0-0.2,0.4-0.1,0.4c0.1,0.3,0,0.4,0,0.7
			c0.1,0.1-0.1,0.4,0.1,0.3c0,0.2,0,0.2-0.1,0.1h0c0,0,0,0-0.1,0.1c0,0.3,0.2,0.3,0.1,0.5c0.1,0.1-0.2,0.4,0,0.6
			c0,0.2-0.2,0-0.1,0.2c0.1-0.1,0.1,0.1,0.3,0.1c-0.1,0.1-0.2,0.1-0.2,0.2c0.2,0,0.2,0.2,0,0.3c0,0.1,0.4,0,0.2,0.1
			c-0.2-0.1-0.1,0.2-0.2,0.1c-0.1-0.1-0.1,0.1-0.1,0.1c-0.1,0.1,0.4-0.1,0.2,0c-0.2,0,0.1,0.2-0.1,0.1c-0.1,0.1,0.1,0-0.1,0.2
			c-0.1-0.1,0,0.1-0.1,0.2c-0.1,0,0.1,0.3,0,0.3c0,0.2,0,0.2,0,0.5c0,0.2,0,0.4,0,0.6c0.2,0.1,0,0.1,0,0.2c-0.1,0-0.1,0.3-0.1,0.4
			c0.2,0.1-0.1,0.1,0,0.2c-0.1,0.1,0,0.4-0.1,0.5c0,0.2,0,0.3,0.1,0.5c0,0.3-0.4-0.2-0.3,0c-0.1,0-0.1,0.1-0.1,0.1
			c-0.1,0-0.3,0.1-0.3,0c0.1,0-0.2-0.1-0.2-0.1c0,0.3-0.2-0.2-0.2-0.1c-0.1,0.2-0.2-0.2-0.4-0.1c0-0.2-0.2-0.3-0.1-0.1
			c-0.1,0.2-0.4-0.1-0.3,0.1c-0.1,0.4-0.1-0.1-0.2,0c0,0.1-0.2-0.1-0.2,0c-0.2,0,0.3-0.3-0.1-0.2c0-0.6,0.1-1.1,0.1-1.7
			c0-0.3,0.2-1.1-0.2-1c-0.4-0.2,0.4,0,0.3-0.3c0.1-0.1,0-0.3-0.3-0.1c0.2,0.1-0.1,0.2,0,0c-0.1,0-0.3,0-0.4,0.1
			c-0.2,0-0.2,0.2,0,0.1c0.2,0.1-0.3,0.1-0.2,0.2c0.1,0,0,0.1,0.1,0.1c-0.2,0-0.6,0.2-0.6,0c-0.2,0.2-0.1,0-0.3,0
			c-0.2,0.2-0.4,0-0.5,0.1c-0.1-0.2-0.3,0-0.4-0.1c0,0.1,0,0.3,0,0.1c-0.1,0.1-0.1,0.2,0.1,0.1c0.2,0,0.1,0.4-0.1,0.3
			c-0.1,0.1,0,0.3-0.1,0.2c-0.1-0.3-0.3,0.5-0.2,0.4c0.1,0,0.1,0.3,0,0.2c0-0.2-0.4,1-0.4,1.1c0-0.2-0.2,0.1,0,0.1
			c0,0.2-0.1,0.3-0.1,0.1c-0.1,0.1-0.1,0.3-0.1,0.3c0,0,0,0.1,0,0.1c0,0.1,0,0.1-0.1,0.1c-0.3-0.1,0.2,0.2,0,0.1
			c0.1,0.2-0.3-0.1-0.2,0c-0.1-0.2-0.3,0.4-0.2,0c0.1-0.1-0.2-0.3,0-0.1c0,0.1,0,0.2-0.1,0.1c0,0,0.1,0,0,0c0,0,0,0,0,0
			c0,0,0-0.1,0-0.2c-0.3,0.1,0.1,0-0.1,0.2c0-0.1-0.2,0.1-0.2-0.1c0.2-0.1-0.2-0.2-0.2,0c0.2-0.2,0.1,0.2,0,0.1
			c0-0.2-0.2-0.1-0.1-0.2c0-0.4-0.2,0.3-0.2-0.1c0.1,0,0.1-0.3-0.1-0.2c-0.2,0.1,0-0.2-0.1-0.2c-0.1,0-0.2,0.1-0.3,0.1
			c0,0.1-0.2,0.1-0.2,0.1c0.1-0.2-0.3,0.2-0.1-0.1c0-0.1,0-0.3,0-0.3c0.1-0.2,0.1-0.1,0.1-0.3c0,0,0-0.2,0-0.3
			c0.9-3.3,2.6-7.3,4-9.2c0.5-0.8,1.1-1.6,2-1.9c-0.1,0.1,0.1,0,0.1,0c0,0,0.1-0.1,0.1-0.1C85.2,109.1,85.4,109.1,85.4,109.3z
			 M80.2,121.7C80.2,121.7,80.2,121.7,80.2,121.7C80.2,121.7,80.2,121.7,80.2,121.7z M81.6,119.9C81.7,120.2,81.5,120,81.6,119.9
			C81.6,119.9,81.5,119.9,81.6,119.9z M82.1,118.6c0.2,0.2-0.1,0-0.1,0.1C81.9,118.7,81.9,118.6,82.1,118.6
			C82.1,118.6,82.1,118.6,82.1,118.6z M83.2,118.3C83.2,118.3,83.2,118.3,83.2,118.3c-0.3,0-0.6,0.1-0.8,0.1c-0.4,0-0.1,0.2,0.1,0.1
			c0.1,0,0.4,0,0.4-0.1C83,118.3,83.4,118.4,83.2,118.3C83.2,118.3,83.2,118.3,83.2,118.3z M82.8,118.6
			C82.8,118.7,82.4,118.7,82.8,118.6C82.7,118.6,82.7,118.6,82.8,118.6z M84.8,112.5c-0.1,0.1-0.1,0.4-0.2,0.4
			c0,0.2-0.4,0.2-0.2,0.3c0.1,0-0.3,0.4-0.3,0.2c0.1-0.1,0.1,0,0.1-0.2c-0.1,0.1-0.2,0-0.2,0.1c0,0,0,0,0,0c0,0,0,0,0,0
			c0,0-0.1,0.1-0.1,0.1c0,0,0,0,0,0c0,0,0,0,0,0.1c0,0,0,0.1-0.1,0c0,0.1,0,0,0,0.2c-0.3,0.2,0.1,0.1,0,0.2c0,0,0,0.3-0.1,0.1
			c0.2-0.2-0.1-0.1-0.1,0.1c-0.1,0.1-0.1,0.2-0.2,0.2c0,0.2-0.1,0.2-0.2,0.4c0,0.3,0.1,0,0.2-0.1c0.1-0.1,0.1-0.4,0.3-0.3
			c0,0-0.1,0.1-0.1,0.4c-0.1,0.1-0.1,0.1-0.2,0.4c-0.2,0.1,0,0.4-0.2,0.4c0-0.2,0-0.1-0.1,0.1c-0.2,0-0.3,0.3-0.1,0.3
			c0,0,0,0.1,0,0.1c0.2,0.1,1.2-0.1,1.7-0.1c0.1-0.8,0.1-1.5,0.2-2.3c0-0.4,0.2-0.9,0-1C84.9,112.3,84.9,112.4,84.8,112.5z
			 M83.1,115.3c0.1,0.1,0.1-0.1,0.2-0.3c-0.1,0,0,0,0-0.1C83.2,115,83.1,115.1,83.1,115.3z M83.2,115.4
			C83.3,115.6,83.1,115.5,83.2,115.4C83.2,115.4,83.2,115.4,83.2,115.4z M84.1,118.3c0,0-0.1,0-0.1,0.1
			C83.6,118.3,83.8,118.3,84.1,118.3C84,118.3,84,118.3,84.1,118.3z M83.9,118.2c0-0.2-0.2,0,0.1-0.2
			C84.1,118.1,84,118.2,83.9,118.2z M84,113.4C84,113.4,84,113.4,84,113.4C84,113.4,84,113.4,84,113.4z M84.1,113.2
			C84.1,113.2,84.1,113.2,84.1,113.2C84.1,113.2,84.1,113.2,84.1,113.2z M84.2,113.4C84.2,113.4,84.2,113.4,84.2,113.4
			C84.3,113.4,84.1,113.6,84.2,113.4z M84.9,112.1c-0.1,0.1-0.1,0.2-0.2,0.3c0,0.1-0.3,0.4-0.2,0.3c0.1,0.2,0.3-0.2,0.2-0.3
			C84.8,112.4,84.9,112.3,84.9,112.1C84.9,112.2,85,112.2,84.9,112.1C85,112.2,84.9,112.2,84.9,112.1c0.1,0,0.1-0.1,0.1-0.1
			C84.9,112,84.9,112.1,84.9,112.1z M84.8,112C84.6,112.2,84.9,112.1,84.8,112C84.8,112,84.7,112,84.8,112z M84.9,112.2
			C84.9,112.2,84.9,112.2,84.9,112.2C84.9,112.2,84.9,112.2,84.9,112.2z M86.2,121.5C86.3,121.7,86.2,121.6,86.2,121.5
			C86.2,121.5,86.2,121.5,86.2,121.5z M87,115C87,115,87,115,87,115C86.9,115,87.1,115.1,87,115z"/>
		<path d="M94.2,108.7c0,0,0.2,0.1,0.2,0.1c-0.1-0.1,0.2,0,0,0.2c0.1-0.1,0.1,0.3,0.2,0.2c0.1,0.1,0.3,0.2,0.2,0.3
			c0.1,0.1,0.1,0,0.2,0c0.1,0,0,0.2,0.2,0.3c0.2-0.1,0,0.2,0.1,0.1c0.1,0.1,0.3,0.2,0.2,0.4c0,0.1,0.2-0.1,0.1,0.3
			c0,0.1,0.1,0.2-0.1,0.3c0,0.2,0,0.3,0.1,0.5c-0.1,0.5,0-0.4-0.1,0.1c0,0.2-0.1,0.3-0.1,0.5c0,0,0,0,0,0.1c0,0,0,0,0,0
			c0,0,0,0.1,0,0.2c-0.1,0-0.1,0.4-0.1,0.5c-0.1,0.2,0,0.2-0.1,0.4c-0.1,0.2,0,0.5-0.1,0.6c0,0,0,0,0,0c0,0,0,0,0,0
			c0,0.1,0,0.1,0,0.1c0,0.1-0.1,0.3-0.1,0.4c-0.1,0.1,0,0.4-0.1,0.4c-0.1,0.1,0,0.1-0.1,0.2c0,0.3-0.1,0.6-0.1,0.8
			c-0.1,0.5-0.2,1-0.3,1.5c-0.1,0.3-0.1,0.7-0.1,1.1c0,0.3-0.1,0.4-0.1,0.8c0,0.3,0,0.6-0.1,0.9c0,0.2,0,0.3,0,0.5c0,0.3,0,0.7,0,1
			c0,0.1,0.1,0.3-0.1,0.5c0.1,0,0.1,0.3,0,0.3c-0.2,0.3,0-0.2-0.2-0.2c0.1-0.2,0,0-0.1-0.2c-0.1,0.1-0.1,0.2-0.1,0
			c-0.1,0.3-0.1,0-0.2,0c0-0.2-0.1,0.2-0.1,0c-0.1-0.2-0.2,0.1-0.2,0.1c-0.1-0.2-0.2-0.1-0.3-0.2c-0.2,0.2-0.3-0.9-0.5-0.6
			c-0.1-0.2-0.2,0.1-0.2,0.1c-0.1,0.1-0.1,0.3-0.3,0.5c0-0.1-0.1,0-0.1,0.1c-0.2,0.1-0.1,0-0.1-0.1c-0.1,0.1-0.3,0.3-0.6,0.3
			c0-0.1-0.1-0.1-0.3-0.1c0,0.1-0.1,0.1,0,0c-0.1,0-0.2,0-0.3-0.1c-0.2-0.1-0.3,0-0.4-0.1c-0.1,0.1-0.1-0.1-0.1-0.1
			c-0.2-0.1-0.1-0.2-0.4-0.3c-0.3,0-0.2-0.1-0.5-0.1c-0.3,0.2,0,0-0.3-0.1c-0.1,0,0.1,0.2-0.2,0c-0.8-0.6-1-1.7-1-2.7
			c0.1-2.5,0.8-5,1.8-7.4c0.1-0.5,0.6-1.1,0.6-1.5c0.2-0.2,0.1-0.1,0.1-0.2c0.1-0.2,0.3-0.1,0.3,0c0.2-0.1,0-0.3,0.3-0.1
			c0.1,0,0.2,0.3,0.3,0.3c-0.1,0.3,0,0.2,0,0.4c0.1-0.3-0.1,0.2,0.1,0c0,0.2-0.1,0.3,0.1,0c-0.1-0.3,0.3,0,0.1,0
			c0.2,0.1-0.2,0.2,0,0.2c0-0.1,0.1,0,0.2,0.1c0.1,0.1,0.1,0.2,0.3,0.2c0,0,0,0,0,0c0,0,0,0,0,0c0,0.2,0,0.4-0.1,0.6
			c-0.1,0.1-0.3,0.4-0.1,0.5c-0.1,0.2-0.1,0.2-0.1,0.5c-0.1,0.4-0.1-0.1-0.2,0.2c0.2,0.1,0,0.1,0,0.3c0.2,0.1-0.1,0.5,0,0.3
			c-0.1,0.1-0.1,0.1,0,0.3c0,0-0.1,0-0.2,0.1c-0.1,0.1,0,0.2,0,0.3c-0.1,0.2-0.1,0.1,0,0.3c-0.2-0.1-0.1,0-0.2,0.1c0,0,0,0,0,0
			c0,0,0,0,0,0c-0.1,0.2,0,0.2-0.1,0.3c0,0.1-0.2,0.3-0.1,0.5c0.1,0.1,0.1,0.3,0,0.3c-0.1-0.2-0.1,0.2-0.1,0.2
			c-0.2,0.1,0.1,0.2-0.1,0.3c0.1,0.2,0,0-0.1,0.2c0.1-0.2,0.1,0.3,0,0.4c0,0.1,0,0.3-0.1,0.5c-0.1,0.2-0.1,0.3-0.1,0.4
			c0,0-0.2,0.3,0,0.2c0,0,0,0.1,0,0.1c0,0,0,0,0,0c0,0,0,0.1,0,0.1c0,0.1,0,0.1,0,0.1c0,0,0,0,0,0c0,0,0,0,0,0c0,0,0,0.1,0.1,0.1
			c-0.1,0.1-0.1,0.3-0.1,0.4c0,0.1,0,0.2,0,0.3c0.1,0.1-0.1,0.5,0.1,0.7c-0.1,0.1,0.1,0.2,0.1,0.4c0,0.2-0.1,0.4,0.1,0.2
			c0.4-0.3,0.7-0.6,1-1c0.3-0.4,0.8-0.8,0.9-1.3c0.2-1.8,0.6-3.6,1.1-5.4c0.3-1,0.5-2.1,0.9-3c0-0.3,0.1,0.2,0.1,0
			C94.1,108.9,94.1,108.8,94.2,108.7C94.2,108.7,94.3,108.7,94.2,108.7z M89,121.1C89,121.1,88.9,121.1,89,121.1
			C89,121.1,89,121.1,89,121.1z M89.9,121.2c0.1,0.1,0.1,0.1,0.2,0.1C90.5,121.6,90.1,121.2,89.9,121.2
			C89.9,121.2,89.9,121.2,89.9,121.2z M89.9,117.4C89.9,117.3,89.9,117.3,89.9,117.4C90,117.3,89.9,117.4,89.9,117.4z M90.1,116.1
			c0.1-0.2-0.1,0,0-0.1C90.1,116,90,116.1,90.1,116.1z M91.6,121.1c-0.1,0-0.3,0.1-0.4,0.2c-0.2,0-0.2,0-0.3,0c-0.1,0-0.1,0-0.2,0v0
			c0,0,0,0,0,0c0,0,0,0-0.1,0c0,0-0.1-0.1-0.1,0c0.1,0.2,0.4,0.2,0.6,0.2c-0.2,0.2,0,0,0.1-0.1c0,0.2,0.4,0,0.6-0.1
			c0.3-0.2-0.1,0,0-0.3C91.7,121.1,91.7,121.1,91.6,121.1z M90.6,121.3C90.6,121.3,90.6,121.3,90.6,121.3
			C90.6,121.3,90.6,121.3,90.6,121.3z M91,113.1C91,113.1,91,113.1,91,113.1C91,113.1,91,113.1,91,113.1z M91,121.2
			C90.9,121.2,91.2,121.2,91,121.2C91.1,121.2,91,121.2,91,121.2z M91.4,110.5c0.2,0.2,0.1-0.1,0.1-0.2
			C91.3,110.5,91.1,110.4,91.4,110.5z M91.6,110.3C91.6,110.3,91.6,110.3,91.6,110.3S91.6,110.3,91.6,110.3z M95,114.2L95,114.2
			C94.9,114.2,95.1,114.2,95,114.2z"/>
		<path d="M101.9,108.6c0.4,0.1,0.4,0.1,0.5,0.3c0.2,0.1,0.1,0.4,0.3,0.4c0,0.1,0.1,0.3,0.1,0.4c-0.1,0.3,0.3,0.3,0.1,0.4
			c0,0.2,0.3,0.4,0.2,0.5c0,0,0,0.2,0,0.2c0,0.3,0.2,0.4,0.1,0.6c0,0.2-0.1,0.4-0.2,0.7c0,0.2-0.3,0.4-0.3,0.7c0,0,0,0,0,0
			c0,0,0,0,0,0c0,0,0,0.1,0,0.1c-0.1,0-0.2,0.2-0.1,0.3c-0.1,0-0.2,0-0.3,0.2c0.1,0-0.1,0.3,0,0.1c-0.1,0-0.2,0.3-0.1,0.3
			c-0.1,0.4-0.1-0.1-0.3,0.3c-0.2,0.3,0,0.2-0.3,0.5c-0.1,0.2-0.3,0.4-0.2,0.5c-0.1,0.1,0,0.1,0,0.1c-0.2,0.1-0.1,0.3-0.6-0.1
			c-0.4-0.4-1.1-1.2-0.8-1.7c0.3-0.6,0.7-1.2,1.1-1.9c0.2-0.1,0.1-0.5,0.2-0.3c0.1-0.1,0.1-0.3-0.1-0.2c0.1-0.1,0-0.1-0.1,0
			c-0.1,0,0.2,0.4-0.1,0.2c-0.2-0.1,0,0.1,0,0.1c-0.3,0.1-0.8,0.1-0.8,0.2c0-0.2-0.2,0.1-0.2,0.1c-0.3,0.2-0.7,0.4-1,0.6
			c-0.1,0.2-0.5,0.1-0.5,0.3c0.1,0.1-0.1,0.1-0.2,0.2c-0.1-0.2-0.4,0.3-0.5,0.4c-0.2,0-0.3,0.5-0.3,0.4c-0.2,0.2-0.1,0.1,0,0.3
			c-0.1,0-0.3,0.1-0.2,0.2c-0.1,0.1,0,0.2-0.1,0.2c-0.1,0.2-0.2,0.2-0.2,0.4c0.4,0.3,0.8,0.5,1.2,0.7c0.9,0.4,1.9,0.8,2.6,1.5
			c0.2,0.2,0.1,0.2,0.2,0.3c0,0.1,0.1,0.1,0.1,0.2c0,0,0,0,0,0c0,0,0,0,0,0c0,0,0.1,0.1,0.1,0.2c0.5,0.5,0.6,1,0.6,1.7
			c0,0.2-0.1,0.3-0.1,0.5c0,0.2-0.4,0.3-0.2,0.4c-0.2,0.3-0.5,0.4-0.7,0.6c-0.2,0.1-0.3,0.2-0.5,0.2c-0.1,0.1-0.3,0.2-0.4,0.2
			c0,0.1-0.2,0.1-0.2,0.1c-0.1,0-0.2,0.1-0.3,0.1c-0.2,0.1-0.2,0.1-0.3,0.1c-0.2,0.1-0.4,0.1-0.5,0.1c-0.1,0.2-0.1,0-0.3,0.1
			c-0.1,0-0.1,0-0.2,0c-0.3,0-0.1,0-0.2,0.1c-0.1,0-0.1,0-0.2,0c0,0,0,0,0,0c0,0,0,0,0,0c-0.1,0-0.1,0-0.2,0c-0.1-0.1,0,0.2-0.1,0
			c-0.2,0.1-0.5,0.2-0.4-0.1c-0.2-0.2,0.2,0.1,0.1,0c0.1-0.1,0.2,0,0.2,0c0,0,0,0-0.1-0.1c0.3-0.1,0.4,0,0.7-0.1
			c0.2-0.2,0.1,0,0.4-0.1c0-0.1,0.1-0.2,0.2-0.1c0.1-0.1,0.1,0,0.2,0c0.2,0,0.2-0.2,0.2-0.2c0.1,0,0.2,0.1,0.3,0.1
			c0.1,0-0.1-0.1,0-0.2c0.2-0.1,0.3,0.1,0.4,0c0-0.1-0.3,0-0.1-0.1c0.4-0.1,0.1-0.1-0.1,0c-0.2,0.1-0.4,0.1-0.7,0.2
			c-0.1,0.1-0.2,0-0.3,0.1c-0.2,0-0.5,0-0.6,0.1c-0.2,0.1-0.1-0.1-0.3,0c-0.2,0-0.2,0.3-0.2,0c-0.2,0,0,0.2-0.3,0
			c-0.1,0.1,0.1-0.1-0.1-0.1c-0.2,0-0.7,0-0.6-0.1c0,0,0,0,0,0c0,0-0.1,0,0,0c-0.1,0-0.3,0-0.4-0.2c0-0.2,0.1-0.2-0.2-0.3
			c-0.1,0.1-0.2,0-0.3,0c-0.2,0-0.2-0.3-0.3-0.2c-0.3-0.1,0.6-0.2,0.2-0.2c-0.2-0.1,0.1,0,0.1-0.2c1.2-0.3,2.4-0.5,3.5-1
			c0.2-0.2,1.2-0.5,0.6-0.7c-0.2-0.1-0.5-0.2-0.6-0.2c-0.3-0.1-0.5-0.2-0.8-0.4c-0.2-0.1-0.3-0.1-0.6-0.3c-0.3-0.2-0.7-0.4-0.9-0.7
			c-0.1-0.3-0.2-0.4-0.3-0.7c-0.1-0.1,0-0.1,0-0.3c-0.1-0.2-0.1-0.5-0.2-0.6c-0.1,0.3-0.1,0,0-0.1c-0.2,0.1-0.2,0-0.2-0.2
			c0,0.1,0-0.3-0.1-0.1c-0.1,0-0.2-0.5-0.1-0.8c0-0.8,0.4-1.6,0.9-2.2c1.1-1.4,2.6-2.4,4.3-2.9c0.3-0.1,0.6-0.2,0.9-0.2
			C101.7,108.5,101.8,108.5,101.9,108.6z M95.9,115.4c-0.1,0,0.3,0.3,0.2,0.3C96,115.6,96,115.6,95.9,115.4
			C95.9,115.3,96,115.5,95.9,115.4z M96,115.3C96.2,115.7,96,115.5,96,115.3C96,115.3,96,115.3,96,115.3z M96.2,115.4
			C96.3,115.9,96.4,115.6,96.2,115.4C96.2,115.4,96.2,115.4,96.2,115.4z M96.7,116C96.7,116.2,96.9,116.3,96.7,116L96.7,116z
			 M96.9,116.4C96.9,116.4,96.9,116.4,96.9,116.4c-0.1,0.1,0.1,0,0,0.1C97,116.6,97,116.4,96.9,116.4
			C96.9,116.4,96.9,116.4,96.9,116.4C96.9,116.4,96.9,116.4,96.9,116.4z M96.9,116.4C96.9,116.4,96.9,116.4,96.9,116.4
			C96.9,116.4,96.9,116.4,96.9,116.4z M97,121.1C97,121.2,96.8,121.2,97,121.1C96.9,121.1,97,121.1,97,121.1z M97.1,116.6
			C97,116.7,97.2,116.8,97.1,116.6C97.1,116.6,97.1,116.6,97.1,116.6z M97.3,116.7c0.1,0.1,0.2,0.1,0.1,0.1c0.1,0.1,0.3,0.2,0.3,0.1
			C97.5,116.8,97.4,116.8,97.3,116.7C97.3,116.7,97.2,116.7,97.3,116.7z M97.8,117.1C97.5,117,97.8,117.2,97.8,117.1
			c0.1,0.1,0.3,0.3,0.3,0.2c0,0,0,0,0,0c0,0,0,0,0.1,0c0,0,0,0,0,0c0.1,0.1,0.2,0.2,0.3,0.1c0.1-0.2-0.1-0.1-0.3-0.3
			c0,0.1-0.3,0.1-0.3-0.1C97.9,117.1,97.7,117,97.8,117.1z M97.7,121.5C97.7,121.5,97.8,121.5,97.7,121.5
			C97.8,121.5,97.7,121.5,97.7,121.5z M97.8,121.4L97.8,121.4C97.7,121.4,97.8,121.5,97.8,121.4C97.8,121.5,97.9,121.5,97.8,121.4
			C97.8,121.4,97.8,121.4,97.8,121.4z M97.8,117.1C97.9,117.2,97.7,117.1,97.8,117.1C97.8,117.1,97.8,117.1,97.8,117.1z M97.8,121.4
			C97.8,121.4,97.8,121.4,97.8,121.4C97.8,121.4,97.8,121.4,97.8,121.4z M98.2,117.3L98.2,117.3C98.2,117.3,98.2,117.3,98.2,117.3z
			 M98.4,117.3C98.4,117.3,98.4,117.3,98.4,117.3C98.5,117.3,98.3,117.4,98.4,117.3z M98.9,117.5c0,0.1,0.2,0.2,0.3,0.3
			c0.1,0,0.2,0.1,0.3,0.1c0.1,0.1,0.1,0,0,0c-0.3-0.1-0.1-0.1,0.2,0c0.1,0.1,0.3,0.1,0.2,0c0-0.1-0.2-0.1-0.2-0.1
			c-0.1-0.1-0.3-0.1-0.4-0.2c-0.2-0.2-0.3,0.1-0.3-0.1C98.9,117.4,98.9,117.5,98.9,117.5z M99.1,117.9
			C99.2,117.8,99.1,117.8,99.1,117.9C99,117.8,99.1,117.9,99.1,117.9z M102.8,113.2C102.8,113.2,102.8,113.2,102.8,113.2
			C102.8,113.2,102.8,113.2,102.8,113.2z M102.9,112.8L102.9,112.8C102.9,112.8,102.9,112.8,102.9,112.8z"/>
	</g>
</g>
<g>
	<g>
		<path d="M292.4,183.3c0.4,0.1,0.6,0.4,0.9,0.5c0.2,0.2,0.3,0.4,0.4,0.5c0.1,0.1,0.1,0.2,0.1,0.2c0,0.2,0.3,0.3,0.2,0.4
			c0,0.2,0.2,0.6,0.2,0.5c0,0,0,0.1,0.1,0.1c-0.1,0,0,0,0,0c0.1,0.1,0.1,0.2,0.1,0.3c0.1,0.3,0.2,0.5,0.2,0.8c0,0.3,0.2,0.6,0.1,0.8
			c0,0.2-0.1,0.6-0.1,0.8c-0.1,0.4-0.1,0.4-0.2,0.8c-0.1,0.2-0.1,0.4-0.2,0.7c0,0,0-0.3-0.1,0.1c0.1,0.1,0,0.3,0,0.4
			c-0.1,0.1-0.3,0.4-0.1,0.2c0,0.2-0.3,0.5-0.2,0.3c0-0.1-0.3,0.3-0.1,0.3c-0.2,0.1-0.1,0.4-0.2,0.3c-0.2,0.1,0,0.3-0.1,0.2
			c0,0.1-0.1,0-0.1,0.1c-0.1,0-0.1,0.1,0,0.1c0,0,0,0,0,0c0,0,0,0,0,0c0,0,0,0,0,0c-0.1,0.1-0.1,0.1-0.2,0.3c0,0.1,0.2-0.2,0.1,0
			c-0.2,0.3-0.3,0.6-0.6,0.8c-0.1,0.2-0.2,0.3-0.3,0.5c0.1,0.1,0,0-0.2,0.3c-0.1,0-0.2,0.2-0.3,0.4c0,0,0,0,0,0c0,0,0,0,0,0
			c0,0,0,0.1,0,0.1c0,0,0,0.1-0.1,0.2c-0.2,0.2-0.4,0.4-0.6,0.6c-0.1,0.1-0.1,0.1-0.2,0.2c-0.1,0.1-0.1,0.1-0.2,0.2
			c-0.1,0.2-0.4,0.3-0.5,0.4c-0.2,0.1-0.4,0.2-0.7,0.3c-0.1,0-0.3,0.2-0.3,0c-0.3,0,0.4-0.1,0.5-0.2c0.2-0.1,0.3-0.3,0.1-0.3
			c-0.3-0.1-0.2,0.1-0.2,0.2c-0.1,0-0.1-0.2-0.2-0.1c-0.1,0-0.4,0.1-0.3,0.1c-0.2,0-0.3,0.1-0.4-0.1c-0.2,0.1-0.4,0-0.6-0.2
			c-0.2-0.1-0.6-0.1-0.6-0.4c0-0.2-0.2-0.1-0.4-0.2c-0.3-0.1-0.2-0.3-0.4-0.3c0.1-0.2,0.1-0.8,0.2-1.2c0.2-1.9,0.6-3.7,1-5.5
			c-0.1,0,0.2-0.4,0.1-0.4c0,0-0.3,0.1-0.3,0c-0.2-0.1,0.1-0.2,0-0.3c-0.3,0,0-0.4-0.2-0.4c-0.2,0-0.1-0.2-0.3-0.2
			c0-0.2,0-0.2-0.1-0.3c-0.1-0.1,0.2-0.2,0-0.2c0-0.2-0.3-0.1-0.4-0.3c-0.3-0.2,0-0.4,0.1-0.4c0.2-0.3,0.5-0.6,0.9-0.8
			c1-0.6,2.1-1.1,3.3-1.1C291.3,183,291.8,183.1,292.4,183.3z M287.2,186.7C287.3,186.9,287.5,186.7,287.2,186.7
			C287.2,186.7,287.2,186.7,287.2,186.7z M288.7,196c-0.1,0.1-0.1,0.2-0.1,0.1c-0.1,0-0.2,0.1-0.2-0.2
			C288.4,195.9,288.6,195.8,288.7,196z M290.3,185.6c-0.2,0,0,0.1,0,0.1c0,0,0,0,0,0c-0.1,0.1,0,0,0,0c0,0,0,0-0.1,0.1
			c-0.1,0.1,0.2,0.2,0,0.3c0-0.2-0.1,0.3-0.1,0.4c-0.1,0.1,0,0.4,0,0.4c0.1,0.1-0.1,0.3-0.1,0.6c-0.1,0.1-0.2,0.7,0,0.5
			c-0.1,0.2-0.2,0.5-0.2,0.7c0,0.3-0.2,0.7-0.1,0.9c0,0.2,0,0.4-0.2,0.5c0,0.1-0.1,0.3-0.1,0.3c0.2-0.2-0.1,0.1,0.1,0.1
			c0,0,0,0,0,0.1c0,0,0,0,0,0c-0.1,0,0,0,0,0c0,0.1-0.1,0.1-0.1,0.3c0,0.2,0.1,0.4-0.1,0.6c-0.1,0.2-0.1,0.4-0.1,0.5
			c0,0.1,0.1,0.4-0.1,0.2c0,0.2-0.1,0.7-0.1,0.7c0,0.1,0.2,0,0.3-0.2c1.3-1.6,2.6-3.3,3.4-5.2c0.1-0.4,0.5-1.2,0.3-1.3
			c0.1,0,0.1-0.1,0-0.1c-0.3,0,0.2-0.1-0.1-0.2c-0.2-0.1-0.3-0.1-0.5-0.1c-0.2-0.1-0.2,0-0.4-0.1c-0.2,0-0.5,0.1-0.6,0
			c-0.3,0.1-0.3,0-0.5,0c-0.2,0.1-0.2,0.1-0.4,0.1C290.1,185.9,290.6,185.7,290.3,185.6C290.3,185.6,290.3,185.6,290.3,185.6z
			 M289.2,192.4C289.2,192.5,289.1,192.4,289.2,192.4C289.2,192.4,289.2,192.4,289.2,192.4z M289.4,195.5
			C289.6,195.5,289.3,195.6,289.4,195.5C289.4,195.5,289.4,195.5,289.4,195.5C289.4,195.5,289.4,195.5,289.4,195.5
			C289.5,195.5,289.5,195.5,289.4,195.5z M289.4,190.5C289.4,190.5,289.5,190.5,289.4,190.5C289.5,190.5,289.5,190.5,289.4,190.5z
			 M289.8,195.4c-0.1,0.3,0.2-0.1,0.2-0.1C289.9,195.3,289.9,195.4,289.8,195.4z M290.3,185.7C290.3,185.7,290.3,185.7,290.3,185.7
			C290.3,185.7,290.3,185.7,290.3,185.7z M290.4,185.5C290.5,185.6,290.6,185.6,290.4,185.5C290.5,185.5,290.4,185.5,290.4,185.5z
			 M290.7,185.3C290.4,185.4,290.4,185.5,290.7,185.3C290.6,185.5,290.9,185.4,290.7,185.3C290.7,185.3,290.6,185.4,290.7,185.3z
			 M291.2,185.5c-0.1,0.1-0.4-0.1-0.5,0.1C290.6,185.7,291,185.5,291.2,185.5c0.1,0,0.2,0.1,0.4,0.1c0.2-0.2-0.1-0.1-0.1-0.2
			C291.4,185.4,291.2,185.4,291.2,185.5z M291.2,185.2C291.1,185.3,291.1,185.3,291.2,185.2C291.1,185.3,291.1,185.3,291.2,185.2
			c-0.2,0.1-0.4,0-0.2,0.2c0.1-0.2,0.2,0,0.3,0c0.2,0,0.1-0.1,0.2,0c0,0,0,0,0,0c0,0,0,0,0,0C291.4,185.3,291.3,185.3,291.2,185.2
			C291.2,185.3,291.2,185.3,291.2,185.2z M291.7,185.4C291.7,185.7,291.8,185.4,291.7,185.4c0,0,0.1-0.2-0.2-0.1
			C291.4,185.3,291.6,185.4,291.7,185.4z M291.5,193.9C291.5,193.9,291.5,193.9,291.5,193.9C291.5,194,291.5,194,291.5,193.9z
			 M291.5,185.6C291.5,185.7,291.8,185.6,291.5,185.6C291.6,185.6,291.6,185.6,291.5,185.6z M292,185.5c0.2,0.1,0.4,0.1,0.7,0.2
			c0.2,0,0.1-0.1,0.2,0.1c0.1,0,0.3,0.1,0.2,0c-0.1-0.2-0.1-0.2-0.3-0.3c-0.2-0.1-0.2,0-0.4-0.1c0,0.2-0.3,0.1-0.5,0
			C291.8,185.5,292,185.7,292,185.5z M292.6,185.8C293,185.9,292.4,186,292.6,185.8C292.5,185.8,292.6,185.8,292.6,185.8z
			 M293,191.7C293,191.7,293,191.7,293,191.7C293,191.7,293,191.7,293,191.7z M293.1,191.5C293.1,191.5,293.1,191.5,293.1,191.5
			C293.1,191.5,293.2,191.5,293.1,191.5z M294.1,185.4C294.1,185.4,294.1,185.4,294.1,185.4C294.1,185.3,294.1,185.4,294.1,185.4z"
			/>
		<path d="M297.3,182.8c0.2,0,0.2,0.1,0.3,0.1c0,0.1,0.1,0.2,0.3,0.3c1.1-0.4,2.3-0.5,3.4-0.6c0.4,0,1-0.1,1.1,0
			c0.2-0.2,0.3,0.1,0.4,0.1c0.1-0.1,0.2,0.1,0.3,0.1c0,0.1,0.2,0.1-0.1,0.2c0.1,0,0.1,0.2-0.1,0.3c0,0-0.1,0.2-0.1,0.2
			c0.1,0.2,0,0.2-0.1,0.2c0,0.2,0.2,0.2,0.2,0.3c-0.1,0.1-0.1,0.1-0.2,0.3c-0.3-0.1-0.2,0.2-0.1,0.3c0,0.2-0.3-0.1-0.3,0
			c-0.2,0-0.3,0.1-0.4,0c-0.2,0.1-0.3,0-0.4,0.2c-0.1,0.1-0.3,0,0-0.1c-0.1,0.1-0.2,0-0.3,0.1c-0.1,0,0,0-0.2,0.1
			c0-0.2-0.3,0.1-0.4,0c-0.1,0-0.3,0.1-0.4,0.1c0,0.1-0.3-0.1-0.5,0.1c0,0,0,0,0.1,0c0,0,0,0,0,0c0.2,0,0.4,0.1,0.1,0.2
			c0-0.2-0.3,0.2-0.4,0.1c0,0-0.5,0.2-0.3,0c-0.2-0.1-0.1,0.2-0.3,0.1c-0.2,0.1-0.3-0.1-0.3-0.1c0.2,0.2-0.3,0.3-0.2,0.1
			c-0.2-0.1-0.1-0.1-0.1-0.2c-0.3-0.2,0,0.3-0.2,0.1c-0.2,0,0,0.2-0.2,0.2c-0.1-0.1-0.2,0.1-0.1,0.3c-0.1,0.2,0-0.2-0.1,0.1
			c0,0.1,0,0-0.1,0.2c0.1,0.1-0.1,0.1,0,0.2c0,0.3-0.3,0.2-0.2,0.3c-0.1,0.1,0,0.1,0,0.3c-0.1,0.2-0.3,0.3-0.1,0.4
			c0,0-0.1,0.1-0.1,0.1c0,0,0,0,0,0c0,0,0,0,0,0c0,0.1-0.1,0.1-0.1,0.1c0,0,0.2,0.2,0,0.2c0,0,0,0.2,0,0.4c0,0,0,0,0,0c0,0,0,0,0,0
			c0,0,0,0,0,0.1c1-0.3,2.1-0.6,3.2-0.7c0.4,0,0.9-0.1,1.3,0c0,0,0.1,0,0.1,0.2c0.3,0.2-0.1,0.1,0.1,0.1c-0.2,0.2,0,0.1,0,0.3
			c-0.1-0.1-0.1,0,0,0.1c0.2-0.1,0,0.1,0,0.2c-0.1-0.1-0.1-0.3-0.1,0c0.1,0.1,0.3,0.3,0.1,0.2c0,0-0.1,0.1-0.2,0.2c0,0,0,0,0,0
			c0,0,0,0,0.1,0c0.1,0.1,0.2,0.1,0.1,0.2c-0.3,0.2,0,0-0.1,0.2c0.2-0.1,0,0.2-0.1,0.2c-0.2,0-0.2,0.2-0.1,0.1
			c0.1,0-0.1,0.3-0.1,0.1c0,0.2-0.5,0.1-0.4,0.3c-0.2-0.1-0.2,0.2-0.3,0.1c-0.2,0.2-0.2-0.1-0.2,0.1c-0.2,0-0.4-0.1-0.6,0
			c-0.1,0.1-0.3,0-0.4,0.1c-0.1,0-0.1,0-0.2,0c-0.2-0.1,0,0.2-0.2,0.1c0.2-0.1-0.5,0-0.2,0.1c-0.3,0.2-0.2-0.2-0.4,0
			c-0.2,0.2-0.1,0.1-0.2,0.1c-0.1,0-0.2,0-0.3,0.1c0.1,0.1-0.1,0.1,0,0c-0.1,0.1-0.2,0.1-0.3,0.1c-0.1,0.1-0.3,0.1-0.2,0.1
			c-0.1-0.1-0.1,0.1-0.2,0c-0.1,0.2-0.5,0.2-0.4,0.2c-0.2-0.1-0.1,0.5-0.2,0.8c-0.2,0,0.1,0.1,0,0.4c-0.1,0.1,0,0.3,0,0.5
			c-0.1,0,0.2,0.3,0,0.4c0,0.4,0.1-0.1,0,0.3c0,0,0,0.1,0,0.1c0,0,0,0,0,0c0.1,0,0,0.1,0,0.1c0,0.1,0,0.1,0.1,0.2
			c0.1,0.3-0.1,0,0,0.3c0.1,0.1,0,0.1,0.1,0.2c0.9-0.2,1.6-0.8,2.4-1.3c0.1,0,0.1,0,0.3,0.1c0.1-0.1,0.1,0,0.2,0.1
			c0.3-0.1-0.1,0.2,0.1,0.1c0.2,0.1,0.3-0.2,0.4,0c-0.1,0.1,0.1,0.1,0.2,0c0.1,0,0.1,0.3,0.1,0.1c0,0,0.1,0,0,0c0,0,0,0,0-0.1
			c0,0.2,0.5-0.1,0.4,0.1c0.3,0,0.1,0.3,0.3,0.3c0.1,0,0,0.2,0.2,0.1c0,0.3-0.2-0.1-0.3,0.1c0,0.2-0.3,0.1-0.1,0
			c-0.1,0-0.2,0.3-0.1,0.2c0,0.1-0.1,0.3-0.3,0.3c-0.2,0.2-0.4,0.2-0.5,0.4c-0.1,0.1-0.4,0.2-0.3,0.2c0.1,0,0.3-0.2,0.4-0.3
			c0,0.3,0.1,0.1,0.2,0.1c0.1-0.1,0.3-0.2,0.4-0.3c0.2-0.1,0.2,0,0,0.1c-0.3,0.1-0.5,0.4-0.7,0.5c-0.1,0.2-0.3,0.1-0.3,0.3
			c-0.1,0-0.2,0.2-0.4,0.2c-0.1,0-0.1,0.1-0.3,0.2c-0.3,0.1-0.7,0.3-1.1,0.3c-0.3,0-0.6-0.1-0.9-0.2c-0.2,0-0.3-0.1-0.5-0.2
			c0.2,0-0.1-0.2-0.2-0.2c-0.3-0.2-0.1,0.1-0.3,0c-0.3-0.2,0,0.1-0.2,0c-0.1-0.1-0.1-0.1-0.2-0.1c0,0,0,0,0,0c0,0,0,0,0,0
			c-0.1,0-0.1,0-0.1,0c-0.8-0.4-1.1-1.4-1.1-2.2c-0.1-1.8,0.3-3.7,0.8-5.5c0.1-0.3,0.4-0.9,0.3-1c0-0.2-0.1-0.1-0.2-0.4
			c-0.2,0.1-0.1-0.2-0.1-0.3c0.1-0.1-0.2,0-0.3-0.2c0.4,0-0.1-0.1,0.1-0.2c0.2,0,0.1-0.1,0.2-0.1c-0.1-0.2,0-0.2,0-0.3
			c0.2,0,0.2-0.2,0.2-0.2c-0.1-0.2-0.1,0-0.2-0.1c0.2,0,0.1-0.1-0.1-0.1c0.1,0.2-0.3-0.3-0.2-0.3c0-0.1,0.4-0.1,0.2-0.1
			c0.8-0.2,1.6-0.1,1.7-0.7c0-0.2,0.2-0.3,0.2-0.2C297.2,183,297.2,182.8,297.3,182.8C297.3,182.8,297.3,182.8,297.3,182.8z
			 M295.6,194.9C295.6,194.9,295.7,194.9,295.6,194.9C295.7,194.9,295.6,194.9,295.6,194.9z M296.5,195.3
			C296.5,195.3,296.5,195.3,296.5,195.3C296.5,195.3,296.5,195.3,296.5,195.3z M297.4,187.5C297.3,187.6,297.4,187.5,297.4,187.5
			C297.4,187.5,297.4,187.5,297.4,187.5z M297.6,195.4c0.3,0.1,0.4,0.1,0.5,0c0-0.1-0.4,0.1-0.2,0
			C298.1,195.3,297.7,195.3,297.6,195.4C297.7,195.3,297.5,195.4,297.6,195.4z M297.7,195.4C297.6,195.5,297.8,195.4,297.7,195.4
			C297.7,195.4,297.7,195.4,297.7,195.4z M297.8,182.9C297.9,183.1,297.6,182.9,297.8,182.9C297.8,182.9,297.8,182.9,297.8,182.9z
			 M298.1,195.3c-0.2,0.3,0,0.1,0.2,0.1c0,0,0.3,0,0.2-0.1C298.5,195.3,298.2,195.4,298.1,195.3z M298.5,185.2
			C298.6,185.3,298.7,185.2,298.5,185.2C298.5,185.2,298.5,185.2,298.5,185.2z M299.4,194.9c-0.1,0.1-0.3,0.1-0.4,0.2
			c-0.3,0.2-0.1,0.1,0,0.1c0.2,0,0.4-0.1,0.5-0.1c0-0.1,0.4-0.4,0.2-0.2c0.1,0.1,0.2-0.2,0.1-0.2
			C299.7,194.9,299.5,194.8,299.4,194.9z M299.2,195.3C299.2,195.3,299.2,195.3,299.2,195.3C299.1,195.3,299.2,195.3,299.2,195.3
			C299.1,195.4,299.2,195.4,299.2,195.3C299.2,195.3,299.2,195.3,299.2,195.3z M300.5,192.9C300.5,193,300.5,193,300.5,192.9
			C300.5,193,300.5,193,300.5,192.9z M300.8,184.9C300.9,185,300.6,184.9,300.8,184.9C300.8,184.9,300.8,184.9,300.8,184.9z
			 M300.9,194C300.7,194.2,300.7,194.1,300.9,194C301.1,194,300.9,193.9,300.9,194z M301.1,194.1C301.1,194.1,301.1,194,301.1,194.1
			C301.1,194,301.2,194.1,301.1,194.1z M301.9,188.6C301.9,188.6,301.9,188.6,301.9,188.6C301.9,188.6,301.9,188.6,301.9,188.6z
			 M301.9,188.9C301.9,188.9,301.9,188.9,301.9,188.9C302,188.8,302,189,301.9,188.9z M302.1,184.4
			C302.1,184.5,302.2,184.4,302.1,184.4C302.2,184.4,302.2,184.4,302.1,184.4z M302.6,183.3c0.1,0.1-0.1,0.3,0.2,0.2
			C302.7,183.3,302.9,183.4,302.6,183.3C302.6,183.3,302.6,183.3,302.6,183.3z"/>
		<path d="M309.1,181.8c0.1,0,0.2,0.1,0.2,0c-0.1-0.1,0.2,0,0,0.2c0.1-0.1,0.1,0.2,0.2,0.2c0.1,0.1,0.3,0.2,0.2,0.2
			c0.1,0.1,0.1,0,0.2,0c0.1,0,0,0.2,0.2,0.3c0.2-0.1,0,0.2,0.1,0.1c0.1,0.1,0.3,0.2,0.2,0.4c0,0.1,0.2-0.1,0.1,0.3
			c0,0.1,0.1,0.2-0.1,0.3c0,0.2,0,0.3,0.1,0.5c-0.1,0.5,0-0.4-0.1,0.1c0,0.2-0.1,0.3-0.1,0.5c0,0,0,0,0,0.1c0,0,0,0,0,0
			c0,0,0,0.1,0,0.2c-0.1,0-0.1,0.4-0.1,0.5c0,0.2,0,0.2-0.1,0.4c-0.1,0.2,0,0.5-0.1,0.6c0,0,0,0,0,0c0,0,0,0,0,0c0,0.1,0,0.1,0,0.1
			c0,0.1,0,0.3-0.1,0.4c-0.1,0.1,0,0.4-0.1,0.4c-0.1,0.1,0,0.1-0.1,0.2c0,0.3-0.1,0.7-0.1,0.8c-0.1,0.5-0.2,1-0.3,1.5
			c-0.1,0.4-0.1,0.7-0.1,1.1c0,0.3-0.1,0.4-0.1,0.8c0,0.3,0,0.6-0.1,0.9c0,0.2,0,0.3,0,0.5c0,0.3,0,0.7,0,1c0,0.1,0.1,0.3-0.1,0.5
			c0.1,0,0,0.2,0,0.3c-0.2,0.3,0-0.2-0.2-0.2c0.1-0.2-0.1,0-0.1-0.2c-0.1,0.1-0.1,0.2-0.1,0c-0.1,0.3-0.1,0-0.2,0
			c0-0.2-0.1,0.2-0.1,0c-0.1-0.2-0.2,0.2-0.2,0.1c-0.1-0.2-0.2-0.1-0.3-0.1c-0.2,0.2-0.3-0.8-0.5-0.5c-0.1-0.2-0.2,0.1-0.2,0.1
			c-0.1,0.1-0.1,0.4-0.3,0.5c0-0.1-0.1,0-0.1,0.1c-0.2,0.1-0.1,0-0.1-0.1c-0.1,0.1-0.3,0.3-0.6,0.3c0-0.1-0.1-0.1-0.3-0.1
			c0,0.1-0.1,0.1,0,0c-0.1,0-0.2,0-0.3-0.1c-0.2-0.1-0.3,0-0.4-0.1c-0.1,0.1-0.1-0.1-0.1-0.1c-0.2,0-0.1-0.1-0.4-0.2
			c-0.3,0-0.2-0.1-0.5-0.1c-0.3,0.2-0.1,0-0.3-0.1c-0.1,0,0.1,0.2-0.2,0c-0.8-0.6-1-1.7-1-2.7c0.1-2.5,0.8-5,1.8-7.4
			c0.1-0.5,0.6-1.1,0.6-1.5c0.2-0.2,0.1-0.1,0.1-0.2c0.1-0.2,0.3-0.1,0.3,0c0.2-0.2,0-0.3,0.3-0.1c0.1,0,0.2,0.2,0.3,0.3
			c-0.1,0.3,0,0.2,0,0.4c0.1-0.3,0,0.2,0.1,0c0,0.2-0.1,0.3,0.1,0c-0.1-0.2,0.3-0.1,0.1,0c0.2,0.1-0.2,0.2,0,0.2c0-0.1,0.1,0,0.2,0
			c0.1,0.1,0.1,0.2,0.3,0.1c0,0,0,0,0,0c0,0,0,0,0,0c0,0.2,0,0.4-0.1,0.6c-0.1,0.1-0.3,0.4-0.1,0.5c-0.1,0.2-0.1,0.2-0.1,0.5
			c-0.1,0.4-0.1-0.1-0.2,0.2c0.2,0.1,0,0.1,0,0.3c0.2,0.1-0.1,0.5,0,0.3c-0.1,0.1-0.1,0.1,0,0.3c0,0-0.1,0-0.2,0.1
			c-0.1,0.1,0,0.2,0,0.3c-0.1,0.2-0.1,0.1,0,0.3c-0.2-0.1-0.1,0-0.2,0.1c0,0,0,0,0,0c0,0,0,0,0,0c-0.1,0.2,0,0.2-0.1,0.4
			c0,0.1-0.2,0.3-0.1,0.5c0.1,0.1,0.1,0.3,0,0.3c-0.1-0.2-0.1,0.3-0.1,0.2c-0.2,0.1,0.1,0.2-0.1,0.3c0.1,0.2,0,0-0.1,0.2
			c0.1-0.2,0.1,0.3,0,0.4c0,0.1,0,0.3-0.1,0.5c-0.1,0.2-0.1,0.3-0.1,0.4c0,0-0.2,0.3,0,0.2c0,0,0,0.1,0,0.1c0,0,0,0,0,0
			c0,0,0,0.1,0,0.1c0,0.1,0,0.1,0,0.1c0,0,0,0,0,0c0.1,0,0,0,0,0c0,0,0,0.1,0.1,0.1c0,0.1-0.1,0.3-0.1,0.4c0,0.1,0,0.2,0,0.3
			c0.1,0.1-0.1,0.5,0.1,0.7c-0.1,0.1,0.1,0.2,0.1,0.4c0,0.2-0.1,0.4,0.1,0.2c0.4-0.3,0.7-0.7,1-1.1c0.3-0.4,0.8-0.8,0.9-1.3
			c0.2-1.8,0.6-3.7,1.1-5.5c0.3-1,0.5-2.1,0.9-3.1c0-0.3,0.1,0.2,0.1,0C309,182,309,181.9,309.1,181.8
			C309.1,181.7,309.2,181.8,309.1,181.8z M303.9,194.4C303.9,194.5,303.8,194.4,303.9,194.4C303.9,194.4,303.9,194.4,303.9,194.4z
			 M304.7,194.5c0.1,0.1,0.1,0.1,0.2,0.1C305.3,194.9,305,194.5,304.7,194.5C304.8,194.5,304.8,194.5,304.7,194.5z M304.8,190.7
			C304.8,190.6,304.8,190.6,304.8,190.7C304.8,190.6,304.8,190.7,304.8,190.7z M305,189.4c0.1-0.2-0.1,0,0-0.1
			C304.9,189.3,304.9,189.4,305,189.4z M306.4,194.4c-0.1,0-0.3,0.1-0.4,0.2c-0.2,0-0.2,0-0.3,0c-0.1,0-0.1,0-0.2,0c0,0,0,0,0,0
			c0,0,0,0,0,0c0,0,0,0-0.1,0c0,0-0.1-0.1-0.1,0c0.1,0.2,0.4,0.1,0.6,0.2c-0.2,0.2,0,0,0.1-0.1c0,0.2,0.4,0,0.6-0.1
			c0.3-0.2-0.1,0-0.1-0.3C306.5,194.3,306.5,194.4,306.4,194.4z M305.5,194.6C305.5,194.6,305.5,194.6,305.5,194.6
			C305.5,194.6,305.5,194.6,305.5,194.6z M305.9,186.3L305.9,186.3L305.9,186.3z M305.9,194.4C305.8,194.5,306,194.4,305.9,194.4
			C305.9,194.4,305.9,194.4,305.9,194.4z M306.3,183.7c0.2,0.2,0.1-0.1,0.1-0.2C306.1,183.7,306,183.7,306.3,183.7z M306.5,183.6
			C306.5,183.6,306.5,183.6,306.5,183.6S306.5,183.6,306.5,183.6z M309.9,187.2L309.9,187.2C309.8,187.2,309.9,187.2,309.9,187.2z"
			/>
		<path d="M319,180.6c0.3,0,0.1,0.2,0.5,0.1c0.1,0.2,0,0.1,0.1,0.2c-0.3,0-0.1,0.2-0.2,0.4c0,0.1-0.2,0.2-0.2,0.4c0,0,0,0,0,0
			c0,0,0,0,0,0c0,0,0,0,0,0.1c0,0.1,0.1,0.2-0.1,0.2c0,0.1,0.1,0.2,0,0.3c-0.1,0-0.1,0-0.1,0.1c-0.1,0.1,0.1,0.4,0,0.3
			c-0.2-0.1-0.2,0.2-0.3,0.2c0.1-0.2-0.3,0.1-0.2-0.1c-0.2,0.1,0.1,0.4-0.2,0.2c0.2,0,0,0,0.1-0.1c-0.1-0.1-0.2,0-0.2,0.1
			c-0.1,0-0.3,0.2-0.1,0c-0.2,0-0.4,0.2-0.5,0.1c-0.1,0-0.3,0.1-0.4,0.1c-0.1,0-0.3,0.1-0.3,0c-0.3-0.1-0.3,0.3-0.3,0.1
			c-0.2,0.2,0,0.1,0,0.2c0,0,0,0,0,0c0,0,0,0,0,0c-0.2,0.1,0.4,0,0.1,0.1c-0.2,0.1,0.1,0.1-0.1,0.2c0,0.1-0.1,0.4-0.1,0.4
			c0.3,0-0.1,0.3,0.1,0.2c0.2,0-0.3,0.1-0.2,0.3c0.1,0.1-0.1,0.3,0,0.5c0-0.1-0.2-0.1-0.2,0.3c-0.1,0.1,0.2,0.4-0.1,0.3
			c0,0.1,0.2,0.2,0,0.1c0,0.2-0.1,0.1,0,0.2c0.2-0.1,0,0.4-0.1,0.1c-0.1,0.2-0.1,0.4-0.2,0.6c-0.1,0.3,0.1,0.2-0.1,0.4
			c0,0.1-0.1,0.2-0.1,0.4c0,0.1-0.1,0.2-0.1,0.3c0,0.1-0.1,0.3-0.1,0.4c0,0.1-0.1,0.3-0.1,0.4c-0.1,0.1,0,0.3-0.1,0.2
			c0,0.1-0.1,0.2-0.1,0.3c-0.1,0.2,0,0.6-0.1,0.8c-0.2,0.2,0,0.2-0.1,0.5c0,0.1-0.1-0.1,0,0.2c-0.1,0.1,0,0.2-0.1,0.3
			c-0.1,0.1,0,0.4-0.1,0.4c0.1,0.1,0,0.3,0,0.4c-0.1,0.1,0,0.2-0.1,0.3c0,0,0,0.1,0,0.3c0,0,0.1,0.2,0,0.3c0,0.2,0.1,0.2,0.1,0.4
			c0,0.1-0.1,0.2-0.1,0.3c0,0.2-0.2,0-0.1-0.1c0.2-0.1,0-0.1-0.1,0c0.1,0.4-0.4,0.1-0.1,0.4c-0.1,0.1-0.2-0.1-0.4-0.1
			c-0.1,0-0.1,0.2-0.2,0.2c0-0.1-0.1-0.2-0.3-0.1c0.1,0-0.1,0.2-0.1,0c-0.1,0-0.2,0.1-0.2,0c-0.1-0.1,0,0.4-0.2,0
			c0.1-0.1,0-0.1,0-0.2c0,0,0,0,0,0c0,0,0,0,0,0c-0.1,0-0.1,0-0.1,0c0.1,0.2-0.2-0.1-0.2,0.1c0,0.2-0.1,0-0.3,0.1
			c0.2,0.1,0,0-0.1,0.1c-0.1,0.1-0.2,0.2-0.2-0.1c0-0.1-0.1-0.4,0-0.8c0.3-2.6,0.8-5.1,1.6-7.6c0.1-0.5,0.3-1,0.4-1.4
			c0.1-0.2,0-0.3-0.1-0.1c-0.2,0-0.4,0.1-0.6,0.1c-0.2,0.1-0.3,0.1-0.4,0.2c-0.1,0-0.3-0.1-0.3,0.1c0,0-0.1,0-0.1,0.1
			c0,0,0-0.1,0-0.1c-0.1,0,0,0.1,0,0.1c-0.2,0.1-0.3-0.1-0.4,0c-0.2,0.1-0.4,0.1-0.5,0.2c-0.1,0-0.2,0.1-0.3,0
			c-0.1,0.1-0.2,0.1-0.3,0.1c-0.2,0.2-0.3,0-0.1-0.1c0.2,0,0.5-0.1,0.2-0.2c-0.2,0.1,0-0.2-0.2-0.1c-0.5,0.1-0.2,0,0.1-0.1
			c0.3,0,0.2-0.1,0.2-0.2c-0.4,0,0.2-0.1-0.1-0.1c0.4-0.1-0.3,0,0.1-0.1c0-0.2-0.2-0.1,0-0.3c0-0.1-0.2-0.2,0.1-0.3
			c0.2-0.1,0.1-0.3,0.2-0.3c-0.2,0-0.1-0.4-0.2-0.3c-0.1-0.1,0-0.3,0.2-0.4c2-0.4,4.1-1,6.1-1.2C318,180.7,318.5,180.6,319,180.6z
			 M312.7,184.3C312.7,184.3,312.7,184.3,312.7,184.3C312.7,184.3,312.7,184.3,312.7,184.3z M312.9,193.6
			C312.9,193.6,312.9,193.6,312.9,193.6C312.9,193.6,312.9,193.6,312.9,193.6z M314.4,194.2c0-0.1,0.1,0.2-0.1,0.2
			c0-0.1,0-0.2,0-0.4C314.4,194,314.5,194,314.4,194.2z M314.3,192.9c0.1-0.1-0.1-0.1,0-0.4C314.3,192.6,314.2,192.9,314.3,192.9z
			 M314.4,192C314.4,192.3,314.6,192,314.4,192C314.4,192,314.4,192,314.4,192z M314.5,191.3C314.4,191.8,314.6,191.5,314.5,191.3
			C314.5,191.2,314.5,191.3,314.5,191.3z M315.7,186.7C315.8,186.9,315.5,186.7,315.7,186.7C315.7,186.6,315.7,186.7,315.7,186.7z
			 M317.2,183.2c-0.3,0,0,0,0-0.1C317.2,183.1,317.2,183.2,317.2,183.2z M317.6,183c0.1,0,0.4-0.1,0.2-0.1
			C317.7,182.9,317.7,182.9,317.6,183C317.6,182.9,317.6,182.9,317.6,183z M319.1,182.1C319.1,182.1,319.1,182.1,319.1,182.1
			C319.2,182.1,319,182.2,319.1,182.1z M319.1,182C319.1,182,319.1,182,319.1,182C319.2,181.9,319.1,182.1,319.1,182z M319.6,181.1
			c0-0.1-0.3,0.1-0.1-0.1c0,0,0,0,0,0C319.6,180.9,319.7,181.1,319.6,181.1z"/>
		<path d="M324.3,179.9c0.4,0.1,0.4,0.1,0.5,0.2c0.2,0.1,0.1,0.3,0.3,0.3c0,0.1,0.1,0.3,0.1,0.4c-0.1,0.3,0.3,0.2,0.1,0.4
			c0,0.2,0.3,0.3,0.2,0.5c0.1,0,0,0.2,0,0.2c-0.1,0.3,0.2,0.4,0,0.6c0,0.2-0.1,0.4-0.2,0.7c0,0.2-0.3,0.5-0.3,0.7c0,0,0,0,0,0
			c0,0,0,0,0,0c0,0,0,0,0,0.1c-0.1,0-0.2,0.2-0.1,0.4c0,0-0.2,0-0.3,0.3c0.1-0.1-0.1,0.3,0,0.1c-0.1,0-0.2,0.3-0.1,0.3
			c-0.1,0.4-0.1-0.1-0.3,0.3c-0.2,0.3,0,0.2-0.3,0.5c-0.1,0.2-0.3,0.4-0.2,0.5c-0.1,0.1,0.1,0.1,0,0.1c-0.2,0.1-0.1,0.4-0.6-0.1
			c-0.5-0.4-1.1-1-0.8-1.6c0.3-0.7,0.7-1.3,1.1-2c0.2-0.1,0.1-0.6,0.2-0.4c0.1-0.1,0.1-0.3-0.1-0.2c0.1-0.1,0-0.1-0.1,0
			c-0.1,0,0.2,0.4-0.1,0.2c-0.2-0.1,0,0.1,0,0.1c-0.3,0.1-0.8,0.2-0.8,0.3c0-0.2-0.2,0.1-0.2,0.2c-0.3,0.2-0.7,0.5-1,0.8
			c-0.1,0.2-0.5,0.2-0.5,0.4c0.1,0.1-0.1,0.1-0.2,0.3c-0.1-0.2-0.4,0.4-0.5,0.5c-0.2,0-0.3,0.5-0.3,0.4c-0.2,0.3-0.1,0.1,0,0.3
			c-0.1,0-0.3,0.1-0.2,0.2c-0.1,0.1,0,0.2-0.1,0.2c-0.1,0.2-0.2,0.2-0.2,0.4c0.4,0.3,0.8,0.4,1.2,0.5c0.9,0.3,1.9,0.5,2.6,1.2
			c0.2,0.1,0.1,0.2,0.2,0.3c0,0.1,0.1,0.1,0.1,0.1c0,0,0,0,0,0c0,0,0,0,0,0c0,0,0.1,0.1,0.1,0.1c0.5,0.4,0.6,0.9,0.6,1.6
			c0,0.2,0,0.3-0.1,0.5c0,0.2-0.4,0.4-0.2,0.4c-0.2,0.3-0.5,0.5-0.7,0.7c-0.2,0.1-0.3,0.2-0.5,0.2c-0.1,0.1-0.3,0.2-0.4,0.2
			c0,0.1-0.2,0.1-0.2,0.1c-0.1,0-0.2,0.1-0.3,0.1c-0.2,0.1-0.2,0.1-0.3,0.1c-0.2,0.1-0.4,0.1-0.5,0.2c-0.1,0.2-0.1,0-0.3,0.1
			c-0.1,0-0.1,0-0.2,0.1c-0.3,0-0.1,0-0.2,0.1c-0.1,0-0.1,0-0.2,0c0,0,0,0,0,0c0,0,0,0,0,0c-0.1,0-0.1,0-0.2,0
			c-0.1-0.1,0,0.2-0.1,0.1c-0.2,0.1-0.6,0.2-0.4,0c-0.2-0.2,0.2,0.1,0.1,0c0.1-0.1,0.2,0,0.2,0c0,0,0,0,0-0.1
			c0.3-0.1,0.4-0.1,0.7-0.2c0.2-0.2,0.1,0,0.4-0.1c0-0.1,0.1-0.2,0.2-0.1c0.1-0.1,0.1,0,0.2-0.1c0.2,0,0.2-0.2,0.2-0.2
			c0.1-0.1,0.2,0.1,0.3,0c0.1-0.1-0.1-0.1,0-0.2c0.2-0.1,0.3,0.1,0.4,0c0-0.1-0.3,0.1-0.1-0.1c0.4-0.2,0.1-0.1-0.1,0
			c-0.2,0.1-0.4,0.2-0.7,0.2c-0.1,0.2-0.2,0-0.3,0.1c-0.2,0-0.4,0.1-0.6,0.2c-0.2,0.1-0.1-0.1-0.3,0c-0.2,0-0.2,0.3-0.2,0.1
			c-0.2,0,0,0.2-0.3,0c-0.1,0.1,0.1-0.1-0.1-0.1c-0.2,0-0.7,0.1-0.6,0c0,0,0,0,0,0c0,0-0.1,0,0,0c-0.1,0-0.3,0-0.4-0.2
			c0-0.2,0.1-0.2-0.2-0.3c-0.1,0.1-0.2,0-0.3,0c-0.2,0-0.2-0.2-0.3-0.2c-0.3-0.1,0.6-0.3,0.2-0.2c-0.2-0.1,0.1,0,0.1-0.2
			c1.2-0.4,2.4-0.7,3.5-1.3c0.2-0.2,1.2-0.6,0.6-0.8c-0.2-0.1-0.4-0.2-0.6-0.2c-0.3-0.1-0.5-0.2-0.8-0.3c-0.2-0.1-0.3-0.1-0.6-0.2
			c-0.3-0.2-0.7-0.3-0.9-0.6c-0.1-0.2-0.2-0.4-0.3-0.6c-0.1-0.1-0.1-0.1,0-0.2c-0.1-0.1-0.1-0.5-0.2-0.6c-0.1,0.3-0.1,0,0-0.1
			c-0.2,0.1-0.2,0-0.2-0.2c0,0.1,0-0.3-0.1-0.1c-0.1,0-0.2-0.5-0.1-0.7c0-0.8,0.4-1.6,0.9-2.3c1.1-1.5,2.6-2.7,4.3-3.4
			c0.3-0.1,0.6-0.2,0.9-0.3C324.1,179.8,324.3,179.8,324.3,179.9z M318.4,187.4c-0.1,0,0.3,0.3,0.2,0.2
			C318.4,187.6,318.4,187.6,318.4,187.4C318.3,187.3,318.4,187.5,318.4,187.4z M318.4,187.3C318.6,187.6,318.4,187.5,318.4,187.3
			C318.4,187.3,318.4,187.3,318.4,187.3z M318.6,187.4C318.7,187.9,318.8,187.5,318.6,187.4C318.6,187.4,318.6,187.4,318.6,187.4z
			 M319.1,187.9C319.1,188.1,319.3,188.2,319.1,187.9C319.1,187.9,319.1,187.9,319.1,187.9z M319.3,188.3
			C319.3,188.3,319.3,188.3,319.3,188.3c-0.1,0.1,0.1,0,0,0.1C319.4,188.5,319.4,188.3,319.3,188.3
			C319.3,188.3,319.3,188.3,319.3,188.3C319.3,188.3,319.3,188.3,319.3,188.3z M319.3,188.3C319.3,188.3,319.3,188.3,319.3,188.3
			C319.3,188.3,319.3,188.3,319.3,188.3z M319.4,192.9C319.4,193.1,319.3,193.1,319.4,192.9C319.3,193,319.4,193,319.4,192.9z
			 M319.5,188.5C319.4,188.5,319.6,188.6,319.5,188.5C319.5,188.5,319.5,188.5,319.5,188.5z M319.7,188.6c0.1,0.1,0.2,0.1,0.1,0.1
			c0.1,0.1,0.3,0.2,0.3,0C319.9,188.6,319.8,188.6,319.7,188.6C319.7,188.6,319.6,188.6,319.7,188.6z M320.2,188.9
			C319.9,188.8,320.2,189,320.2,188.9c0.1,0.1,0.3,0.2,0.3,0.2c0,0,0,0,0,0c0,0,0,0,0.1,0c0,0,0,0,0,0c0.1,0,0.2,0.1,0.3,0.1
			c0.1-0.2-0.1-0.1-0.3-0.2c0,0.1-0.3,0.1-0.3-0.1C320.4,188.9,320.1,188.8,320.2,188.9z M320.1,193.3
			C320.1,193.3,320.2,193.3,320.1,193.3C320.2,193.3,320.1,193.3,320.1,193.3z M320.2,193.2C320.2,193.2,320.2,193.2,320.2,193.2
			C320.1,193.2,320.2,193.3,320.2,193.2C320.2,193.3,320.3,193.2,320.2,193.2C320.2,193.2,320.2,193.2,320.2,193.2z M320.2,188.9
			C320.3,188.9,320.1,188.9,320.2,188.9C320.2,188.9,320.2,188.9,320.2,188.9z M320.2,193.2C320.2,193.2,320.2,193.2,320.2,193.2
			C320.2,193.2,320.2,193.2,320.2,193.2z M320.6,189L320.6,189C320.6,189,320.6,189,320.6,189z M320.8,189
			C320.8,189,320.8,189,320.8,189C320.9,189,320.7,189.2,320.8,189z M321.3,189.2c0,0.1,0.2,0.1,0.3,0.2c0.1,0,0.2,0.1,0.3,0.1
			c0.1,0.1,0.1,0,0,0c-0.3-0.1-0.1-0.1,0.2,0c0.1,0.1,0.3,0.1,0.2,0c0-0.1-0.2-0.1-0.2-0.1c-0.1,0-0.3-0.1-0.4-0.1
			C321.5,189,321.3,189.3,321.3,189.2C321.3,189.1,321.3,189.2,321.3,189.2z M321.5,189.5C321.7,189.5,321.5,189.5,321.5,189.5
			C321.4,189.4,321.5,189.5,321.5,189.5z M325.2,184.4C325.2,184.4,325.2,184.4,325.2,184.4C325.2,184.4,325.2,184.4,325.2,184.4z
			 M325.3,183.9C325.3,183.9,325.3,183.9,325.3,183.9C325.3,183.9,325.3,183.9,325.3,183.9z"/>
		<path d="M330.8,179c0.1,0,0.3,0.1,0.4,0.3c0.1,0.2,0.4,0.4,0.3,0.5c0.2,0.1,0.4,0.3,0.4,0.6c0.2,0,0,0.2,0.2,0.3
			c0.1,0.3,0.1,0.7,0.2,1c0,0.1,0.1,0.4,0.1,0.4c0,0-0.3,0.5-0.1,0.3c0.1,0.4-0.1-0.1-0.1,0.2c-0.1,0.3,0.2-0.1,0.1,0.1
			c0,0.2-0.1,0.6-0.2,0.6c-0.2,0.1-0.1,0-0.2,0.2c-0.1,0.1,0,0.2-0.2,0.4c0,0.1-0.1,0.2-0.1,0.2c0-0.2-0.1-0.1-0.2,0
			c0-0.2-0.1-0.1,0-0.2c0.1-0.2-0.2,0.2-0.1-0.1c-0.1,0-0.1,0-0.3-0.1c-0.1,0.1-0.3,0.1-0.2-0.1c-0.1,0.1-0.3,0.1-0.3,0
			c0,0-0.2-0.1-0.1-0.2c-0.1-0.1,0.2-0.1,0-0.2c0.1-0.2,0.1-0.2-0.1-0.2c-0.3-0.3,0.2,0,0-0.1c-0.1-0.1-0.3-0.1-0.3,0
			c0,0-0.4-0.1-0.2-0.2c-0.2,0.1-0.1,0.3-0.3,0.2c-0.2,0.2-0.3,0.4-0.3,0.6c-0.2,0.2-0.1,0.1-0.2,0.3c-0.1,0.1-0.2,0.3-0.3,0.4
			c-0.1,0.2-0.2,0.4-0.3,0.6c0,0.1-0.2,0.4-0.2,0.5c-0.1,0.2-0.1,0.2-0.1,0.3c0,0,0,0,0,0c0,0,0,0,0,0.1c0,0-0.1,0.1-0.1,0.2
			c0,0,0,0.1,0,0.1c0,0.1,0,0.2,0,0.1c0,0.1-0.1,0.2-0.1,0.4c-0.1,0-0.1,0.2-0.1,0.2c0,0.2,0.1,0.6-0.1,0.8c0,0.1,0,0.2-0.1,0.2
			c0.1,0.2-0.1,0-0.1,0.2c0.1,0.1,0,0.2,0,0.2c0.1,0.1,0,0.2,0,0.3c0,0.1,0,0.1,0,0.2c0,0,0,0,0,0c0,0,0,0,0,0c0,0.1,0,0.1,0,0.2
			c0,0.2,0.1,0.2,0,0.4c0,0,0,0,0,0c0,0,0,0,0,0c-0.1,0.1,0,0.1,0,0.1c0,0.1,0.1,0.1,0,0.3c0,0.1,0.1,0.4,0.2,0.4
			c-0.1,0.3,0.1,0.5,0.4,0.2c1-0.6,1.7-1.5,2.5-2.4c0.1-0.1,0.3-0.3,0.1,0c0.2-0.3,0.2-0.1,0.4-0.3c0.1-0.1,0.2,0.1,0.1,0.1
			c0.1,0.1,0.1,0.2,0.3,0.3c0.2-0.2,0.1-0.1,0.2,0.1c-0.2,0.3,0.1-0.1,0.3-0.1c-0.1,0.3,0,0.2,0.1,0.4c0,0,0,0,0-0.1c0,0-0.1,0,0,0
			c0,0,0,0,0,0c0,0,0,0,0-0.1c0,0,0,0,0.1,0c0,0.1,0,0.2,0.1,0.2c0,0,0.3-0.3,0.2-0.1c0.2-0.1,0.1,0.3-0.1,0.4
			c-0.1-0.1,0-0.2-0.1-0.1c0.1,0-0.1,0.2,0.1,0.2c0.3,0.1-0.3,0.1,0,0.2c-0.1,0-0.1,0.1-0.2,0.2c0,0,0,0,0,0c0,0.1-0.1,0.1-0.1,0.1
			c0.2,0-0.1,0-0.2,0.1c-0.2,0.1,0,0.3,0,0.4c-0.1-0.1-0.1,0.1-0.1,0.2c-0.1-0.1,0,0.1-0.1,0.1c-0.1-0.1,0.1-0.1,0.1-0.2
			c0-0.1-0.1-0.2-0.1-0.1c-0.1,0.1-0.3,0.3-0.3,0.5c-0.2-0.1-0.2,0.1-0.2,0.1c0,0-0.1,0-0.1,0.1c0,0.1,0,0.2-0.1,0.3
			c-0.1-0.1-0.2,0.1,0,0.1c-0.1,0.2-0.2-0.1-0.1,0.1c0.1,0,0.1,0.1,0,0.1c-0.2,0.1-0.1-0.1-0.2-0.1c0,0.1,0,0.1-0.2,0.1
			c0,0,0,0.1,0,0.1c0,0,0,0,0,0c0.1,0,0,0.1-0.1,0c-0.1,0.1-0.2,0.1-0.2,0.1c0,0.1-0.4,0.2-0.4,0.3c-0.1,0.1-0.3,0.1-0.5,0.1
			c-0.1-0.3,0,0.1-0.2,0c0-0.1-0.3-0.1-0.4-0.1c-0.2,0-0.5-0.1-0.7-0.1c0.4,0.2-0.2-0.1-0.1,0.1c0.1,0.1,0.3,0,0.3,0.1
			c0.1,0.1,0.5,0.2,0.2,0.2c-0.2,0.1-0.2-0.1-0.5-0.1c-0.1-0.1-0.2-0.1-0.4-0.1c0.3-0.1,0-0.1,0-0.1c-0.3-0.2,0.2,0.1-0.1-0.2
			c-0.3-0.3-0.1,0.2-0.3-0.1c0-0.1-0.3-0.3-0.5-0.3c-0.2,0-0.6-0.4-0.6-0.2c-0.3-0.3-0.6-0.6-0.8-1c-0.1-0.2-0.2-0.4-0.1-0.5
			c0-0.1,0-0.3,0-0.3c0-0.7,0-1.5,0.2-2.2c0.5-2.4,1.6-4.7,3.2-6.7c0.3-0.3,0.5-0.6,0.8-0.8c0.1-0.2,0.3-0.1,0.5-0.3
			c0.1-0.1,0.7-0.1,0.6-0.1c0,0,0,0,0,0C330.5,178.9,330.7,179,330.8,179z M327.3,189.2C327.3,189.2,327.3,189.2,327.3,189.2
			C327.3,189.2,327.3,189.2,327.3,189.2z M327.8,186.5C327.9,186.6,327.6,186.6,327.8,186.5C327.8,186.5,327.8,186.5,327.8,186.5z
			 M327.9,185.9C327.9,185.9,328,185.9,327.9,185.9C328,185.9,328,185.9,327.9,185.9z M329,191.9c0.1,0.1,0,0.1-0.1,0.2
			c-0.2,0-0.2-0.1-0.1-0.2C328.9,192.1,328.9,191.9,329,191.9z M329,192.2c-0.4,0,0.1,0,0.1-0.1C329.3,192.1,329.1,192.1,329,192.2z
			 M328.9,183.5C328.8,183.6,329,183.5,328.9,183.5C328.9,183.5,328.9,183.5,328.9,183.5z M331.5,190.2c0,0.2-0.3,0.2-0.3,0.3
			c-0.2,0.2-0.2,0.2-0.3,0.3c-0.1,0.1-0.3,0.3-0.4,0.4c0,0,0,0,0,0c0,0.1-0.1,0.1-0.1,0.1c0,0.1-0.1,0.1-0.1,0c-0.2,0,0,0.2-0.3,0.2
			c-0.1,0.4-0.1-0.1-0.2,0.2c-0.1,0.1-0.2,0.1-0.3,0.2c0,0,0,0,0,0c0,0,0,0,0,0c0,0-0.1,0-0.1,0.1c-0.2-0.1-0.1-0.2,0.1-0.2
			c0.2-0.2,0.3-0.1,0.5-0.3c0.1,0,0.3-0.3,0.3-0.3c0.1-0.1,0.4-0.3,0.6-0.5c0,0,0.3-0.3,0.4-0.5
			C331.5,190.2,331.5,190.2,331.5,190.2z M329.7,191.4C329.7,191.4,329.7,191.4,329.7,191.4C329.7,191.4,329.7,191.4,329.7,191.4
			C329.6,191.4,329.6,191.4,329.7,191.4C329.6,191.4,329.6,191.4,329.7,191.4z M329.6,191.4C329.7,191.4,329.6,191.4,329.6,191.4
			C329.6,191.4,329.6,191.4,329.6,191.4z M329.8,191.6c-0.3,0.1,0-0.1,0-0.2C329.9,191.4,329.9,191.5,329.8,191.6z M329.7,191.9
			C329.7,191.9,329.7,191.9,329.7,191.9C329.7,191.9,329.7,191.9,329.7,191.9z M330,183C330,183.2,330,183.1,330,183
			C330,183,330,183,330,183z M330.9,187.6c0,0.2,0,0.2,0,0.2c0,0,0.2,0,0,0c0,0,0,0,0,0C331,187.6,331,187.5,330.9,187.6
			C330.9,187.5,330.9,187.5,330.9,187.6z M330.9,187.7C330.9,187.7,330.9,187.7,330.9,187.7C330.9,187.7,330.9,187.7,330.9,187.7z
			 M331.6,183.8C331.6,183.8,331.6,183.8,331.6,183.8C331.6,183.8,331.6,184,331.6,183.8z M331.8,189.9
			C331.6,190,331.6,189.9,331.8,189.9C331.8,189.9,331.8,189.9,331.8,189.9z M331.9,189.7c-0.2,0,0.2-0.2,0.2-0.3
			C332.2,189.5,331.9,189.6,331.9,189.7z M331.9,189.1C331.9,189.1,331.9,189.1,331.9,189.1C331.9,189,331.9,189.1,331.9,189.1z
			 M332.4,188.5C332.5,188.7,332.2,188.5,332.4,188.5C332.4,188.5,332.4,188.5,332.4,188.5C332.5,188.5,332.4,188.6,332.4,188.5z"/>
		<path d="M335.7,178.3c0.1-0.1,0.2,0.1,0.2,0.2c0.1,0.2,0.2,0.3,0.5,0.3c0,0,0,0.2,0.1,0.2c0.2,0,0,0.2,0.1,0.3
			c0.1,0.1,0.2,0,0.2,0.1c-0.1,0.1,0.1,0.3,0.1,0.6c0,0.3-0.2,0.1-0.2,0.3c0.2,0.1,0.1,0.1,0.1,0.2c-0.1,0.2-0.3,0.3-0.1,0.3
			c-0.1,0.2-0.1,0.2-0.1,0c0,0.1-0.1,0.2-0.1,0.3c0,0,0,0,0,0c-0.1,0,0,0,0,0c0,0.2,0,0.3-0.1,0.6c-0.1,0.4,0,0.2-0.2,0.6
			c0,0.1-0.1,0.5-0.1,0.6c0,0-0.1,0.1-0.1,0.3c0.2,0.1-0.1,0-0.1,0.2c0.1,0.3,0,0.1-0.1,0.4c0.9-0.2,1.8-0.4,2.7-0.6
			c0.3-1.4,0.7-2.9,1.1-4.3c0.1-0.3,0.1-0.7,0.3-0.8c0.1-0.2,0.5-0.4,0.5-0.1c0.2,0.2-0.2-0.4,0.1-0.1c0.1-0.2,0,0.3,0.2,0.2
			c0,0.2,0.3,0.2,0.1,0.3c0.1-0.1,0.1,0.1,0.3,0c-0.2,0.2,0.2,0,0.2,0.2c0.2-0.1,0,0,0.2,0.1c0.1,0.3,0.2-0.1,0.2,0.1
			c0,0.2,0.1,0.3,0,0.5c0,0,0.2,0.2,0,0.2c-0.1,0.3,0.3-0.2,0.1,0.2c-0.1-0.2,0,0.1-0.1,0.2c0.1,0.2-0.2,0.1,0,0.2
			c-0.1,0.1-0.2,0.3-0.2,0.4c0,0.1,0.1,0.2,0,0.2c-0.1,0.3,0,0.6-0.1,0.9c-0.2,0.6-0.3,1.2-0.4,1.8c0,0.3-0.2,0.6-0.2,1
			c-0.1,0.1,0,0.2-0.1,0.3c0,0.2,0,0.3,0,0.4c-0.1,0.4-0.1,1-0.2,1.5c0,0.1-0.1,0.5-0.1,0.6c0,0,0,0.1,0,0.2c0,0.2-0.1,0.2,0,0.3
			c-0.1,0.1,0,0.3-0.1,0.5c-0.1,0.3,0,0.6-0.1,0.8c0,0.3,0,0.3,0,0.6c0,0,0,0,0,0c0,0,0,0,0,0c0,0,0,0,0,0.1c0,0.2,0,0.3,0,0.4
			c0,0.3-0.2,0.2-0.1,0c0-0.4-0.1,0.3-0.1-0.1c0-0.2-0.2-0.1-0.2,0c0.1-0.1-0.1,0-0.1,0c0,0,0,0.1-0.1,0.2c0.1-0.3-0.2,0-0.4-0.1
			c-0.2,0.2-0.1-0.1-0.3,0.1c0,0-0.1-0.3-0.1-0.2c-0.2,0.2-0.1-0.2-0.2-0.1c-0.1,0,0,0.3-0.2,0.2c0,0.3-0.1,0.2-0.2,0.1
			c0-0.1-0.1-0.2-0.1-0.2c0,0-0.1,0,0,0c0,0-0.1,0,0-0.1c0.1-1.4,0.3-2.8,0.4-4.1c-0.2,0-0.5,0.1-0.6,0.1c-0.1,0-0.4,0.1-0.6,0.2
			c-0.2,0.1-0.4,0-0.5,0.1c-0.1,0-0.4,0.2-0.5,0.2c-0.1-0.1-0.2,0.1-0.3,0.1c0,0.2-0.1,0.4-0.1,0.6c-0.1,0.2-0.1,0.4-0.1,0.6
			c0,0.3-0.1,0.9-0.1,1.1c-0.1,0,0.1,0.2,0,0.2c0,0.1,0,0.1,0,0.3c0,0,0,0,0,0c0,0,0,0,0,0.1c-0.1,0.2,0.1,0.2,0,0.3
			c0,0,0.1,0.4,0,0.3c0,0.3,0,0.3,0,0.6c-0.1,0,0,0.6-0.1,0.4c-0.1-0.2-0.2,0.1-0.2-0.3c-0.1,0.1-0.2,0-0.2,0.1
			c-0.2-0.1,0,0.4-0.2,0.1c0.1-0.1-0.1-0.1-0.2-0.1c-0.1-0.2-0.4,0.1-0.3-0.1c0,0-0.1,0-0.1-0.1c0,0-0.2,0.1,0,0c0,0,0,0,0,0
			c-0.1-0.1-0.1-0.1-0.2-0.2c0,0,0,0,0,0c0,0,0,0,0,0c0,0.1,0,0.3-0.1,0.1c-0.1,0,0-0.1-0.1,0c-0.1-0.1-0.2,0.1-0.2,0.1
			c-0.1-0.1-0.1-0.1-0.3-0.2c0-0.3-0.1-0.1-0.1-0.3c0.1,0-0.1-0.3,0-0.6c0.2-3.4,0.9-6.9,2-10.3c0.1-0.3,0.2-0.8,0.3-0.8
			c0.1-0.4,0.1-0.1,0.3-0.2C335.6,178.2,335.6,178.4,335.7,178.3C335.8,178.2,335.6,178.3,335.7,178.3z M340.2,189.8L340.2,189.8
			C340.2,189.8,340.2,189.8,340.2,189.8z"/>
		<path d="M345,177.1c0.1,0,0.2,0,0.3,0.1c0.1,0.1,0.3,0,0.3,0.2c0,0,0.3,0.3,0.2,0.2c0-0.1,0.1,0.1,0.1,0.1c0,0.2,0,0.4,0.1,0.5
			c0,0.1-0.1,0-0.2,0.2c0,0.3-0.1,0.2,0.1,0.3c-0.1,0.1,0,0.2-0.1,0.2c-0.1,0.2,0.1,0.3,0,0.4c0.1,0.2-0.1,0.3-0.1,0.4
			c0.1,0,0.1,0.1,0.1,0.3c-0.1,0.4-0.1,0.1-0.2,0.3c0.1,0,0,0.2,0,0.3c-0.1,0.1,0,0.3-0.1,0.4c0,0.2-0.1,0-0.1,0.4
			c0,0.1-0.1,0.3-0.1,0.4c-0.1,0.2,0.1,0,0,0.2c0,0.1,0,0.2-0.1,0.5c0,0.1,0,0.1,0,0.1c0,0,0,0,0,0c0,0,0,0,0,0
			c-0.1,0.1,0,0.3-0.1,0.4c0,0.3-0.1,0.6-0.2,0.9c0.1,0-0.1,0.4-0.1,0.5c0,0.4-0.1,0.8-0.2,1.2c-0.1,0.3-0.1,0.7-0.1,0.9
			c0,0.1-0.1,0.4-0.1,0.6c0.8-0.1,1.7-0.3,2.5-0.2c0.1,0.1,0.2,0.1,0.4,0.1c0.1,0.1,0.3,0.2,0.1,0.2c0.1,0.1,0.1,0.5,0,0.1
			c-0.1,0-0.1,0-0.1,0.1c0,0,0,0,0,0c0,0.1,0,0.1,0.1,0.1c-0.1,0.2-0.3-0.1-0.1,0.2c-0.2,0.1-0.1,0.1-0.2,0.2
			c-0.1,0.2,0.2,0,0.3,0.2c-0.1,0.1-0.6,0.1-0.2,0.3c-0.2,0.2,0.1,0.2-0.2,0.3c0.1,0,0.1,0.1,0,0.2c-0.1,0,0,0.2,0,0.3
			c-0.1,0.3-0.3-0.2-0.2,0.2c0.1,0.2-0.3,0-0.3,0c0,0.1,0.1,0.3,0,0.1c-0.2,0.1-0.2,0-0.3,0.1c-0.1-0.1-0.3,0-0.2,0
			c0-0.1-0.3,0.1-0.3,0c-0.1,0-0.3,0.1-0.3,0c0,0-0.3,0.1-0.4,0.1c0-0.1-0.2,0.1-0.2-0.1c-0.1,0.2-0.3,0.1-0.5,0.2
			c-0.1-0.1-0.2,0-0.3,0c0,0,0,0,0,0c0,0-0.1,0-0.1,0.1c-0.1,0-0.1,0-0.2,0c0,0,0,0,0,0c0,0-0.1,0-0.1,0c0,0-0.1,0,0,0
			c-0.1,0-0.1,0-0.1,0c0,0,0,0,0,0c0,0,0,0,0,0c0,0,0,0-0.1,0c0,0.1-0.3,0.1-0.5,0.1c0.2,0-0.1,0.1-0.2,0.1c0,0-0.1,0-0.2,0.1
			c0.1,0,0.1,0,0.2,0c0,0,0,0,0,0c0,0.1,0,0.1-0.2,0.1c0.1,0.1-0.2,0-0.1,0.1c-0.1,0.1-0.2-0.1-0.3,0c-0.1,0.1-0.1,0.1-0.2,0.1
			c0,0,0,0,0,0c0,0,0,0,0,0c-0.1,0-0.1,0-0.2,0.1c-0.3,0.1,0-0.1,0-0.1c0,0,0-0.1,0-0.1c0,0,0,0,0,0.1c0,0,0,0,0,0c0,0.1,0,0-0.1,0
			c0.4-0.1-0.2-0.1,0-0.2c0-0.1,0.1-0.2,0-0.3c0.1,0.2-0.2,0-0.1,0c0.1-0.1-0.2-0.1,0.1-0.1c-0.1-0.1-0.2-0.2-0.1-0.4
			c0,0.1-0.3,0.2-0.2,0c0.1,0,0.1-0.5,0.1-0.3c0.2,0,0-0.2,0-0.2c0.1-0.1,0-0.3,0-0.3c0.1-0.1,0.2,0.2,0.2-0.1
			c-0.1,0-0.1-0.2-0.3-0.2c-0.1-0.1-0.1-0.2,0.1-0.3c0.3-0.4,0.7-0.1,0.7-0.7c0.4-2.9,1.1-5.8,1.8-8.7c0.1-0.4,0.3-0.8,0.3-1.1
			c-0.2-0.1-0.1-0.2-0.1-0.3c0.2-0.1,0.4-0.2,0.6-0.2C344.6,176.9,344.8,177,345,177.1z M341.2,190.3
			C341.3,190.6,340.9,190.4,341.2,190.3C341.2,190.3,341.3,190.3,341.2,190.3z M341.4,190.3C341.4,190.3,341.4,190.3,341.4,190.3
			C341.4,190.3,341.4,190.3,341.4,190.3z M341.6,190.4C341.6,190.4,341.6,190.4,341.6,190.4C341.6,190.4,341.6,190.4,341.6,190.4z
			 M341.6,190.1C341.6,190.2,341.7,190.1,341.6,190.1C341.6,190.1,341.6,190.1,341.6,190.1z M341.9,190
			C341.4,190.1,342.1,190,341.9,190C342,190,342,190,341.9,190z M342.4,190C342.4,190,342.4,190,342.4,190
			C342.4,190,342.4,190,342.4,190z M342.5,190c-0.1,0.2-0.1,0-0.1,0C342.5,190,342.5,190,342.5,190z M342.5,190
			C342.6,190,342.6,190,342.5,190C342.5,190,342.5,190,342.5,190z M343,189.6C342.9,189.7,343.2,189.6,343,189.6
			C343,189.6,343,189.6,343,189.6z M343.2,189.8C343.2,189.8,343.2,189.8,343.2,189.8C343.2,189.8,343.2,189.8,343.2,189.8z
			 M343.4,189.8L343.4,189.8C343.5,189.8,343.4,189.8,343.4,189.8z M344.5,189.3c0.1,0,0.4-0.1,0.4-0.1c-0.1,0-0.3,0-0.4,0
			C344.2,189.2,344.1,189.3,344.5,189.3z M345.3,189.2C345,189.4,345.5,189.2,345.3,189.2C345.3,189.2,345.3,189.2,345.3,189.2z
			 M345.6,189.2C345.7,189.3,346,189.2,345.6,189.2C345.6,189.2,345.6,189.2,345.6,189.2C345.6,189.2,345.6,189.2,345.6,189.2z
			 M345.8,180C345.8,180,345.7,180,345.8,180C345.8,180,345.8,180,345.8,180c0,0,0-0.1,0.1-0.2C345.8,179.8,345.8,179.9,345.8,180z
			 M346.6,189C346.6,189,346.6,189,346.6,189C346.5,189,346.4,189.2,346.6,189z"/>
		<path d="M353.3,176.3c0.1,0.1,0.3,0.3,0.5,0.4c0.1,0.1,0.2,0,0.3,0.1c0.1,0.2,0.4,0.2,0.4,0.4c0.2,0.2,0.3,0.4,0.3,0.6
			c0,0.4,0.2,0.3,0.2,0.7c-0.1,0-0.1,0.1-0.1,0.2c0.1-0.2,0.2,0.3,0,0.2c-0.1,0.5,0,0.9,0,1.4c-0.1,0.1,0.2,0,0,0.2
			c-0.1,0.1,0,0.1,0,0.2c0,0,0-0.1,0-0.1c0,0,0,0,0,0c0-0.1,0.1-0.1,0.1,0.2c-0.1,0-0.2,0.4-0.1,0.4c0.1,0.2,0,0.4,0,0.7
			c0.1,0.1-0.1,0.4,0.1,0.3c0,0.2,0,0.2-0.1,0.1c0,0,0,0,0,0c0,0,0,0,0,0.1c0,0.3,0.2,0.3,0,0.5c0.1,0.1-0.2,0.4,0,0.6
			c0,0.2-0.2,0-0.1,0.2c0.1-0.1,0.1,0.1,0.3,0.1c-0.1,0.1-0.2,0.1-0.2,0.2c0.2,0,0.2,0.2,0,0.3c0,0.1,0.4-0.1,0.2,0.1
			c-0.2-0.1-0.1,0.2-0.2,0.1c-0.1-0.1-0.1,0.1-0.1,0.1c-0.1,0.1,0.4-0.1,0.2,0c-0.2,0,0.1,0.2-0.1,0.1c-0.1,0.1,0,0-0.1,0.3
			c-0.1-0.1-0.1,0.1-0.1,0.2c-0.1,0,0.1,0.3-0.1,0.3c0,0.2,0,0.2,0,0.5c-0.1,0.2,0,0.4-0.1,0.6c0.2,0.1,0,0.1,0.1,0.2
			c-0.1,0-0.1,0.4-0.1,0.4c0.2,0.1-0.1,0.1,0,0.2c-0.1,0.1,0,0.4-0.1,0.5c0.1,0.2,0,0.3,0.1,0.5c0,0.3-0.4-0.2-0.3,0
			c-0.1,0-0.1,0.1-0.1,0.1c-0.1,0-0.3,0.1-0.3,0c0.1,0-0.2-0.1-0.2-0.1c0,0.3-0.2-0.2-0.2-0.1c-0.1,0.3-0.2-0.2-0.4-0.1
			c0.1-0.2-0.2-0.3-0.1-0.1c-0.1,0.2-0.4-0.1-0.3,0.1c-0.1,0.4-0.1-0.1-0.2,0c0,0.1-0.2-0.1-0.2,0.1c-0.2,0,0.3-0.3-0.1-0.2
			c0.1-0.6,0.1-1.1,0.1-1.7c-0.1-0.3,0.2-1.1-0.2-1c-0.4-0.2,0.4,0,0.3-0.3c0.1-0.1,0-0.3-0.3-0.1c0.2,0.1-0.1,0.2,0,0
			c-0.1,0-0.3,0.1-0.4,0.1c-0.2,0-0.2,0.2,0,0.1c0.2,0.1-0.3,0.2-0.2,0.2c0.1,0,0,0.1,0.1,0.1c-0.2,0-0.6,0.2-0.6,0.1
			c-0.2,0.2-0.1,0-0.3,0.1c-0.2,0.2-0.4,0-0.5,0.1c-0.1-0.2-0.3,0.1-0.4-0.1c0,0.1,0,0.3,0,0.1c-0.1,0.1-0.1,0.3,0.1,0.1
			c0.2,0,0.1,0.4-0.1,0.3c-0.1,0.1,0,0.3-0.1,0.2c-0.1-0.3-0.3,0.5-0.2,0.4c0.1,0,0.1,0.3,0,0.2c0-0.2-0.4,1-0.4,1.1
			c0-0.2-0.2,0.1,0,0.1c-0.1,0.2-0.1,0.3-0.1,0.1c-0.1,0.1-0.1,0.3-0.1,0.3c0,0,0,0.1,0,0.1c0,0.1-0.1,0.1-0.1,0.1
			c-0.3-0.1,0.2,0.2,0,0.1c0.1,0.2-0.3-0.1-0.2,0c-0.1-0.2-0.3,0.5-0.2,0c0.1-0.1-0.2-0.3-0.1-0.1c0,0.1,0,0.2-0.1,0.1
			c0,0,0.1,0,0,0c0,0,0,0,0,0c0,0-0.1-0.1,0-0.2c-0.3,0.1,0.1,0,0,0.2c0-0.1-0.2,0.1-0.2-0.1c0.2-0.1-0.2-0.2-0.2,0
			c0.2-0.2,0.1,0.2,0,0.1c0-0.2-0.2-0.1-0.1-0.1c-0.1-0.4-0.2,0.3-0.2-0.1c0.1,0,0.1-0.3-0.1-0.2c-0.2,0.1,0-0.2-0.1-0.2
			c-0.1,0-0.2,0.1-0.3,0.1c0,0.1-0.2,0.1-0.2,0.1c0.1-0.3-0.3,0.2,0-0.1c0-0.1,0-0.3,0-0.3c0.1-0.2,0.1-0.1,0.1-0.3
			c0-0.1,0.1-0.2,0-0.3c0.9-3.3,2.6-7.4,4-9.4c0.5-0.8,1.1-1.6,2-2c-0.1,0.1,0.1,0,0.1,0c0,0,0.1-0.1,0.1-0.1
			C353.1,176.1,353.3,176.2,353.3,176.3z M348,188.9C348,188.9,348.1,188.9,348,188.9C348,189,348,189,348,188.9z M349.5,187.1
			C349.6,187.4,349.4,187.2,349.5,187.1C349.5,187.1,349.4,187.1,349.5,187.1z M350,185.7c0.2,0.2-0.1,0,0,0.1
			C349.8,185.9,349.8,185.8,350,185.7C349.9,185.7,350,185.7,350,185.7z M351.1,185.4C351.1,185.4,351.1,185.4,351.1,185.4
			c-0.3,0.1-0.5,0.1-0.8,0.2c-0.4,0,0,0.2,0.1,0.1c0.1,0,0.4,0,0.4-0.1C350.9,185.5,351.3,185.5,351.1,185.4
			C351.1,185.4,351.1,185.4,351.1,185.4z M350.6,185.7C350.7,185.8,350.3,185.8,350.6,185.7C350.6,185.7,350.6,185.7,350.6,185.7z
			 M352.7,179.5c-0.1,0.1-0.1,0.4-0.2,0.4c0,0.2-0.4,0.2-0.2,0.3c0.1,0-0.3,0.4-0.3,0.3c0.1-0.1,0,0,0.1-0.2c-0.1,0.1-0.2,0-0.2,0.1
			c0,0,0,0,0,0c0,0,0,0,0,0c0,0-0.1,0.1-0.1,0.1c0,0,0,0,0,0c0,0,0,0,0,0.1c0,0,0,0.1-0.1,0c0,0.1,0.1,0,0,0.2
			c-0.3,0.2,0.1,0,0.1,0.1c0,0-0.1,0.3-0.1,0.2c0.2-0.2-0.1-0.1-0.1,0.1c-0.1,0.1-0.1,0.2-0.2,0.2c0,0.2-0.1,0.2-0.2,0.4
			c-0.1,0.3,0.1,0,0.2-0.1c0.1-0.1,0.1-0.4,0.3-0.3c0,0-0.1,0.2-0.1,0.4c-0.1,0.1-0.1,0.1-0.2,0.4c-0.2,0.1,0,0.4-0.2,0.4
			c0-0.2,0-0.1-0.1,0.1c-0.2,0-0.3,0.3-0.1,0.3c0,0,0,0.1,0,0.1c0.2,0.1,1.2-0.1,1.7-0.2c0.1-0.8,0.1-1.5,0.2-2.3c0-0.4,0.2-0.9,0-1
			C352.8,179.4,352.8,179.5,352.7,179.5z M351,182.4c0.1,0.1,0.1-0.1,0.2-0.3c-0.1,0,0.1,0,0-0.1C351.1,182.1,351,182.3,351,182.4z
			 M351.1,182.5C351.2,182.7,351,182.7,351.1,182.5C351,182.5,351.1,182.5,351.1,182.5z M352,185.4c0,0-0.1,0-0.1,0.1
			C351.5,185.4,351.7,185.4,352,185.4C351.9,185.4,351.9,185.4,352,185.4z M351.8,185.3c0-0.2-0.2,0,0.1-0.2
			C352,185.1,351.9,185.3,351.8,185.3z M351.9,180.5C351.9,180.5,351.9,180.4,351.9,180.5C351.9,180.5,351.9,180.5,351.9,180.5z
			 M352,180.3C352,180.3,352,180.3,352,180.3C352,180.3,352,180.3,352,180.3z M352.1,180.4C352.1,180.4,352.1,180.4,352.1,180.4
			C352.2,180.4,352,180.6,352.1,180.4z M352.8,179.1c-0.1,0.1-0.1,0.2-0.2,0.3c0,0.1-0.3,0.4-0.2,0.3c0.1,0.1,0.3-0.3,0.2-0.3
			C352.7,179.4,352.8,179.3,352.8,179.1C352.8,179.3,352.9,179.3,352.8,179.1C352.8,179.2,352.8,179.2,352.8,179.1
			c0.1,0,0.1-0.1,0.1-0.1C352.8,179.1,352.8,179.1,352.8,179.1z M352.7,179.1C352.5,179.3,352.8,179.1,352.7,179.1
			C352.7,179,352.6,179.1,352.7,179.1z M352.8,179.2C352.8,179.2,352.8,179.2,352.8,179.2C352.8,179.2,352.8,179.2,352.8,179.2z
			 M354.1,188.5C354.2,188.6,354.1,188.6,354.1,188.5C354.1,188.5,354.1,188.5,354.1,188.5z M354.9,181.9
			C354.9,181.9,354.9,181.9,354.9,181.9C354.8,182,355,182,354.9,181.9z"/>
		<path d="M358,175.8c0-0.2,0.1,0.2,0.2,0c0-0.2,0.3,0.1,0.3,0.2c0.2-0.2,0.2,0.2,0.3,0.2c-0.1,0.2,0.3-0.2,0.3-0.1
			c0.2,0.1-0.1,0.1,0.1,0.2c0.1-0.2,0.2-0.1,0.3,0.1c0.1-0.1,0.1-0.1,0.2-0.1c0,0,0,0,0,0c0,0,0,0,0,0c0.1,0.1,0.1,0.2,0.2,0.3
			c0.1,0.2,0.1,0.5,0.2,0.6c0,0,0,0,0,0c0,0,0,0,0,0c0,0,0,0,0,0.1c0,0.2,0.1,0.1,0.1,0.3c0,0.1,0,0.1,0,0.2c0.1,0.1,0,0.1,0,0.1
			c0,0.2-0.1,0.4,0.1,0.5c-0.1,0-0.2,0.2,0,0.4c0,0,0.2,0.1,0.1,0.3c-0.2,0.1,0,0,0.1,0.2c-0.1,0.1,0,0.2,0,0.4
			c0.1,0.6,0.1,1.4,0.3,2c0,0.4,0.1,0.4,0.1,0.1c0.3-1.9,0.8-3.7,1.4-5.5c0.1-0.3,0.2-0.7,0.4-0.9c0,0.2,0.1-0.1,0.3,0
			c0.1,0.3,0.1-0.1,0.2,0.1c0-0.1,0.2-0.1,0.2,0.1c-0.1,0,0,0.2,0.1,0.3c0,0,0.1,0.2,0.2,0.2c0,0.3,0.3,0.1,0.3,0.2
			c0.2,0.1,0.2,0.4,0.2,0.4c0.1-0.2,0.1,0.3,0.1,0.2c-0.1,0.3,0.2,0,0,0.3c-0.1,0.3,0,0.4,0,0.5c0,0.1-0.1,0.2-0.1,0.2
			c0,0,0.2,0.2,0,0.3c-0.1,0.1-0.1,0.2,0,0.3c-0.2,0.1,0,0.3-0.1,0.4c0.1,0,0,0-0.1,0.1c0.2,0.2-0.2,0.2-0.1,0.5
			c0,0.1-0.1,0.1,0,0.3c-0.1,0.2-0.1,0.4-0.1,0.6c0.1,0.3-0.1,0.3,0,0.5c0.1,0.2,0,0.1-0.1,0.2c0,0,0,0,0,0c0,0,0,0.1,0,0
			c0,0,0,0,0,0c0,0,0,0,0,0c-0.1,0.1,0,0,0,0.2c-0.1,0,0.1,0.1,0,0.2c0,0.1-0.1,0.2,0,0.2c-0.1,0.7-0.2,1.3-0.3,2
			c-0.1,0.4-0.1,0.8-0.1,1.2c0,0,0,0,0,0c0,0,0,0,0,0c0,0,0,0.1,0,0.1c0,0.1,0,0.4,0,0.5c0,0.1,0,0.6-0.1,0.8c0,0.1,0,0.3,0,0.4
			c0.1,0.1-0.1,0.1,0.1,0.2c-0.1,0.1-0.1,0.3-0.1,0.3c0.1,0,0.2,0.4,0,0.1c-0.2,0.2-0.1-0.2-0.3-0.3c-0.1,0.2-0.1,0-0.1,0.1
			c0,0.3-0.1-0.2-0.2,0c0.2,0.2,0.1,0.4,0,0c-0.3,0,0-0.1-0.1-0.1c-0.2,0-0.3,0.3-0.3,0.1c-0.1,0.1-0.2-0.1-0.3-0.1
			c-0.1-0.1-0.2,0-0.3-0.2c0,0.2-0.3,0.3-0.3,0.4c0-0.1-0.3-0.1-0.4-0.4c-0.1,0-0.7,0-0.9-0.4c-0.7-1-1-2.3-1.3-3.6
			c-0.1,0.1-0.1,0.7-0.1,0.9c0,0.2,0,0.3-0.1,0.5c0,0.1,0,0.2,0,0.3c0,0.1-0.1,0.3,0,0.5c-0.1,0.1,0.1,0.1-0.1,0.3
			c0,0.1,0,0.5,0,0.5c0,0.2,0,0.6,0,0.7c0,0.2,0,0.5,0,0.6c0.3,0.2-0.2,0.4,0,0.4c-0.1,0.2,0.2,0.2,0,0.3c-0.1,0.3-0.2-0.3-0.2,0.1
			c-0.1-0.2-0.2-0.1-0.1,0.1c0.1,0.1-0.3,0.1-0.1,0c-0.1-0.3-0.1,0.2-0.2-0.1c-0.1-0.1,0,0.2-0.2,0c-0.1,0.2-0.2-0.1-0.2,0.1
			c0,0,0,0,0,0c0,0,0,0,0,0c-0.1-0.1-0.1,0-0.2,0c0,0,0,0,0,0c0,0,0,0,0,0c0,0-0.1,0-0.1-0.1c0-0.2-0.2-0.3-0.2,0
			c-0.3,0.1-0.3,0-0.6,0.1c0-0.1,0-0.4-0.1-0.5c0-3.5,0.5-7.1,1.4-10.6c0.2-0.5,0.2-1.1,0.5-1.5c0-0.4,0.1,0,0.2-0.2
			c0.1,0,0.2-0.1,0.3-0.1C357.8,175.7,358.1,175.9,358,175.8z M356.4,188.5C356.4,188.5,356.4,188.5,356.4,188.5
			C356.4,188.5,356.4,188.5,356.4,188.5z M356.6,188.5C356.6,188.5,356.6,188.5,356.6,188.5C356.6,188.5,356.6,188.5,356.6,188.5z
			 M357.9,188.9c-0.1,0.1-0.3-0.3-0.2-0.3C357.7,188.7,357.9,188.7,357.9,188.9z M358,185.1C358,185.1,358,185.1,358,185.1
			C358,185,358.1,185,358,185.1z M362.7,187.9C362.7,187.9,362.8,187.9,362.7,187.9C362.8,187.9,362.8,187.9,362.7,187.9
			c0.1,0.1-0.1,0.1-0.1-0.1C362.7,187.8,362.7,187.8,362.7,187.9z M362.8,185.1C362.8,185.1,362.8,185.1,362.8,185.1
			C362.8,185.1,362.8,185.1,362.8,185.1z"/>
		<path d="M370.2,175.4c0.4,0.1,0.6,0.4,0.9,0.5c0.2,0.2,0.3,0.4,0.4,0.5c0.1,0.1,0,0.2,0.1,0.2c0,0.2,0.3,0.3,0.2,0.4
			c0,0.2,0.2,0.6,0.2,0.5c0,0,0,0.1,0.1,0.1c-0.1,0,0,0,0,0c0,0.1,0.1,0.2,0.1,0.3c0.1,0.3,0.2,0.6,0.2,0.8c0,0.3,0.2,0.6,0.1,0.8
			c0,0.2-0.1,0.6-0.1,0.8c-0.1,0.4-0.1,0.4-0.2,0.8c-0.1,0.2-0.1,0.4-0.2,0.7c0,0,0-0.3-0.1,0.1c0.1,0.1,0.1,0.3-0.1,0.4
			c-0.1,0.1-0.3,0.4-0.1,0.2c0,0.2-0.3,0.5-0.2,0.3c0-0.1-0.3,0.3-0.1,0.3c-0.2,0.1-0.1,0.4-0.2,0.3c-0.2,0.1,0,0.3-0.1,0.2
			c0,0.1-0.1,0-0.1,0.1c-0.1,0-0.1,0.1,0,0.1c0,0,0,0,0,0c0,0,0,0,0,0c0,0,0,0,0,0c-0.1,0.1-0.1,0.1-0.2,0.3c0,0.1,0.2-0.2,0.1,0
			c-0.2,0.3-0.3,0.6-0.5,0.8c-0.1,0.2-0.2,0.3-0.3,0.5c0.1,0.1,0,0-0.2,0.3c-0.1,0-0.2,0.2-0.3,0.4c0,0,0,0,0,0c0,0,0,0,0,0
			c0,0,0,0.1-0.1,0.1c0,0,0,0.1-0.1,0.2c-0.2,0.2-0.4,0.4-0.6,0.6c-0.1,0.1-0.1,0.1-0.2,0.2c-0.1,0.1-0.1,0.1-0.2,0.2
			c-0.1,0.2-0.4,0.3-0.5,0.4c-0.2,0.1-0.4,0.2-0.7,0.3c-0.1,0-0.3,0.2-0.3,0c-0.3,0,0.4-0.1,0.5-0.2c0.2-0.1,0.3-0.3,0.1-0.3
			c-0.3-0.1-0.2,0.1-0.2,0.2c-0.1,0-0.1-0.2-0.2-0.1c-0.1,0-0.4,0.2-0.3,0.1c-0.2,0-0.3,0.1-0.4-0.1c-0.2,0.1-0.4,0-0.5-0.2
			c-0.2-0.1-0.6-0.1-0.6-0.4c0-0.2-0.2-0.1-0.4-0.2c-0.3-0.1-0.2-0.3-0.4-0.3c0.1-0.2,0.1-0.8,0.2-1.2c0.2-1.9,0.6-3.8,1-5.6
			c-0.1,0,0.2-0.4,0.1-0.4c-0.1,0-0.3,0.1-0.3,0c-0.2-0.1,0.1-0.2,0-0.3c-0.3,0,0-0.4-0.2-0.4c-0.2,0-0.1-0.2-0.3-0.2
			c0-0.2,0-0.2-0.1-0.3c-0.1-0.1,0.2-0.2,0-0.2c0-0.2-0.3-0.1-0.4-0.3c-0.3-0.2,0-0.4,0.1-0.4c0.2-0.3,0.5-0.6,0.9-0.9
			c1-0.7,2.1-1.1,3.3-1.2C369.1,175.1,369.6,175.2,370.2,175.4z M365,178.8C365.1,179,365.3,178.9,365,178.8
			C365,178.8,365,178.8,365,178.8z M366.5,188.1c-0.1,0.1-0.1,0.2-0.1,0.1c-0.1,0-0.2,0.1-0.2-0.2
			C366.2,188,366.4,187.9,366.5,188.1z M368.1,177.7c-0.2,0-0.1,0.1,0,0.1c0,0,0,0,0,0c-0.1,0.1,0,0,0,0c0,0,0,0-0.1,0.1
			c-0.1,0.1,0.2,0.2-0.1,0.3c-0.1-0.2-0.1,0.3-0.1,0.4c-0.1,0.1,0,0.4,0,0.4c0.1,0.1-0.1,0.3-0.1,0.6c-0.1,0.1-0.2,0.7-0.1,0.5
			c-0.1,0.2-0.2,0.5-0.2,0.7c0,0.3-0.2,0.7-0.1,0.9c0,0.2,0,0.4-0.2,0.5c0,0.1-0.1,0.3-0.1,0.3c0.2-0.2-0.1,0.1,0.1,0.1
			c0,0,0,0,0,0.1c0,0,0,0,0,0c-0.1,0,0,0,0,0c0,0.1-0.1,0.1-0.1,0.3c0,0.2,0,0.4-0.1,0.6c-0.1,0.2-0.1,0.4-0.1,0.5
			c0,0.1,0.1,0.4-0.1,0.2c0,0.2-0.1,0.7-0.1,0.7c0,0.1,0.2,0,0.3-0.2c1.3-1.6,2.6-3.3,3.4-5.1c0.1-0.3,0.5-1.1,0.3-1.3
			c0.1,0,0.1-0.1,0-0.1c-0.3,0,0.2-0.1-0.1-0.2c-0.2-0.1-0.3-0.2-0.5-0.1c-0.2-0.1-0.2,0-0.4-0.1c-0.2,0-0.5,0.1-0.6,0
			c-0.3,0.1-0.3,0-0.5,0c-0.2,0.1-0.2,0.1-0.4,0.1C367.8,178,368.4,177.7,368.1,177.7C368.1,177.7,368.1,177.7,368.1,177.7z
			 M367,184.5C367,184.6,366.9,184.5,367,184.5C367,184.5,367,184.5,367,184.5z M367.2,187.6C367.3,187.6,367.1,187.7,367.2,187.6
			C367.2,187.6,367.2,187.6,367.2,187.6C367.2,187.6,367.2,187.6,367.2,187.6C367.3,187.6,367.3,187.6,367.2,187.6z M367.2,182.6
			C367.2,182.5,367.3,182.5,367.2,182.6C367.3,182.6,367.3,182.6,367.2,182.6z M367.6,187.5c-0.1,0.3,0.2-0.1,0.2-0.1
			C367.7,187.4,367.7,187.4,367.6,187.5z M368.1,177.8C368.1,177.8,368.1,177.8,368.1,177.8L368.1,177.8z M368.2,177.6
			C368.3,177.7,368.4,177.6,368.2,177.6C368.3,177.6,368.2,177.6,368.2,177.6z M368.5,177.4C368.2,177.5,368.2,177.6,368.5,177.4
			C368.4,177.6,368.7,177.5,368.5,177.4C368.5,177.4,368.4,177.5,368.5,177.4z M369,177.5c-0.1,0.1-0.4-0.1-0.5,0.1
			c0,0.2,0.3,0,0.5,0c0.2-0.1,0.2,0,0.4,0c0.2-0.2-0.1-0.1-0.1-0.2C369.2,177.5,369,177.5,369,177.5z M369,177.3
			C368.9,177.3,368.9,177.4,369,177.3C368.9,177.4,368.9,177.4,369,177.3c-0.2,0.1-0.4,0-0.2,0.2c0.1-0.2,0.2,0,0.3,0
			c0.2,0,0.1-0.1,0.2,0c0,0,0,0,0,0c0,0,0,0,0,0C369.2,177.4,369.1,177.4,369,177.3C369,177.3,369,177.4,369,177.3z M369.5,177.5
			C369.5,177.8,369.6,177.5,369.5,177.5c0,0,0.1-0.2-0.2-0.1C369.2,177.3,369.4,177.5,369.5,177.5z M369.3,186
			C369.3,186,369.3,186,369.3,186C369.3,186,369.3,186.1,369.3,186z M369.3,177.7C369.3,177.8,369.6,177.7,369.3,177.7
			C369.4,177.7,369.4,177.7,369.3,177.7z M369.8,177.6c0.2,0.1,0.4,0.1,0.7,0.3c0.2,0,0.1-0.1,0.2,0.1c0.1,0,0.3,0.1,0.2,0
			c0-0.2-0.1-0.2-0.3-0.3c-0.2-0.1-0.2,0-0.4-0.1c0,0.2-0.3,0.1-0.5,0C369.6,177.6,369.8,177.8,369.8,177.6z M370.4,178
			C370.8,178.1,370.2,178.1,370.4,178C370.4,177.9,370.4,177.9,370.4,178z M370.8,183.8C370.8,183.8,370.8,183.8,370.8,183.8
			C370.8,183.8,370.8,183.8,370.8,183.8z M370.9,183.7C370.9,183.6,370.9,183.6,370.9,183.7C370.9,183.6,371,183.6,370.9,183.7z
			 M371.9,177.5C371.9,177.5,371.9,177.5,371.9,177.5C371.9,177.5,371.9,177.5,371.9,177.5z"/>
	</g>
</g>
<image style="overflow:visible;opacity:0.25;enable-background:new    ;" width="2146" height="1192" xlink:href="41FBDE817C7A4C8C.png"  transform="matrix(0.2501 0 0 0.2501 -58.6203 1.7933)">
</image>
<path class="st0" d="M311.7,106c-2.1-2.4-4.2-4.7-6.3-7c-0.4-0.4-1-0.6-1.7-0.5c-4.9,0.8-9.8,1.6-14.7,2.5
	c-4.9,0.9-9.8,1.8-14.7,2.8c-0.7,0.1-1.5,0.6-2,1.2c-0.6,0.6-1,1.3-1.2,2.1c-1.9,9.3-3.8,18.6-5.7,27.9s-3.8,18.6-5.7,27.9
	c-0.1,0.7,0,1.3,0.4,1.8c0,0,0,0,0,0c0,0,6,6.4,6.3,6.8c0.4,0.4,1,0.6,1.7,0.4c4.9-1,9.8-1.9,14.7-2.8c4.9-0.9,9.8-1.8,14.7-2.6
	c0.7-0.1,1.5-0.5,2-1.1s1-1.3,1.2-2.1c0.4-1.8,0.8-3.7,1.1-5.5c0.4-1.8,0.8-3.7,1.1-5.5c0.2-0.8,0-1.4-0.4-1.8
	c-0.3-0.3-3.2-3.5-5-5.5c0.4-0.2,0.8-0.5,1.1-0.8c0.6-0.6,1-1.3,1.2-2.1c0.4-1.8,0.8-3.7,1.1-5.5c0.4-1.8,0.8-3.7,1.1-5.5
	c0.2-0.8,0-1.4-0.4-1.8c-1.6-1.8-3.2-3.6-4.8-5.3c0.5-0.1,1-0.2,1.6-0.3c2.7-0.4,5.3-0.9,8-1.3c0.7-0.1,1.5-0.5,2-1.1
	c0.6-0.6,1-1.3,1.2-2.1c0.4-1.8,0.8-3.7,1.1-5.5c0.4-1.8,0.8-3.7,1.1-5.5C312.3,107,312.1,106.4,311.7,106z M300.9,112.3
	c-6.2,1-12.5,2.1-18.7,3.3c-0.8,3.7-1.5,7.4-2.3,11.1c4.5-0.8,8.9-1.7,13.4-2.4c-0.8,3.7-1.5,7.4-2.3,11.1
	c-4.5,0.8-8.9,1.6-13.4,2.5c-0.8,3.7-1.5,7.4-2.3,11.1c6.2-1.2,12.5-2.4,18.7-3.4c-0.8,3.7-1.5,7.4-2.3,11.1
	c-9.8,1.7-19.6,3.6-29.4,5.6c3.8-18.6,7.6-37.2,11.4-55.7c9.8-1.9,19.6-3.7,29.4-5.3C302.4,104.9,301.6,108.6,300.9,112.3z"/>
<path class="st0" d="M271.1,113.1c-0.4-0.4-6.3-6.8-6.3-6.8s0,0,0,0c-0.4-0.4-1-0.6-1.7-0.4c-1.8,0.4-3.6,0.7-5.3,1.1
	c-1.8,0.4-3.6,0.7-5.3,1.1c-0.7,0.2-1.5,0.6-2.1,1.2c-0.6,0.6-1,1.4-1.2,2.1c-0.3,1.5-0.6,2.9-0.9,4.4c-1.9-2-4.8-5.1-4.8-5.1
	s0,0,0,0c0,0,0,0,0,0c-0.4-0.4-1-0.6-1.7-0.4c-1.8,0.4-3.6,0.8-5.3,1.2c-1.8,0.4-3.6,0.8-5.4,1.2c-0.7,0.2-1.5,0.6-2,1.2
	c-0.6,0.6-1,1.4-1.2,2.2c-1.9,9.3-3.8,18.7-5.7,28c-1.9,9.3-3.8,18.7-5.7,28c-0.1,0.7,0,1.3,0.3,1.7c0,0,0,0,0,0c0,0,0,0,0.1,0.1
	c0,0,0,0,0,0s0,0,0,0c0.4,0.5,5.9,6.2,6.3,6.6c0.4,0.4,1,0.6,1.7,0.4c1.8-0.4,3.6-0.8,5.4-1.2c1.8-0.4,3.6-0.8,5.3-1.2
	c0.7-0.2,1.5-0.6,2-1.2c0.6-0.6,1-1.4,1.2-2.2c0.3-1.5,0.6-3,0.9-4.5c1.9,2,4.6,4.9,4.8,5.1c0.4,0.4,1,0.6,1.7,0.4
	c1.8-0.4,3.6-0.8,5.4-1.1c1.8-0.4,3.6-0.8,5.3-1.1c0.7-0.2,1.5-0.6,2-1.2c0.6-0.6,1-1.4,1.2-2.1c1.9-9.3,3.8-18.6,5.7-27.9
	c1.9-9.3,3.8-18.6,5.7-27.9C271.7,114.2,271.5,113.5,271.1,113.1z M251.1,164.5c-3.6,0.8-7.1,1.5-10.7,2.3c1.5-7.5,3-14.9,4.5-22.4
	c-3.6,0.8-7.1,1.5-10.7,2.3c-1.5,7.5-3,14.9-4.5,22.4c-3.6,0.8-7.1,1.6-10.7,2.4c3.8-18.7,7.6-37.3,11.4-56
	c3.6-0.8,7.1-1.6,10.7-2.3c-1.5,7.5-3,14.9-4.5,22.4c3.6-0.8,7.1-1.5,10.7-2.3c1.5-7.4,3-14.9,4.5-22.3c3.6-0.8,7.1-1.5,10.7-2.2
	C258.7,127.3,254.9,145.9,251.1,164.5z"/>
<path class="st0" d="M333.2,103.1c-2.1-2.4-4.2-4.8-6.3-7.2c-0.2-0.2-0.4-0.4-0.7-0.5c-0.3-0.1-0.6-0.1-1-0.1
	c-0.9,0.1-1.8,0.2-2.7,0.4c-0.9,0.1-1.8,0.2-2.7,0.4c-0.9,0.1-1.8,0.3-2.7,0.4c-0.9,0.1-1.8,0.3-2.7,0.4c-0.4,0.1-0.7,0.2-1.1,0.4
	c-0.3,0.2-0.7,0.4-1,0.7c-0.3,0.3-0.6,0.6-0.8,1c-0.2,0.4-0.4,0.7-0.4,1.1c-1,4.6-1.9,9.2-2.8,13.8c-0.9,4.6-1.9,9.2-2.8,13.8
	c-1,4.6-1.9,9.2-2.8,13.8c-1,4.6-1.9,9.2-2.8,13.8c-0.1,0.4-0.1,0.7,0,1c0.1,0.3,0.2,0.6,0.4,0.8c0,0,5.9,6.6,6.3,7
	c0.4,0.4,1,0.6,1.7,0.5c1.8-0.3,3.6-0.6,5.4-0.8c1.8-0.3,3.6-0.5,5.3-0.8c0.7-0.1,1.5-0.5,2.1-1.1c0.6-0.6,1-1.3,1.2-2.1
	c1.9-9.2,3.8-18.3,5.7-27.5c1.9-9.2,3.8-18.3,5.7-27.4C333.7,104.2,333.6,103.5,333.2,103.1z M313.2,153.1
	c-3.6,0.5-7.1,1.1-10.7,1.7c3.8-18.4,7.6-36.9,11.4-55.2c3.6-0.5,7.1-1,10.7-1.5C320.8,116.3,317,134.7,313.2,153.1z"/>
<path class="st0" d="M389.1,99.5c-0.4-0.5-6.3-8-6.3-8c-0.4-0.5-1-0.8-1.7-0.8c-1.9,0-3.9,0.1-5.8,0.2c-1.9,0.1-3.9,0.1-5.8,0.2
	c-0.5,0-1.1,0.2-1.6,0.5c-0.5,0.3-0.9,0.8-1.3,1.3c-1.9,3.2-3.8,6.4-5.6,9.6c-0.6,1.1-1.3,2.2-1.9,3.2c-0.3-1.4-0.5-2.9-0.8-4.3
	c-0.1-0.4-0.2-0.7-0.4-0.9h0l0,0c0,0,0,0,0,0c-2.1-2.5-4.2-5-6.3-7.5c0,0,0,0.1,0,0.1c-0.1-0.1-0.1-0.3-0.2-0.4
	c-0.4-0.3-0.9-0.4-1.4-0.3c-1.9,0.2-3.9,0.3-5.8,0.5c-1.9,0.2-3.9,0.4-5.8,0.6c-0.7,0.1-1.5,0.4-2.1,1c-0.6,0.6-1,1.3-1.2,2
	c-1.9,9.1-3.8,18.3-5.7,27.4c-1.9,9.2-3.8,18.3-5.7,27.5c-0.2,0.8,0,1.4,0.4,1.8c0,0,5.9,6.8,6.3,7.2c0.4,0.4,1,0.7,1.7,0.6
	c1.8-0.2,3.6-0.4,5.4-0.6c1.8-0.2,3.6-0.4,5.3-0.6c0.7-0.1,1.5-0.4,2.1-1c0.6-0.5,1-1.3,1.2-2c0.5-2.5,1-5,1.5-7.4
	c0.3-1.4,0.6-2.8,0.9-4.1c0.7,0.8,1.3,1.6,2,2.4c0.1,0.1,0.2,0.2,0.3,0.3c0.4,0.3,0.8,0.4,1.4,0.4c1.2-0.1,2.4-0.2,3.6-0.3
	c-0.2,0.7,0,1.4,0.4,1.9c0,0,5.9,7.1,6.3,7.6c0.4,0.5,1,0.7,1.7,0.7c1.8-0.1,3.6-0.2,5.3-0.3c1.8-0.1,3.6-0.2,5.4-0.2
	c0.7,0,1.5-0.3,2-0.8c0.6-0.5,1-1.2,1.2-1.9c1.9-9,3.8-17.9,5.7-26.8c1.9-8.9,3.8-17.9,5.7-26.8C389.6,100.7,389.5,100,389.1,99.5z
	 M369.1,147.4c-3.6,0.2-7.1,0.4-10.7,0.6c2-9.7,4-19.3,6.1-28.9c-3.6,6.1-7.3,12.3-10.9,18.6c-2.4,0.2-4.8,0.4-7.1,0.6
	c-1.1-5.8-2.2-11.7-3.3-17.5c-2,9.7-4,19.4-6.1,29.2c-3.6,0.4-7.1,0.8-10.7,1.3c3.8-18.3,7.6-36.6,11.4-54.8
	c3.9-0.4,7.7-0.8,11.6-1.2c1.5,8.2,3,16.4,4.5,24.6c5-8.7,10.1-17.4,15.1-25.9c3.9-0.2,7.7-0.3,11.6-0.4
	C376.7,111.4,372.9,129.4,369.1,147.4z"/>
<path class="st0" d="M95.5,148.3c-0.4-0.4-6.3-7.2-6.3-7.2c-0.4-0.4-1-0.7-1.7-0.6c-1.9,0.2-3.9,0.4-5.8,0.7
	c-1.9,0.2-3.9,0.4-5.8,0.6c-0.6,0.1-1.1,0.3-1.6,0.6c-0.5,0.3-0.9,0.8-1.3,1.3c-1.9,3.3-3.8,6.5-5.6,9.8c-0.6,1.1-1.3,2.2-1.9,3.3
	c-0.3-1.4-0.5-2.9-0.8-4.3c-0.1-0.4-0.2-0.7-0.4-0.9h0l0,0c0,0,0,0,0,0c-2.1-2.5-4.2-5-6.3-7.5c0,0,0,0.1,0,0.1
	c-0.1-0.1-0.1-0.3-0.2-0.4c-0.4-0.3-0.9-0.4-1.4-0.4c-1.9,0.1-3.9,0.2-5.8,0.3s-3.9,0.2-5.8,0.2c-0.7,0-1.5,0.3-2.1,0.8
	c-0.6,0.5-1,1.2-1.2,1.9c-1.9,9-3.8,17.9-5.7,26.8s-3.8,17.9-5.7,26.8c-0.2,0.7,0,1.4,0.4,1.9c0,0,5.9,7.5,6.3,8
	c0.4,0.5,1,0.8,1.7,0.8c1.8,0,3.6-0.1,5.4-0.1c1.8-0.1,3.6-0.1,5.3-0.2c0.7,0,1.5-0.4,2.1-0.9c0.6-0.5,1-1.2,1.2-2
	c0.5-2.5,1-4.9,1.5-7.4c0.3-1.4,0.6-2.7,0.9-4.1c0.7,0.8,1.3,1.6,2,2.4c0.1,0.1,0.2,0.2,0.3,0.3c0.4,0.3,0.9,0.4,1.4,0.4
	c1.2-0.1,2.4-0.2,3.6-0.2c-0.2,0.7,0,1.4,0.4,1.9c0,0,5.9,7.1,6.3,7.5c0.4,0.4,1,0.7,1.7,0.6c1.8-0.2,3.6-0.3,5.3-0.5
	c1.8-0.2,3.6-0.4,5.4-0.6c0.7-0.1,1.5-0.5,2-1c0.6-0.6,1-1.3,1.2-2c1.9-9.1,3.8-18.3,5.7-27.4c1.9-9.2,3.8-18.3,5.7-27.5
	C96,149.4,95.9,148.8,95.5,148.3z M75.5,198c-3.6,0.4-7.1,0.7-10.7,0.9c2-9.7,4-19.3,6.1-29c-3.6,6.3-7.3,12.5-10.9,18.7
	c-2.4,0.2-4.8,0.3-7.1,0.4c-1.1-5.9-2.2-11.8-3.3-17.7c-2,9.6-4,19.2-6.1,28.7c-3.6,0.1-7.1,0.2-10.7,0.2
	c3.8-17.8,7.6-35.7,11.4-53.7c3.9-0.1,7.7-0.3,11.6-0.5c1.5,8.2,3,16.4,4.5,24.7c5-8.7,10.1-17.4,15.1-26.2
	c3.9-0.4,7.7-0.8,11.6-1.3C83.1,161.6,79.3,179.8,75.5,198z"/>
<path class="st1" d="M75.5,198c-3.6,0.4-7.1,0.7-10.7,0.9c2-9.7,4-19.3,6.1-29c-3.6,6.3-7.3,12.5-10.9,18.7
	c-2.4,0.2-4.8,0.3-7.1,0.4c-1.1-5.9-2.2-11.8-3.3-17.7c-2,9.6-4,19.2-6.1,28.7c-3.6,0.1-7.1,0.2-10.7,0.2
	c3.8-17.8,7.6-35.7,11.4-53.7c3.9-0.1,7.7-0.3,11.6-0.5c1.5,8.2,3,16.4,4.5,24.7c5-8.7,10.1-17.4,15.1-26.2
	c3.9-0.4,7.7-0.8,11.6-1.3C83.1,161.6,79.3,179.8,75.5,198z"/>
<path class="st1" d="M111,193.4c0.1-3.6,0.1-7.1,0.2-10.7c-3.2,0.5-6.3,1-9.5,1.4c-1.5,3.8-2.9,7.5-4.4,11.3
	c-3.6,0.5-7.2,0.9-10.8,1.4c7.8-18.7,15.6-37.6,23.4-56.7c3.7-0.6,7.3-1.2,11-1.8c0.3,17.8,0.6,35.5,0.9,53.3
	C118.2,192.3,114.6,192.9,111,193.4z"/>
<path class="st1" d="M163.9,183.6c-3.7,0.8-7.4,1.5-11.1,2.3c-1.5-8.6-3.1-17.2-4.6-25.8c-1.9,9.3-3.8,18.6-5.7,27.8
	c-3.6,0.7-7.1,1.3-10.7,2c3.8-18.5,7.6-37,11.4-55.6c3.7-0.7,7.4-1.4,11.1-2.2c1.5,8.6,3.1,17.2,4.6,25.8c1.9-9.3,3.8-18.6,5.7-27.9
	c3.6-0.7,7.1-1.5,10.7-2.3C171.5,146.4,167.7,165,163.9,183.6z"/>
<path class="st1" d="M207.9,174c-3.7,0.8-7.4,1.7-11.1,2.5c-1.5-8.6-3.1-17.1-4.6-25.7c-1.9,9.3-3.8,18.7-5.7,28
	c-3.6,0.8-7.1,1.6-10.7,2.3c3.8-18.6,7.6-37.3,11.4-55.9c3.7-0.8,7.4-1.6,11.1-2.4c1.5,8.6,3.1,17.1,4.6,25.7
	c1.9-9.3,3.8-18.7,5.7-28c3.6-0.8,7.1-1.6,10.7-2.4C215.4,136.7,211.7,155.4,207.9,174z"/>
<path class="st1" d="M251.1,164.5c-3.6,0.8-7.1,1.5-10.7,2.3c1.5-7.5,3-14.9,4.5-22.4c-3.6,0.8-7.1,1.5-10.7,2.3
	c-1.5,7.5-3,14.9-4.5,22.4c-3.6,0.8-7.1,1.6-10.7,2.4c3.8-18.7,7.6-37.3,11.4-56c3.6-0.8,7.1-1.6,10.7-2.3c-1.5,7.5-3,14.9-4.5,22.4
	c3.6-0.8,7.1-1.5,10.7-2.3c1.5-7.4,3-14.9,4.5-22.3c3.6-0.8,7.1-1.5,10.7-2.2C258.7,127.3,254.9,145.9,251.1,164.5z"/>
<path class="st1" d="M300.9,112.3c-6.2,1-12.5,2.1-18.7,3.3c-0.8,3.7-1.5,7.4-2.3,11.1c4.5-0.8,8.9-1.7,13.4-2.4
	c-0.8,3.7-1.5,7.4-2.3,11.1c-4.5,0.8-8.9,1.6-13.4,2.5c-0.8,3.7-1.5,7.4-2.3,11.1c6.2-1.2,12.5-2.4,18.7-3.4
	c-0.8,3.7-1.5,7.4-2.3,11.1c-9.8,1.7-19.6,3.6-29.4,5.6c3.8-18.6,7.6-37.2,11.4-55.7c9.8-1.9,19.6-3.7,29.4-5.3
	C302.4,104.9,301.6,108.6,300.9,112.3z"/>
<path class="st1" d="M313.2,153.1c-3.6,0.5-7.1,1.1-10.7,1.7c3.8-18.4,7.6-36.9,11.4-55.2c3.6-0.5,7.1-1,10.7-1.5
	C320.8,116.3,317,134.7,313.2,153.1z"/>
<path class="st1" d="M369.1,147.4c-3.6,0.2-7.1,0.4-10.7,0.6c2-9.7,4-19.3,6.1-28.9c-3.6,6.1-7.3,12.3-10.9,18.6
	c-2.4,0.2-4.8,0.4-7.1,0.6c-1.1-5.8-2.2-11.7-3.3-17.5c-2,9.7-4,19.4-6.1,29.2c-3.6,0.4-7.1,0.8-10.7,1.3
	c3.8-18.3,7.6-36.6,11.4-54.8c3.9-0.4,7.7-0.8,11.6-1.2c1.5,8.2,3,16.4,4.5,24.6c5-8.7,10.1-17.4,15.1-25.9
	c3.9-0.2,7.7-0.3,11.6-0.4C376.7,111.4,372.9,129.4,369.1,147.4z"/>
<path class="st0" d="M111.3,172c0.1-4.5,0.1-8.9,0.2-13.4c-1.8,4.7-3.6,9.5-5.4,14.2C107.7,172.5,109.5,172.3,111.3,172z"/>
<path class="st0" d="M130.3,170.9c-0.2-8.9-0.3-17.8-0.5-26.6c0-0.6-0.2-1.1-0.6-1.4s-6.2-6.7-6.2-6.8c0,0,0,0,0,0
	c-0.1-0.1-0.1-0.1-0.1-0.2c-0.4-0.3-0.9-0.4-1.5-0.3c-1.8,0.3-3.7,0.6-5.5,0.9s-3.7,0.6-5.5,0.9c-0.6,0.1-1.3,0.4-1.8,0.9
	c-0.5,0.4-1,1-1.3,1.7c-3.9,9.5-7.8,19-11.7,28.4c-3.9,9.4-7.8,18.8-11.7,28.2c-0.2,0.4-0.3,0.8-0.3,1.2c0,0.4,0.1,0.7,0.3,1
	c0,0.1,0.1,0.1,0.2,0.2c0,0,0,0,0,0c2,2.4,4.1,4.7,6.2,7.1c0.2,0.3,0.4,0.5,0.8,0.6c0.3,0.1,0.7,0.2,1.1,0.1
	c1.8-0.2,3.6-0.5,5.4-0.7c1.8-0.2,3.6-0.5,5.4-0.8c0.6-0.1,1.3-0.4,1.8-0.9c0.5-0.5,1-1.1,1.2-1.7c0.6-1.5,1.2-3,1.7-4.5
	c0.3-0.8,0.6-1.6,1-2.4c2.1,2.3,4.1,4.6,6.2,6.9c0.1,0.1,0.1,0.1,0.2,0.2c0.4,0.3,0.9,0.4,1.6,0.3c1.8-0.3,3.6-0.6,5.4-0.9
	c1.8-0.3,3.6-0.6,5.4-0.9c0.4-0.1,0.8-0.2,1.2-0.5c0.4-0.2,0.8-0.6,1.1-0.9c0.3-0.4,0.6-0.8,0.7-1.2c0.2-0.4,0.3-0.8,0.3-1.2
	C130.7,188.6,130.5,179.7,130.3,170.9z M111,193.4c0.1-3.6,0.1-7.1,0.2-10.7c-3.2,0.5-6.3,1-9.5,1.4c-1.5,3.8-2.9,7.5-4.4,11.3
	c-3.6,0.5-7.2,0.9-10.8,1.4c7.8-18.7,15.6-37.6,23.4-56.7c3.7-0.6,7.3-1.2,11-1.8c0.3,17.8,0.6,35.5,0.9,53.3
	C118.2,192.3,114.6,192.9,111,193.4z"/>
<path class="st0" d="M183.9,132c-0.4-0.4-6.3-6.6-6.3-6.6c-0.4-0.4-1-0.6-1.7-0.4c-1.8,0.4-3.6,0.8-5.3,1.1
	c-1.8,0.4-3.6,0.8-5.4,1.1c-0.7,0.2-1.5,0.6-2.1,1.2c-0.6,0.6-1,1.4-1.2,2.1c-0.3,1.3-0.5,2.7-0.8,4c-1.5-1.6-3.1-3.3-4.6-4.9
	c0,0,0,0.1,0,0.1c-0.1-0.1-0.1-0.2-0.2-0.3c-0.4-0.2-0.9-0.3-1.4-0.2c-1.9,0.4-3.7,0.7-5.5,1.1c-1.9,0.4-3.7,0.7-5.5,1.1
	c-0.7,0.1-1.5,0.6-2.1,1.2c-0.6,0.6-1,1.3-1.2,2.1c-1.9,9.3-3.8,18.5-5.7,27.8c-1.9,9.3-3.8,18.5-5.7,27.8c-0.2,0.8,0,1.4,0.4,1.8
	c0,0,5.9,6.5,6.3,6.9c0.4,0.4,1,0.6,1.7,0.5c1.8-0.3,3.6-0.7,5.4-1c1.8-0.3,3.6-0.7,5.3-1c0.7-0.1,1.5-0.6,2-1.2
	c0.6-0.6,1-1.4,1.2-2.1c0.3-1.3,0.5-2.7,0.8-4c1.5,1.6,3,3.2,4.5,4.8c0.1,0.1,0.2,0.2,0.3,0.3c0.4,0.2,0.9,0.3,1.4,0.2
	c1.9-0.4,3.7-0.8,5.6-1.2c1.9-0.4,3.7-0.8,5.5-1.2c0.7-0.2,1.5-0.6,2-1.2c0.6-0.6,1-1.4,1.2-2.1c1.9-9.3,3.8-18.6,5.7-27.9
	c1.9-9.3,3.8-18.6,5.7-28C184.4,133,184.3,132.4,183.9,132z M163.9,183.6c-3.7,0.8-7.4,1.5-11.1,2.3c-1.5-8.6-3.1-17.2-4.6-25.8
	c-1.9,9.3-3.8,18.6-5.7,27.8c-3.6,0.7-7.1,1.3-10.7,2c3.8-18.5,7.6-37,11.4-55.6c3.7-0.7,7.4-1.4,11.1-2.2
	c1.5,8.6,3.1,17.2,4.6,25.8c1.9-9.3,3.8-18.6,5.7-27.9c3.6-0.7,7.1-1.5,10.7-2.3C171.5,146.4,167.7,165,163.9,183.6z"/>
<path class="st0" d="M227.8,122.2c-0.4-0.4-6.3-6.6-6.3-6.6c-0.4-0.4-1-0.6-1.7-0.4c-1.8,0.4-3.6,0.8-5.3,1.2s-3.6,0.8-5.4,1.2
	c-0.7,0.2-1.5,0.6-2.1,1.2c-0.6,0.6-1,1.4-1.2,2.2c-0.3,1.3-0.5,2.7-0.8,4c-1.5-1.6-3.1-3.2-4.6-4.8c0,0,0,0.1,0,0.1
	c-0.1-0.1-0.1-0.2-0.2-0.3c-0.4-0.2-0.9-0.3-1.4-0.1c-1.9,0.4-3.7,0.8-5.5,1.2c-1.9,0.4-3.7,0.8-5.5,1.2c-0.7,0.2-1.5,0.6-2.1,1.2
	c-0.6,0.6-1,1.4-1.2,2.2c-1.9,9.3-3.8,18.6-5.7,28s-3.8,18.6-5.7,28c-0.2,0.8,0,1.4,0.4,1.8c0,0,6,6.3,6.3,6.7
	c0.4,0.4,1,0.6,1.7,0.4c1.8-0.4,3.6-0.8,5.4-1.2c1.8-0.4,3.6-0.8,5.3-1.2c0.7-0.2,1.5-0.6,2.1-1.2c0.6-0.6,1-1.4,1.2-2.2
	c0.3-1.3,0.5-2.7,0.8-4c1.5,1.6,3,3.1,4.5,4.7c0.1,0.1,0.2,0.2,0.3,0.3c0.4,0.2,0.9,0.3,1.4,0.1c1.9-0.4,3.7-0.8,5.6-1.2
	c1.9-0.4,3.7-0.8,5.5-1.2c0.7-0.2,1.5-0.6,2-1.2c0.6-0.6,1-1.4,1.2-2.2c1.9-9.3,3.8-18.7,5.7-28s3.8-18.7,5.7-28
	C228.4,123.3,228.2,122.6,227.8,122.2z M207.9,174c-3.7,0.8-7.4,1.7-11.1,2.5c-1.5-8.6-3.1-17.1-4.6-25.7c-1.9,9.3-3.8,18.7-5.7,28
	c-3.6,0.8-7.1,1.6-10.7,2.3c3.8-18.6,7.6-37.3,11.4-55.9c3.7-0.8,7.4-1.6,11.1-2.4c1.5,8.6,3.1,17.1,4.6,25.7
	c1.9-9.3,3.8-18.7,5.7-28c3.6-0.8,7.1-1.6,10.7-2.4C215.4,136.7,211.7,155.4,207.9,174z"/>
</svg>
