<?xml version="1.0" encoding="utf-8"?>
<!-- Generator: Adobe Illustrator 26.2.1, SVG Export Plug-In . SVG Version: 6.00 Build 0)  -->
<svg version="1.1" id="Superhero_font" xmlns="http://www.w3.org/2000/svg" xmlns:xlink="http://www.w3.org/1999/xlink" x="0px"
	 y="0px" viewBox="0 0 419.5 297.6" style="enable-background:new 0 0 419.5 297.6;" xml:space="preserve">
<style type="text/css">
	.st0{fill:#231F20;}
	.st1{opacity:0.8;fill:#FFFFFF;}
</style>
<image style="overflow:visible;opacity:0.25;enable-background:new    ;" width="2146" height="1242" xlink:href="B8434B0ADF503AC6.png"  transform="matrix(0.2392 0 0 0.2392 -46.9107 -2.1709)">
</image>
<path class="st0" d="M334.4,95.2c-2.2-2.7-4.4-5.3-6.5-7.9c-0.4-0.5-1-0.7-1.8-0.6c-5.1,0.7-10.1,1.4-15.2,2.2
	c-5.1,0.8-10.1,1.6-15.2,2.6c-0.8,0.1-1.5,0.6-2.1,1.2c-0.6,0.6-1.1,1.4-1.2,2.3c-2,10-3.9,20-5.9,30.1s-3.9,20.1-5.9,30.1
	c-0.2,0.8,0,1.5,0.4,1.9c0,0,0,0,0,0c0,0,6.2,7,6.5,7.5c0.4,0.4,1,0.6,1.8,0.5c5.1-0.9,10.1-1.9,15.2-2.7s10.1-1.6,15.2-2.3
	c0.8-0.1,1.5-0.5,2.1-1.1c0.6-0.6,1.1-1.4,1.2-2.2c0.4-2,0.8-4,1.2-5.9c0.4-2,0.8-4,1.2-5.9c0.2-0.8,0-1.5-0.4-2
	c-0.3-0.3-3.3-3.9-5.1-6.1c0.4-0.2,0.8-0.5,1.1-0.8c0.6-0.6,1.1-1.4,1.2-2.2c0.4-2,0.8-4,1.2-5.9c0.4-2,0.8-4,1.2-5.9
	c0.2-0.8,0-1.5-0.4-2c-1.7-2-3.3-4-5-6c0.5-0.1,1.1-0.2,1.6-0.2c2.8-0.4,5.5-0.8,8.3-1.1c0.8-0.1,1.5-0.5,2.1-1.1
	c0.6-0.6,1.1-1.4,1.2-2.2c0.4-2,0.8-3.9,1.2-5.9c0.4-2,0.8-4,1.2-5.9C334.9,96.4,334.8,95.7,334.4,95.2z M323.1,101.5
	c-6.5,0.9-12.9,1.8-19.4,2.9c-0.8,4-1.6,8-2.4,12c4.6-0.8,9.2-1.5,13.8-2.2c-0.8,4-1.6,7.9-2.4,11.9c-4.6,0.7-9.2,1.5-13.8,2.3
	c-0.8,4-1.6,8-2.4,12c6.5-1.1,12.9-2.2,19.4-3.1c-0.8,4-1.6,7.9-2.4,11.9c-10.1,1.5-20.3,3.3-30.4,5.3c3.9-20.1,7.8-40.1,11.8-60.1
	c10.1-1.8,20.3-3.4,30.4-4.8C324.7,93.6,323.9,97.6,323.1,101.5z"/>
<path class="st0" d="M290.1,101.2c-0.4-0.5-6.6-7.5-6.6-7.5c0,0,0,0,0,0c-0.4-0.4-1-0.6-1.8-0.5c-1.8,0.4-3.7,0.7-5.5,1.1
	c-1.8,0.4-3.7,0.8-5.5,1.1c-0.8,0.2-1.5,0.6-2.1,1.3c-0.6,0.7-1.1,1.5-1.2,2.3c-0.3,1.6-0.6,3.2-0.9,4.8c-1.9-2.2-5-5.5-5-5.5
	s0,0,0,0c0,0,0,0,0,0c-0.4-0.4-1-0.6-1.8-0.5c-1.8,0.4-3.7,0.8-5.5,1.2s-3.7,0.8-5.5,1.2c-0.8,0.2-1.5,0.7-2.1,1.3
	c-0.6,0.7-1.1,1.5-1.2,2.3c-2,10.1-3.9,20.2-5.9,30.3c-2,10.1-3.9,20.2-5.9,30.3c-0.1,0.8,0,1.4,0.4,1.8c0,0,0,0,0,0
	c0,0,0,0,0.1,0.1c0,0,0,0,0,0l0,0c0.5,0.5,6.1,6.7,6.5,7.2c0.4,0.4,1,0.6,1.8,0.4c1.9-0.4,3.7-0.9,5.5-1.3c1.8-0.4,3.7-0.8,5.5-1.2
	c0.8-0.2,1.5-0.7,2.1-1.3c0.6-0.7,1.1-1.5,1.2-2.3c0.3-1.6,0.6-3.2,0.9-4.8c1.9,2.1,4.7,5.3,5,5.6c0.4,0.4,1,0.6,1.8,0.5
	c1.9-0.4,3.7-0.8,5.5-1.2c1.8-0.4,3.7-0.8,5.5-1.1c0.8-0.2,1.5-0.6,2.1-1.3c0.6-0.6,1.1-1.5,1.2-2.3c2-10,3.9-20.1,5.9-30.1
	c2-10,3.9-20.1,5.9-30.1C290.7,102.3,290.5,101.6,290.1,101.2z M269.4,156.6c-3.7,0.8-7.4,1.6-11,2.4c1.6-8.1,3.1-16.1,4.7-24.2
	c-3.7,0.8-7.4,1.6-11.1,2.4c-1.6,8.1-3.1,16.1-4.7,24.2c-3.7,0.8-7.4,1.7-11.1,2.6c3.9-20.2,7.8-40.4,11.8-60.6
	c3.7-0.8,7.4-1.7,11.1-2.5c-1.6,8.1-3.1,16.1-4.7,24.2c3.7-0.8,7.4-1.6,11.1-2.4c1.6-8.1,3.1-16.1,4.7-24.2c3.7-0.8,7.4-1.5,11-2.2
	C277.3,116.3,273.4,136.4,269.4,156.6z"/>
<path class="st0" d="M153.1,132c-0.4-0.4-6.5-7.3-6.5-7.3v0c-0.4-0.5-1-0.7-1.8-0.5c-3.7,0.8-7.4,1.5-11.1,2.2
	c-1.5,0.3-3,1.9-3.4,3.5c-0.3,1.6-0.6,3.2-0.9,4.8c-1.9-2.2-4.9-5.6-5-5.7c-0.4-0.5-1-0.7-1.8-0.6c-3.7,0.6-7.4,1.3-11.1,1.9
	c-1.5,0.2-3,1.8-3.3,3.4c-2.8,14.2-5.6,28.3-8.4,42.5c-0.6,2.8-0.6,5.5-0.1,7.9c0.5,2.4,1.5,4.4,2.9,6.1c-0.1-0.1-0.2-0.2-0.2-0.2
	c0,0,6.2,7.3,6.5,7.6c0.7,0.9,1.6,1.7,2.5,2.3c1.4,0.9,2.9,1.5,4.7,1.8c1.7,0.3,3.5,0.3,5.5-0.1c1.3-0.2,2.6-0.6,3.9-1.1
	s2.6-1.1,3.9-1.9c1.9-1.1,3.7-2.5,5.4-4s3.2-3.3,4.6-5.2c1.4-2,2.6-4,3.6-6.1c0.9-2.1,1.6-4.2,2.1-6.4c1.4-7.2,2.8-14.3,4.2-21.5
	c1.4-7.2,2.8-14.3,4.2-21.5C153.7,133.1,153.5,132.4,153.1,132z M135.8,170.1c-0.7,3.7-2.5,7.4-4.8,10.6c-2.3,3.2-5.3,5.9-8.6,7.9
	c-2.2,1.3-4.5,2.1-6.7,2.5c-3.4,0.6-6.4-0.1-8.7-1.6c-2.3-1.5-3.8-3.9-4.5-7c-0.4-2-0.4-4.3,0.1-6.8c2.8-14.1,5.6-28.3,8.4-42.5
	c3.7-0.6,7.4-1.2,11.1-1.9c-2.8,14.2-5.6,28.5-8.4,42.7c-0.2,1.3-0.1,2.3,0.3,3.2c0.4,0.9,1.1,1.5,2,1.8c0.6,0.2,1.3,0.2,2.1,0.1
	c1.2-0.2,2.3-0.8,3.3-1.6c1-0.8,1.9-1.9,2.5-3c0.4-0.8,0.7-1.6,0.9-2.4c2.4-12.3,4.8-24.5,7.2-36.8c0.4-2,0.8-4,1.2-6
	c3.7-0.7,7.4-1.4,11.1-2.2C141.4,141.5,138.6,155.8,135.8,170.1z"/>
<path class="st0" d="M242.2,122.1c-0.4-1.7-1-3.3-1.9-4.6c-0.2-0.3-0.5-0.7-0.8-1c-2.2-2.4-4.4-4.8-6.5-7.2c0,0,0,0,0,0.1
	c-0.7-0.9-1.6-1.6-2.6-2.2c-1.4-0.8-2.9-1.3-4.6-1.5c-1.7-0.2-3.6,0-5.5,0.4c-1.3,0.3-2.6,0.8-3.9,1.3c-1.3,0.6-2.6,1.3-3.9,2.1
	c-1.9,1.2-3.7,2.7-5.4,4.3c-1.7,1.6-3.2,3.4-4.6,5.4c-1.4,2-2.6,4.1-3.6,6.2c-0.9,2.1-1.6,4.3-2,6.4c-0.8,4.3-1.7,8.6-2.5,12.9
	s-1.7,8.6-2.5,12.9c-0.3,1.4-0.4,2.8-0.5,4.1c0,1.3,0.1,2.6,0.4,3.8c0.4,1.7,1,3.2,1.9,4.5c0.3,0.4,0.6,0.7,0.9,1.1c0,0,0,0-0.1,0
	c2.2,2.4,4.4,4.8,6.5,7.1v0c0.7,0.8,1.6,1.5,2.5,2.1c1.4,0.8,2.9,1.3,4.6,1.5c1.7,0.2,3.6,0,5.5-0.4c1.3-0.3,2.6-0.8,3.9-1.3
	s2.6-1.3,3.9-2.1c1.9-1.2,3.7-2.7,5.4-4.3c1.7-1.6,3.2-3.4,4.6-5.4c1.4-2,2.6-4.1,3.6-6.2c0.9-2.1,1.6-4.3,2-6.4
	c0.2-0.8,0-1.5-0.4-1.9c-2.2-2.4-4.3-4.8-6.5-7.1c0,0,0,0,0,0c0,0,0,0,0-0.1c-0.4-0.4-1-0.6-1.8-0.4c-1.8,0.4-3.7,0.9-5.5,1.3
	s-3.7,0.9-5.5,1.3c0.1-0.2,0.1-0.5,0.1-0.8c0.8-4.3,1.7-8.6,2.5-12.9c0-0.2,0.1-0.4,0.2-0.6c0.1-0.2,0.2-0.4,0.3-0.6
	c0.1-0.3,0.4-0.6,0.6-0.8c0.2-0.3,0.5-0.5,0.7-0.7c0.2-0.2,0.4-0.3,0.6-0.4c1.2,1.3,2.4,2.6,3.6,3.9c0.4,0.4,1,0.6,1.8,0.4
	c1.8-0.4,3.7-0.9,5.5-1.3c1.9-0.4,3.7-0.9,5.5-1.3c0.8-0.2,1.5-0.7,2.1-1.3c0.6-0.7,1.1-1.5,1.2-2.3c0.3-1.4,0.4-2.8,0.4-4.1
	C242.6,124.6,242.5,123.3,242.2,122.1z M232.9,123.5c-3.7,0.9-7.4,1.7-11.1,2.6c0.2-1.3,0.1-2.3-0.3-3.2s-1.1-1.4-2-1.6
	c-0.6-0.1-1.3-0.2-2.1,0c-1.2,0.3-2.3,0.9-3.3,1.8c-1,0.9-1.9,2-2.5,3.2c-0.4,0.8-0.7,1.6-0.9,2.5c-1.7,8.6-3.3,17.2-5,25.8
	c-0.2,1.3-0.1,2.3,0.3,3.2c0.4,0.8,1.1,1.4,2,1.6c0.6,0.2,1.3,0.1,2.1,0c1.2-0.3,2.3-0.9,3.3-1.8c1-0.9,1.9-2,2.5-3.1
	c0.4-0.8,0.7-1.6,0.9-2.5c3.7-0.9,7.4-1.8,11.1-2.6c-0.7,3.8-2.5,7.5-4.8,10.9c-2.4,3.3-5.3,6.2-8.6,8.3c-2.2,1.4-4.5,2.4-6.7,3
	c-3.4,0.8-6.4,0.4-8.7-0.9c-2.3-1.3-3.8-3.6-4.5-6.6c-0.4-2-0.4-4.3,0.1-6.8c1.7-8.6,3.3-17.2,5-25.8c0.7-3.8,2.5-7.5,4.8-10.9
	c2.4-3.3,5.3-6.2,8.6-8.3c2.2-1.4,4.4-2.4,6.7-3c3.4-0.8,6.4-0.4,8.7,0.9c2.3,1.3,3.8,3.6,4.5,6.6
	C233.3,118.7,233.3,121,232.9,123.5z"/>
<path class="st0" d="M106.1,141.4c-0.4-0.4-6.5-7.7-6.5-7.7c-0.4-0.5-1-0.7-1.8-0.6c-2,0.3-4,0.5-6,0.8s-4,0.5-6,0.7
	c-0.6,0.1-1.1,0.3-1.7,0.7c-0.5,0.4-1,0.9-1.3,1.5c-1.9,3.6-3.9,7.1-5.8,10.7c-0.7,1.2-1.3,2.4-1.9,3.5c-0.3-1.6-0.6-3.1-0.8-4.7
	c-0.1-0.4-0.2-0.7-0.5-1h0l0,0c0,0,0,0,0,0c-2.2-2.7-4.3-5.4-6.5-8.1c0,0.1,0,0.1-0.1,0.1c-0.1-0.1-0.1-0.3-0.2-0.4
	c-0.4-0.3-0.9-0.4-1.5-0.4c-2,0.1-4,0.3-6,0.4c-2,0.1-4,0.2-6,0.3c-0.8,0-1.5,0.4-2.1,0.9c-0.6,0.6-1.1,1.3-1.2,2.1
	c-2,9.7-3.9,19.4-5.9,29.1c-2,9.7-3.9,19.4-5.9,29c-0.2,0.8,0,1.5,0.4,2c0,0,6.2,8.1,6.5,8.6c0.4,0.5,1,0.8,1.8,0.8
	c1.8,0,3.7-0.1,5.5-0.2c1.8-0.1,3.7-0.1,5.5-0.2c0.8,0,1.5-0.4,2.1-1c0.6-0.6,1.1-1.3,1.2-2.1c0.5-2.7,1.1-5.3,1.6-8
	c0.3-1.5,0.6-3,0.9-4.5c0.7,0.9,1.4,1.7,2.1,2.6c0.1,0.1,0.2,0.3,0.4,0.4c0.4,0.3,0.9,0.4,1.4,0.4c1.2-0.1,2.5-0.2,3.7-0.3
	c-0.2,0.8,0,1.5,0.4,2c0,0,6.1,7.6,6.5,8.1c0.4,0.5,1,0.7,1.8,0.7c1.8-0.2,3.7-0.4,5.5-0.6s3.7-0.4,5.5-0.7c0.8-0.1,1.5-0.5,2.1-1.1
	c0.6-0.6,1.1-1.4,1.2-2.2c2-9.9,3.9-19.8,5.9-29.8s3.9-19.9,5.9-29.8C106.6,142.6,106.4,141.9,106.1,141.4z M85.4,195.4
	c-3.7,0.4-7.4,0.8-11.1,1.1c2.1-10.5,4.2-21,6.3-31.5c-3.8,6.8-7.5,13.6-11.3,20.3c-2.5,0.2-4.9,0.4-7.4,0.5
	c-1.2-6.4-2.3-12.7-3.5-19.1c-2.1,10.4-4.2,20.8-6.3,31.2c-3.7,0.1-7.4,0.2-11.1,0.2C45,178.9,49,159.5,52.9,140c4-0.2,8-0.4,12-0.6
	c1.6,8.9,3.1,17.8,4.7,26.7c5.2-9.4,10.4-18.9,15.6-28.5c4-0.4,8-0.9,12-1.5C93.2,155.9,89.3,175.7,85.4,195.4z"/>
<path class="st0" d="M380.8,92.4c-0.4-0.5-6.5-8.6-6.5-8.6c-0.4-0.5-1-0.8-1.8-0.8c-1.8,0-3.7,0.1-5.5,0.2c-1.9,0.1-3.7,0.2-5.5,0.2
	c-0.8,0-1.5,0.4-2.1,1c-0.6,0.6-1.1,1.3-1.2,2.1c-0.3,1.4-0.6,2.8-0.8,4.2c-1.6-2-3.2-4-4.8-6c0,0,0,0.1,0,0.1
	c-0.1-0.1-0.1-0.2-0.2-0.3c-0.4-0.3-0.9-0.4-1.5-0.4c-1.9,0.2-3.8,0.3-5.7,0.5c-1.9,0.2-3.8,0.4-5.7,0.6c-0.8,0.1-1.5,0.5-2.1,1.1
	c-0.6,0.6-1.1,1.4-1.2,2.2c-2,9.9-3.9,19.7-5.9,29.6c-2,9.9-3.9,19.8-5.9,29.7c-0.2,0.8,0,1.5,0.4,2c0,0,6.2,7.4,6.5,7.9
	c0.4,0.5,1,0.7,1.8,0.6c1.9-0.2,3.7-0.4,5.5-0.6c1.8-0.2,3.7-0.4,5.5-0.5c0.8-0.1,1.5-0.5,2.1-1c0.6-0.6,1.1-1.3,1.2-2.2
	c0.3-1.4,0.6-2.8,0.8-4.2c1.5,1.9,3.1,3.9,4.6,5.8c0.1,0.1,0.2,0.2,0.3,0.4c0.4,0.3,0.9,0.4,1.5,0.4c1.9-0.1,3.8-0.2,5.8-0.4
	c1.9-0.1,3.8-0.2,5.7-0.3c0.8,0,1.5-0.4,2.1-0.9c0.6-0.6,1.1-1.3,1.2-2.1c2-9.7,3.9-19.4,5.9-29.1s3.9-19.3,5.9-29
	C381.4,93.7,381.2,92.9,380.8,92.4z M360.1,144.3c-3.8,0.2-7.7,0.5-11.5,0.8c-1.6-9.5-3.2-19-4.8-28.5c-2,9.8-3.9,19.7-5.9,29.5
	c-3.7,0.4-7.4,0.8-11.1,1.3c3.9-19.8,7.8-39.6,11.8-59.3c3.8-0.4,7.7-0.8,11.5-1.1c1.6,9.5,3.2,19.1,4.8,28.6
	c2-9.8,3.9-19.5,5.9-29.3c3.7-0.2,7.4-0.3,11.1-0.4C368,105.3,364,124.8,360.1,144.3z"/>
<path class="st0" d="M198.1,122.5c-0.4-0.4-6.5-7.1-6.5-7.1c-0.4-0.4-1-0.6-1.8-0.4c-1.8,0.4-3.7,0.9-5.5,1.3
	c-1.9,0.4-3.7,0.9-5.5,1.3c-0.8,0.2-1.5,0.7-2.1,1.3c-0.6,0.7-1.1,1.5-1.2,2.3c-0.3,1.4-0.6,2.9-0.8,4.3c-1.6-1.7-3.2-3.5-4.8-5.2
	c0,0,0,0.1,0,0.1c-0.1-0.1-0.1-0.2-0.2-0.3c-0.4-0.2-0.9-0.3-1.5-0.2c-1.9,0.4-3.8,0.9-5.7,1.3s-3.8,0.8-5.7,1.2
	c-0.8,0.2-1.5,0.6-2.1,1.3c-0.6,0.7-1.1,1.5-1.2,2.3c-2,10.1-3.9,20.1-5.9,30.2c-2,10.1-3.9,20.1-5.9,30.2c-0.2,0.8,0,1.5,0.4,2
	c0,0,6.2,6.9,6.5,7.4c0.4,0.4,1,0.6,1.8,0.5c1.9-0.4,3.7-0.8,5.5-1.2c1.8-0.4,3.7-0.8,5.5-1.2c0.8-0.2,1.5-0.7,2.1-1.3
	c0.6-0.7,1.1-1.5,1.2-2.3c0.3-1.4,0.6-2.9,0.8-4.3c1.6,1.7,3.1,3.4,4.6,5.1c0.1,0.1,0.2,0.2,0.3,0.3c0.4,0.2,0.9,0.3,1.5,0.2
	c1.9-0.4,3.8-0.9,5.8-1.3c1.9-0.4,3.8-0.9,5.7-1.3c0.8-0.2,1.5-0.7,2.1-1.3c0.6-0.7,1.1-1.5,1.2-2.3c2-10.1,3.9-20.2,5.9-30.3
	c2-10.1,3.9-20.2,5.9-30.3C198.6,123.6,198.5,122.9,198.1,122.5z M177.4,178.6c-3.8,0.9-7.7,1.8-11.5,2.6
	c-1.6-9.3-3.2-18.6-4.8-27.9c-2,10.1-3.9,20.2-5.9,30.2c-3.7,0.8-7.4,1.6-11.1,2.3c3.9-20.1,7.8-40.2,11.8-60.4
	c3.8-0.8,7.7-1.7,11.5-2.5c1.6,9.3,3.2,18.6,4.8,27.9c2-10.1,3.9-20.2,5.9-30.3c3.7-0.8,7.4-1.7,11.1-2.6
	C185.2,138.2,181.3,158.4,177.4,178.6z"/>
<g>
	<path class="st0" d="M141,107.2c-3.1,0.2-6,3.3-6.4,7c-0.4,3.7,1.7,6.5,4.9,6.3c3.1-0.2,6-3.4,6.4-7.1
		C146.3,109.8,144.2,107,141,107.2z M143.1,113.7c-0.2,1.8-1.7,3.4-3.2,3.5s-2.6-1.3-2.4-3.2c0.2-1.8,1.7-3.4,3.2-3.5
		C142.2,110.4,143.3,111.8,143.1,113.7z"/>
	<path class="st0" d="M124.7,110.3c-3.1,0.2-6,3.2-6.4,6.9c-0.4,3.7,1.7,6.6,4.9,6.4c3.1-0.1,6-3.3,6.5-6.9
		C130,113,127.8,110.2,124.7,110.3z M126.7,116.8c-0.2,1.8-1.7,3.4-3.2,3.5s-2.7-1.4-2.4-3.2s1.7-3.4,3.2-3.4
		C125.8,113.6,126.9,115,126.7,116.8z"/>
</g>
<g>
	<g>
		<path d="M46.4,109.7c0.1,0.1,0.2,0.1,0.3,0.3c0.1,0,0.2,0.1,0.3,0.3c0.1-0.1,0.2,0.1,0.3,0.2c0.2,0.2,0.3,0.3,0.3,0.4
			c0-0.3,0.2,0.2,0.3,0.4c0.2,0.2,0.2,0.6,0.4,0.8c0,0.2,0.1,0.2,0.1,0.3c0,0.1,0,0.2,0,0.2c0,0.2,0,0.4,0,0.5
			c0.1,0,0.1-0.1,0.1,0.1c-0.1,0.1-0.1,0.2,0,0.2c0,0,0,0,0,0c0,0,0,0,0,0c0,0,0.1,0.1,0,0.1c0,0.1,0,0.3,0.1,0.4
			c0,0.4-0.1,0-0.1,0.3c0.2,0.2-0.1,0.2-0.1,0.4c0,0,0,0.1,0,0.2c0,0,0,0.1,0,0c0,0.1,0,0.2-0.1,0.3c0,0.2,0,0.2-0.1,0.3
			c-0.2,0.1-0.1-0.4-0.2-0.1c-0.1,0.2,0-0.2-0.2-0.1c0,0,0,0-0.1,0c0.1,0.1,0,0.1,0,0c-0.2,0-0.3,0.1-0.2-0.1c-0.2-0.1,0,0.1-0.2,0
			c0.2,0-0.2-0.2-0.1-0.1c-0.1,0-0.2-0.1-0.2-0.1c-0.1,0-0.2-0.3-0.2,0c-0.3,0,0.1-0.3-0.1-0.4c-0.2,0.1,0-0.1-0.1-0.1
			c-0.2,0-0.2,0.1-0.4,0.1c-0.1,0-0.3,0-0.2-0.2c-0.3,0,0.1,0,0-0.2c0.2-0.4,0.2-0.9,0.2-1.3c0-0.1,0.1-0.6-0.1-0.4
			c0,0.2,0-0.1-0.1,0.1c-0.2,0.1-0.2,0.3-0.3,0.4c-0.2,0.2-0.2,0.2-0.4,0.4c-0.3,0.2,0,0.2-0.2,0.4c-0.1,0.1-0.2,0.2-0.2,0.3
			c-0.1,0.1,0,0.2-0.1,0.3c-0.1,0.1-0.2,0.2-0.2,0.3c0,0,0,0.1,0,0.1c0,0,0,0,0,0c0,0,0,0,0,0c-0.1,0.2-0.1,0.2-0.1,0.3
			c-0.1,0-0.1,0.2-0.2,0.3c0,0.1,0,0.1,0,0.2c0,0,0,0,0,0c0,0.1-0.1,0.1-0.2,0.3c-0.1,0.2,0.1,0.1-0.1,0.3c0,0.1,0,0.4-0.1,0.3
			c-0.1,0.3,0,0.1,0,0.3c0,0.1-0.2,0.3-0.2,0.3c0,0.1-0.2,0.3-0.1,0.4c0,0,0,0.1,0,0.1c0.1,0,0,0,0,0c0,0.1,0,0.3-0.1,0.3
			c0,0.1,0,0.1,0,0.1c0,0,0,0,0,0c0,0.1,0,0.1,0,0c0,0.1,0,0.2,0,0.2c0,0.1-0.1,0.2,0,0.3c-0.2,0.1,0,0-0.1,0.2c0.2,0,0,0,0.1,0.2
			c-0.1,0.1,0.1,0.4,0,0.5c0.1,0.2-0.2,0.3-0.1,0.5c0,0.2,0,0.2,0.1,0.3c-0.1,0.1-0.1,0.2,0.2,0.2c0.7-0.3,1.3-0.9,1.8-1.5
			c0.2-0.3,0-0.2-0.1-0.2c0,0-0.3,0-0.2,0.1c0,0.2-0.1-0.1-0.1-0.1c-0.2,0,0,0,0-0.1c0.4-0.1,0.3-0.2,0-0.1c-0.2,0,0.1-0.1,0.2-0.1
			c0-0.1-0.1-0.2-0.1-0.2c0.1-0.1-0.4-0.1-0.1-0.2c0.1-0.1-0.1-0.2-0.1-0.3c0-0.1,0-0.2-0.1-0.2c0.1-0.2,0-0.2,0-0.3
			c0.1-0.2,0.3-0.1,0.2-0.3c-0.1-0.1-0.2-0.2-0.3-0.3c-0.1-0.1-0.1-0.3,0.1-0.3c-0.2-0.1,0.1-0.1,0.2-0.1c1.4-0.3,2.7-0.4,4.1-0.5
			c0.2,0,0.3,0.2,0.5,0.1c-0.2,0.2,0.2,0,0.1,0.2c-0.2,0.1-0.1,0.1-0.1,0.2c0.1,0-0.2,0.2,0,0.1c0.1,0.2-0.1,0.1-0.1,0.3
			c0.1-0.1,0.3,0.1,0.2,0.2c-0.2,0.1,0,0.3-0.1,0.5c0.1,0.2-0.2,0.2-0.1,0.3c0.1,0,0,0.2-0.1,0.3h0c0,0,0,0,0,0c0,0,0,0.1,0,0.1
			c-0.1-0.2-0.1,0.2-0.3,0c0,0,0-0.2-0.2-0.1c0.1,0.2-0.1,0.2-0.3,0.2c0,0-0.1,0-0.1,0c0,0,0,0-0.1-0.1c0,0,0,0.1,0.1,0.1
			c-0.1,0-0.2,0.1-0.2,0c-0.2-0.2-0.1,0.2-0.2,0.2c-0.1,0,0,0.2-0.2,0.2c-0.1,0.2-0.1,0.2-0.1,0.3c0.1,0.2,0,0.3,0,0.1
			c-0.2,0.2-0.1,0.2,0,0.3c0.1,0.4-0.4,0.2-0.2,0.2c0.2,0,0-0.2-0.1,0c-0.2,0.2-0.3,0.4-0.4,0.6c-0.1,0.1,0,0.3-0.1,0.4
			c-0.2,0.1-0.2-0.1-0.3,0c0,0.1,0.3,0.1,0.1,0.2c0-0.1-0.1,0.2,0,0.2c0.1-0.2,0.3-0.3,0.5-0.5c0.3-0.4,0.1,0-0.1,0.2
			c-0.1,0.1-0.1,0.4-0.4,0.5c0,0.2-0.1,0-0.1,0.2c-0.1,0.1-0.3,0.1-0.3,0.3c0,0.1-0.2,0.1-0.2,0.2c-0.3,0.1-0.1,0.1-0.3,0.2
			c0-0.1-0.1,0-0.2,0c0,0,0,0,0,0c0,0,0,0,0,0c0.1,0,0,0.1-0.2,0.2c0.1-0.2-0.2-0.1-0.3,0c-0.1,0.2-0.1,0-0.3,0.1
			c-0.3,0-0.2,0.3-0.3,0.1c-0.2,0,0.2-0.1,0.1-0.1c0.1,0,0.2-0.1,0.3-0.1c0-0.1,0.5,0,0.4-0.2c0.3-0.1,0.1-0.1,0.1,0
			c0.2-0.1,0.4-0.2,0.5-0.3c0.1-0.1,0.3-0.2,0.4-0.2c0.1-0.1,0.2-0.2,0.2-0.3c-0.2,0.1,0-0.1-0.1-0.1c-0.2,0.1-0.2,0.1-0.2,0.2
			c-0.2,0.1-0.4,0.4-0.6,0.4c-0.1,0.1-0.1,0-0.2,0.1c-0.1,0-0.3,0.1-0.5,0.2c-0.3,0-0.3,0.2-0.3,0.3c-0.1,0-0.1,0-0.1,0
			c0,0,0.1,0,0.1-0.1c0-0.1,0-0.1,0.1-0.2c-0.1-0.2-0.2,0.1-0.3,0c-0.2,0-0.5,0-0.4,0.1c0.1,0.1,0.4,0.2,0.5,0.1
			c0,0.1,0.2,0.1,0,0.1c0.2,0.1-0.2,0-0.1,0.1c-0.1-0.1-0.2,0-0.2-0.1c-0.2-0.1-0.4-0.2-0.5-0.2c-0.3-0.3,0.5,0.2,0.1-0.1
			c-0.2-0.1-0.5-0.1-0.7-0.3c-0.3-0.2-0.4,0.2-0.5,0c-0.1,0.1-0.2-0.3-0.4-0.2c-0.6-0.5-0.9-1.3-0.9-2.1c0-2,0.7-4,1.5-5.8
			c0.6-1.2,1.2-2.5,2.3-3.4c0.3-0.2,0.5-0.4,0.9-0.4c0,0,0,0,0.1,0C46.1,109.6,46.2,109.7,46.4,109.7z M43.7,117.4
			C43.7,117.4,43.7,117.4,43.7,117.4C43.7,117.3,43.7,117.3,43.7,117.4z M44.3,115.1C44.1,115.4,44.4,115.1,44.3,115.1
			C44.3,115,44.3,115,44.3,115.1z M44.7,114.8C44.7,114.7,44.7,114.7,44.7,114.8C44.7,114.7,44.7,114.7,44.7,114.8z M45.4,113.1
			c0,0.1,0.1-0.2,0.1-0.2C45.4,113,45.4,113,45.4,113.1z M46,112.3c-0.2,0.3,0.1,0.1,0.1-0.1C46,112.2,46,112.2,46,112.3z
			 M47.1,120.2C47.1,120.2,47.1,120.2,47.1,120.2C47,120.2,47.2,120.3,47.1,120.2z M47.3,120.1C47.3,120.1,47.3,120.1,47.3,120.1
			C47.3,120.1,47.3,120.1,47.3,120.1C47.3,120.1,47.2,120.1,47.3,120.1C47.3,120,47.3,120,47.3,120.1z M47.3,120.1
			C47.3,120.1,47.3,120,47.3,120.1C47.3,120.1,47.3,120.1,47.3,120.1z M48.2,119.1c0,0.1-0.1,0.1-0.1,0.2c-0.1,0.1-0.1,0.3-0.2,0.3
			c-0.1,0.2-0.3,0.3-0.3,0.4c0,0.1-0.2,0.1,0-0.1c0.2-0.2,0.3-0.5,0.4-0.6C48,119.3,48.2,119.2,48.2,119.1
			C48.2,119.1,48.2,119,48.2,119.1C48.3,119.1,48.3,119.1,48.2,119.1z M48,115.3C48.1,115.5,47.8,115.5,48,115.3
			C48,115.3,48,115.3,48,115.3z M48.4,118.5c0,0,0,0.2-0.1,0.2C48.2,118.9,48.2,118.5,48.4,118.5C48.4,118.5,48.4,118.5,48.4,118.5z
			 M48.4,118.9C48.5,118.9,48.3,118.9,48.4,118.9C48.4,118.8,48.4,118.8,48.4,118.9z M48.4,118.2C48.4,118.2,48.4,118.2,48.4,118.2
			C48.4,118.2,48.4,118.2,48.4,118.2C48.4,118.2,48.4,118.2,48.4,118.2C48.5,118.3,48.7,118.2,48.4,118.2
			C48.4,118.2,48.4,118.2,48.4,118.2z M49.5,118.1C49.5,118.1,49.5,118.1,49.5,118.1C49.5,118.1,49.5,118.1,49.5,118.1z M49.8,116.3
			C49.8,116.3,49.8,116.3,49.8,116.3C49.9,116.4,49.8,116.4,49.8,116.3C49.8,116.4,49.7,116.3,49.8,116.3
			C49.8,116.3,49.8,116.3,49.8,116.3z"/>
		<path d="M49.8,118.3C49.9,118.3,49.8,118.4,49.8,118.3c-0.1-0.1-0.5-0.1-0.2-0.1C49.7,118.2,49.8,118.2,49.8,118.3z M54.4,109.4
			c1.1,0.1,2.2,0.3,2.8,1.3c0.1-0.1,0.1,0.2,0.2,0.3c0,0,0,0,0,0.1c0,0,0,0,0,0c0,0,0,0,0,0c0,0.2,0.1,0.4,0.1,0.6
			c0,0.1,0,0.4-0.1,0.6c0,0.2-0.1,0.3-0.1,0.5c0,0,0,0,0,0c0,0,0,0,0,0c0,0,0,0,0,0c-0.1,0.1-0.1,0.2-0.2,0.2c0,0.1,0,0.3-0.1,0.4
			c0,0.4-0.3,0.4-0.4,0.8c-0.1,0.3-0.3,0.6-0.5,0.8c-0.2,0.2-0.1,0.3-0.3,0.4c-0.2,0.3-0.2,0.2-0.3,0.4c0,0-0.1-0.1-0.3,0.2
			c0.1,0.3-0.1,0-0.2,0.2c-0.2,0.1-0.5,0.2-0.3,0.3c0.9,0.2,1.9,0.3,2.8,0.7c0.2,0.1,0.4,0.3,0.3,0.3c0.1,0,0,0.2,0.1,0.2
			c0.2-0.2,0,0.2,0.2,0.1c0,0.2-0.2,0.1-0.2,0.2c0,0.1,0,0.3-0.1,0.4c-0.3,0.2,0,0,0,0.2c0.1,0.1-0.2,0.1,0,0.2
			c-0.2-0.1-0.1-0.1-0.2,0.1c0.1-0.1-0.2,0-0.1,0.2c-0.1,0.1-0.2,0-0.1,0.3c-0.2,0-0.2,0-0.5,0c-0.1-0.1-0.2,0.3-0.4,0.2
			c0.3,0,0.1-0.2,0.1-0.1c-0.1-0.1-0.2,0-0.2-0.1c0-0.1-0.2,0-0.2-0.1c-0.1-0.1-0.2,0.1,0,0.1c0.2,0,0.1,0.2,0,0.1
			c-0.4,0,0.2,0-0.2-0.1c-0.3-0.1,0.1,0,0,0.1c0,0-0.3,0-0.3,0c-0.2-0.1-0.2-0.1-0.4-0.1c-0.1-0.1-0.3-0.1-0.4-0.1
			c0,0-0.3-0.2-0.2-0.1c-0.1,0.1-0.2-0.1-0.3,0c-0.1-0.1-0.3,0-0.4-0.1c-0.1,0-0.2,0-0.3-0.1c-0.2,0-0.4-0.1-0.4-0.1
			c-0.2,0-0.5-0.1-0.4,0.2c0.2-0.1,0,0.4,0,0.3c-0.1,0.1,0,0.2,0.1,0.4c-0.2,0.2-0.2,0.2-0.2,0.3c0,0.2,0,0.2,0,0.3
			c0.1,0.2-0.1,0.2-0.1,0.3c0.1,0.1-0.1,0.1,0,0.2c0,0,0,0.3,0,0.4c-0.1,0.2-0.1,0.1-0.1-0.1c0.1-0.2,0.1-0.3,0-0.5
			c0,0.2-0.1,0.4-0.1,0.5c-0.1,0.1-0.1,0.4-0.1,0.6c-0.1,0.4,0-0.3-0.1-0.1c-0.1,0.1-0.2,0.1-0.2-0.1c0,0,0.3,0,0.1-0.2
			c-0.1-0.2-0.2,0.2-0.2-0.1c-0.1,0.2-0.1,0.1-0.2,0c-0.1,0.2-0.1,0-0.3,0.1c-0.1-0.1-0.2,0.1-0.3-0.1c0.2-0.2-0.2-0.2-0.2-0.1
			c0,0-0.1,0.1-0.2,0.1c0,0.2-0.2-0.2-0.2-0.1c0,0.2-0.2,0-0.1,0c0.1-0.5,0.1-1,0.2-1.5c0-0.4,0.3-1.1,0-1.3c-0.1,0-0.2,0-0.3,0
			c-0.2-0.2,0.3,0,0.4-0.1c0-0.1-0.3-0.1-0.4-0.1c0-0.1-0.3-0.1-0.5-0.1c-0.2-0.2,0.2,0,0.3-0.1c0-0.2,0.3,0.1,0.1-0.1
			c0.1-0.1,0-0.2,0-0.2c-0.1-0.1,0.2-0.1,0.1-0.2c0-0.1,0-0.1-0.1-0.3c0,0,0,0,0,0c0,0,0,0,0,0c0,0,0,0,0,0c0-0.1,0-0.2,0-0.2
			c0.1,0,0.2,0,0.1-0.1c0-0.2,0.3-0.1,0.2-0.2c0.1-0.2-0.1,0.1-0.2-0.1c0-0.1,0.1-0.1-0.1-0.2c0.1-0.1,0.1-0.2,0.2-0.1
			c0.1-0.1,0-0.1,0-0.2c0.1-0.3,0.4-0.2,0.7-0.1c0.2-1.1,0.5-2.2,0.7-3.2c0.1-0.2,0.2-1,0-0.7c-0.1,0.1-0.4,0.1-0.3,0
			c0-0.2-0.2,0.2-0.4,0c0,0.1-0.4,0,0-0.1c0,0,0.1-0.1,0.1-0.1c0,0-0.1,0,0-0.1c0,0,0,0.1,0,0.1c0.1,0,0.1-0.1,0-0.2
			c0.1-0.1-0.1-0.1-0.1-0.2c-0.3,0,0-0.1-0.1-0.2c0-0.2,0-0.1-0.1-0.2c0.2-0.1,0.1-0.1,0.1-0.2c-0.1-0.2,0.1-0.2,0.2-0.2
			c0.1-0.1,0.2-0.4,0-0.3c0-0.2-0.4,0-0.4-0.3c0,0,0.1-0.2,0.3-0.2c0.8-0.2,1.7-0.4,2.5-0.4C53.8,109.4,54.1,109.4,54.4,109.4z
			 M50.7,121.1c-0.2,0.2,0.2-0.1,0.1,0C50.8,121,50.7,121,50.7,121.1z M50.9,111.4c-0.1,0.2,0.2,0.1,0.1,0
			C50.9,111.5,50.9,111.5,50.9,111.4z M51.5,111.8c-0.1,0.1-0.2,0.1-0.1,0.1C51.4,111.8,51.8,112,51.5,111.8
			C51.6,111.8,51.6,111.8,51.5,111.8C51.6,111.8,51.6,111.8,51.5,111.8C51.5,111.8,51.5,111.8,51.5,111.8z M51.6,111.8
			C51.6,111.8,51.6,111.8,51.6,111.8C51.5,111.8,51.5,111.8,51.6,111.8z M52.2,121.6c0.2,0.1,0,0.1,0,0.2c0.3,0-0.1,0.1,0,0.2
			c-0.2,0.2-0.1,0.1-0.1,0C52.1,121.9,52.2,121.6,52.2,121.6C52.2,121.5,52.2,121.5,52.2,121.6C52.2,121.5,52.3,121.5,52.2,121.6z
			 M53.8,111.6c-0.1-0.1,0,0.1-0.1,0.2c0,0.2,0,0.3,0,0.4c0.2,0.1-0.1,0.1,0,0.3c0.1,0,0.1,0.1,0,0.2c-0.1-0.3-0.1,0.3-0.2,0.4
			c0,0.1-0.2,0.3,0,0.4c-0.1,0.1-0.1,0-0.2,0.2c0.1,0,0.1,0.1,0.1,0.2c0,0,0,0,0,0c0,0,0,0,0,0c0,0.1-0.1,0.2-0.1,0.2
			c0.3,0.2,0,0.1-0.1,0.3c0,0,0,0,0,0.1c0,0,0,0,0,0c0,0.1,0,0.1,0,0.2c0,0,0,0,0,0c0,0.1,0,0.1-0.1,0.1c0,0.1,0,0.1-0.1,0.2
			c1-0.5,2-1.1,2.7-1.9c0.1-0.2,0.6-0.6,0.3-0.6c-0.1,0-0.1-0.1-0.2-0.1c0,0,0,0,0,0c0,0-0.1-0.1-0.2-0.1c-0.1,0.1-0.2,0.1-0.2,0
			c0.1,0,0.3-0.2,0.1-0.2c-0.2-0.1-0.1,0-0.2,0.1c0.1-0.1-0.1-0.2-0.2-0.2c-0.1,0-0.3-0.2-0.6-0.2c-0.1,0.1-0.3-0.1-0.5,0
			C54.2,111.5,53.9,111.6,53.8,111.6C53.8,111.5,53.8,111.6,53.8,111.6z M55.1,119.2C55.2,119.2,55.2,119.1,55.1,119.2
			C55.1,119.2,55.1,119.2,55.1,119.2z M55.3,112C55.5,112.1,55.2,112.1,55.3,112C55.3,112,55.3,112,55.3,112z M55.4,119.1
			C55.3,119.2,55.5,119.1,55.4,119.1C55.5,119.1,55.5,119.1,55.4,119.1z M55.6,112.4C55.8,112.6,55.4,112.4,55.6,112.4
			C55.5,112.3,55.5,112.4,55.6,112.4z M55.6,119.2c0.1,0,0.3,0.1,0.2-0.1C55.8,119.2,55.4,119.1,55.6,119.2z M56.2,112.4
			C56.1,112.7,56,112.5,56.2,112.4C56.2,112.4,56.2,112.5,56.2,112.4z"/>
		<path d="M64.4,108.8c0,0,0.2,0.1,0.2,0.1c-0.1-0.1,0.2,0,0,0.2c0.1-0.1,0.1,0.2,0.2,0.2c0.1,0.1,0.2,0.2,0.2,0.2
			c0.1,0.1,0.1,0,0.2,0c0.1,0,0,0.2,0.2,0.2c0.2-0.1,0,0.2,0.1,0.1c0.1,0.1,0.2,0.2,0.2,0.4c0,0.1,0.2-0.1,0.1,0.3
			c0,0.1,0,0.2-0.1,0.3c0,0.2,0,0.3,0.1,0.5c-0.1,0.5,0-0.3-0.1,0.1c0,0.2-0.1,0.2-0.1,0.4c0,0,0,0,0,0.1c0,0,0,0,0,0
			c0,0,0,0.1,0,0.2c-0.1,0-0.1,0.4-0.1,0.5c-0.1,0.2,0,0.2-0.1,0.4c-0.1,0.2,0,0.4-0.1,0.6c0,0,0,0,0,0c0,0,0,0,0,0
			c0,0.1,0,0.1,0,0.1c0,0.1-0.1,0.2-0.1,0.3c-0.1,0.1,0,0.4-0.1,0.4c-0.1,0.1,0,0.1,0,0.2c0,0.2-0.1,0.6-0.1,0.8
			c-0.1,0.4-0.2,0.9-0.3,1.4c-0.1,0.3,0,0.7-0.1,1c0,0.3-0.1,0.4-0.1,0.7c0,0.3,0,0.5-0.1,0.8c0,0.2,0,0.2-0.1,0.5
			c0,0.3,0,0.7,0,0.9c0,0.1,0.1,0.3-0.1,0.5c0.1,0,0,0.2,0,0.2c-0.2,0.2,0-0.2-0.2-0.2c0.1-0.2,0,0-0.1-0.2c-0.1,0.1-0.1,0.2-0.1,0
			c-0.1,0.3-0.1,0-0.2,0c0-0.2-0.1,0.2-0.1,0c-0.1-0.2-0.2,0.1-0.2,0.1c-0.1-0.2-0.2-0.1-0.3-0.1c-0.2,0.2-0.3-0.8-0.5-0.5
			c-0.1-0.2-0.2,0.1-0.2,0.1c-0.1,0.1-0.1,0.3-0.3,0.5c0-0.1,0,0-0.1,0.1c-0.2,0.1-0.1,0-0.1-0.1c-0.1,0.1-0.3,0.3-0.6,0.3
			c0-0.1-0.1-0.1-0.2-0.1c0,0.1-0.1,0.1,0,0c-0.1,0-0.2,0-0.2-0.1c-0.2-0.1-0.3,0-0.4-0.1c-0.1,0.1-0.1-0.1-0.1-0.1
			c-0.2-0.1-0.1-0.1-0.4-0.2c-0.2,0-0.2-0.1-0.5-0.1c-0.3,0.2,0,0-0.3-0.1c-0.1,0,0.1,0.2-0.2,0c-0.8-0.6-1-1.7-0.9-2.6
			c0.1-2.4,0.8-4.8,1.7-7c0.1-0.5,0.6-1.1,0.5-1.4c0.2-0.2,0.1-0.1,0.1-0.2c0.1-0.2,0.3-0.1,0.3,0c0.2-0.2,0-0.2,0.3-0.1
			c0.1,0,0.2,0.2,0.3,0.2c-0.1,0.2,0,0.2,0,0.4c0.1-0.3,0,0.2,0.1,0c0,0.2-0.1,0.2,0.1,0c-0.1-0.2,0.3-0.1,0.1,0
			c0.2,0.1-0.2,0.2,0,0.2c0-0.1,0.1,0,0.2,0.1c0.1,0.1,0.1,0.2,0.2,0.2c0,0,0,0,0,0c0,0,0,0,0,0c0,0.2,0,0.4-0.1,0.6
			c-0.1,0.1-0.3,0.4-0.1,0.4c-0.1,0.2-0.1,0.2-0.1,0.5c-0.1,0.3-0.1-0.1-0.2,0.2c0.2,0.1,0,0.1,0,0.3c0.2,0.1-0.1,0.5,0,0.3
			c-0.1,0.1-0.1,0.1,0,0.3c0,0-0.1,0-0.2,0.1c-0.1,0.1,0,0.2,0,0.2c-0.1,0.2,0,0.1,0,0.3c-0.2-0.1-0.1,0-0.2,0.1c0,0,0,0,0,0
			c0,0,0,0,0,0c-0.1,0.2,0,0.2-0.1,0.3c0,0.1-0.2,0.3-0.1,0.5c0.1,0.1,0.1,0.3,0,0.3c-0.1-0.2-0.1,0.2-0.1,0.2
			c-0.2,0.1,0,0.2-0.1,0.2c0.1,0.2,0,0-0.1,0.2c0.1-0.2,0.1,0.3,0,0.4c0,0.1,0,0.3-0.1,0.4c-0.1,0.2-0.1,0.3-0.1,0.4
			c0,0-0.2,0.2,0,0.2c0,0,0,0.1,0,0.1c0,0,0,0,0,0c0,0,0,0.1,0,0.1c0,0.1,0,0.1,0,0.1c0,0,0,0,0,0c0,0,0,0,0,0c0,0,0,0.1,0.1,0.1
			c0,0.1-0.1,0.3-0.1,0.3c0,0.1,0,0.2,0,0.3c0.1,0.1-0.1,0.5,0.1,0.6c-0.1,0.1,0.1,0.2,0,0.4c0,0.2-0.1,0.4,0.1,0.2
			c0.4-0.3,0.7-0.6,1-1c0.3-0.4,0.8-0.8,0.9-1.2c0.2-1.8,0.6-3.5,1-5.2c0.2-1,0.5-2,0.8-2.9c0-0.3,0.1,0.2,0.1,0
			C64.2,109,64.2,109,64.4,108.8C64.3,108.8,64.4,108.8,64.4,108.8z M59.3,120.7C59.4,120.8,59.2,120.8,59.3,120.7
			C59.3,120.7,59.3,120.7,59.3,120.7z M60.2,120.9c0.1,0.1,0.1,0.1,0.2,0.1C60.7,121.2,60.4,120.8,60.2,120.9
			C60.2,120.9,60.2,120.9,60.2,120.9z M60.2,117.2C60.2,117.2,60.2,117.2,60.2,117.2C60.2,117.2,60.2,117.2,60.2,117.2z M60.4,116
			C60.5,115.8,60.4,116,60.4,116C60.3,115.9,60.3,116,60.4,116z M61.8,120.8c-0.1,0-0.3,0.1-0.4,0.2c-0.2,0-0.2,0-0.3,0
			c-0.1,0-0.1,0-0.2,0c0,0,0,0,0,0c0,0,0,0,0,0c0,0,0,0-0.1,0c0,0-0.1-0.1-0.1,0c0.1,0.2,0.4,0.2,0.6,0.2c-0.2,0.2,0,0,0.1-0.1
			c0,0.2,0.4,0,0.6-0.1c0.2-0.2-0.1,0,0-0.2C61.9,120.7,61.9,120.8,61.8,120.8z M62.9,105.7c0.2,0.1,0.2,0.3,0.3,0.5
			c0,0.1,0.2,0.2,0.2,0.3c-0.1,0.1,0.1,0.1,0.1,0.2c-0.1-0.1-0.1,0,0,0.1c0.1,0.1,0.1,0.2,0.1,0.3c0,0.2-0.1,0.3,0,0.4
			c0,0.1-0.1,0.1-0.1,0.2c0.1,0.1-0.2,0.1-0.2,0.3c0.1,0.1-0.1,0,0,0.1c0,0.1-0.2,0.2-0.2,0.3c0,0.1-0.1,0.1-0.1,0.2
			c-0.1,0.1-0.3,0.2-0.4,0.3c0,0,0.3-0.3,0.3-0.3c0.2-0.1,0-0.1-0.1,0c-0.1,0,0,0,0,0c0,0,0,0,0,0c0,0.1-0.2,0.1-0.1,0
			c0.1-0.1-0.2,0.1-0.1,0.1c0.1-0.1,0,0.1-0.2,0.2c-0.1,0,0.2-0.1,0-0.1c-0.1,0,0,0-0.1,0.1c-0.1-0.1-0.2,0.1-0.3,0.1
			c0,0-0.3-0.2-0.2-0.1c0,0.1-0.2-0.2-0.2-0.2c-0.1,0.1,0.1,0.2,0.1,0.3c0,0.2,0,0-0.1-0.1c-0.1,0-0.1-0.3-0.2-0.2
			c-0.1,0-0.1-0.2,0-0.1c0-0.2-0.2-0.4-0.3-0.6c-0.3-0.1-0.4-0.4-0.4-0.7c0-0.7,0.6-1.3,1.3-1.4c0.2,0,0.3-0.1,0.5-0.1
			C62.6,105.6,62.8,105.7,62.9,105.7z M60.9,120.9C60.9,120.9,60.9,120.9,60.9,120.9C60.9,121,60.9,121,60.9,120.9z M61.2,113.1
			C61.2,113.1,61.2,113,61.2,113.1C61.2,113.1,61.2,113.1,61.2,113.1z M61.3,120.8C61.2,120.9,61.4,120.8,61.3,120.8
			C61.3,120.8,61.3,120.8,61.3,120.8z M61.7,110.6c0.2,0.2,0.1-0.1,0.1-0.2C61.5,110.6,61.4,110.6,61.7,110.6z M61.8,110.4
			C61.8,110.4,61.8,110.4,61.8,110.4C61.8,110.4,61.8,110.4,61.8,110.4z M62.2,108.9c-0.1,0-0.3,0.1-0.3,0
			C62,108.9,62.2,109,62.2,108.9C62.3,108.9,62.2,108.9,62.2,108.9z M62.3,108.8C62.3,108.9,62.2,108.8,62.3,108.8
			C62.3,108.8,62.3,108.8,62.3,108.8z M62.5,108.8C62.3,108.8,62.5,108.8,62.5,108.8C62.6,108.8,62.5,108.8,62.5,108.8z M62.7,108.5
			C62.7,108.5,62.7,108.5,62.7,108.5C62.7,108.5,62.7,108.5,62.7,108.5z M66.2,105.9c0.1,0,0.1,0.2,0.2,0.2c0.1,0.1,0.2,0.3,0.2,0.4
			c0.1,0.1,0,0.1,0.1,0.2c0,0.2,0,0.4-0.1,0.6c0,0.1-0.1,0.1-0.1,0.2c0.1,0.2-0.2,0.2-0.1,0.3c-0.1,0,0,0.1-0.1,0.1
			c0,0-0.2,0.1-0.1,0c0.1-0.2,0-0.1,0,0c0,0.1-0.3,0.3-0.2,0.3c0,0,0,0.1,0.1-0.1c0.2,0.1-0.2,0.2-0.2,0.2c0.1-0.1,0.1-0.2,0-0.1
			c-0.1-0.1,0.1,0,0.1-0.1c-0.1,0-0.1,0.1-0.2,0.1c0.1,0,0,0.2-0.1,0.1c0.1-0.2-0.2,0-0.2,0c-0.1,0.1,0.1,0.1,0.1,0.1
			c-0.2,0.2-0.2-0.1-0.4,0c-0.1,0.1-0.1-0.2-0.2-0.1c0,0-0.1,0-0.1-0.1c-0.1-0.1-0.1,0-0.1,0.1c0.1,0.1,0.1,0.4,0,0.2
			c-0.1-0.1,0-0.3,0-0.4c-0.2-0.1-0.3-0.3-0.4-0.5c-0.2-0.2-0.3-0.4-0.3-0.7c0-0.3,0-0.6,0.2-0.9c0.2-0.4,0.6-0.8,1.1-0.8
			C65.7,105.2,66.1,105.5,66.2,105.9z M64.9,108.6c0,0.1,0.1,0,0.1,0.1c0.1-0.1,0.4-0.1,0.3,0c0,0.1-0.1,0-0.2,0.1
			C65,108.8,64.7,108.8,64.9,108.6C64.9,108.6,64.9,108.6,64.9,108.6z M65.1,114L65.1,114C65,114,65.1,114.1,65.1,114z M65.6,108.5
			c0,0.1-0.3,0.3-0.2,0.1C65.4,108.6,65.5,108.6,65.6,108.5c0.1,0,0.1-0.1,0.2-0.2C65.9,108.5,65.6,108.6,65.6,108.5z M66.2,108.1
			C66,108.2,66.1,108.1,66.2,108.1C66.2,108.1,66.3,108.1,66.2,108.1z"/>
		<path d="M71.9,108.6c0.1,0.1,0.2,0,0.3,0.2c0,0,0.2,0.3,0.3,0.2c0,0.2,0.2,0.1,0.2,0.2c0.2,0.1,0.3,0.1,0.4,0.2
			c-0.1,0.1,0,0.1,0.1,0.1c-0.2,0,0.1,0.1,0.1,0.2c0.2,0.1,0,0.2,0.2,0.3c0,0.1,0.1,0.3,0.1,0.5c0,0.3,0.1,0.7,0.1,0.8
			c-0.1,0.1-0.2,0.4-0.2,0.7c-0.1,0.3-0.1,0.4-0.1,0.5c0,0,0,0.1,0,0.1c0,0,0,0,0,0c-0.1,0,0,0,0,0c0,0.1-0.1,0.2,0,0.1
			c0,0.2,0,0.3-0.1,0.5c-0.1,0-0.2,0.1-0.2,0.1c-0.2,0.2-0.1,0,0-0.2c-0.1,0.2,0.1-0.1,0.1-0.1c0,0,0,0-0.1,0c0,0,0-0.1,0-0.1
			c0,0.1,0,0.1,0,0.1c-0.1,0-0.2,0-0.1-0.1c0,0,0,0-0.1,0c0,0,0,0,0,0c0,0.1,0.1,0.3-0.1,0.2c-0.1,0.1-0.2,0.1-0.1,0.2
			c-0.1,0-0.1,0.1,0.1,0.1c0.1,0,0.2-0.1,0.2,0.1c0.3-0.3,0,0.4-0.1,0.1c-0.2,0.2,0-0.1-0.2,0.1c0,0.3-0.3,0.2-0.2,0.3
			c-0.1,0.1-0.2,0.4-0.1,0c0.2,0,0.1-0.1,0-0.1c-0.1,0.1,0,0.1-0.1,0.2c-0.1,0.1-0.2,0.2-0.2,0.3c-0.1-0.1,0,0.3-0.1,0.2
			c-0.3,0.1-0.2,0.3,0.1,0.3c0.4,0.3,0.8,0.7,1,1.1c0.1,0.3,0.3,0.8,0.2,1.1c-0.1,0,0,0.3,0,0.3c0,0.2-0.2-0.2-0.1,0.1
			c0.2-0.1-0.1,0.3,0,0.3c-0.1,0.3-0.1,0.2-0.1,0.4c0,0.2-0.1,0.1-0.1,0.3c0,0-0.2,0.2,0,0.1c-0.1,0.2-0.3,0.4-0.3,0.4
			c0,0-0.1,0.1-0.1,0.1c0,0,0,0,0,0c0,0,0,0,0,0c-0.1,0.1-0.2,0.2-0.3,0.3c0,0.2-0.4,0.2-0.5,0.4c-0.1,0-0.2,0.2-0.3,0.1
			c-0.1,0.1-0.1,0-0.2,0.1c0,0.1-0.1,0.1,0,0c0,0,0,0-0.1,0c0.1,0-0.2,0.2-0.2,0.1c-0.1,0-0.1,0-0.1,0c0,0.2-0.2,0.1,0,0
			c-0.1,0-0.3,0-0.2-0.1c0,0,0,0,0,0c0,0,0.1,0,0.1,0c0.2,0,0.4,0,0.5-0.1c0,0.2,0.3-0.1,0.4-0.1c0.2-0.1,0.4-0.2,0.5-0.3
			c0.2-0.1,0.4-0.4,0.5-0.6c0,0,0,0,0,0c0,0,0,0,0,0c0,0,0,0,0,0c-0.1,0.2-0.2,0.2-0.3,0.4c-0.2,0.1-0.2,0.2-0.3,0.2
			c0.1,0.1-0.1,0.1-0.2,0.2c0,0.1-0.4,0.2-0.1,0c0-0.2-0.3,0.1-0.4,0.1c-0.2,0.2-0.2,0-0.4,0.1c-0.2,0-0.2-0.2-0.4-0.1
			c-0.2,0,0,0.1,0.2,0.1c0,0.1-0.4-0.1-0.5-0.1c-0.2-0.1-0.9-0.2-0.5,0c0.2,0.2,0.2,0.1,0.4,0.2c-0.1,0.2,0.5,0.1,0.5,0.3
			c-0.2,0.1-0.2,0.1-0.4-0.1c0-0.1,0,0.1-0.1,0.1c-0.1-0.2-0.4-0.2-0.6-0.4c0.2,0-0.2-0.4-0.4-0.4c-0.1-0.2-0.4-0.2-0.4,0.1h0
			c0,0,0,0,0,0c0,0,0,0,0,0.1c-0.1,0,0,0.4-0.1,0.3c-0.1,0.1,0.1,0.3,0,0.3c-0.1,0.1-0.1,0.4-0.1,0.6c0,0.2,0,0.2-0.1,0.3
			c0.1,0.1-0.1,0.1,0-0.1c0.1-0.1,0-0.5-0.1-0.2c-0.1,0.1-0.1,0.1-0.1,0.2c-0.2,0-0.2,0.3-0.2,0.4c-0.1,0.1-0.2,0.2-0.1-0.1
			c-0.2,0,0,0-0.2,0.1c-0.1-0.1-0.2,0-0.3,0c-0.1-0.2-0.1,0.1-0.1,0.1c0-0.3-0.3,0.3-0.2-0.1c-0.1-0.1-0.2,0-0.1,0.1
			c-0.1,0.2-0.2-0.2-0.3,0c-0.2-0.1,0.1,0,0-0.2c0-0.2-0.1,0-0.1,0c0-0.1-0.1,0.2-0.3,0c0-0.1-0.1,0.1,0,0.1c0,0.1-0.1,0-0.2-0.1
			c-0.1,0.2-0.2,0.1-0.2-0.1c0.1-1.4,0.4-2.7,0.8-4.1c0.7-2.2,1.4-4.5,2.7-6.5c0.6-0.8,1.3-1.8,2.3-1.9
			C71.6,108.5,71.7,108.5,71.9,108.6z M67.7,120.4c0,0.1,0.2-0.1,0.1-0.1h0C67.7,120.3,67.8,120.4,67.7,120.4z M67.9,120.2
			C68,120.2,68,120.2,67.9,120.2C68,120.2,68.1,120.2,67.9,120.2C68,120.1,68,120.1,67.9,120.2c0.1-0.1-0.1-0.1-0.1-0.2
			C67.7,120.2,68,120.1,67.9,120.2z M67.9,119.9C67.9,119.9,67.9,119.9,67.9,119.9C67.9,119.9,67.9,119.9,67.9,119.9
			C68,119.9,68,119.9,67.9,119.9C67.8,119.9,67.9,119.9,67.9,119.9z M68,119.7c-0.1,0.2,0,0.5,0.1,0.1c-0.1-0.1,0.2-0.4,0-0.5
			C68.1,119.6,68.2,119.5,68,119.7z M68.2,119.2c0.1,0.1,0.1-0.2,0.1-0.3C68.1,118.9,68.2,119.1,68.2,119.2z M68.3,119.2
			C68.3,119.2,68.3,119.2,68.3,119.2C68.3,119.2,68.3,119.2,68.3,119.2z M68.5,117.6C68.5,117.6,68.5,117.6,68.5,117.6
			C68.6,117.6,68.5,117.6,68.5,117.6C68.5,117.6,68.5,117.6,68.5,117.6C68.5,117.7,68.6,117.7,68.5,117.6
			C68.5,117.5,68.5,117.6,68.5,117.6z M68.7,116.6c-0.1,0.1,0,0.2-0.1,0.3c0,0.2,0,0.3-0.1,0.5c0.2,0,0-0.4,0.2-0.4
			c-0.1-0.1,0-0.4,0.1-0.4c0-0.1,0.1-0.4,0.1-0.5C68.8,116.4,68.8,116.5,68.7,116.6z M69.3,115.5c-0.2,0-0.2,0.2-0.1,0.2
			c0.1-0.2,0,0.2-0.1,0.2c-0.3,0.2,0,0.3-0.2,0.5c0.1,0-0.2,0.2-0.2,0.5c0,0-0.2,0.5-0.2,0.8c-0.1,0.4,0.2,0,0.1,0.2
			c0.1,0.4,0.1-0.1,0.3,0.1c-0.2,0-0.1,0-0.1,0.1c0,0.3,0.9,0.1,1.1-0.3c0.4-0.4,0.8-1,0.7-1.6c0-0.1-0.5,0.1-0.2-0.2
			c0.2,0,0.2-0.3,0.1-0.2c-0.2,0.1-0.2,0-0.4,0c-0.2,0-0.3,0.1-0.3,0c0.1,0-0.2,0.1-0.2,0c-0.1,0.2-0.1,0.1-0.1,0
			c0,0.2-0.4,0.2-0.1,0C69.9,115.6,69.2,115.8,69.3,115.5C69.3,115.5,69.3,115.5,69.3,115.5z M69.6,115.9c0.1,0.1-0.2,0-0.1,0
			C69.5,115.9,69.6,115.9,69.6,115.9z M69.6,113.6c-0.1,0.2,0.2-0.2,0-0.2C69.7,113.5,69.6,113.6,69.6,113.6z M69.7,113.6
			c0.2-0.2,0.1,0,0-0.2C69.8,113.5,69.8,113.6,69.7,113.6z M69.9,116C69.9,116.2,69.7,116,69.9,116C69.8,115.9,69.9,116,69.9,116z
			 M70,120c0,0-0.1,0-0.2,0C70,120,70.1,120,70,120c0.2,0.1,0.2,0-0.1-0.1C70,119.9,70,120,70,120z M71.4,111.1
			c0.1-0.2-0.2,0-0.2-0.1c-0.2-0.1-0.2,0.2-0.2,0.2c-0.1-0.1-0.2,0.2-0.2,0.3c-0.1-0.1,0,0.2,0.1,0c0.2-0.3,0,0.2-0.2,0.3
			c-0.1,0.2-0.2,0.2-0.3,0.2c-0.1,0.1-0.1,0.2,0.1,0.3c-0.1-0.2-0.1-0.1,0-0.2c-0.2-0.1,0.3,0,0.2,0c0,0.1-0.2,0.2-0.2,0.2
			c0,0.3-0.3,0.2-0.1,0c-0.1,0-0.3,0.1-0.2,0.1c0.1,0.1-0.1,0.3-0.1,0.3c-0.1,0.2-0.1,0.2-0.1,0c-0.2,0,0,0.4-0.2,0.2
			c-0.1,0.1-0.1,0.2,0.2,0.1c0,0.1,0.1-0.4,0.2-0.2c0,0.2-0.1,0.1-0.2,0.3c0,0.2-0.2,0-0.1-0.1c-0.2,0.1,0,0.2,0,0.3
			c0.6-0.5,1.1-1.2,1.4-2c0.1-0.3,0.2-0.3,0.2-0.4C71.6,111.1,71.2,111.2,71.4,111.1z M69.9,115.7C69.8,115.8,70.1,115.7,69.9,115.7
			C69.9,115.7,69.9,115.7,69.9,115.7z M69.9,113.4C69.9,113.3,69.9,113.3,69.9,113.4C69.9,113.3,69.9,113.3,69.9,113.4
			C69.9,113.3,69.9,113.3,69.9,113.4z M70.2,120.1C70.3,120.2,69.8,120.2,70.2,120.1C70.1,120.1,70.1,120.1,70.2,120.1
			C70.2,120.1,70.2,120.1,70.2,120.1z M70.1,120C70.1,120,70,120,70.1,120C70.1,120,70.1,120,70.1,120z M70.1,116.5
			c-0.2,0,0.2-0.3,0.4-0.3C70.4,116.3,70.2,116.4,70.1,116.5z M70.3,112.7c-0.1,0.1,0-0.1,0.1-0.2C70.4,112.6,70.4,112.7,70.3,112.7
			z M70.3,120C70.3,120,70.4,120,70.3,120C70.3,120,70.3,120,70.3,120C70.3,120,70.3,120,70.3,120z M70.8,115.8
			C70.6,116.1,70.5,115.9,70.8,115.8C70.7,115.9,70.7,115.8,70.8,115.8z M71.1,111.6c-0.3,0.1-0.2,0,0-0.2
			C71.3,111.5,71.1,111.4,71.1,111.6z M71.2,111.1c-0.2,0.1,0.1,0-0.1,0.1C70.9,111.5,71,111.1,71.2,111.1
			C71.2,111.1,71.2,111.1,71.2,111.1z M71.2,119.7C71.2,119.7,71.2,119.7,71.2,119.7C71.2,119.8,71,119.8,71.2,119.7
			C71.2,119.7,71.2,119.7,71.2,119.7z M71.2,111.3C71.2,111.4,71.2,111.2,71.2,111.3C71.2,111.2,71.2,111.2,71.2,111.3z M71.5,110.6
			c-0.1,0-0.2,0.3-0.1,0.1c0.1,0,0.3-0.1,0.3-0.3c0,0,0.1,0,0,0c0,0,0,0,0,0c0,0,0,0,0,0C71.6,110.6,71.4,110.5,71.5,110.6z
			 M71.5,110.8c0,0.2,0.2,0.1,0.1-0.1C71.6,110.8,71.5,110.7,71.5,110.8z M71.7,110.4C71.7,110.4,71.7,110.4,71.7,110.4
			C71.7,110.4,71.7,110.4,71.7,110.4z M72.1,114.6c-0.1-0.1,0-0.2,0-0.2c0.1,0,0.1,0,0.2-0.1C72.4,114.3,72.1,114.5,72.1,114.6z
			 M72.2,114.7C72,115,71.9,114.8,72.2,114.7C72.2,114.6,72.3,114.6,72.2,114.7z M72.2,119.2C72.2,119.1,72.2,119.1,72.2,119.2
			C72.2,119.1,72.2,119.1,72.2,119.2z M72.7,114.1c0,0.1-0.1,0.2-0.2,0.3c0,0,0,0,0,0c0,0,0,0,0,0c-0.2,0-0.3,0.3-0.2,0
			C72.5,114.3,72.5,114.2,72.7,114.1C72.7,114.1,72.7,114.1,72.7,114.1z M72.7,113.6c-0.1,0.1-0.2,0.2-0.2,0.2
			c-0.1,0.1,0.1,0.2,0.1,0.1c0-0.2,0.3-0.2,0.2-0.3C72.7,113.6,72.7,113.5,72.7,113.6z M72.8,114.1c-0.2,0,0.1-0.3,0.1-0.3
			C73,113.8,72.8,114,72.8,114.1z M73,113.3c0.1,0.1-0.2,0.1,0.1-0.1C73.1,113.2,73,113.3,73,113.3z M73.3,112.8c0-0.1-0.1,0,0-0.2
			C73.2,112.8,73.2,113,73.3,112.8z M73.5,112.5C73.5,112.5,73.5,112.5,73.5,112.5C73.5,112.5,73.5,112.5,73.5,112.5z M73.6,112.5
			C73.5,112.7,73.5,112.6,73.6,112.5C73.6,112.5,73.6,112.5,73.6,112.5z"/>
		<path d="M77.4,107.9c0.2,0,0.2,0.1,0.3,0.1c0,0.1,0.1,0.2,0.3,0.2c1.1-0.3,2.2-0.5,3.2-0.6c0.3,0,0.9-0.1,1.1,0
			c0.2-0.2,0.3,0.1,0.4,0.1c0.1-0.1,0.2,0.1,0.2,0.1c0,0.1,0.2,0.1,0,0.2c0.1,0,0.1,0.2-0.1,0.3c0,0-0.1,0.2-0.1,0.2
			c0,0.2,0,0.2-0.1,0.2c0,0.2,0.2,0.2,0.2,0.3c-0.1,0.1-0.1,0.1-0.2,0.3c-0.3-0.1-0.2,0.2-0.1,0.2c0,0.2-0.3-0.1-0.2,0
			c-0.2,0-0.2,0.1-0.4,0c-0.2,0.1-0.3,0-0.4,0.2c-0.1,0.1-0.2,0,0-0.1c-0.1,0.1-0.2,0-0.3,0.1s0,0-0.2,0.1c0-0.2-0.3,0.1-0.3,0
			c-0.1,0-0.2,0.1-0.4,0.1c0,0.1-0.3-0.1-0.5,0.1c0,0,0,0,0,0c0,0,0,0,0,0c0.2,0,0.4,0.1,0.1,0.2c0-0.2-0.3,0.2-0.4,0.1
			c0,0-0.5,0.2-0.3,0c-0.2-0.1-0.1,0.2-0.2,0.1c-0.2,0.1-0.3-0.1-0.3-0.1c0.2,0.2-0.3,0.3-0.2,0.1c-0.2-0.1-0.1-0.1,0-0.2
			c-0.3-0.2,0,0.3-0.2,0.1c-0.2,0,0,0.2-0.2,0.2c-0.1-0.1-0.2,0.1-0.1,0.3c-0.1,0.2,0-0.2-0.1,0.1c0,0.1,0,0-0.1,0.2
			c0.1,0.1-0.1,0.1,0.1,0.2c0,0.3-0.3,0.2-0.2,0.3c-0.1,0.1,0,0.1,0,0.3c-0.1,0.2-0.3,0.3-0.1,0.4c0,0-0.1,0.1-0.1,0.1c0,0,0,0,0,0
			c0,0,0,0,0,0c0,0.1-0.1,0.1-0.1,0.1c0,0,0.2,0.2,0,0.2c0,0,0,0.2,0,0.4c0,0,0,0,0,0c0,0,0,0,0,0c0,0,0,0,0,0.1c1-0.3,2-0.6,3-0.7
			c0.4,0,0.9-0.1,1.2,0c0,0,0.1,0,0.1,0.2c0.2,0.2-0.1,0.1,0.1,0.2c-0.2,0.2,0,0.1,0,0.3c-0.1-0.1-0.1,0-0.1,0.1c0.2,0,0,0.1,0,0.2
			c-0.1-0.1-0.1-0.3-0.1,0c0.1,0.1,0.3,0.3,0.1,0.2c0,0-0.1,0.1-0.2,0.2c0,0,0,0,0,0c0,0,0,0,0.1,0c0.1,0.1,0.2,0.1,0,0.2
			c-0.3,0.2,0,0,0,0.2c0.2-0.1,0,0.2-0.1,0.2c-0.2,0-0.2,0.2-0.1,0.1c0.1,0-0.1,0.2-0.1,0.1c0,0.2-0.5,0.1-0.4,0.2
			c-0.2-0.1-0.2,0.2-0.3,0.1c-0.2,0.2-0.2-0.1-0.2,0.1c-0.2,0-0.4-0.1-0.6,0c-0.1,0.1-0.3,0-0.4,0.1c-0.1,0-0.1,0-0.2,0
			c-0.2-0.1-0.1,0.2-0.2,0.1c0.2-0.1-0.5,0-0.2,0.1c-0.2,0.2-0.2-0.2-0.4,0c-0.2,0.2-0.1,0.1-0.2,0.1c-0.1,0-0.2,0-0.2,0.1
			c0.1,0.1-0.1,0.1,0,0c-0.1,0.1-0.2,0.1-0.3,0.1c-0.1,0.1-0.2,0.1-0.2,0.1c-0.1-0.1-0.1,0.1-0.2,0c-0.1,0.2-0.5,0.2-0.4,0.2
			c-0.2-0.1-0.1,0.5-0.2,0.8c-0.2,0,0.1,0.1,0,0.3c-0.1,0.1,0,0.3,0,0.4c-0.1,0,0.2,0.3,0,0.4c0,0.4,0.1-0.1,0,0.2c0,0,0,0.1,0,0.1
			c0,0,0,0,0,0c0.1,0,0.1,0.1,0,0.1c0,0.1,0,0.1,0.1,0.2c0.1,0.3-0.1,0,0,0.2c0.1,0.1,0,0.1,0.1,0.2c0.8-0.2,1.6-0.8,2.3-1.3
			c0.1,0,0.1,0,0.3,0.1c0.1-0.1,0.1,0,0.2,0.1c0.3-0.1-0.1,0.2,0.1,0.1c0.2,0.1,0.3-0.2,0.4,0c-0.1,0.1,0.1,0.1,0.2,0
			c0.1,0,0.1,0.2,0.1,0.1c0,0,0,0,0,0c0,0,0,0,0-0.1c0,0.2,0.5-0.1,0.4,0.1c0.3,0,0.1,0.3,0.2,0.3c0.1,0,0,0.2,0.2,0.1
			c0,0.2-0.2-0.1-0.2,0.1c0,0.2-0.2,0.1-0.1,0c-0.1,0-0.2,0.3-0.1,0.2c0,0.1-0.1,0.2-0.3,0.3c-0.2,0.2-0.4,0.2-0.5,0.4
			c-0.1,0.1-0.4,0.2-0.2,0.2c0.1,0,0.3-0.2,0.4-0.2c0,0.3,0.1,0.1,0.2,0.1c0.1-0.1,0.3-0.2,0.3-0.3c0.2-0.1,0.2,0,0,0.1
			c-0.3,0.1-0.5,0.4-0.7,0.5c-0.1,0.2-0.3,0.1-0.3,0.2c-0.1,0-0.2,0.2-0.4,0.2c-0.1,0-0.1,0.1-0.3,0.2c-0.3,0.1-0.7,0.3-1.1,0.3
			c-0.3,0-0.6-0.1-0.9-0.2c-0.2,0-0.3-0.1-0.5-0.2c0.2,0-0.1-0.2-0.2-0.2c-0.2-0.2-0.1,0.1-0.2,0c-0.3-0.2,0,0.1-0.2,0
			c-0.1-0.1-0.1-0.1-0.2-0.1c0,0,0,0,0,0c0,0,0,0,0,0c0,0-0.1,0-0.1,0c-0.8-0.4-1-1.3-1.1-2.1c-0.1-1.8,0.3-3.6,0.8-5.3
			c0.1-0.3,0.4-0.8,0.3-0.9c0-0.2-0.1-0.1-0.2-0.4c-0.2,0.1-0.1-0.2-0.1-0.3c0.1-0.1-0.2,0-0.3-0.2c0.4,0-0.1-0.1,0.1-0.2
			c0.2,0,0.1-0.1,0.2-0.2c-0.1-0.2,0-0.2,0-0.3c0.2,0,0.2-0.2,0.2-0.2c0-0.2-0.1,0-0.2-0.1c0.2,0,0-0.1-0.1-0.1
			c0.1,0.2-0.2-0.3-0.2-0.2c0-0.1,0.4-0.1,0.2-0.1c0.7-0.2,1.6-0.1,1.6-0.7c0-0.2,0.2-0.3,0.2-0.2C77.2,108.1,77.2,107.8,77.4,107.9
			C77.3,107.9,77.3,107.9,77.4,107.9z M75.8,119.5C75.8,119.5,75.8,119.5,75.8,119.5C75.8,119.5,75.8,119.5,75.8,119.5z M76.6,119.8
			C76.6,119.8,76.6,119.8,76.6,119.8C76.6,119.8,76.6,119.8,76.6,119.8z M77.4,112.4C77.3,112.5,77.5,112.4,77.4,112.4L77.4,112.4z
			 M77.6,119.9c0.3,0.1,0.3,0.1,0.5,0c0-0.1-0.4,0.1-0.2,0C78.1,119.8,77.8,119.9,77.6,119.9C77.7,119.8,77.5,119.9,77.6,119.9z
			 M77.7,119.9C77.6,120,77.8,119.9,77.7,119.9C77.7,119.9,77.7,119.9,77.7,119.9z M77.8,107.9C77.9,108.1,77.6,108,77.8,107.9
			C77.8,107.9,77.8,107.9,77.8,107.9z M78.1,119.8c-0.2,0.3,0,0.1,0.2,0.1c0.1,0,0.3,0,0.2-0.1C78.5,119.8,78.2,119.9,78.1,119.8z
			 M78.5,110.2C78.6,110.2,78.6,110.2,78.5,110.2C78.5,110.2,78.5,110.2,78.5,110.2z M79.3,119.4c0,0.1-0.3,0.1-0.4,0.2
			c-0.3,0.2,0,0.1,0,0.1c0.2,0,0.3-0.1,0.5-0.1c0-0.1,0.4-0.4,0.2-0.2c0.1,0.1,0.2-0.2,0.1-0.2C79.6,119.4,79.4,119.3,79.3,119.4z
			 M79.1,119.8C79.1,119.8,79.1,119.8,79.1,119.8C79,119.8,79.1,119.8,79.1,119.8C79.1,119.9,79.1,119.9,79.1,119.8
			C79.2,119.8,79.2,119.8,79.1,119.8z M80.4,117.6C80.4,117.6,80.4,117.6,80.4,117.6C80.4,117.6,80.4,117.6,80.4,117.6z M80.7,109.9
			C80.7,110,80.5,109.9,80.7,109.9C80.7,109.9,80.7,109.9,80.7,109.9z M80.8,118.6C80.6,118.8,80.6,118.6,80.8,118.6
			C81,118.5,80.8,118.5,80.8,118.6z M81,118.6C81,118.6,81,118.6,81,118.6C81,118.6,81,118.7,81,118.6z M81.7,113.4
			C81.7,113.4,81.7,113.4,81.7,113.4C81.7,113.4,81.7,113.4,81.7,113.4z M81.7,113.7C81.7,113.7,81.7,113.7,81.7,113.7
			C81.8,113.6,81.8,113.8,81.7,113.7z M82,109.4C81.9,109.5,82.1,109.4,82,109.4C82,109.4,82,109.4,82,109.4z M82.4,108.4
			c0.1,0.1-0.1,0.3,0.2,0.2C82.5,108.4,82.7,108.4,82.4,108.4C82.4,108.4,82.4,108.4,82.4,108.4z"/>
		<path d="M90.9,107.1c0.1,0.1,0.3,0.3,0.4,0.4c0.1,0.1,0.2,0,0.3,0.1c0.1,0.2,0.4,0.2,0.4,0.4c0.2,0.2,0.2,0.4,0.3,0.6
			c0,0.4,0.2,0.3,0.2,0.7c-0.1,0-0.1,0.1-0.1,0.2c0.1-0.2,0.2,0.3,0,0.2c0,0.4,0.1,0.9,0,1.3c-0.1,0.1,0.2,0.1,0,0.2
			c-0.1,0.1,0,0.1,0,0.2c0-0.1,0-0.1,0-0.1v0c0.1-0.1,0.1-0.1,0.1,0.2c-0.1,0-0.2,0.4-0.1,0.3c0.1,0.2,0,0.4,0,0.7
			c0.1,0.1-0.1,0.4,0.1,0.2c0,0.2,0,0.2-0.1,0.1h0c0,0,0,0-0.1,0.1c0,0.3,0.2,0.3,0.1,0.5c0.1,0.1-0.2,0.4,0,0.5
			c0,0.2-0.2,0-0.1,0.2c0.1-0.1,0.1,0.1,0.2,0.1c-0.1,0.1-0.2,0.1-0.2,0.2c0.2,0,0.2,0.2,0,0.3c0,0.1,0.4,0,0.2,0.1
			c-0.2-0.1-0.1,0.2-0.2,0.1c-0.1-0.1-0.1,0.1-0.1,0.1c-0.1,0.1,0.4-0.1,0.2,0c-0.2,0,0.1,0.2-0.1,0.1c-0.1,0.1,0.1,0-0.1,0.2
			c-0.1-0.2,0,0.1-0.1,0.2c-0.1,0,0.1,0.3,0,0.3c0,0.2,0,0.2,0,0.5c0,0.2,0,0.4,0,0.6c0.2,0.1,0,0.1,0,0.2c-0.1,0-0.1,0.3-0.1,0.3
			c0.2,0.1-0.1,0.1,0,0.2c-0.1,0.1,0,0.4-0.1,0.5c0,0.2,0,0.3,0.1,0.4c0,0.3-0.4-0.2-0.3,0c-0.1,0-0.1,0.1-0.1,0.1
			c-0.1,0-0.2,0.1-0.3,0c0.1,0-0.2-0.1-0.2-0.1c0,0.2-0.2-0.2-0.2-0.1c-0.1,0.2-0.2-0.2-0.4-0.1c0-0.2-0.2-0.3-0.1-0.1
			c-0.1,0.2-0.3-0.1-0.3,0.1c-0.1,0.3-0.1-0.1-0.2,0c0,0.1-0.2-0.1-0.2,0c-0.2,0,0.2-0.2-0.1-0.2c0-0.5,0.1-1.1,0.1-1.6
			c0-0.3,0.2-1-0.2-0.9c-0.4-0.2,0.4,0,0.2-0.2c0.1-0.1,0-0.2-0.3-0.1c0.2,0.1-0.1,0.2,0,0c-0.1,0-0.3,0-0.4,0.1
			c-0.2,0-0.2,0.2,0,0.1c0.2,0.1-0.3,0.1-0.2,0.2c0.1,0,0,0.1,0.1,0.1c-0.2,0-0.6,0.2-0.6,0c-0.2,0.2-0.1,0-0.3,0
			c-0.2,0.2-0.3,0-0.5,0.1c-0.1-0.2-0.3,0-0.4-0.1c0,0.1,0,0.3,0,0.1c-0.1,0.1-0.1,0.2,0.1,0.1c0.2,0,0.1,0.4-0.1,0.3
			c-0.1,0.1,0,0.3-0.1,0.2c-0.1-0.3-0.3,0.5-0.2,0.4c0.1,0,0.1,0.3,0,0.2c0-0.2-0.4,1-0.4,1c0-0.2-0.2,0.1,0,0.1
			c0,0.2-0.1,0.3-0.1,0.1c-0.1,0.1-0.1,0.3-0.1,0.2c0,0,0,0.1,0,0.1c0,0.1,0,0.1-0.1,0.1c-0.3-0.1,0.2,0.2,0,0.1
			c0.1,0.2-0.3-0.1-0.2,0c-0.1-0.2-0.3,0.4-0.2,0c0.1-0.1-0.2-0.3,0-0.1c0,0.1,0,0.2-0.1,0.1c0,0,0.1,0,0,0c0,0,0,0,0,0
			c0,0,0-0.1,0-0.2c-0.3,0.1,0.1,0-0.1,0.2c0-0.1-0.2,0.1-0.2-0.1c0.2-0.1-0.2-0.2-0.2,0c0.2-0.2,0.1,0.2,0,0.1
			c0-0.2-0.2-0.1-0.1-0.2c0-0.4-0.2,0.3-0.2-0.1c0.1,0,0.1-0.3-0.1-0.2c-0.2,0.1,0-0.2-0.1-0.2s-0.2,0.1-0.3,0.1
			c0,0.1-0.2,0.1-0.2,0.1c0.1-0.2-0.2,0.2-0.1-0.1c0-0.1,0-0.3,0-0.3c0.1-0.2,0.1-0.1,0.1-0.3c0,0,0-0.2,0-0.2
			c0.9-3.1,2.5-7,3.8-8.8c0.5-0.7,1.1-1.5,1.9-1.8c-0.1,0.1,0.1,0,0.1,0c0,0,0.1-0.1,0.1-0.1C90.7,106.9,90.8,107,90.9,107.1z
			 M85.8,119C85.8,119,85.8,119,85.8,119C85.8,119,85.8,119,85.8,119z M87.2,117.3C87.3,117.6,87.1,117.3,87.2,117.3
			C87.2,117.3,87.1,117.3,87.2,117.3z M87.7,116c0.2,0.2-0.1,0-0.1,0.1C87.5,116.1,87.5,116,87.7,116C87.6,116,87.7,116,87.7,116z
			 M88.8,115.7C88.8,115.7,88.8,115.7,88.8,115.7c-0.3,0-0.5,0.1-0.8,0.1c-0.4,0-0.1,0.2,0.1,0.1c0.1,0,0.4,0,0.3-0.1
			C88.5,115.8,88.9,115.8,88.8,115.7C88.8,115.7,88.8,115.7,88.8,115.7z M88.3,116C88.3,116.1,87.9,116.1,88.3,116
			C88.3,116,88.3,116,88.3,116z M90.3,110.1c-0.1,0.1-0.1,0.3-0.2,0.3c0,0.2-0.4,0.2-0.2,0.3c0.1,0-0.3,0.4-0.3,0.2
			c0.1-0.1,0.1,0,0.1-0.2c-0.1,0.1-0.2,0-0.2,0.1c0,0,0,0,0,0c0,0,0,0,0,0c0,0-0.1,0.1-0.1,0.1c0,0,0,0,0,0c0,0,0,0,0,0.1
			c0,0,0,0.1-0.1,0c0,0.1,0,0,0,0.2c-0.2,0.2,0.1,0.1,0,0.2c0,0,0,0.3-0.1,0.1c0.2-0.2-0.1-0.1-0.1,0.1c-0.1,0.1-0.1,0.2-0.2,0.2
			c0,0.2-0.1,0.2-0.2,0.4c0,0.3,0.1,0,0.2-0.1c0.1-0.1,0.1-0.4,0.2-0.3c0,0-0.1,0.1-0.1,0.3c-0.1,0.1-0.1,0.1-0.2,0.3
			c-0.2,0.1,0,0.4-0.2,0.4c0-0.2,0-0.1-0.1,0.1c-0.2,0-0.3,0.2-0.1,0.3c0,0,0,0.1,0,0.1c0.2,0.1,1.1-0.1,1.6-0.1
			c0.1-0.7,0.1-1.5,0.2-2.2c0-0.3,0.2-0.9,0-1C90.3,110,90.3,110.1,90.3,110.1z M88.6,112.8c0.1,0.1,0.1-0.1,0.2-0.2
			c-0.1,0,0,0,0-0.1C88.7,112.6,88.7,112.7,88.6,112.8z M88.7,112.9C88.9,113.1,88.7,113.1,88.7,112.9
			C88.7,112.9,88.7,112.9,88.7,112.9z M89.6,115.7c0,0-0.1,0-0.1,0.1C89.1,115.8,89.4,115.8,89.6,115.7
			C89.5,115.7,89.5,115.7,89.6,115.7z M89.4,115.7c0-0.2-0.2,0,0.1-0.2C89.6,115.5,89.5,115.6,89.4,115.7z M89.5,111
			C89.5,111,89.5,111,89.5,111C89.5,111,89.5,111,89.5,111z M89.6,110.9C89.6,110.9,89.6,110.9,89.6,110.9
			C89.6,110.9,89.6,110.9,89.6,110.9z M89.7,111C89.7,111,89.7,111,89.7,111C89.8,111,89.6,111.2,89.7,111z M90.3,109.8
			c-0.1,0.1-0.1,0.2-0.2,0.2c0,0.1-0.3,0.4-0.2,0.3c0.1,0.2,0.3-0.2,0.2-0.2C90.2,110,90.3,110,90.3,109.8
			C90.4,109.9,90.4,109.9,90.3,109.8C90.4,109.8,90.4,109.8,90.3,109.8c0.1,0,0.1-0.1,0.1-0.1C90.4,109.7,90.3,109.8,90.3,109.8z
			 M90.2,109.7C90.1,109.9,90.3,109.8,90.2,109.7C90.2,109.7,90.2,109.7,90.2,109.7z M90.4,109.9C90.4,109.9,90.4,109.9,90.4,109.9
			C90.4,109.9,90.4,109.9,90.4,109.9z M91.6,118.8C91.7,118.9,91.6,118.9,91.6,118.8C91.6,118.8,91.6,118.8,91.6,118.8z M92.4,112.6
			C92.4,112.6,92.4,112.6,92.4,112.6C92.3,112.6,92.4,112.7,92.4,112.6z"/>
		<path d="M99.3,106.6c0,0,0.2,0.1,0.2,0.1c-0.1-0.1,0.2,0,0,0.2c0.1-0.1,0.1,0.2,0.2,0.2c0.1,0.1,0.2,0.2,0.2,0.2
			c0.1,0.1,0.1,0,0.2,0c0.1,0,0,0.2,0.2,0.2c0.2-0.1,0,0.2,0.1,0.1c0.1,0.1,0.2,0.2,0.2,0.4c0,0.1,0.2-0.1,0.1,0.3
			c0,0.1,0.1,0.2-0.1,0.3c0,0.2,0,0.3,0.1,0.5c-0.1,0.5,0-0.3-0.1,0.1c0,0.2-0.1,0.2-0.1,0.4c0,0,0,0,0,0.1c0,0,0,0,0,0
			c0,0,0,0.1,0,0.2c-0.1,0-0.1,0.4-0.1,0.4c-0.1,0.2,0,0.2-0.1,0.4c-0.1,0.2,0,0.4-0.1,0.6c0,0,0,0,0,0c0,0,0,0,0,0
			c0,0.1,0,0.1,0,0.1c0,0.1-0.1,0.2-0.1,0.3c-0.1,0.1,0,0.4-0.1,0.4c-0.1,0.1,0,0.1-0.1,0.2c0,0.2-0.1,0.6-0.1,0.8
			c-0.1,0.4-0.2,0.9-0.3,1.4c-0.1,0.3-0.1,0.7-0.1,1c0,0.3-0.1,0.4-0.1,0.7c0,0.3,0,0.5-0.1,0.8c0,0.2,0,0.3,0,0.5
			c0,0.3,0,0.7,0,0.9c0,0.1,0.1,0.3-0.1,0.5c0.1,0,0.1,0.2,0,0.2c-0.2,0.2,0-0.2-0.2-0.2c0.1-0.2,0,0-0.1-0.2
			c-0.1,0.1-0.1,0.2-0.1,0c-0.1,0.3-0.1,0-0.2,0c0-0.2-0.1,0.2-0.1,0c-0.1-0.2-0.2,0.1-0.2,0.1c-0.1-0.2-0.2-0.1-0.3-0.2
			c-0.2,0.2-0.3-0.8-0.4-0.6c-0.1-0.2-0.2,0.1-0.2,0.1c-0.1,0.1-0.1,0.3-0.3,0.5c0-0.1-0.1,0-0.1,0.1c-0.2,0.1-0.1,0-0.1-0.1
			c-0.1,0.1-0.3,0.3-0.6,0.2c0-0.1-0.1-0.1-0.2-0.1c0,0.1-0.1,0.1,0,0c-0.1,0-0.2,0-0.3-0.1c-0.2-0.1-0.3,0-0.4-0.1
			c-0.1,0.1-0.1-0.1-0.1-0.1c-0.2-0.1-0.1-0.1-0.4-0.2c-0.3,0-0.2-0.1-0.5-0.1c-0.3,0.2,0,0-0.3-0.1c-0.1,0,0.1,0.2-0.2,0
			c-0.8-0.6-1-1.7-0.9-2.6c0.1-2.4,0.8-4.8,1.7-7c0.1-0.5,0.6-1.1,0.5-1.4c0.2-0.2,0.1-0.1,0.1-0.2c0.1-0.2,0.3-0.1,0.3,0
			c0.2-0.1,0-0.2,0.3-0.1c0.1,0,0.2,0.2,0.3,0.3c-0.1,0.2,0,0.2,0,0.4c0.1-0.3-0.1,0.2,0.1,0c0,0.2-0.1,0.2,0.1,0
			c-0.1-0.2,0.3,0,0.1,0c0.2,0.1-0.2,0.2,0,0.2c0-0.1,0.1,0,0.2,0.1c0.1,0.1,0.1,0.2,0.2,0.2c0,0,0,0,0,0c0,0,0,0,0,0
			c0,0.2,0,0.4-0.1,0.6c-0.1,0.1-0.3,0.4-0.1,0.4c-0.1,0.2-0.1,0.2-0.1,0.5c-0.1,0.3-0.1-0.1-0.2,0.2c0.2,0.1,0,0.1,0,0.3
			c0.2,0.1-0.1,0.5,0,0.3c-0.1,0.1-0.1,0.1,0,0.3c0,0-0.1,0-0.2,0.1c-0.1,0.1,0,0.2,0,0.2c-0.1,0.2-0.1,0.1,0,0.3
			c-0.2-0.1-0.1,0-0.2,0.1c0,0,0,0,0,0c0,0,0,0,0,0c-0.1,0.2,0,0.2-0.1,0.3c0,0.1-0.2,0.3-0.1,0.5c0.1,0.1,0.1,0.3,0,0.3
			c-0.1-0.2-0.1,0.2-0.1,0.2c-0.2,0.1,0.1,0.2-0.1,0.2c0.1,0.2,0,0-0.1,0.2c0.1-0.2,0.1,0.3,0,0.4c0,0.1,0,0.3-0.1,0.4
			c-0.1,0.2-0.1,0.3-0.1,0.4c0,0.1-0.2,0.2,0,0.2c0,0,0,0.1,0,0.1c0,0,0,0,0,0c0,0,0,0.1,0,0.1c0,0.1,0,0.1,0,0.1c0,0,0,0,0,0
			c0,0,0,0,0,0c0,0,0,0.1,0.1,0.1c-0.1,0.1-0.1,0.3-0.1,0.3c0,0.1,0,0.2,0,0.3c0.1,0.1-0.1,0.5,0.1,0.6c-0.1,0.1,0.1,0.2,0.1,0.4
			c0,0.2-0.1,0.4,0.1,0.2c0.4-0.3,0.7-0.6,1-1c0.3-0.4,0.8-0.7,0.8-1.2c0.2-1.8,0.6-3.5,1-5.2c0.2-1,0.4-2,0.8-2.9
			c0-0.3,0.1,0.2,0.1,0C99.2,106.7,99.1,106.7,99.3,106.6C99.3,106.5,99.3,106.6,99.3,106.6z M94.3,118.4
			C94.3,118.4,94.2,118.4,94.3,118.4C94.2,118.4,94.3,118.4,94.3,118.4z M95.1,118.5c0.1,0.1,0.1,0.1,0.2,0.1
			C95.7,118.9,95.4,118.5,95.1,118.5C95.1,118.5,95.1,118.5,95.1,118.5z M95.2,114.8C95.2,114.8,95.2,114.8,95.2,114.8
			C95.2,114.8,95.2,114.8,95.2,114.8z M95.3,113.6C95.5,113.5,95.3,113.7,95.3,113.6C95.3,113.6,95.3,113.6,95.3,113.6z M96.7,118.4
			c-0.1,0-0.3,0.1-0.4,0.2c-0.2,0-0.2,0-0.3,0c-0.1,0-0.1,0-0.2,0c0,0,0,0,0,0c0,0,0,0,0,0c0,0,0,0-0.1,0c0,0-0.1-0.1-0.1,0
			c0.1,0.2,0.4,0.2,0.6,0.2c-0.2,0.2,0,0,0.1-0.1c0,0.2,0.4,0,0.6-0.1c0.3-0.2-0.1,0,0-0.2C96.8,118.4,96.8,118.4,96.7,118.4z
			 M95.8,118.6C95.8,118.6,95.8,118.6,95.8,118.6C95.8,118.6,95.8,118.6,95.8,118.6z M96.2,110.7C96.2,110.7,96.2,110.7,96.2,110.7
			C96.2,110.7,96.2,110.7,96.2,110.7z M96.2,118.5C96.1,118.5,96.4,118.5,96.2,118.5C96.3,118.5,96.2,118.5,96.2,118.5z M96.6,108.2
			c0.2,0.2,0.1-0.1,0.1-0.2C96.4,108.2,96.3,108.2,96.6,108.2z M96.8,108.1C96.8,108.1,96.8,108.1,96.8,108.1S96.8,108.1,96.8,108.1
			z M100,111.8L100,111.8C99.9,111.8,100.1,111.8,100,111.8z"/>
		<path d="M106.7,106.4c0.4,0.1,0.4,0.1,0.5,0.3c0.2,0.1,0.1,0.3,0.3,0.3c0,0.1,0.1,0.3,0.1,0.4c-0.1,0.3,0.2,0.2,0.1,0.4
			c0,0.2,0.2,0.4,0.2,0.5c0,0,0,0.2,0,0.2c0,0.2,0.2,0.4,0.1,0.6c0,0.2-0.1,0.4-0.2,0.7c0,0.2-0.2,0.4-0.3,0.7c0,0,0,0,0,0
			c0,0,0,0,0,0c0,0,0,0.1,0,0.1c-0.1,0-0.2,0.2-0.1,0.3c-0.1,0-0.2,0-0.2,0.2c0.1,0-0.1,0.3,0,0.1c-0.1,0-0.2,0.2-0.1,0.3
			c-0.1,0.4-0.1-0.1-0.3,0.3c-0.2,0.3,0,0.2-0.2,0.5c-0.1,0.2-0.3,0.3-0.2,0.4c-0.1,0.1,0,0.1,0,0.1c-0.2,0.1-0.1,0.3-0.5-0.1
			c-0.4-0.4-1.1-1.1-0.8-1.7c0.3-0.6,0.7-1.2,1-1.8c0.2-0.1,0.1-0.5,0.2-0.3c0.1-0.1,0.1-0.3-0.1-0.2c0.1-0.1,0-0.1-0.1,0
			c-0.1,0,0.2,0.4-0.1,0.2c-0.2-0.1,0,0.1,0,0.1c-0.2,0.1-0.7,0.1-0.8,0.2c0-0.2-0.2,0.1-0.2,0.1c-0.3,0.2-0.7,0.4-0.9,0.6
			c-0.1,0.2-0.5,0.1-0.5,0.3c0.1,0.1-0.1,0.1-0.2,0.2c-0.1-0.2-0.4,0.3-0.5,0.4c-0.2,0-0.3,0.5-0.3,0.3c-0.2,0.2-0.1,0.1,0,0.3
			c-0.1,0-0.2,0.1-0.2,0.2c-0.1,0.1,0,0.2-0.1,0.2c-0.1,0.2-0.2,0.2-0.2,0.4c0.3,0.3,0.8,0.5,1.1,0.7c0.8,0.4,1.8,0.7,2.4,1.4
			c0.2,0.2,0.1,0.2,0.2,0.3c0,0.1,0.1,0.1,0.1,0.2c0,0,0,0,0,0c0,0,0,0.1,0,0c0,0,0.1,0.1,0.1,0.2c0.4,0.5,0.6,1,0.6,1.6
			c0,0.2-0.1,0.3-0.1,0.4c0,0.2-0.4,0.3-0.2,0.3c-0.2,0.2-0.5,0.4-0.7,0.6c-0.2,0.1-0.3,0.2-0.5,0.2c-0.1,0.1-0.2,0.2-0.4,0.2
			c0,0.1-0.2,0.1-0.2,0.1c-0.1,0-0.2,0.1-0.2,0.1c-0.2,0.1-0.2,0.1-0.3,0.1c-0.2,0.1-0.3,0.1-0.4,0.1c-0.1,0.2-0.1,0-0.3,0.1
			c-0.1,0-0.1,0-0.2,0c-0.3,0-0.1,0-0.2,0.1c-0.1,0-0.1,0-0.2,0c0,0,0,0,0,0c0,0,0,0,0,0c-0.1,0-0.1,0-0.2,0c-0.1-0.1,0,0.2-0.1,0
			c-0.2,0.1-0.5,0.2-0.4-0.1c-0.2-0.2,0.2,0.1,0.1,0c0.1-0.1,0.2,0,0.2,0c0,0,0,0-0.1-0.1c0.2-0.1,0.4,0,0.7-0.1
			c0.2-0.2,0.1,0,0.4-0.1c0-0.1,0.1-0.2,0.2-0.1c0.1-0.1,0.1,0,0.2,0c0.2,0,0.2-0.2,0.2-0.2c0.1,0,0.2,0.1,0.3,0.1
			c0.1,0-0.1-0.1,0-0.2c0.2-0.1,0.3,0.1,0.4,0c0-0.1-0.3,0-0.1-0.1c0.4-0.1,0.1-0.1-0.1,0c-0.2,0.1-0.4,0.1-0.6,0.2
			c-0.1,0.1-0.2,0-0.3,0.1c-0.2,0-0.4,0-0.5,0.1c-0.2,0.1-0.1-0.1-0.3,0c-0.2,0-0.2,0.2-0.2,0c-0.2,0,0,0.2-0.2,0
			c-0.1,0.1,0.1-0.1-0.1-0.1c-0.2,0-0.7,0-0.6-0.1c0,0,0,0,0,0c0,0-0.1,0,0,0c-0.1,0-0.3,0-0.4-0.2c0-0.2,0.1-0.2-0.2-0.3
			c-0.1,0.1-0.2,0-0.3,0c-0.2,0-0.2-0.2-0.3-0.2c-0.3-0.1,0.5-0.2,0.2-0.2c-0.2-0.1,0.1,0,0.1-0.2c1.1-0.2,2.3-0.4,3.3-0.9
			c0.2-0.2,1.1-0.5,0.6-0.7c-0.2-0.1-0.4-0.2-0.6-0.2c-0.2-0.1-0.5-0.2-0.8-0.3c-0.2-0.1-0.3-0.1-0.5-0.3c-0.3-0.2-0.6-0.4-0.9-0.7
			c-0.1-0.2-0.2-0.4-0.3-0.7c-0.1-0.1,0-0.1,0-0.2c-0.1-0.2-0.1-0.4-0.2-0.6c-0.1,0.2-0.1,0,0-0.1c-0.2,0.1-0.2,0-0.2-0.2
			c0,0.1,0-0.2-0.1-0.1c-0.1,0-0.2-0.5-0.1-0.7c0-0.8,0.4-1.5,0.9-2.1c1.1-1.3,2.5-2.3,4.1-2.7c0.3-0.1,0.6-0.2,0.8-0.2
			C106.4,106.4,106.6,106.4,106.7,106.4z M100.9,112.9c-0.1,0,0.3,0.3,0.2,0.2C101,113.1,100.9,113.1,100.9,112.9
			C100.9,112.9,101,113,100.9,112.9z M101,112.9C101.2,113.2,101,113.1,101,112.9C101,112.8,101,112.9,101,112.9z M101.2,113
			C101.2,113.4,101.3,113.2,101.2,113C101.2,112.9,101.2,113,101.2,113z M101.6,113.5C101.6,113.8,101.8,113.8,101.6,113.5
			L101.6,113.5z M101.8,113.9C101.8,113.9,101.8,113.9,101.8,113.9c-0.1,0,0.1,0,0,0.1C101.9,114.1,101.9,113.9,101.8,113.9
			C101.8,113.9,101.8,113.9,101.8,113.9C101.8,113.9,101.8,113.9,101.8,113.9z M101.8,113.9C101.8,113.9,101.8,113.9,101.8,113.9
			C101.8,113.9,101.8,113.9,101.8,113.9z M101.9,118.4C101.9,118.5,101.8,118.5,101.9,118.4C101.9,118.4,101.9,118.4,101.9,118.4z
			 M102,114.1C101.9,114.2,102.1,114.3,102,114.1C102.1,114.1,102,114.1,102,114.1z M102.2,114.2
			C102.3,114.3,102.3,114.4,102.2,114.2c0.2,0.2,0.3,0.3,0.3,0.2C102.4,114.3,102.3,114.2,102.2,114.2
			C102.2,114.2,102.2,114.2,102.2,114.2z M102.7,114.6C102.4,114.5,102.7,114.6,102.7,114.6c0,0.1,0.3,0.2,0.3,0.2c0,0,0,0,0,0
			c0,0,0,0,0.1,0c0,0,0,0,0,0c0.1,0.1,0.2,0.2,0.3,0.1c0.1-0.2-0.1-0.1-0.2-0.2c0,0.1-0.2,0.1-0.3-0.1
			C102.8,114.6,102.6,114.5,102.7,114.6z M102.6,118.8C102.6,118.8,102.7,118.8,102.6,118.8C102.7,118.8,102.6,118.8,102.6,118.8z
			 M102.7,118.7L102.7,118.7C102.6,118.7,102.7,118.7,102.7,118.7C102.7,118.8,102.8,118.7,102.7,118.7
			C102.7,118.7,102.7,118.7,102.7,118.7z M102.7,114.6C102.8,114.6,102.6,114.6,102.7,114.6C102.7,114.6,102.7,114.6,102.7,114.6z
			 M102.7,118.7C102.7,118.7,102.7,118.7,102.7,118.7C102.7,118.7,102.7,118.7,102.7,118.7z M103.1,114.8
			C103.1,114.8,103.1,114.8,103.1,114.8C103.1,114.8,103.1,114.8,103.1,114.8z M103.2,114.8C103.3,114.8,103.3,114.8,103.2,114.8
			C103.4,114.8,103.2,114.9,103.2,114.8z M103.7,115c0,0.1,0.2,0.2,0.3,0.2c0.1,0,0.2,0.1,0.3,0.1c0.1,0.1,0.1,0,0,0
			c-0.2-0.1-0.1-0.1,0.2,0c0.1,0.1,0.3,0.1,0.2,0c0-0.1-0.2-0.1-0.2-0.1c-0.1-0.1-0.3-0.1-0.4-0.2
			C103.9,114.9,103.7,115.1,103.7,115C103.8,114.9,103.7,114.9,103.7,115z M103.9,115.3C104.1,115.3,103.9,115.3,103.9,115.3
			C103.8,115.2,103.9,115.3,103.9,115.3z M107.5,110.9C107.5,110.9,107.4,110.9,107.5,110.9C107.5,110.8,107.5,110.9,107.5,110.9z
			 M107.6,110.4L107.6,110.4C107.6,110.4,107.6,110.4,107.6,110.4z"/>
	</g>
</g>
<g>
	<g>
		<path d="M288.7,177.8c0.4,0.1,0.6,0.3,0.8,0.5c0.2,0.2,0.2,0.4,0.4,0.5c0.1,0.1,0,0.1,0.1,0.2c0,0.1,0.3,0.3,0.2,0.4
			c0,0.2,0.2,0.6,0.1,0.4c0,0,0,0.1,0,0.1c-0.1,0,0,0.1,0,0c0,0.1,0.1,0.2,0.1,0.3c0.1,0.3,0.2,0.5,0.1,0.8c0,0.3,0.2,0.6,0.1,0.8
			c0,0.2-0.1,0.6-0.1,0.8c-0.1,0.4-0.1,0.4-0.2,0.8c-0.1,0.2-0.1,0.4-0.2,0.6c0,0,0-0.2-0.1,0.1c0.1,0.1,0,0.3,0,0.4
			c-0.1,0.1-0.2,0.4-0.1,0.1c0,0.2-0.3,0.5-0.2,0.3c0-0.1-0.2,0.3-0.1,0.3c-0.2,0.1-0.1,0.4-0.2,0.2c-0.1,0.1,0,0.3-0.1,0.2
			c0,0.1-0.1,0-0.1,0.1c0,0-0.1,0.1,0,0.1c0,0,0,0,0,0c0,0,0,0,0,0c0,0,0,0,0,0c-0.1,0.1-0.1,0.1-0.2,0.2c0,0.1,0.1-0.2,0.1,0
			c-0.2,0.3-0.3,0.6-0.5,0.8c-0.1,0.2-0.2,0.3-0.3,0.5c0.1,0.1,0,0-0.1,0.3c-0.1,0-0.2,0.2-0.3,0.4c0,0,0,0,0,0c0,0,0,0,0,0
			c0,0,0,0.1,0,0.1c0,0,0,0.1-0.1,0.2c-0.2,0.2-0.4,0.4-0.6,0.6c-0.1,0.1-0.1,0.1-0.1,0.2c-0.1,0.1-0.1,0.1-0.2,0.2
			c-0.1,0.1-0.4,0.3-0.5,0.4c-0.1,0.1-0.4,0.2-0.6,0.3c0,0-0.3,0.2-0.3,0c-0.2,0,0.4-0.1,0.5-0.2c0.1-0.1,0.3-0.3,0.1-0.3
			c-0.3-0.1-0.1,0.1-0.2,0.2c-0.1,0-0.1-0.2-0.2-0.1c-0.1,0-0.4,0.1-0.3,0.1c-0.2,0-0.3,0.1-0.4-0.1c-0.1,0.1-0.4,0-0.5-0.2
			c-0.2-0.1-0.6-0.1-0.6-0.4c0-0.2-0.2-0.1-0.4-0.2c-0.2-0.1-0.2-0.3-0.4-0.3c0.1-0.2,0.1-0.8,0.1-1.2c0.2-1.8,0.6-3.6,1-5.3
			c-0.1,0,0.2-0.4,0.1-0.4c0,0-0.3,0.1-0.3,0c-0.2-0.1,0.1-0.2,0-0.2c-0.3,0,0-0.4-0.2-0.4c-0.2,0-0.1-0.2-0.2-0.2
			c0-0.2,0-0.2-0.1-0.3c0-0.1,0.2-0.2,0-0.2c0-0.2-0.3-0.1-0.4-0.3c-0.2-0.2,0-0.4,0.1-0.4c0.2-0.3,0.5-0.6,0.8-0.8
			c0.9-0.6,2-1,3.1-1.1C287.7,177.6,288.2,177.7,288.7,177.8z M283.8,181.1C283.9,181.3,284.1,181.2,283.8,181.1
			C283.9,181.1,283.9,181.1,283.8,181.1z M285.2,190c-0.1,0.1-0.1,0.2-0.1,0.1c-0.1,0-0.2,0.1-0.2-0.2
			C285,189.9,285.1,189.8,285.2,190z M286.8,180.1c-0.2,0,0,0.1,0,0.1c0,0,0,0,0,0c-0.1,0.1,0,0,0,0c0,0,0,0-0.1,0.1
			c-0.1,0.1,0.1,0.2,0,0.3c0-0.2-0.1,0.3-0.1,0.4c-0.1,0.1,0,0.3,0,0.4c0.1,0.1-0.1,0.3-0.1,0.5c-0.1,0.1-0.2,0.6,0,0.5
			c-0.1,0.2-0.1,0.4-0.2,0.7c0,0.3-0.2,0.7-0.1,0.9c0,0.2,0,0.4-0.2,0.5c0,0.1-0.1,0.2,0,0.3c0.2-0.1-0.1,0.1,0,0.1c0,0,0,0,0,0.1
			c0,0,0,0,0,0c-0.1,0,0,0,0,0c0,0.1-0.1,0.1-0.1,0.3c0,0.2,0,0.4-0.1,0.5c-0.1,0.2,0,0.4-0.1,0.5c0,0.1,0.1,0.4-0.1,0.2
			c0,0.2-0.1,0.7-0.1,0.7c0,0.1,0.1,0,0.3-0.2c1.3-1.5,2.4-3.1,3.2-4.9c0.1-0.3,0.5-1.1,0.2-1.2c0.1,0,0.1-0.1,0-0.1
			c-0.3,0,0.1-0.1-0.1-0.2c-0.2-0.1-0.3-0.1-0.5-0.1c-0.2-0.1-0.2,0-0.4-0.1c-0.2,0-0.5,0.1-0.6,0c-0.2,0.1-0.3,0-0.5,0
			c-0.2,0.1-0.2,0.1-0.4,0.1C286.6,180.4,287.1,180.1,286.8,180.1C286.8,180.1,286.8,180.1,286.8,180.1z M285.7,186.6
			C285.7,186.7,285.6,186.6,285.7,186.6C285.7,186.6,285.7,186.6,285.7,186.6z M286,189.5C286.1,189.6,285.8,189.6,286,189.5
			C286,189.5,286,189.5,286,189.5C286,189.5,286,189.5,286,189.5C286,189.5,286,189.5,286,189.5z M286,184.7
			C286,184.7,286,184.7,286,184.7C286,184.7,286,184.7,286,184.7z M286.3,189.4c-0.1,0.2,0.2-0.1,0.2-0.1
			C286.4,189.3,286.4,189.4,286.3,189.4z M286.8,180.2C286.8,180.2,286.8,180.2,286.8,180.2C286.8,180.2,286.8,180.2,286.8,180.2z
			 M286.9,180C286.9,180.1,287.1,180,286.9,180C286.9,180,286.9,180,286.9,180z M287.1,179.8C286.9,179.9,286.9,180,287.1,179.8
			C287.1,180,287.4,179.9,287.1,179.8C287.2,179.8,287.1,179.9,287.1,179.8z M287.6,179.9c-0.1,0.1-0.4-0.1-0.5,0.1
			C287.1,180.2,287.4,180,287.6,179.9c0.1,0,0.2,0.1,0.4,0.1c0.2-0.2-0.1-0.1-0.1-0.1C287.8,179.9,287.7,179.9,287.6,179.9z
			 M287.6,179.7C287.6,179.8,287.6,179.8,287.6,179.7C287.5,179.8,287.5,179.8,287.6,179.7c-0.2,0.1-0.4,0-0.2,0.2
			c0.1-0.2,0.2,0,0.3,0c0.2,0,0.1-0.1,0.2,0c0,0,0,0,0,0c0,0,0,0,0,0C287.8,179.8,287.8,179.8,287.6,179.7
			C287.6,179.8,287.6,179.8,287.6,179.7z M288.1,179.9C288.1,180.1,288.2,179.9,288.1,179.9c0,0,0.1-0.1-0.2-0.1
			C287.9,179.8,288,179.9,288.1,179.9z M287.9,188.1C287.9,188.1,287.9,188.1,287.9,188.1C288,188.1,288,188.1,287.9,188.1z
			 M288,180.1C287.9,180.2,288.2,180.1,288,180.1C288,180.1,288,180.1,288,180.1z M288.4,180c0.2,0.1,0.4,0.1,0.7,0.2
			c0.2,0,0.1-0.1,0.2,0.1c0.1,0,0.3,0.1,0.2,0c0-0.2-0.1-0.2-0.2-0.3c-0.2-0.1-0.2,0-0.4-0.1c0,0.1-0.2,0.1-0.4,0
			C288.2,180,288.4,180.1,288.4,180z M289,180.3C289.3,180.4,288.8,180.4,289,180.3C288.9,180.3,288.9,180.3,289,180.3z
			 M289.4,185.9C289.4,185.9,289.4,185.9,289.4,185.9C289.4,185.9,289.4,185.9,289.4,185.9z M289.5,185.8
			C289.5,185.7,289.5,185.7,289.5,185.8C289.5,185.7,289.5,185.7,289.5,185.8z M290.4,179.9C290.4,179.9,290.4,179.9,290.4,179.9
			C290.4,179.8,290.4,179.9,290.4,179.9z"/>
		<path d="M293.5,177.4c0.2,0,0.2,0.1,0.3,0.1c0,0.1,0.1,0.2,0.3,0.2c1.1-0.3,2.2-0.5,3.2-0.6c0.3,0,0.9-0.1,1.1,0
			c0.2-0.2,0.3,0.1,0.4,0.1c0.1-0.1,0.2,0.1,0.2,0.1c0,0.1,0.2,0.1,0,0.1c0.1,0,0.1,0.2-0.1,0.3c0,0-0.1,0.2-0.1,0.2
			c0,0.2,0,0.2-0.1,0.2c0,0.2,0.2,0.2,0.1,0.3c-0.1,0.1-0.1,0.1-0.1,0.3c-0.3-0.1-0.2,0.2-0.1,0.2c0,0.1-0.3-0.1-0.2,0
			c-0.1,0-0.2,0.1-0.4,0c-0.2,0.1-0.3,0-0.4,0.1c-0.1,0.1-0.2,0,0-0.1c-0.1,0.1-0.2,0-0.3,0.1c-0.1,0,0,0-0.2,0.1
			c0-0.2-0.3,0.1-0.3,0c-0.1,0-0.2,0.1-0.4,0.1c0,0.1-0.3-0.1-0.5,0.1c0,0,0,0,0,0c0,0,0,0,0,0c0.2,0,0.4,0.1,0.1,0.2
			c0-0.2-0.3,0.2-0.4,0.1c0,0-0.5,0.2-0.3,0c-0.2-0.1-0.1,0.1-0.2,0.1c-0.2,0.1-0.3-0.1-0.3-0.1c0.1,0.2-0.3,0.3-0.2,0.1
			c-0.2-0.1-0.1-0.1,0-0.1c-0.2-0.2,0,0.3-0.1,0.1c-0.2,0,0,0.2-0.1,0.2c-0.1-0.1-0.1,0.1-0.1,0.3c-0.1,0.2,0-0.2-0.1,0.1
			c0,0.1,0,0-0.1,0.2c0.1,0.1-0.1,0.1,0,0.2c0,0.3-0.3,0.2-0.2,0.3c-0.1,0.1,0,0.1,0,0.3c0,0.2-0.3,0.3-0.1,0.4c0,0,0,0.1-0.1,0.1
			c0,0,0,0,0,0c0,0,0,0,0,0c0,0.1,0,0.1-0.1,0.1c0,0,0.2,0.2,0,0.2c0,0,0,0.2,0,0.4c0,0,0,0,0,0c0,0,0,0,0,0c0,0,0,0,0,0.1
			c1-0.3,2-0.5,3-0.7c0.4,0,0.9-0.1,1.2,0c0,0,0.1,0,0.1,0.2c0.2,0.2-0.1,0.1,0.1,0.1c-0.2,0.1,0,0.1,0,0.3c-0.1-0.1-0.1,0,0,0.1
			c0.2,0,0,0.1,0,0.2c-0.1-0.1-0.1-0.3-0.1,0c0.1,0.1,0.3,0.3,0.1,0.2c0,0-0.1,0.1-0.2,0.1c0,0,0,0,0,0c0,0,0,0,0.1,0
			c0.1,0.1,0.2,0.1,0,0.2c-0.3,0.2,0,0,0,0.1c0.1-0.1,0,0.2-0.1,0.2c-0.2,0-0.1,0.2-0.1,0.1c0.1,0-0.1,0.2-0.1,0.1
			c0,0.2-0.5,0.1-0.4,0.2c-0.2-0.1-0.2,0.2-0.3,0.1c-0.2,0.2-0.2-0.1-0.2,0.1c-0.2,0-0.4-0.1-0.6,0c-0.1,0.1-0.3,0-0.4,0.1
			c-0.1,0-0.1,0-0.2,0c-0.2-0.1,0,0.2-0.2,0.1c0.2-0.1-0.5,0-0.2,0.1c-0.2,0.1-0.2-0.2-0.4,0c-0.2,0.1-0.1,0.1-0.2,0.1
			c-0.1,0-0.2,0-0.2,0.1c0.1,0.1-0.1,0.1,0,0c-0.1,0.1-0.2,0.1-0.3,0.1c-0.1,0.1-0.2,0.1-0.2,0.1c-0.1-0.1-0.1,0.1-0.2,0
			c0,0.2-0.5,0.2-0.4,0.2c-0.2-0.1-0.1,0.5-0.2,0.8c-0.1,0,0.1,0.1,0,0.4c-0.1,0.1,0,0.3,0,0.4c-0.1,0,0.2,0.3,0,0.4
			c0,0.4,0.1-0.1,0,0.2c0,0,0,0.1,0,0.1c0,0,0,0,0,0c0.1,0,0,0.1,0,0.1c0,0.1,0,0.1,0.1,0.2c0.1,0.3-0.1,0,0,0.2
			c0.1,0.1,0,0.1,0.1,0.2c0.8-0.2,1.6-0.8,2.3-1.3c0.1,0,0.1,0,0.3,0.1c0.1-0.1,0.1,0,0.2,0.1c0.3-0.1-0.1,0.2,0.1,0.1
			c0.1,0.1,0.3-0.2,0.4,0c-0.1,0.1,0.1,0.1,0.1,0c0.1,0,0.1,0.2,0.1,0.1c0,0,0,0,0,0c0,0,0,0,0-0.1c0,0.2,0.5-0.1,0.4,0.1
			c0.3,0,0.1,0.3,0.2,0.3c0.1,0,0,0.2,0.2,0.1c0,0.2-0.1-0.1-0.2,0.1c0,0.2-0.2,0.1-0.1,0c-0.1,0-0.2,0.3-0.1,0.2
			c0,0.1-0.1,0.2-0.3,0.3c-0.2,0.2-0.4,0.2-0.5,0.4c-0.1,0.1-0.4,0.2-0.2,0.2c0.1,0,0.3-0.2,0.4-0.2c0,0.3,0.1,0.1,0.2,0.1
			c0.1-0.1,0.3-0.2,0.3-0.3c0.2-0.1,0.1,0,0,0.1c-0.3,0.1-0.5,0.4-0.7,0.5c-0.1,0.2-0.3,0.1-0.3,0.2c-0.1,0-0.2,0.2-0.4,0.2
			c-0.1,0-0.1,0.1-0.3,0.2c-0.3,0.1-0.7,0.3-1,0.3c-0.3,0-0.6-0.1-0.9-0.2c-0.2,0-0.3-0.1-0.5-0.2c0.2,0-0.1-0.2-0.2-0.2
			c-0.2-0.1-0.1,0.1-0.2,0c-0.3-0.2,0,0.1-0.2,0c-0.1-0.1-0.1-0.1-0.2-0.1c0,0,0,0,0,0c0,0,0,0,0,0c0,0-0.1,0-0.1,0
			c-0.8-0.4-1-1.3-1.1-2.1c-0.1-1.8,0.3-3.6,0.8-5.3c0.1-0.3,0.4-0.8,0.3-0.9c0-0.2-0.1-0.1-0.2-0.4c-0.2,0.1-0.1-0.2-0.1-0.3
			c0.1-0.1-0.2,0-0.3-0.2c0.4,0-0.1-0.1,0.1-0.2c0.2,0,0.1-0.1,0.2-0.1c-0.1-0.2,0-0.2,0-0.3c0.2,0,0.2-0.1,0.2-0.2
			c0-0.2-0.1,0-0.2-0.1c0.1,0,0-0.1-0.1-0.1c0.1,0.2-0.2-0.3-0.1-0.2c0-0.1,0.4-0.1,0.1-0.1c0.7-0.2,1.6-0.1,1.6-0.7
			c0-0.2,0.2-0.2,0.1-0.2C293.4,177.6,293.3,177.4,293.5,177.4C293.5,177.4,293.5,177.4,293.5,177.4z M291.9,189
			C291.9,189,291.9,189,291.9,189C291.9,189,291.9,189,291.9,189z M292.7,189.3C292.7,189.3,292.7,189.4,292.7,189.3
			C292.7,189.4,292.7,189.4,292.7,189.3z M293.5,181.9C293.4,182,293.6,181.9,293.5,181.9C293.6,181.9,293.6,181.9,293.5,181.9z
			 M293.7,189.4c0.3,0.1,0.4,0.1,0.5,0c0-0.1-0.4,0.1-0.1,0C294.2,189.3,293.9,189.4,293.7,189.4
			C293.8,189.4,293.7,189.4,293.7,189.4z M293.8,189.5C293.8,189.5,293.9,189.5,293.8,189.5C293.8,189.5,293.8,189.5,293.8,189.5z
			 M293.9,177.5C294.1,177.7,293.8,177.5,293.9,177.5C293.9,177.5,293.9,177.5,293.9,177.5z M294.3,189.4c-0.2,0.3,0,0.1,0.2,0.1
			c0,0,0.3,0,0.1-0.1C294.6,189.4,294.3,189.4,294.3,189.4z M294.6,179.7C294.7,179.8,294.8,179.7,294.6,179.7
			C294.6,179.7,294.6,179.7,294.6,179.7z M295.4,188.9c0,0.1-0.3,0.1-0.4,0.2c-0.3,0.2,0,0.1,0,0.1c0.2,0,0.4-0.1,0.5-0.1
			c0-0.1,0.4-0.4,0.2-0.2c0.1,0.1,0.2-0.2,0.1-0.2C295.8,188.9,295.6,188.9,295.4,188.9z M295.3,189.4
			C295.3,189.4,295.3,189.3,295.3,189.4C295.1,189.4,295.2,189.4,295.3,189.4C295.2,189.5,295.3,189.5,295.3,189.4
			C295.3,189.3,295.3,189.4,295.3,189.4z M296.5,187.1C296.5,187.1,296.5,187.1,296.5,187.1C296.5,187.1,296.5,187.1,296.5,187.1z
			 M296.8,179.4C296.9,179.5,296.7,179.4,296.8,179.4C296.8,179.4,296.8,179.4,296.8,179.4z M297,188.1
			C296.7,188.3,296.8,188.2,297,188.1C297.1,188.1,296.9,188.1,297,188.1z M297.1,188.2C297.1,188.2,297.1,188.2,297.1,188.2
			C297.1,188.2,297.2,188.2,297.1,188.2z M297.8,182.9C297.8,182.9,297.8,182.9,297.8,182.9C297.8,182.9,297.8,182.9,297.8,182.9z
			 M297.9,183.2C297.9,183.2,297.9,183.2,297.9,183.2C297.9,183.2,297.9,183.3,297.9,183.2z M298.1,179
			C298.1,179,298.2,179,298.1,179C298.1,179,298.1,179,298.1,179z M298.5,177.9c0.1,0.1,0,0.3,0.2,0.2
			C298.7,177.9,298.8,177.9,298.5,177.9C298.6,177.9,298.5,177.9,298.5,177.9z"/>
		<path d="M304.8,176.4c0,0,0.2,0.1,0.2,0c-0.1-0.1,0.2,0,0,0.1c0.1-0.1,0.1,0.2,0.2,0.2c0.1,0.1,0.3,0.2,0.2,0.2
			c0.1,0.1,0.1,0,0.2,0c0.1,0,0,0.2,0.1,0.2c0.1-0.1,0,0.1,0.1,0.1c0.1,0.1,0.2,0.2,0.2,0.4c0,0.1,0.2-0.1,0.1,0.3
			c0,0.1,0,0.2-0.1,0.3c0,0.2,0,0.3,0,0.5c-0.1,0.5,0-0.4-0.1,0.1c0,0.2-0.1,0.2,0,0.4c0,0,0,0,0,0.1c0,0,0,0,0,0c0,0,0,0.1,0,0.1
			c-0.1,0.1-0.1,0.4-0.1,0.5c0,0.2,0,0.2-0.1,0.4c-0.1,0.2,0,0.4-0.1,0.6c0,0,0,0,0,0c0,0,0,0,0,0c0,0.1,0,0.1,0,0.1
			c0,0.1,0,0.2-0.1,0.4c-0.1,0.1,0,0.4-0.1,0.4c-0.1,0.1,0,0.1,0,0.2c0,0.2-0.1,0.6-0.1,0.8c-0.1,0.4-0.1,0.9-0.3,1.4
			c-0.1,0.3,0,0.7-0.1,1c0,0.3-0.1,0.4-0.1,0.7c0,0.3,0,0.5-0.1,0.8c0,0.1,0,0.3,0,0.5c0,0.3,0,0.7,0,0.9c0,0.1,0.1,0.3-0.1,0.5
			c0.1,0,0,0.2,0,0.2c-0.1,0.3,0-0.2-0.2-0.2c0.1-0.2,0,0-0.1-0.2c-0.1,0.1-0.1,0.2-0.1,0c-0.1,0.3-0.1,0-0.2,0c0-0.2-0.1,0.2-0.1,0
			c-0.1-0.2-0.1,0.1-0.2,0.1c-0.1-0.2-0.1-0.1-0.3-0.1c-0.2,0.2-0.3-0.8-0.5-0.5c-0.1-0.2-0.1,0.1-0.2,0.1c-0.1,0.1-0.1,0.3-0.3,0.5
			c0-0.1,0,0-0.1,0.1c-0.2,0.1-0.1,0-0.1-0.1c-0.1,0.1-0.3,0.3-0.6,0.3c0-0.1-0.1-0.1-0.2-0.1c0,0.1-0.1,0.1,0,0
			c-0.1,0-0.2,0-0.2-0.1c-0.2-0.1-0.3,0-0.4-0.1c-0.1,0.1-0.1-0.1-0.1-0.1c-0.2,0-0.1-0.1-0.4-0.2c-0.3,0-0.2-0.1-0.5-0.1
			c-0.3,0.2,0,0-0.3-0.1c-0.1,0,0.1,0.2-0.2,0c-0.8-0.6-1-1.6-0.9-2.6c0.1-2.4,0.8-4.8,1.7-7.1c0.1-0.5,0.6-1.1,0.5-1.4
			c0.2-0.2,0.1-0.1,0.1-0.2c0.1-0.2,0.3-0.1,0.3,0c0.1-0.1,0-0.2,0.3-0.1c0.1,0,0.2,0.2,0.3,0.2c-0.1,0.2,0,0.2,0,0.4
			c0.1-0.3,0,0.2,0.1,0c0,0.2-0.1,0.2,0.1,0c-0.1-0.2,0.3-0.1,0.1,0c0.1,0.1-0.2,0.2,0,0.2c0-0.1,0.1,0,0.2,0
			c0.1,0.1,0.1,0.2,0.2,0.1c0,0,0,0,0,0c0,0,0,0,0,0c0,0.2,0,0.4-0.1,0.6c-0.1,0.1-0.3,0.4-0.1,0.5c-0.1,0.2-0.1,0.2-0.1,0.5
			c-0.1,0.4-0.1-0.1-0.2,0.2c0.2,0.1,0,0.1,0,0.3c0.2,0.1-0.1,0.5,0,0.3c-0.1,0.1-0.1,0.1,0,0.3c0,0-0.1,0-0.2,0.1
			c-0.1,0.1,0,0.2,0,0.2c-0.1,0.2,0,0.1,0,0.3c-0.1-0.1-0.1,0-0.1,0.1c0,0,0,0,0,0c0,0,0,0,0,0c-0.1,0.2,0,0.2-0.1,0.3
			c0,0.1-0.1,0.3-0.1,0.5c0.1,0.1,0.1,0.3,0,0.3c-0.1-0.2-0.1,0.2-0.1,0.2c-0.2,0.1,0,0.2-0.1,0.2c0.1,0.2,0,0-0.1,0.2
			c0.1-0.2,0.1,0.3,0,0.4c0,0.1,0,0.3-0.1,0.5c-0.1,0.2-0.1,0.3-0.1,0.4c0,0.1-0.2,0.3,0,0.2c0,0,0,0.1,0,0.1c0,0,0,0,0,0
			c0,0,0,0.1,0,0.1c0,0.1,0,0.1,0,0.1c0,0,0,0,0,0c0,0,0,0,0,0c0,0,0,0.1,0.1,0.1c0,0.1-0.1,0.3-0.1,0.4c0,0.1,0,0.2,0,0.3
			c0.1,0.1-0.1,0.5,0.1,0.6c-0.1,0.1,0.1,0.2,0,0.4c0,0.1-0.1,0.4,0.1,0.2c0.4-0.3,0.7-0.6,1-1c0.3-0.4,0.8-0.8,0.9-1.3
			c0.2-1.8,0.6-3.5,1-5.3c0.2-1,0.5-2,0.8-2.9c0-0.3,0.1,0.2,0.1,0C304.7,176.6,304.6,176.6,304.8,176.4
			C304.8,176.4,304.8,176.4,304.8,176.4z M299.8,188.5C299.8,188.6,299.6,188.5,299.8,188.5C299.7,188.5,299.7,188.5,299.8,188.5z
			 M300.6,188.6c0.1,0.1,0.1,0.1,0.2,0.1C301.2,189,300.9,188.6,300.6,188.6C300.6,188.6,300.6,188.6,300.6,188.6z M300.6,184.9
			C300.6,184.9,300.6,184.9,300.6,184.9C300.7,184.9,300.7,184.9,300.6,184.9z M300.8,183.7c0.1-0.2,0,0,0-0.1
			C300.8,183.7,300.8,183.7,300.8,183.7z M302.2,188.5c-0.1,0-0.3,0.1-0.4,0.2c-0.2,0-0.2,0-0.3,0c-0.1,0-0.1,0-0.1,0c0,0,0,0,0,0
			c0,0,0,0,0,0c0,0,0,0-0.1,0c0,0-0.1-0.1-0.1,0c0.1,0.2,0.4,0.1,0.6,0.1c-0.1,0.2,0,0,0.1-0.1c0,0.2,0.4,0,0.6-0.1
			c0.2-0.2-0.1,0,0-0.2C302.3,188.4,302.3,188.5,302.2,188.5z M301.3,188.7C301.3,188.7,301.3,188.7,301.3,188.7
			C301.3,188.7,301.3,188.7,301.3,188.7z M301.7,180.8C301.7,180.8,301.7,180.8,301.7,180.8C301.7,180.8,301.7,180.8,301.7,180.8z
			 M301.7,188.5C301.6,188.6,301.8,188.5,301.7,188.5C301.7,188.5,301.7,188.5,301.7,188.5z M302.1,178.3c0.1,0.2,0.1-0.1,0.1-0.2
			C301.9,178.3,301.8,178.3,302.1,178.3z M302.3,178.1C302.3,178.1,302.3,178.1,302.3,178.1S302.3,178.1,302.3,178.1z M305.5,181.6
			L305.5,181.6C305.4,181.6,305.5,181.6,305.5,181.6z"/>
		<path d="M314.2,175.3c0.3,0,0.1,0.2,0.4,0.1c0,0.2,0,0.1,0.1,0.2c-0.2,0-0.1,0.2-0.2,0.3c0,0.1-0.2,0.1-0.2,0.4c0,0,0,0,0,0
			c0,0,0,0,0,0c0,0,0,0,0,0.1c0,0.1,0.1,0.2-0.1,0.2c0,0.1,0.1,0.1,0,0.3c-0.1,0-0.1,0-0.1,0.1c-0.1,0.1,0.1,0.4,0,0.3
			c-0.2-0.1-0.2,0.2-0.3,0.1c0.1-0.2-0.3,0.1-0.2-0.1c-0.2,0.1,0.1,0.4-0.2,0.2c0.1,0,0,0,0.1-0.1c-0.1-0.1-0.2,0-0.1,0.1
			c-0.1,0-0.3,0.2-0.1,0c-0.2,0-0.4,0.2-0.5,0.1c-0.1,0-0.2,0.1-0.4,0.1c-0.1,0-0.3,0.1-0.3,0c-0.3-0.1-0.2,0.3-0.2,0.1
			c-0.2,0.2,0,0.1,0,0.2c0,0,0,0,0,0c0,0,0,0,0,0c-0.1,0.1,0.4,0,0.1,0.1c-0.2,0.1,0.1,0.1-0.1,0.2c0,0.1-0.1,0.4-0.1,0.4
			c0.2,0-0.1,0.3,0.1,0.2c0.2,0-0.3,0.1-0.2,0.2c0.1,0.1,0,0.3,0,0.5c0-0.1-0.2-0.1-0.2,0.3c-0.1,0.1,0.1,0.4-0.1,0.3
			c0,0.1,0.2,0.2,0,0.1c0,0.2-0.1,0.1,0,0.2c0.2-0.1,0,0.3-0.1,0.1c-0.1,0.2-0.1,0.4-0.1,0.5c-0.1,0.3,0.1,0.2-0.1,0.3
			c0,0.1-0.1,0.2-0.1,0.3c0,0.1-0.1,0.2,0,0.2c0,0.1-0.1,0.3-0.1,0.4c0,0.1-0.1,0.3-0.1,0.4c-0.1,0,0,0.2-0.1,0.2
			c0,0.1-0.1,0.2,0,0.3c-0.1,0.2,0,0.5-0.1,0.8c-0.1,0.2,0,0.2-0.1,0.5c0,0.1-0.1-0.1,0,0.2c-0.1,0.1,0,0.2-0.1,0.3s0,0.4-0.1,0.4
			c0.1,0.1,0,0.3,0,0.4c0,0.1,0,0.2-0.1,0.3c0,0,0,0.1,0,0.3c0,0,0.1,0.2,0,0.3c0,0.2,0.1,0.2,0.1,0.4c0,0.1-0.1,0.2-0.1,0.3
			c0,0.2-0.2,0-0.1-0.1c0.2-0.1,0-0.1-0.1,0c0,0.4-0.3,0.1,0,0.4c-0.1,0.1-0.2-0.1-0.3-0.1c0,0-0.1,0.2-0.2,0.2
			c0-0.1-0.1-0.2-0.2-0.1c0.1,0-0.1,0.2-0.1,0c-0.1,0-0.1,0.1-0.2,0c-0.1-0.1,0,0.4-0.1,0c0.1-0.1,0-0.1,0-0.2c0,0,0,0,0,0
			c0,0,0,0,0,0c0,0-0.1,0-0.1,0c0.1,0.2-0.2-0.1-0.1,0.1c0,0.2-0.1,0-0.3,0.1c0.2,0.1,0,0-0.1,0.1c0,0.1-0.2,0.2-0.2-0.1
			c0-0.1-0.1-0.4,0-0.7c0.3-2.4,0.8-4.9,1.5-7.3c0.1-0.4,0.3-0.9,0.4-1.3c0.1-0.2,0-0.2-0.1-0.1c-0.2,0-0.4,0.1-0.5,0.1
			c-0.2,0.1-0.2,0.1-0.4,0.2c-0.1,0-0.3-0.1-0.3,0.1c0,0-0.1,0-0.1,0.1c0,0,0-0.1,0-0.1c-0.1,0,0,0.1,0,0.1c-0.2,0.1-0.2-0.1-0.4,0
			c-0.1,0.1-0.4,0.1-0.5,0.1c0,0-0.2,0.1-0.3,0c-0.1,0.1-0.2,0.1-0.3,0.1c-0.2,0.2-0.3,0-0.1-0.1c0.2,0,0.5-0.1,0.2-0.2
			c-0.2,0.1,0-0.2-0.2-0.1c-0.4,0.1-0.1,0,0.1-0.1c0.3,0,0.2-0.1,0.2-0.2c-0.4,0,0.2-0.1-0.1-0.1c0.4-0.1-0.3,0,0.1-0.1
			c0-0.2-0.2-0.1,0-0.3c0-0.1-0.2-0.2,0-0.3c0.2-0.1,0.1-0.3,0.2-0.3c-0.2,0-0.1-0.4-0.2-0.3c-0.1-0.1,0-0.2,0.2-0.4
			c1.9-0.4,3.9-0.9,5.8-1.2C313.3,175.4,313.7,175.3,314.2,175.3z M308.2,178.8C308.2,178.8,308.2,178.8,308.2,178.8
			C308.2,178.8,308.2,178.8,308.2,178.8z M308.4,187.7C308.4,187.8,308.4,187.7,308.4,187.7C308.4,187.7,308.4,187.7,308.4,187.7z
			 M309.8,188.3c0-0.1,0.1,0.2-0.1,0.2c0-0.1,0-0.2,0-0.3C309.8,188.1,309.9,188.1,309.8,188.3z M309.8,187.1c0.1-0.1,0-0.1,0-0.4
			C309.7,186.8,309.7,187.1,309.8,187.1z M309.8,186.2C309.8,186.5,310,186.2,309.8,186.2C309.8,186.2,309.8,186.2,309.8,186.2z
			 M309.9,185.5C309.8,186,310,185.7,309.9,185.5C309.9,185.4,310,185.5,309.9,185.5z M311.1,181.1
			C311.1,181.4,310.9,181.1,311.1,181.1C311.1,181.1,311.1,181.1,311.1,181.1z M312.5,177.8c-0.2,0,0,0,0-0.1
			C312.5,177.7,312.5,177.8,312.5,177.8z M312.9,177.6c0.1,0,0.4-0.1,0.1-0.1C313,177.5,313,177.5,312.9,177.6
			C312.9,177.5,312.9,177.5,312.9,177.6z M314.3,176.7C314.3,176.7,314.3,176.7,314.3,176.7C314.4,176.7,314.3,176.9,314.3,176.7z
			 M314.3,176.6C314.4,176.6,314.4,176.6,314.3,176.6C314.5,176.6,314.3,176.7,314.3,176.6z M314.8,175.8c0-0.1-0.2,0.1-0.1-0.1
			c0,0,0,0,0,0C314.8,175.6,314.9,175.8,314.8,175.8z"/>
		<path d="M319.3,174.6c0.4,0.1,0.4,0.1,0.5,0.2c0.2,0.1,0.1,0.3,0.3,0.3c0,0.1,0.1,0.3,0.1,0.3c-0.1,0.3,0.2,0.2,0.1,0.4
			c0,0.2,0.2,0.3,0.2,0.5c0,0,0,0.2,0,0.2c0,0.2,0.2,0.4,0,0.6c0,0.2-0.1,0.4-0.1,0.7c0,0.2-0.2,0.5-0.3,0.7c0,0,0,0,0,0
			c0,0,0,0,0,0c0,0,0,0.1,0,0.1c-0.1,0-0.2,0.2-0.1,0.4c0,0-0.2,0-0.2,0.2c0.1-0.1-0.1,0.3,0,0.1c-0.1,0-0.2,0.3-0.1,0.3
			c-0.1,0.4-0.1-0.1-0.3,0.3c-0.1,0.3,0,0.2-0.2,0.5c-0.1,0.2-0.3,0.4-0.2,0.5c-0.1,0.1,0,0.1,0,0.1c-0.1,0.1-0.1,0.3-0.5-0.1
			c-0.4-0.4-1.1-1-0.8-1.6c0.3-0.6,0.7-1.2,1-1.9c0.2-0.1,0.1-0.5,0.2-0.3c0.1-0.1,0.1-0.3-0.1-0.2c0.1-0.1,0-0.1-0.1,0
			c-0.1,0,0.2,0.4-0.1,0.2c-0.2-0.1,0,0.1,0,0.1c-0.3,0.1-0.7,0.2-0.8,0.3c0-0.2-0.1,0.1-0.2,0.2c-0.3,0.2-0.7,0.5-0.9,0.7
			c-0.1,0.2-0.5,0.2-0.5,0.4c0.1,0.1-0.1,0.1-0.2,0.2c-0.1-0.2-0.4,0.4-0.5,0.4c-0.2,0-0.2,0.5-0.3,0.4c-0.2,0.2-0.1,0.1,0,0.3
			c-0.1,0-0.2,0.1-0.2,0.2c-0.1,0.1,0,0.1-0.1,0.2c-0.1,0.2-0.1,0.2-0.2,0.4c0.3,0.2,0.8,0.4,1.1,0.5c0.8,0.3,1.8,0.5,2.4,1.1
			c0.2,0.1,0.1,0.2,0.2,0.3c0,0.1,0,0.1,0.1,0.1c0,0,0,0,0,0c0,0,0,0,0,0c0,0,0.1,0.1,0.1,0.1c0.5,0.4,0.6,0.9,0.6,1.5
			c0,0.2,0,0.3-0.1,0.5c0,0.2-0.4,0.4-0.2,0.4c-0.2,0.3-0.5,0.5-0.7,0.7c-0.2,0.1-0.3,0.2-0.5,0.2c-0.1,0.1-0.2,0.2-0.4,0.2
			c0,0.1-0.2,0.1-0.2,0.1c-0.1,0-0.2,0.1-0.2,0.1c-0.2,0.1-0.2,0.1-0.3,0.1c-0.2,0.1-0.3,0.1-0.4,0.1c-0.1,0.2-0.1,0-0.3,0.1
			c-0.1,0-0.1,0-0.2,0.1c-0.3,0-0.1,0-0.2,0.1c0,0-0.1,0-0.2,0c0,0,0,0,0,0c0,0,0,0,0,0c-0.1,0-0.1,0-0.2,0c-0.1-0.1,0,0.1-0.1,0
			c-0.1,0.1-0.5,0.2-0.4,0c-0.1-0.2,0.2,0.1,0.1,0c0.1-0.1,0.1,0,0.2,0c0,0,0,0,0-0.1c0.2-0.1,0.4-0.1,0.6-0.2
			c0.2-0.2,0.1,0,0.4-0.1c0-0.1,0.1-0.2,0.2-0.1c0-0.1,0.1,0,0.2-0.1c0.1,0,0.2-0.2,0.1-0.2c0.1-0.1,0.2,0.1,0.3,0
			c0.1-0.1-0.1-0.1,0-0.1c0.2-0.1,0.3,0.1,0.4,0c0-0.1-0.3,0.1-0.1-0.1c0.4-0.2,0.1-0.1-0.1,0c-0.2,0.1-0.4,0.2-0.6,0.2
			c-0.1,0.1-0.2,0-0.3,0.1c-0.1,0-0.4,0.1-0.5,0.1c-0.1,0.1-0.1-0.1-0.3,0c-0.1,0-0.2,0.3-0.2,0.1c-0.2,0,0,0.2-0.2,0
			c-0.1,0.1,0.1-0.1-0.1-0.1c-0.2,0-0.6,0.1-0.6,0c0,0,0,0,0,0c0,0-0.1,0,0,0c-0.1,0-0.3,0-0.4-0.2c0-0.2,0.1-0.2-0.2-0.3
			c-0.1,0.1-0.1,0-0.3,0c-0.2,0-0.1-0.2-0.3-0.1c-0.3-0.1,0.5-0.3,0.2-0.2c-0.2-0.1,0.1,0,0.1-0.2c1.1-0.4,2.3-0.7,3.3-1.3
			c0.2-0.2,1.1-0.6,0.6-0.7c-0.2-0.1-0.4-0.2-0.6-0.2c-0.2-0.1-0.5-0.2-0.8-0.3c-0.2-0.1-0.3-0.1-0.5-0.2c-0.3-0.1-0.6-0.3-0.9-0.6
			c-0.1-0.2-0.1-0.4-0.3-0.6c-0.1-0.1,0-0.1,0-0.2c-0.1-0.1,0-0.4-0.2-0.6c-0.1,0.2-0.1,0,0-0.1c-0.1,0.1-0.2,0-0.2-0.2
			c0,0.1,0-0.2-0.1-0.1c-0.1,0-0.2-0.5-0.1-0.7c0-0.8,0.4-1.6,0.9-2.2c1-1.4,2.5-2.6,4.1-3.2c0.3-0.1,0.6-0.2,0.8-0.3
			C319.1,174.6,319.2,174.6,319.3,174.6z M313.6,181.8c-0.1,0,0.3,0.2,0.1,0.2C313.7,182,313.6,181.9,313.6,181.8
			C313.6,181.7,313.7,181.9,313.6,181.8z M313.7,181.7C313.9,182,313.6,181.9,313.7,181.7C313.7,181.7,313.7,181.7,313.7,181.7z
			 M313.9,181.8C313.9,182.3,314,181.9,313.9,181.8C313.9,181.8,313.9,181.8,313.9,181.8z M314.3,182.3
			C314.3,182.5,314.5,182.5,314.3,182.3C314.3,182.3,314.3,182.3,314.3,182.3z M314.5,182.6C314.5,182.6,314.5,182.6,314.5,182.6
			c-0.1,0.1,0.1,0,0,0.1C314.6,182.8,314.6,182.6,314.5,182.6C314.5,182.6,314.5,182.6,314.5,182.6
			C314.5,182.6,314.5,182.6,314.5,182.6z M314.5,182.6C314.5,182.6,314.5,182.6,314.5,182.6C314.5,182.6,314.5,182.6,314.5,182.6z
			 M314.6,187.1C314.6,187.2,314.5,187.2,314.6,187.1C314.5,187.1,314.6,187.1,314.6,187.1z M314.7,182.8
			C314.6,182.9,314.8,183,314.7,182.8C314.7,182.8,314.7,182.8,314.7,182.8z M314.9,182.9c0.1,0.1,0.1,0.1,0.1,0.1
			c0.1,0.1,0.3,0.2,0.2,0C315.1,183,315,182.9,314.9,182.9C314.9,182.9,314.8,182.9,314.9,182.9z M315.4,183.2
			C315.1,183.2,315.4,183.3,315.4,183.2c0,0.1,0.3,0.2,0.3,0.2c0,0,0,0,0,0c0,0,0,0,0,0c0,0,0,0,0,0c0.1,0,0.2,0.1,0.3,0.1
			c0.1-0.2-0.1-0.1-0.2-0.2c0,0.1-0.3,0.1-0.3-0.1C315.5,183.2,315.3,183.2,315.4,183.2z M315.3,187.4
			C315.3,187.4,315.3,187.4,315.3,187.4C315.3,187.4,315.3,187.4,315.3,187.4z M315.4,187.4C315.3,187.4,315.3,187.3,315.4,187.4
			C315.3,187.4,315.4,187.4,315.4,187.4C315.4,187.4,315.5,187.4,315.4,187.4C315.4,187.3,315.4,187.4,315.4,187.4z M315.4,183.2
			C315.5,183.3,315.3,183.2,315.4,183.2C315.4,183.2,315.4,183.2,315.4,183.2z M315.4,187.4C315.4,187.4,315.3,187.4,315.4,187.4
			C315.4,187.4,315.4,187.4,315.4,187.4z M315.8,183.4C315.8,183.4,315.8,183.4,315.8,183.4C315.8,183.4,315.8,183.4,315.8,183.4z
			 M315.9,183.4C315.9,183.4,315.9,183.4,315.9,183.4C316,183.4,315.9,183.5,315.9,183.4z M316.4,183.5c0,0.1,0.2,0.1,0.3,0.2
			c0.1,0,0.1,0.1,0.3,0.1c0.1,0.1,0.1,0,0,0c-0.2-0.1-0.1-0.1,0.1,0c0.1,0.1,0.3,0.1,0.2,0c0-0.1-0.2-0.1-0.2-0.1
			c-0.1,0-0.3-0.1-0.4-0.1c-0.1-0.1-0.3,0.1-0.2-0.1C316.4,183.4,316.4,183.5,316.4,183.5z M316.6,183.8
			C316.8,183.8,316.6,183.8,316.6,183.8C316.5,183.7,316.6,183.9,316.6,183.8z M320.1,178.9C320.1,178.9,320.1,178.9,320.1,178.9
			C320.1,178.9,320.1,178.9,320.1,178.9z M320.2,178.5L320.2,178.5C320.3,178.5,320.3,178.5,320.2,178.5z"/>
		<path d="M325.5,173.8c0.1,0,0.3,0.1,0.4,0.3c0.1,0.2,0.4,0.3,0.3,0.5c0.2,0.1,0.4,0.3,0.4,0.6c0.1,0,0,0.1,0.1,0.3
			c0.1,0.3,0.1,0.7,0.1,0.9c0,0.1,0.1,0.3,0.1,0.4c0,0-0.3,0.5-0.1,0.3c0.1,0.4-0.1-0.1-0.1,0.2c-0.1,0.2,0.2-0.1,0.1,0.1
			c0,0.2-0.1,0.6-0.2,0.6c-0.1,0.1-0.1,0-0.2,0.2c-0.1,0.1,0,0.2-0.2,0.4c0,0.1-0.1,0.1-0.1,0.2c0-0.2-0.1-0.1-0.2,0
			c0-0.2-0.1-0.1,0-0.2c0.1-0.2-0.2,0.2-0.1-0.1c-0.1,0-0.1,0-0.3-0.1c-0.1,0.1-0.3,0.1-0.2-0.1c-0.1,0.1-0.2,0.1-0.3,0
			c0,0-0.2-0.1-0.1-0.2c-0.1-0.1,0.1-0.1,0-0.2c0.1-0.2,0.1-0.2-0.1-0.2c-0.3-0.2,0.2,0,0-0.1c-0.1-0.1-0.2-0.1-0.3,0
			c0-0.1-0.4-0.1-0.2-0.2c-0.2,0.1-0.1,0.2-0.3,0.2c-0.1,0.2-0.2,0.4-0.3,0.5c-0.2,0.1-0.1,0.1-0.2,0.3c-0.1,0.1-0.2,0.3-0.2,0.4
			c-0.1,0.2-0.1,0.4-0.3,0.6c0,0.1-0.2,0.4-0.2,0.5c-0.1,0.2-0.1,0.2-0.1,0.3c0,0,0,0,0,0c0,0,0,0,0,0.1c0,0-0.1,0.1-0.1,0.1
			c0,0,0,0.1,0,0.1c0,0.1,0,0.2,0,0.1c0,0.1-0.1,0.2-0.1,0.4c-0.1,0-0.1,0.2-0.1,0.2c0,0.2,0,0.5-0.1,0.8c0,0.1,0,0.2-0.1,0.2
			c0.1,0.2-0.1,0-0.1,0.2c0,0.1,0,0.2,0,0.2c0.1,0.1,0,0.2,0,0.3c0,0.1,0,0.1,0,0.1c0,0,0,0,0,0c0,0,0,0,0,0c0,0.1,0,0.1,0,0.2
			c0,0.2,0.1,0.2,0,0.4c0,0,0,0,0,0c0,0,0,0,0,0c-0.1,0.1,0,0.1,0,0.1c0,0.1,0.1,0.1,0,0.3c0,0.1,0.1,0.4,0.2,0.4
			c-0.1,0.3,0.1,0.4,0.4,0.2c0.9-0.6,1.7-1.5,2.4-2.3c0.1-0.1,0.3-0.3,0.1,0c0.2-0.3,0.2-0.1,0.4-0.3c0.1-0.1,0.2,0.1,0.1,0.1
			c0.1,0.1,0.1,0.2,0.3,0.3c0.1-0.2,0.1-0.1,0.2,0.1c-0.1,0.3,0.1-0.1,0.2-0.1c-0.1,0.3,0,0.2,0.1,0.4c0,0,0,0,0-0.1c0,0-0.1,0,0,0
			c0,0,0,0,0,0c0,0,0-0.1,0-0.1c0,0,0,0,0.1,0c0,0.1,0,0.2,0.1,0.2c0,0,0.2-0.3,0.1-0.1c0.2-0.1,0,0.3-0.1,0.4c0-0.1,0-0.2-0.1-0.1
			c0.1,0-0.1,0.2,0.1,0.2c0.3,0.1-0.2,0.1,0,0.2c-0.1,0-0.1,0.1-0.2,0.2c0,0,0,0,0,0c0,0.1,0,0.1-0.1,0.1c0.2,0-0.1,0-0.1,0.1
			c-0.2,0.1,0,0.3,0,0.4c-0.1-0.1-0.1,0.1-0.1,0.1c-0.1-0.1,0,0.1-0.1,0.1c-0.1-0.1,0.1-0.1,0.1-0.2c0-0.1-0.1-0.2-0.1-0.1
			c-0.1,0.1-0.3,0.3-0.3,0.5c-0.2-0.1-0.1,0.1-0.2,0.1c0,0-0.1,0-0.1,0.1c0,0.1,0,0.2-0.1,0.2c-0.1-0.1-0.2,0.1,0,0.1
			c-0.1,0.1-0.2-0.1-0.1,0.1c0.1,0,0.1,0.1,0,0.1c-0.1,0.1-0.1-0.1-0.2-0.1c0,0.1,0,0.1-0.2,0.1c0,0,0,0.1,0,0.1c0,0,0,0,0,0
			c0.1,0,0,0.1,0,0c-0.1,0.1-0.2,0.1-0.2,0.1c0,0.1-0.4,0.2-0.4,0.2c-0.1,0.1-0.3,0.1-0.5,0.1c-0.1-0.3,0,0.1-0.2,0
			c0-0.1-0.3-0.1-0.4-0.1c-0.2,0-0.4-0.1-0.6-0.1c0.3,0.2-0.2-0.1-0.1,0.1c0.1,0.1,0.3,0,0.3,0.1c0.1,0.1,0.5,0.2,0.2,0.2
			c-0.2,0.1-0.2-0.1-0.4-0.1c-0.1-0.1-0.2-0.1-0.4-0.1c0.3-0.1,0-0.1,0-0.1c-0.3-0.2,0.2,0.1,0-0.2c-0.3-0.3-0.1,0.2-0.2-0.1
			c0-0.1-0.3-0.3-0.5-0.2c-0.2,0-0.5-0.4-0.5-0.2c-0.3-0.2-0.6-0.6-0.7-0.9c-0.1-0.2-0.1-0.4-0.1-0.5c0-0.1,0-0.2,0-0.3
			c0-0.7,0-1.4,0.2-2.1c0.5-2.3,1.5-4.5,3.1-6.4c0.2-0.3,0.5-0.6,0.8-0.8c0.1-0.2,0.2-0.1,0.4-0.3c0-0.1,0.7-0.1,0.5-0.1
			c0,0,0,0,0,0C325.2,173.7,325.4,173.8,325.5,173.8z M322.2,183.5C322.2,183.5,322.2,183.5,322.2,183.5
			C322.2,183.5,322.2,183.5,322.2,183.5z M322.6,181C322.7,181,322.5,181,322.6,181C322.6,181,322.6,181,322.6,181z M322.8,180.4
			C322.8,180.4,322.8,180.4,322.8,180.4C322.8,180.4,322.8,180.4,322.8,180.4z M323.8,186.1c0.1,0.1,0,0.1-0.1,0.1
			c-0.2,0-0.2-0.1-0.1-0.2C323.7,186.3,323.7,186.1,323.8,186.1z M323.8,186.4c-0.4,0,0.1,0,0.1-0.1
			C324.1,186.3,323.8,186.3,323.8,186.4z M323.7,178.1C323.6,178.2,323.8,178.1,323.7,178.1C323.7,178.1,323.7,178.1,323.7,178.1z
			 M326.2,184.5c0,0.1-0.3,0.2-0.3,0.3c-0.2,0.2-0.2,0.2-0.3,0.3c-0.1,0.1-0.3,0.3-0.4,0.4c0,0,0,0,0,0c0,0.1-0.1,0.1-0.1,0.1
			c0,0.1-0.1,0.1-0.1,0c-0.2,0,0,0.2-0.3,0.2c-0.1,0.3-0.1-0.1-0.1,0.2c-0.1,0.1-0.1,0.1-0.2,0.2c0,0,0,0,0,0c0,0,0,0,0,0
			c0,0-0.1,0-0.1,0.1c-0.2-0.1-0.1-0.2,0.1-0.2c0.1-0.2,0.3-0.1,0.5-0.3c0.1,0,0.3-0.3,0.3-0.3c0.1-0.1,0.4-0.3,0.5-0.5
			C325.8,184.9,326,184.6,326.2,184.5C326.2,184.4,326.2,184.5,326.2,184.5z M324.4,185.6C324.4,185.6,324.5,185.6,324.4,185.6
			C324.4,185.6,324.4,185.6,324.4,185.6C324.4,185.6,324.4,185.6,324.4,185.6C324.4,185.6,324.4,185.6,324.4,185.6z M324.4,185.6
			C324.4,185.6,324.4,185.6,324.4,185.6C324.4,185.6,324.4,185.6,324.4,185.6z M324.6,185.8c-0.3,0.1,0-0.1,0-0.1
			C324.6,185.7,324.6,185.8,324.6,185.8z M324.5,186.1C324.5,186.1,324.5,186.1,324.5,186.1C324.5,186.1,324.5,186.1,324.5,186.1z
			 M324.7,177.6C324.8,177.8,324.7,177.7,324.7,177.6C324.7,177.6,324.7,177.6,324.7,177.6z M325.6,181.9c0,0.2,0,0.2,0,0.1
			c0,0,0.1,0,0,0c0,0,0,0,0,0C325.7,182,325.7,181.9,325.6,181.9C325.6,181.9,325.6,181.9,325.6,181.9z M325.6,182.1
			C325.6,182.1,325.6,182.1,325.6,182.1C325.6,182.1,325.6,182.1,325.6,182.1z M326.3,178.4C326.3,178.4,326.3,178.4,326.3,178.4
			C326.3,178.4,326.3,178.5,326.3,178.4z M326.4,184.2C326.3,184.3,326.3,184.2,326.4,184.2C326.4,184.1,326.4,184.1,326.4,184.2z
			 M326.6,184c-0.1,0,0.2-0.2,0.2-0.3C326.8,183.8,326.6,183.9,326.6,184z M326.5,183.4C326.6,183.4,326.6,183.4,326.5,183.4
			C326.6,183.4,326.5,183.4,326.5,183.4z M327,182.9C327.1,183,326.9,182.9,327,182.9C327.1,182.8,327.1,182.8,327,182.9
			C327.1,182.8,327,182.9,327,182.9z"/>
		<path d="M330.2,173.1c0.1-0.1,0.2,0.1,0.2,0.2c0.1,0.1,0.2,0.3,0.5,0.2c0,0,0,0.2,0.1,0.2c0.2,0,0,0.2,0.1,0.3
			c0.1,0.1,0.2,0,0.2,0.1c-0.1,0.1,0.1,0.3,0.1,0.6c0,0.3-0.2,0.1-0.2,0.3c0.1,0.1,0.1,0.1,0.1,0.2c-0.1,0.2-0.3,0.3-0.1,0.3
			c-0.1,0.2,0,0.2-0.1,0c0,0.1-0.1,0.2-0.1,0.3c0,0,0,0,0,0c-0.1,0,0,0,0,0c0,0.1,0,0.3-0.1,0.5c-0.1,0.3,0,0.2-0.2,0.6
			c0,0.1-0.1,0.5-0.1,0.6c0,0-0.1,0.1-0.1,0.3c0.2,0.1-0.1,0-0.1,0.2c0.1,0.2,0,0.1-0.1,0.4c0.8-0.2,1.7-0.4,2.5-0.6
			c0.3-1.4,0.7-2.8,1-4.1c0.1-0.3,0.1-0.7,0.3-0.8c0.1-0.2,0.5-0.4,0.5-0.1c0.2,0.2-0.2-0.3,0.1-0.1c0.1-0.1,0,0.2,0.1,0.2
			c0,0.2,0.2,0.1,0.1,0.3c0.1-0.1,0.1,0.1,0.2,0c-0.1,0.2,0.2,0,0.2,0.2c0.2-0.1,0,0,0.2,0.1c0.1,0.3,0.2-0.1,0.2,0.1
			c0,0.2,0.1,0.3,0,0.5c0,0,0.2,0.2,0,0.2c-0.1,0.3,0.3-0.2,0.1,0.2c-0.1-0.2,0,0.1-0.1,0.2c0.1,0.2-0.2,0.1,0,0.2
			c-0.1,0.1-0.2,0.2-0.2,0.4c0,0.1,0.1,0.2,0,0.2c-0.1,0.3,0,0.6-0.1,0.9c-0.2,0.6-0.3,1.1-0.4,1.7c0,0.3-0.2,0.6-0.1,0.9
			c-0.1,0.1,0,0.2-0.1,0.3c0,0.1,0,0.3,0,0.4c-0.1,0.4-0.1,0.9-0.2,1.4c0,0.1-0.1,0.4-0.1,0.6c0,0,0,0.1,0,0.1c0,0.2-0.1,0.2,0,0.3
			c-0.1,0.1,0,0.3-0.1,0.5c0,0.3,0,0.6-0.1,0.8c0,0.2,0,0.3,0,0.6c0,0,0,0,0,0c0,0,0,0,0,0c0,0,0,0,0,0.1c0,0.1,0,0.3,0,0.4
			c0,0.3-0.2,0.2-0.1,0c0-0.4-0.1,0.2-0.1-0.1c0-0.2-0.2-0.1-0.2,0c0-0.1-0.1,0-0.1-0.1c0,0,0,0.1-0.1,0.2c0.1-0.2-0.2,0-0.4-0.1
			c-0.2,0.2-0.1-0.1-0.3,0.1c0,0-0.1-0.3-0.1-0.1c-0.2,0.2,0-0.2-0.2-0.1c-0.1,0,0,0.3-0.2,0.1c0,0.2-0.1,0.2-0.2,0.1
			c0-0.1-0.1-0.2-0.1-0.2c0,0-0.1,0,0,0c0,0-0.1,0,0-0.1c0.1-1.3,0.2-2.6,0.4-3.9c-0.1,0-0.4,0.1-0.6,0.1c-0.1,0-0.4,0.1-0.6,0.2
			c-0.2,0.1-0.4,0-0.5,0.1c-0.1,0-0.4,0.2-0.5,0.1c-0.1-0.1-0.1,0.1-0.3,0.1c0,0.2-0.1,0.4-0.1,0.6c0,0.2,0,0.4-0.1,0.5
			c0,0.3-0.1,0.9-0.1,1.1c-0.1,0,0.1,0.1,0,0.1c0,0.1,0,0.1,0,0.3c0,0,0,0,0,0c0,0,0,0,0,0.1c-0.1,0.1,0,0.2,0,0.3
			c0,0,0.1,0.4,0,0.3c0,0.3,0,0.3,0,0.6c-0.1,0,0,0.6-0.1,0.4c-0.1-0.2-0.2,0.1-0.2-0.2c-0.1,0.1-0.1,0-0.2,0.1
			c-0.2-0.1,0,0.4-0.2,0.1c0.1-0.1-0.1-0.1-0.2-0.1c-0.1-0.2-0.4,0.1-0.3-0.1c0,0-0.1,0-0.1-0.1c0,0-0.1,0.1,0,0c0,0,0,0,0,0
			c-0.1-0.1-0.1-0.1-0.2-0.1c0,0,0,0,0,0c0,0,0,0,0,0c0,0.1,0,0.3,0,0.1c-0.1,0,0-0.1-0.1,0c-0.1-0.1-0.2,0.1-0.1,0.1
			c-0.1-0.1-0.1-0.1-0.3-0.1c0-0.2-0.1-0.1-0.1-0.3c0.1,0-0.1-0.3,0-0.6c0.2-3.3,0.9-6.6,1.9-9.8c0.1-0.3,0.2-0.8,0.3-0.8
			c0.1-0.4,0.1-0.1,0.3-0.2C330.1,173,330.1,173.2,330.2,173.1C330.3,173,330.1,173.1,330.2,173.1z M334.5,184.1L334.5,184.1
			C334.5,184.1,334.5,184.1,334.5,184.1z"/>
		<path d="M339,172c0.1,0,0.2,0,0.2,0.1c0.1,0.1,0.3,0,0.3,0.2c0,0,0.3,0.3,0.2,0.2c0-0.1,0.1,0.1,0.1,0.1c0,0.2,0,0.3,0.1,0.5
			c0,0.1-0.1,0-0.1,0.1c0,0.2-0.1,0.2,0.1,0.2c-0.1,0.1,0,0.2-0.1,0.1c-0.1,0.2,0,0.3,0,0.4c0.1,0.2-0.1,0.3-0.1,0.4
			c0.1,0,0.1,0.1,0.1,0.2c0,0.4-0.1,0.1-0.2,0.3c0.1,0,0,0.1,0,0.3c-0.1,0.1,0,0.3-0.1,0.4c0,0.2-0.1,0-0.1,0.4
			c0,0.1-0.1,0.3-0.1,0.4c-0.1,0.2,0.1,0,0,0.2c0,0.1,0,0.2-0.1,0.5c0,0.1,0,0.1,0,0.1c0,0,0,0,0,0c0,0,0,0,0,0c0,0.1,0,0.3-0.1,0.4
			c0,0.3-0.1,0.6-0.1,0.9c0,0-0.1,0.4-0.1,0.5c0,0.4-0.1,0.8-0.2,1.1c0,0.3-0.1,0.6-0.1,0.9c0,0.1-0.1,0.4-0.1,0.6
			c0.8-0.1,1.6-0.3,2.4-0.2c0.1,0.1,0.2,0.1,0.4,0.1c0,0.1,0.3,0.2,0.1,0.2c0.1,0.1,0.1,0.4,0,0.1c0,0-0.1,0-0.1,0.1c0,0,0,0,0,0
			c0,0.1,0,0.1,0.1,0.1c-0.1,0.2-0.2-0.1-0.1,0.1c-0.2,0.1-0.1,0.1-0.1,0.2c0,0.2,0.2,0,0.3,0.2c0,0.1-0.5,0.1-0.2,0.3
			c-0.1,0.2,0,0.2-0.1,0.3c0.1,0,0.1,0.1,0,0.2c-0.1,0,0,0.2,0,0.3c-0.1,0.3-0.2-0.2-0.2,0.1c0.1,0.2-0.3,0-0.3,0
			c0,0.1,0.1,0.2,0,0.1c-0.2,0.1-0.2,0-0.3,0.1c-0.1-0.1-0.2,0-0.2,0c0-0.1-0.2,0.1-0.3,0c-0.1,0-0.3,0.1-0.2,0c0,0-0.3,0.1-0.4,0.1
			c0-0.1-0.2,0.1-0.1-0.1c-0.1,0.2-0.3,0.1-0.5,0.2c-0.1-0.1-0.2,0-0.2,0c0,0,0,0,0,0c0,0-0.1,0-0.1,0.1c-0.1,0-0.1,0-0.2,0
			c0,0,0,0,0,0c0,0-0.1,0-0.1,0c0,0,0,0,0,0c0,0-0.1,0-0.1,0c0,0,0,0,0,0c0,0,0,0,0,0c0,0,0,0-0.1,0c0,0.1-0.2,0.1-0.5,0.1
			c0.2,0,0,0.1-0.1,0.1c0,0-0.1,0-0.2,0.1c0,0,0.1,0,0.2,0c0,0,0,0,0,0c0,0.1,0,0.1-0.2,0.1c0.1,0.1-0.2,0-0.1,0.1
			c-0.1,0.1-0.2-0.1-0.3,0c0,0.1-0.1,0.1-0.1,0.1c0,0,0,0,0,0c0,0,0,0,0,0c-0.1,0-0.1,0-0.2,0.1c-0.2,0.1,0-0.1,0-0.1
			c0,0,0-0.1,0-0.1c0,0,0,0,0,0.1c0,0,0,0,0,0c0,0.1,0,0-0.1,0c0.4-0.1-0.2-0.1,0-0.2c0-0.1,0.1-0.2,0-0.3c0.1,0.2-0.1,0-0.1,0
			c0.1-0.1-0.2-0.1,0.1-0.1c-0.1-0.1-0.2-0.2-0.1-0.4c0,0.1-0.2,0.2-0.2,0c0.1,0,0-0.4,0.1-0.2c0.2,0,0-0.2,0-0.2
			c0.1-0.1,0-0.3,0-0.3c0.1-0.1,0.2,0.2,0.1-0.1c-0.1,0-0.1-0.2-0.2-0.2c-0.1-0.1-0.1-0.2,0.1-0.3c0.2-0.4,0.7-0.1,0.7-0.7
			c0.4-2.8,1-5.6,1.7-8.4c0.1-0.3,0.3-0.8,0.3-1.1c-0.2-0.1-0.1-0.2-0.1-0.3c0.1-0.1,0.3-0.1,0.5-0.2
			C338.7,171.8,338.9,171.8,339,172z M335.5,184.6C335.5,184.8,335.2,184.7,335.5,184.6C335.4,184.6,335.5,184.6,335.5,184.6z
			 M335.6,184.6C335.6,184.6,335.6,184.6,335.6,184.6C335.6,184.6,335.6,184.6,335.6,184.6z M335.8,184.6
			C335.8,184.6,335.8,184.6,335.8,184.6C335.8,184.6,335.8,184.6,335.8,184.6z M335.8,184.4C335.8,184.5,335.9,184.4,335.8,184.4
			C335.8,184.4,335.8,184.4,335.8,184.4z M336.1,184.3C335.7,184.4,336.4,184.3,336.1,184.3C336.2,184.3,336.2,184.3,336.1,184.3z
			 M336.6,184.3C336.6,184.3,336.6,184.3,336.6,184.3C336.6,184.3,336.6,184.3,336.6,184.3z M336.7,184.3c-0.1,0.2-0.1,0-0.1,0
			C336.7,184.3,336.7,184.3,336.7,184.3z M336.7,184.3C336.8,184.3,336.8,184.3,336.7,184.3C336.7,184.3,336.7,184.3,336.7,184.3z
			 M337.1,183.9C337.1,184,337.3,183.9,337.1,183.9C337.2,183.9,337.2,183.9,337.1,183.9z M337.3,184.1
			C337.3,184.1,337.3,184.1,337.3,184.1C337.3,184.1,337.3,184.1,337.3,184.1z M337.6,184.1L337.6,184.1
			C337.6,184.1,337.6,184.1,337.6,184.1z M338.6,183.7c0.1,0,0.4-0.1,0.4-0.1c-0.1,0-0.3,0-0.4,0
			C338.4,183.5,338.2,183.6,338.6,183.7z M339.4,183.5C339.1,183.7,339.6,183.5,339.4,183.5C339.4,183.5,339.4,183.5,339.4,183.5z
			 M339.7,183.5C339.8,183.6,340.1,183.5,339.7,183.5C339.7,183.5,339.7,183.5,339.7,183.5C339.7,183.5,339.7,183.5,339.7,183.5z
			 M339.8,174.7C339.9,174.7,339.8,174.7,339.8,174.7C339.8,174.7,339.8,174.7,339.8,174.7c0,0,0-0.1,0-0.2
			C339.9,174.6,339.9,174.7,339.8,174.7z M340.6,183.3C340.6,183.3,340.6,183.3,340.6,183.3C340.5,183.3,340.5,183.5,340.6,183.3z"
			/>
		<path d="M347,171.2c0.1,0.1,0.3,0.3,0.5,0.4c0.1,0.1,0.2,0,0.3,0.1c0.1,0.2,0.4,0.2,0.4,0.4c0.2,0.1,0.2,0.4,0.3,0.6
			c0,0.4,0.2,0.3,0.2,0.7c-0.1,0-0.1,0.1-0.1,0.2c0.1-0.2,0.2,0.3,0,0.1c0,0.4,0,0.9,0,1.3c-0.1,0.1,0.2,0,0,0.2
			c-0.1,0.1,0,0.1,0,0.2c0,0,0-0.1,0-0.1v0c0-0.1,0.1-0.1,0.1,0.2c-0.1,0-0.2,0.4-0.1,0.3c0.1,0.2,0,0.4,0,0.6
			c0,0.1-0.1,0.4,0.1,0.2c0,0.2,0,0.1-0.1,0.1c0,0,0,0,0,0c0,0,0,0,0,0.1c0,0.3,0.2,0.3,0,0.5c0.1,0.1-0.2,0.4,0,0.5
			c0,0.2-0.2,0-0.1,0.2c0.1-0.1,0.1,0.1,0.2,0.1c-0.1,0.1-0.2,0.1-0.2,0.2c0.2,0,0.2,0.2,0,0.3c0,0.1,0.4-0.1,0.2,0.1
			c-0.2-0.1-0.1,0.2-0.2,0.1c-0.1-0.1-0.1,0.1-0.1,0.1c-0.1,0.1,0.4-0.1,0.2,0c-0.2,0,0.1,0.2-0.1,0.1c-0.1,0.1,0,0-0.1,0.2
			c-0.1-0.1,0,0.1-0.1,0.2c-0.1,0,0.1,0.3,0,0.3c0,0.2,0,0.2,0,0.5c0,0.2,0,0.4,0,0.6c0.2,0.1,0,0.1,0,0.2c-0.1,0-0.1,0.3-0.1,0.4
			c0.1,0.1-0.1,0.1,0,0.2c-0.1,0.1,0,0.4-0.1,0.5c0,0.2,0,0.3,0.1,0.4c0,0.3-0.4-0.2-0.3,0c-0.1,0-0.1,0.1-0.1,0.1
			c-0.1,0-0.2,0.1-0.3,0c0.1,0-0.2-0.1-0.2-0.1c0,0.2-0.2-0.2-0.2-0.1c-0.1,0.2-0.2-0.2-0.4-0.1c0-0.2-0.2-0.3-0.1-0.1
			c-0.1,0.2-0.3-0.1-0.3,0.1c-0.1,0.3-0.1-0.1-0.2,0c0,0.1-0.2-0.1-0.2,0.1c-0.2,0,0.2-0.2-0.1-0.2c0-0.5,0.1-1.1,0.1-1.6
			c0-0.3,0.2-1-0.1-0.9c-0.4-0.2,0.4,0,0.2-0.2c0.1-0.1,0-0.2-0.3-0.1c0.2,0.1-0.1,0.2,0,0c-0.1,0-0.3,0.1-0.4,0.1
			c-0.2,0-0.1,0.2,0,0.1c0.1,0.1-0.3,0.1-0.2,0.2c0.1,0,0,0.1,0.1,0.1c-0.2,0-0.6,0.2-0.6,0.1c-0.1,0.2-0.1,0-0.3,0.1
			c-0.2,0.2-0.4,0-0.5,0.1c-0.1-0.2-0.3,0.1-0.4-0.1c0,0.1,0,0.3,0,0.1c-0.1,0.1-0.1,0.2,0.1,0.1c0.1,0,0.1,0.4-0.1,0.3
			c-0.1,0.1,0,0.3-0.1,0.2c-0.1-0.3-0.3,0.5-0.2,0.4c0.1,0,0.1,0.3,0,0.2c0-0.2-0.4,1-0.4,1c0-0.1-0.1,0.1,0,0.1
			c0,0.2-0.1,0.3-0.1,0.1c-0.1,0.1-0.1,0.3-0.1,0.2c0,0,0,0.1,0,0.1c0,0.1,0,0.1-0.1,0.1c-0.3-0.1,0.2,0.2,0,0.1
			c0.1,0.2-0.3-0.1-0.2,0c-0.1-0.2-0.3,0.4-0.2,0c0.1-0.1-0.1-0.3,0-0.1c0,0.1,0,0.1-0.1,0.1c0,0,0.1,0,0,0c0,0,0,0,0,0
			c0,0,0-0.1,0-0.2c-0.3,0.1,0.1,0,0,0.2c0-0.1-0.2,0.1-0.2-0.1c0.2-0.1-0.2-0.2-0.2,0c0.2-0.2,0.1,0.2,0,0.1c0-0.1-0.2-0.1-0.1-0.1
			c0-0.4-0.2,0.3-0.1-0.1c0.1,0,0.1-0.3-0.1-0.2c-0.2,0.1,0-0.2-0.1-0.2c-0.1,0-0.2,0.1-0.3,0.1c0,0.1-0.2,0.1-0.2,0.1
			c0.1-0.2-0.2,0.2,0-0.1c0-0.1,0-0.3,0-0.3c0.1-0.2,0.1-0.1,0.1-0.3c0,0,0-0.2,0-0.2c0.9-3.2,2.5-7.1,3.8-9
			c0.5-0.7,1.1-1.6,1.9-1.9c-0.1,0.1,0.1,0,0.1,0c0,0,0.1-0.1,0.1-0.1C346.8,171,347,171.1,347,171.2z M342,183.3
			C342,183.3,342,183.3,342,183.3C342,183.3,342,183.3,342,183.3z M343.4,181.5C343.5,181.8,343.2,181.6,343.4,181.5
			C343.4,181.5,343.3,181.5,343.4,181.5z M343.9,180.2c0.1,0.1-0.1,0,0,0.1C343.7,180.4,343.7,180.2,343.9,180.2
			C343.8,180.2,343.8,180.2,343.9,180.2z M344.9,179.9C344.9,179.9,344.9,179.9,344.9,179.9c-0.3,0.1-0.5,0.1-0.8,0.2
			c-0.4,0,0,0.2,0.1,0.1c0.1,0,0.4,0,0.4-0.1C344.7,180,345.1,180,344.9,179.9C345,179.9,345,179.9,344.9,179.9z M344.5,180.2
			C344.5,180.3,344.1,180.3,344.5,180.2C344.5,180.2,344.5,180.2,344.5,180.2z M346.5,174.2c-0.1,0.1-0.1,0.4-0.2,0.4
			c0,0.2-0.4,0.2-0.2,0.3c0.1,0-0.3,0.4-0.3,0.2c0.1-0.1,0,0,0.1-0.2c-0.1,0.1-0.2,0-0.2,0.1c0,0,0,0,0,0c0,0,0,0,0,0
			c0,0-0.1,0.1-0.1,0.1c0,0,0,0,0,0c0,0,0,0,0,0.1c0,0,0,0.1-0.1,0c0,0.1,0,0,0,0.1c-0.2,0.2,0.1,0.1,0,0.1c0,0,0,0.3-0.1,0.1
			c0.1-0.2-0.1-0.1-0.1,0.1c-0.1,0.1-0.1,0.2-0.2,0.2c0,0.2-0.1,0.2-0.2,0.4c0,0.3,0.1,0,0.2-0.1c0.1-0.1,0.1-0.4,0.2-0.3
			c0,0-0.1,0.1-0.1,0.3c-0.1,0.1-0.1,0.1-0.2,0.4c-0.2,0.1,0,0.4-0.2,0.4c0-0.2,0-0.1-0.1,0.1c-0.2,0-0.3,0.3-0.1,0.3
			c0,0,0,0.1,0,0.1c0.2,0.1,1.1-0.1,1.6-0.2c0.1-0.7,0.1-1.5,0.2-2.2c0-0.3,0.1-0.9,0-1C346.5,174.1,346.5,174.2,346.5,174.2z
			 M344.8,177c0.1,0.1,0.1-0.1,0.2-0.2c-0.1,0,0,0,0-0.1C344.9,176.7,344.9,176.9,344.8,177z M344.9,177.1
			C345.1,177.3,344.9,177.3,344.9,177.1C344.9,177.1,344.9,177.1,344.9,177.1z M345.7,179.9c0,0-0.1,0-0.1,0.1
			C345.3,179.9,345.5,179.9,345.7,179.9C345.7,179.9,345.7,179.9,345.7,179.9z M345.6,179.8c0-0.2-0.1,0,0-0.2
			C345.8,179.6,345.7,179.8,345.6,179.8z M345.7,175.2C345.7,175.2,345.7,175.1,345.7,175.2C345.7,175.2,345.7,175.2,345.7,175.2z
			 M345.8,175C345.8,175,345.8,175,345.8,175C345.8,175,345.8,175,345.8,175z M345.9,175.1C345.9,175.1,345.9,175.1,345.9,175.1
			C346,175.1,345.8,175.3,345.9,175.1z M346.5,173.9c-0.1,0.1-0.1,0.2-0.2,0.3c0,0.1-0.3,0.4-0.2,0.3c0.1,0.1,0.3-0.2,0.2-0.3
			C346.4,174.1,346.5,174.1,346.5,173.9C346.6,174,346.6,174,346.5,173.9C346.6,173.9,346.6,173.9,346.5,173.9
			c0.1,0,0.1-0.1,0.1-0.1C346.6,173.8,346.5,173.9,346.5,173.9z M346.4,173.8C346.3,174,346.5,173.9,346.4,173.8
			C346.4,173.8,346.4,173.8,346.4,173.8z M346.6,174C346.6,174,346.6,174,346.6,174C346.6,174,346.6,174,346.6,174z M347.8,182.9
			C347.8,183,347.8,182.9,347.8,182.9C347.8,182.9,347.8,182.9,347.8,182.9z M348.6,176.6C348.5,176.6,348.5,176.6,348.6,176.6
			C348.5,176.6,348.6,176.7,348.6,176.6z"/>
		<path d="M351.6,170.7c0-0.2,0.1,0.2,0.2,0c0-0.2,0.2,0.1,0.3,0.2c0.1-0.2,0.2,0.2,0.2,0.2c0,0.2,0.3-0.2,0.3-0.1
			c0.1,0.1,0,0.1,0.1,0.2c0.1-0.2,0.1-0.1,0.2,0.1c0-0.1,0.1-0.1,0.2-0.1c0,0,0,0,0,0c0,0,0,0,0,0c0.1,0.1,0.1,0.2,0.1,0.3
			c0.1,0.2,0.1,0.4,0.1,0.6c0,0,0,0,0,0c0,0,0,0,0,0c0,0,0,0,0,0.1c0,0.2,0.1,0.1,0.1,0.2c0,0.1,0,0.1,0,0.2c0.1,0.1,0,0.1,0,0.1
			c0,0.1-0.1,0.3,0.1,0.4c-0.1,0-0.1,0.1,0,0.4c0,0,0.1,0.1,0.1,0.3c-0.2,0.1,0,0,0.1,0.2c-0.1,0.1,0,0.2,0,0.4
			c0.1,0.6,0.1,1.3,0.3,1.9c0,0.4,0.1,0.4,0.1,0.1c0.3-1.8,0.8-3.5,1.3-5.2c0.1-0.3,0.2-0.6,0.4-0.9c0,0.2,0.1-0.1,0.2,0
			c0.1,0.3,0.1-0.1,0.2,0.1c0-0.1,0.2-0.1,0.1,0.1c-0.1,0,0,0.2,0.1,0.2c0,0,0.1,0.1,0.2,0.2c0,0.2,0.2,0.1,0.2,0.2
			c0.2,0.1,0.2,0.4,0.2,0.4c0.1-0.2,0.1,0.2,0.1,0.2c-0.1,0.3,0.2,0,0,0.3c-0.1,0.2,0,0.4,0,0.5c0,0.1-0.1,0.2-0.1,0.2
			c0,0,0.2,0.2,0,0.3c-0.1,0.1-0.1,0.2,0,0.3c-0.2,0.1,0,0.3-0.1,0.4c0.1,0,0,0-0.1,0.1c0.2,0.2-0.1,0.2-0.1,0.5
			c0,0.1-0.1,0.1,0,0.3c-0.1,0.2,0,0.4-0.1,0.6c0.1,0.3-0.1,0.2,0,0.5c0.1,0.2,0,0.1-0.1,0.2c0,0,0,0,0,0c0,0,0,0.1,0,0c0,0,0,0,0,0
			c0,0,0,0,0,0c0,0.1,0,0,0,0.2c-0.1,0,0.1,0.1,0,0.2c0,0.1-0.1,0.2,0,0.2c-0.1,0.6-0.2,1.3-0.2,1.9c-0.1,0.4-0.1,0.8-0.1,1.2
			c0,0,0,0,0,0c0,0,0,0,0,0c0,0,0,0.1,0,0.1c0,0.1,0,0.4,0,0.5c0,0.1,0,0.6,0,0.8c0,0.1,0,0.3,0,0.4c0.1,0.1-0.1,0.1,0,0.2
			c0,0.1-0.1,0.3-0.1,0.3c0.1,0,0.2,0.4,0,0.1c-0.2,0.2-0.1-0.2-0.3-0.3c-0.1,0.2,0,0-0.1,0.1c0,0.3-0.1-0.2-0.2,0
			c0.2,0.2,0.1,0.4,0,0c-0.3,0,0-0.1-0.1-0.1c-0.1,0-0.3,0.3-0.3,0.1c0,0.1-0.1-0.1-0.3-0.1c-0.1-0.1-0.2,0-0.2-0.2
			c0,0.2-0.3,0.2-0.3,0.4c0-0.1-0.3-0.1-0.4-0.4c-0.1,0-0.7,0-0.8-0.4c-0.7-1-0.9-2.2-1.2-3.4c-0.1,0.1-0.1,0.6-0.1,0.9
			c0,0.2,0,0.3-0.1,0.5c0,0.1,0,0.2,0,0.3c0,0.1-0.1,0.3,0,0.5c-0.1,0.1,0,0.1-0.1,0.3c0,0.1,0,0.5,0,0.5c0,0.2,0,0.5,0,0.7
			c0,0.2,0,0.5,0,0.6c0.2,0.2-0.2,0.4,0,0.4c-0.1,0.2,0.1,0.2,0,0.3c-0.1,0.2-0.1-0.2-0.2,0.1c-0.1-0.2-0.2-0.1-0.1,0.1
			c0.1,0.1-0.2,0.1-0.1,0c-0.1-0.3-0.1,0.1-0.2-0.1c-0.1-0.1,0,0.1-0.2,0c-0.1,0.2-0.2-0.1-0.2,0.1c0,0,0,0,0,0c0,0,0,0,0,0
			c-0.1-0.1-0.1,0-0.2,0c0,0,0,0,0,0c0,0,0,0,0,0c0,0-0.1,0-0.1-0.1c0-0.2-0.2-0.2-0.2,0c-0.3,0.1-0.3,0-0.5,0.1
			c0-0.1,0-0.4-0.1-0.5c0-3.4,0.5-6.8,1.4-10.1c0.2-0.5,0.2-1,0.5-1.4c0-0.4,0.1,0,0.1-0.2c0.1,0,0.2-0.1,0.3-0.1
			C351.4,170.6,351.6,170.8,351.6,170.7z M350,182.9C350,182.9,350,182.9,350,182.9C350,182.9,350,182.9,350,182.9z M350.2,182.8
			C350.2,182.9,350.2,182.8,350.2,182.8C350.2,182.9,350.1,182.9,350.2,182.8z M351.4,183.3c-0.1,0.1-0.3-0.2-0.2-0.3
			C351.3,183.1,351.4,183.1,351.4,183.3z M351.6,179.6C351.6,179.6,351.6,179.6,351.6,179.6C351.6,179.5,351.6,179.5,351.6,179.6z
			 M356.1,182.3C356.1,182.2,356.1,182.2,356.1,182.3C356.1,182.3,356.1,182.3,356.1,182.3c0.1,0.1-0.1,0.1-0.1-0.1
			C356,182.2,356,182.2,356.1,182.3z M356.1,179.6C356.1,179.6,356.1,179.6,356.1,179.6C356.1,179.6,356.1,179.6,356.1,179.6z"/>
		<path d="M363.1,170.3c0.4,0.1,0.6,0.4,0.8,0.5c0.2,0.2,0.3,0.4,0.4,0.5c0.1,0.1,0,0.1,0.1,0.2c0,0.1,0.3,0.3,0.2,0.4
			c0,0.2,0.2,0.6,0.1,0.4c0,0,0,0.1,0,0.1c-0.1,0,0,0.1,0,0c0,0.1,0.1,0.2,0.1,0.3c0.1,0.3,0.2,0.5,0.1,0.8c0,0.3,0.2,0.6,0.1,0.8
			c0,0.2-0.1,0.6-0.1,0.8c-0.1,0.4-0.1,0.4-0.2,0.8c-0.1,0.2-0.1,0.4-0.2,0.6c0,0,0-0.2-0.1,0.1c0.1,0.1,0,0.3,0,0.4
			c-0.1,0.1-0.3,0.4-0.1,0.1c0,0.2-0.3,0.5-0.2,0.3c0-0.1-0.3,0.3-0.1,0.3c-0.2,0.1-0.1,0.4-0.2,0.2c-0.1,0.1,0,0.3-0.1,0.2
			c0,0.1-0.1,0-0.1,0.1c0,0-0.1,0.1,0,0.1c0,0,0,0,0,0c0,0,0,0,0,0c0,0,0,0,0,0c-0.1,0.1-0.1,0.1-0.2,0.2c0,0.1,0.1-0.2,0.1,0
			c-0.2,0.3-0.3,0.6-0.5,0.8c-0.1,0.2-0.2,0.3-0.3,0.5c0.1,0.1,0,0-0.1,0.3c-0.1,0-0.2,0.2-0.3,0.4c0,0,0,0,0,0c0,0,0,0,0,0
			c0,0,0,0.1,0,0.1c0,0,0,0.1-0.1,0.2c-0.2,0.2-0.4,0.4-0.6,0.6c-0.1,0.1-0.1,0.1-0.1,0.2c-0.1,0.1-0.1,0.1-0.2,0.2
			c-0.1,0.1-0.3,0.3-0.5,0.4c-0.1,0.1-0.4,0.2-0.6,0.3c0,0-0.3,0.2-0.3,0c-0.2,0,0.4-0.1,0.5-0.2c0.1-0.1,0.3-0.3,0.1-0.3
			c-0.3-0.1-0.1,0.1-0.2,0.2c-0.1,0-0.1-0.2-0.2-0.1c-0.1,0-0.4,0.1-0.3,0.1c-0.2,0-0.3,0.1-0.4-0.1c-0.1,0.1-0.4,0-0.5-0.2
			c-0.2-0.1-0.5-0.1-0.6-0.4c0-0.2-0.2-0.1-0.4-0.2c-0.2-0.1-0.2-0.3-0.4-0.3c0.1-0.2,0.1-0.8,0.1-1.2c0.2-1.8,0.6-3.6,1-5.3
			c-0.1,0,0.2-0.4,0.1-0.4c0,0-0.2,0.1-0.3,0c-0.2-0.1,0.1-0.2,0-0.2c-0.3,0,0-0.4-0.2-0.4c-0.2,0-0.1-0.2-0.2-0.2
			c0-0.2,0-0.2-0.1-0.3c0-0.1,0.2-0.2,0-0.2c0-0.2-0.3-0.1-0.4-0.3c-0.3-0.2,0-0.4,0.1-0.4c0.2-0.3,0.5-0.6,0.8-0.8
			c0.9-0.6,2-1.1,3.1-1.1C362.1,170.1,362.6,170.1,363.1,170.3z M358.2,173.6C358.3,173.8,358.5,173.7,358.2,173.6
			C358.3,173.6,358.2,173.6,358.2,173.6z M359.6,182.4c-0.1,0.1-0.1,0.2-0.1,0.1c-0.1,0-0.2,0.1-0.2-0.2
			C359.4,182.4,359.5,182.3,359.6,182.4z M361.2,172.5c-0.2,0,0,0.1,0,0.1c0,0,0,0,0,0c-0.1,0.1,0,0,0,0c0,0,0,0-0.1,0.1
			c-0.1,0.1,0.1,0.2,0,0.3c0-0.2-0.1,0.3-0.1,0.4c-0.1,0.1,0,0.4,0,0.4c0.1,0.1-0.1,0.3-0.1,0.5c-0.1,0.1-0.2,0.6,0,0.5
			c-0.1,0.2-0.1,0.4-0.2,0.7c0,0.3-0.2,0.7-0.1,0.9c0,0.2,0,0.4-0.2,0.5c0,0.1-0.1,0.2,0,0.3c0.2-0.2-0.1,0.1,0,0.1c0,0,0,0,0,0.1
			c0,0,0,0,0,0c-0.1,0,0,0,0,0c0,0.1-0.1,0.1-0.1,0.3c0,0.2,0,0.4-0.1,0.5c-0.1,0.2,0,0.4-0.1,0.5c0,0.1,0.1,0.4-0.1,0.2
			c0,0.2-0.1,0.7-0.1,0.7c0,0.1,0.1,0,0.3-0.2c1.3-1.5,2.4-3.1,3.2-4.9c0.1-0.3,0.5-1.1,0.2-1.2c0.1,0,0.1-0.1,0-0.1
			c-0.3,0,0.1-0.1-0.1-0.2c-0.2-0.1-0.3-0.1-0.5-0.1c-0.2-0.1-0.2,0-0.4-0.1c-0.2,0-0.5,0.1-0.6,0c-0.2,0.1-0.3,0-0.5,0
			c-0.2,0.1-0.2,0.1-0.4,0.1C360.9,172.8,361.4,172.6,361.2,172.5C361.2,172.5,361.2,172.5,361.2,172.5z M360.1,179
			C360.1,179.1,360,179,360.1,179C360.1,179,360.1,179,360.1,179z M360.4,182C360.5,182,360.2,182.1,360.4,182
			C360.4,182,360.4,182,360.4,182C360.4,182,360.4,182,360.4,182C360.4,181.9,360.4,182,360.4,182z M360.4,177.2
			C360.4,177.2,360.4,177.2,360.4,177.2C360.4,177.2,360.4,177.2,360.4,177.2z M360.7,181.9c-0.1,0.2,0.2-0.1,0.2-0.1
			C360.8,181.8,360.8,181.9,360.7,181.9z M361.2,172.6C361.2,172.6,361.2,172.6,361.2,172.6L361.2,172.6z M361.3,172.5
			C361.3,172.5,361.5,172.5,361.3,172.5C361.3,172.4,361.3,172.4,361.3,172.5z M361.5,172.3C361.3,172.3,361.3,172.5,361.5,172.3
			C361.5,172.4,361.8,172.4,361.5,172.3C361.6,172.2,361.5,172.4,361.5,172.3z M362,172.4c-0.1,0.1-0.4-0.1-0.5,0.1
			C361.5,172.6,361.8,172.4,362,172.4c0.1,0,0.2,0.1,0.4,0.1c0.2-0.1-0.1-0.1-0.1-0.1C362.2,172.3,362.1,172.4,362,172.4z
			 M362,172.2C362,172.2,362,172.2,362,172.2C361.9,172.2,361.9,172.2,362,172.2c-0.2,0.1-0.4,0-0.2,0.2c0.1-0.2,0.2,0,0.3,0
			c0.2,0,0.1-0.1,0.2,0c0,0,0,0,0,0c0,0,0,0,0,0C362.2,172.2,362.2,172.2,362,172.2C362,172.2,362,172.2,362,172.2z M362.5,172.3
			C362.5,172.6,362.6,172.4,362.5,172.3c0,0,0.1-0.1-0.2-0.1C362.2,172.2,362.4,172.4,362.5,172.3z M362.3,180.5
			C362.3,180.5,362.3,180.5,362.3,180.5C362.4,180.5,362.3,180.5,362.3,180.5z M362.4,172.6C362.3,172.6,362.6,172.6,362.4,172.6
			C362.4,172.6,362.4,172.6,362.4,172.6z M362.8,172.5c0.2,0.1,0.4,0.1,0.7,0.2c0.2,0,0.1-0.1,0.2,0.1c0.1,0,0.3,0.1,0.2,0
			c0-0.2-0.1-0.2-0.2-0.3c-0.2-0.1-0.2,0-0.4-0.1c0,0.1-0.2,0.1-0.4,0C362.6,172.4,362.8,172.6,362.8,172.5z M363.4,172.8
			C363.7,172.9,363.2,172.9,363.4,172.8C363.3,172.8,363.3,172.8,363.4,172.8z M363.8,178.4C363.8,178.3,363.8,178.4,363.8,178.4
			C363.8,178.4,363.8,178.4,363.8,178.4z M363.9,178.2C363.9,178.2,363.9,178.2,363.9,178.2C363.9,178.2,364,178.2,363.9,178.2z
			 M364.8,172.4C364.8,172.4,364.8,172.4,364.8,172.4C364.8,172.4,364.8,172.4,364.8,172.4z"/>
	</g>
</g>
<path class="st1" d="M85.4,195.4c-3.7,0.4-7.4,0.8-11.1,1.1c2.1-10.5,4.2-21,6.3-31.5c-3.8,6.8-7.5,13.6-11.3,20.3
	c-2.5,0.2-4.9,0.4-7.4,0.5c-1.2-6.4-2.3-12.7-3.5-19.1c-2.1,10.4-4.2,20.8-6.3,31.2c-3.7,0.1-7.4,0.2-11.1,0.2
	C45,178.9,49,159.5,52.9,140c4-0.2,8-0.4,12-0.6c1.6,8.9,3.1,17.8,4.7,26.7c5.2-9.4,10.4-18.9,15.6-28.5c4-0.4,8-0.9,12-1.5
	C93.2,155.9,89.3,175.7,85.4,195.4z"/>
<path class="st1" d="M135.8,170.1c-0.7,3.7-2.5,7.4-4.8,10.6c-2.3,3.2-5.3,5.9-8.6,7.9c-2.2,1.3-4.5,2.1-6.7,2.5
	c-3.4,0.6-6.4-0.1-8.7-1.6c-2.3-1.5-3.8-3.9-4.5-7c-0.4-2-0.4-4.3,0.1-6.8c2.8-14.1,5.6-28.3,8.4-42.5c3.7-0.6,7.4-1.2,11.1-1.9
	c-2.8,14.2-5.6,28.5-8.4,42.7c-0.2,1.3-0.1,2.3,0.3,3.2c0.4,0.9,1.1,1.5,2,1.8c0.6,0.2,1.3,0.2,2.1,0.1c1.2-0.2,2.3-0.8,3.3-1.6
	c1-0.8,1.9-1.9,2.5-3c0.4-0.8,0.7-1.6,0.9-2.4c2.4-12.3,4.8-24.5,7.2-36.8c0.4-2,0.8-4,1.2-6c3.7-0.7,7.4-1.4,11.1-2.2
	C141.4,141.5,138.6,155.8,135.8,170.1z"/>
<path class="st1" d="M177.4,178.6c-3.8,0.9-7.7,1.8-11.5,2.6c-1.6-9.3-3.2-18.6-4.8-27.9c-2,10.1-3.9,20.2-5.9,30.2
	c-3.7,0.8-7.4,1.6-11.1,2.3c3.9-20.1,7.8-40.2,11.8-60.4c3.8-0.8,7.7-1.7,11.5-2.5c1.6,9.3,3.2,18.6,4.8,27.9
	c2-10.1,3.9-20.2,5.9-30.3c3.7-0.8,7.4-1.7,11.1-2.6C185.2,138.2,181.3,158.4,177.4,178.6z"/>
<path class="st1" d="M232.9,123.5c-3.7,0.9-7.4,1.7-11.1,2.6c0.2-1.3,0.1-2.3-0.3-3.2s-1.1-1.4-2-1.6c-0.6-0.1-1.3-0.2-2.1,0
	c-1.2,0.3-2.3,0.9-3.3,1.8c-1,0.9-1.9,2-2.5,3.2c-0.4,0.8-0.7,1.6-0.9,2.5c-1.7,8.6-3.3,17.2-5,25.8c-0.2,1.3-0.1,2.3,0.3,3.2
	c0.4,0.8,1.1,1.4,2,1.6c0.6,0.2,1.3,0.1,2.1,0c1.2-0.3,2.3-0.9,3.3-1.8c1-0.9,1.9-2,2.5-3.1c0.4-0.8,0.7-1.6,0.9-2.5
	c3.7-0.9,7.4-1.8,11.1-2.6c-0.7,3.8-2.5,7.5-4.8,10.9c-2.4,3.3-5.3,6.2-8.6,8.3c-2.2,1.4-4.5,2.4-6.7,3c-3.4,0.8-6.4,0.4-8.7-0.9
	c-2.3-1.3-3.8-3.6-4.5-6.6c-0.4-2-0.4-4.3,0.1-6.8c1.7-8.6,3.3-17.2,5-25.8c0.7-3.8,2.5-7.5,4.8-10.9c2.4-3.3,5.3-6.2,8.6-8.3
	c2.2-1.4,4.4-2.4,6.7-3c3.4-0.8,6.4-0.4,8.7,0.9c2.3,1.3,3.8,3.6,4.5,6.6C233.3,118.7,233.3,121,232.9,123.5z"/>
<path class="st1" d="M269.4,156.6c-3.7,0.8-7.4,1.6-11,2.4c1.6-8.1,3.1-16.1,4.7-24.2c-3.7,0.8-7.4,1.6-11.1,2.4
	c-1.6,8.1-3.1,16.1-4.7,24.2c-3.7,0.8-7.4,1.7-11.1,2.6c3.9-20.2,7.8-40.4,11.8-60.6c3.7-0.8,7.4-1.7,11.1-2.5
	c-1.6,8.1-3.1,16.1-4.7,24.2c3.7-0.8,7.4-1.6,11.1-2.4c1.6-8.1,3.1-16.1,4.7-24.2c3.7-0.8,7.4-1.5,11-2.2
	C277.3,116.3,273.4,136.4,269.4,156.6z"/>
<path class="st1" d="M323.1,101.5c-6.5,0.9-12.9,1.8-19.4,2.9c-0.8,4-1.6,8-2.4,12c4.6-0.8,9.2-1.5,13.8-2.2
	c-0.8,4-1.6,7.9-2.4,11.9c-4.6,0.7-9.2,1.5-13.8,2.3c-0.8,4-1.6,8-2.4,12c6.5-1.1,12.9-2.2,19.4-3.1c-0.8,4-1.6,7.9-2.4,11.9
	c-10.1,1.5-20.3,3.3-30.4,5.3c3.9-20.1,7.8-40.1,11.8-60.1c10.1-1.8,20.3-3.4,30.4-4.8C324.7,93.6,323.9,97.6,323.1,101.5z"/>
<path class="st1" d="M360.1,144.3c-3.8,0.2-7.7,0.5-11.5,0.8c-1.6-9.5-3.2-19-4.8-28.5c-2,9.8-3.9,19.7-5.9,29.5
	c-3.7,0.4-7.4,0.8-11.1,1.3c3.9-19.8,7.8-39.6,11.8-59.3c3.8-0.4,7.7-0.8,11.5-1.1c1.6,9.5,3.2,19.1,4.8,28.6
	c2-9.8,3.9-19.5,5.9-29.3c3.7-0.2,7.4-0.3,11.1-0.4C368,105.3,364,124.8,360.1,144.3z"/>
<path class="st1" d="M126.7,116.8c-0.2,1.8-1.7,3.4-3.2,3.5s-2.7-1.4-2.4-3.2s1.7-3.4,3.2-3.4C125.8,113.6,126.9,115,126.7,116.8z"
	/>
<path class="st1" d="M143.1,113.7c-0.2,1.8-1.7,3.4-3.2,3.5s-2.6-1.3-2.4-3.2c0.2-1.8,1.7-3.4,3.2-3.5
	C142.2,110.4,143.3,111.8,143.1,113.7z"/>
</svg>
