<?xml version="1.0" encoding="utf-8"?>
<!-- Generator: Adobe Illustrator 26.2.1, SVG Export Plug-In . SVG Version: 6.00 Build 0)  -->
<svg version="1.1" xmlns="http://www.w3.org/2000/svg" xmlns:xlink="http://www.w3.org/1999/xlink" x="0px" y="0px"
	 viewBox="0 0 419.53 297.64" style="enable-background:new 0 0 419.53 297.64;" xml:space="preserve">
<style type="text/css">
	.st0{fill:#EB495E;}
	.st1{opacity:0.8;}
	.st2{fill:#FFFFFF;}
</style>
<g id="Layer_1">
</g>
<g id="Ebene_2">
</g>
<g id="Ebene_3">
	<g>
		<path d="M178.53,106.74l-8.49,1.5v37.17l8.49-1.5c3.5-0.62,6.36-3.97,6.36-7.48v-24.46C184.88,108.47,182.03,106.12,178.53,106.74
			z"/>
		<path d="M358.93,83.3c-0.07-0.06-0.13-0.12-0.21-0.17c-0.07-0.06-0.13-0.12-0.21-0.17c-0.07-0.06-0.13-0.12-0.21-0.17
			c-0.07-0.06-0.13-0.12-0.21-0.17c-0.07-0.06-0.13-0.12-0.21-0.17c-0.07-0.06-0.13-0.12-0.21-0.17c-0.07-0.06-0.13-0.12-0.21-0.17
			c-0.07-0.06-0.13-0.12-0.21-0.17c-0.07-0.06-0.13-0.12-0.21-0.17c-0.07-0.06-0.13-0.12-0.21-0.17c-0.07-0.06-0.13-0.12-0.21-0.17
			c-0.07-0.06-0.13-0.12-0.21-0.17c-0.07-0.06-0.13-0.12-0.21-0.17c-0.07-0.06-0.13-0.12-0.21-0.17c-0.07-0.06-0.13-0.12-0.21-0.17
			c-0.07-0.06-0.13-0.12-0.21-0.17c-0.07-0.06-0.13-0.12-0.21-0.17c-0.07-0.06-0.13-0.12-0.21-0.17c-0.07-0.06-0.13-0.12-0.21-0.17
			c-0.07-0.06-0.13-0.12-0.21-0.17c-0.07-0.06-0.13-0.12-0.21-0.17c-0.07-0.06-0.13-0.12-0.21-0.17c-0.07-0.06-0.13-0.12-0.21-0.17
			c-0.07-0.06-0.13-0.12-0.21-0.17c-0.07-0.06-0.13-0.12-0.21-0.17c-0.07-0.06-0.13-0.12-0.21-0.17c-0.07-0.06-0.13-0.12-0.21-0.17
			c-0.07-0.06-0.13-0.12-0.21-0.17c-0.07-0.06-0.13-0.12-0.21-0.17c-0.07-0.06-0.13-0.12-0.21-0.17c-0.07-0.06-0.13-0.12-0.21-0.17
			c-0.07-0.06-0.13-0.12-0.21-0.17c-0.07-0.06-0.13-0.12-0.21-0.17c-0.07-0.06-0.13-0.12-0.21-0.17c-0.07-0.06-0.13-0.12-0.21-0.17
			c-0.07-0.06-0.13-0.12-0.21-0.17c-0.07-0.06-0.13-0.12-0.21-0.17c-0.07-0.06-0.13-0.12-0.21-0.17c-0.07-0.06-0.13-0.12-0.21-0.17
			c-0.07-0.06-0.13-0.12-0.21-0.17c-0.07-0.06-0.13-0.12-0.21-0.17c-0.07-0.06-0.13-0.12-0.21-0.17c-0.07-0.06-0.13-0.12-0.21-0.17
			c-0.07-0.06-0.13-0.12-0.21-0.17c-0.07-0.06-0.13-0.12-0.21-0.17c-0.07-0.06-0.13-0.12-0.21-0.17c-0.07-0.06-0.13-0.12-0.21-0.17
			c-0.07-0.06-0.13-0.12-0.21-0.17c-0.07-0.06-0.13-0.12-0.21-0.17c-0.07-0.06-0.13-0.12-0.21-0.17c-0.07-0.06-0.13-0.12-0.21-0.17
			c-0.07-0.06-0.13-0.12-0.21-0.17c-0.07-0.06-0.13-0.12-0.21-0.17c-0.07-0.06-0.13-0.12-0.21-0.17c-0.07-0.06-0.13-0.12-0.21-0.17
			c-0.07-0.06-0.13-0.12-0.21-0.17c-0.07-0.06-0.13-0.12-0.21-0.17c-0.07-0.06-0.13-0.12-0.21-0.17c-0.07-0.06-0.13-0.12-0.21-0.17
			c-0.07-0.06-0.13-0.12-0.21-0.17c-0.07-0.06-0.13-0.12-0.21-0.17c-0.07-0.06-0.13-0.12-0.21-0.17c-0.07-0.06-0.13-0.12-0.21-0.17
			c-0.07-0.06-0.13-0.12-0.21-0.17c-0.07-0.06-0.13-0.12-0.21-0.17c-0.07-0.06-0.13-0.12-0.21-0.17c-0.07-0.06-0.13-0.12-0.21-0.17
			c-0.07-0.06-0.13-0.12-0.21-0.17c-0.07-0.06-0.13-0.12-0.21-0.17c-0.07-0.06-0.13-0.12-0.21-0.17c-0.07-0.06-0.13-0.12-0.21-0.17
			c-0.07-0.06-0.13-0.12-0.21-0.17c-0.07-0.06-0.13-0.12-0.21-0.17c-0.07-0.06-0.13-0.12-0.21-0.17c-0.07-0.06-0.13-0.12-0.21-0.17
			c-0.07-0.06-0.13-0.12-0.21-0.17c-0.07-0.06-0.13-0.12-0.21-0.17c-0.07-0.06-0.13-0.12-0.21-0.17c-0.07-0.06-0.13-0.12-0.21-0.17
			c-0.07-0.06-0.13-0.12-0.21-0.17c-0.07-0.06-0.13-0.12-0.21-0.17c-0.07-0.06-0.13-0.12-0.21-0.17c-0.07-0.06-0.13-0.12-0.21-0.17
			c-0.07-0.06-0.13-0.12-0.21-0.17c-0.07-0.06-0.13-0.12-0.21-0.17c-0.07-0.06-0.13-0.12-0.21-0.17c-0.07-0.06-0.13-0.12-0.21-0.17
			c-0.07-0.06-0.13-0.12-0.21-0.17c-0.07-0.06-0.13-0.12-0.21-0.17c-0.07-0.06-0.13-0.12-0.21-0.17c-0.07-0.06-0.13-0.12-0.21-0.17
			c-0.07-0.06-0.13-0.12-0.21-0.17c-0.07-0.06-0.13-0.12-0.21-0.17c-0.07-0.06-0.13-0.12-0.21-0.17c-0.07-0.06-0.13-0.12-0.21-0.17
			c-0.07-0.06-0.13-0.12-0.21-0.17c-0.07-0.06-0.13-0.12-0.21-0.17c-0.07-0.06-0.13-0.12-0.21-0.17c-0.07-0.06-0.13-0.12-0.21-0.17
			c-0.07-0.06-0.13-0.12-0.21-0.17c-0.07-0.06-0.13-0.12-0.21-0.17c-0.07-0.06-0.13-0.12-0.21-0.17c-0.07-0.06-0.13-0.12-0.21-0.17
			c-0.07-0.06-0.13-0.12-0.21-0.17c-0.07-0.06-0.13-0.12-0.21-0.17c-0.07-0.06-0.13-0.12-0.21-0.17c-0.07-0.06-0.13-0.12-0.21-0.17
			c-0.07-0.06-0.13-0.12-0.21-0.17c-0.07-0.06-0.13-0.12-0.21-0.17c-0.54-0.5-1.3-0.76-2.17-0.61l-12.41,2.19
			c-1.63,0.29-2.95,1.84-2.95,3.47v14.71c0,0,0,0-0.01,0c-0.06-0.07-0.14-0.11-0.21-0.17c-0.06-0.07-0.14-0.11-0.21-0.17
			c-0.06-0.07-0.14-0.11-0.21-0.17c-0.06-0.07-0.14-0.11-0.21-0.17c-0.06-0.07-0.14-0.11-0.21-0.17c-0.06-0.07-0.14-0.11-0.21-0.17
			c-0.06-0.07-0.14-0.11-0.21-0.17c-0.06-0.07-0.14-0.11-0.21-0.17c-0.06-0.07-0.14-0.11-0.21-0.17c-0.06-0.07-0.14-0.11-0.21-0.17
			c-0.06-0.07-0.14-0.11-0.21-0.17c-0.06-0.07-0.14-0.11-0.21-0.17c-0.06-0.07-0.14-0.11-0.21-0.17c-0.06-0.07-0.14-0.11-0.21-0.17
			c-0.06-0.07-0.14-0.11-0.21-0.17c-0.06-0.07-0.14-0.11-0.21-0.17c-0.06-0.07-0.14-0.11-0.21-0.17c-0.06-0.07-0.14-0.11-0.21-0.17
			c-0.06-0.07-0.14-0.11-0.21-0.17c-0.06-0.07-0.14-0.11-0.21-0.17c-0.06-0.07-0.14-0.11-0.21-0.17c-0.06-0.07-0.14-0.11-0.21-0.17
			c-0.06-0.07-0.14-0.11-0.21-0.17c-0.06-0.07-0.14-0.11-0.21-0.17c-0.06-0.07-0.14-0.11-0.21-0.17c-0.06-0.07-0.14-0.11-0.21-0.17
			c-0.06-0.07-0.14-0.11-0.21-0.17c-0.06-0.07-0.14-0.11-0.21-0.17c-0.06-0.07-0.14-0.11-0.21-0.17c-0.06-0.07-0.14-0.11-0.21-0.17
			c-0.06-0.07-0.14-0.11-0.21-0.17c-0.06-0.07-0.14-0.11-0.21-0.17c-0.06-0.07-0.14-0.11-0.21-0.17c-0.06-0.07-0.14-0.11-0.21-0.17
			c-0.06-0.07-0.14-0.11-0.21-0.17c-0.06-0.07-0.14-0.11-0.21-0.17c-0.06-0.07-0.14-0.11-0.21-0.17c-0.06-0.07-0.14-0.11-0.21-0.17
			c-0.06-0.07-0.14-0.11-0.21-0.17c-0.06-0.07-0.14-0.11-0.21-0.17c-0.06-0.07-0.14-0.11-0.21-0.17c-0.06-0.07-0.14-0.11-0.21-0.17
			c-0.06-0.07-0.14-0.11-0.21-0.17c-0.06-0.07-0.14-0.11-0.21-0.17c-0.06-0.07-0.14-0.11-0.21-0.17c-0.06-0.07-0.14-0.11-0.21-0.17
			c-0.06-0.07-0.14-0.11-0.21-0.17c-0.06-0.07-0.14-0.11-0.21-0.17c-0.06-0.07-0.14-0.11-0.21-0.17c-0.06-0.07-0.14-0.11-0.21-0.17
			c-0.06-0.07-0.14-0.11-0.21-0.17c-0.06-0.07-0.14-0.11-0.21-0.17c-0.06-0.07-0.14-0.11-0.21-0.17c-0.06-0.07-0.14-0.11-0.21-0.17
			c-0.06-0.07-0.14-0.11-0.21-0.17c-0.06-0.07-0.14-0.11-0.21-0.17c-0.06-0.07-0.14-0.11-0.21-0.17c-0.06-0.07-0.14-0.11-0.21-0.17
			c-0.06-0.07-0.14-0.11-0.21-0.17c-0.06-0.07-0.14-0.11-0.21-0.17c-0.06-0.07-0.14-0.11-0.21-0.17c-0.06-0.07-0.14-0.11-0.21-0.17
			c-0.06-0.07-0.14-0.11-0.21-0.17c-0.06-0.07-0.14-0.11-0.21-0.17c-0.06-0.07-0.14-0.11-0.21-0.17c-0.06-0.07-0.14-0.11-0.21-0.17
			c-0.06-0.07-0.14-0.11-0.21-0.17c-0.06-0.07-0.14-0.11-0.21-0.17c-0.06-0.07-0.14-0.11-0.21-0.17c-0.06-0.07-0.14-0.11-0.21-0.17
			c-0.06-0.07-0.14-0.11-0.21-0.17c-0.06-0.07-0.14-0.11-0.21-0.17c-0.06-0.07-0.14-0.11-0.21-0.17c-0.06-0.07-0.14-0.11-0.21-0.17
			c-0.06-0.07-0.14-0.11-0.21-0.17c-0.06-0.07-0.14-0.11-0.21-0.17c-0.06-0.07-0.14-0.11-0.21-0.17c-0.06-0.07-0.14-0.11-0.21-0.17
			c-0.06-0.07-0.14-0.11-0.21-0.17c-0.55-0.63-1.41-0.93-2.35-0.76l-12.79,2.25c-1.63,0.29-2.95,1.84-2.95,3.47v11.64
			c-0.02-0.01-0.04-0.02-0.06-0.03c-0.07-0.06-0.13-0.12-0.21-0.17c-0.07-0.06-0.13-0.12-0.21-0.17c-0.07-0.06-0.13-0.12-0.21-0.17
			c-0.07-0.06-0.13-0.12-0.21-0.17c-0.07-0.06-0.13-0.12-0.21-0.17c-0.07-0.06-0.13-0.12-0.21-0.17c-0.07-0.06-0.13-0.12-0.21-0.17
			c-0.07-0.06-0.13-0.12-0.21-0.17c-0.07-0.06-0.13-0.12-0.21-0.17c-0.07-0.06-0.13-0.12-0.21-0.17c-0.07-0.06-0.13-0.12-0.21-0.17
			c-0.07-0.06-0.13-0.12-0.21-0.17c-0.07-0.06-0.13-0.12-0.21-0.17c-0.07-0.06-0.13-0.12-0.21-0.17c-0.07-0.06-0.13-0.12-0.21-0.17
			c-0.07-0.06-0.13-0.12-0.21-0.17c-0.07-0.06-0.13-0.12-0.21-0.17c-0.07-0.06-0.13-0.12-0.21-0.17c-0.07-0.06-0.13-0.12-0.21-0.17
			c-0.07-0.06-0.13-0.12-0.21-0.17c-0.07-0.06-0.13-0.12-0.21-0.17c-0.07-0.06-0.13-0.12-0.21-0.17c-0.07-0.06-0.13-0.12-0.21-0.17
			c-0.07-0.06-0.13-0.12-0.21-0.17c-0.07-0.06-0.13-0.12-0.21-0.17c-0.07-0.06-0.13-0.12-0.21-0.17c-0.07-0.06-0.13-0.12-0.21-0.17
			c-0.07-0.06-0.13-0.12-0.21-0.17c-0.07-0.06-0.13-0.12-0.21-0.17c-0.07-0.06-0.13-0.12-0.21-0.17c-0.07-0.06-0.13-0.12-0.21-0.17
			c-0.07-0.06-0.13-0.12-0.21-0.17c-0.07-0.06-0.13-0.12-0.21-0.17c-0.07-0.06-0.13-0.12-0.21-0.17c-0.07-0.06-0.13-0.12-0.21-0.17
			c-0.07-0.06-0.13-0.12-0.21-0.17c-0.07-0.06-0.13-0.12-0.21-0.17c-0.07-0.06-0.13-0.12-0.21-0.17c-0.07-0.06-0.13-0.12-0.21-0.17
			c-0.07-0.06-0.13-0.12-0.21-0.17c-0.07-0.06-0.13-0.12-0.21-0.17c-0.07-0.06-0.13-0.12-0.21-0.17c-0.07-0.06-0.13-0.12-0.21-0.17
			c-0.07-0.06-0.13-0.12-0.21-0.17c-0.07-0.06-0.13-0.12-0.21-0.17c-0.07-0.06-0.13-0.12-0.21-0.17c-0.07-0.06-0.13-0.12-0.21-0.17
			c-0.07-0.06-0.13-0.12-0.21-0.17c-0.07-0.06-0.13-0.12-0.21-0.17c-0.07-0.06-0.13-0.12-0.21-0.17c-0.07-0.06-0.13-0.12-0.21-0.17
			c-0.07-0.06-0.13-0.12-0.21-0.17c-0.07-0.06-0.13-0.12-0.21-0.17c-0.07-0.06-0.13-0.12-0.21-0.17c-0.07-0.06-0.13-0.12-0.21-0.17
			c-0.07-0.06-0.13-0.12-0.21-0.17c-0.07-0.06-0.13-0.12-0.21-0.17c-0.07-0.06-0.13-0.12-0.21-0.17c-0.07-0.06-0.13-0.12-0.21-0.17
			c-0.07-0.06-0.13-0.12-0.21-0.17c-0.07-0.06-0.13-0.12-0.21-0.17c-0.07-0.06-0.13-0.12-0.21-0.17c-0.07-0.06-0.13-0.12-0.21-0.17
			c-0.07-0.06-0.13-0.12-0.21-0.17c-0.07-0.06-0.13-0.12-0.21-0.17c-0.54-0.5-1.3-0.76-2.17-0.61l-12.41,2.19
			c-1.63,0.29-2.95,1.84-2.95,3.47v88.32c-0.02-0.02-0.02-0.05-0.04-0.07c-0.05-0.05-0.12-0.06-0.17-0.1
			c-0.02-0.02-0.02-0.05-0.04-0.07c-0.05-0.05-0.12-0.06-0.17-0.1c-0.02-0.02-0.02-0.05-0.04-0.07c-0.05-0.05-0.12-0.06-0.17-0.1
			c-0.02-0.02-0.02-0.05-0.04-0.07c-0.05-0.05-0.12-0.06-0.17-0.1c-0.02-0.02-0.02-0.05-0.04-0.07c-0.05-0.05-0.12-0.06-0.17-0.1
			c-0.02-0.02-0.02-0.05-0.04-0.07c-0.05-0.05-0.12-0.06-0.17-0.1c-0.02-0.02-0.02-0.05-0.04-0.07c-0.05-0.05-0.12-0.06-0.17-0.1
			c-0.02-0.02-0.02-0.05-0.04-0.07c-0.05-0.05-0.12-0.06-0.17-0.1c-0.02-0.02-0.02-0.05-0.04-0.07c-0.05-0.05-0.12-0.06-0.17-0.1
			c-0.02-0.02-0.02-0.05-0.04-0.07c-0.05-0.05-0.12-0.06-0.17-0.1c-0.02-0.02-0.02-0.05-0.04-0.07c-0.05-0.05-0.12-0.06-0.17-0.1
			c-0.02-0.02-0.02-0.05-0.04-0.07c-0.05-0.05-0.12-0.06-0.17-0.1c-0.02-0.02-0.02-0.05-0.04-0.07c-0.05-0.05-0.12-0.06-0.17-0.1
			c-0.02-0.02-0.02-0.05-0.04-0.07c-0.05-0.05-0.12-0.06-0.17-0.1c-0.02-0.02-0.02-0.05-0.04-0.07c-0.05-0.05-0.12-0.06-0.17-0.1
			c-0.02-0.02-0.02-0.05-0.04-0.07c-0.05-0.05-0.12-0.06-0.17-0.1c-0.02-0.02-0.02-0.05-0.04-0.07c-0.05-0.05-0.12-0.06-0.17-0.1
			c-0.02-0.02-0.02-0.05-0.04-0.07c-0.05-0.05-0.12-0.06-0.17-0.1c-0.02-0.02-0.02-0.05-0.04-0.07c-0.05-0.05-0.12-0.06-0.17-0.1
			c-0.02-0.02-0.02-0.05-0.04-0.07c-0.05-0.05-0.12-0.06-0.17-0.1c-0.02-0.02-0.02-0.05-0.04-0.07c-0.05-0.05-0.12-0.06-0.17-0.1
			c-0.02-0.02-0.02-0.05-0.04-0.07c-0.05-0.05-0.12-0.06-0.17-0.1c-0.02-0.02-0.02-0.05-0.04-0.07c-0.05-0.05-0.12-0.06-0.17-0.1
			c-0.02-0.02-0.02-0.05-0.04-0.07c-0.03-0.04-0.09-0.04-0.13-0.08v-60.4c0-0.87-0.39-1.56-0.99-2c-0.07-0.06-0.13-0.12-0.21-0.17
			c-0.07-0.06-0.13-0.12-0.21-0.17c-0.07-0.06-0.13-0.12-0.21-0.17c-0.07-0.06-0.13-0.12-0.21-0.17c-0.07-0.06-0.13-0.12-0.21-0.17
			c-0.07-0.06-0.13-0.12-0.21-0.17c-0.07-0.06-0.13-0.12-0.21-0.17c-0.07-0.06-0.13-0.12-0.21-0.17c-0.07-0.06-0.13-0.12-0.21-0.17
			c-0.07-0.06-0.13-0.12-0.21-0.17c-0.07-0.06-0.13-0.12-0.21-0.17c-0.07-0.06-0.13-0.12-0.21-0.17c-0.07-0.06-0.13-0.12-0.21-0.17
			c-0.07-0.06-0.13-0.12-0.21-0.17c-0.07-0.06-0.13-0.12-0.21-0.17c-0.07-0.06-0.13-0.12-0.21-0.17c-0.07-0.06-0.13-0.12-0.21-0.17
			c-0.07-0.06-0.13-0.12-0.21-0.17c-0.07-0.06-0.13-0.12-0.21-0.17c-0.07-0.06-0.13-0.12-0.21-0.17c-0.07-0.06-0.13-0.12-0.21-0.17
			c-0.07-0.06-0.13-0.12-0.21-0.17c-0.07-0.06-0.13-0.12-0.21-0.17c-0.07-0.06-0.13-0.12-0.21-0.17c-0.07-0.06-0.13-0.12-0.21-0.17
			c-0.07-0.06-0.13-0.12-0.21-0.17c-0.07-0.06-0.13-0.12-0.21-0.17c-0.07-0.06-0.13-0.12-0.21-0.17c-0.07-0.06-0.13-0.12-0.21-0.17
			c-0.07-0.06-0.13-0.12-0.21-0.17c-0.07-0.06-0.13-0.12-0.21-0.17c-0.07-0.06-0.13-0.12-0.21-0.17c-0.07-0.06-0.13-0.12-0.21-0.17
			c-0.07-0.06-0.13-0.12-0.21-0.17c-0.07-0.06-0.13-0.12-0.21-0.17c-0.07-0.06-0.13-0.12-0.21-0.17c-0.07-0.06-0.13-0.12-0.21-0.17
			c-0.07-0.06-0.13-0.12-0.21-0.17c-0.07-0.06-0.13-0.12-0.21-0.17c-0.07-0.06-0.13-0.12-0.21-0.17c-0.07-0.06-0.13-0.12-0.21-0.17
			c-0.07-0.06-0.13-0.12-0.21-0.17c-0.07-0.06-0.13-0.12-0.21-0.17c-0.07-0.06-0.13-0.12-0.21-0.17c-0.07-0.06-0.13-0.12-0.21-0.17
			c-0.07-0.06-0.13-0.12-0.21-0.17c-0.07-0.06-0.13-0.12-0.21-0.17c-0.07-0.06-0.13-0.12-0.21-0.17c-0.07-0.06-0.13-0.12-0.21-0.17
			c-0.07-0.06-0.13-0.12-0.21-0.17c-0.07-0.06-0.13-0.12-0.21-0.17c-0.07-0.06-0.13-0.12-0.21-0.17c-0.07-0.06-0.13-0.12-0.21-0.17
			c-0.07-0.06-0.13-0.12-0.21-0.17c-0.07-0.06-0.13-0.12-0.21-0.17c-0.07-0.06-0.13-0.12-0.21-0.17c-0.07-0.06-0.13-0.12-0.21-0.17
			c-0.07-0.06-0.13-0.12-0.21-0.17c-0.07-0.06-0.13-0.12-0.21-0.17c-0.07-0.06-0.13-0.12-0.21-0.17c-0.07-0.06-0.13-0.12-0.21-0.17
			c-0.07-0.06-0.13-0.12-0.21-0.17c-0.07-0.06-0.13-0.12-0.21-0.17c-0.07-0.06-0.13-0.12-0.21-0.17c-0.07-0.06-0.13-0.12-0.21-0.17
			c-0.07-0.06-0.13-0.12-0.21-0.17c-0.07-0.06-0.13-0.12-0.21-0.17c-0.07-0.06-0.13-0.12-0.21-0.17c-0.07-0.06-0.13-0.12-0.21-0.17
			c-0.07-0.06-0.13-0.12-0.21-0.17c-0.07-0.06-0.13-0.12-0.21-0.17c-0.07-0.06-0.13-0.12-0.21-0.17c-0.07-0.06-0.13-0.12-0.21-0.17
			c-0.07-0.06-0.13-0.12-0.21-0.17c-0.07-0.06-0.13-0.12-0.21-0.17c-0.07-0.06-0.13-0.12-0.21-0.17c-0.07-0.06-0.13-0.12-0.21-0.17
			c-0.07-0.06-0.13-0.12-0.21-0.17c-0.07-0.06-0.13-0.12-0.21-0.17c-0.07-0.06-0.13-0.12-0.21-0.17c-0.07-0.06-0.13-0.12-0.21-0.17
			c-0.07-0.06-0.13-0.12-0.21-0.17c-0.07-0.06-0.13-0.12-0.21-0.17c-0.07-0.06-0.13-0.12-0.21-0.17c-0.07-0.06-0.13-0.12-0.21-0.17
			c-0.07-0.06-0.13-0.12-0.21-0.17c-0.07-0.06-0.13-0.12-0.21-0.17c-0.07-0.06-0.13-0.12-0.21-0.17c-0.07-0.06-0.13-0.12-0.21-0.17
			c-0.07-0.06-0.13-0.12-0.21-0.17c-0.07-0.06-0.13-0.12-0.21-0.17c-0.07-0.06-0.13-0.12-0.21-0.17c-0.07-0.06-0.13-0.12-0.21-0.17
			c-0.07-0.06-0.13-0.12-0.21-0.17c-0.07-0.06-0.13-0.12-0.21-0.17c-0.07-0.06-0.13-0.12-0.21-0.17c-0.07-0.06-0.13-0.12-0.21-0.17
			c-0.07-0.06-0.13-0.12-0.21-0.17c-0.07-0.06-0.13-0.12-0.21-0.17c-0.07-0.06-0.13-0.12-0.21-0.17c-0.07-0.06-0.13-0.12-0.21-0.17
			c-0.07-0.06-0.13-0.12-0.21-0.17c-0.07-0.06-0.13-0.12-0.21-0.17c-0.07-0.06-0.13-0.12-0.21-0.17c-0.07-0.06-0.13-0.12-0.21-0.17
			c-0.07-0.06-0.13-0.12-0.21-0.17c-0.07-0.06-0.13-0.12-0.21-0.17c-0.07-0.06-0.13-0.12-0.21-0.17c-0.07-0.06-0.13-0.12-0.21-0.17
			c-0.54-0.5-1.3-0.76-2.17-0.61l-12.41,2.19c-1.63,0.29-2.95,1.84-2.95,3.47v16.27c-0.01-0.01-0.02-0.01-0.03-0.02
			c-0.07-0.06-0.14-0.11-0.21-0.17c-0.07-0.06-0.14-0.12-0.21-0.17c-0.07-0.06-0.14-0.11-0.21-0.17c-0.07-0.06-0.14-0.12-0.21-0.17
			c-0.07-0.06-0.14-0.11-0.21-0.17c-0.07-0.06-0.14-0.12-0.21-0.17c-0.07-0.06-0.14-0.12-0.21-0.17c-0.07-0.06-0.14-0.12-0.21-0.17
			c-0.07-0.06-0.14-0.12-0.21-0.17c-0.07-0.06-0.14-0.12-0.21-0.17c-0.07-0.06-0.14-0.12-0.21-0.17c-0.07-0.06-0.14-0.11-0.21-0.17
			c-0.07-0.06-0.14-0.12-0.21-0.17c-0.07-0.06-0.14-0.12-0.21-0.17c-0.07-0.06-0.14-0.12-0.21-0.17c-0.07-0.06-0.14-0.12-0.21-0.17
			c-0.07-0.06-0.14-0.11-0.21-0.17c-0.07-0.06-0.14-0.12-0.21-0.17c-0.07-0.06-0.14-0.12-0.21-0.17c-0.07-0.06-0.14-0.12-0.21-0.17
			c-0.07-0.06-0.14-0.12-0.21-0.17c-0.07-0.06-0.14-0.11-0.21-0.17c-0.07-0.06-0.14-0.11-0.21-0.17c-0.07-0.06-0.14-0.12-0.21-0.17
			c-0.07-0.06-0.14-0.12-0.21-0.17c-0.07-0.06-0.14-0.12-0.21-0.17c-0.07-0.06-0.14-0.12-0.21-0.17c-0.07-0.06-0.14-0.12-0.21-0.17
			c-0.07-0.06-0.14-0.11-0.21-0.17c-0.07-0.06-0.14-0.12-0.21-0.17c-0.07-0.06-0.14-0.12-0.21-0.17c-0.07-0.06-0.14-0.12-0.21-0.17
			c-0.07-0.06-0.14-0.11-0.21-0.17c-0.07-0.06-0.14-0.12-0.21-0.17c-0.07-0.06-0.14-0.11-0.21-0.17c-0.07-0.06-0.14-0.12-0.21-0.17
			c-0.07-0.06-0.14-0.12-0.21-0.17c-0.07-0.06-0.14-0.12-0.21-0.17c-0.07-0.06-0.14-0.12-0.21-0.17c-0.07-0.06-0.14-0.12-0.21-0.17
			c-0.07-0.06-0.14-0.11-0.21-0.17c-0.07-0.06-0.14-0.12-0.21-0.17c-0.07-0.06-0.14-0.11-0.21-0.17c-0.07-0.06-0.14-0.12-0.21-0.17
			c-0.07-0.06-0.14-0.12-0.21-0.17c-0.07-0.06-0.14-0.12-0.21-0.17c-0.07-0.06-0.14-0.11-0.21-0.17c-0.07-0.06-0.14-0.12-0.21-0.17
			c-0.07-0.06-0.14-0.12-0.21-0.17c-0.07-0.06-0.14-0.11-0.21-0.17c-0.07-0.06-0.14-0.12-0.21-0.17c-0.07-0.06-0.14-0.12-0.21-0.17
			c-0.07-0.06-0.14-0.11-0.21-0.17c-0.07-0.06-0.14-0.12-0.21-0.17c-0.07-0.06-0.14-0.12-0.21-0.17c-0.07-0.06-0.14-0.12-0.21-0.17
			c-0.07-0.06-0.14-0.12-0.21-0.17c-0.07-0.06-0.14-0.11-0.21-0.17c-0.07-0.06-0.14-0.12-0.21-0.17c-0.07-0.06-0.14-0.12-0.21-0.17
			c-0.07-0.06-0.14-0.12-0.21-0.17c-3.94-3.3-9.41-4.82-15.45-3.75l-20.9,3.69c-1.63,0.29-2.95,1.84-2.95,3.47v6.51
			c-0.03-0.02-0.06-0.03-0.08-0.05c-0.07-0.06-0.13-0.12-0.21-0.17c-0.07-0.06-0.13-0.12-0.21-0.17c-0.07-0.06-0.13-0.12-0.21-0.17
			c-0.07-0.06-0.13-0.12-0.21-0.17c-0.07-0.06-0.13-0.12-0.21-0.17c-0.07-0.06-0.13-0.12-0.21-0.17c-0.07-0.06-0.13-0.12-0.21-0.17
			c-0.07-0.06-0.13-0.12-0.21-0.17c-0.07-0.06-0.13-0.12-0.21-0.17c-0.07-0.06-0.13-0.12-0.21-0.17c-0.07-0.06-0.13-0.12-0.21-0.17
			c-0.07-0.06-0.13-0.12-0.21-0.17c-0.07-0.06-0.13-0.12-0.21-0.17c-0.07-0.06-0.13-0.12-0.21-0.17c-0.07-0.06-0.13-0.12-0.21-0.17
			c-0.07-0.06-0.13-0.12-0.21-0.17c-0.07-0.06-0.13-0.12-0.21-0.17c-0.07-0.06-0.13-0.12-0.21-0.17c-0.07-0.06-0.13-0.12-0.21-0.17
			c-0.07-0.06-0.13-0.12-0.21-0.17c-0.07-0.06-0.13-0.12-0.21-0.17c-0.07-0.06-0.13-0.12-0.21-0.17c-0.07-0.06-0.13-0.12-0.21-0.17
			c-0.07-0.06-0.13-0.12-0.21-0.17c-0.07-0.06-0.13-0.12-0.21-0.17c-0.07-0.06-0.13-0.12-0.21-0.17c-0.07-0.06-0.13-0.12-0.21-0.17
			c-0.07-0.06-0.13-0.12-0.21-0.17c-0.07-0.06-0.13-0.12-0.21-0.17c-0.07-0.06-0.13-0.12-0.21-0.17c-0.07-0.06-0.13-0.12-0.21-0.17
			c-0.07-0.06-0.13-0.12-0.21-0.17c-0.07-0.06-0.13-0.12-0.21-0.17c-0.07-0.06-0.13-0.12-0.21-0.17c-0.07-0.06-0.13-0.12-0.21-0.17
			c-0.07-0.06-0.13-0.12-0.21-0.17c-0.07-0.06-0.13-0.12-0.21-0.17c-0.07-0.06-0.13-0.12-0.21-0.17c-0.07-0.06-0.13-0.12-0.21-0.17
			c-0.07-0.06-0.13-0.12-0.21-0.17c-0.07-0.06-0.13-0.12-0.21-0.17c-0.53-0.42-1.24-0.63-2.02-0.49l-33.46,5.9
			c-1.63,0.29-2.95,1.84-2.95,3.47v19.46c-0.03-0.02-0.06-0.04-0.08-0.06c-0.07-0.06-0.14-0.12-0.21-0.17
			c-0.07-0.06-0.14-0.12-0.21-0.17c-0.07-0.06-0.14-0.12-0.21-0.17c-0.07-0.06-0.14-0.11-0.21-0.17c-0.07-0.06-0.14-0.12-0.21-0.17
			c-0.07-0.06-0.14-0.12-0.21-0.17c-0.07-0.06-0.14-0.12-0.21-0.17c-0.07-0.06-0.14-0.12-0.21-0.17c-0.07-0.06-0.14-0.11-0.21-0.17
			c-0.07-0.06-0.14-0.12-0.21-0.17c-0.07-0.06-0.14-0.12-0.21-0.17c-0.07-0.06-0.14-0.12-0.21-0.17c-0.07-0.06-0.14-0.12-0.21-0.17
			c-0.07-0.06-0.14-0.12-0.21-0.17c-0.07-0.06-0.14-0.11-0.21-0.17c-0.07-0.06-0.14-0.12-0.21-0.17c-0.07-0.06-0.14-0.12-0.21-0.17
			c-0.07-0.06-0.14-0.12-0.21-0.17c-0.07-0.06-0.14-0.12-0.21-0.17c-0.07-0.06-0.14-0.12-0.21-0.17c-0.07-0.06-0.14-0.12-0.21-0.17
			c-0.07-0.06-0.14-0.11-0.21-0.17c-0.07-0.06-0.14-0.12-0.21-0.17c-0.07-0.06-0.14-0.12-0.21-0.17c-0.07-0.06-0.14-0.12-0.21-0.17
			c-0.07-0.06-0.14-0.11-0.21-0.17c-0.07-0.06-0.14-0.12-0.21-0.17c-0.07-0.06-0.14-0.11-0.21-0.17c-0.07-0.06-0.14-0.12-0.21-0.17
			c-0.07-0.06-0.14-0.12-0.21-0.17c-0.07-0.06-0.14-0.11-0.21-0.17c-0.07-0.06-0.14-0.12-0.21-0.17c-0.07-0.06-0.14-0.12-0.21-0.17
			c-0.07-0.06-0.14-0.11-0.21-0.17c-0.07-0.06-0.14-0.12-0.21-0.17c-0.07-0.06-0.14-0.12-0.21-0.17c-0.07-0.06-0.14-0.11-0.21-0.17
			c-0.07-0.06-0.14-0.12-0.21-0.17c-0.07-0.06-0.14-0.12-0.21-0.17c-0.07-0.06-0.14-0.11-0.21-0.17c-0.07-0.06-0.14-0.12-0.21-0.17
			c-0.07-0.06-0.14-0.12-0.21-0.17c-0.07-0.06-0.14-0.12-0.21-0.17c-0.07-0.06-0.14-0.11-0.21-0.17c-0.07-0.06-0.14-0.12-0.21-0.17
			c-0.07-0.06-0.14-0.11-0.21-0.17c-0.07-0.06-0.14-0.12-0.21-0.17c-0.07-0.06-0.14-0.11-0.21-0.17c-0.07-0.06-0.14-0.12-0.21-0.17
			c-0.07-0.06-0.14-0.12-0.21-0.17c-0.07-0.06-0.14-0.12-0.21-0.17c-0.07-0.06-0.14-0.11-0.21-0.17c-0.07-0.06-0.14-0.12-0.21-0.17
			c-0.07-0.06-0.14-0.12-0.21-0.17c-0.07-0.06-0.14-0.11-0.21-0.17c-0.07-0.06-0.14-0.12-0.21-0.17c-0.07-0.06-0.14-0.12-0.21-0.17
			c-0.07-0.06-0.14-0.11-0.21-0.17c-0.07-0.06-0.14-0.12-0.21-0.17c-0.07-0.06-0.14-0.11-0.21-0.17c-0.07-0.06-0.14-0.12-0.21-0.17
			c-0.07-0.06-0.14-0.11-0.21-0.17c-0.07-0.06-0.14-0.12-0.21-0.17c-0.07-0.06-0.14-0.11-0.21-0.17c-0.07-0.06-0.14-0.12-0.21-0.17
			c-0.07-0.06-0.14-0.12-0.21-0.17c-0.07-0.06-0.14-0.12-0.21-0.17c-0.07-0.06-0.14-0.11-0.21-0.17c-0.07-0.06-0.14-0.12-0.21-0.17
			c-0.07-0.06-0.14-0.12-0.21-0.17c-0.07-0.06-0.14-0.11-0.21-0.17c-0.07-0.06-0.14-0.12-0.21-0.17c-0.07-0.06-0.14-0.12-0.21-0.17
			c-0.07-0.06-0.14-0.12-0.21-0.17c-0.07-0.06-0.14-0.12-0.21-0.17c-0.07-0.06-0.14-0.11-0.21-0.17c-3.94-3.3-9.41-4.82-15.45-3.75
			l-20.9,3.69c-1.63,0.29-2.95,1.84-2.95,3.47v97.52c0,0.87,0.39,1.56,0.99,2c0.07,0.06,0.13,0.12,0.21,0.17
			c0.07,0.06,0.13,0.12,0.21,0.17c0.07,0.06,0.13,0.12,0.21,0.17c0.07,0.06,0.13,0.12,0.21,0.17c0.07,0.06,0.13,0.12,0.21,0.17
			c0.07,0.06,0.13,0.12,0.21,0.17c0.07,0.06,0.13,0.12,0.21,0.17c0.07,0.06,0.13,0.12,0.21,0.17c0.07,0.06,0.13,0.12,0.21,0.17
			c0.07,0.06,0.13,0.12,0.21,0.17c0.07,0.06,0.13,0.12,0.21,0.17c0.07,0.06,0.13,0.12,0.21,0.17c0.07,0.06,0.13,0.12,0.21,0.17
			c0.07,0.06,0.13,0.12,0.21,0.17c0.07,0.06,0.13,0.12,0.21,0.17c0.07,0.06,0.13,0.12,0.21,0.17c0.07,0.06,0.13,0.12,0.21,0.17
			c0.07,0.06,0.13,0.12,0.21,0.17c0.07,0.06,0.13,0.12,0.21,0.17c0.07,0.06,0.13,0.12,0.21,0.17c0.07,0.06,0.13,0.12,0.21,0.17
			c0.07,0.06,0.13,0.12,0.21,0.17c0.07,0.06,0.13,0.12,0.21,0.17c0.07,0.06,0.13,0.12,0.21,0.17c0.07,0.06,0.13,0.12,0.21,0.17
			c0.07,0.06,0.13,0.12,0.21,0.17c0.07,0.06,0.13,0.12,0.21,0.17c0.07,0.06,0.13,0.12,0.21,0.17c0.07,0.06,0.13,0.12,0.21,0.17
			c0.07,0.06,0.13,0.12,0.21,0.17c0.07,0.06,0.13,0.12,0.21,0.17c0.07,0.06,0.13,0.12,0.21,0.17c0.07,0.06,0.13,0.12,0.21,0.17
			c0.07,0.06,0.13,0.12,0.21,0.17c0.07,0.06,0.13,0.12,0.21,0.17c0.07,0.06,0.13,0.12,0.21,0.17c0.07,0.06,0.13,0.12,0.21,0.17
			c0.07,0.06,0.13,0.12,0.21,0.17c0.07,0.06,0.13,0.12,0.21,0.17c0.07,0.06,0.13,0.12,0.21,0.17c0.07,0.06,0.13,0.12,0.21,0.17
			c0.07,0.06,0.13,0.12,0.21,0.17c0.07,0.06,0.13,0.12,0.21,0.17c0.07,0.06,0.13,0.12,0.21,0.17c0.07,0.06,0.13,0.12,0.21,0.17
			c0.07,0.06,0.13,0.12,0.21,0.17c0.07,0.06,0.13,0.12,0.21,0.17c0.07,0.06,0.13,0.12,0.21,0.17c0.07,0.06,0.13,0.12,0.21,0.17
			c0.07,0.06,0.13,0.12,0.21,0.17c0.07,0.06,0.13,0.12,0.21,0.17c0.07,0.06,0.13,0.12,0.21,0.17c0.07,0.06,0.13,0.12,0.21,0.17
			c0.07,0.06,0.13,0.12,0.21,0.17c0.07,0.06,0.13,0.12,0.21,0.17c0.07,0.06,0.13,0.12,0.21,0.17c0.07,0.06,0.13,0.12,0.21,0.17
			c0.07,0.06,0.13,0.12,0.21,0.17c0.07,0.06,0.13,0.12,0.21,0.17c0.07,0.06,0.13,0.12,0.21,0.17c0.07,0.06,0.13,0.12,0.21,0.17
			c0.07,0.06,0.13,0.12,0.21,0.17c0.07,0.06,0.13,0.12,0.21,0.17c0.07,0.06,0.13,0.12,0.21,0.17c0.07,0.06,0.13,0.12,0.21,0.17
			c0.07,0.06,0.13,0.12,0.21,0.17c0.07,0.06,0.13,0.12,0.21,0.17c0.07,0.06,0.13,0.12,0.21,0.17c0.07,0.06,0.13,0.12,0.21,0.17
			c0.07,0.06,0.13,0.12,0.21,0.17c0.07,0.06,0.13,0.12,0.21,0.17c0.07,0.06,0.13,0.12,0.21,0.17c0.07,0.06,0.13,0.12,0.21,0.17
			c0.07,0.06,0.13,0.12,0.21,0.17c0.07,0.06,0.13,0.12,0.21,0.17c0.07,0.06,0.13,0.12,0.21,0.17c0.07,0.06,0.13,0.12,0.21,0.17
			c0.07,0.06,0.13,0.12,0.21,0.17c0.07,0.06,0.13,0.12,0.21,0.17c0.07,0.06,0.13,0.12,0.21,0.17c0.07,0.06,0.13,0.12,0.21,0.17
			c0.07,0.06,0.13,0.12,0.21,0.17c0.07,0.06,0.13,0.12,0.21,0.17c0.07,0.06,0.13,0.12,0.21,0.17c0.07,0.06,0.13,0.12,0.21,0.17
			c0.07,0.06,0.13,0.12,0.21,0.17c0.07,0.06,0.13,0.12,0.21,0.17c0.07,0.06,0.13,0.12,0.21,0.17c0.07,0.06,0.13,0.12,0.21,0.17
			c0.07,0.06,0.13,0.12,0.21,0.17c0.07,0.06,0.13,0.12,0.21,0.17c0.07,0.06,0.13,0.12,0.21,0.17c0.07,0.06,0.13,0.12,0.21,0.17
			c0.07,0.06,0.13,0.12,0.21,0.17c0.07,0.06,0.13,0.12,0.21,0.17c0.07,0.06,0.13,0.12,0.21,0.17c0.07,0.06,0.13,0.12,0.21,0.17
			c0.07,0.06,0.13,0.12,0.21,0.17c0.07,0.06,0.13,0.12,0.21,0.17c0.07,0.06,0.13,0.12,0.21,0.17c0.07,0.06,0.13,0.12,0.21,0.17
			c0.07,0.06,0.13,0.12,0.21,0.17c0.07,0.06,0.13,0.12,0.21,0.17c0.07,0.06,0.13,0.12,0.21,0.17c0.07,0.06,0.13,0.12,0.21,0.17
			c0.07,0.06,0.13,0.12,0.21,0.17c0.07,0.06,0.13,0.12,0.21,0.17c0.07,0.06,0.13,0.12,0.21,0.17c0.07,0.06,0.13,0.12,0.21,0.17
			c0.54,0.5,1.3,0.76,2.17,0.61l20.9-3.69c8.94-1.58,16.63-8.36,19.95-16.68c0.03,0.03,0.08,0.03,0.11,0.06
			c0.07,0.06,0.13,0.12,0.21,0.17c0.07,0.06,0.13,0.12,0.21,0.17c0.07,0.06,0.13,0.12,0.21,0.17c0.07,0.06,0.13,0.12,0.21,0.17
			c0.07,0.06,0.13,0.12,0.21,0.17c0.07,0.06,0.13,0.12,0.21,0.17c0.07,0.06,0.13,0.12,0.21,0.17c0.07,0.06,0.13,0.12,0.21,0.17
			c0.07,0.06,0.13,0.12,0.21,0.17c0.07,0.06,0.13,0.12,0.21,0.17c0.07,0.06,0.13,0.12,0.21,0.17c0.07,0.06,0.13,0.12,0.21,0.17
			c0.07,0.06,0.13,0.12,0.21,0.17c0.07,0.06,0.13,0.12,0.21,0.17c0.07,0.06,0.13,0.12,0.21,0.17c0.07,0.06,0.13,0.12,0.21,0.17
			c0.07,0.06,0.13,0.12,0.21,0.17c0.07,0.06,0.13,0.12,0.21,0.17c0.07,0.06,0.13,0.12,0.21,0.17c0.07,0.06,0.13,0.12,0.21,0.17
			c0.07,0.06,0.13,0.12,0.21,0.17c0.07,0.06,0.13,0.12,0.21,0.17c0.07,0.06,0.13,0.12,0.21,0.17c0.07,0.06,0.13,0.12,0.21,0.17
			c0.07,0.06,0.13,0.12,0.21,0.17c0.07,0.06,0.13,0.12,0.21,0.17c0.07,0.06,0.13,0.12,0.21,0.17c0.07,0.06,0.13,0.12,0.21,0.17
			c0.07,0.06,0.13,0.12,0.21,0.17c0.07,0.06,0.13,0.12,0.21,0.17c0.07,0.06,0.13,0.12,0.21,0.17c0.07,0.06,0.13,0.12,0.21,0.17
			c0.07,0.06,0.13,0.12,0.21,0.17c0.07,0.06,0.13,0.12,0.21,0.17c0.07,0.06,0.13,0.12,0.21,0.17c0.07,0.06,0.13,0.12,0.21,0.17
			c0.07,0.06,0.13,0.12,0.21,0.17c0.07,0.06,0.13,0.12,0.21,0.17c0.07,0.06,0.13,0.12,0.21,0.17c0.07,0.06,0.13,0.12,0.21,0.17
			c0.07,0.06,0.13,0.12,0.21,0.17c0.07,0.06,0.13,0.12,0.21,0.17c0.07,0.06,0.13,0.12,0.21,0.17c0.07,0.06,0.13,0.12,0.21,0.17
			c0.07,0.06,0.13,0.12,0.21,0.17c0.07,0.06,0.13,0.12,0.21,0.17c0.07,0.06,0.13,0.12,0.21,0.17c0.07,0.06,0.13,0.12,0.21,0.17
			c0.07,0.06,0.13,0.12,0.21,0.17c0.07,0.06,0.13,0.12,0.21,0.17c0.07,0.06,0.13,0.12,0.21,0.17c0.07,0.06,0.13,0.12,0.21,0.17
			c0.07,0.06,0.13,0.12,0.21,0.17c0.07,0.06,0.13,0.12,0.21,0.17c0.07,0.06,0.13,0.12,0.21,0.17c0.07,0.06,0.13,0.12,0.21,0.17
			c0.07,0.06,0.13,0.12,0.21,0.17c0.07,0.06,0.13,0.12,0.21,0.17c0.54,0.5,1.3,0.76,2.17,0.61l33.46-5.9
			c1.41-0.25,2.62-1.45,2.89-2.88l1.19-6.17c0.02,0.01,0.04,0.02,0.06,0.03c0.07,0.06,0.13,0.12,0.21,0.17
			c0.07,0.06,0.13,0.12,0.21,0.17c0.07,0.06,0.13,0.12,0.21,0.17c0.07,0.06,0.13,0.12,0.21,0.17c0.07,0.06,0.13,0.12,0.21,0.17
			c0.07,0.06,0.13,0.12,0.21,0.17c0.07,0.06,0.13,0.12,0.21,0.17c0.07,0.06,0.13,0.12,0.21,0.17c0.07,0.06,0.13,0.12,0.21,0.17
			c0.07,0.06,0.13,0.12,0.21,0.17c0.07,0.06,0.13,0.12,0.21,0.17c0.07,0.06,0.13,0.12,0.21,0.17c0.07,0.06,0.13,0.12,0.21,0.17
			c0.07,0.06,0.13,0.12,0.21,0.17c0.07,0.06,0.13,0.12,0.21,0.17c0.07,0.06,0.13,0.12,0.21,0.17c0.07,0.06,0.13,0.12,0.21,0.17
			c0.07,0.06,0.13,0.12,0.21,0.17c0.07,0.06,0.13,0.12,0.21,0.17c0.07,0.06,0.13,0.12,0.21,0.17c0.07,0.06,0.13,0.12,0.21,0.17
			c0.07,0.06,0.13,0.12,0.21,0.17c0.07,0.06,0.13,0.12,0.21,0.17c0.07,0.06,0.13,0.12,0.21,0.17c0.07,0.06,0.13,0.12,0.21,0.17
			c0.07,0.06,0.13,0.12,0.21,0.17c0.07,0.06,0.13,0.12,0.21,0.17c0.07,0.06,0.13,0.12,0.21,0.17c0.07,0.06,0.13,0.12,0.21,0.17
			c0.07,0.06,0.13,0.12,0.21,0.17c0.07,0.06,0.13,0.12,0.21,0.17c0.07,0.06,0.13,0.12,0.21,0.17c0.07,0.06,0.13,0.12,0.21,0.17
			c0.07,0.06,0.13,0.12,0.21,0.17c0.07,0.06,0.13,0.12,0.21,0.17c0.54,0.5,1.3,0.76,2.17,0.61l12.41-2.19
			c1.63-0.29,2.95-1.84,2.95-3.47V204c0.04,0.03,0.09,0.04,0.13,0.07c0.07,0.06,0.13,0.12,0.21,0.17c0.07,0.06,0.13,0.12,0.21,0.17
			c0.07,0.06,0.13,0.12,0.21,0.17c0.07,0.06,0.13,0.12,0.21,0.17c0.07,0.06,0.13,0.12,0.21,0.17c0.07,0.06,0.13,0.12,0.21,0.17
			c0.07,0.06,0.13,0.12,0.21,0.17c0.07,0.06,0.13,0.12,0.21,0.17c0.07,0.06,0.13,0.12,0.21,0.17c0.07,0.06,0.13,0.12,0.21,0.17
			c0.07,0.06,0.13,0.12,0.21,0.17c0.07,0.06,0.13,0.12,0.21,0.17c0.07,0.06,0.13,0.12,0.21,0.17c0.07,0.06,0.13,0.12,0.21,0.17
			c0.07,0.06,0.13,0.12,0.21,0.17c0.07,0.06,0.13,0.12,0.21,0.17c0.07,0.06,0.13,0.12,0.21,0.17c0.07,0.06,0.13,0.12,0.21,0.17
			c0.07,0.06,0.13,0.12,0.21,0.17c0.07,0.06,0.13,0.12,0.21,0.17c0.07,0.06,0.13,0.12,0.21,0.17c0.07,0.06,0.13,0.12,0.21,0.17
			c0.07,0.06,0.13,0.12,0.21,0.17c0.07,0.06,0.13,0.12,0.21,0.17c0.07,0.06,0.13,0.12,0.21,0.17c0.07,0.06,0.13,0.12,0.21,0.17
			c0.07,0.06,0.13,0.12,0.21,0.17c0.07,0.06,0.13,0.12,0.21,0.17c0.07,0.06,0.13,0.12,0.21,0.17c0.07,0.06,0.13,0.12,0.21,0.17
			c0.07,0.06,0.13,0.12,0.21,0.17c0.07,0.06,0.13,0.12,0.21,0.17c0.07,0.06,0.13,0.12,0.21,0.17c0.07,0.06,0.13,0.12,0.21,0.17
			c0.07,0.06,0.13,0.12,0.21,0.17c0.07,0.06,0.13,0.12,0.21,0.17c0.07,0.06,0.13,0.12,0.21,0.17c0.07,0.06,0.13,0.12,0.21,0.17
			c0.07,0.06,0.13,0.12,0.21,0.17c0.07,0.06,0.13,0.12,0.21,0.17c0.07,0.06,0.13,0.12,0.21,0.17c0.07,0.06,0.13,0.12,0.21,0.17
			c0.07,0.06,0.13,0.12,0.21,0.17c0.07,0.06,0.13,0.12,0.21,0.17c0.07,0.06,0.13,0.12,0.21,0.17c0.07,0.06,0.13,0.12,0.21,0.17
			c0.54,0.5,1.3,0.76,2.17,0.61l12.41-2.19c1.63-0.29,2.95-1.84,2.95-3.47v-5.28c0.05,0.05,0.11,0.08,0.17,0.12
			c0.07,0.06,0.13,0.12,0.21,0.17c0.07,0.06,0.13,0.12,0.21,0.17c0.07,0.06,0.13,0.12,0.21,0.17c0.07,0.06,0.13,0.12,0.21,0.17
			c0.07,0.06,0.13,0.12,0.21,0.17c0.07,0.06,0.13,0.12,0.21,0.17c0.07,0.06,0.13,0.12,0.21,0.17c0.07,0.06,0.13,0.12,0.21,0.17
			c0.07,0.06,0.13,0.12,0.21,0.17c0.07,0.06,0.13,0.12,0.21,0.17c0.07,0.06,0.13,0.12,0.21,0.17c0.07,0.06,0.13,0.12,0.21,0.17
			c0.07,0.06,0.13,0.12,0.21,0.17c0.07,0.06,0.13,0.12,0.21,0.17c0.07,0.06,0.13,0.12,0.21,0.17c0.07,0.06,0.13,0.12,0.21,0.17
			c0.07,0.06,0.13,0.12,0.21,0.17c0.07,0.06,0.13,0.12,0.21,0.17c0.07,0.06,0.13,0.12,0.21,0.17c0.07,0.06,0.13,0.12,0.21,0.17
			c0.07,0.06,0.13,0.12,0.21,0.17c0.07,0.06,0.13,0.12,0.21,0.17c0.07,0.06,0.13,0.12,0.21,0.17c0.07,0.06,0.13,0.12,0.21,0.17
			c0.07,0.06,0.13,0.12,0.21,0.17c0.07,0.06,0.13,0.12,0.21,0.17c0.07,0.06,0.13,0.12,0.21,0.17c0.07,0.06,0.13,0.12,0.21,0.17
			c0.07,0.06,0.13,0.12,0.21,0.17c0.07,0.06,0.13,0.12,0.21,0.17c0.07,0.06,0.13,0.12,0.21,0.17c0.07,0.06,0.13,0.12,0.21,0.17
			c0.07,0.06,0.13,0.12,0.21,0.17c0.07,0.06,0.13,0.12,0.21,0.17c0.54,0.5,1.3,0.76,2.17,0.61l33.46-5.9
			c1.41-0.25,2.62-1.45,2.89-2.88l1.05-5.43c0.06,0.05,0.12,0.09,0.18,0.13c0.07,0.06,0.13,0.12,0.21,0.17
			c0.07,0.06,0.13,0.12,0.21,0.17c0.07,0.06,0.13,0.12,0.21,0.17c0.07,0.06,0.13,0.12,0.21,0.17c0.07,0.06,0.13,0.12,0.21,0.17
			c0.07,0.06,0.13,0.12,0.21,0.17c0.07,0.06,0.13,0.12,0.21,0.17c0.07,0.06,0.13,0.12,0.21,0.17c0.07,0.06,0.13,0.12,0.21,0.17
			c0.07,0.06,0.13,0.12,0.21,0.17c0.07,0.06,0.13,0.12,0.21,0.17c0.07,0.06,0.13,0.12,0.21,0.17c0.07,0.06,0.13,0.12,0.21,0.17
			c0.07,0.06,0.13,0.12,0.21,0.17c0.07,0.06,0.13,0.12,0.21,0.17c0.07,0.06,0.13,0.12,0.21,0.17c0.07,0.06,0.13,0.12,0.21,0.17
			c0.07,0.06,0.13,0.12,0.21,0.17c0.07,0.06,0.13,0.12,0.21,0.17c0.07,0.06,0.13,0.12,0.21,0.17c0.07,0.06,0.13,0.12,0.21,0.17
			c0.07,0.06,0.13,0.12,0.21,0.17c0.07,0.06,0.13,0.12,0.21,0.17c0.07,0.06,0.13,0.12,0.21,0.17c0.07,0.06,0.13,0.12,0.21,0.17
			c0.07,0.06,0.13,0.12,0.21,0.17c0.07,0.06,0.13,0.12,0.21,0.17c0.07,0.06,0.13,0.12,0.21,0.17c0.07,0.06,0.13,0.12,0.21,0.17
			c0.07,0.06,0.13,0.12,0.21,0.17c0.07,0.06,0.13,0.12,0.21,0.17c0.54,0.5,1.3,0.76,2.17,0.61l12.41-2.19
			c1.63-0.29,2.95-1.84,2.95-3.47v-11.64c0.02,0.01,0.04,0.02,0.06,0.03c0.07,0.06,0.13,0.12,0.21,0.17
			c0.07,0.06,0.13,0.12,0.21,0.17c0.07,0.06,0.13,0.12,0.21,0.17c0.07,0.06,0.13,0.12,0.21,0.17c0.07,0.06,0.13,0.12,0.21,0.17
			c0.07,0.06,0.13,0.12,0.21,0.17c0.07,0.06,0.13,0.12,0.21,0.17c0.07,0.06,0.13,0.12,0.21,0.17c0.07,0.06,0.13,0.12,0.21,0.17
			c0.07,0.06,0.13,0.12,0.21,0.17c0.07,0.06,0.13,0.12,0.21,0.17c0.07,0.06,0.13,0.12,0.21,0.17c0.07,0.06,0.13,0.12,0.21,0.17
			c0.07,0.06,0.13,0.12,0.21,0.17c0.07,0.06,0.13,0.12,0.21,0.17c0.07,0.06,0.13,0.12,0.21,0.17c0.07,0.06,0.13,0.12,0.21,0.17
			c0.07,0.06,0.13,0.12,0.21,0.17c0.07,0.06,0.13,0.12,0.21,0.17c0.07,0.06,0.13,0.12,0.21,0.17c0.07,0.06,0.13,0.12,0.21,0.17
			c0.07,0.06,0.13,0.12,0.21,0.17c0.07,0.06,0.13,0.12,0.21,0.17c0.07,0.06,0.13,0.12,0.21,0.17c0.07,0.06,0.13,0.12,0.21,0.17
			c0.07,0.06,0.13,0.12,0.21,0.17c0.07,0.06,0.13,0.12,0.21,0.17c0.07,0.06,0.13,0.12,0.21,0.17c0.07,0.06,0.13,0.12,0.21,0.17
			c0.07,0.06,0.13,0.12,0.21,0.17c0.07,0.06,0.13,0.12,0.21,0.17c0.07,0.06,0.13,0.12,0.21,0.17c0.07,0.06,0.13,0.12,0.21,0.17
			c0.07,0.06,0.13,0.12,0.21,0.17c0.07,0.06,0.13,0.12,0.21,0.17c0.07,0.06,0.13,0.12,0.21,0.17c0.07,0.06,0.13,0.12,0.21,0.17
			c0.07,0.06,0.13,0.12,0.21,0.17c0.07,0.06,0.13,0.12,0.21,0.17c0.07,0.06,0.13,0.12,0.21,0.17c0.07,0.06,0.13,0.12,0.21,0.17
			c0.07,0.06,0.13,0.12,0.21,0.17c0.07,0.06,0.13,0.12,0.21,0.17c0.07,0.06,0.13,0.12,0.21,0.17c0.07,0.06,0.13,0.12,0.21,0.17
			c0.07,0.06,0.13,0.12,0.21,0.17c0.07,0.06,0.13,0.12,0.21,0.17c0.07,0.06,0.13,0.12,0.21,0.17c0.07,0.06,0.13,0.12,0.21,0.17
			c0.07,0.06,0.13,0.12,0.21,0.17c0.07,0.06,0.13,0.12,0.21,0.17c0.07,0.06,0.13,0.12,0.21,0.17c0.07,0.06,0.13,0.12,0.21,0.17
			c0.07,0.06,0.13,0.12,0.21,0.17c0.07,0.06,0.13,0.12,0.21,0.17c0.07,0.06,0.13,0.12,0.21,0.17c0.07,0.06,0.13,0.12,0.21,0.17
			c0.07,0.06,0.13,0.12,0.21,0.17c0.07,0.06,0.13,0.12,0.21,0.17c0.07,0.06,0.13,0.12,0.21,0.17c0.07,0.06,0.13,0.12,0.21,0.17
			c0.07,0.06,0.13,0.12,0.21,0.17c0.07,0.06,0.13,0.12,0.21,0.17c0.07,0.06,0.13,0.12,0.21,0.17c0.07,0.06,0.13,0.12,0.21,0.17
			c0.54,0.5,1.3,0.76,2.17,0.61l12.41-2.19c1.63-0.29,2.95-1.84,2.95-3.47V174.2c0,0,0,0,0.01,0c0.06,0.07,0.14,0.11,0.21,0.17
			c0.06,0.07,0.14,0.11,0.21,0.17c0.06,0.07,0.14,0.11,0.21,0.17c0.06,0.07,0.14,0.11,0.21,0.17c0.06,0.07,0.14,0.11,0.21,0.17
			c0.06,0.07,0.14,0.11,0.21,0.17c0.06,0.07,0.14,0.11,0.21,0.17c0.06,0.07,0.14,0.11,0.21,0.17c0.06,0.07,0.14,0.11,0.21,0.17
			c0.06,0.07,0.14,0.11,0.21,0.17c0.06,0.07,0.14,0.11,0.21,0.17c0.06,0.07,0.14,0.11,0.21,0.17c0.06,0.07,0.14,0.11,0.21,0.17
			c0.06,0.07,0.14,0.11,0.21,0.17c0.06,0.07,0.14,0.11,0.21,0.17c0.06,0.07,0.14,0.11,0.21,0.17c0.06,0.07,0.14,0.11,0.21,0.17
			c0.06,0.07,0.14,0.11,0.21,0.17c0.06,0.07,0.14,0.11,0.21,0.17c0.06,0.07,0.14,0.11,0.21,0.17c0.06,0.07,0.14,0.11,0.21,0.17
			c0.06,0.07,0.14,0.11,0.21,0.17c0.06,0.07,0.14,0.11,0.21,0.17c0.06,0.07,0.14,0.11,0.21,0.17c0.06,0.07,0.14,0.11,0.21,0.17
			c0.06,0.07,0.14,0.11,0.21,0.17c0.06,0.07,0.14,0.11,0.21,0.17c0.06,0.07,0.14,0.11,0.21,0.17c0.06,0.07,0.14,0.11,0.21,0.17
			c0.06,0.07,0.14,0.11,0.21,0.17c0.06,0.07,0.14,0.11,0.21,0.17c0.06,0.07,0.14,0.11,0.21,0.17c0.06,0.07,0.14,0.11,0.21,0.17
			c0.06,0.07,0.14,0.11,0.21,0.17c0.06,0.07,0.14,0.11,0.21,0.17c0.06,0.07,0.14,0.11,0.21,0.17c0.06,0.07,0.14,0.11,0.21,0.17
			c0.06,0.07,0.14,0.11,0.21,0.17c0.06,0.07,0.14,0.11,0.21,0.17c0.06,0.07,0.14,0.11,0.21,0.17c0.06,0.07,0.14,0.11,0.21,0.17
			c0.06,0.07,0.14,0.11,0.21,0.17c0.06,0.07,0.14,0.11,0.21,0.17c0.06,0.07,0.14,0.11,0.21,0.17c0.06,0.07,0.14,0.11,0.21,0.17
			c0.06,0.07,0.14,0.11,0.21,0.17c0.06,0.07,0.14,0.11,0.21,0.17c0.06,0.07,0.14,0.11,0.21,0.17c0.06,0.07,0.14,0.11,0.21,0.17
			c0.06,0.07,0.14,0.11,0.21,0.17c0.06,0.07,0.14,0.11,0.21,0.17c0.06,0.07,0.14,0.11,0.21,0.17c0.06,0.07,0.14,0.11,0.21,0.17
			c0.06,0.07,0.14,0.11,0.21,0.17c0.06,0.07,0.14,0.11,0.21,0.17c0.06,0.07,0.14,0.11,0.21,0.17c0.06,0.07,0.14,0.11,0.21,0.17
			c0.06,0.07,0.14,0.11,0.21,0.17c0.06,0.07,0.14,0.11,0.21,0.17c0.06,0.07,0.14,0.11,0.21,0.17c0.06,0.07,0.14,0.11,0.21,0.17
			c0.06,0.07,0.14,0.11,0.21,0.17c0.06,0.07,0.14,0.11,0.21,0.17c0.06,0.07,0.14,0.11,0.21,0.17c0.06,0.07,0.14,0.11,0.21,0.17
			c0.06,0.07,0.14,0.11,0.21,0.17c0.06,0.07,0.14,0.11,0.21,0.17c0.06,0.07,0.14,0.11,0.21,0.17c0.06,0.07,0.14,0.11,0.21,0.17
			c0.06,0.07,0.14,0.11,0.21,0.17c0.06,0.07,0.14,0.11,0.21,0.17c0.06,0.07,0.14,0.11,0.21,0.17c0.06,0.07,0.14,0.11,0.21,0.17
			c0.06,0.07,0.14,0.11,0.21,0.17c0.06,0.07,0.14,0.11,0.21,0.17c0.06,0.07,0.14,0.11,0.21,0.17c0.06,0.07,0.14,0.11,0.21,0.17
			c0.06,0.07,0.14,0.11,0.21,0.17c0.06,0.07,0.14,0.11,0.21,0.17c0.55,0.63,1.41,0.93,2.35,0.76l12.79-2.25
			c1.63-0.29,2.95-1.84,2.95-3.47V85.29C359.92,84.43,359.53,83.73,358.93,83.3z M94.98,144.84c0,4.83-1.83,9.55-4.84,13.41
			c3,2.8,4.84,6.88,4.84,11.71v17.86c0,10.35-8.42,20.25-18.76,22.07c-2.05,0.36-18.73,3.3-20.9,3.69v-97.52
			c2.17-0.38,18.85-3.32,20.9-3.69c10.35-1.82,18.76,5.11,18.76,15.45V144.84z M141.53,143.83v12.41l-18.57,3.27v29.73l23.53-4.15
			l-2.48,12.84c-5.15,0.91-30.43,5.37-33.46,5.9v-97.52c3.03-0.53,28.31-4.99,33.46-5.9l2.48,11.97l-23.53,4.15v30.57L141.53,143.83
			z M154.67,187.71c-0.01-0.01-0.01-0.01-0.02-0.01c-0.02-0.02-0.02-0.05-0.04-0.07c-0.05-0.05-0.12-0.06-0.17-0.1
			c-0.02-0.02-0.02-0.05-0.04-0.07c-0.05-0.05-0.12-0.06-0.17-0.1c-0.02-0.02-0.02-0.05-0.04-0.07c-0.05-0.05-0.12-0.06-0.17-0.1
			c-0.02-0.02-0.02-0.05-0.04-0.07c-0.05-0.05-0.12-0.06-0.17-0.1c-0.02-0.02-0.02-0.05-0.04-0.07c-0.05-0.05-0.12-0.06-0.17-0.1
			c-0.02-0.02-0.02-0.05-0.04-0.07c-0.05-0.05-0.12-0.06-0.17-0.1c-0.02-0.02-0.02-0.05-0.04-0.07c-0.05-0.05-0.12-0.06-0.17-0.1
			c-0.02-0.02-0.02-0.05-0.04-0.07c-0.05-0.05-0.12-0.06-0.17-0.1c-0.02-0.02-0.02-0.05-0.04-0.07c-0.05-0.05-0.12-0.06-0.17-0.1
			c-0.02-0.02-0.02-0.05-0.04-0.07c-0.05-0.05-0.12-0.06-0.17-0.1c-0.02-0.02-0.02-0.05-0.04-0.07c-0.05-0.05-0.12-0.06-0.17-0.1
			c-0.02-0.02-0.02-0.05-0.04-0.07c-0.05-0.05-0.12-0.06-0.17-0.1c-0.02-0.02-0.02-0.05-0.04-0.07c-0.05-0.05-0.12-0.06-0.17-0.1
			c-0.02-0.02-0.02-0.05-0.04-0.07c-0.05-0.05-0.12-0.06-0.17-0.1c-0.02-0.02-0.02-0.05-0.04-0.07c-0.05-0.05-0.12-0.06-0.17-0.1
			c-0.02-0.02-0.02-0.05-0.04-0.07c-0.05-0.05-0.12-0.06-0.17-0.1c-0.02-0.02-0.02-0.05-0.04-0.07c-0.05-0.05-0.12-0.06-0.17-0.1
			c-0.02-0.02-0.02-0.05-0.04-0.07c-0.05-0.05-0.12-0.06-0.17-0.1c-0.02-0.02-0.02-0.05-0.04-0.07c-0.05-0.05-0.12-0.06-0.17-0.1
			c-0.02-0.02-0.02-0.05-0.04-0.07c-0.05-0.05-0.12-0.06-0.17-0.1c-0.02-0.02-0.02-0.05-0.04-0.07c-0.05-0.05-0.12-0.06-0.17-0.1
			c-0.02-0.02-0.02-0.05-0.04-0.07c-0.05-0.05-0.12-0.06-0.17-0.1c-0.02-0.02-0.02-0.05-0.04-0.07c-0.05-0.05-0.12-0.06-0.17-0.1
			c-0.02-0.02-0.02-0.05-0.04-0.07c-0.05-0.05-0.12-0.06-0.17-0.1c-0.02-0.02-0.02-0.05-0.04-0.07c-0.05-0.05-0.12-0.06-0.17-0.1
			c-0.02-0.02-0.02-0.05-0.04-0.07c-0.05-0.05-0.12-0.06-0.17-0.1c-0.02-0.02-0.02-0.05-0.04-0.07c-0.05-0.05-0.12-0.06-0.17-0.1
			c-0.02-0.02-0.02-0.05-0.04-0.07c-0.03-0.04-0.09-0.04-0.13-0.08v-2.07l5.82-1.03V187.71z M154.67,150.49
			c-0.04-0.03-0.09-0.03-0.12-0.06c-0.07-0.06-0.13-0.12-0.21-0.17c-0.07-0.06-0.13-0.12-0.21-0.17c-0.07-0.06-0.13-0.12-0.21-0.17
			c-0.07-0.06-0.13-0.12-0.21-0.17c-0.07-0.06-0.13-0.12-0.21-0.17c-0.07-0.06-0.13-0.12-0.21-0.17c-0.07-0.06-0.13-0.12-0.21-0.17
			c-0.07-0.06-0.13-0.12-0.21-0.17c-0.07-0.06-0.13-0.12-0.21-0.17c-0.07-0.06-0.13-0.12-0.21-0.17c-0.07-0.06-0.13-0.12-0.21-0.17
			c-0.07-0.06-0.13-0.12-0.21-0.17c-0.07-0.06-0.13-0.12-0.21-0.17c-0.07-0.06-0.13-0.12-0.21-0.17c-0.07-0.06-0.13-0.12-0.21-0.17
			c-0.07-0.06-0.13-0.12-0.21-0.17c-0.07-0.06-0.13-0.12-0.21-0.17c-0.07-0.06-0.13-0.12-0.21-0.17c-0.07-0.06-0.13-0.12-0.21-0.17
			c-0.07-0.06-0.13-0.12-0.21-0.17c-0.07-0.06-0.13-0.12-0.21-0.17c-0.07-0.06-0.13-0.12-0.21-0.17c-0.07-0.06-0.13-0.12-0.21-0.17
			c-0.07-0.06-0.13-0.12-0.21-0.17c-0.07-0.06-0.13-0.12-0.21-0.17c-0.07-0.06-0.13-0.12-0.21-0.17c-0.07-0.06-0.13-0.12-0.21-0.17
			c-0.02-0.02-0.03-0.06-0.06-0.08v-7.84l5.82-1.03V150.49z M197.29,134.25c0,4.83-1.83,9.55-4.84,13.41c3,2.8,4.84,6.88,4.84,11.71
			v29.18l-12.41,2.19v-29.18c0-3.5-2.85-5.85-6.36-5.24l-8.49,1.5v35.53l-12.41,2.19V98.02c10.89-1.92,10.12-1.79,20.9-3.69
			c10.35-1.82,18.76,5.11,18.76,15.45V134.25z M243.13,180.46c-5.15,0.91-30.43,5.37-33.46,5.9V88.84l12.41-2.19v85.11l23.53-4.15
			L243.13,180.46z M268.3,176.02l-12.41,2.19V80.69l12.41-2.19V176.02z M334.02,164.43l-12.79,2.25l-21.79-57.62v61.46l-12.41,2.19
			V75.2l12.79-2.25l21.79,57.62V69.1l12.41-2.19V164.43z"/>
		<path d="M76.22,166.91l-8.49,1.5v30.57l8.49-1.5c3.5-0.62,6.36-3.97,6.36-7.48v-17.86C82.57,168.64,79.72,166.3,76.22,166.91z"/>
		<path d="M76.22,124.78l-8.49,1.5V156l8.49-1.5c3.5-0.62,6.36-3.97,6.36-7.48v-17.02C82.57,126.51,79.72,124.16,76.22,124.78z"/>
	</g>
	<g class="st1">
		<g>
			<path class="st2" d="M94.98,127.83c0-10.35-8.42-17.28-18.76-15.45c-2.05,0.36-18.73,3.3-20.9,3.69v97.52
				c2.17-0.38,18.85-3.32,20.9-3.69c10.35-1.82,18.76-11.73,18.76-22.07v-17.86c0-4.83-1.83-8.91-4.84-11.71
				c3-3.86,4.84-8.59,4.84-13.41V127.83z M76.22,124.78c3.5-0.62,6.36,1.73,6.36,5.24v17.02c0,3.5-2.85,6.86-6.36,7.48l-8.49,1.5
				v-29.73L76.22,124.78z M82.57,190.01c0,3.5-2.85,6.86-6.36,7.48l-8.49,1.5v-30.57l8.49-1.5c3.5-0.62,6.36,1.73,6.36,5.23V190.01z
				"/>
		</g>
	</g>
	<g class="st1">
		<g>
			<path class="st2" d="M146.49,112.39l-2.48-11.97c-5.15,0.91-30.43,5.37-33.46,5.9v97.52c3.03-0.53,28.31-4.99,33.46-5.9
				l2.48-12.84l-23.53,4.15v-29.73l18.57-3.27v-12.41l-18.57,3.27v-30.57L146.49,112.39z"/>
		</g>
	</g>
	<g class="st1">
		<g>
			<path class="st2" d="M197.29,109.79c0-10.35-8.42-17.28-18.76-15.45c-10.78,1.9-10.01,1.77-20.9,3.69v97.52l12.41-2.19v-35.53
				l8.49-1.5c3.5-0.62,6.36,1.73,6.36,5.24v29.18l12.41-2.19v-29.18c0-4.83-1.83-8.91-4.84-11.71c3-3.86,4.84-8.59,4.84-13.41
				V109.79z M170.03,145.41v-37.17l8.49-1.5c3.5-0.62,6.36,1.73,6.36,5.23v24.46c0,3.5-2.85,6.86-6.36,7.48L170.03,145.41z"/>
		</g>
	</g>
	<g class="st1">
		<g>
			<path class="st2" d="M222.08,171.77V86.65l-12.41,2.19v97.52c3.03-0.53,28.31-4.99,33.46-5.9l2.48-12.84L222.08,171.77z"/>
		</g>
	</g>
	<g class="st1">
		<g>
			<polygon class="st2" points="268.3,176.02 255.89,178.21 255.89,80.69 268.3,78.5 			"/>
		</g>
	</g>
	<g class="st1">
		<g>
			<polygon class="st2" points="321.61,69.1 321.61,130.56 299.82,72.94 287.03,75.2 287.03,172.72 299.44,170.53 299.44,109.07 
				321.23,166.69 334.02,164.43 334.02,66.91 			"/>
		</g>
	</g>
	<g>
		<g>
			<g>
				<polygon class="st2" points="58.64,81.46 58.64,89.53 55.38,90.1 55.38,82.03 53.05,82.45 53.05,100.76 55.38,100.35 
					55.38,92.43 58.64,91.86 58.64,99.77 60.97,99.36 60.97,81.05 				"/>
			</g>
		</g>
		<g>
			<g>
				<path class="st2" d="M65.37,98.58l0.33-2.19l2.58-0.45l0.33,2.08l2.36-0.42l-2.79-17.82L65.8,80.2L63.01,99L65.37,98.58z
					 M66.98,87.72l0.93,5.95L66.05,94L66.98,87.72z"/>
			</g>
		</g>
		<g>
			<g>
				<path class="st2" d="M75.31,94.5V78.52l-2.33,0.41v18.31c0.57-0.1,5.32-0.94,6.28-1.11l0.47-2.41L75.31,94.5z"/>
			</g>
		</g>
		<g>
			<g>
				<path class="st2" d="M83.56,93.05V77.07l-2.33,0.41v18.31c0.57-0.1,5.32-0.94,6.28-1.11l0.47-2.41L83.56,93.05z"/>
			</g>
		</g>
		<g>
			<g>
				<path class="st2" d="M93.28,93.66l-0.23,0.04c-1.99,0.35-3.61-0.98-3.61-2.97V79.64c0-1.99,1.62-3.9,3.61-4.25l0.23-0.04
					c1.99-0.35,3.61,0.98,3.61,2.97v11.09C96.89,91.41,95.27,93.31,93.28,93.66z M93.05,77.72c-0.71,0.12-1.28,0.8-1.28,1.51v11.09
					c0,0.71,0.57,1.18,1.28,1.05l0.23-0.04c0.71-0.12,1.28-0.8,1.28-1.51V78.74c0-0.71-0.57-1.18-1.28-1.05L93.05,77.72z"/>
			</g>
		</g>
		<g>
			<g>
				<path class="st2" d="M106.64,91.31l0.33-2.19l2.58-0.45l0.33,2.08l2.36-0.42l-2.79-17.82l-2.36,0.42l-2.79,18.8L106.64,91.31z
					 M108.25,80.44l0.93,5.95l-1.87,0.33L108.25,80.44z"/>
			</g>
		</g>
		<g>
			<g>
				<path class="st2" d="M121.73,85.04v-14.7l-2.33,0.41v14.7c0,0.71-0.57,1.38-1.28,1.51l-0.69,0.12
					c-0.71,0.12-1.28-0.35-1.28-1.05v-14.7l-2.33,0.41v14.7c0,1.99,1.62,3.32,3.61,2.97l0.69-0.12
					C120.11,88.93,121.73,87.03,121.73,85.04z"/>
			</g>
		</g>
		<g>
			<g>
				<path class="st2" d="M132.6,83.12c0-1.98-0.73-3.76-2.06-4.99l-2.29-2.13c-0.79-0.74-1.23-1.8-1.23-2.98
					c0-0.71,0.57-1.38,1.28-1.51l0.69-0.12c0.71-0.12,1.28,0.35,1.28,1.05v1.35l2.33-0.41v-1.35c0-1.99-1.62-3.32-3.61-2.97
					l-0.69,0.12c-1.99,0.35-3.61,2.26-3.61,4.25c0,1.76,0.65,3.34,1.83,4.44l2.29,2.13c0.94,0.88,1.46,2.13,1.46,3.54
					c0,0.71-0.57,1.38-1.28,1.51l-0.69,0.12c-0.71,0.12-1.28-0.35-1.28-1.05v-1.69l-2.33,0.41v1.69c0,1.99,1.62,3.32,3.61,2.97
					l0.69-0.12C130.98,87.02,132.6,85.11,132.6,83.12z"/>
			</g>
		</g>
		<g>
			<path d="M136.21,72.73c-0.02-0.02-0.04-0.03-0.06-0.05c-0.02-0.02-0.04-0.03-0.06-0.05c-0.02-0.02-0.04-0.03-0.06-0.05
				c-0.02-0.02-0.04-0.03-0.06-0.05c-0.02-0.02-0.04-0.03-0.06-0.05c-0.02-0.02-0.04-0.03-0.06-0.05c-0.02-0.02-0.04-0.03-0.06-0.05
				c-0.02-0.02-0.04-0.03-0.06-0.05c-0.02-0.02-0.04-0.03-0.06-0.05c-0.02-0.02-0.04-0.03-0.06-0.05c-0.02-0.02-0.04-0.03-0.06-0.05
				c-0.02-0.02-0.04-0.03-0.06-0.05c-0.02-0.02-0.04-0.03-0.06-0.05c-0.02-0.02-0.04-0.03-0.06-0.05c-0.02-0.02-0.04-0.03-0.06-0.05
				c-0.02-0.02-0.04-0.03-0.06-0.05c-0.02-0.02-0.04-0.03-0.06-0.05c-0.02-0.02-0.04-0.03-0.06-0.05c-0.02-0.02-0.04-0.03-0.06-0.05
				c-0.02-0.02-0.04-0.03-0.06-0.05c-0.02-0.02-0.04-0.03-0.06-0.05c-0.02-0.02-0.04-0.03-0.06-0.05c-0.02-0.02-0.04-0.03-0.06-0.05
				c-0.02-0.02-0.04-0.03-0.06-0.05c-0.02-0.02-0.04-0.03-0.06-0.05c-0.02-0.02-0.04-0.03-0.06-0.05c-0.02-0.02-0.04-0.03-0.06-0.05
				c-0.02-0.02-0.04-0.03-0.06-0.05c-0.02-0.02-0.04-0.03-0.06-0.05c-0.02-0.02-0.04-0.03-0.06-0.05c-0.02-0.02-0.04-0.03-0.06-0.05
				c-0.02-0.02-0.04-0.03-0.06-0.05c-0.02-0.02-0.04-0.03-0.06-0.05c-0.02-0.02-0.04-0.03-0.06-0.05c-0.02-0.02-0.04-0.03-0.06-0.05
				c-0.02-0.02-0.04-0.03-0.06-0.05c-0.02-0.02-0.04-0.03-0.06-0.05c-0.02-0.02-0.04-0.03-0.06-0.05c-0.02-0.02-0.04-0.03-0.06-0.05
				c-0.02-0.02-0.04-0.03-0.06-0.05c-0.02-0.02-0.04-0.03-0.06-0.05c-0.02-0.02-0.04-0.03-0.06-0.05c-0.02-0.02-0.04-0.03-0.06-0.05
				c-0.02-0.02-0.04-0.03-0.06-0.05c-0.02-0.02-0.04-0.03-0.06-0.05c-0.02-0.02-0.04-0.03-0.06-0.05c-0.02-0.02-0.04-0.03-0.06-0.05
				c-0.02-0.02-0.04-0.03-0.06-0.05c-0.02-0.02-0.04-0.03-0.06-0.05c-0.02-0.02-0.04-0.03-0.06-0.05c-0.02-0.02-0.04-0.03-0.06-0.05
				c-0.02-0.02-0.04-0.03-0.06-0.05c-0.02-0.02-0.04-0.03-0.06-0.05c-0.02-0.02-0.04-0.03-0.06-0.05c-0.02-0.02-0.04-0.03-0.06-0.05
				c-0.02-0.02-0.04-0.03-0.06-0.05c-0.02-0.02-0.04-0.03-0.06-0.05c-0.02-0.02-0.04-0.03-0.06-0.05c-0.02-0.02-0.04-0.03-0.06-0.05
				c-0.02-0.02-0.04-0.03-0.06-0.05c-0.02-0.02-0.04-0.03-0.06-0.05c-0.02-0.02-0.04-0.03-0.06-0.05c-0.02-0.02-0.04-0.03-0.06-0.05
				c-0.02-0.02-0.04-0.03-0.06-0.05c-0.02-0.02-0.04-0.03-0.06-0.05c-0.02-0.02-0.04-0.03-0.06-0.05c-0.02-0.02-0.04-0.03-0.06-0.05
				c-0.02-0.02-0.04-0.03-0.06-0.05c-0.02-0.02-0.04-0.03-0.06-0.05c-0.02-0.02-0.04-0.03-0.06-0.05c-0.02-0.02-0.04-0.03-0.06-0.05
				c-0.02-0.02-0.04-0.03-0.06-0.05c-0.02-0.02-0.04-0.03-0.06-0.05c-0.02-0.02-0.04-0.03-0.06-0.05c-0.02-0.02-0.04-0.03-0.06-0.05
				c-0.76-0.64-1.81-0.93-2.97-0.73l-0.69,0.12c-1.71,0.3-3.19,1.6-3.83,3.2c0,0,0,0,0,0c-0.02-0.02-0.04-0.03-0.06-0.05
				c-0.02-0.02-0.04-0.03-0.06-0.05c-0.02-0.02-0.04-0.03-0.06-0.05c-0.02-0.02-0.04-0.03-0.06-0.05c-0.02-0.02-0.04-0.03-0.06-0.05
				c-0.02-0.02-0.04-0.03-0.06-0.05c-0.02-0.02-0.04-0.03-0.06-0.05c-0.02-0.02-0.04-0.03-0.06-0.05c-0.02-0.02-0.04-0.03-0.06-0.05
				c-0.02-0.02-0.04-0.03-0.06-0.05c-0.02-0.02-0.04-0.03-0.06-0.05c-0.02-0.02-0.04-0.03-0.06-0.05c-0.02-0.02-0.04-0.03-0.06-0.05
				c-0.02-0.02-0.04-0.03-0.06-0.05c-0.02-0.02-0.04-0.03-0.06-0.05c-0.02-0.02-0.04-0.03-0.06-0.05c-0.02-0.02-0.04-0.03-0.06-0.05
				c-0.02-0.02-0.04-0.03-0.06-0.05c-0.02-0.02-0.04-0.03-0.06-0.05c-0.02-0.02-0.04-0.03-0.06-0.05c-0.02-0.02-0.04-0.03-0.06-0.05
				c-0.02-0.02-0.04-0.03-0.06-0.05c-0.02-0.02-0.04-0.03-0.06-0.05c-0.02-0.02-0.04-0.03-0.06-0.05c-0.02-0.02-0.04-0.03-0.06-0.05
				c-0.02-0.02-0.04-0.03-0.06-0.05c-0.02-0.02-0.04-0.03-0.06-0.05c-0.02-0.02-0.04-0.03-0.06-0.05c-0.02-0.02-0.04-0.03-0.06-0.05
				c-0.02-0.02-0.04-0.03-0.06-0.05c-0.02-0.02-0.04-0.03-0.06-0.05c-0.02-0.02-0.04-0.03-0.06-0.05c-0.02-0.02-0.04-0.03-0.06-0.05
				c-0.02-0.02-0.04-0.03-0.06-0.05c-0.02-0.02-0.04-0.03-0.06-0.05c-0.02-0.02-0.04-0.03-0.06-0.05c-0.02-0.02-0.04-0.03-0.06-0.05
				c-0.02-0.02-0.04-0.03-0.06-0.05c-0.02-0.02-0.04-0.03-0.06-0.05c-0.02-0.02-0.04-0.03-0.06-0.05c-0.02-0.02-0.04-0.03-0.06-0.05
				c-0.1-0.1-0.25-0.15-0.41-0.12l-2.33,0.41c-0.31,0.05-0.55,0.35-0.55,0.65l0,1.92c-0.01,0-0.01-0.01-0.02-0.01
				c-0.02-0.02-0.04-0.03-0.06-0.05c-0.02-0.02-0.04-0.03-0.06-0.05c-0.02-0.02-0.04-0.03-0.06-0.05c-0.02-0.02-0.04-0.03-0.06-0.05
				c-0.02-0.02-0.04-0.03-0.06-0.05c-0.02-0.02-0.04-0.03-0.06-0.05c-0.02-0.02-0.04-0.03-0.06-0.05c-0.02-0.02-0.04-0.03-0.06-0.05
				c-0.02-0.02-0.04-0.03-0.06-0.05c-0.02-0.02-0.04-0.03-0.06-0.05c-0.02-0.02-0.04-0.03-0.06-0.05c-0.02-0.02-0.04-0.03-0.06-0.05
				c-0.02-0.02-0.04-0.03-0.06-0.05c-0.02-0.02-0.04-0.03-0.06-0.05c-0.02-0.02-0.04-0.03-0.06-0.05c-0.02-0.02-0.04-0.03-0.06-0.05
				c-0.02-0.02-0.04-0.03-0.06-0.05c-0.02-0.02-0.04-0.03-0.06-0.05c-0.02-0.02-0.04-0.03-0.06-0.05c-0.02-0.02-0.04-0.03-0.06-0.05
				c-0.02-0.02-0.04-0.03-0.06-0.05c-0.02-0.02-0.04-0.03-0.06-0.05c-0.02-0.02-0.04-0.03-0.06-0.05c-0.02-0.02-0.04-0.03-0.06-0.05
				c-0.02-0.02-0.04-0.03-0.06-0.05c-0.02-0.02-0.04-0.03-0.06-0.05c-0.02-0.02-0.04-0.03-0.06-0.05c-0.02-0.02-0.04-0.03-0.06-0.05
				c-0.02-0.02-0.04-0.03-0.06-0.05c-0.02-0.02-0.04-0.03-0.06-0.05c-0.02-0.02-0.04-0.03-0.06-0.05c-0.02-0.02-0.04-0.03-0.06-0.05
				c-0.02-0.02-0.04-0.03-0.06-0.05c-0.02-0.02-0.04-0.03-0.06-0.05c-0.02-0.02-0.04-0.03-0.06-0.05c-0.02-0.02-0.04-0.03-0.06-0.05
				c-0.02-0.02-0.04-0.03-0.06-0.05c-0.02-0.02-0.04-0.03-0.06-0.05c-0.02-0.02-0.04-0.03-0.06-0.05c-0.02-0.02-0.04-0.03-0.06-0.05
				c-0.1-0.1-0.25-0.15-0.41-0.12l-2.33,0.41c-0.31,0.05-0.55,0.35-0.55,0.65l0,3.05c-0.01-0.01-0.02-0.01-0.03-0.02
				c-0.02-0.02-0.04-0.03-0.06-0.05c-0.02-0.02-0.04-0.03-0.06-0.05c-0.02-0.02-0.04-0.03-0.06-0.05c-0.02-0.02-0.04-0.03-0.06-0.05
				c-0.02-0.02-0.04-0.03-0.06-0.05c-0.02-0.02-0.04-0.03-0.06-0.05c-0.02-0.02-0.04-0.03-0.06-0.05c-0.02-0.02-0.04-0.03-0.06-0.05
				c-0.02-0.02-0.04-0.03-0.06-0.05c-0.02-0.02-0.04-0.03-0.06-0.05c-0.02-0.02-0.04-0.03-0.06-0.05c-0.02-0.02-0.04-0.03-0.06-0.05
				c-0.02-0.02-0.04-0.03-0.06-0.05c-0.02-0.02-0.04-0.03-0.06-0.05c-0.02-0.02-0.04-0.03-0.06-0.05c-0.02-0.02-0.04-0.03-0.06-0.05
				c-0.02-0.02-0.04-0.03-0.06-0.05c-0.02-0.02-0.04-0.03-0.06-0.05c-0.02-0.02-0.04-0.03-0.06-0.05c-0.02-0.02-0.04-0.03-0.06-0.05
				c-0.02-0.02-0.04-0.03-0.06-0.05c-0.02-0.02-0.04-0.03-0.06-0.05c-0.02-0.02-0.04-0.03-0.06-0.05c-0.02-0.02-0.04-0.03-0.06-0.05
				c-0.02-0.02-0.04-0.03-0.06-0.05c-0.02-0.02-0.04-0.03-0.06-0.05c-0.02-0.02-0.04-0.03-0.06-0.05c-0.02-0.02-0.04-0.03-0.06-0.05
				c-0.02-0.02-0.04-0.03-0.06-0.05c-0.02-0.02-0.04-0.03-0.06-0.05c-0.02-0.02-0.04-0.03-0.06-0.05c-0.02-0.02-0.04-0.03-0.06-0.05
				c-0.02-0.02-0.04-0.03-0.06-0.05c-0.02-0.02-0.04-0.03-0.06-0.05c-0.02-0.02-0.04-0.03-0.06-0.05c-0.02-0.02-0.04-0.03-0.06-0.05
				c-0.02-0.02-0.04-0.03-0.06-0.05c-0.02-0.02-0.04-0.03-0.06-0.05c-0.02-0.02-0.04-0.03-0.06-0.05c-0.02-0.02-0.04-0.03-0.06-0.05
				c-0.02-0.02-0.04-0.03-0.06-0.05c-0.02-0.02-0.04-0.03-0.06-0.05c-0.02-0.02-0.04-0.03-0.06-0.05c-0.02-0.02-0.04-0.03-0.06-0.05
				c-0.02-0.02-0.04-0.03-0.06-0.05c-0.02-0.02-0.04-0.03-0.06-0.05c-0.02-0.02-0.04-0.03-0.06-0.05c-0.02-0.02-0.04-0.03-0.06-0.05
				c-0.02-0.02-0.04-0.03-0.06-0.05c-0.02-0.02-0.04-0.03-0.06-0.05c-0.02-0.02-0.04-0.03-0.06-0.05c-0.02-0.02-0.04-0.03-0.06-0.05
				c-0.02-0.02-0.04-0.03-0.06-0.05c-0.02-0.02-0.04-0.03-0.06-0.05c-0.02-0.02-0.04-0.03-0.06-0.05c-0.02-0.02-0.04-0.03-0.06-0.05
				c-0.02-0.02-0.04-0.03-0.06-0.05c-0.02-0.02-0.04-0.03-0.06-0.05c-0.02-0.02-0.04-0.03-0.06-0.05c-0.02-0.02-0.04-0.03-0.06-0.05
				c-0.1-0.09-0.24-0.14-0.4-0.11l-2.36,0.42c-0.27,0.05-0.51,0.29-0.55,0.57l-2.79,18.8c-0.02,0.16,0.02,0.32,0.13,0.42
				c0.01,0.01,0.03,0.01,0.04,0.03c0.01,0.01,0.01,0.02,0.01,0.02c0.01,0.01,0.03,0.01,0.04,0.03c0.01,0.01,0.01,0.02,0.01,0.02
				c0.01,0.01,0.03,0.01,0.04,0.03c0.01,0.01,0.01,0.02,0.01,0.02c0.01,0.01,0.03,0.01,0.04,0.03c0.01,0.01,0.01,0.02,0.01,0.02
				c0.01,0.01,0.03,0.02,0.04,0.03c0.01,0.01,0.01,0.02,0.01,0.02c0.01,0.01,0.03,0.01,0.04,0.03c0.01,0.01,0.01,0.02,0.01,0.02
				c0.01,0.01,0.03,0.01,0.04,0.03c0.01,0.01,0.01,0.02,0.01,0.02c0.01,0.01,0.03,0.01,0.04,0.03c0.01,0.01,0.01,0.02,0.01,0.02
				c0.01,0.01,0.03,0.02,0.04,0.03c0.01,0.01,0.01,0.02,0.01,0.02c0.01,0.01,0.03,0.01,0.04,0.03c0.01,0.01,0.01,0.02,0.01,0.02
				c0.01,0.01,0.03,0.01,0.04,0.03c0.01,0.01,0.01,0.02,0.01,0.02c0.01,0.01,0.03,0.01,0.04,0.03c0.01,0.01,0.01,0.02,0.01,0.02
				c0.01,0.01,0.03,0.01,0.04,0.03c0.01,0.01,0.01,0.02,0.01,0.02c0.01,0.01,0.03,0.01,0.04,0.03c0.01,0.01,0.01,0.02,0.01,0.02
				c0.01,0.01,0.03,0.01,0.04,0.03c0.01,0.01,0.01,0.02,0.01,0.02c0.01,0.01,0.03,0.02,0.04,0.03c0.01,0.01,0.01,0.02,0.01,0.02
				c0.01,0.01,0.03,0.01,0.04,0.03c0.01,0.01,0.01,0.02,0.01,0.02c0.01,0.01,0.03,0.01,0.04,0.03c0.01,0.01,0.01,0.02,0.01,0.02
				c0.01,0.01,0.03,0.01,0.04,0.03c0.01,0.01,0.01,0.02,0.01,0.02c0.01,0.01,0.03,0.01,0.04,0.03c0.01,0.01,0.01,0.02,0.01,0.02
				c0.01,0.01,0.03,0.02,0.04,0.03c0.01,0.01,0.01,0.02,0.01,0.02c0.01,0.01,0.03,0.01,0.04,0.03c0.01,0.01,0.01,0.02,0.01,0.02
				c0.01,0.01,0.03,0.01,0.04,0.03c0.01,0.01,0.01,0.02,0.01,0.02c0.01,0.01,0.03,0.01,0.04,0.03c0.01,0.01,0.01,0.02,0.01,0.02
				c0.01,0.01,0.03,0.01,0.04,0.03c0.01,0.01,0.01,0.02,0.01,0.02c0.01,0.01,0.03,0.01,0.04,0.03c0.01,0.01,0.01,0.02,0.01,0.02
				c0.01,0.01,0.03,0.01,0.04,0.03c0.01,0.01,0.01,0.02,0.01,0.02c0.01,0.01,0.03,0.01,0.04,0.03c0.01,0.01,0.01,0.02,0.01,0.02
				c0.01,0.01,0.03,0.01,0.04,0.03c0.01,0.01,0.01,0.02,0.01,0.02c0.01,0.01,0.03,0.01,0.04,0.03c0.01,0.01,0.01,0.02,0.01,0.02
				c0.01,0.01,0.03,0.01,0.04,0.03c0.01,0.01,0.01,0.02,0.01,0.02c0.01,0.01,0.03,0.02,0.04,0.03c0.01,0.01,0.01,0.02,0.01,0.02
				c0.01,0.01,0.03,0.01,0.04,0.03c0.01,0.01,0.01,0.02,0.01,0.02c0.01,0.01,0.03,0.01,0.04,0.03c0.01,0.01,0.01,0.02,0.01,0.02
				c0.01,0.01,0.03,0.01,0.04,0.03c0.01,0.01,0.01,0.02,0.01,0.02c0.01,0.01,0.03,0.01,0.04,0.03c0.01,0.01,0.01,0.02,0.01,0.02
				c0.01,0.01,0.03,0.01,0.04,0.03c0.01,0.01,0.01,0.02,0.01,0.02c0.01,0.01,0.03,0.01,0.04,0.03c0.01,0.01,0.01,0.02,0.01,0.02
				c0.01,0.01,0.03,0.01,0.04,0.03c0.01,0.01,0.01,0.02,0.01,0.02c0.01,0.01,0.03,0.01,0.04,0.03c0.01,0.01,0.01,0.02,0.01,0.02
				c0.01,0.01,0.03,0.01,0.04,0.03c0.01,0.01,0.01,0.02,0.01,0.02c0.01,0.01,0.03,0.01,0.04,0.03c0.01,0.01,0.01,0.02,0.01,0.02
				c0.01,0.01,0.03,0.01,0.04,0.03c0.01,0.01,0.01,0.02,0.01,0.02c0.01,0.01,0.03,0.01,0.04,0.03c0.01,0.01,0.01,0.02,0.01,0.02
				c0.01,0.01,0.03,0.01,0.04,0.03c0.01,0.01,0.01,0.02,0.01,0.02c0.01,0.01,0.03,0.01,0.04,0.03c0.01,0.01,0.01,0.02,0.01,0.02
				c0.01,0.01,0.03,0.01,0.04,0.03c0.01,0.01,0.01,0.02,0.01,0.02c0.01,0.01,0.03,0.01,0.04,0.03c0.01,0.01,0.01,0.02,0.01,0.02
				c0.01,0.01,0.03,0.01,0.04,0.03c0.01,0.01,0.01,0.02,0.01,0.02c0.01,0.01,0.03,0.01,0.04,0.03c0.01,0.01,0.01,0.02,0.01,0.02
				c0.01,0.01,0.03,0.01,0.04,0.03c0.01,0.01,0.01,0.02,0.01,0.02c0.01,0.01,0.03,0.01,0.04,0.03c0.01,0.01,0.01,0.02,0.01,0.02
				c0.01,0.01,0.03,0.01,0.04,0.03c0.01,0.01,0.01,0.02,0.01,0.02c0.01,0.01,0.03,0.01,0.04,0.03c0.01,0.01,0.01,0.02,0.01,0.02
				c0.01,0.01,0.03,0.01,0.04,0.03c0.01,0.01,0.01,0.02,0.01,0.02c0.01,0.01,0.03,0.01,0.04,0.03c0.01,0.01,0.01,0.02,0.01,0.02
				c0.01,0.01,0.03,0.01,0.04,0.03c0.01,0.01,0.01,0.02,0.01,0.02c0.01,0.01,0.03,0.01,0.04,0.03c0.01,0.01,0.01,0.02,0.01,0.02
				c0.01,0.01,0.03,0.01,0.04,0.03c0.01,0.01,0.01,0.02,0.01,0.02c0.01,0.01,0.03,0.01,0.04,0.03c0.01,0.01,0.01,0.02,0.01,0.02
				c0.01,0.01,0.03,0.01,0.04,0.03c0.01,0.01,0.01,0.02,0.01,0.02c0.01,0.01,0.03,0.01,0.04,0.03c0.01,0.01,0.01,0.02,0.01,0.02
				c0.01,0.01,0.03,0.01,0.04,0.03c0.01,0.01,0.01,0.02,0.01,0.02c0.01,0.01,0.03,0.01,0.04,0.03c0.01,0.01,0.01,0.02,0.01,0.02
				c0.01,0.01,0.03,0.01,0.04,0.03c0.01,0.01,0.01,0.02,0.01,0.02c0.01,0.01,0.03,0.01,0.04,0.03c0.01,0.01,0.01,0.02,0.01,0.02
				c0.01,0.01,0.03,0.01,0.04,0.03c0.01,0.01,0.01,0.02,0.01,0.02c0.01,0.01,0.03,0.01,0.04,0.03c0.01,0.01,0.01,0.02,0.01,0.02
				c0.01,0.01,0.03,0.01,0.04,0.03c0.01,0.01,0.01,0.02,0.01,0.02c0.01,0.01,0.03,0.01,0.04,0.03c0.01,0.01,0.01,0.02,0.01,0.02
				c0.01,0.01,0.03,0.01,0.04,0.03c0.01,0.01,0.01,0.02,0.01,0.02c0.01,0.01,0.03,0.01,0.04,0.03c0.01,0.01,0.01,0.02,0.01,0.02
				c0.01,0.01,0.03,0.01,0.04,0.03c0.01,0.01,0.01,0.02,0.01,0.02c0.01,0.01,0.03,0.01,0.04,0.03c0.01,0.01,0.01,0.02,0.01,0.02
				c0.01,0.01,0.03,0.01,0.04,0.03c0.01,0.01,0.01,0.02,0.01,0.02c0.01,0.01,0.03,0.01,0.04,0.03c0.01,0.01,0.01,0.02,0.01,0.02
				c0.11,0.1,0.26,0.15,0.42,0.12l2.36-0.42c0.27-0.05,0.51-0.29,0.55-0.57l0.25-1.71l0.07-0.01c0.01,0.01,0.02,0.02,0.03,0.02
				c0.02,0.02,0.04,0.03,0.06,0.05c0.02,0.02,0.04,0.03,0.06,0.05c0.02,0.02,0.04,0.03,0.06,0.05c0.02,0.02,0.04,0.03,0.06,0.05
				c0.02,0.02,0.04,0.03,0.06,0.05c0.02,0.02,0.04,0.03,0.06,0.05c0.02,0.02,0.04,0.03,0.06,0.05c0.02,0.02,0.04,0.03,0.06,0.05
				c0.02,0.02,0.04,0.03,0.06,0.05c0.02,0.02,0.04,0.03,0.06,0.05c0.02,0.02,0.04,0.03,0.06,0.05c0.02,0.02,0.04,0.03,0.06,0.05
				c0.02,0.02,0.04,0.03,0.06,0.05c0.02,0.02,0.04,0.03,0.06,0.05c0.02,0.02,0.04,0.03,0.06,0.05c0.02,0.02,0.04,0.03,0.06,0.05
				c0.02,0.02,0.04,0.03,0.06,0.05c0.02,0.02,0.04,0.03,0.06,0.05c0.02,0.02,0.04,0.03,0.06,0.05c0.02,0.02,0.04,0.03,0.06,0.05
				c0.02,0.02,0.04,0.03,0.06,0.05c0.02,0.02,0.04,0.03,0.06,0.05c0.02,0.02,0.04,0.03,0.06,0.05c0.02,0.02,0.04,0.03,0.06,0.05
				c0.02,0.02,0.04,0.03,0.06,0.05c0.02,0.02,0.04,0.03,0.06,0.05c0.02,0.02,0.04,0.03,0.06,0.05c0.02,0.02,0.04,0.03,0.06,0.05
				c0.02,0.02,0.04,0.03,0.06,0.05c0.02,0.02,0.04,0.03,0.06,0.05c0.02,0.02,0.04,0.03,0.06,0.05c0.02,0.02,0.04,0.03,0.06,0.05
				c0.02,0.02,0.04,0.03,0.06,0.05c0.02,0.02,0.04,0.03,0.06,0.05c0.1,0.09,0.24,0.14,0.4,0.11l2.36-0.42
				c0.16-0.03,0.31-0.13,0.42-0.27c0.11-0.14,0.15-0.31,0.13-0.47l-0.41-2.64c0,0,0,0,0,0c0.02,0.02,0.04,0.03,0.06,0.05
				c0.02,0.02,0.04,0.03,0.06,0.05c0.02,0.02,0.04,0.03,0.06,0.05c0.02,0.02,0.04,0.03,0.06,0.05c0.02,0.02,0.04,0.03,0.06,0.05
				c0.02,0.02,0.04,0.03,0.06,0.05c0.02,0.02,0.04,0.03,0.06,0.05c0.02,0.02,0.04,0.03,0.06,0.05c0.02,0.02,0.04,0.03,0.06,0.05
				c0.02,0.02,0.04,0.03,0.06,0.05c0.02,0.02,0.04,0.03,0.06,0.05c0.02,0.02,0.04,0.03,0.06,0.05c0.02,0.02,0.04,0.03,0.06,0.05
				c0.02,0.02,0.04,0.03,0.06,0.05c0.02,0.02,0.04,0.03,0.06,0.05c0.02,0.02,0.04,0.03,0.06,0.05c0.02,0.02,0.04,0.03,0.06,0.05
				c0.02,0.02,0.04,0.03,0.06,0.05c0.02,0.02,0.04,0.03,0.06,0.05c0.02,0.02,0.04,0.03,0.06,0.05c0.02,0.02,0.04,0.03,0.06,0.05
				c0.02,0.02,0.04,0.03,0.06,0.05c0.02,0.02,0.04,0.03,0.06,0.05c0.02,0.02,0.04,0.03,0.06,0.05c0.02,0.02,0.04,0.03,0.06,0.05
				c0.02,0.02,0.04,0.03,0.06,0.05c0.02,0.02,0.04,0.03,0.06,0.05c0.02,0.02,0.04,0.03,0.06,0.05c0.02,0.02,0.04,0.03,0.06,0.05
				c0.02,0.02,0.04,0.03,0.06,0.05c0.02,0.02,0.04,0.03,0.06,0.05c0.02,0.02,0.04,0.03,0.06,0.05c0.02,0.02,0.04,0.03,0.06,0.05
				c0.02,0.02,0.04,0.03,0.06,0.05c0.02,0.02,0.04,0.03,0.06,0.05c0.02,0.02,0.04,0.03,0.06,0.05c0.02,0.02,0.04,0.03,0.06,0.05
				c0.76,0.64,1.81,0.93,2.97,0.73l0.69-0.12c2.3-0.4,4.16-2.6,4.16-4.9v-0.13c0.01,0.01,0.03,0.02,0.04,0.03
				c0.02,0.02,0.04,0.03,0.06,0.05c0.02,0.02,0.04,0.03,0.06,0.05c0.02,0.02,0.04,0.03,0.06,0.05c0.02,0.02,0.04,0.03,0.06,0.05
				c0.02,0.02,0.04,0.03,0.06,0.05c0.02,0.02,0.04,0.03,0.06,0.05c0.02,0.02,0.04,0.03,0.06,0.05c0.02,0.02,0.04,0.03,0.06,0.05
				c0.02,0.02,0.04,0.03,0.06,0.05c0.02,0.02,0.04,0.03,0.06,0.05c0.02,0.02,0.04,0.03,0.06,0.05c0.02,0.02,0.04,0.03,0.06,0.05
				c0.02,0.02,0.04,0.03,0.06,0.05c0.02,0.02,0.04,0.03,0.06,0.05c0.02,0.02,0.04,0.03,0.06,0.05c0.02,0.02,0.04,0.03,0.06,0.05
				c0.02,0.02,0.04,0.03,0.06,0.05c0.02,0.02,0.04,0.03,0.06,0.05c0.02,0.02,0.04,0.03,0.06,0.05c0.02,0.02,0.04,0.03,0.06,0.05
				c0.02,0.02,0.04,0.03,0.06,0.05c0.02,0.02,0.04,0.03,0.06,0.05c0.02,0.02,0.04,0.03,0.06,0.05c0.02,0.02,0.04,0.03,0.06,0.05
				c0.02,0.02,0.04,0.03,0.06,0.05c0.02,0.02,0.04,0.03,0.06,0.05c0.02,0.02,0.04,0.03,0.06,0.05c0.02,0.02,0.04,0.03,0.06,0.05
				c0.02,0.02,0.04,0.03,0.06,0.05c0.02,0.02,0.04,0.03,0.06,0.05c0.02,0.02,0.04,0.03,0.06,0.05c0.02,0.02,0.04,0.03,0.06,0.05
				c0.02,0.02,0.04,0.03,0.06,0.05c0.02,0.02,0.04,0.03,0.06,0.05c0.02,0.02,0.04,0.03,0.06,0.05c0.02,0.02,0.04,0.03,0.06,0.05
				c0.02,0.02,0.04,0.03,0.06,0.05c0.02,0.02,0.04,0.03,0.06,0.05c0.02,0.02,0.04,0.03,0.06,0.05c0.02,0.02,0.04,0.03,0.06,0.05
				c0.02,0.02,0.04,0.03,0.06,0.05c0.02,0.02,0.04,0.03,0.06,0.05c0.02,0.02,0.04,0.03,0.06,0.05c0.02,0.02,0.04,0.03,0.06,0.05
				c0.02,0.02,0.04,0.03,0.06,0.05c0.02,0.02,0.04,0.03,0.06,0.05c0.02,0.02,0.04,0.03,0.06,0.05c0.02,0.02,0.04,0.03,0.06,0.05
				c0.02,0.02,0.04,0.03,0.06,0.05c0.02,0.02,0.04,0.03,0.06,0.05c0.02,0.02,0.04,0.03,0.06,0.05c0.02,0.02,0.04,0.03,0.06,0.05
				c0.02,0.02,0.04,0.03,0.06,0.05c0.76,0.64,1.81,0.93,2.97,0.73l0.69-0.12c2.3-0.4,4.16-2.6,4.16-4.9c0-2.12-0.78-4.02-2.2-5.34
				l-2.29-2.13c-0.7-0.65-1.09-1.59-1.09-2.63c0-0.16,0.06-0.31,0.15-0.44c0.01,0.01,0.03,0.01,0.04,0.02
				c0.02,0.02,0.04,0.03,0.06,0.05c0.02,0.02,0.04,0.03,0.06,0.05c0.02,0.02,0.04,0.03,0.06,0.05c0.02,0.02,0.04,0.03,0.06,0.05
				c0.02,0.02,0.04,0.03,0.06,0.05c0.02,0.02,0.04,0.03,0.06,0.05c0.02,0.02,0.04,0.03,0.06,0.05c0.02,0.02,0.04,0.03,0.06,0.05
				c0.02,0.02,0.04,0.03,0.06,0.05c0.02,0.02,0.04,0.03,0.06,0.05c0.02,0.02,0.04,0.03,0.06,0.05c0.02,0.02,0.04,0.03,0.06,0.05
				c0.02,0.02,0.04,0.03,0.06,0.05c0.02,0.02,0.04,0.03,0.06,0.05c0.02,0.02,0.04,0.03,0.06,0.05c0.02,0.02,0.04,0.03,0.06,0.05
				c0.02,0.02,0.04,0.03,0.06,0.05c0.02,0.02,0.04,0.03,0.06,0.05c0.02,0.02,0.04,0.03,0.06,0.05c0.02,0.02,0.04,0.03,0.06,0.05
				c0.02,0.02,0.04,0.03,0.06,0.05c0.02,0.02,0.04,0.03,0.06,0.05c0.02,0.02,0.04,0.03,0.06,0.05c0.02,0.02,0.04,0.03,0.06,0.05
				c0.02,0.02,0.04,0.03,0.06,0.05c0.02,0.02,0.04,0.03,0.06,0.05c0.02,0.02,0.04,0.03,0.06,0.05c0.02,0.02,0.04,0.03,0.06,0.05
				c0.02,0.02,0.04,0.03,0.06,0.05c0.02,0.02,0.04,0.03,0.06,0.05c0.02,0.02,0.04,0.03,0.06,0.05c0.02,0.02,0.04,0.03,0.06,0.05
				c0.02,0.02,0.04,0.03,0.06,0.05c0.02,0.02,0.04,0.03,0.06,0.05c0.02,0.02,0.04,0.03,0.06,0.05c0.02,0.02,0.04,0.03,0.06,0.05
				c0.02,0.02,0.04,0.03,0.06,0.05c0.1,0.1,0.25,0.15,0.41,0.12l2.33-0.41c0.31-0.05,0.55-0.35,0.55-0.65v-1.35
				C137.46,74.32,136.98,73.35,136.21,72.73z M112.22,90.32l-2.36,0.42l-0.33-2.08l-2.58,0.45l-0.33,2.19l-2.36,0.42l2.79-18.8
				l2.36-0.42L112.22,90.32z M121.73,85.04c0,1.99-1.62,3.9-3.61,4.25l-0.69,0.12c-1.99,0.35-3.61-0.98-3.61-2.97l0-14.7l2.33-0.41
				l0,14.7c0,0.71,0.57,1.18,1.28,1.05l0.69-0.12c0.71-0.12,1.28-0.8,1.28-1.51l0-14.7l2.33-0.41L121.73,85.04z M132.6,72.03v1.35
				l-2.33,0.41l0-1.35c0-0.71-0.57-1.18-1.28-1.05l-0.69,0.12c-0.71,0.12-1.28,0.8-1.28,1.51c0,1.18,0.44,2.24,1.23,2.98l2.29,2.13
				c1.33,1.24,2.06,3.01,2.06,4.99c0,1.99-1.62,3.9-3.61,4.25l-0.69,0.12c-1.99,0.35-3.61-0.98-3.61-2.97v-1.69l2.33-0.41l0,1.69
				c0,0.71,0.57,1.18,1.28,1.05l0.69-0.12c0.71-0.12,1.28-0.8,1.28-1.51c0-1.4-0.52-2.66-1.46-3.54l-2.29-2.13
				c-1.18-1.1-1.83-2.67-1.83-4.44c0-1.99,1.62-3.9,3.61-4.25l0.69-0.12C130.98,68.7,132.6,70.04,132.6,72.03z M126.59,81.93l0-3.18
				l1.81,1.68c0.85,0.79,1.32,1.92,1.32,3.19c0,0.07-0.02,0.13-0.04,0.19c-0.01-0.01-0.03-0.01-0.04-0.02
				c-0.02-0.02-0.04-0.03-0.06-0.05c-0.02-0.02-0.04-0.03-0.06-0.05c-0.02-0.02-0.04-0.03-0.06-0.05c-0.02-0.02-0.04-0.03-0.06-0.05
				c-0.02-0.02-0.04-0.03-0.06-0.05c-0.02-0.02-0.04-0.03-0.06-0.05c-0.02-0.02-0.04-0.03-0.06-0.05c-0.02-0.02-0.04-0.03-0.06-0.05
				c-0.02-0.02-0.04-0.03-0.06-0.05c-0.02-0.02-0.04-0.03-0.06-0.05c-0.02-0.02-0.04-0.03-0.06-0.05c-0.02-0.02-0.04-0.03-0.06-0.05
				c-0.02-0.02-0.04-0.03-0.06-0.05c-0.02-0.02-0.04-0.03-0.06-0.05c-0.02-0.02-0.04-0.03-0.06-0.05c-0.02-0.02-0.04-0.03-0.06-0.05
				c-0.02-0.02-0.04-0.03-0.06-0.05c-0.02-0.02-0.04-0.03-0.06-0.05c-0.02-0.02-0.04-0.03-0.06-0.05c-0.02-0.02-0.04-0.03-0.06-0.05
				c-0.02-0.02-0.04-0.03-0.06-0.05c-0.02-0.02-0.04-0.03-0.06-0.05c-0.02-0.02-0.04-0.03-0.06-0.05c-0.02-0.02-0.04-0.03-0.06-0.05
				c-0.02-0.02-0.04-0.03-0.06-0.05c-0.02-0.02-0.04-0.03-0.06-0.05c-0.02-0.02-0.04-0.03-0.06-0.05c-0.02-0.02-0.04-0.03-0.06-0.05
				c-0.02-0.02-0.04-0.03-0.06-0.05c-0.02-0.02-0.04-0.03-0.06-0.05c-0.02-0.02-0.04-0.03-0.06-0.05c-0.02-0.02-0.04-0.03-0.06-0.05
				c-0.02-0.02-0.04-0.03-0.06-0.05c-0.02-0.02-0.04-0.03-0.06-0.05c-0.02-0.02-0.04-0.03-0.06-0.05c-0.02-0.02-0.04-0.03-0.06-0.05
				c-0.02-0.02-0.04-0.03-0.06-0.05c-0.02-0.02-0.04-0.03-0.06-0.05c-0.02-0.02-0.04-0.03-0.06-0.05c-0.1-0.1-0.25-0.15-0.41-0.12
				L126.59,81.93z"/>
			<polygon points="109.18,86.39 108.25,80.44 107.32,86.72 			"/>
		</g>
		<g>
			<path d="M93.28,77.68l-0.23,0.04c-0.71,0.12-1.28,0.8-1.28,1.51l0,11.09c0,0.71,0.57,1.18,1.28,1.05l0.23-0.04
				c0.71-0.12,1.28-0.8,1.28-1.51l0-11.09C94.56,78.03,93.99,77.56,93.28,77.68z"/>
			<polygon points="67.91,93.67 66.98,87.72 66.05,94 			"/>
			<path d="M100.5,79.03c-0.02-0.02-0.04-0.03-0.06-0.05c-0.02-0.02-0.04-0.03-0.06-0.05c-0.02-0.02-0.04-0.03-0.06-0.05
				c-0.02-0.02-0.04-0.03-0.06-0.05c-0.02-0.02-0.04-0.03-0.06-0.05c-0.02-0.02-0.04-0.03-0.06-0.05c-0.02-0.02-0.04-0.03-0.06-0.05
				c-0.02-0.02-0.04-0.03-0.06-0.05c-0.02-0.02-0.04-0.03-0.06-0.05c-0.02-0.02-0.04-0.03-0.06-0.05c-0.02-0.02-0.04-0.03-0.06-0.05
				c-0.02-0.02-0.04-0.03-0.06-0.05c-0.02-0.02-0.04-0.03-0.06-0.05c-0.02-0.02-0.04-0.03-0.06-0.05c-0.02-0.02-0.04-0.03-0.06-0.05
				c-0.02-0.02-0.04-0.03-0.06-0.05c-0.02-0.02-0.04-0.03-0.06-0.05c-0.02-0.02-0.04-0.03-0.06-0.05c-0.02-0.02-0.04-0.03-0.06-0.05
				c-0.02-0.02-0.04-0.03-0.06-0.05c-0.02-0.02-0.04-0.03-0.06-0.05c-0.02-0.02-0.04-0.03-0.06-0.05c-0.02-0.02-0.04-0.03-0.06-0.05
				c-0.02-0.02-0.04-0.03-0.06-0.05c-0.02-0.02-0.04-0.03-0.06-0.05c-0.02-0.02-0.04-0.03-0.06-0.05c-0.02-0.02-0.04-0.03-0.06-0.05
				c-0.02-0.02-0.04-0.03-0.06-0.05c-0.02-0.02-0.04-0.03-0.06-0.05c-0.02-0.02-0.04-0.03-0.06-0.05c-0.02-0.02-0.04-0.03-0.06-0.05
				c-0.02-0.02-0.04-0.03-0.06-0.05c-0.02-0.02-0.04-0.03-0.06-0.05c-0.02-0.02-0.04-0.03-0.06-0.05c-0.02-0.02-0.04-0.03-0.06-0.05
				c-0.02-0.02-0.04-0.03-0.06-0.05c-0.02-0.02-0.04-0.03-0.06-0.05c-0.02-0.02-0.04-0.03-0.06-0.05c-0.02-0.02-0.04-0.03-0.06-0.05
				c-0.02-0.02-0.04-0.03-0.06-0.05c-0.02-0.02-0.04-0.03-0.06-0.05c-0.02-0.02-0.04-0.03-0.06-0.05c-0.02-0.02-0.04-0.03-0.06-0.05
				c-0.02-0.02-0.04-0.03-0.06-0.05c-0.02-0.02-0.04-0.03-0.06-0.05c-0.02-0.02-0.04-0.03-0.06-0.05c-0.02-0.02-0.04-0.03-0.06-0.05
				c-0.02-0.02-0.04-0.03-0.06-0.05c-0.02-0.02-0.04-0.03-0.06-0.05c-0.02-0.02-0.04-0.03-0.06-0.05c-0.02-0.02-0.04-0.03-0.06-0.05
				c-0.02-0.02-0.04-0.03-0.06-0.05c-0.02-0.02-0.04-0.03-0.06-0.05c-0.02-0.02-0.04-0.03-0.06-0.05c-0.02-0.02-0.04-0.03-0.06-0.05
				c-0.02-0.02-0.04-0.03-0.06-0.05c-0.02-0.02-0.04-0.03-0.06-0.05c-0.02-0.02-0.04-0.03-0.06-0.05c-0.02-0.02-0.04-0.03-0.06-0.05
				c-0.02-0.02-0.04-0.03-0.06-0.05c-0.02-0.02-0.04-0.03-0.06-0.05c-0.02-0.02-0.04-0.03-0.06-0.05c-0.02-0.02-0.04-0.03-0.06-0.05
				c-0.02-0.02-0.04-0.03-0.06-0.05c-0.02-0.02-0.04-0.03-0.06-0.05c-0.02-0.02-0.04-0.03-0.06-0.05c-0.02-0.02-0.04-0.03-0.06-0.05
				c-0.02-0.02-0.04-0.03-0.06-0.05c-0.02-0.02-0.04-0.03-0.06-0.05c-0.02-0.02-0.04-0.03-0.06-0.05c-0.02-0.02-0.04-0.03-0.06-0.05
				c-0.02-0.02-0.04-0.03-0.06-0.05c-0.02-0.02-0.04-0.03-0.06-0.05c-0.02-0.02-0.04-0.03-0.06-0.05c-0.02-0.02-0.04-0.03-0.06-0.05
				c-0.76-0.64-1.81-0.93-2.97-0.73l-0.23,0.04c-2.3,0.4-4.16,2.6-4.16,4.9v11.09c0,0.67,0.16,1.28,0.45,1.79c0,0-0.01,0-0.01-0.01
				c0-0.01-0.01-0.01-0.01-0.02c-0.01-0.01-0.03-0.02-0.05-0.03c0-0.01-0.01-0.01-0.01-0.02c-0.01-0.01-0.03-0.02-0.05-0.03
				c0-0.01-0.01-0.01-0.01-0.02c-0.01-0.01-0.03-0.02-0.05-0.03c0-0.01-0.01-0.01-0.01-0.02c-0.01-0.01-0.03-0.02-0.05-0.03
				c0-0.01-0.01-0.01-0.01-0.02c-0.01-0.01-0.03-0.02-0.05-0.03c0-0.01-0.01-0.01-0.01-0.02c-0.01-0.01-0.03-0.02-0.05-0.03
				c0-0.01-0.01-0.01-0.01-0.02c-0.01-0.01-0.03-0.02-0.05-0.03c0-0.01-0.01-0.01-0.01-0.02c-0.01-0.01-0.03-0.02-0.05-0.03
				c0-0.01-0.01-0.01-0.01-0.02c-0.01-0.01-0.03-0.02-0.05-0.03c0-0.01-0.01-0.01-0.01-0.02c-0.01-0.01-0.03-0.02-0.05-0.03
				c0-0.01-0.01-0.01-0.01-0.02c-0.01-0.01-0.03-0.02-0.05-0.03c0-0.01-0.01-0.01-0.01-0.02c-0.01-0.01-0.03-0.02-0.05-0.03
				c0-0.01-0.01-0.01-0.01-0.02c-0.01-0.01-0.03-0.02-0.05-0.03c0-0.01-0.01-0.01-0.01-0.02c-0.01-0.01-0.03-0.02-0.05-0.03
				c0-0.01-0.01-0.01-0.01-0.02c-0.01-0.01-0.03-0.02-0.05-0.03c0-0.01-0.01-0.01-0.01-0.02c-0.01-0.01-0.03-0.01-0.04-0.02l0-11.35
				c0-0.17-0.08-0.3-0.2-0.38c-0.02-0.02-0.04-0.03-0.06-0.05c-0.02-0.02-0.04-0.03-0.06-0.05c-0.02-0.02-0.04-0.03-0.06-0.05
				c-0.02-0.02-0.04-0.03-0.06-0.05c-0.02-0.02-0.04-0.03-0.06-0.05c-0.02-0.02-0.04-0.03-0.06-0.05c-0.02-0.02-0.04-0.03-0.06-0.05
				c-0.02-0.02-0.04-0.03-0.06-0.05c-0.02-0.02-0.04-0.03-0.06-0.05c-0.02-0.02-0.04-0.03-0.06-0.05c-0.02-0.02-0.04-0.03-0.06-0.05
				c-0.02-0.02-0.04-0.03-0.06-0.05c-0.02-0.02-0.04-0.03-0.06-0.05c-0.02-0.02-0.04-0.03-0.06-0.05c-0.02-0.02-0.04-0.03-0.06-0.05
				c-0.02-0.02-0.04-0.03-0.06-0.05c-0.02-0.02-0.04-0.03-0.06-0.05c-0.02-0.02-0.04-0.03-0.06-0.05c-0.02-0.02-0.04-0.03-0.06-0.05
				c-0.02-0.02-0.04-0.03-0.06-0.05c-0.02-0.02-0.04-0.03-0.06-0.05c-0.02-0.02-0.04-0.03-0.06-0.05c-0.02-0.02-0.04-0.03-0.06-0.05
				c-0.02-0.02-0.04-0.03-0.06-0.05c-0.02-0.02-0.04-0.03-0.06-0.05c-0.02-0.02-0.04-0.03-0.06-0.05c-0.02-0.02-0.04-0.03-0.06-0.05
				c-0.02-0.02-0.04-0.03-0.06-0.05c-0.02-0.02-0.04-0.03-0.06-0.05c-0.02-0.02-0.04-0.03-0.06-0.05c-0.02-0.02-0.04-0.03-0.06-0.05
				c-0.02-0.02-0.04-0.03-0.06-0.05c-0.02-0.02-0.04-0.03-0.06-0.05c-0.02-0.02-0.04-0.03-0.06-0.05c-0.02-0.02-0.04-0.03-0.06-0.05
				c-0.02-0.02-0.04-0.03-0.06-0.05c-0.02-0.02-0.04-0.03-0.06-0.05c-0.02-0.02-0.04-0.03-0.06-0.05c-0.02-0.02-0.04-0.03-0.06-0.05
				c-0.02-0.02-0.04-0.03-0.06-0.05c-0.02-0.02-0.04-0.03-0.06-0.05c-0.02-0.02-0.04-0.03-0.06-0.05c-0.02-0.02-0.04-0.03-0.06-0.05
				c-0.02-0.02-0.04-0.03-0.06-0.05c-0.02-0.02-0.04-0.03-0.06-0.05c-0.02-0.02-0.04-0.03-0.06-0.05c-0.02-0.02-0.04-0.03-0.06-0.05
				c-0.02-0.02-0.04-0.03-0.06-0.05c-0.02-0.02-0.04-0.03-0.06-0.05c-0.02-0.02-0.04-0.03-0.06-0.05c-0.02-0.02-0.04-0.03-0.06-0.05
				c-0.02-0.02-0.04-0.03-0.06-0.05c-0.02-0.02-0.04-0.03-0.06-0.05c-0.02-0.02-0.04-0.03-0.06-0.05c-0.02-0.02-0.04-0.03-0.06-0.05
				c-0.02-0.02-0.04-0.03-0.06-0.05c-0.02-0.02-0.04-0.03-0.06-0.05c-0.02-0.02-0.04-0.03-0.06-0.05c-0.02-0.02-0.04-0.03-0.06-0.05
				c-0.02-0.02-0.04-0.03-0.06-0.05c-0.02-0.02-0.04-0.03-0.06-0.05c-0.02-0.02-0.04-0.03-0.06-0.05c-0.02-0.02-0.04-0.03-0.06-0.05
				c-0.02-0.02-0.04-0.03-0.06-0.05c-0.02-0.02-0.04-0.03-0.06-0.05c-0.02-0.02-0.04-0.03-0.06-0.05c-0.02-0.02-0.04-0.03-0.06-0.05
				c-0.02-0.02-0.04-0.03-0.06-0.05c-0.02-0.02-0.04-0.03-0.06-0.05c-0.02-0.02-0.04-0.03-0.06-0.05c-0.02-0.02-0.04-0.03-0.06-0.05
				c-0.02-0.02-0.04-0.03-0.06-0.05c-0.02-0.02-0.04-0.03-0.06-0.05c-0.02-0.02-0.04-0.03-0.06-0.05c-0.02-0.02-0.04-0.03-0.06-0.05
				c-0.1-0.1-0.25-0.15-0.41-0.12l-2.33,0.41c-0.31,0.05-0.55,0.35-0.55,0.65l0,16.16c0,0,0,0,0,0c0-0.01-0.01-0.01-0.01-0.02
				c-0.01-0.01-0.03-0.02-0.05-0.03c0-0.01-0.01-0.01-0.01-0.02c-0.01-0.01-0.03-0.02-0.05-0.03c0-0.01-0.01-0.01-0.01-0.02
				c-0.01-0.01-0.03-0.02-0.05-0.03c0-0.01-0.01-0.01-0.01-0.02c-0.01-0.01-0.03-0.02-0.05-0.03c0-0.01-0.01-0.01-0.01-0.02
				c-0.01-0.01-0.03-0.02-0.05-0.03c0-0.01-0.01-0.01-0.01-0.02c-0.01-0.01-0.03-0.02-0.05-0.03c0-0.01-0.01-0.01-0.01-0.02
				c-0.01-0.01-0.03-0.02-0.05-0.03c0-0.01-0.01-0.01-0.01-0.02c-0.01-0.01-0.03-0.02-0.05-0.03c0-0.01-0.01-0.01-0.01-0.02
				c-0.01-0.01-0.03-0.01-0.04-0.02l0-11.35c0-0.17-0.08-0.3-0.2-0.38c-0.02-0.02-0.04-0.03-0.06-0.05
				c-0.02-0.02-0.04-0.03-0.06-0.05c-0.02-0.02-0.04-0.03-0.06-0.05c-0.02-0.02-0.04-0.03-0.06-0.05c-0.02-0.02-0.04-0.03-0.06-0.05
				c-0.02-0.02-0.04-0.03-0.06-0.05c-0.02-0.02-0.04-0.03-0.06-0.05c-0.02-0.02-0.04-0.03-0.06-0.05c-0.02-0.02-0.04-0.03-0.06-0.05
				c-0.02-0.02-0.04-0.03-0.06-0.05c-0.02-0.02-0.04-0.03-0.06-0.05c-0.02-0.02-0.04-0.03-0.06-0.05c-0.02-0.02-0.04-0.03-0.06-0.05
				c-0.02-0.02-0.04-0.03-0.06-0.05c-0.02-0.02-0.04-0.03-0.06-0.05c-0.02-0.02-0.04-0.03-0.06-0.05c-0.02-0.02-0.04-0.03-0.06-0.05
				c-0.02-0.02-0.04-0.03-0.06-0.05c-0.02-0.02-0.04-0.03-0.06-0.05c-0.02-0.02-0.04-0.03-0.06-0.05c-0.02-0.02-0.04-0.03-0.06-0.05
				c-0.02-0.02-0.04-0.03-0.06-0.05c-0.02-0.02-0.04-0.03-0.06-0.05c-0.02-0.02-0.04-0.03-0.06-0.05c-0.02-0.02-0.04-0.03-0.06-0.05
				c-0.02-0.02-0.04-0.03-0.06-0.05c-0.02-0.02-0.04-0.03-0.06-0.05c-0.02-0.02-0.04-0.03-0.06-0.05c-0.02-0.02-0.04-0.03-0.06-0.05
				c-0.02-0.02-0.04-0.03-0.06-0.05c-0.02-0.02-0.04-0.03-0.06-0.05c-0.02-0.02-0.04-0.03-0.06-0.05c-0.02-0.02-0.04-0.03-0.06-0.05
				c-0.02-0.02-0.04-0.03-0.06-0.05c-0.02-0.02-0.04-0.03-0.06-0.05c-0.02-0.02-0.04-0.03-0.06-0.05c-0.02-0.02-0.04-0.03-0.06-0.05
				c-0.02-0.02-0.04-0.03-0.06-0.05c-0.02-0.02-0.04-0.03-0.06-0.05c-0.02-0.02-0.04-0.03-0.06-0.05c-0.02-0.02-0.04-0.03-0.06-0.05
				c-0.02-0.02-0.04-0.03-0.06-0.05c-0.02-0.02-0.04-0.03-0.06-0.05c-0.02-0.02-0.04-0.03-0.06-0.05c-0.02-0.02-0.04-0.03-0.06-0.05
				c-0.02-0.02-0.04-0.03-0.06-0.05c-0.02-0.02-0.04-0.03-0.06-0.05c-0.02-0.02-0.04-0.03-0.06-0.05c-0.02-0.02-0.04-0.03-0.06-0.05
				c-0.02-0.02-0.04-0.03-0.06-0.05c-0.02-0.02-0.04-0.03-0.06-0.05c-0.02-0.02-0.04-0.03-0.06-0.05c-0.02-0.02-0.04-0.03-0.06-0.05
				c-0.02-0.02-0.04-0.03-0.06-0.05c-0.02-0.02-0.04-0.03-0.06-0.05c-0.02-0.02-0.04-0.03-0.06-0.05c-0.02-0.02-0.04-0.03-0.06-0.05
				c-0.02-0.02-0.04-0.03-0.06-0.05c-0.02-0.02-0.04-0.03-0.06-0.05c-0.02-0.02-0.04-0.03-0.06-0.05c-0.02-0.02-0.04-0.03-0.06-0.05
				c-0.02-0.02-0.04-0.03-0.06-0.05c-0.02-0.02-0.04-0.03-0.06-0.05c-0.02-0.02-0.04-0.03-0.06-0.05c-0.02-0.02-0.04-0.03-0.06-0.05
				c-0.02-0.02-0.04-0.03-0.06-0.05c-0.02-0.02-0.04-0.03-0.06-0.05c-0.02-0.02-0.04-0.03-0.06-0.05c-0.02-0.02-0.04-0.03-0.06-0.05
				c-0.02-0.02-0.04-0.03-0.06-0.05c-0.02-0.02-0.04-0.03-0.06-0.05c-0.02-0.02-0.04-0.03-0.06-0.05c-0.02-0.02-0.04-0.03-0.06-0.05
				c-0.02-0.02-0.04-0.03-0.06-0.05c-0.02-0.02-0.04-0.03-0.06-0.05c-0.1-0.1-0.25-0.15-0.41-0.12l-2.33,0.41
				c-0.31,0.05-0.55,0.35-0.55,0.65l0,3.49c0,0-0.01,0-0.01,0c-0.02-0.02-0.04-0.03-0.06-0.05c-0.02-0.02-0.04-0.03-0.06-0.05
				c-0.02-0.02-0.04-0.03-0.06-0.05c-0.02-0.02-0.04-0.03-0.06-0.05c-0.02-0.02-0.04-0.03-0.06-0.05c-0.02-0.02-0.04-0.03-0.06-0.05
				c-0.02-0.02-0.04-0.03-0.06-0.05c-0.02-0.02-0.04-0.03-0.06-0.05c-0.02-0.02-0.04-0.03-0.06-0.05c-0.02-0.02-0.04-0.03-0.06-0.05
				c-0.02-0.02-0.04-0.03-0.06-0.05c-0.02-0.02-0.04-0.03-0.06-0.05c-0.02-0.02-0.04-0.03-0.06-0.05c-0.02-0.02-0.04-0.03-0.06-0.05
				c-0.02-0.02-0.04-0.03-0.06-0.05c-0.02-0.02-0.04-0.03-0.06-0.05c-0.02-0.02-0.04-0.03-0.06-0.05c-0.02-0.02-0.04-0.03-0.06-0.05
				c-0.02-0.02-0.04-0.03-0.06-0.05c-0.02-0.02-0.04-0.03-0.06-0.05c-0.02-0.02-0.04-0.03-0.06-0.05c-0.02-0.02-0.04-0.03-0.06-0.05
				c-0.02-0.02-0.04-0.03-0.06-0.05c-0.02-0.02-0.04-0.03-0.06-0.05c-0.02-0.02-0.04-0.03-0.06-0.05c-0.02-0.02-0.04-0.03-0.06-0.05
				c-0.02-0.02-0.04-0.03-0.06-0.05c-0.02-0.02-0.04-0.03-0.06-0.05c-0.02-0.02-0.04-0.03-0.06-0.05c-0.02-0.02-0.04-0.03-0.06-0.05
				c-0.02-0.02-0.04-0.03-0.06-0.05c-0.02-0.02-0.04-0.03-0.06-0.05c-0.02-0.02-0.04-0.03-0.06-0.05c-0.02-0.02-0.04-0.03-0.06-0.05
				c-0.02-0.02-0.04-0.03-0.06-0.05c-0.02-0.02-0.04-0.03-0.06-0.05c-0.02-0.02-0.04-0.03-0.06-0.05c-0.02-0.02-0.04-0.03-0.06-0.05
				c-0.02-0.02-0.04-0.03-0.06-0.05c-0.02-0.02-0.04-0.03-0.06-0.05c-0.02-0.02-0.04-0.03-0.06-0.05c-0.02-0.02-0.04-0.03-0.06-0.05
				c-0.02-0.02-0.04-0.03-0.06-0.05c-0.02-0.02-0.04-0.03-0.06-0.05c-0.02-0.02-0.04-0.03-0.06-0.05c-0.02-0.02-0.04-0.03-0.06-0.05
				c-0.02-0.02-0.04-0.03-0.06-0.05c-0.02-0.02-0.04-0.03-0.06-0.05c-0.02-0.02-0.04-0.03-0.06-0.05c-0.02-0.02-0.04-0.03-0.06-0.05
				c-0.02-0.02-0.04-0.03-0.06-0.05c-0.02-0.02-0.04-0.03-0.06-0.05c-0.02-0.02-0.04-0.03-0.06-0.05c-0.02-0.02-0.04-0.03-0.06-0.05
				c-0.02-0.02-0.04-0.03-0.06-0.05c-0.02-0.02-0.04-0.03-0.06-0.05c-0.02-0.02-0.04-0.03-0.06-0.05c-0.02-0.02-0.04-0.03-0.06-0.05
				c-0.02-0.02-0.04-0.03-0.06-0.05c-0.02-0.02-0.04-0.03-0.06-0.05c-0.02-0.02-0.04-0.03-0.06-0.05c-0.02-0.02-0.04-0.03-0.06-0.05
				c-0.02-0.02-0.04-0.03-0.06-0.05c-0.02-0.02-0.04-0.03-0.06-0.05c-0.02-0.02-0.04-0.03-0.06-0.05c-0.02-0.02-0.04-0.03-0.06-0.05
				c-0.02-0.02-0.04-0.03-0.06-0.05c-0.02-0.02-0.04-0.03-0.06-0.05c-0.1-0.09-0.24-0.14-0.4-0.11l-2.36,0.42
				c-0.27,0.05-0.51,0.29-0.55,0.57l-0.48,3.21c-0.02-0.02-0.03-0.03-0.05-0.04c-0.02-0.02-0.04-0.03-0.06-0.05
				c-0.02-0.02-0.04-0.03-0.06-0.05c-0.02-0.02-0.04-0.03-0.06-0.05c-0.02-0.02-0.04-0.03-0.06-0.05c-0.02-0.02-0.04-0.03-0.06-0.05
				c-0.02-0.02-0.04-0.03-0.06-0.05c-0.02-0.02-0.04-0.03-0.06-0.05c-0.02-0.02-0.04-0.03-0.06-0.05c-0.02-0.02-0.04-0.03-0.06-0.05
				c-0.02-0.02-0.04-0.03-0.06-0.05c-0.02-0.02-0.04-0.03-0.06-0.05c-0.02-0.02-0.04-0.03-0.06-0.05c-0.02-0.02-0.04-0.03-0.06-0.05
				c-0.02-0.02-0.04-0.03-0.06-0.05c-0.02-0.02-0.04-0.03-0.06-0.05c-0.02-0.02-0.04-0.03-0.06-0.05c-0.02-0.02-0.04-0.03-0.06-0.05
				c-0.02-0.02-0.04-0.03-0.06-0.05c-0.02-0.02-0.04-0.03-0.06-0.05c-0.02-0.02-0.04-0.03-0.06-0.05c-0.02-0.02-0.04-0.03-0.06-0.05
				c-0.02-0.02-0.04-0.03-0.06-0.05c-0.02-0.02-0.04-0.03-0.06-0.05c-0.02-0.02-0.04-0.03-0.06-0.05c-0.02-0.02-0.04-0.03-0.06-0.05
				c-0.02-0.02-0.04-0.03-0.06-0.05c-0.02-0.02-0.04-0.03-0.06-0.05c-0.02-0.02-0.04-0.03-0.06-0.05c-0.02-0.02-0.04-0.03-0.06-0.05
				c-0.02-0.02-0.04-0.03-0.06-0.05c-0.02-0.02-0.04-0.03-0.06-0.05c-0.02-0.02-0.04-0.03-0.06-0.05c-0.02-0.02-0.04-0.03-0.06-0.05
				c-0.02-0.02-0.04-0.03-0.06-0.05c-0.02-0.02-0.04-0.03-0.06-0.05c-0.02-0.02-0.04-0.03-0.06-0.05c-0.02-0.02-0.04-0.03-0.06-0.05
				c-0.02-0.02-0.04-0.03-0.06-0.05c-0.02-0.02-0.04-0.03-0.06-0.05c-0.02-0.02-0.04-0.03-0.06-0.05c-0.02-0.02-0.04-0.03-0.06-0.05
				c-0.02-0.02-0.04-0.03-0.06-0.05c-0.02-0.02-0.04-0.03-0.06-0.05c-0.02-0.02-0.04-0.03-0.06-0.05c-0.02-0.02-0.04-0.03-0.06-0.05
				c-0.02-0.02-0.04-0.03-0.06-0.05c-0.02-0.02-0.04-0.03-0.06-0.05c-0.02-0.02-0.04-0.03-0.06-0.05c-0.02-0.02-0.04-0.03-0.06-0.05
				c-0.02-0.02-0.04-0.03-0.06-0.05c-0.02-0.02-0.04-0.03-0.06-0.05c-0.02-0.02-0.04-0.03-0.06-0.05c-0.02-0.02-0.04-0.03-0.06-0.05
				c-0.02-0.02-0.04-0.03-0.06-0.05c-0.02-0.02-0.04-0.03-0.06-0.05c-0.02-0.02-0.04-0.03-0.06-0.05c-0.02-0.02-0.04-0.03-0.06-0.05
				c-0.02-0.02-0.04-0.03-0.06-0.05c-0.02-0.02-0.04-0.03-0.06-0.05c-0.1-0.1-0.25-0.15-0.41-0.12l-2.33,0.41
				c-0.31,0.05-0.55,0.35-0.55,0.65l0,1.92c-0.01,0-0.01-0.01-0.02-0.01c-0.02-0.02-0.04-0.03-0.06-0.05
				c-0.02-0.02-0.04-0.03-0.06-0.05c-0.02-0.02-0.04-0.03-0.06-0.05c-0.02-0.02-0.04-0.03-0.06-0.05c-0.02-0.02-0.04-0.03-0.06-0.05
				c-0.02-0.02-0.04-0.03-0.06-0.05c-0.02-0.02-0.04-0.03-0.06-0.05c-0.02-0.02-0.04-0.03-0.06-0.05c-0.02-0.02-0.04-0.03-0.06-0.05
				c-0.02-0.02-0.04-0.03-0.06-0.05c-0.02-0.02-0.04-0.03-0.06-0.05c-0.02-0.02-0.04-0.03-0.06-0.05c-0.02-0.02-0.04-0.03-0.06-0.05
				c-0.02-0.02-0.04-0.03-0.06-0.05c-0.02-0.02-0.04-0.03-0.06-0.05c-0.02-0.02-0.04-0.03-0.06-0.05c-0.02-0.02-0.04-0.03-0.06-0.05
				c-0.02-0.02-0.04-0.03-0.06-0.05c-0.02-0.02-0.04-0.03-0.06-0.05c-0.02-0.02-0.04-0.03-0.06-0.05c-0.02-0.02-0.04-0.03-0.06-0.05
				c-0.02-0.02-0.04-0.03-0.06-0.05c-0.02-0.02-0.04-0.03-0.06-0.05c-0.02-0.02-0.04-0.03-0.06-0.05c-0.02-0.02-0.04-0.03-0.06-0.05
				c-0.02-0.02-0.04-0.03-0.06-0.05c-0.02-0.02-0.04-0.03-0.06-0.05c-0.02-0.02-0.04-0.03-0.06-0.05c-0.02-0.02-0.04-0.03-0.06-0.05
				c-0.02-0.02-0.04-0.03-0.06-0.05c-0.02-0.02-0.04-0.03-0.06-0.05c-0.02-0.02-0.04-0.03-0.06-0.05c-0.02-0.02-0.04-0.03-0.06-0.05
				c-0.02-0.02-0.04-0.03-0.06-0.05c-0.02-0.02-0.04-0.03-0.06-0.05c-0.02-0.02-0.04-0.03-0.06-0.05c-0.02-0.02-0.04-0.03-0.06-0.05
				c-0.02-0.02-0.04-0.03-0.06-0.05c-0.02-0.02-0.04-0.03-0.06-0.05c-0.02-0.02-0.04-0.03-0.06-0.05c-0.1-0.1-0.25-0.15-0.41-0.12
				l-2.33,0.41c-0.31,0.05-0.55,0.35-0.55,0.65l0,18.31c0,0.17,0.08,0.3,0.2,0.38c0.02,0.02,0.04,0.03,0.06,0.05
				c0.02,0.02,0.04,0.03,0.06,0.05c0.02,0.02,0.04,0.03,0.06,0.05c0.02,0.02,0.04,0.03,0.06,0.05c0.02,0.02,0.04,0.03,0.06,0.05
				c0.02,0.02,0.04,0.03,0.06,0.05c0.02,0.02,0.04,0.03,0.06,0.05c0.02,0.02,0.04,0.03,0.06,0.05c0.02,0.02,0.04,0.03,0.06,0.05
				c0.02,0.02,0.04,0.03,0.06,0.05c0.02,0.02,0.04,0.03,0.06,0.05c0.02,0.02,0.04,0.03,0.06,0.05c0.02,0.02,0.04,0.03,0.06,0.05
				c0.02,0.02,0.04,0.03,0.06,0.05c0.02,0.02,0.04,0.03,0.06,0.05c0.02,0.02,0.04,0.03,0.06,0.05c0.02,0.02,0.04,0.03,0.06,0.05
				c0.02,0.02,0.04,0.03,0.06,0.05c0.02,0.02,0.04,0.03,0.06,0.05c0.02,0.02,0.04,0.03,0.06,0.05c0.02,0.02,0.04,0.03,0.06,0.05
				c0.02,0.02,0.04,0.03,0.06,0.05c0.02,0.02,0.04,0.03,0.06,0.05c0.02,0.02,0.04,0.03,0.06,0.05c0.02,0.02,0.04,0.03,0.06,0.05
				c0.02,0.02,0.04,0.03,0.06,0.05c0.02,0.02,0.04,0.03,0.06,0.05c0.02,0.02,0.04,0.03,0.06,0.05c0.02,0.02,0.04,0.03,0.06,0.05
				c0.02,0.02,0.04,0.03,0.06,0.05c0.02,0.02,0.04,0.03,0.06,0.05c0.02,0.02,0.04,0.03,0.06,0.05c0.02,0.02,0.04,0.03,0.06,0.05
				c0.02,0.02,0.04,0.03,0.06,0.05c0.02,0.02,0.04,0.03,0.06,0.05c0.02,0.02,0.04,0.03,0.06,0.05c0.02,0.02,0.04,0.03,0.06,0.05
				c0.02,0.02,0.04,0.03,0.06,0.05c0.02,0.02,0.04,0.03,0.06,0.05c0.02,0.02,0.04,0.03,0.06,0.05c0.02,0.02,0.04,0.03,0.06,0.05
				c0.02,0.02,0.04,0.03,0.06,0.05c0.02,0.02,0.04,0.03,0.06,0.05c0.02,0.02,0.04,0.03,0.06,0.05c0.02,0.02,0.04,0.03,0.06,0.05
				c0.02,0.02,0.04,0.03,0.06,0.05c0.02,0.02,0.04,0.03,0.06,0.05c0.02,0.02,0.04,0.03,0.06,0.05c0.02,0.02,0.04,0.03,0.06,0.05
				c0.02,0.02,0.04,0.03,0.06,0.05c0.02,0.02,0.04,0.03,0.06,0.05c0.02,0.02,0.04,0.03,0.06,0.05c0.02,0.02,0.04,0.03,0.06,0.05
				c0.02,0.02,0.04,0.03,0.06,0.05c0.02,0.02,0.04,0.03,0.06,0.05c0.02,0.02,0.04,0.03,0.06,0.05c0.02,0.02,0.04,0.03,0.06,0.05
				c0.02,0.02,0.04,0.03,0.06,0.05c0.02,0.02,0.04,0.03,0.06,0.05c0.02,0.02,0.04,0.03,0.06,0.05c0.02,0.02,0.04,0.03,0.06,0.05
				c0.02,0.02,0.04,0.03,0.06,0.05c0.02,0.02,0.04,0.03,0.06,0.05c0.02,0.02,0.04,0.03,0.06,0.05c0.02,0.02,0.04,0.03,0.06,0.05
				c0.02,0.02,0.04,0.03,0.06,0.05c0.02,0.02,0.04,0.03,0.06,0.05c0.02,0.02,0.04,0.03,0.06,0.05c0.02,0.02,0.04,0.03,0.06,0.05
				c0.02,0.02,0.04,0.03,0.06,0.05c0.02,0.02,0.04,0.03,0.06,0.05c0.02,0.02,0.04,0.03,0.06,0.05c0.02,0.02,0.04,0.03,0.06,0.05
				c0.02,0.02,0.04,0.03,0.06,0.05c0.02,0.02,0.04,0.03,0.06,0.05c0.1,0.1,0.25,0.15,0.41,0.12l2.33-0.41
				c0.31-0.05,0.55-0.35,0.55-0.65l0-1.92c0.01,0,0.01,0.01,0.02,0.01c0.02,0.02,0.04,0.03,0.06,0.05c0.02,0.02,0.04,0.03,0.06,0.05
				c0.02,0.02,0.04,0.03,0.06,0.05c0.02,0.02,0.04,0.03,0.06,0.05c0.02,0.02,0.04,0.03,0.06,0.05c0.02,0.02,0.04,0.03,0.06,0.05
				c0.02,0.02,0.04,0.03,0.06,0.05c0.02,0.02,0.04,0.03,0.06,0.05c0.02,0.02,0.04,0.03,0.06,0.05c0.02,0.02,0.04,0.03,0.06,0.05
				c0.02,0.02,0.04,0.03,0.06,0.05c0.02,0.02,0.04,0.03,0.06,0.05c0.02,0.02,0.04,0.03,0.06,0.05c0.02,0.02,0.04,0.03,0.06,0.05
				c0.02,0.02,0.04,0.03,0.06,0.05c0.02,0.02,0.04,0.03,0.06,0.05c0.02,0.02,0.04,0.03,0.06,0.05c0.02,0.02,0.04,0.03,0.06,0.05
				c0.02,0.02,0.04,0.03,0.06,0.05c0.02,0.02,0.04,0.03,0.06,0.05c0.02,0.02,0.04,0.03,0.06,0.05c0.02,0.02,0.04,0.03,0.06,0.05
				c0.02,0.02,0.04,0.03,0.06,0.05c0.02,0.02,0.04,0.03,0.06,0.05c0.02,0.02,0.04,0.03,0.06,0.05c0.02,0.02,0.04,0.03,0.06,0.05
				c0.02,0.02,0.04,0.03,0.06,0.05c0.02,0.02,0.04,0.03,0.06,0.05c0.02,0.02,0.04,0.03,0.06,0.05c0.02,0.02,0.04,0.03,0.06,0.05
				c0.02,0.02,0.04,0.03,0.06,0.05c0.02,0.02,0.04,0.03,0.06,0.05c0.02,0.02,0.04,0.03,0.06,0.05c0.02,0.02,0.04,0.03,0.06,0.05
				c0.02,0.02,0.04,0.03,0.06,0.05c0.02,0.02,0.04,0.03,0.06,0.05c0.02,0.02,0.04,0.03,0.06,0.05c0.02,0.02,0.04,0.03,0.06,0.05
				c0.02,0.02,0.04,0.03,0.06,0.05c0.02,0.02,0.04,0.03,0.06,0.05c0.1,0.1,0.25,0.15,0.41,0.12l2.33-0.41
				c0.31-0.05,0.55-0.35,0.55-0.65l0-0.71c0.01,0.01,0.03,0.01,0.04,0.02c0.01,0.01,0.01,0.02,0.01,0.02
				c0.01,0.01,0.03,0.01,0.04,0.03c0.01,0.01,0.01,0.02,0.01,0.02c0.01,0.01,0.03,0.01,0.04,0.03c0.01,0.01,0.01,0.02,0.01,0.02
				c0.01,0.01,0.03,0.01,0.04,0.03c0.01,0.01,0.01,0.02,0.01,0.02c0.01,0.01,0.03,0.01,0.04,0.03c0.01,0.01,0.01,0.02,0.01,0.02
				c0.01,0.01,0.03,0.01,0.04,0.03c0.01,0.01,0.01,0.02,0.01,0.02c0.01,0.01,0.03,0.01,0.04,0.03c0.01,0.01,0.01,0.02,0.01,0.02
				c0.01,0.01,0.03,0.01,0.04,0.03c0.01,0.01,0.01,0.02,0.01,0.02c0.01,0.01,0.03,0.01,0.04,0.03c0.01,0.01,0.01,0.02,0.01,0.02
				c0.01,0.01,0.03,0.01,0.04,0.03c0.01,0.01,0.01,0.02,0.01,0.02c0.01,0.01,0.03,0.01,0.04,0.03c0.01,0.01,0.01,0.02,0.01,0.02
				c0.01,0.01,0.03,0.01,0.04,0.03c0.01,0.01,0.01,0.02,0.01,0.02c0.01,0.01,0.03,0.01,0.04,0.03c0.01,0.01,0.01,0.02,0.01,0.02
				c0.01,0.01,0.03,0.01,0.04,0.03c0.01,0.01,0.01,0.02,0.01,0.02c0.01,0.01,0.03,0.01,0.04,0.03c0.01,0.01,0.01,0.02,0.01,0.02
				c0.01,0.01,0.03,0.01,0.04,0.03c0.01,0.01,0.01,0.02,0.01,0.02c0.01,0.01,0.03,0.01,0.04,0.03c0.01,0.01,0.01,0.02,0.01,0.02
				c0.01,0.01,0.03,0.01,0.04,0.03c0.01,0.01,0.01,0.02,0.01,0.02c0.01,0.01,0.03,0.01,0.04,0.03c0.01,0.01,0.01,0.02,0.01,0.02
				c0.11,0.1,0.26,0.15,0.42,0.12l2.36-0.42c0.27-0.05,0.51-0.29,0.55-0.57l0.25-1.71l0.07-0.01c0.01,0.01,0.02,0.02,0.03,0.02
				c0.02,0.02,0.04,0.03,0.06,0.05c0.02,0.02,0.04,0.03,0.06,0.05c0.02,0.02,0.04,0.03,0.06,0.05c0.02,0.02,0.04,0.03,0.06,0.05
				c0.02,0.02,0.04,0.03,0.06,0.05c0.02,0.02,0.04,0.03,0.06,0.05c0.02,0.02,0.04,0.03,0.06,0.05c0.02,0.02,0.04,0.03,0.06,0.05
				c0.02,0.02,0.04,0.03,0.06,0.05c0.02,0.02,0.04,0.03,0.06,0.05c0.02,0.02,0.04,0.03,0.06,0.05c0.02,0.02,0.04,0.03,0.06,0.05
				c0.02,0.02,0.04,0.03,0.06,0.05c0.02,0.02,0.04,0.03,0.06,0.05c0.02,0.02,0.04,0.03,0.06,0.05c0.02,0.02,0.04,0.03,0.06,0.05
				c0.02,0.02,0.04,0.03,0.06,0.05c0.02,0.02,0.04,0.03,0.06,0.05c0.02,0.02,0.04,0.03,0.06,0.05c0.02,0.02,0.04,0.03,0.06,0.05
				c0.02,0.02,0.04,0.03,0.06,0.05c0.02,0.02,0.04,0.03,0.06,0.05c0.02,0.02,0.04,0.03,0.06,0.05c0.02,0.02,0.04,0.03,0.06,0.05
				c0.02,0.02,0.04,0.03,0.06,0.05c0.02,0.02,0.04,0.03,0.06,0.05c0.02,0.02,0.04,0.03,0.06,0.05c0.02,0.02,0.04,0.03,0.06,0.05
				c0.02,0.02,0.04,0.03,0.06,0.05c0.02,0.02,0.04,0.03,0.06,0.05c0.02,0.02,0.04,0.03,0.06,0.05c0.02,0.02,0.04,0.03,0.06,0.05
				c0.02,0.02,0.04,0.03,0.06,0.05c0.02,0.02,0.04,0.03,0.06,0.05c0.1,0.09,0.24,0.14,0.4,0.11l2.36-0.42
				c0.16-0.03,0.32-0.13,0.42-0.27c0.11-0.14,0.15-0.31,0.13-0.47l-0.11-0.71c0.01,0.01,0.03,0.02,0.04,0.03
				c0.02,0.02,0.04,0.03,0.06,0.05c0.02,0.02,0.04,0.03,0.06,0.05c0.02,0.02,0.04,0.03,0.06,0.05c0.02,0.02,0.04,0.03,0.06,0.05
				c0.02,0.02,0.04,0.03,0.06,0.05c0.02,0.02,0.04,0.03,0.06,0.05c0.02,0.02,0.04,0.03,0.06,0.05c0.02,0.02,0.04,0.03,0.06,0.05
				c0.02,0.02,0.04,0.03,0.06,0.05c0.02,0.02,0.04,0.03,0.06,0.05c0.02,0.02,0.04,0.03,0.06,0.05c0.02,0.02,0.04,0.03,0.06,0.05
				c0.02,0.02,0.04,0.03,0.06,0.05c0.02,0.02,0.04,0.03,0.06,0.05c0.02,0.02,0.04,0.03,0.06,0.05c0.02,0.02,0.04,0.03,0.06,0.05
				c0.02,0.02,0.04,0.03,0.06,0.05c0.02,0.02,0.04,0.03,0.06,0.05c0.02,0.02,0.04,0.03,0.06,0.05c0.02,0.02,0.04,0.03,0.06,0.05
				c0.1,0.1,0.25,0.15,0.41,0.12l6.28-1.11c0.26-0.05,0.49-0.27,0.54-0.54l0.13-0.65c0.01,0.01,0.02,0.01,0.04,0.02
				c0.02,0.02,0.04,0.03,0.06,0.05c0.02,0.02,0.04,0.03,0.06,0.05c0.02,0.02,0.04,0.03,0.06,0.05c0.02,0.02,0.04,0.03,0.06,0.05
				c0.02,0.02,0.04,0.03,0.06,0.05c0.02,0.02,0.04,0.03,0.06,0.05c0.02,0.02,0.04,0.03,0.06,0.05c0.02,0.02,0.04,0.03,0.06,0.05
				c0.02,0.02,0.04,0.03,0.06,0.05c0.02,0.02,0.04,0.03,0.06,0.05c0.02,0.02,0.04,0.03,0.06,0.05c0.02,0.02,0.04,0.03,0.06,0.05
				c0.02,0.02,0.04,0.03,0.06,0.05c0.02,0.02,0.04,0.03,0.06,0.05c0.02,0.02,0.04,0.03,0.06,0.05c0.1,0.1,0.25,0.15,0.41,0.12
				l6.28-1.11c0.26-0.05,0.49-0.27,0.54-0.54l0.47-2.41c0-0.01,0-0.02,0-0.04c0.01,0.01,0.02,0.02,0.03,0.02
				c0.02,0.02,0.04,0.03,0.06,0.05c0.02,0.02,0.04,0.03,0.06,0.05c0.02,0.02,0.04,0.03,0.06,0.05c0.02,0.02,0.04,0.03,0.06,0.05
				c0.02,0.02,0.04,0.03,0.06,0.05c0.02,0.02,0.04,0.03,0.06,0.05c0.02,0.02,0.04,0.03,0.06,0.05c0.02,0.02,0.04,0.03,0.06,0.05
				c0.02,0.02,0.04,0.03,0.06,0.05c0.02,0.02,0.04,0.03,0.06,0.05c0.02,0.02,0.04,0.03,0.06,0.05c0.02,0.02,0.04,0.03,0.06,0.05
				c0.02,0.02,0.04,0.03,0.06,0.05c0.02,0.02,0.04,0.03,0.06,0.05c0.02,0.02,0.04,0.03,0.06,0.05c0.02,0.02,0.04,0.03,0.06,0.05
				c0.02,0.02,0.04,0.03,0.06,0.05c0.02,0.02,0.04,0.03,0.06,0.05c0.02,0.02,0.04,0.03,0.06,0.05c0.02,0.02,0.04,0.03,0.06,0.05
				c0.02,0.02,0.04,0.03,0.06,0.05c0.02,0.02,0.04,0.03,0.06,0.05c0.02,0.02,0.04,0.03,0.06,0.05c0.02,0.02,0.04,0.03,0.06,0.05
				c0.02,0.02,0.04,0.03,0.06,0.05c0.02,0.02,0.04,0.03,0.06,0.05c0.02,0.02,0.04,0.03,0.06,0.05c0.76,0.64,1.81,0.93,2.97,0.73
				l0.23-0.04c2.3-0.4,4.16-2.6,4.16-4.9l0-11.09C101.75,80.61,101.27,79.65,100.5,79.03z M60.97,99.36l-2.33,0.41l0-7.91
				l-3.25,0.57l0,7.91l-2.33,0.41l0-18.31l2.33-0.41l0,8.07l3.25-0.57l0-8.07l2.33-0.41L60.97,99.36z M70.95,97.6l-2.36,0.42
				l-0.33-2.08l-2.58,0.45l-0.33,2.19L63.01,99l2.79-18.8l2.36-0.42L70.95,97.6z M79.26,96.13c-0.97,0.17-5.71,1.01-6.28,1.11
				l0-18.31l2.33-0.41l0,15.98l4.42-0.78L79.26,96.13z M87.51,94.68c-0.97,0.17-5.71,1.01-6.28,1.11l0-18.31l2.33-0.41l0,15.98
				l4.42-0.78L87.51,94.68z M96.89,78.33v11.09c0,1.99-1.62,3.9-3.61,4.25l-0.23,0.04c-1.99,0.35-3.61-0.98-3.61-2.97l0-11.09
				c0-1.99,1.62-3.9,3.61-4.25l0.23-0.04C95.27,75,96.89,76.33,96.89,78.33z"/>
		</g>
	</g>
</g>
</svg>
