<?xml version="1.0" encoding="utf-8"?>
<!-- Generator: Adobe Illustrator 26.2.1, SVG Export Plug-In . SVG Version: 6.00 Build 0)  -->
<svg version="1.1" xmlns="http://www.w3.org/2000/svg" xmlns:xlink="http://www.w3.org/1999/xlink" x="0px" y="0px"
	 viewBox="0 0 419.53 297.64" style="enable-background:new 0 0 419.53 297.64;" xml:space="preserve">
<style type="text/css">
	.st0{fill:#EB495E;}
	.st1{opacity:0.8;}
	.st2{fill:#FFFFFF;}
</style>
<g id="Layer_1">
</g>
<g id="Ebene_2">
</g>
<g id="Ebene_3">
	<g>
		<path d="M212.92,147.51l-7.48,1.32v26.93l7.48-1.32c3.09-0.54,5.6-3.5,5.6-6.59v-15.74C218.52,149.04,216.01,146.97,212.92,147.51
			z"/>
		<path d="M212.92,110.39l-7.48,1.32v26.19l7.48-1.32c3.09-0.54,5.6-3.5,5.6-6.59V115C218.52,111.92,216.01,109.85,212.92,110.39z"
			/>
		<polygon points="89.95,186.11 98.71,184.57 94.33,156.63 		"/>
		<path d="M390.37,109.49v-4.16c0-5.43-2.23-9.96-5.83-12.87c-0.06-0.05-0.12-0.1-0.18-0.15c-0.06-0.05-0.12-0.1-0.18-0.15
			c-0.06-0.05-0.12-0.1-0.18-0.15c-0.06-0.05-0.12-0.1-0.18-0.15c-0.06-0.05-0.12-0.1-0.18-0.15c-0.06-0.05-0.12-0.1-0.18-0.15
			c-0.06-0.05-0.12-0.1-0.18-0.15c-0.06-0.05-0.12-0.1-0.18-0.15c-0.06-0.05-0.12-0.1-0.18-0.15c-0.06-0.05-0.12-0.1-0.18-0.15
			c-0.06-0.05-0.12-0.1-0.18-0.15c-0.06-0.05-0.12-0.1-0.18-0.15c-0.06-0.05-0.12-0.1-0.18-0.15c-0.06-0.05-0.12-0.1-0.18-0.15
			c-0.06-0.05-0.12-0.1-0.18-0.15c-0.06-0.05-0.12-0.1-0.18-0.15c-0.06-0.05-0.12-0.1-0.18-0.15c-0.06-0.05-0.12-0.1-0.18-0.15
			c-0.06-0.05-0.12-0.1-0.18-0.15c-0.06-0.05-0.12-0.1-0.18-0.15c-0.06-0.05-0.12-0.1-0.18-0.15c-0.06-0.05-0.12-0.1-0.18-0.15
			c-0.06-0.05-0.12-0.1-0.18-0.15c-0.06-0.05-0.12-0.1-0.18-0.15c-0.06-0.05-0.12-0.1-0.18-0.15c-0.06-0.05-0.12-0.1-0.18-0.15
			c-0.06-0.05-0.12-0.1-0.18-0.15c-0.06-0.05-0.12-0.1-0.18-0.15c-0.06-0.05-0.12-0.1-0.18-0.15c-0.06-0.05-0.12-0.1-0.18-0.15
			c-0.06-0.05-0.12-0.1-0.18-0.15c-0.06-0.05-0.12-0.1-0.18-0.15c-0.06-0.05-0.12-0.1-0.18-0.15c-0.06-0.05-0.12-0.1-0.18-0.15
			c-0.06-0.05-0.12-0.1-0.18-0.15c-0.06-0.05-0.12-0.1-0.18-0.15c-0.06-0.05-0.12-0.1-0.18-0.15c-0.06-0.05-0.12-0.1-0.18-0.15
			c-0.06-0.05-0.12-0.1-0.18-0.15c-0.06-0.05-0.12-0.1-0.18-0.15c-0.06-0.05-0.12-0.1-0.18-0.15c-0.06-0.05-0.12-0.1-0.18-0.15
			c-0.06-0.05-0.12-0.1-0.18-0.15c-0.06-0.05-0.12-0.1-0.18-0.15c-0.06-0.05-0.12-0.1-0.18-0.15c-0.06-0.05-0.12-0.1-0.18-0.15
			c-0.06-0.05-0.12-0.1-0.18-0.15c-0.06-0.05-0.12-0.1-0.18-0.15c-0.06-0.05-0.12-0.1-0.18-0.15c-0.06-0.05-0.12-0.1-0.18-0.15
			c-0.06-0.05-0.12-0.1-0.18-0.15c-0.06-0.05-0.12-0.1-0.18-0.15c-0.06-0.05-0.12-0.1-0.18-0.15c-0.06-0.05-0.12-0.1-0.18-0.15
			c-0.06-0.05-0.12-0.1-0.18-0.15c-0.06-0.05-0.12-0.1-0.18-0.15c-0.06-0.05-0.12-0.1-0.18-0.15c-0.06-0.05-0.12-0.1-0.18-0.15
			c-0.06-0.05-0.12-0.1-0.18-0.15c-0.06-0.05-0.12-0.1-0.18-0.15c-0.06-0.05-0.12-0.1-0.18-0.15c-0.06-0.05-0.12-0.1-0.18-0.15
			c-0.06-0.05-0.12-0.1-0.18-0.15c-0.06-0.05-0.12-0.1-0.18-0.15c-0.06-0.05-0.12-0.1-0.18-0.15c-0.06-0.05-0.12-0.1-0.18-0.15
			c-0.06-0.05-0.12-0.1-0.18-0.15c-0.06-0.05-0.12-0.1-0.18-0.15c-0.06-0.05-0.12-0.1-0.18-0.15c-0.06-0.05-0.12-0.1-0.18-0.15
			c-0.06-0.05-0.12-0.1-0.18-0.15c-0.06-0.05-0.12-0.1-0.18-0.15c-0.06-0.05-0.12-0.1-0.18-0.15c-0.06-0.05-0.12-0.1-0.18-0.15
			c-0.06-0.05-0.12-0.1-0.18-0.15c-0.06-0.05-0.12-0.1-0.18-0.15c-0.06-0.05-0.12-0.1-0.18-0.15c-0.06-0.05-0.12-0.1-0.18-0.15
			c-0.06-0.05-0.12-0.1-0.18-0.15c-0.06-0.05-0.12-0.1-0.18-0.15c-0.06-0.05-0.12-0.1-0.18-0.15c-0.06-0.05-0.12-0.1-0.18-0.15
			c-0.06-0.05-0.12-0.1-0.18-0.15c-0.06-0.05-0.12-0.1-0.18-0.15c-0.06-0.05-0.12-0.1-0.18-0.15c-0.06-0.05-0.12-0.1-0.18-0.15
			c-0.06-0.05-0.12-0.1-0.18-0.15c-0.06-0.05-0.12-0.1-0.19-0.15c-0.06-0.05-0.12-0.1-0.18-0.15c-0.06-0.05-0.12-0.1-0.18-0.15
			c-0.06-0.05-0.12-0.1-0.18-0.15c-0.06-0.05-0.12-0.1-0.18-0.15c-0.06-0.05-0.12-0.1-0.18-0.15c-0.06-0.05-0.12-0.1-0.18-0.15
			c-0.06-0.05-0.12-0.1-0.18-0.15c-0.06-0.05-0.12-0.1-0.18-0.15c-0.06-0.05-0.12-0.1-0.18-0.15c-0.06-0.05-0.12-0.1-0.18-0.15
			c-0.06-0.05-0.12-0.1-0.18-0.15c-0.06-0.05-0.12-0.1-0.18-0.15c-0.06-0.05-0.12-0.1-0.18-0.15c-0.06-0.05-0.12-0.1-0.18-0.15
			c-0.06-0.05-0.12-0.1-0.18-0.15c-0.06-0.05-0.12-0.1-0.18-0.15c-0.06-0.05-0.12-0.1-0.18-0.15c-0.06-0.05-0.12-0.1-0.18-0.15
			c-0.06-0.05-0.12-0.1-0.18-0.15c-0.06-0.05-0.12-0.1-0.18-0.15c-0.06-0.05-0.12-0.1-0.18-0.15c-3.55-2.97-8.46-4.33-13.9-3.37
			l-1.06,0.19c-9.9,1.75-18.08,10.59-19.35,20.37c-0.01-0.01-0.03-0.02-0.04-0.03c-0.06-0.05-0.12-0.1-0.18-0.15
			c-0.06-0.05-0.12-0.1-0.18-0.15c-0.06-0.05-0.12-0.1-0.18-0.15c-0.06-0.05-0.12-0.1-0.18-0.15c-0.06-0.05-0.12-0.1-0.18-0.15
			c-0.06-0.05-0.12-0.1-0.18-0.15c-0.06-0.05-0.12-0.1-0.18-0.15c-0.06-0.05-0.12-0.1-0.18-0.15c-0.06-0.05-0.12-0.1-0.18-0.15
			c-0.06-0.05-0.12-0.1-0.18-0.15c-0.06-0.05-0.12-0.1-0.18-0.15c-0.06-0.05-0.12-0.1-0.18-0.15c-0.06-0.05-0.12-0.1-0.18-0.15
			c-0.06-0.05-0.12-0.1-0.18-0.15c-0.06-0.05-0.12-0.1-0.18-0.15c-0.06-0.05-0.12-0.1-0.18-0.15c-0.06-0.05-0.12-0.1-0.18-0.15
			c-0.06-0.05-0.12-0.1-0.18-0.15c-0.06-0.05-0.12-0.1-0.18-0.15c-0.06-0.05-0.12-0.1-0.18-0.15c-0.06-0.05-0.12-0.1-0.18-0.15
			c-0.06-0.05-0.12-0.1-0.18-0.15c-0.06-0.05-0.12-0.1-0.18-0.15c-0.06-0.05-0.12-0.1-0.18-0.15c-0.06-0.05-0.12-0.1-0.18-0.15
			c-0.06-0.05-0.12-0.1-0.18-0.15c-0.06-0.05-0.12-0.1-0.18-0.15c-0.06-0.05-0.12-0.1-0.18-0.15c-0.06-0.05-0.12-0.1-0.18-0.15
			c-0.06-0.05-0.12-0.1-0.18-0.15c-0.06-0.05-0.12-0.1-0.18-0.15c-0.06-0.05-0.12-0.1-0.18-0.15c-0.06-0.05-0.12-0.1-0.18-0.15
			c-0.06-0.05-0.12-0.1-0.19-0.15c-0.06-0.05-0.12-0.1-0.18-0.15c-0.06-0.05-0.12-0.1-0.18-0.15c-0.06-0.05-0.12-0.1-0.18-0.15
			c-0.06-0.05-0.12-0.1-0.18-0.15c-0.06-0.05-0.12-0.1-0.18-0.15c-0.06-0.05-0.12-0.1-0.18-0.15c-0.06-0.05-0.12-0.1-0.18-0.15
			c-0.06-0.05-0.12-0.1-0.18-0.15c-0.06-0.05-0.12-0.1-0.18-0.15c-0.06-0.05-0.12-0.1-0.18-0.15c-0.06-0.05-0.12-0.1-0.18-0.15
			c-0.06-0.05-0.12-0.1-0.18-0.15c-0.06-0.05-0.12-0.1-0.18-0.15c-0.06-0.05-0.12-0.1-0.18-0.15c-0.06-0.05-0.12-0.1-0.18-0.15
			c-0.06-0.05-0.12-0.1-0.18-0.15c-0.06-0.05-0.12-0.1-0.18-0.15c-0.06-0.05-0.12-0.1-0.18-0.15c-0.06-0.05-0.12-0.1-0.18-0.15
			c-0.06-0.05-0.12-0.1-0.18-0.15c-0.06-0.05-0.12-0.1-0.18-0.15c-0.06-0.05-0.12-0.1-0.18-0.15c-0.06-0.05-0.12-0.1-0.18-0.15
			c-0.06-0.05-0.12-0.1-0.18-0.15c-0.06-0.05-0.12-0.1-0.18-0.15c-0.06-0.05-0.12-0.1-0.18-0.15c-0.06-0.05-0.12-0.1-0.18-0.15
			c-3.47-2.91-8.29-4.24-13.61-3.31l-18.42,3.25c-1.44,0.25-2.6,1.62-2.6,3.06v4.78c-0.03-0.03-0.08-0.03-0.11-0.06
			c-0.06-0.06-0.12-0.1-0.18-0.15c-0.06-0.06-0.12-0.1-0.18-0.15c-0.06-0.06-0.12-0.1-0.18-0.15c-0.06-0.06-0.12-0.1-0.18-0.15
			c-0.06-0.06-0.12-0.1-0.18-0.15c-0.06-0.06-0.12-0.1-0.18-0.15c-0.06-0.06-0.12-0.1-0.18-0.15c-0.06-0.06-0.12-0.1-0.18-0.15
			c-0.06-0.06-0.12-0.1-0.18-0.15c-0.06-0.06-0.12-0.1-0.18-0.15c-0.06-0.06-0.12-0.1-0.18-0.15c-0.06-0.06-0.12-0.1-0.18-0.15
			c-0.06-0.06-0.12-0.1-0.18-0.15c-0.06-0.06-0.12-0.1-0.18-0.15c-0.06-0.06-0.12-0.1-0.18-0.15c-0.06-0.06-0.12-0.1-0.18-0.15
			c-0.06-0.06-0.12-0.1-0.18-0.15c-0.06-0.06-0.12-0.1-0.18-0.15c-0.06-0.06-0.12-0.1-0.18-0.15c-0.06-0.06-0.12-0.1-0.18-0.15
			c-0.06-0.06-0.12-0.1-0.18-0.15c-0.06-0.06-0.12-0.1-0.18-0.15c-0.06-0.06-0.12-0.1-0.18-0.15c-0.06-0.06-0.12-0.1-0.18-0.15
			c-0.06-0.06-0.12-0.1-0.18-0.15c-0.06-0.06-0.12-0.1-0.18-0.15c-0.06-0.06-0.12-0.1-0.18-0.15c-0.06-0.06-0.12-0.1-0.18-0.15
			c-0.06-0.06-0.12-0.1-0.18-0.15c-0.06-0.06-0.12-0.1-0.18-0.15c-0.06-0.06-0.12-0.1-0.18-0.15c-0.06-0.06-0.12-0.1-0.18-0.15
			c-0.06-0.06-0.12-0.1-0.18-0.15c-0.06-0.06-0.12-0.1-0.18-0.15c-0.06-0.06-0.12-0.1-0.18-0.15c-0.48-0.44-1.15-0.67-1.91-0.53
			l-10.93,1.93c-1.44,0.25-2.6,1.62-2.6,3.06v9c-0.03-0.02-0.07-0.03-0.1-0.05c-0.06-0.06-0.12-0.1-0.18-0.15
			c-0.06-0.06-0.12-0.1-0.18-0.15c-0.06-0.06-0.12-0.1-0.18-0.15c-0.06-0.06-0.12-0.1-0.18-0.15c-0.06-0.06-0.12-0.1-0.18-0.15
			c-0.06-0.06-0.12-0.1-0.18-0.15c-0.06-0.06-0.12-0.1-0.18-0.15c-0.06-0.06-0.12-0.1-0.18-0.15c-0.06-0.06-0.12-0.1-0.18-0.15
			c-0.06-0.06-0.12-0.1-0.18-0.15c-0.06-0.06-0.12-0.1-0.18-0.15c-0.06-0.06-0.12-0.1-0.18-0.15c-0.06-0.06-0.12-0.1-0.18-0.15
			c-0.06-0.06-0.12-0.1-0.18-0.15c-0.06-0.06-0.12-0.1-0.18-0.15c-0.06-0.06-0.12-0.1-0.18-0.15c-0.06-0.06-0.12-0.1-0.18-0.15
			c-0.06-0.06-0.12-0.1-0.18-0.15c-0.06-0.06-0.12-0.1-0.18-0.15c-0.06-0.06-0.12-0.1-0.18-0.15c-0.06-0.06-0.12-0.1-0.18-0.15
			c-0.06-0.06-0.12-0.1-0.18-0.15c-0.06-0.06-0.12-0.1-0.18-0.15c-0.06-0.06-0.12-0.1-0.18-0.15c-0.06-0.06-0.12-0.1-0.18-0.15
			c-0.06-0.06-0.12-0.1-0.18-0.15c-0.06-0.06-0.12-0.1-0.18-0.15c-0.06-0.06-0.12-0.1-0.18-0.15c-0.06-0.06-0.12-0.1-0.18-0.15
			c-0.06-0.06-0.12-0.1-0.18-0.15c-0.06-0.06-0.12-0.1-0.18-0.15c-0.06-0.06-0.12-0.1-0.18-0.15c-0.06-0.06-0.12-0.1-0.18-0.15
			c-0.06-0.06-0.12-0.1-0.18-0.15c-0.06-0.06-0.12-0.1-0.18-0.15c-0.06-0.06-0.12-0.1-0.18-0.15c-0.06-0.06-0.12-0.1-0.18-0.15
			c-0.06-0.06-0.12-0.1-0.18-0.15c-0.06-0.06-0.12-0.1-0.18-0.15c-0.06-0.06-0.12-0.1-0.18-0.15c-0.06-0.06-0.12-0.1-0.18-0.15
			c-0.06-0.06-0.12-0.1-0.18-0.15c-0.06-0.06-0.12-0.1-0.18-0.15c-0.06-0.06-0.12-0.1-0.18-0.15c-0.06-0.06-0.12-0.1-0.18-0.15
			c-0.06-0.06-0.12-0.1-0.18-0.15c-0.06-0.06-0.12-0.1-0.18-0.15c-0.06-0.06-0.12-0.1-0.18-0.15c-0.06-0.06-0.12-0.1-0.18-0.15
			c-0.06-0.06-0.12-0.1-0.18-0.15c-0.06-0.06-0.12-0.1-0.18-0.15c-0.06-0.06-0.12-0.1-0.18-0.15c-0.06-0.06-0.12-0.1-0.18-0.15
			c-0.06-0.06-0.12-0.1-0.18-0.15c-0.06-0.06-0.12-0.1-0.18-0.15c-0.06-0.06-0.12-0.1-0.18-0.15c-0.06-0.06-0.12-0.1-0.18-0.15
			c-0.06-0.06-0.12-0.1-0.18-0.15c-0.48-0.44-1.15-0.67-1.91-0.53l-10.93,1.93c-1.44,0.25-2.6,1.62-2.6,3.06v12.71
			c-0.01-0.01-0.03-0.02-0.05-0.03c-0.06-0.05-0.12-0.1-0.18-0.15c-0.06-0.05-0.12-0.1-0.18-0.15c-0.06-0.05-0.12-0.1-0.18-0.15
			c-0.06-0.05-0.12-0.1-0.18-0.15c-0.06-0.05-0.12-0.1-0.18-0.15c-0.06-0.05-0.12-0.1-0.18-0.15c-0.06-0.05-0.12-0.1-0.18-0.15
			c-0.06-0.05-0.12-0.1-0.18-0.15c-0.06-0.05-0.12-0.1-0.18-0.15c-0.06-0.05-0.12-0.1-0.18-0.15c-0.06-0.05-0.12-0.1-0.18-0.15
			c-0.06-0.05-0.12-0.1-0.18-0.15c-0.06-0.05-0.12-0.1-0.18-0.15c-0.06-0.05-0.12-0.1-0.18-0.15c-0.06-0.05-0.12-0.1-0.18-0.15
			c-0.06-0.05-0.12-0.1-0.18-0.15c-0.06-0.05-0.12-0.1-0.18-0.15c-0.06-0.05-0.12-0.1-0.18-0.15c-0.06-0.05-0.12-0.1-0.18-0.15
			c-0.06-0.05-0.12-0.1-0.18-0.15c-0.06-0.05-0.12-0.1-0.18-0.15c-0.06-0.05-0.12-0.1-0.18-0.15c-0.06-0.05-0.12-0.1-0.18-0.15
			c-0.06-0.05-0.12-0.1-0.18-0.15c-0.06-0.05-0.12-0.1-0.18-0.15c-0.06-0.05-0.12-0.1-0.18-0.15c-0.06-0.05-0.12-0.1-0.18-0.15
			c-0.06-0.05-0.12-0.1-0.18-0.15c-0.06-0.05-0.12-0.1-0.18-0.15c-0.06-0.05-0.12-0.1-0.18-0.15c-0.06-0.05-0.12-0.1-0.18-0.15
			c-0.06-0.05-0.12-0.1-0.18-0.15c-0.06-0.05-0.12-0.1-0.18-0.15c-0.06-0.05-0.12-0.1-0.18-0.15c-0.06-0.05-0.12-0.1-0.18-0.15
			c-0.06-0.05-0.12-0.1-0.18-0.15c-0.06-0.05-0.12-0.1-0.18-0.15c-0.06-0.05-0.12-0.1-0.18-0.15c-0.06-0.05-0.12-0.1-0.18-0.15
			c-0.06-0.05-0.12-0.1-0.18-0.15c-0.06-0.05-0.12-0.1-0.18-0.15c-0.06-0.05-0.12-0.1-0.18-0.15c-0.06-0.05-0.12-0.1-0.18-0.15
			c-0.06-0.05-0.12-0.1-0.18-0.15c-0.06-0.05-0.12-0.1-0.18-0.15c-0.06-0.05-0.12-0.1-0.18-0.15c-0.06-0.05-0.12-0.1-0.18-0.15
			c-0.06-0.05-0.12-0.1-0.18-0.15c-0.06-0.05-0.12-0.1-0.18-0.15c-0.06-0.05-0.12-0.1-0.18-0.15c-0.06-0.05-0.12-0.1-0.18-0.15
			c-0.06-0.05-0.12-0.1-0.18-0.15c-3.47-2.91-8.29-4.24-13.61-3.31l-18.42,3.25c-1.44,0.25-2.6,1.62-2.6,3.06v5.86
			c-0.02-0.02-0.06-0.02-0.08-0.04c-0.06-0.06-0.12-0.1-0.18-0.15c-0.06-0.06-0.12-0.1-0.18-0.15c-0.06-0.06-0.12-0.1-0.18-0.15
			c-0.06-0.06-0.12-0.1-0.18-0.15c-0.06-0.06-0.12-0.1-0.18-0.15c-0.06-0.06-0.12-0.1-0.18-0.15c-0.06-0.06-0.12-0.1-0.18-0.15
			c-0.06-0.06-0.12-0.1-0.18-0.15c-0.06-0.06-0.12-0.1-0.18-0.15c-0.06-0.06-0.12-0.1-0.18-0.15c-0.06-0.06-0.12-0.1-0.18-0.15
			c-0.06-0.06-0.12-0.1-0.18-0.15c-0.06-0.06-0.12-0.1-0.18-0.15c-0.06-0.06-0.12-0.1-0.18-0.15c-0.06-0.06-0.12-0.1-0.18-0.15
			c-0.06-0.06-0.12-0.1-0.18-0.15c-0.06-0.06-0.12-0.1-0.18-0.15c-0.06-0.06-0.12-0.1-0.18-0.15c-0.06-0.06-0.12-0.1-0.18-0.15
			c-0.06-0.06-0.12-0.1-0.18-0.15c-0.06-0.06-0.12-0.1-0.18-0.15c-0.06-0.06-0.12-0.1-0.18-0.15c-0.06-0.06-0.12-0.1-0.18-0.15
			c-0.06-0.06-0.12-0.1-0.18-0.15c-0.06-0.06-0.12-0.1-0.18-0.15c-0.06-0.06-0.12-0.1-0.18-0.15c-0.06-0.06-0.12-0.1-0.18-0.15
			c-0.06-0.06-0.12-0.1-0.18-0.15c-0.06-0.06-0.12-0.1-0.18-0.15c-0.06-0.06-0.12-0.1-0.18-0.15c-0.06-0.06-0.12-0.1-0.18-0.15
			c-0.06-0.06-0.12-0.1-0.18-0.15c-0.06-0.06-0.12-0.1-0.18-0.15c-0.06-0.06-0.12-0.1-0.18-0.15c-0.06-0.06-0.12-0.1-0.18-0.15
			c-0.06-0.06-0.12-0.1-0.18-0.15c-0.06-0.06-0.12-0.1-0.18-0.15c-0.06-0.06-0.12-0.1-0.18-0.15c-0.06-0.06-0.12-0.1-0.18-0.15
			c-0.06-0.06-0.12-0.1-0.18-0.15c-0.06-0.06-0.12-0.1-0.18-0.15c-0.48-0.44-1.15-0.67-1.91-0.53l-11.16,1.97
			c-1.16,0.2-2.17,1.15-2.5,2.31l-9.64,34.84l-3.76-12.26c-0.16-0.53-0.5-0.94-0.95-1.19c-0.06-0.05-0.11-0.11-0.18-0.15
			c-0.06-0.05-0.11-0.11-0.18-0.15c-0.06-0.05-0.11-0.11-0.18-0.15c-0.06-0.05-0.11-0.11-0.18-0.15c-0.06-0.05-0.11-0.11-0.18-0.15
			c-0.06-0.05-0.11-0.11-0.18-0.15c-0.06-0.05-0.11-0.11-0.18-0.15c-0.06-0.05-0.11-0.11-0.18-0.15c-0.06-0.05-0.11-0.11-0.18-0.15
			c-0.06-0.05-0.11-0.11-0.18-0.15c-0.06-0.05-0.11-0.11-0.18-0.15c-0.06-0.05-0.11-0.11-0.18-0.15c-0.06-0.05-0.11-0.11-0.18-0.15
			c-0.06-0.05-0.11-0.11-0.18-0.15c-0.06-0.05-0.11-0.11-0.18-0.15c-0.06-0.05-0.11-0.11-0.18-0.15c-0.06-0.05-0.11-0.11-0.18-0.15
			c-0.06-0.05-0.11-0.11-0.18-0.15c-0.06-0.05-0.11-0.11-0.18-0.15c-0.06-0.05-0.11-0.11-0.18-0.15c-0.06-0.05-0.11-0.11-0.18-0.15
			c-0.06-0.05-0.11-0.11-0.18-0.15c-0.06-0.05-0.11-0.11-0.18-0.15c-0.06-0.05-0.11-0.11-0.18-0.15c-0.06-0.05-0.11-0.11-0.18-0.15
			c-0.06-0.05-0.11-0.11-0.18-0.15c-0.06-0.05-0.11-0.11-0.18-0.15c-0.06-0.05-0.11-0.11-0.18-0.15c-0.06-0.05-0.11-0.11-0.18-0.15
			c-0.06-0.05-0.11-0.11-0.18-0.15c-0.06-0.05-0.11-0.11-0.18-0.15c-0.06-0.05-0.11-0.11-0.18-0.15c-0.06-0.05-0.11-0.11-0.18-0.15
			c-0.06-0.05-0.11-0.11-0.18-0.15c-0.06-0.05-0.11-0.11-0.18-0.15c-0.06-0.05-0.11-0.11-0.18-0.15c-0.06-0.05-0.11-0.11-0.18-0.15
			c-0.06-0.05-0.11-0.11-0.18-0.15c-0.06-0.05-0.11-0.11-0.18-0.15c-0.06-0.05-0.11-0.11-0.18-0.15c-0.06-0.05-0.11-0.11-0.18-0.15
			c-0.06-0.05-0.11-0.11-0.18-0.15c-0.06-0.05-0.11-0.11-0.18-0.15c-0.06-0.05-0.11-0.11-0.18-0.15c-0.06-0.05-0.11-0.11-0.18-0.15
			c-0.06-0.05-0.11-0.11-0.18-0.15c-0.06-0.05-0.11-0.11-0.18-0.15c-0.06-0.05-0.11-0.11-0.18-0.15c-0.06-0.05-0.11-0.11-0.18-0.15
			c-0.06-0.05-0.11-0.11-0.18-0.15c-0.06-0.05-0.11-0.11-0.18-0.15c-0.06-0.05-0.11-0.11-0.18-0.15c-0.06-0.05-0.11-0.11-0.18-0.15
			c-0.06-0.05-0.11-0.11-0.18-0.15c-0.06-0.05-0.11-0.11-0.18-0.15c-0.06-0.05-0.11-0.11-0.18-0.15c-0.06-0.05-0.11-0.11-0.18-0.15
			c-0.06-0.05-0.11-0.11-0.18-0.15c-0.06-0.05-0.11-0.11-0.18-0.15c-0.06-0.05-0.11-0.11-0.18-0.15c-0.06-0.05-0.11-0.11-0.18-0.15
			c-0.06-0.05-0.11-0.11-0.18-0.15c-0.06-0.05-0.11-0.11-0.18-0.15c-0.06-0.05-0.11-0.11-0.18-0.15c-0.06-0.05-0.11-0.11-0.18-0.15
			c-0.06-0.05-0.11-0.11-0.18-0.15c-0.06-0.05-0.11-0.11-0.18-0.15c-0.06-0.05-0.11-0.11-0.18-0.15c-0.06-0.05-0.11-0.11-0.18-0.15
			c-0.06-0.05-0.11-0.11-0.18-0.15c-0.06-0.05-0.11-0.11-0.18-0.15c-0.06-0.05-0.11-0.11-0.18-0.15c-0.06-0.05-0.11-0.11-0.18-0.15
			c-0.06-0.05-0.11-0.11-0.18-0.15c-0.06-0.05-0.11-0.11-0.18-0.15c-0.06-0.05-0.11-0.11-0.18-0.15c-0.06-0.05-0.11-0.11-0.18-0.15
			c-0.06-0.05-0.11-0.11-0.18-0.15c-0.06-0.05-0.11-0.11-0.18-0.15c-0.06-0.05-0.11-0.11-0.18-0.15c-0.06-0.05-0.11-0.11-0.18-0.15
			c-0.06-0.05-0.11-0.11-0.18-0.15c-0.06-0.05-0.11-0.11-0.18-0.15c-0.06-0.05-0.11-0.11-0.18-0.15c-0.06-0.05-0.11-0.11-0.18-0.15
			c-0.06-0.05-0.11-0.11-0.18-0.15c-0.06-0.05-0.11-0.11-0.18-0.15c-0.06-0.05-0.11-0.11-0.18-0.15c-0.06-0.05-0.11-0.11-0.18-0.15
			c-0.06-0.05-0.11-0.11-0.18-0.15c-0.06-0.05-0.11-0.11-0.18-0.15c-0.06-0.05-0.11-0.11-0.18-0.15c-0.06-0.05-0.11-0.11-0.18-0.15
			c-0.06-0.05-0.11-0.11-0.18-0.15c-0.06-0.05-0.11-0.11-0.18-0.15c-0.06-0.05-0.11-0.11-0.18-0.15c-0.06-0.05-0.11-0.11-0.18-0.15
			c-0.06-0.05-0.11-0.11-0.18-0.15c-0.06-0.05-0.11-0.11-0.18-0.15c-0.06-0.05-0.11-0.11-0.18-0.15c-0.06-0.05-0.11-0.11-0.18-0.15
			c-0.06-0.05-0.11-0.11-0.18-0.15c-0.06-0.05-0.11-0.11-0.18-0.15c-0.06-0.05-0.11-0.11-0.18-0.15c-0.06-0.05-0.11-0.11-0.18-0.15
			c-0.06-0.05-0.11-0.11-0.18-0.15c-0.06-0.05-0.11-0.11-0.18-0.15c-0.06-0.05-0.11-0.11-0.18-0.15c-0.06-0.05-0.11-0.11-0.18-0.15
			c-0.47-0.34-1.07-0.51-1.73-0.39l-11.16,1.97c-1.44,0.25-2.6,1.62-2.6,3.06v15.33c-0.03-0.02-0.06-0.03-0.08-0.05
			c-0.06-0.05-0.12-0.11-0.18-0.15c-0.06-0.05-0.12-0.11-0.18-0.15c-0.06-0.05-0.12-0.11-0.18-0.15c-0.06-0.05-0.12-0.11-0.18-0.15
			c-0.06-0.05-0.12-0.11-0.18-0.15c-0.06-0.05-0.12-0.11-0.18-0.15c-0.06-0.05-0.12-0.11-0.18-0.15c-0.06-0.05-0.12-0.11-0.18-0.15
			c-0.06-0.05-0.12-0.11-0.18-0.15c-0.06-0.05-0.12-0.11-0.18-0.15c-0.06-0.05-0.12-0.11-0.18-0.15c-0.06-0.05-0.12-0.11-0.18-0.15
			c-0.06-0.05-0.12-0.11-0.18-0.15c-0.06-0.05-0.12-0.11-0.18-0.15c-0.06-0.05-0.12-0.11-0.18-0.15c-0.06-0.05-0.12-0.11-0.18-0.15
			c-0.06-0.05-0.12-0.11-0.18-0.15c-0.06-0.05-0.12-0.11-0.18-0.15c-0.06-0.05-0.12-0.11-0.18-0.15c-0.06-0.05-0.12-0.11-0.18-0.15
			c-0.06-0.05-0.12-0.11-0.18-0.15c-0.06-0.05-0.12-0.11-0.18-0.15c-0.06-0.05-0.12-0.11-0.18-0.15c-0.06-0.05-0.12-0.11-0.18-0.15
			c-0.06-0.05-0.12-0.11-0.18-0.15c-0.06-0.05-0.12-0.11-0.18-0.15c-0.06-0.05-0.12-0.11-0.18-0.15c-0.06-0.05-0.12-0.11-0.18-0.15
			c-0.06-0.05-0.12-0.11-0.18-0.15c-0.06-0.05-0.12-0.11-0.18-0.15c-0.06-0.05-0.12-0.11-0.18-0.15c-0.06-0.05-0.12-0.11-0.18-0.15
			c-0.06-0.05-0.12-0.11-0.18-0.15c-0.06-0.05-0.12-0.11-0.18-0.15c-0.06-0.05-0.12-0.11-0.18-0.15c-0.06-0.05-0.12-0.11-0.18-0.15
			c-0.06-0.05-0.12-0.11-0.18-0.15c-0.06-0.05-0.12-0.11-0.18-0.15c-0.06-0.05-0.12-0.11-0.18-0.15c-0.06-0.05-0.12-0.11-0.18-0.15
			c-0.06-0.05-0.12-0.11-0.18-0.15c-0.06-0.05-0.12-0.11-0.18-0.15c-0.06-0.05-0.12-0.11-0.18-0.15c-0.06-0.05-0.12-0.11-0.18-0.15
			c-0.06-0.05-0.12-0.11-0.18-0.15c-0.06-0.05-0.12-0.11-0.18-0.15c-0.06-0.05-0.12-0.11-0.18-0.15c-0.06-0.05-0.12-0.11-0.18-0.15
			c-0.06-0.05-0.12-0.11-0.18-0.15c-0.06-0.05-0.12-0.11-0.18-0.15c-0.06-0.05-0.12-0.11-0.18-0.15c-0.06-0.05-0.12-0.11-0.18-0.15
			c-0.06-0.05-0.12-0.11-0.18-0.15c-0.06-0.05-0.12-0.11-0.18-0.15c-0.06-0.05-0.12-0.11-0.18-0.15c-0.06-0.05-0.12-0.11-0.18-0.15
			c-0.06-0.05-0.12-0.11-0.18-0.15c-0.06-0.05-0.12-0.11-0.18-0.15c-0.06-0.05-0.12-0.11-0.18-0.15c-0.06-0.05-0.12-0.11-0.18-0.15
			c-0.06-0.05-0.12-0.11-0.18-0.15c-0.06-0.05-0.12-0.11-0.18-0.15c-0.06-0.05-0.12-0.11-0.18-0.15c-0.06-0.05-0.12-0.11-0.18-0.15
			c-0.06-0.05-0.12-0.11-0.18-0.15c-0.06-0.05-0.12-0.11-0.18-0.15c-0.06-0.05-0.12-0.11-0.18-0.15c-0.06-0.05-0.12-0.11-0.18-0.15
			c-0.06-0.05-0.12-0.11-0.18-0.15c-0.06-0.05-0.12-0.11-0.18-0.15c-0.06-0.05-0.12-0.11-0.18-0.15c-0.06-0.05-0.12-0.11-0.18-0.15
			c-0.06-0.05-0.12-0.11-0.18-0.15c-0.06-0.05-0.12-0.11-0.18-0.15c-0.06-0.05-0.12-0.11-0.18-0.15c-0.06-0.05-0.12-0.11-0.18-0.15
			c-0.06-0.05-0.12-0.11-0.18-0.15c-0.06-0.05-0.12-0.11-0.18-0.15c-0.06-0.05-0.12-0.11-0.18-0.15c-0.06-0.05-0.12-0.11-0.18-0.15
			c-0.06-0.05-0.12-0.11-0.18-0.15c-0.06-0.05-0.12-0.11-0.18-0.15c-0.06-0.05-0.12-0.11-0.18-0.15c-0.06-0.05-0.12-0.11-0.18-0.15
			c-0.06-0.05-0.12-0.11-0.18-0.15c-0.06-0.05-0.12-0.11-0.18-0.15c-0.06-0.05-0.12-0.11-0.18-0.15c-0.06-0.05-0.12-0.11-0.18-0.15
			c-0.06-0.05-0.12-0.11-0.18-0.15c-0.06-0.05-0.12-0.11-0.18-0.15c-0.06-0.05-0.12-0.11-0.18-0.15c-0.06-0.05-0.12-0.11-0.18-0.15
			c-0.06-0.05-0.12-0.11-0.18-0.15c-0.47-0.39-1.1-0.58-1.81-0.45l-11.06,1.95c-1.28,0.23-2.38,1.36-2.57,2.66l-1.97,13.25
			c-0.04-0.03-0.08-0.04-0.12-0.07c-0.06-0.06-0.12-0.1-0.18-0.15c-0.06-0.06-0.12-0.1-0.18-0.15c-0.06-0.06-0.12-0.1-0.18-0.15
			c-0.06-0.06-0.12-0.1-0.18-0.15c-0.06-0.06-0.12-0.1-0.18-0.15c-0.06-0.06-0.12-0.1-0.18-0.15c-0.06-0.06-0.12-0.1-0.18-0.15
			c-0.06-0.06-0.12-0.1-0.18-0.15c-0.06-0.06-0.12-0.1-0.18-0.15c-0.06-0.06-0.12-0.1-0.18-0.15c-0.06-0.06-0.12-0.1-0.18-0.15
			c-0.06-0.06-0.12-0.1-0.18-0.15c-0.06-0.06-0.12-0.1-0.18-0.15c-0.06-0.06-0.12-0.1-0.18-0.15c-0.06-0.06-0.12-0.1-0.18-0.15
			c-0.06-0.06-0.12-0.1-0.18-0.15c-0.06-0.06-0.12-0.1-0.18-0.15c-0.06-0.06-0.12-0.1-0.18-0.15c-0.06-0.06-0.12-0.1-0.18-0.15
			c-0.06-0.06-0.12-0.1-0.18-0.15c-0.06-0.06-0.12-0.1-0.18-0.15c-0.06-0.06-0.12-0.1-0.18-0.15c-0.06-0.06-0.12-0.1-0.18-0.15
			c-0.06-0.06-0.12-0.1-0.18-0.15c-0.06-0.06-0.12-0.1-0.18-0.15c-0.06-0.06-0.12-0.1-0.18-0.15c-0.06-0.06-0.12-0.1-0.18-0.15
			c-0.06-0.06-0.12-0.1-0.18-0.15c-0.06-0.06-0.12-0.1-0.18-0.15c-0.06-0.06-0.12-0.1-0.18-0.15c-0.06-0.06-0.12-0.1-0.18-0.15
			c-0.06-0.06-0.12-0.1-0.18-0.15c-0.06-0.06-0.12-0.1-0.18-0.15c-0.06-0.06-0.12-0.1-0.18-0.15c-0.06-0.06-0.12-0.1-0.18-0.15
			c-0.06-0.06-0.12-0.1-0.18-0.15c-0.06-0.06-0.12-0.1-0.18-0.15c-0.06-0.06-0.12-0.1-0.18-0.15c-0.06-0.06-0.12-0.1-0.18-0.15
			c-0.06-0.06-0.12-0.1-0.18-0.15c-0.06-0.06-0.12-0.1-0.18-0.15c-0.06-0.06-0.12-0.1-0.18-0.15c-0.06-0.06-0.12-0.1-0.18-0.15
			c-0.06-0.06-0.12-0.1-0.18-0.15c-0.06-0.06-0.12-0.1-0.18-0.15c-0.06-0.06-0.12-0.1-0.18-0.15c-0.06-0.06-0.12-0.1-0.18-0.15
			c-0.06-0.06-0.12-0.1-0.18-0.15c-0.06-0.06-0.12-0.1-0.18-0.15c-0.06-0.06-0.12-0.1-0.18-0.15c-0.06-0.06-0.12-0.1-0.18-0.15
			c-0.06-0.06-0.12-0.1-0.18-0.15c-0.06-0.06-0.12-0.1-0.18-0.15c-0.06-0.06-0.12-0.1-0.18-0.15c-0.06-0.06-0.12-0.1-0.18-0.15
			c-0.06-0.06-0.12-0.1-0.18-0.15c-0.06-0.06-0.12-0.1-0.18-0.15c-0.06-0.06-0.12-0.1-0.18-0.15c-0.06-0.06-0.12-0.1-0.18-0.15
			c-0.06-0.06-0.12-0.1-0.18-0.15c-0.06-0.06-0.12-0.1-0.18-0.15c-0.06-0.06-0.12-0.1-0.18-0.15c-0.06-0.06-0.12-0.1-0.18-0.15
			c-0.06-0.06-0.12-0.1-0.18-0.15c-0.06-0.06-0.12-0.1-0.18-0.15c-0.06-0.06-0.12-0.1-0.18-0.15c-0.06-0.06-0.12-0.1-0.18-0.15
			c-0.06-0.06-0.12-0.1-0.18-0.15c-0.06-0.06-0.12-0.1-0.18-0.15c-0.06-0.06-0.12-0.1-0.18-0.15c-0.06-0.06-0.12-0.1-0.18-0.15
			c-0.06-0.06-0.12-0.1-0.18-0.15c-0.06-0.06-0.12-0.1-0.18-0.15c-0.06-0.06-0.12-0.1-0.18-0.15c-0.06-0.06-0.12-0.1-0.18-0.15
			c-0.06-0.06-0.12-0.1-0.18-0.15c-0.06-0.06-0.12-0.1-0.18-0.15c-0.48-0.44-1.15-0.67-1.91-0.53l-10.93,1.93
			c-1.44,0.25-2.6,1.62-2.6,3.06v9c-0.03-0.02-0.07-0.03-0.1-0.05c-0.06-0.06-0.12-0.1-0.18-0.15c-0.06-0.06-0.12-0.1-0.18-0.15
			c-0.06-0.06-0.12-0.1-0.18-0.15c-0.06-0.06-0.12-0.1-0.18-0.15c-0.06-0.06-0.12-0.1-0.18-0.15c-0.06-0.06-0.12-0.1-0.18-0.15
			c-0.06-0.06-0.12-0.1-0.18-0.15c-0.06-0.06-0.12-0.1-0.18-0.15c-0.06-0.06-0.12-0.1-0.18-0.15c-0.06-0.06-0.12-0.1-0.18-0.15
			c-0.06-0.06-0.12-0.1-0.18-0.15c-0.06-0.06-0.12-0.1-0.18-0.15c-0.06-0.06-0.12-0.1-0.18-0.15c-0.06-0.06-0.12-0.1-0.18-0.15
			c-0.06-0.06-0.12-0.1-0.18-0.15c-0.06-0.06-0.12-0.1-0.18-0.15c-0.06-0.06-0.12-0.1-0.18-0.15c-0.06-0.06-0.12-0.1-0.18-0.15
			c-0.06-0.06-0.12-0.1-0.18-0.15c-0.06-0.06-0.12-0.1-0.18-0.15c-0.06-0.06-0.12-0.1-0.18-0.15c-0.06-0.06-0.12-0.1-0.18-0.15
			c-0.06-0.06-0.12-0.1-0.18-0.15c-0.06-0.06-0.12-0.1-0.18-0.15c-0.06-0.06-0.12-0.1-0.18-0.15c-0.06-0.06-0.12-0.1-0.18-0.15
			c-0.06-0.06-0.12-0.1-0.18-0.15c-0.06-0.06-0.12-0.1-0.18-0.15c-0.06-0.06-0.12-0.1-0.18-0.15c-0.06-0.06-0.12-0.1-0.18-0.15
			c-0.06-0.06-0.12-0.1-0.18-0.15c-0.06-0.06-0.12-0.1-0.18-0.15c-0.06-0.06-0.12-0.1-0.18-0.15c-0.06-0.06-0.12-0.1-0.18-0.15
			c-0.06-0.06-0.12-0.1-0.18-0.15c-0.06-0.06-0.12-0.1-0.18-0.15c-0.06-0.06-0.12-0.1-0.18-0.15c-0.06-0.06-0.12-0.1-0.18-0.15
			c-0.06-0.06-0.12-0.1-0.18-0.15c-0.06-0.06-0.12-0.1-0.18-0.15c-0.06-0.06-0.12-0.1-0.18-0.15c-0.06-0.06-0.12-0.1-0.18-0.15
			c-0.06-0.06-0.12-0.1-0.18-0.15c-0.06-0.06-0.12-0.1-0.18-0.15c-0.06-0.06-0.12-0.1-0.18-0.15c-0.06-0.06-0.12-0.1-0.18-0.15
			c-0.06-0.06-0.12-0.1-0.18-0.15c-0.06-0.06-0.12-0.1-0.18-0.15c-0.06-0.06-0.12-0.1-0.18-0.15c-0.06-0.06-0.12-0.1-0.18-0.15
			c-0.06-0.06-0.12-0.1-0.18-0.15c-0.06-0.06-0.12-0.1-0.18-0.15c-0.06-0.06-0.12-0.1-0.18-0.15c-0.06-0.06-0.12-0.1-0.18-0.15
			c-0.06-0.06-0.12-0.1-0.18-0.15c-0.06-0.06-0.12-0.1-0.18-0.15c-0.06-0.06-0.12-0.1-0.18-0.15c-0.06-0.06-0.12-0.1-0.18-0.15
			c-0.48-0.44-1.15-0.67-1.91-0.53l-10.93,1.93c-1.44,0.25-2.6,1.62-2.6,3.06v85.92c0,0.77,0.34,1.38,0.87,1.76
			c0.06,0.06,0.12,0.1,0.18,0.15c0.06,0.06,0.12,0.1,0.18,0.15c0.06,0.06,0.12,0.1,0.18,0.15c0.06,0.06,0.12,0.1,0.18,0.15
			c0.06,0.06,0.12,0.1,0.18,0.15c0.06,0.06,0.12,0.1,0.18,0.15c0.06,0.06,0.12,0.1,0.18,0.15c0.06,0.06,0.12,0.1,0.18,0.15
			c0.06,0.06,0.12,0.1,0.18,0.15c0.06,0.06,0.12,0.1,0.18,0.15c0.06,0.06,0.12,0.1,0.18,0.15c0.06,0.06,0.12,0.1,0.18,0.15
			c0.06,0.06,0.12,0.1,0.18,0.15c0.06,0.06,0.12,0.1,0.18,0.15c0.06,0.06,0.12,0.1,0.18,0.15c0.06,0.06,0.12,0.1,0.18,0.15
			c0.06,0.06,0.12,0.1,0.18,0.15c0.06,0.06,0.12,0.1,0.18,0.15c0.06,0.06,0.12,0.1,0.18,0.15c0.06,0.06,0.12,0.1,0.18,0.15
			c0.06,0.06,0.12,0.1,0.18,0.15c0.06,0.06,0.12,0.1,0.18,0.15c0.06,0.06,0.12,0.1,0.18,0.15c0.06,0.06,0.12,0.1,0.18,0.15
			c0.06,0.06,0.12,0.1,0.18,0.15c0.06,0.06,0.12,0.1,0.18,0.15c0.06,0.06,0.12,0.1,0.18,0.15c0.06,0.06,0.12,0.1,0.18,0.15
			c0.06,0.06,0.12,0.1,0.18,0.15c0.06,0.06,0.12,0.1,0.18,0.15c0.06,0.06,0.12,0.1,0.18,0.15c0.06,0.06,0.12,0.1,0.18,0.15
			c0.06,0.06,0.12,0.1,0.18,0.15c0.06,0.06,0.12,0.1,0.18,0.15c0.06,0.06,0.12,0.1,0.18,0.15c0.06,0.06,0.12,0.1,0.18,0.15
			c0.06,0.06,0.12,0.1,0.18,0.15c0.06,0.06,0.12,0.1,0.18,0.15c0.06,0.06,0.12,0.1,0.18,0.15c0.06,0.06,0.12,0.1,0.18,0.15
			c0.06,0.06,0.12,0.1,0.18,0.15c0.06,0.06,0.12,0.1,0.18,0.15c0.06,0.06,0.12,0.1,0.18,0.15c0.06,0.06,0.12,0.1,0.18,0.15
			c0.06,0.06,0.12,0.1,0.18,0.15c0.06,0.06,0.12,0.1,0.18,0.15c0.06,0.06,0.12,0.1,0.18,0.15c0.06,0.06,0.12,0.1,0.18,0.15
			c0.06,0.06,0.12,0.1,0.18,0.15c0.06,0.06,0.12,0.1,0.18,0.15c0.06,0.06,0.12,0.1,0.18,0.15c0.06,0.06,0.12,0.1,0.18,0.15
			c0.06,0.06,0.12,0.1,0.18,0.15c0.06,0.06,0.12,0.1,0.18,0.15c0.06,0.06,0.12,0.1,0.18,0.15c0.06,0.06,0.12,0.1,0.18,0.15
			c0.06,0.06,0.12,0.1,0.18,0.15c0.06,0.06,0.12,0.1,0.18,0.15c0.06,0.06,0.12,0.1,0.18,0.15c0.06,0.06,0.12,0.1,0.18,0.15
			c0.06,0.06,0.12,0.1,0.18,0.15c0.06,0.06,0.12,0.1,0.18,0.15c0.06,0.06,0.12,0.1,0.18,0.15c0.06,0.06,0.12,0.1,0.18,0.15
			c0.06,0.06,0.12,0.1,0.18,0.15c0.06,0.06,0.12,0.1,0.18,0.15c0.06,0.06,0.12,0.1,0.18,0.15c0.06,0.06,0.12,0.1,0.18,0.15
			c0.06,0.06,0.12,0.1,0.18,0.15c0.06,0.06,0.12,0.1,0.18,0.15c0.06,0.06,0.12,0.1,0.18,0.15c0.06,0.06,0.12,0.1,0.18,0.15
			c0.06,0.06,0.12,0.1,0.18,0.15c0.06,0.06,0.12,0.1,0.18,0.15c0.06,0.06,0.12,0.1,0.18,0.15c0.06,0.06,0.12,0.1,0.18,0.15
			c0.06,0.06,0.12,0.1,0.18,0.15c0.06,0.06,0.12,0.1,0.18,0.15c0.06,0.06,0.12,0.1,0.18,0.15c0.06,0.06,0.12,0.1,0.18,0.15
			c0.06,0.06,0.12,0.1,0.18,0.15c0.06,0.06,0.12,0.1,0.18,0.15c0.06,0.06,0.12,0.1,0.18,0.15c0.06,0.06,0.12,0.1,0.18,0.15
			c0.06,0.06,0.12,0.1,0.18,0.15c0.06,0.06,0.12,0.1,0.18,0.15c0.06,0.06,0.12,0.1,0.18,0.15c0.06,0.06,0.12,0.1,0.18,0.15
			c0.06,0.06,0.12,0.1,0.18,0.15c0.06,0.06,0.12,0.1,0.18,0.15c0.06,0.06,0.12,0.1,0.18,0.15c0.06,0.06,0.12,0.1,0.18,0.15
			c0.06,0.06,0.12,0.1,0.18,0.15c0.06,0.06,0.12,0.1,0.18,0.15c0.06,0.06,0.12,0.1,0.18,0.15c0.06,0.06,0.12,0.1,0.18,0.15
			c0.06,0.06,0.12,0.1,0.18,0.15c0.06,0.06,0.12,0.1,0.18,0.15c0.06,0.06,0.12,0.1,0.18,0.15c0.06,0.06,0.12,0.1,0.18,0.15
			c0.06,0.06,0.12,0.1,0.18,0.15c0.06,0.06,0.12,0.1,0.18,0.15c0.06,0.06,0.12,0.1,0.18,0.15c0.06,0.06,0.12,0.1,0.18,0.15
			c0.06,0.06,0.12,0.1,0.18,0.15c0.06,0.06,0.12,0.1,0.18,0.15c0.06,0.06,0.12,0.1,0.18,0.15c0.06,0.06,0.12,0.1,0.18,0.15
			c0.06,0.06,0.12,0.1,0.18,0.15c0.48,0.44,1.15,0.67,1.91,0.53l10.93-1.93c1.44-0.25,2.6-1.62,2.6-3.06v-9
			c0.03,0.02,0.07,0.03,0.1,0.05c0.06,0.06,0.12,0.1,0.18,0.15c0.06,0.06,0.12,0.1,0.18,0.15c0.06,0.06,0.12,0.1,0.18,0.15
			c0.06,0.06,0.12,0.1,0.18,0.15c0.06,0.06,0.12,0.1,0.18,0.15c0.06,0.06,0.12,0.1,0.18,0.15c0.06,0.06,0.12,0.1,0.18,0.15
			c0.06,0.06,0.12,0.1,0.18,0.15c0.06,0.06,0.12,0.1,0.18,0.15c0.06,0.06,0.12,0.1,0.18,0.15c0.06,0.06,0.12,0.1,0.18,0.15
			c0.06,0.06,0.12,0.1,0.18,0.15c0.06,0.06,0.12,0.1,0.18,0.15c0.06,0.06,0.12,0.1,0.18,0.15c0.06,0.06,0.12,0.1,0.18,0.15
			c0.06,0.06,0.12,0.1,0.18,0.15c0.06,0.06,0.12,0.1,0.18,0.15c0.06,0.06,0.12,0.1,0.18,0.15c0.06,0.06,0.12,0.1,0.18,0.15
			c0.06,0.06,0.12,0.1,0.18,0.15c0.06,0.06,0.12,0.1,0.18,0.15c0.06,0.06,0.12,0.1,0.18,0.15c0.06,0.06,0.12,0.1,0.18,0.15
			c0.06,0.06,0.12,0.1,0.18,0.15c0.06,0.06,0.12,0.1,0.18,0.15c0.06,0.06,0.12,0.1,0.18,0.15c0.06,0.06,0.12,0.1,0.18,0.15
			c0.06,0.06,0.12,0.1,0.18,0.15c0.06,0.06,0.12,0.1,0.18,0.15c0.06,0.06,0.12,0.1,0.18,0.15c0.06,0.06,0.12,0.1,0.18,0.15
			c0.06,0.06,0.12,0.1,0.18,0.15c0.06,0.06,0.12,0.1,0.18,0.15c0.06,0.06,0.12,0.1,0.18,0.15c0.06,0.06,0.12,0.1,0.18,0.15
			c0.06,0.06,0.12,0.1,0.18,0.15c0.06,0.06,0.12,0.1,0.18,0.15c0.06,0.06,0.12,0.1,0.18,0.15c0.06,0.06,0.12,0.1,0.18,0.15
			c0.06,0.06,0.12,0.1,0.18,0.15c0.06,0.06,0.12,0.1,0.18,0.15c0.06,0.06,0.12,0.1,0.18,0.15c0.06,0.06,0.12,0.1,0.18,0.15
			c0.06,0.06,0.12,0.1,0.18,0.15c0.06,0.06,0.12,0.1,0.18,0.15c0.06,0.06,0.12,0.1,0.18,0.15c0.06,0.06,0.12,0.1,0.18,0.15
			c0.06,0.06,0.12,0.1,0.18,0.15c0.06,0.06,0.12,0.1,0.18,0.15c0.06,0.06,0.12,0.1,0.18,0.15c0.06,0.06,0.12,0.1,0.18,0.15
			c0.06,0.06,0.12,0.1,0.18,0.15c0.06,0.06,0.12,0.1,0.18,0.15c0.06,0.06,0.12,0.1,0.18,0.15c0.06,0.06,0.12,0.1,0.18,0.15
			c0.06,0.06,0.12,0.1,0.18,0.15c0.06,0.06,0.12,0.1,0.18,0.15c0.06,0.06,0.12,0.1,0.18,0.15c0.48,0.44,1.15,0.67,1.91,0.53
			l10.93-1.93c1.44-0.25,2.6-1.62,2.6-3.06v-1.38c0.02,0.02,0.05,0.02,0.07,0.04c0.02,0.02,0.02,0.05,0.04,0.07
			c0.04,0.04,0.1,0.05,0.14,0.08c0.02,0.02,0.02,0.05,0.04,0.07c0.04,0.04,0.1,0.05,0.14,0.08c0.02,0.02,0.02,0.05,0.04,0.07
			c0.04,0.04,0.1,0.05,0.14,0.08c0.02,0.02,0.02,0.05,0.04,0.07c0.04,0.04,0.1,0.05,0.14,0.08c0.02,0.02,0.02,0.05,0.04,0.07
			c0.04,0.04,0.1,0.05,0.14,0.08c0.02,0.02,0.02,0.05,0.04,0.07c0.04,0.04,0.1,0.05,0.14,0.08c0.02,0.02,0.02,0.05,0.04,0.07
			c0.04,0.04,0.1,0.05,0.14,0.08c0.02,0.02,0.02,0.05,0.04,0.07c0.04,0.04,0.1,0.05,0.14,0.08c0.02,0.02,0.02,0.05,0.04,0.07
			c0.04,0.04,0.1,0.05,0.14,0.08c0.02,0.02,0.02,0.05,0.04,0.07c0.04,0.04,0.1,0.05,0.14,0.08c0.02,0.02,0.02,0.05,0.04,0.07
			c0.04,0.04,0.1,0.05,0.14,0.08c0.02,0.02,0.02,0.05,0.04,0.07c0.04,0.04,0.1,0.05,0.14,0.08c0.02,0.02,0.02,0.05,0.04,0.07
			c0.04,0.04,0.1,0.05,0.14,0.08c0.02,0.02,0.02,0.05,0.04,0.07c0.04,0.04,0.1,0.05,0.14,0.08c0.02,0.02,0.02,0.05,0.04,0.07
			c0.04,0.04,0.1,0.05,0.14,0.08c0.02,0.02,0.02,0.05,0.04,0.07c0.04,0.04,0.1,0.05,0.14,0.08c0.02,0.02,0.02,0.05,0.04,0.07
			c0.49,0.49,1.21,0.69,1.97,0.56l11.06-1.95c1.28-0.23,2.38-1.36,2.57-2.66l1.19-8.02l0.3-0.05c0.02,0.02,0.05,0.03,0.08,0.04
			c0.06,0.05,0.12,0.11,0.18,0.15c0.06,0.05,0.12,0.11,0.18,0.15c0.06,0.05,0.12,0.11,0.18,0.15c0.06,0.05,0.12,0.11,0.18,0.15
			c0.06,0.05,0.12,0.11,0.18,0.15c0.06,0.05,0.12,0.11,0.18,0.15c0.06,0.05,0.12,0.11,0.18,0.15c0.06,0.05,0.12,0.11,0.18,0.15
			c0.06,0.05,0.12,0.11,0.18,0.15c0.06,0.05,0.12,0.11,0.18,0.15c0.06,0.05,0.12,0.11,0.18,0.15c0.06,0.05,0.12,0.11,0.18,0.15
			c0.06,0.05,0.12,0.11,0.18,0.15c0.06,0.05,0.12,0.11,0.18,0.15c0.06,0.05,0.12,0.11,0.18,0.15c0.06,0.05,0.12,0.11,0.18,0.15
			c0.06,0.05,0.12,0.11,0.18,0.15c0.06,0.05,0.12,0.11,0.18,0.15c0.06,0.05,0.12,0.11,0.18,0.15c0.06,0.05,0.12,0.11,0.18,0.15
			c0.06,0.05,0.12,0.11,0.18,0.15c0.06,0.05,0.12,0.11,0.18,0.15c0.06,0.05,0.12,0.11,0.18,0.15c0.06,0.05,0.12,0.11,0.18,0.15
			c0.06,0.05,0.12,0.11,0.18,0.15c0.06,0.05,0.12,0.11,0.18,0.15c0.06,0.05,0.12,0.11,0.18,0.15c0.06,0.05,0.12,0.11,0.18,0.15
			c0.06,0.05,0.12,0.11,0.18,0.15c0.06,0.05,0.12,0.11,0.18,0.15c0.06,0.05,0.12,0.11,0.18,0.15c0.06,0.05,0.12,0.11,0.18,0.15
			c0.06,0.05,0.12,0.11,0.18,0.15c0.06,0.05,0.12,0.11,0.18,0.15c0.06,0.05,0.12,0.11,0.18,0.15c0.06,0.05,0.12,0.11,0.18,0.15
			c0.06,0.05,0.12,0.11,0.18,0.15c0.06,0.05,0.12,0.11,0.18,0.15c0.06,0.05,0.12,0.11,0.18,0.15c0.06,0.05,0.12,0.11,0.18,0.15
			c0.06,0.05,0.12,0.11,0.18,0.15c0.06,0.05,0.12,0.11,0.18,0.15c0.06,0.05,0.12,0.11,0.18,0.15c0.06,0.05,0.12,0.11,0.18,0.15
			c0.06,0.05,0.12,0.11,0.18,0.15c0.06,0.05,0.12,0.11,0.18,0.15c0.06,0.05,0.12,0.11,0.18,0.15c0.06,0.05,0.12,0.11,0.18,0.15
			c0.06,0.05,0.12,0.11,0.18,0.15c0.06,0.05,0.12,0.11,0.18,0.15c0.47,0.39,1.1,0.58,1.81,0.45l11.06-1.95
			c0.76-0.13,1.48-0.59,1.97-1.25c0.49-0.66,0.71-1.46,0.6-2.19l-0.33-2.13c0.03,0.03,0.08,0.04,0.12,0.06
			c0.06,0.06,0.12,0.1,0.18,0.15c0.06,0.06,0.12,0.1,0.18,0.15c0.06,0.06,0.12,0.1,0.18,0.15c0.06,0.06,0.12,0.1,0.18,0.15
			c0.06,0.06,0.12,0.1,0.18,0.15c0.06,0.06,0.12,0.1,0.18,0.15c0.06,0.06,0.12,0.1,0.18,0.15c0.06,0.06,0.12,0.1,0.18,0.15
			c0.06,0.06,0.12,0.1,0.18,0.15c0.06,0.06,0.12,0.1,0.18,0.15c0.06,0.06,0.12,0.1,0.18,0.15c0.06,0.06,0.12,0.1,0.18,0.15
			c0.06,0.06,0.12,0.1,0.18,0.15c0.06,0.06,0.12,0.1,0.18,0.15c0.06,0.06,0.12,0.1,0.18,0.15c0.06,0.06,0.12,0.1,0.18,0.15
			c0.06,0.06,0.12,0.1,0.18,0.15c0.06,0.06,0.12,0.1,0.18,0.15c0.06,0.06,0.12,0.1,0.18,0.15c0.06,0.06,0.12,0.1,0.18,0.15
			c0.06,0.06,0.12,0.1,0.18,0.15c0.06,0.06,0.12,0.1,0.18,0.15c0.06,0.06,0.12,0.1,0.18,0.15c0.48,0.44,1.15,0.67,1.91,0.53
			l10.93-1.93c1.44-0.25,2.6-1.62,2.6-3.06v-7.61c0.05,0.03,0.08,0.08,0.14,0.11c0.06,0.05,0.11,0.11,0.18,0.15
			c0.06,0.05,0.11,0.11,0.18,0.15c0.06,0.05,0.11,0.11,0.18,0.15c0.06,0.05,0.11,0.11,0.18,0.15c0.06,0.05,0.11,0.11,0.18,0.15
			c0.06,0.05,0.11,0.11,0.18,0.15c0.06,0.05,0.11,0.11,0.18,0.15c0.06,0.05,0.11,0.11,0.18,0.15c0.06,0.05,0.11,0.11,0.18,0.15
			c0.06,0.05,0.11,0.11,0.18,0.15c0.06,0.05,0.11,0.11,0.18,0.15c0.06,0.05,0.11,0.11,0.18,0.15c0.06,0.05,0.11,0.11,0.18,0.15
			c0.06,0.05,0.11,0.11,0.18,0.15c0.06,0.05,0.11,0.11,0.18,0.15c0.06,0.05,0.11,0.11,0.18,0.15c0.06,0.05,0.11,0.11,0.18,0.15
			c0.06,0.05,0.11,0.11,0.18,0.15c0.06,0.05,0.11,0.11,0.18,0.15c0.06,0.05,0.11,0.11,0.18,0.15c0.06,0.05,0.11,0.11,0.18,0.15
			c0.06,0.05,0.11,0.11,0.18,0.15c0.06,0.05,0.11,0.11,0.18,0.15c0.06,0.05,0.11,0.11,0.18,0.15c0.06,0.05,0.11,0.11,0.18,0.15
			c0.06,0.05,0.11,0.11,0.18,0.15c0.06,0.05,0.11,0.11,0.18,0.15c0.06,0.05,0.11,0.11,0.18,0.15c0.06,0.05,0.11,0.11,0.18,0.15
			c0.06,0.05,0.11,0.11,0.18,0.15c0.06,0.05,0.11,0.11,0.18,0.15c0.06,0.05,0.11,0.11,0.18,0.15c0.06,0.05,0.11,0.11,0.18,0.15
			c0.06,0.05,0.11,0.11,0.18,0.15c0.06,0.05,0.11,0.11,0.18,0.15c0.06,0.05,0.11,0.11,0.18,0.15c0.06,0.05,0.11,0.11,0.18,0.15
			c0.06,0.05,0.11,0.11,0.18,0.15c0.06,0.05,0.11,0.11,0.18,0.15c0.06,0.05,0.11,0.11,0.18,0.15c0.06,0.05,0.11,0.11,0.18,0.15
			c0.06,0.05,0.11,0.11,0.18,0.15c0.06,0.05,0.11,0.11,0.18,0.15c0.06,0.05,0.11,0.11,0.18,0.15c0.06,0.05,0.11,0.11,0.18,0.15
			c0.06,0.05,0.11,0.11,0.18,0.15c0.06,0.05,0.11,0.11,0.18,0.15c0.06,0.05,0.11,0.11,0.18,0.15c0.06,0.05,0.11,0.11,0.18,0.15
			c0.06,0.05,0.11,0.11,0.18,0.15c0.06,0.05,0.11,0.11,0.18,0.15c0.47,0.34,1.07,0.51,1.73,0.39l11.38-2.01
			c1.16-0.2,2.17-1.15,2.5-2.31l1.9-6.86c0.06,0.05,0.12,0.1,0.18,0.15c0.06,0.06,0.12,0.1,0.18,0.15c0.06,0.06,0.12,0.1,0.18,0.15
			c0.06,0.06,0.12,0.1,0.18,0.15c0.06,0.06,0.12,0.1,0.18,0.15c0.06,0.06,0.12,0.1,0.18,0.15c0.06,0.06,0.12,0.1,0.18,0.15
			c0.06,0.06,0.12,0.1,0.18,0.15c0.06,0.06,0.12,0.1,0.18,0.15c0.06,0.06,0.12,0.1,0.18,0.15c0.06,0.06,0.12,0.1,0.18,0.15
			c0.06,0.06,0.12,0.1,0.18,0.15c0.06,0.06,0.12,0.1,0.18,0.15c0.06,0.06,0.12,0.1,0.18,0.15c0.06,0.06,0.12,0.1,0.18,0.15
			c0.06,0.06,0.12,0.1,0.18,0.15c0.06,0.06,0.12,0.1,0.18,0.15c0.06,0.06,0.12,0.1,0.18,0.15c0.06,0.06,0.12,0.1,0.18,0.15
			c0.06,0.06,0.12,0.1,0.18,0.15c0.06,0.06,0.12,0.1,0.18,0.15c0.06,0.06,0.12,0.1,0.18,0.15c0.06,0.06,0.12,0.1,0.18,0.15
			c0.06,0.06,0.12,0.1,0.18,0.15c0.06,0.06,0.12,0.1,0.18,0.15c0.06,0.06,0.12,0.1,0.18,0.15c0.06,0.06,0.12,0.1,0.18,0.15
			c0.06,0.06,0.12,0.1,0.18,0.15c0.06,0.06,0.12,0.1,0.18,0.15c0.06,0.06,0.12,0.1,0.18,0.15c0.06,0.06,0.12,0.1,0.18,0.15
			c0.06,0.06,0.12,0.1,0.18,0.15c0.06,0.06,0.12,0.1,0.18,0.15c0.06,0.06,0.12,0.1,0.18,0.15c0.06,0.06,0.12,0.1,0.18,0.15
			c0.06,0.06,0.12,0.1,0.18,0.15c0.06,0.06,0.12,0.1,0.18,0.15c0.06,0.06,0.12,0.1,0.18,0.15c0.06,0.06,0.12,0.1,0.18,0.15
			c0.06,0.06,0.12,0.1,0.18,0.15c0.06,0.06,0.12,0.1,0.18,0.15c0.48,0.44,1.15,0.67,1.91,0.53l10.93-1.93
			c1.44-0.25,2.6-1.62,2.6-3.06v-5.86c0.02,0.02,0.06,0.02,0.08,0.04c0.06,0.06,0.12,0.1,0.18,0.15c0.06,0.06,0.12,0.1,0.18,0.15
			c0.06,0.06,0.12,0.1,0.18,0.15c0.06,0.06,0.12,0.1,0.18,0.15c0.06,0.06,0.12,0.1,0.18,0.15c0.06,0.06,0.12,0.1,0.18,0.15
			c0.06,0.06,0.12,0.1,0.18,0.15c0.06,0.06,0.12,0.1,0.18,0.15c0.06,0.06,0.12,0.1,0.18,0.15c0.06,0.06,0.12,0.1,0.18,0.15
			c0.06,0.06,0.12,0.1,0.18,0.15c0.06,0.06,0.12,0.1,0.18,0.15c0.06,0.06,0.12,0.1,0.18,0.15c0.06,0.06,0.12,0.1,0.18,0.15
			c0.06,0.06,0.12,0.1,0.18,0.15c0.06,0.06,0.12,0.1,0.18,0.15c0.06,0.06,0.12,0.1,0.18,0.15c0.06,0.06,0.12,0.1,0.18,0.15
			c0.06,0.06,0.12,0.1,0.18,0.15c0.06,0.06,0.12,0.1,0.18,0.15c0.06,0.06,0.12,0.1,0.18,0.15c0.06,0.06,0.12,0.1,0.18,0.15
			c0.06,0.06,0.12,0.1,0.18,0.15c0.06,0.06,0.12,0.1,0.18,0.15c0.06,0.06,0.12,0.1,0.18,0.15c0.06,0.06,0.12,0.1,0.18,0.15
			c0.06,0.06,0.12,0.1,0.18,0.15c0.06,0.06,0.12,0.1,0.18,0.15c0.06,0.06,0.12,0.1,0.18,0.15c0.06,0.06,0.12,0.1,0.18,0.15
			c0.06,0.06,0.12,0.1,0.18,0.15c0.06,0.06,0.12,0.1,0.18,0.15c0.06,0.06,0.12,0.1,0.18,0.15c0.06,0.06,0.12,0.1,0.18,0.15
			c0.06,0.06,0.12,0.1,0.18,0.15c0.06,0.06,0.12,0.1,0.18,0.15c0.06,0.06,0.12,0.1,0.18,0.15c0.06,0.06,0.12,0.1,0.18,0.15
			c0.06,0.06,0.12,0.1,0.18,0.15c0.06,0.06,0.12,0.1,0.18,0.15c0.06,0.06,0.12,0.1,0.18,0.15c0.48,0.44,1.15,0.67,1.91,0.53
			l18.42-3.25c9.43-1.66,17.26-9.9,18.83-19.17c0.03,0.03,0.07,0.05,0.1,0.08c0.06,0.05,0.12,0.1,0.18,0.15
			c0.06,0.05,0.12,0.1,0.18,0.15c0.06,0.05,0.12,0.1,0.18,0.15c0.06,0.05,0.12,0.1,0.18,0.15c0.06,0.05,0.12,0.1,0.18,0.15
			c0.06,0.05,0.12,0.1,0.18,0.15c0.06,0.05,0.12,0.1,0.18,0.15c0.06,0.05,0.12,0.1,0.18,0.15c0.06,0.05,0.12,0.1,0.18,0.15
			c0.06,0.05,0.12,0.1,0.19,0.15c0.06,0.05,0.12,0.1,0.18,0.15c0.06,0.05,0.12,0.1,0.18,0.15c0.06,0.05,0.12,0.1,0.18,0.15
			c0.06,0.05,0.12,0.1,0.18,0.15c0.06,0.05,0.12,0.1,0.18,0.15c0.06,0.05,0.12,0.1,0.18,0.15c0.06,0.05,0.12,0.1,0.18,0.15
			c0.06,0.05,0.12,0.1,0.18,0.15c0.06,0.05,0.12,0.1,0.18,0.15c0.06,0.05,0.12,0.1,0.18,0.15c0.06,0.05,0.12,0.1,0.18,0.15
			c0.06,0.05,0.12,0.1,0.18,0.15c0.06,0.05,0.12,0.1,0.18,0.15c0.06,0.05,0.12,0.1,0.18,0.15c0.06,0.05,0.12,0.1,0.18,0.15
			c0.06,0.05,0.12,0.1,0.18,0.15c0.06,0.05,0.12,0.1,0.18,0.15c0.06,0.05,0.12,0.1,0.18,0.15c0.06,0.05,0.12,0.1,0.18,0.15
			c0.06,0.05,0.12,0.1,0.18,0.15c0.06,0.05,0.12,0.1,0.18,0.15c0.06,0.05,0.12,0.1,0.18,0.15c0.06,0.05,0.12,0.1,0.18,0.15
			c0.06,0.05,0.12,0.1,0.18,0.15c0.06,0.05,0.12,0.1,0.18,0.15c0.06,0.05,0.12,0.1,0.18,0.15c0.06,0.05,0.12,0.1,0.18,0.15
			c0.06,0.05,0.12,0.1,0.18,0.15c0.06,0.05,0.12,0.1,0.18,0.15c0.06,0.05,0.12,0.1,0.18,0.15c0.06,0.05,0.12,0.1,0.19,0.15
			c0.06,0.05,0.12,0.1,0.18,0.15c0.06,0.05,0.12,0.1,0.18,0.15c0.06,0.05,0.12,0.1,0.18,0.15c0.06,0.05,0.12,0.1,0.18,0.15
			c0.06,0.05,0.12,0.1,0.18,0.15c0.06,0.05,0.12,0.1,0.18,0.15c0.06,0.05,0.12,0.1,0.18,0.15c0.06,0.05,0.12,0.1,0.18,0.15
			c0.06,0.05,0.12,0.1,0.18,0.15c0.06,0.05,0.12,0.1,0.18,0.15c0.06,0.05,0.12,0.1,0.18,0.15c0.06,0.05,0.12,0.1,0.18,0.15
			c0.06,0.05,0.12,0.1,0.18,0.15c3.55,2.97,8.46,4.33,13.9,3.38l3.25-0.57c7.28-1.28,13.64-6.42,17-12.93
			c0.02,0.02,0.06,0.02,0.08,0.04c0.06,0.06,0.12,0.1,0.18,0.15c0.06,0.06,0.12,0.1,0.18,0.15c0.06,0.06,0.12,0.1,0.18,0.15
			c0.06,0.06,0.12,0.1,0.18,0.15c0.06,0.06,0.12,0.1,0.18,0.15c0.06,0.06,0.12,0.1,0.18,0.15c0.06,0.06,0.12,0.1,0.18,0.15
			c0.06,0.06,0.12,0.1,0.18,0.15c0.06,0.06,0.12,0.1,0.18,0.15c0.06,0.06,0.12,0.1,0.18,0.15c0.06,0.06,0.12,0.1,0.18,0.15
			c0.06,0.06,0.12,0.1,0.18,0.15c0.06,0.06,0.12,0.1,0.18,0.15c0.06,0.06,0.12,0.1,0.18,0.15c0.06,0.06,0.12,0.1,0.18,0.15
			c0.06,0.06,0.12,0.1,0.18,0.15c0.06,0.06,0.12,0.1,0.18,0.15c0.06,0.06,0.12,0.1,0.18,0.15c0.06,0.06,0.12,0.1,0.18,0.15
			c0.06,0.06,0.12,0.1,0.18,0.15c0.06,0.06,0.12,0.1,0.18,0.15c0.06,0.06,0.12,0.1,0.18,0.15c0.06,0.06,0.12,0.1,0.18,0.15
			c0.06,0.06,0.12,0.1,0.18,0.15c0.06,0.06,0.12,0.1,0.18,0.15c0.06,0.06,0.12,0.1,0.18,0.15c0.06,0.06,0.12,0.1,0.18,0.15
			c0.06,0.06,0.12,0.1,0.18,0.15c0.06,0.06,0.12,0.1,0.18,0.15c0.06,0.06,0.12,0.1,0.18,0.15c0.06,0.06,0.12,0.1,0.18,0.15
			c0.06,0.06,0.12,0.1,0.18,0.15c0.06,0.06,0.12,0.1,0.18,0.15c0.06,0.06,0.12,0.1,0.18,0.15c0.06,0.06,0.12,0.1,0.18,0.15
			c0.06,0.06,0.12,0.1,0.18,0.15c0.06,0.06,0.12,0.1,0.18,0.15c0.06,0.06,0.12,0.1,0.18,0.15c0.06,0.06,0.12,0.1,0.18,0.15
			c0.06,0.06,0.12,0.1,0.18,0.15c0.06,0.06,0.12,0.1,0.18,0.15c0.06,0.06,0.12,0.1,0.18,0.15c0.06,0.06,0.12,0.1,0.18,0.15
			c0.06,0.06,0.12,0.1,0.18,0.15c0.06,0.06,0.12,0.1,0.18,0.15c0.06,0.06,0.12,0.1,0.18,0.15c0.06,0.06,0.12,0.1,0.18,0.15
			c0.06,0.06,0.12,0.1,0.18,0.15c0.06,0.06,0.12,0.1,0.18,0.15c0.48,0.44,1.15,0.67,1.91,0.53l10.93-1.93
			c1.44-0.25,2.6-1.62,2.6-3.06v-6.81c0.03,0.03,0.08,0.04,0.12,0.06c0.06,0.06,0.12,0.1,0.18,0.15c0.06,0.06,0.12,0.1,0.18,0.15
			c0.06,0.06,0.12,0.1,0.18,0.15c0.06,0.06,0.12,0.1,0.18,0.15c0.06,0.06,0.12,0.1,0.18,0.15c0.06,0.06,0.12,0.1,0.18,0.15
			c0.06,0.06,0.12,0.1,0.18,0.15c0.06,0.06,0.12,0.1,0.18,0.15c0.06,0.06,0.12,0.1,0.18,0.15c0.06,0.06,0.12,0.1,0.18,0.15
			c0.06,0.06,0.12,0.1,0.18,0.15c0.06,0.06,0.12,0.1,0.18,0.15c0.06,0.06,0.12,0.1,0.18,0.15c0.06,0.06,0.12,0.1,0.18,0.15
			c0.06,0.06,0.12,0.1,0.18,0.15c0.06,0.06,0.12,0.1,0.18,0.15c0.06,0.06,0.12,0.1,0.18,0.15c0.06,0.06,0.12,0.1,0.18,0.15
			c0.06,0.06,0.12,0.1,0.18,0.15c0.06,0.06,0.12,0.1,0.18,0.15c0.06,0.06,0.12,0.1,0.18,0.15c0.06,0.06,0.12,0.1,0.18,0.15
			c0.06,0.06,0.12,0.1,0.18,0.15c0.06,0.06,0.12,0.1,0.18,0.15c0.06,0.06,0.12,0.1,0.18,0.15c0.06,0.06,0.12,0.1,0.18,0.15
			c0.06,0.06,0.12,0.1,0.18,0.15c0.06,0.06,0.12,0.1,0.18,0.15c0.06,0.06,0.12,0.1,0.18,0.15c0.06,0.06,0.12,0.1,0.18,0.15
			c0.06,0.06,0.12,0.1,0.18,0.15c0.06,0.06,0.12,0.1,0.18,0.15c0.06,0.06,0.12,0.1,0.18,0.15c0.06,0.06,0.12,0.1,0.18,0.15
			c0.06,0.06,0.12,0.1,0.18,0.15c0.06,0.06,0.12,0.1,0.18,0.15c0.06,0.06,0.12,0.1,0.18,0.15c0.06,0.06,0.12,0.1,0.18,0.15
			c0.06,0.06,0.12,0.1,0.18,0.15c0.06,0.06,0.12,0.1,0.18,0.15c0.06,0.06,0.12,0.1,0.18,0.15c0.06,0.06,0.12,0.1,0.18,0.15
			c0.06,0.06,0.12,0.1,0.18,0.15c0.06,0.06,0.12,0.1,0.18,0.15c0.06,0.06,0.12,0.1,0.18,0.15c0.06,0.06,0.12,0.1,0.18,0.15
			c0.48,0.44,1.15,0.67,1.91,0.53l10.93-1.93c1.44-0.25,2.6-1.62,2.6-3.06v-14.41c0.05,0.04,0.1,0.08,0.15,0.12
			c0.06,0.05,0.12,0.1,0.18,0.15c0.06,0.05,0.12,0.1,0.18,0.15c0.06,0.05,0.12,0.1,0.18,0.15c0.06,0.05,0.12,0.1,0.18,0.15
			c0.06,0.05,0.12,0.1,0.18,0.15c0.06,0.05,0.12,0.1,0.18,0.15c0.06,0.05,0.12,0.1,0.18,0.15c0.06,0.05,0.12,0.1,0.18,0.15
			c0.06,0.05,0.12,0.1,0.18,0.15c0.06,0.05,0.12,0.1,0.18,0.15c0.06,0.05,0.12,0.1,0.18,0.15c0.06,0.05,0.12,0.1,0.18,0.15
			c0.06,0.05,0.12,0.1,0.18,0.15c0.06,0.05,0.12,0.1,0.18,0.15c0.06,0.05,0.12,0.1,0.18,0.15c0.06,0.05,0.12,0.1,0.18,0.15
			c0.06,0.05,0.12,0.1,0.18,0.15c0.06,0.05,0.12,0.1,0.18,0.15c0.06,0.05,0.12,0.1,0.18,0.15c0.06,0.05,0.12,0.1,0.18,0.15
			c0.06,0.05,0.12,0.1,0.18,0.15c0.06,0.05,0.12,0.1,0.18,0.15c0.06,0.05,0.12,0.1,0.18,0.15c0.06,0.05,0.12,0.1,0.18,0.15
			c0.06,0.05,0.12,0.1,0.18,0.15c0.06,0.05,0.12,0.1,0.18,0.15c0.06,0.05,0.12,0.1,0.18,0.15c0.06,0.05,0.12,0.1,0.18,0.15
			c0.06,0.05,0.12,0.1,0.18,0.15c0.06,0.05,0.12,0.1,0.18,0.15c0.06,0.05,0.12,0.1,0.18,0.15c0.06,0.05,0.12,0.1,0.18,0.15
			c0.06,0.05,0.12,0.1,0.18,0.15c0.06,0.05,0.12,0.1,0.18,0.15c0.06,0.05,0.12,0.1,0.18,0.15c0.06,0.05,0.12,0.1,0.18,0.15
			c0.06,0.05,0.12,0.1,0.18,0.15c0.06,0.05,0.12,0.1,0.18,0.15c0.06,0.05,0.12,0.1,0.18,0.15c0.06,0.05,0.12,0.1,0.18,0.15
			c0.06,0.05,0.12,0.1,0.18,0.15c0.06,0.05,0.12,0.1,0.18,0.15c0.06,0.05,0.12,0.1,0.18,0.15c0.06,0.05,0.12,0.1,0.18,0.15
			c0.06,0.05,0.12,0.1,0.18,0.15c0.06,0.05,0.12,0.1,0.18,0.15c0.06,0.05,0.12,0.1,0.18,0.15c0.06,0.05,0.12,0.1,0.18,0.15
			c0.06,0.05,0.12,0.1,0.18,0.15c0.06,0.05,0.12,0.1,0.18,0.15c0.06,0.05,0.12,0.1,0.18,0.15c0.06,0.05,0.12,0.1,0.18,0.15
			c0.06,0.05,0.12,0.1,0.18,0.15c0.06,0.05,0.12,0.1,0.18,0.15c0.06,0.05,0.12,0.1,0.18,0.15c0.06,0.05,0.12,0.1,0.18,0.15
			c0.06,0.05,0.12,0.1,0.18,0.15c0.06,0.05,0.12,0.1,0.18,0.15c0.06,0.05,0.12,0.1,0.18,0.15c0.06,0.05,0.12,0.1,0.18,0.15
			c3.55,2.97,8.46,4.33,13.9,3.38l1.06-0.19c10.77-1.9,19.54-12.21,19.54-22.99v-31.11c0-0.77-0.34-1.38-0.87-1.76
			c-0.06-0.06-0.12-0.1-0.18-0.15c-0.06-0.06-0.12-0.1-0.18-0.15c-0.06-0.06-0.12-0.1-0.18-0.15c-0.06-0.06-0.12-0.1-0.18-0.15
			c-0.06-0.06-0.12-0.1-0.18-0.15c-0.06-0.06-0.12-0.1-0.18-0.15c-0.06-0.06-0.12-0.1-0.18-0.15c-0.06-0.06-0.12-0.1-0.18-0.15
			c-0.06-0.06-0.12-0.1-0.18-0.15c-0.06-0.06-0.12-0.1-0.18-0.15c-0.06-0.06-0.12-0.1-0.18-0.15c-0.06-0.06-0.12-0.1-0.18-0.15
			c-0.06-0.06-0.12-0.1-0.18-0.15c-0.06-0.06-0.12-0.1-0.18-0.15c-0.06-0.06-0.12-0.1-0.18-0.15c-0.06-0.06-0.12-0.1-0.18-0.15
			c-0.06-0.06-0.12-0.1-0.18-0.15c-0.06-0.06-0.12-0.1-0.18-0.15c-0.06-0.06-0.12-0.1-0.18-0.15c-0.06-0.06-0.12-0.1-0.18-0.15
			c-0.06-0.06-0.12-0.1-0.18-0.15c-0.06-0.06-0.12-0.1-0.18-0.15c-0.06-0.06-0.12-0.1-0.18-0.15c-0.06-0.06-0.12-0.1-0.18-0.15
			c-0.06-0.06-0.12-0.1-0.18-0.15c-0.06-0.06-0.12-0.1-0.18-0.15c-0.06-0.06-0.12-0.1-0.18-0.15c-0.06-0.06-0.12-0.1-0.18-0.15
			c-0.06-0.06-0.12-0.1-0.18-0.15c-0.06-0.06-0.12-0.1-0.18-0.15c-0.06-0.06-0.12-0.1-0.18-0.15c-0.06-0.06-0.12-0.1-0.18-0.15
			c-0.06-0.06-0.12-0.1-0.18-0.15c-0.06-0.06-0.12-0.1-0.18-0.15c-0.06-0.06-0.12-0.1-0.18-0.15c-0.06-0.06-0.12-0.1-0.18-0.15
			c-0.06-0.06-0.12-0.1-0.18-0.15c-0.06-0.06-0.12-0.1-0.18-0.15c-0.06-0.06-0.12-0.1-0.18-0.15c-0.06-0.06-0.12-0.1-0.18-0.15
			c-0.06-0.06-0.12-0.1-0.18-0.15c-0.06-0.06-0.12-0.1-0.18-0.15c-0.06-0.06-0.12-0.1-0.18-0.15c-0.06-0.06-0.12-0.1-0.18-0.15
			c-0.06-0.06-0.12-0.1-0.18-0.15c-0.06-0.06-0.12-0.1-0.18-0.15c-0.06-0.06-0.12-0.1-0.18-0.15c-0.06-0.06-0.12-0.1-0.18-0.15
			c-0.06-0.06-0.12-0.1-0.18-0.15c-0.06-0.06-0.12-0.1-0.18-0.15c-0.06-0.06-0.12-0.1-0.18-0.15c-0.06-0.06-0.12-0.1-0.18-0.15
			c-0.06-0.06-0.12-0.1-0.18-0.15c-0.06-0.06-0.12-0.1-0.18-0.15c-0.06-0.06-0.12-0.1-0.18-0.15c-0.06-0.06-0.12-0.1-0.18-0.15
			c-0.05-0.05-0.1-0.1-0.16-0.14l9.23-3.48C389.5,111.95,390.37,110.73,390.37,109.49z M68.08,210.92l-10.93,1.93v-37.12
			l-15.27,2.69v37.12l-10.93,1.93v-85.92l10.93-1.93v37.87l15.27-2.69v-37.87L68.08,125V210.92z M101.9,204.96l-1.53-9.75
			l-12.09,2.13l-1.53,10.29l-11.06,1.95l13.1-88.23l11.06-1.95l13.1,83.61L101.9,204.96z M182.38,190.77l-10.93,1.93v-47.57
			l-13.84,50.01l-11.38,2.01l-13.84-45.13v47.57l-10.93,1.93v-85.92l11.16-1.97l19.31,62.95l19.31-69.76l11.16-1.97V190.77z
			 M229.45,128.07c0,4.25-1.61,8.42-4.26,11.82c2.65,2.47,4.26,6.06,4.26,10.31v15.74c0,9.12-7.42,17.84-16.53,19.45
			c-1.8,0.32-16.5,2.91-18.42,3.25v-85.92c1.91-0.34,16.61-2.93,18.42-3.25c9.12-1.61,16.53,4.5,16.53,13.62V128.07z M275.87,157.34
			c0,9.34-7.6,18.28-16.94,19.93l-3.25,0.57c-9.34,1.65-16.94-4.61-16.94-13.95V94.91l10.93-1.93v68.98c0,3.31,2.7,5.53,6.01,4.95
			l3.25-0.57c3.31-0.58,6.01-3.76,6.01-7.07V90.29l10.93-1.93V157.34z M321.87,118.33c0,4.25-1.61,8.42-4.26,11.82
			c2.65,2.47,4.26,6.06,4.26,10.31v25.71l-10.93,1.93v-25.71c0-3.09-2.51-5.16-5.6-4.61l-7.48,1.32v31.31l-10.93,1.93V86.41
			c9.59-1.69,8.92-1.57,18.42-3.25c9.12-1.61,16.53,4.5,16.53,13.62V118.33z M367.55,93.29l-10.93,4.11v-6.34
			c0-3.31-2.7-5.53-6.01-4.95l-1.06,0.19c-3.31,0.58-6.01,3.76-6.01,7.07v52.04c0,3.31,2.7,5.53,6.01,4.95l1.06-0.19
			c3.31-0.58,6.01-3.76,6.01-7.07v-20.18l-5.93,1.05v-10.93l16.87-2.97v31.11c0,9.34-7.6,18.28-16.94,19.93l-1.06,0.19
			c-9.34,1.65-16.94-4.61-16.94-13.95V95.3c0-9.34,7.6-18.28,16.94-19.93l1.06-0.19c9.34-1.65,16.94,4.61,16.94,13.95V93.29z"/>
		<path d="M305.34,94.09l-7.48,1.32v32.75l7.48-1.32c3.09-0.54,5.6-3.5,5.6-6.59V98.71C310.94,95.62,308.43,93.55,305.34,94.09z"/>
	</g>
	<g class="st1">
		<g>
			<polygon class="st2" points="57.14,126.93 57.14,164.79 41.87,167.49 41.87,129.62 30.94,131.55 30.94,217.47 41.87,215.54 
				41.87,178.42 57.14,175.72 57.14,212.85 68.08,210.92 68.08,125 			"/>
		</g>
	</g>
	<g class="st1">
		<g>
			<path class="st2" d="M86.76,207.63l1.53-10.29l12.09-2.13l1.53,9.75l11.06-1.95l-13.1-83.61l-11.06,1.95l-13.1,88.23
				L86.76,207.63z M94.33,156.63l4.38,27.94l-8.75,1.54L94.33,156.63z"/>
		</g>
	</g>
	<g class="st1">
		<g>
			<polygon class="st2" points="171.22,106.81 151.91,176.57 132.61,113.62 121.45,115.59 121.45,201.51 132.38,199.58 
				132.38,152.01 146.22,197.14 157.61,195.13 171.45,145.12 171.45,192.69 182.38,190.77 182.38,104.84 			"/>
		</g>
	</g>
	<g class="st1">
		<g>
			<path class="st2" d="M229.45,113.08c0-9.12-7.42-15.22-16.53-13.62c-1.8,0.32-16.5,2.91-18.42,3.25v85.92
				c1.91-0.34,16.61-2.93,18.42-3.25c9.12-1.61,16.53-10.33,16.53-19.45V150.2c0-4.25-1.61-7.85-4.26-10.31
				c2.65-3.4,4.26-7.57,4.26-11.82V113.08z M212.92,110.39c3.09-0.54,5.6,1.52,5.6,4.61V130c0,3.09-2.51,6.04-5.6,6.59l-7.48,1.32
				v-26.19L212.92,110.39z M218.52,167.86c0,3.09-2.51,6.04-5.6,6.59l-7.48,1.32v-26.93l7.48-1.32c3.09-0.54,5.6,1.52,5.6,4.61
				V167.86z"/>
		</g>
	</g>
	<g class="st1">
		<g>
			<path class="st2" d="M275.87,157.34V88.36l-10.93,1.93v68.98c0,3.31-2.7,6.49-6.01,7.07l-3.25,0.57
				c-3.31,0.58-6.01-1.64-6.01-4.95V92.98l-10.93,1.93v68.98c0,9.34,7.6,15.6,16.94,13.95l3.25-0.57
				C268.27,175.62,275.87,166.68,275.87,157.34z"/>
		</g>
	</g>
	<g class="st1">
		<g>
			<path class="st2" d="M321.87,96.78c0-9.12-7.42-15.22-16.53-13.62c-9.5,1.67-8.82,1.56-18.42,3.25v85.92l10.93-1.93V139.1
				l7.48-1.32c3.09-0.54,5.6,1.52,5.6,4.61v25.71l10.93-1.93v-25.71c0-4.25-1.61-7.85-4.26-10.31c2.65-3.4,4.26-7.57,4.26-11.82
				V96.78z M297.85,128.17V95.41l7.48-1.32c3.09-0.54,5.6,1.52,5.6,4.61v21.55c0,3.09-2.51,6.04-5.6,6.59L297.85,128.17z"/>
		</g>
	</g>
	<g class="st1">
		<g>
			<path class="st2" d="M350.61,161.1l-1.06,0.19c-9.34,1.65-16.94-4.61-16.94-13.95V95.3c0-9.34,7.6-18.28,16.94-19.93l1.06-0.19
				c9.34-1.65,16.94,4.61,16.94,13.95v4.16l-10.93,4.11v-6.34c0-3.31-2.7-5.53-6.01-4.95l-1.06,0.19c-3.31,0.58-6.01,3.76-6.01,7.07
				v52.04c0,3.31,2.7,5.53,6.01,4.95l1.06-0.19c3.31-0.58,6.01-3.76,6.01-7.07v-20.18l-5.93,1.05v-10.93l16.87-2.97v31.11
				C367.55,150.52,359.95,159.45,350.61,161.1z"/>
		</g>
	</g>
	<g>
		<g>
			<g>
				<polygon class="st2" points="34.98,98.23 34.98,106.3 31.72,106.87 31.72,98.8 29.39,99.21 29.39,117.52 31.72,117.11 
					31.72,109.2 34.98,108.63 34.98,116.54 37.31,116.13 37.31,97.81 				"/>
			</g>
		</g>
		<g>
			<g>
				<path class="st2" d="M41.71,115.35l0.33-2.19l2.58-0.45l0.33,2.08l2.36-0.42L44.5,96.55l-2.36,0.42l-2.79,18.8L41.71,115.35z
					 M43.32,104.48l0.93,5.95l-1.87,0.33L43.32,104.48z"/>
			</g>
		</g>
		<g>
			<g>
				<path class="st2" d="M51.65,111.27V95.29l-2.33,0.41v18.31c0.57-0.1,5.32-0.94,6.28-1.11l0.47-2.41L51.65,111.27z"/>
			</g>
		</g>
		<g>
			<g>
				<path class="st2" d="M59.9,109.81V93.83l-2.33,0.41v18.31c0.57-0.1,5.32-0.94,6.28-1.11l0.47-2.41L59.9,109.81z"/>
			</g>
		</g>
		<g>
			<g>
				<path class="st2" d="M69.62,110.43l-0.23,0.04c-1.99,0.35-3.61-0.98-3.61-2.97V96.4c0-1.99,1.62-3.9,3.61-4.25l0.23-0.04
					c1.99-0.35,3.61,0.98,3.61,2.97v11.09C73.23,108.17,71.61,110.08,69.62,110.43z M69.4,94.49c-0.71,0.12-1.28,0.8-1.28,1.51
					v11.09c0,0.71,0.57,1.18,1.28,1.05l0.23-0.04c0.71-0.12,1.28-0.8,1.28-1.51V95.5c0-0.71-0.57-1.18-1.28-1.05L69.4,94.49z"/>
			</g>
		</g>
		<g>
			<g>
				<path class="st2" d="M82.98,108.07l0.33-2.19l2.58-0.45l0.33,2.08l2.36-0.42l-2.79-17.82l-2.36,0.42l-2.79,18.8L82.98,108.07z
					 M84.59,97.2l0.93,5.95l-1.87,0.33L84.59,97.2z"/>
			</g>
		</g>
		<g>
			<g>
				<path class="st2" d="M98.07,101.8V87.1l-2.33,0.41v14.7c0,0.71-0.57,1.38-1.28,1.51l-0.69,0.12c-0.71,0.12-1.28-0.35-1.28-1.05
					v-14.7l-2.33,0.41v14.7c0,1.99,1.62,3.32,3.61,2.97l0.69-0.12C96.45,105.7,98.07,103.79,98.07,101.8z"/>
			</g>
		</g>
		<g>
			<g>
				<path class="st2" d="M108.94,99.88c0-1.98-0.73-3.76-2.06-4.99l-2.29-2.13c-0.79-0.74-1.23-1.8-1.23-2.98
					c0-0.71,0.57-1.38,1.28-1.51l0.69-0.12c0.71-0.12,1.28,0.35,1.28,1.05v1.35l2.33-0.41v-1.35c0-1.99-1.62-3.32-3.61-2.97
					l-0.69,0.12c-1.99,0.35-3.61,2.26-3.61,4.25c0,1.76,0.65,3.34,1.83,4.44l2.29,2.13c0.94,0.88,1.46,2.13,1.46,3.54
					c0,0.71-0.57,1.38-1.28,1.51l-0.69,0.12c-0.71,0.12-1.28-0.35-1.28-1.05v-1.69l-2.33,0.41v1.69c0,1.99,1.62,3.32,3.61,2.97
					l0.69-0.12C107.32,103.78,108.94,101.87,108.94,99.88z"/>
			</g>
		</g>
		<g>
			<path d="M112.56,89.5c-0.02-0.02-0.04-0.03-0.06-0.05c-0.02-0.02-0.04-0.03-0.06-0.05c-0.02-0.02-0.04-0.03-0.06-0.05
				c-0.02-0.02-0.04-0.03-0.06-0.05c-0.02-0.02-0.04-0.03-0.06-0.05c-0.02-0.02-0.04-0.03-0.06-0.05c-0.02-0.02-0.04-0.03-0.06-0.05
				c-0.02-0.02-0.04-0.03-0.06-0.05c-0.02-0.02-0.04-0.03-0.06-0.05c-0.02-0.02-0.04-0.03-0.06-0.05c-0.02-0.02-0.04-0.03-0.06-0.05
				c-0.02-0.02-0.04-0.03-0.06-0.05c-0.02-0.02-0.04-0.03-0.06-0.05c-0.02-0.02-0.04-0.03-0.06-0.05c-0.02-0.02-0.04-0.03-0.06-0.05
				c-0.02-0.02-0.04-0.03-0.06-0.05c-0.02-0.02-0.04-0.03-0.06-0.05c-0.02-0.02-0.04-0.03-0.06-0.05c-0.02-0.02-0.04-0.03-0.06-0.05
				c-0.02-0.02-0.04-0.03-0.06-0.05c-0.02-0.02-0.04-0.03-0.06-0.05c-0.02-0.02-0.04-0.03-0.06-0.05c-0.02-0.02-0.04-0.03-0.06-0.05
				c-0.02-0.02-0.04-0.03-0.06-0.05c-0.02-0.02-0.04-0.03-0.06-0.05c-0.02-0.02-0.04-0.03-0.06-0.05c-0.02-0.02-0.04-0.03-0.06-0.05
				c-0.02-0.02-0.04-0.03-0.06-0.05c-0.02-0.02-0.04-0.03-0.06-0.05c-0.02-0.02-0.04-0.03-0.06-0.05c-0.02-0.02-0.04-0.03-0.06-0.05
				c-0.02-0.02-0.04-0.03-0.06-0.05c-0.02-0.02-0.04-0.03-0.06-0.05c-0.02-0.02-0.04-0.03-0.06-0.05c-0.02-0.02-0.04-0.03-0.06-0.05
				c-0.02-0.02-0.04-0.03-0.06-0.05c-0.02-0.02-0.04-0.03-0.06-0.05c-0.02-0.02-0.04-0.03-0.06-0.05c-0.02-0.02-0.04-0.03-0.06-0.05
				c-0.02-0.02-0.04-0.03-0.06-0.05c-0.02-0.02-0.04-0.03-0.06-0.05c-0.02-0.02-0.04-0.03-0.06-0.05c-0.02-0.02-0.04-0.03-0.06-0.05
				c-0.02-0.02-0.04-0.03-0.06-0.05c-0.02-0.02-0.04-0.03-0.06-0.05c-0.02-0.02-0.04-0.03-0.06-0.05c-0.02-0.02-0.04-0.03-0.06-0.05
				c-0.02-0.02-0.04-0.03-0.06-0.05c-0.02-0.02-0.04-0.03-0.06-0.05c-0.02-0.02-0.04-0.03-0.06-0.05c-0.02-0.02-0.04-0.03-0.06-0.05
				c-0.02-0.02-0.04-0.03-0.06-0.05c-0.02-0.02-0.04-0.03-0.06-0.05c-0.02-0.02-0.04-0.03-0.06-0.05c-0.02-0.02-0.04-0.03-0.06-0.05
				c-0.02-0.02-0.04-0.03-0.06-0.05c-0.02-0.02-0.04-0.03-0.06-0.05c-0.02-0.02-0.04-0.03-0.06-0.05c-0.02-0.02-0.04-0.03-0.06-0.05
				c-0.02-0.02-0.04-0.03-0.06-0.05c-0.02-0.02-0.04-0.03-0.06-0.05c-0.02-0.02-0.04-0.03-0.06-0.05c-0.02-0.02-0.04-0.03-0.06-0.05
				c-0.02-0.02-0.04-0.03-0.06-0.05c-0.02-0.02-0.04-0.03-0.06-0.05c-0.02-0.02-0.04-0.03-0.06-0.05c-0.02-0.02-0.04-0.03-0.06-0.05
				c-0.02-0.02-0.04-0.03-0.06-0.05c-0.02-0.02-0.04-0.03-0.06-0.05c-0.02-0.02-0.04-0.03-0.06-0.05c-0.02-0.02-0.04-0.03-0.06-0.05
				c-0.02-0.02-0.04-0.03-0.06-0.05c-0.02-0.02-0.04-0.03-0.06-0.05c-0.02-0.02-0.04-0.03-0.06-0.05c-0.02-0.02-0.04-0.03-0.06-0.05
				c-0.76-0.64-1.81-0.93-2.97-0.73l-0.69,0.12c-1.71,0.3-3.19,1.6-3.83,3.2c0,0,0,0,0,0c-0.02-0.02-0.04-0.03-0.06-0.05
				c-0.02-0.02-0.04-0.03-0.06-0.05c-0.02-0.02-0.04-0.03-0.06-0.05c-0.02-0.02-0.04-0.03-0.06-0.05c-0.02-0.02-0.04-0.03-0.06-0.05
				c-0.02-0.02-0.04-0.03-0.06-0.05c-0.02-0.02-0.04-0.03-0.06-0.05c-0.02-0.02-0.04-0.03-0.06-0.05c-0.02-0.02-0.04-0.03-0.06-0.05
				c-0.02-0.02-0.04-0.03-0.06-0.05c-0.02-0.02-0.04-0.03-0.06-0.05c-0.02-0.02-0.04-0.03-0.06-0.05c-0.02-0.02-0.04-0.03-0.06-0.05
				c-0.02-0.02-0.04-0.03-0.06-0.05c-0.02-0.02-0.04-0.03-0.06-0.05c-0.02-0.02-0.04-0.03-0.06-0.05c-0.02-0.02-0.04-0.03-0.06-0.05
				c-0.02-0.02-0.04-0.03-0.06-0.05c-0.02-0.02-0.04-0.03-0.06-0.05c-0.02-0.02-0.04-0.03-0.06-0.05c-0.02-0.02-0.04-0.03-0.06-0.05
				c-0.02-0.02-0.04-0.03-0.06-0.05c-0.02-0.02-0.04-0.03-0.06-0.05c-0.02-0.02-0.04-0.03-0.06-0.05c-0.02-0.02-0.04-0.03-0.06-0.05
				c-0.02-0.02-0.04-0.03-0.06-0.05c-0.02-0.02-0.04-0.03-0.06-0.05c-0.02-0.02-0.04-0.03-0.06-0.05c-0.02-0.02-0.04-0.03-0.06-0.05
				c-0.02-0.02-0.04-0.03-0.06-0.05c-0.02-0.02-0.04-0.03-0.06-0.05c-0.02-0.02-0.04-0.03-0.06-0.05c-0.02-0.02-0.04-0.03-0.06-0.05
				c-0.02-0.02-0.04-0.03-0.06-0.05c-0.02-0.02-0.04-0.03-0.06-0.05c-0.02-0.02-0.04-0.03-0.06-0.05c-0.02-0.02-0.04-0.03-0.06-0.05
				c-0.02-0.02-0.04-0.03-0.06-0.05c-0.02-0.02-0.04-0.03-0.06-0.05c-0.02-0.02-0.04-0.03-0.06-0.05c-0.02-0.02-0.04-0.03-0.06-0.05
				c-0.1-0.1-0.25-0.15-0.41-0.12l-2.33,0.41c-0.31,0.05-0.55,0.35-0.55,0.65l0,1.92c-0.01,0-0.01-0.01-0.02-0.01
				c-0.02-0.02-0.04-0.03-0.06-0.05c-0.02-0.02-0.04-0.03-0.06-0.05c-0.02-0.02-0.04-0.03-0.06-0.05c-0.02-0.02-0.04-0.03-0.06-0.05
				c-0.02-0.02-0.04-0.03-0.06-0.05c-0.02-0.02-0.04-0.03-0.06-0.05c-0.02-0.02-0.04-0.03-0.06-0.05c-0.02-0.02-0.04-0.03-0.06-0.05
				c-0.02-0.02-0.04-0.03-0.06-0.05c-0.02-0.02-0.04-0.03-0.06-0.05c-0.02-0.02-0.04-0.03-0.06-0.05c-0.02-0.02-0.04-0.03-0.06-0.05
				c-0.02-0.02-0.04-0.03-0.06-0.05c-0.02-0.02-0.04-0.03-0.06-0.05c-0.02-0.02-0.04-0.03-0.06-0.05c-0.02-0.02-0.04-0.03-0.06-0.05
				c-0.02-0.02-0.04-0.03-0.06-0.05c-0.02-0.02-0.04-0.03-0.06-0.05c-0.02-0.02-0.04-0.03-0.06-0.05c-0.02-0.02-0.04-0.03-0.06-0.05
				c-0.02-0.02-0.04-0.03-0.06-0.05c-0.02-0.02-0.04-0.03-0.06-0.05c-0.02-0.02-0.04-0.03-0.06-0.05c-0.02-0.02-0.04-0.03-0.06-0.05
				c-0.02-0.02-0.04-0.03-0.06-0.05c-0.02-0.02-0.04-0.03-0.06-0.05c-0.02-0.02-0.04-0.03-0.06-0.05c-0.02-0.02-0.04-0.03-0.06-0.05
				c-0.02-0.02-0.04-0.03-0.06-0.05c-0.02-0.02-0.04-0.03-0.06-0.05c-0.02-0.02-0.04-0.03-0.06-0.05c-0.02-0.02-0.04-0.03-0.06-0.05
				c-0.02-0.02-0.04-0.03-0.06-0.05c-0.02-0.02-0.04-0.03-0.06-0.05c-0.02-0.02-0.04-0.03-0.06-0.05c-0.02-0.02-0.04-0.03-0.06-0.05
				c-0.02-0.02-0.04-0.03-0.06-0.05c-0.02-0.02-0.04-0.03-0.06-0.05c-0.02-0.02-0.04-0.03-0.06-0.05c-0.02-0.02-0.04-0.03-0.06-0.05
				c-0.1-0.1-0.25-0.15-0.41-0.12l-2.33,0.41c-0.31,0.05-0.55,0.35-0.55,0.65l0,3.05c-0.01-0.01-0.02-0.01-0.03-0.02
				c-0.02-0.02-0.04-0.03-0.06-0.05c-0.02-0.02-0.04-0.03-0.06-0.05c-0.02-0.02-0.04-0.03-0.06-0.05c-0.02-0.02-0.04-0.03-0.06-0.05
				c-0.02-0.02-0.04-0.03-0.06-0.05c-0.02-0.02-0.04-0.03-0.06-0.05c-0.02-0.02-0.04-0.03-0.06-0.05c-0.02-0.02-0.04-0.03-0.06-0.05
				c-0.02-0.02-0.04-0.03-0.06-0.05c-0.02-0.02-0.04-0.03-0.06-0.05c-0.02-0.02-0.04-0.03-0.06-0.05c-0.02-0.02-0.04-0.03-0.06-0.05
				c-0.02-0.02-0.04-0.03-0.06-0.05c-0.02-0.02-0.04-0.03-0.06-0.05c-0.02-0.02-0.04-0.03-0.06-0.05c-0.02-0.02-0.04-0.03-0.06-0.05
				c-0.02-0.02-0.04-0.03-0.06-0.05c-0.02-0.02-0.04-0.03-0.06-0.05c-0.02-0.02-0.04-0.03-0.06-0.05c-0.02-0.02-0.04-0.03-0.06-0.05
				c-0.02-0.02-0.04-0.03-0.06-0.05c-0.02-0.02-0.04-0.03-0.06-0.05c-0.02-0.02-0.04-0.03-0.06-0.05c-0.02-0.02-0.04-0.03-0.06-0.05
				c-0.02-0.02-0.04-0.03-0.06-0.05c-0.02-0.02-0.04-0.03-0.06-0.05c-0.02-0.02-0.04-0.03-0.06-0.05c-0.02-0.02-0.04-0.03-0.06-0.05
				c-0.02-0.02-0.04-0.03-0.06-0.05c-0.02-0.02-0.04-0.03-0.06-0.05c-0.02-0.02-0.04-0.03-0.06-0.05c-0.02-0.02-0.04-0.03-0.06-0.05
				c-0.02-0.02-0.04-0.03-0.06-0.05c-0.02-0.02-0.04-0.03-0.06-0.05c-0.02-0.02-0.04-0.03-0.06-0.05c-0.02-0.02-0.04-0.03-0.06-0.05
				c-0.02-0.02-0.04-0.03-0.06-0.05c-0.02-0.02-0.04-0.03-0.06-0.05c-0.02-0.02-0.04-0.03-0.06-0.05c-0.02-0.02-0.04-0.03-0.06-0.05
				c-0.02-0.02-0.04-0.03-0.06-0.05c-0.02-0.02-0.04-0.03-0.06-0.05c-0.02-0.02-0.04-0.03-0.06-0.05c-0.02-0.02-0.04-0.03-0.06-0.05
				c-0.02-0.02-0.04-0.03-0.06-0.05c-0.02-0.02-0.04-0.03-0.06-0.05c-0.02-0.02-0.04-0.03-0.06-0.05c-0.02-0.02-0.04-0.03-0.06-0.05
				c-0.02-0.02-0.04-0.03-0.06-0.05c-0.02-0.02-0.04-0.03-0.06-0.05c-0.02-0.02-0.04-0.03-0.06-0.05c-0.02-0.02-0.04-0.03-0.06-0.05
				c-0.02-0.02-0.04-0.03-0.06-0.05c-0.02-0.02-0.04-0.03-0.06-0.05c-0.02-0.02-0.04-0.03-0.06-0.05c-0.02-0.02-0.04-0.03-0.06-0.05
				c-0.02-0.02-0.04-0.03-0.06-0.05c-0.02-0.02-0.04-0.03-0.06-0.05c-0.02-0.02-0.04-0.03-0.06-0.05c-0.02-0.02-0.04-0.03-0.06-0.05
				c-0.1-0.09-0.24-0.14-0.4-0.11l-2.36,0.42c-0.27,0.05-0.51,0.29-0.55,0.57l-2.79,18.8c-0.02,0.16,0.02,0.32,0.13,0.42
				c0.01,0.01,0.03,0.01,0.04,0.03c0.01,0.01,0.01,0.02,0.01,0.02c0.01,0.01,0.03,0.01,0.04,0.03c0.01,0.01,0.01,0.02,0.01,0.02
				c0.01,0.01,0.03,0.01,0.04,0.03c0.01,0.01,0.01,0.02,0.01,0.02c0.01,0.01,0.03,0.01,0.04,0.03c0.01,0.01,0.01,0.02,0.01,0.02
				c0.01,0.01,0.03,0.02,0.04,0.03c0.01,0.01,0.01,0.02,0.01,0.02c0.01,0.01,0.03,0.01,0.04,0.03c0.01,0.01,0.01,0.02,0.01,0.02
				c0.01,0.01,0.03,0.01,0.04,0.03c0.01,0.01,0.01,0.02,0.01,0.02c0.01,0.01,0.03,0.01,0.04,0.03c0.01,0.01,0.01,0.02,0.01,0.02
				c0.01,0.01,0.03,0.02,0.04,0.03c0.01,0.01,0.01,0.02,0.01,0.02c0.01,0.01,0.03,0.01,0.04,0.03c0.01,0.01,0.01,0.02,0.01,0.02
				c0.01,0.01,0.03,0.01,0.04,0.03c0.01,0.01,0.01,0.02,0.01,0.02c0.01,0.01,0.03,0.01,0.04,0.03c0.01,0.01,0.01,0.02,0.01,0.02
				c0.01,0.01,0.03,0.01,0.04,0.03c0.01,0.01,0.01,0.02,0.01,0.02c0.01,0.01,0.03,0.01,0.04,0.03c0.01,0.01,0.01,0.02,0.01,0.02
				c0.01,0.01,0.03,0.01,0.04,0.03c0.01,0.01,0.01,0.02,0.01,0.02c0.01,0.01,0.03,0.02,0.04,0.03c0.01,0.01,0.01,0.02,0.01,0.02
				c0.01,0.01,0.03,0.01,0.04,0.03c0.01,0.01,0.01,0.02,0.01,0.02c0.01,0.01,0.03,0.01,0.04,0.03c0.01,0.01,0.01,0.02,0.01,0.02
				c0.01,0.01,0.03,0.01,0.04,0.03c0.01,0.01,0.01,0.02,0.01,0.02c0.01,0.01,0.03,0.01,0.04,0.03c0.01,0.01,0.01,0.02,0.01,0.02
				c0.01,0.01,0.03,0.02,0.04,0.03c0.01,0.01,0.01,0.02,0.01,0.02c0.01,0.01,0.03,0.01,0.04,0.03c0.01,0.01,0.01,0.02,0.01,0.02
				c0.01,0.01,0.03,0.01,0.04,0.03c0.01,0.01,0.01,0.02,0.01,0.02c0.01,0.01,0.03,0.01,0.04,0.03c0.01,0.01,0.01,0.02,0.01,0.02
				c0.01,0.01,0.03,0.01,0.04,0.03c0.01,0.01,0.01,0.02,0.01,0.02c0.01,0.01,0.03,0.01,0.04,0.03c0.01,0.01,0.01,0.02,0.01,0.02
				c0.01,0.01,0.03,0.01,0.04,0.03c0.01,0.01,0.01,0.02,0.01,0.02c0.01,0.01,0.03,0.01,0.04,0.03c0.01,0.01,0.01,0.02,0.01,0.02
				c0.01,0.01,0.03,0.01,0.04,0.03c0.01,0.01,0.01,0.02,0.01,0.02c0.01,0.01,0.03,0.01,0.04,0.03c0.01,0.01,0.01,0.02,0.01,0.02
				c0.01,0.01,0.03,0.01,0.04,0.03c0.01,0.01,0.01,0.02,0.01,0.02c0.01,0.01,0.03,0.02,0.04,0.03c0.01,0.01,0.01,0.02,0.01,0.02
				c0.01,0.01,0.03,0.01,0.04,0.03c0.01,0.01,0.01,0.02,0.01,0.02c0.01,0.01,0.03,0.01,0.04,0.03c0.01,0.01,0.01,0.02,0.01,0.02
				c0.01,0.01,0.03,0.01,0.04,0.03c0.01,0.01,0.01,0.02,0.01,0.02c0.01,0.01,0.03,0.01,0.04,0.03c0.01,0.01,0.01,0.02,0.01,0.02
				c0.01,0.01,0.03,0.01,0.04,0.03c0.01,0.01,0.01,0.02,0.01,0.02c0.01,0.01,0.03,0.01,0.04,0.03c0.01,0.01,0.01,0.02,0.01,0.02
				c0.01,0.01,0.03,0.01,0.04,0.03c0.01,0.01,0.01,0.02,0.01,0.02c0.01,0.01,0.03,0.01,0.04,0.03c0.01,0.01,0.01,0.02,0.01,0.02
				c0.01,0.01,0.03,0.01,0.04,0.03c0.01,0.01,0.01,0.02,0.01,0.02c0.01,0.01,0.03,0.01,0.04,0.03c0.01,0.01,0.01,0.02,0.01,0.02
				c0.01,0.01,0.03,0.01,0.04,0.03c0.01,0.01,0.01,0.02,0.01,0.02c0.01,0.01,0.03,0.01,0.04,0.03c0.01,0.01,0.01,0.02,0.01,0.02
				c0.01,0.01,0.03,0.01,0.04,0.03c0.01,0.01,0.01,0.02,0.01,0.02c0.01,0.01,0.03,0.01,0.04,0.03c0.01,0.01,0.01,0.02,0.01,0.02
				c0.01,0.01,0.03,0.01,0.04,0.03c0.01,0.01,0.01,0.02,0.01,0.02c0.01,0.01,0.03,0.01,0.04,0.03c0.01,0.01,0.01,0.02,0.01,0.02
				c0.01,0.01,0.03,0.01,0.04,0.03c0.01,0.01,0.01,0.02,0.01,0.02c0.01,0.01,0.03,0.01,0.04,0.03c0.01,0.01,0.01,0.02,0.01,0.02
				c0.01,0.01,0.03,0.01,0.04,0.03c0.01,0.01,0.01,0.02,0.01,0.02c0.01,0.01,0.03,0.01,0.04,0.03c0.01,0.01,0.01,0.02,0.01,0.02
				c0.01,0.01,0.03,0.01,0.04,0.03c0.01,0.01,0.01,0.02,0.01,0.02c0.01,0.01,0.03,0.01,0.04,0.03c0.01,0.01,0.01,0.02,0.01,0.02
				c0.01,0.01,0.03,0.01,0.04,0.03c0.01,0.01,0.01,0.02,0.01,0.02c0.01,0.01,0.03,0.01,0.04,0.03c0.01,0.01,0.01,0.02,0.01,0.02
				c0.01,0.01,0.03,0.01,0.04,0.03c0.01,0.01,0.01,0.02,0.01,0.02c0.01,0.01,0.03,0.01,0.04,0.03c0.01,0.01,0.01,0.02,0.01,0.02
				c0.01,0.01,0.03,0.01,0.04,0.03c0.01,0.01,0.01,0.02,0.01,0.02c0.01,0.01,0.03,0.01,0.04,0.03c0.01,0.01,0.01,0.02,0.01,0.02
				c0.01,0.01,0.03,0.01,0.04,0.03c0.01,0.01,0.01,0.02,0.01,0.02c0.01,0.01,0.03,0.01,0.04,0.03c0.01,0.01,0.01,0.02,0.01,0.02
				c0.01,0.01,0.03,0.01,0.04,0.03c0.01,0.01,0.01,0.02,0.01,0.02c0.01,0.01,0.03,0.01,0.04,0.03c0.01,0.01,0.01,0.02,0.01,0.02
				c0.01,0.01,0.03,0.01,0.04,0.03c0.01,0.01,0.01,0.02,0.01,0.02c0.01,0.01,0.03,0.01,0.04,0.03c0.01,0.01,0.01,0.02,0.01,0.02
				c0.01,0.01,0.03,0.01,0.04,0.03c0.01,0.01,0.01,0.02,0.01,0.02c0.01,0.01,0.03,0.01,0.04,0.03c0.01,0.01,0.01,0.02,0.01,0.02
				c0.01,0.01,0.03,0.01,0.04,0.03c0.01,0.01,0.01,0.02,0.01,0.02c0.01,0.01,0.03,0.01,0.04,0.03c0.01,0.01,0.01,0.02,0.01,0.02
				c0.01,0.01,0.03,0.01,0.04,0.03c0.01,0.01,0.01,0.02,0.01,0.02c0.01,0.01,0.03,0.01,0.04,0.03c0.01,0.01,0.01,0.02,0.01,0.02
				c0.01,0.01,0.03,0.01,0.04,0.03c0.01,0.01,0.01,0.02,0.01,0.02c0.01,0.01,0.03,0.01,0.04,0.03c0.01,0.01,0.01,0.02,0.01,0.02
				c0.01,0.01,0.03,0.01,0.04,0.03c0.01,0.01,0.01,0.02,0.01,0.02c0.01,0.01,0.03,0.01,0.04,0.03c0.01,0.01,0.01,0.02,0.01,0.02
				c0.11,0.1,0.26,0.15,0.42,0.12l2.36-0.42c0.27-0.05,0.51-0.29,0.55-0.57l0.25-1.71l0.07-0.01c0.01,0.01,0.02,0.02,0.03,0.02
				c0.02,0.02,0.04,0.03,0.06,0.05c0.02,0.02,0.04,0.03,0.06,0.05c0.02,0.02,0.04,0.03,0.06,0.05c0.02,0.02,0.04,0.03,0.06,0.05
				c0.02,0.02,0.04,0.03,0.06,0.05c0.02,0.02,0.04,0.03,0.06,0.05c0.02,0.02,0.04,0.03,0.06,0.05c0.02,0.02,0.04,0.03,0.06,0.05
				c0.02,0.02,0.04,0.03,0.06,0.05c0.02,0.02,0.04,0.03,0.06,0.05c0.02,0.02,0.04,0.03,0.06,0.05c0.02,0.02,0.04,0.03,0.06,0.05
				c0.02,0.02,0.04,0.03,0.06,0.05c0.02,0.02,0.04,0.03,0.06,0.05c0.02,0.02,0.04,0.03,0.06,0.05c0.02,0.02,0.04,0.03,0.06,0.05
				c0.02,0.02,0.04,0.03,0.06,0.05c0.02,0.02,0.04,0.03,0.06,0.05c0.02,0.02,0.04,0.03,0.06,0.05c0.02,0.02,0.04,0.03,0.06,0.05
				c0.02,0.02,0.04,0.03,0.06,0.05c0.02,0.02,0.04,0.03,0.06,0.05c0.02,0.02,0.04,0.03,0.06,0.05c0.02,0.02,0.04,0.03,0.06,0.05
				c0.02,0.02,0.04,0.03,0.06,0.05c0.02,0.02,0.04,0.03,0.06,0.05c0.02,0.02,0.04,0.03,0.06,0.05c0.02,0.02,0.04,0.03,0.06,0.05
				c0.02,0.02,0.04,0.03,0.06,0.05c0.02,0.02,0.04,0.03,0.06,0.05c0.02,0.02,0.04,0.03,0.06,0.05c0.02,0.02,0.04,0.03,0.06,0.05
				c0.02,0.02,0.04,0.03,0.06,0.05c0.02,0.02,0.04,0.03,0.06,0.05c0.1,0.09,0.24,0.14,0.4,0.11l2.36-0.42
				c0.16-0.03,0.31-0.13,0.42-0.27c0.11-0.14,0.15-0.31,0.13-0.47l-0.41-2.64c0,0,0,0,0,0c0.02,0.02,0.04,0.03,0.06,0.05
				c0.02,0.02,0.04,0.03,0.06,0.05c0.02,0.02,0.04,0.03,0.06,0.05c0.02,0.02,0.04,0.03,0.06,0.05c0.02,0.02,0.04,0.03,0.06,0.05
				c0.02,0.02,0.04,0.03,0.06,0.05c0.02,0.02,0.04,0.03,0.06,0.05c0.02,0.02,0.04,0.03,0.06,0.05c0.02,0.02,0.04,0.03,0.06,0.05
				c0.02,0.02,0.04,0.03,0.06,0.05c0.02,0.02,0.04,0.03,0.06,0.05c0.02,0.02,0.04,0.03,0.06,0.05c0.02,0.02,0.04,0.03,0.06,0.05
				c0.02,0.02,0.04,0.03,0.06,0.05c0.02,0.02,0.04,0.03,0.06,0.05c0.02,0.02,0.04,0.03,0.06,0.05c0.02,0.02,0.04,0.03,0.06,0.05
				c0.02,0.02,0.04,0.03,0.06,0.05c0.02,0.02,0.04,0.03,0.06,0.05c0.02,0.02,0.04,0.03,0.06,0.05c0.02,0.02,0.04,0.03,0.06,0.05
				c0.02,0.02,0.04,0.03,0.06,0.05c0.02,0.02,0.04,0.03,0.06,0.05c0.02,0.02,0.04,0.03,0.06,0.05c0.02,0.02,0.04,0.03,0.06,0.05
				c0.02,0.02,0.04,0.03,0.06,0.05c0.02,0.02,0.04,0.03,0.06,0.05c0.02,0.02,0.04,0.03,0.06,0.05c0.02,0.02,0.04,0.03,0.06,0.05
				c0.02,0.02,0.04,0.03,0.06,0.05c0.02,0.02,0.04,0.03,0.06,0.05c0.02,0.02,0.04,0.03,0.06,0.05c0.02,0.02,0.04,0.03,0.06,0.05
				c0.02,0.02,0.04,0.03,0.06,0.05c0.02,0.02,0.04,0.03,0.06,0.05c0.02,0.02,0.04,0.03,0.06,0.05c0.02,0.02,0.04,0.03,0.06,0.05
				c0.76,0.64,1.81,0.93,2.97,0.73l0.69-0.12c2.3-0.4,4.16-2.6,4.16-4.9v-0.13c0.01,0.01,0.03,0.02,0.04,0.03
				c0.02,0.02,0.04,0.03,0.06,0.05c0.02,0.02,0.04,0.03,0.06,0.05c0.02,0.02,0.04,0.03,0.06,0.05c0.02,0.02,0.04,0.03,0.06,0.05
				c0.02,0.02,0.04,0.03,0.06,0.05c0.02,0.02,0.04,0.03,0.06,0.05c0.02,0.02,0.04,0.03,0.06,0.05c0.02,0.02,0.04,0.03,0.06,0.05
				c0.02,0.02,0.04,0.03,0.06,0.05c0.02,0.02,0.04,0.03,0.06,0.05c0.02,0.02,0.04,0.03,0.06,0.05c0.02,0.02,0.04,0.03,0.06,0.05
				c0.02,0.02,0.04,0.03,0.06,0.05c0.02,0.02,0.04,0.03,0.06,0.05c0.02,0.02,0.04,0.03,0.06,0.05c0.02,0.02,0.04,0.03,0.06,0.05
				c0.02,0.02,0.04,0.03,0.06,0.05c0.02,0.02,0.04,0.03,0.06,0.05c0.02,0.02,0.04,0.03,0.06,0.05c0.02,0.02,0.04,0.03,0.06,0.05
				c0.02,0.02,0.04,0.03,0.06,0.05c0.02,0.02,0.04,0.03,0.06,0.05c0.02,0.02,0.04,0.03,0.06,0.05c0.02,0.02,0.04,0.03,0.06,0.05
				c0.02,0.02,0.04,0.03,0.06,0.05c0.02,0.02,0.04,0.03,0.06,0.05c0.02,0.02,0.04,0.03,0.06,0.05c0.02,0.02,0.04,0.03,0.06,0.05
				c0.02,0.02,0.04,0.03,0.06,0.05c0.02,0.02,0.04,0.03,0.06,0.05c0.02,0.02,0.04,0.03,0.06,0.05c0.02,0.02,0.04,0.03,0.06,0.05
				c0.02,0.02,0.04,0.03,0.06,0.05c0.02,0.02,0.04,0.03,0.06,0.05c0.02,0.02,0.04,0.03,0.06,0.05c0.02,0.02,0.04,0.03,0.06,0.05
				c0.02,0.02,0.04,0.03,0.06,0.05c0.02,0.02,0.04,0.03,0.06,0.05c0.02,0.02,0.04,0.03,0.06,0.05c0.02,0.02,0.04,0.03,0.06,0.05
				c0.02,0.02,0.04,0.03,0.06,0.05c0.02,0.02,0.04,0.03,0.06,0.05c0.02,0.02,0.04,0.03,0.06,0.05c0.02,0.02,0.04,0.03,0.06,0.05
				c0.02,0.02,0.04,0.03,0.06,0.05c0.02,0.02,0.04,0.03,0.06,0.05c0.02,0.02,0.04,0.03,0.06,0.05c0.02,0.02,0.04,0.03,0.06,0.05
				c0.02,0.02,0.04,0.03,0.06,0.05c0.02,0.02,0.04,0.03,0.06,0.05c0.02,0.02,0.04,0.03,0.06,0.05c0.02,0.02,0.04,0.03,0.06,0.05
				c0.02,0.02,0.04,0.03,0.06,0.05c0.76,0.64,1.81,0.93,2.97,0.73l0.69-0.12c2.3-0.4,4.16-2.6,4.16-4.9c0-2.12-0.78-4.02-2.2-5.34
				l-2.29-2.13c-0.7-0.65-1.09-1.59-1.09-2.63c0-0.16,0.06-0.31,0.15-0.44c0.01,0.01,0.03,0.01,0.04,0.02
				c0.02,0.02,0.04,0.03,0.06,0.05c0.02,0.02,0.04,0.03,0.06,0.05c0.02,0.02,0.04,0.03,0.06,0.05c0.02,0.02,0.04,0.03,0.06,0.05
				c0.02,0.02,0.04,0.03,0.06,0.05c0.02,0.02,0.04,0.03,0.06,0.05c0.02,0.02,0.04,0.03,0.06,0.05c0.02,0.02,0.04,0.03,0.06,0.05
				c0.02,0.02,0.04,0.03,0.06,0.05c0.02,0.02,0.04,0.03,0.06,0.05c0.02,0.02,0.04,0.03,0.06,0.05c0.02,0.02,0.04,0.03,0.06,0.05
				c0.02,0.02,0.04,0.03,0.06,0.05c0.02,0.02,0.04,0.03,0.06,0.05c0.02,0.02,0.04,0.03,0.06,0.05c0.02,0.02,0.04,0.03,0.06,0.05
				c0.02,0.02,0.04,0.03,0.06,0.05c0.02,0.02,0.04,0.03,0.06,0.05c0.02,0.02,0.04,0.03,0.06,0.05c0.02,0.02,0.04,0.03,0.06,0.05
				c0.02,0.02,0.04,0.03,0.06,0.05c0.02,0.02,0.04,0.03,0.06,0.05c0.02,0.02,0.04,0.03,0.06,0.05c0.02,0.02,0.04,0.03,0.06,0.05
				c0.02,0.02,0.04,0.03,0.06,0.05c0.02,0.02,0.04,0.03,0.06,0.05c0.02,0.02,0.04,0.03,0.06,0.05c0.02,0.02,0.04,0.03,0.06,0.05
				c0.02,0.02,0.04,0.03,0.06,0.05c0.02,0.02,0.04,0.03,0.06,0.05c0.02,0.02,0.04,0.03,0.06,0.05c0.02,0.02,0.04,0.03,0.06,0.05
				c0.02,0.02,0.04,0.03,0.06,0.05c0.02,0.02,0.04,0.03,0.06,0.05c0.02,0.02,0.04,0.03,0.06,0.05c0.02,0.02,0.04,0.03,0.06,0.05
				c0.02,0.02,0.04,0.03,0.06,0.05c0.1,0.1,0.25,0.15,0.41,0.12l2.33-0.41c0.31-0.05,0.55-0.35,0.55-0.65l0-1.35
				C113.81,91.08,113.33,90.12,112.56,89.5z M88.56,107.09l-2.36,0.42l-0.33-2.08l-2.58,0.45l-0.33,2.19l-2.36,0.42l2.79-18.8
				l2.36-0.42L88.56,107.09z M98.07,101.8c0,1.99-1.62,3.9-3.61,4.25l-0.69,0.12c-1.99,0.35-3.61-0.98-3.61-2.97l0-14.7l2.33-0.41
				l0,14.7c0,0.71,0.57,1.18,1.28,1.05l0.69-0.12c0.71-0.12,1.28-0.8,1.28-1.51l0-14.7l2.33-0.41V101.8z M108.94,88.79v1.35
				l-2.33,0.41V89.2c0-0.71-0.57-1.18-1.28-1.05l-0.69,0.12c-0.71,0.12-1.28,0.8-1.28,1.51c0,1.18,0.44,2.24,1.23,2.98l2.29,2.13
				c1.33,1.24,2.06,3.01,2.06,4.99c0,1.99-1.62,3.9-3.61,4.25l-0.69,0.12c-1.99,0.35-3.61-0.98-3.61-2.97l0-1.69l2.33-0.41l0,1.69
				c0,0.71,0.57,1.18,1.28,1.05l0.69-0.12c0.71-0.12,1.28-0.8,1.28-1.51c0-1.4-0.52-2.66-1.46-3.54l-2.29-2.13
				c-1.18-1.1-1.83-2.67-1.83-4.44c0-1.99,1.62-3.9,3.61-4.25l0.69-0.12C107.32,85.47,108.94,86.8,108.94,88.79z M102.93,98.7
				l0-3.18l1.81,1.68c0.85,0.79,1.32,1.92,1.32,3.19c0,0.07-0.02,0.13-0.04,0.19c-0.01-0.01-0.03-0.01-0.04-0.02
				c-0.02-0.02-0.04-0.03-0.06-0.05c-0.02-0.02-0.04-0.03-0.06-0.05c-0.02-0.02-0.04-0.03-0.06-0.05c-0.02-0.02-0.04-0.03-0.06-0.05
				c-0.02-0.02-0.04-0.03-0.06-0.05c-0.02-0.02-0.04-0.03-0.06-0.05c-0.02-0.02-0.04-0.03-0.06-0.05c-0.02-0.02-0.04-0.03-0.06-0.05
				c-0.02-0.02-0.04-0.03-0.06-0.05c-0.02-0.02-0.04-0.03-0.06-0.05c-0.02-0.02-0.04-0.03-0.06-0.05c-0.02-0.02-0.04-0.03-0.06-0.05
				c-0.02-0.02-0.04-0.03-0.06-0.05c-0.02-0.02-0.04-0.03-0.06-0.05c-0.02-0.02-0.04-0.03-0.06-0.05c-0.02-0.02-0.04-0.03-0.06-0.05
				c-0.02-0.02-0.04-0.03-0.06-0.05c-0.02-0.02-0.04-0.03-0.06-0.05c-0.02-0.02-0.04-0.03-0.06-0.05c-0.02-0.02-0.04-0.03-0.06-0.05
				c-0.02-0.02-0.04-0.03-0.06-0.05c-0.02-0.02-0.04-0.03-0.06-0.05c-0.02-0.02-0.04-0.03-0.06-0.05c-0.02-0.02-0.04-0.03-0.06-0.05
				c-0.02-0.02-0.04-0.03-0.06-0.05c-0.02-0.02-0.04-0.03-0.06-0.05c-0.02-0.02-0.04-0.03-0.06-0.05c-0.02-0.02-0.04-0.03-0.06-0.05
				c-0.02-0.02-0.04-0.03-0.06-0.05c-0.02-0.02-0.04-0.03-0.06-0.05c-0.02-0.02-0.04-0.03-0.06-0.05c-0.02-0.02-0.04-0.03-0.06-0.05
				c-0.02-0.02-0.04-0.03-0.06-0.05c-0.02-0.02-0.04-0.03-0.06-0.05c-0.02-0.02-0.04-0.03-0.06-0.05c-0.02-0.02-0.04-0.03-0.06-0.05
				c-0.02-0.02-0.04-0.03-0.06-0.05c-0.02-0.02-0.04-0.03-0.06-0.05c-0.02-0.02-0.04-0.03-0.06-0.05c-0.1-0.1-0.25-0.15-0.41-0.12
				L102.93,98.7z"/>
			<polygon points="85.53,103.16 84.59,97.21 83.66,103.49 			"/>
		</g>
		<g>
			<path d="M69.62,94.45l-0.23,0.04c-0.71,0.12-1.28,0.8-1.28,1.51l0,11.09c0,0.71,0.57,1.18,1.28,1.05l0.23-0.04
				c0.71-0.12,1.28-0.8,1.28-1.51V95.5C70.9,94.8,70.33,94.32,69.62,94.45z"/>
			<polygon points="44.26,110.44 43.32,104.48 42.39,110.77 			"/>
			<path d="M76.85,95.79c-0.02-0.02-0.04-0.03-0.06-0.05c-0.02-0.02-0.04-0.03-0.06-0.05c-0.02-0.02-0.04-0.03-0.06-0.05
				c-0.02-0.02-0.04-0.03-0.06-0.05c-0.02-0.02-0.04-0.03-0.06-0.05c-0.02-0.02-0.04-0.03-0.06-0.05c-0.02-0.02-0.04-0.03-0.06-0.05
				c-0.02-0.02-0.04-0.03-0.06-0.05c-0.02-0.02-0.04-0.03-0.06-0.05c-0.02-0.02-0.04-0.03-0.06-0.05c-0.02-0.02-0.04-0.03-0.06-0.05
				c-0.02-0.02-0.04-0.03-0.06-0.05c-0.02-0.02-0.04-0.03-0.06-0.05c-0.02-0.02-0.04-0.03-0.06-0.05c-0.02-0.02-0.04-0.03-0.06-0.05
				c-0.02-0.02-0.04-0.03-0.06-0.05c-0.02-0.02-0.04-0.03-0.06-0.05c-0.02-0.02-0.04-0.03-0.06-0.05c-0.02-0.02-0.04-0.03-0.06-0.05
				c-0.02-0.02-0.04-0.03-0.06-0.05c-0.02-0.02-0.04-0.03-0.06-0.05c-0.02-0.02-0.04-0.03-0.06-0.05c-0.02-0.02-0.04-0.03-0.06-0.05
				c-0.02-0.02-0.04-0.03-0.06-0.05c-0.02-0.02-0.04-0.03-0.06-0.05c-0.02-0.02-0.04-0.03-0.06-0.05c-0.02-0.02-0.04-0.03-0.06-0.05
				c-0.02-0.02-0.04-0.03-0.06-0.05c-0.02-0.02-0.04-0.03-0.06-0.05c-0.02-0.02-0.04-0.03-0.06-0.05c-0.02-0.02-0.04-0.03-0.06-0.05
				c-0.02-0.02-0.04-0.03-0.06-0.05c-0.02-0.02-0.04-0.03-0.06-0.05c-0.02-0.02-0.04-0.03-0.06-0.05c-0.02-0.02-0.04-0.03-0.06-0.05
				c-0.02-0.02-0.04-0.03-0.06-0.05c-0.02-0.02-0.04-0.03-0.06-0.05c-0.02-0.02-0.04-0.03-0.06-0.05c-0.02-0.02-0.04-0.03-0.06-0.05
				c-0.02-0.02-0.04-0.03-0.06-0.05c-0.02-0.02-0.04-0.03-0.06-0.05c-0.02-0.02-0.04-0.03-0.06-0.05c-0.02-0.02-0.04-0.03-0.06-0.05
				c-0.02-0.02-0.04-0.03-0.06-0.05c-0.02-0.02-0.04-0.03-0.06-0.05c-0.02-0.02-0.04-0.03-0.06-0.05c-0.02-0.02-0.04-0.03-0.06-0.05
				c-0.02-0.02-0.04-0.03-0.06-0.05c-0.02-0.02-0.04-0.03-0.06-0.05c-0.02-0.02-0.04-0.03-0.06-0.05c-0.02-0.02-0.04-0.03-0.06-0.05
				c-0.02-0.02-0.04-0.03-0.06-0.05c-0.02-0.02-0.04-0.03-0.06-0.05c-0.02-0.02-0.04-0.03-0.06-0.05c-0.02-0.02-0.04-0.03-0.06-0.05
				c-0.02-0.02-0.04-0.03-0.06-0.05c-0.02-0.02-0.04-0.03-0.06-0.05c-0.02-0.02-0.04-0.03-0.06-0.05c-0.02-0.02-0.04-0.03-0.06-0.05
				c-0.02-0.02-0.04-0.03-0.06-0.05c-0.02-0.02-0.04-0.03-0.06-0.05c-0.02-0.02-0.04-0.03-0.06-0.05c-0.02-0.02-0.04-0.03-0.06-0.05
				c-0.02-0.02-0.04-0.03-0.06-0.05c-0.02-0.02-0.04-0.03-0.06-0.05c-0.02-0.02-0.04-0.03-0.06-0.05c-0.02-0.02-0.04-0.03-0.06-0.05
				c-0.02-0.02-0.04-0.03-0.06-0.05c-0.02-0.02-0.04-0.03-0.06-0.05c-0.02-0.02-0.04-0.03-0.06-0.05c-0.02-0.02-0.04-0.03-0.06-0.05
				c-0.02-0.02-0.04-0.03-0.06-0.05c-0.02-0.02-0.04-0.03-0.06-0.05c-0.02-0.02-0.04-0.03-0.06-0.05c-0.02-0.02-0.04-0.03-0.06-0.05
				c-0.76-0.64-1.81-0.93-2.97-0.73L69.4,91.6c-2.3,0.4-4.16,2.6-4.16,4.9l0,11.09c0,0.67,0.16,1.28,0.45,1.79c0,0-0.01,0-0.01-0.01
				c0-0.01-0.01-0.01-0.01-0.02c-0.01-0.01-0.03-0.02-0.05-0.03c0-0.01-0.01-0.01-0.01-0.02c-0.01-0.01-0.03-0.02-0.05-0.03
				c0-0.01-0.01-0.01-0.01-0.02c-0.01-0.01-0.03-0.02-0.05-0.03c0-0.01-0.01-0.01-0.01-0.02c-0.01-0.01-0.03-0.02-0.05-0.03
				c0-0.01-0.01-0.01-0.01-0.02c-0.01-0.01-0.03-0.02-0.05-0.03c0-0.01-0.01-0.01-0.01-0.02c-0.01-0.01-0.03-0.02-0.05-0.03
				c0-0.01-0.01-0.01-0.01-0.02c-0.01-0.01-0.03-0.02-0.05-0.03c0-0.01-0.01-0.01-0.01-0.02c-0.01-0.01-0.03-0.02-0.05-0.03
				c0-0.01-0.01-0.01-0.01-0.02c-0.01-0.01-0.03-0.02-0.05-0.03c0-0.01-0.01-0.01-0.01-0.02c-0.01-0.01-0.03-0.02-0.05-0.03
				c0-0.01-0.01-0.01-0.01-0.02c-0.01-0.01-0.03-0.02-0.05-0.03c0-0.01-0.01-0.01-0.01-0.02c-0.01-0.01-0.03-0.02-0.05-0.03
				c0-0.01-0.01-0.01-0.01-0.02c-0.01-0.01-0.03-0.02-0.05-0.03c0-0.01-0.01-0.01-0.01-0.02c-0.01-0.01-0.03-0.02-0.05-0.03
				c0-0.01-0.01-0.01-0.01-0.02c-0.01-0.01-0.03-0.02-0.05-0.03c0-0.01-0.01-0.01-0.01-0.02c-0.01-0.01-0.03-0.01-0.04-0.02l0-11.35
				c0-0.17-0.08-0.3-0.2-0.38c-0.02-0.02-0.04-0.03-0.06-0.05c-0.02-0.02-0.04-0.03-0.06-0.05c-0.02-0.02-0.04-0.03-0.06-0.05
				c-0.02-0.02-0.04-0.03-0.06-0.05c-0.02-0.02-0.04-0.03-0.06-0.05c-0.02-0.02-0.04-0.03-0.06-0.05c-0.02-0.02-0.04-0.03-0.06-0.05
				c-0.02-0.02-0.04-0.03-0.06-0.05c-0.02-0.02-0.04-0.03-0.06-0.05c-0.02-0.02-0.04-0.03-0.06-0.05c-0.02-0.02-0.04-0.03-0.06-0.05
				c-0.02-0.02-0.04-0.03-0.06-0.05c-0.02-0.02-0.04-0.03-0.06-0.05c-0.02-0.02-0.04-0.03-0.06-0.05c-0.02-0.02-0.04-0.03-0.06-0.05
				c-0.02-0.02-0.04-0.03-0.06-0.05c-0.02-0.02-0.04-0.03-0.06-0.05c-0.02-0.02-0.04-0.03-0.06-0.05c-0.02-0.02-0.04-0.03-0.06-0.05
				c-0.02-0.02-0.04-0.03-0.06-0.05c-0.02-0.02-0.04-0.03-0.06-0.05c-0.02-0.02-0.04-0.03-0.06-0.05c-0.02-0.02-0.04-0.03-0.06-0.05
				c-0.02-0.02-0.04-0.03-0.06-0.05c-0.02-0.02-0.04-0.03-0.06-0.05c-0.02-0.02-0.04-0.03-0.06-0.05c-0.02-0.02-0.04-0.03-0.06-0.05
				c-0.02-0.02-0.04-0.03-0.06-0.05c-0.02-0.02-0.04-0.03-0.06-0.05c-0.02-0.02-0.04-0.03-0.06-0.05c-0.02-0.02-0.04-0.03-0.06-0.05
				c-0.02-0.02-0.04-0.03-0.06-0.05c-0.02-0.02-0.04-0.03-0.06-0.05c-0.02-0.02-0.04-0.03-0.06-0.05c-0.02-0.02-0.04-0.03-0.06-0.05
				c-0.02-0.02-0.04-0.03-0.06-0.05c-0.02-0.02-0.04-0.03-0.06-0.05c-0.02-0.02-0.04-0.03-0.06-0.05c-0.02-0.02-0.04-0.03-0.06-0.05
				c-0.02-0.02-0.04-0.03-0.06-0.05c-0.02-0.02-0.04-0.03-0.06-0.05c-0.02-0.02-0.04-0.03-0.06-0.05c-0.02-0.02-0.04-0.03-0.06-0.05
				c-0.02-0.02-0.04-0.03-0.06-0.05c-0.02-0.02-0.04-0.03-0.06-0.05c-0.02-0.02-0.04-0.03-0.06-0.05c-0.02-0.02-0.04-0.03-0.06-0.05
				c-0.02-0.02-0.04-0.03-0.06-0.05c-0.02-0.02-0.04-0.03-0.06-0.05c-0.02-0.02-0.04-0.03-0.06-0.05c-0.02-0.02-0.04-0.03-0.06-0.05
				c-0.02-0.02-0.04-0.03-0.06-0.05c-0.02-0.02-0.04-0.03-0.06-0.05c-0.02-0.02-0.04-0.03-0.06-0.05c-0.02-0.02-0.04-0.03-0.06-0.05
				c-0.02-0.02-0.04-0.03-0.06-0.05c-0.02-0.02-0.04-0.03-0.06-0.05c-0.02-0.02-0.04-0.03-0.06-0.05c-0.02-0.02-0.04-0.03-0.06-0.05
				c-0.02-0.02-0.04-0.03-0.06-0.05c-0.02-0.02-0.04-0.03-0.06-0.05c-0.02-0.02-0.04-0.03-0.06-0.05c-0.02-0.02-0.04-0.03-0.06-0.05
				c-0.02-0.02-0.04-0.03-0.06-0.05c-0.02-0.02-0.04-0.03-0.06-0.05c-0.02-0.02-0.04-0.03-0.06-0.05c-0.02-0.02-0.04-0.03-0.06-0.05
				c-0.02-0.02-0.04-0.03-0.06-0.05c-0.02-0.02-0.04-0.03-0.06-0.05c-0.02-0.02-0.04-0.03-0.06-0.05c-0.02-0.02-0.04-0.03-0.06-0.05
				c-0.02-0.02-0.04-0.03-0.06-0.05c-0.02-0.02-0.04-0.03-0.06-0.05c-0.02-0.02-0.04-0.03-0.06-0.05c-0.02-0.02-0.04-0.03-0.06-0.05
				c-0.1-0.1-0.25-0.15-0.41-0.12l-2.33,0.41c-0.31,0.05-0.55,0.35-0.55,0.65l0,16.16c0,0,0,0,0,0c0-0.01-0.01-0.01-0.01-0.02
				c-0.01-0.01-0.03-0.02-0.05-0.03c0-0.01-0.01-0.01-0.01-0.02c-0.01-0.01-0.03-0.02-0.05-0.03c0-0.01-0.01-0.01-0.01-0.02
				c-0.01-0.01-0.03-0.02-0.05-0.03c0-0.01-0.01-0.01-0.01-0.02c-0.01-0.01-0.03-0.02-0.05-0.03c0-0.01-0.01-0.01-0.01-0.02
				c-0.01-0.01-0.03-0.02-0.05-0.03c0-0.01-0.01-0.01-0.01-0.02c-0.01-0.01-0.03-0.02-0.05-0.03c0-0.01-0.01-0.01-0.01-0.02
				c-0.01-0.01-0.03-0.02-0.05-0.03c0-0.01-0.01-0.01-0.01-0.02c-0.01-0.01-0.03-0.02-0.05-0.03c0-0.01-0.01-0.01-0.01-0.02
				c-0.01-0.01-0.03-0.01-0.04-0.02l0-11.35c0-0.17-0.08-0.3-0.2-0.38c-0.02-0.02-0.04-0.03-0.06-0.05
				c-0.02-0.02-0.04-0.03-0.06-0.05c-0.02-0.02-0.04-0.03-0.06-0.05c-0.02-0.02-0.04-0.03-0.06-0.05c-0.02-0.02-0.04-0.03-0.06-0.05
				c-0.02-0.02-0.04-0.03-0.06-0.05c-0.02-0.02-0.04-0.03-0.06-0.05c-0.02-0.02-0.04-0.03-0.06-0.05c-0.02-0.02-0.04-0.03-0.06-0.05
				c-0.02-0.02-0.04-0.03-0.06-0.05c-0.02-0.02-0.04-0.03-0.06-0.05c-0.02-0.02-0.04-0.03-0.06-0.05c-0.02-0.02-0.04-0.03-0.06-0.05
				c-0.02-0.02-0.04-0.03-0.06-0.05c-0.02-0.02-0.04-0.03-0.06-0.05c-0.02-0.02-0.04-0.03-0.06-0.05c-0.02-0.02-0.04-0.03-0.06-0.05
				c-0.02-0.02-0.04-0.03-0.06-0.05c-0.02-0.02-0.04-0.03-0.06-0.05c-0.02-0.02-0.04-0.03-0.06-0.05c-0.02-0.02-0.04-0.03-0.06-0.05
				c-0.02-0.02-0.04-0.03-0.06-0.05c-0.02-0.02-0.04-0.03-0.06-0.05c-0.02-0.02-0.04-0.03-0.06-0.05c-0.02-0.02-0.04-0.03-0.06-0.05
				c-0.02-0.02-0.04-0.03-0.06-0.05c-0.02-0.02-0.04-0.03-0.06-0.05c-0.02-0.02-0.04-0.03-0.06-0.05c-0.02-0.02-0.04-0.03-0.06-0.05
				c-0.02-0.02-0.04-0.03-0.06-0.05c-0.02-0.02-0.04-0.03-0.06-0.05c-0.02-0.02-0.04-0.03-0.06-0.05c-0.02-0.02-0.04-0.03-0.06-0.05
				c-0.02-0.02-0.04-0.03-0.06-0.05c-0.02-0.02-0.04-0.03-0.06-0.05c-0.02-0.02-0.04-0.03-0.06-0.05c-0.02-0.02-0.04-0.03-0.06-0.05
				c-0.02-0.02-0.04-0.03-0.06-0.05c-0.02-0.02-0.04-0.03-0.06-0.05c-0.02-0.02-0.04-0.03-0.06-0.05c-0.02-0.02-0.04-0.03-0.06-0.05
				c-0.02-0.02-0.04-0.03-0.06-0.05c-0.02-0.02-0.04-0.03-0.06-0.05c-0.02-0.02-0.04-0.03-0.06-0.05c-0.02-0.02-0.04-0.03-0.06-0.05
				c-0.02-0.02-0.04-0.03-0.06-0.05c-0.02-0.02-0.04-0.03-0.06-0.05c-0.02-0.02-0.04-0.03-0.06-0.05c-0.02-0.02-0.04-0.03-0.06-0.05
				c-0.02-0.02-0.04-0.03-0.06-0.05c-0.02-0.02-0.04-0.03-0.06-0.05c-0.02-0.02-0.04-0.03-0.06-0.05c-0.02-0.02-0.04-0.03-0.06-0.05
				c-0.02-0.02-0.04-0.03-0.06-0.05c-0.02-0.02-0.04-0.03-0.06-0.05c-0.02-0.02-0.04-0.03-0.06-0.05c-0.02-0.02-0.04-0.03-0.06-0.05
				c-0.02-0.02-0.04-0.03-0.06-0.05c-0.02-0.02-0.04-0.03-0.06-0.05c-0.02-0.02-0.04-0.03-0.06-0.05c-0.02-0.02-0.04-0.03-0.06-0.05
				c-0.02-0.02-0.04-0.03-0.06-0.05c-0.02-0.02-0.04-0.03-0.06-0.05c-0.02-0.02-0.04-0.03-0.06-0.05c-0.02-0.02-0.04-0.03-0.06-0.05
				c-0.02-0.02-0.04-0.03-0.06-0.05c-0.02-0.02-0.04-0.03-0.06-0.05c-0.02-0.02-0.04-0.03-0.06-0.05c-0.02-0.02-0.04-0.03-0.06-0.05
				c-0.02-0.02-0.04-0.03-0.06-0.05c-0.02-0.02-0.04-0.03-0.06-0.05c-0.02-0.02-0.04-0.03-0.06-0.05c-0.02-0.02-0.04-0.03-0.06-0.05
				c-0.02-0.02-0.04-0.03-0.06-0.05c-0.02-0.02-0.04-0.03-0.06-0.05c-0.1-0.1-0.25-0.15-0.41-0.12l-2.33,0.41
				c-0.31,0.05-0.55,0.35-0.55,0.65l0,3.49c0,0-0.01,0-0.01,0c-0.02-0.02-0.04-0.03-0.06-0.05c-0.02-0.02-0.04-0.03-0.06-0.05
				c-0.02-0.02-0.04-0.03-0.06-0.05c-0.02-0.02-0.04-0.03-0.06-0.05c-0.02-0.02-0.04-0.03-0.06-0.05c-0.02-0.02-0.04-0.03-0.06-0.05
				c-0.02-0.02-0.04-0.03-0.06-0.05c-0.02-0.02-0.04-0.03-0.06-0.05c-0.02-0.02-0.04-0.03-0.06-0.05c-0.02-0.02-0.04-0.03-0.06-0.05
				c-0.02-0.02-0.04-0.03-0.06-0.05c-0.02-0.02-0.04-0.03-0.06-0.05c-0.02-0.02-0.04-0.03-0.06-0.05c-0.02-0.02-0.04-0.03-0.06-0.05
				c-0.02-0.02-0.04-0.03-0.06-0.05c-0.02-0.02-0.04-0.03-0.06-0.05c-0.02-0.02-0.04-0.03-0.06-0.05c-0.02-0.02-0.04-0.03-0.06-0.05
				c-0.02-0.02-0.04-0.03-0.06-0.05c-0.02-0.02-0.04-0.03-0.06-0.05c-0.02-0.02-0.04-0.03-0.06-0.05c-0.02-0.02-0.04-0.03-0.06-0.05
				c-0.02-0.02-0.04-0.03-0.06-0.05c-0.02-0.02-0.04-0.03-0.06-0.05c-0.02-0.02-0.04-0.03-0.06-0.05c-0.02-0.02-0.04-0.03-0.06-0.05
				c-0.02-0.02-0.04-0.03-0.06-0.05c-0.02-0.02-0.04-0.03-0.06-0.05c-0.02-0.02-0.04-0.03-0.06-0.05c-0.02-0.02-0.04-0.03-0.06-0.05
				c-0.02-0.02-0.04-0.03-0.06-0.05c-0.02-0.02-0.04-0.03-0.06-0.05c-0.02-0.02-0.04-0.03-0.06-0.05c-0.02-0.02-0.04-0.03-0.06-0.05
				c-0.02-0.02-0.04-0.03-0.06-0.05c-0.02-0.02-0.04-0.03-0.06-0.05c-0.02-0.02-0.04-0.03-0.06-0.05c-0.02-0.02-0.04-0.03-0.06-0.05
				c-0.02-0.02-0.04-0.03-0.06-0.05c-0.02-0.02-0.04-0.03-0.06-0.05c-0.02-0.02-0.04-0.03-0.06-0.05c-0.02-0.02-0.04-0.03-0.06-0.05
				c-0.02-0.02-0.04-0.03-0.06-0.05c-0.02-0.02-0.04-0.03-0.06-0.05c-0.02-0.02-0.04-0.03-0.06-0.05c-0.02-0.02-0.04-0.03-0.06-0.05
				c-0.02-0.02-0.04-0.03-0.06-0.05c-0.02-0.02-0.04-0.03-0.06-0.05C46.01,97.02,46,97,45.98,96.99c-0.02-0.02-0.04-0.03-0.06-0.05
				c-0.02-0.02-0.04-0.03-0.06-0.05c-0.02-0.02-0.04-0.03-0.06-0.05c-0.02-0.02-0.04-0.03-0.06-0.05c-0.02-0.02-0.04-0.03-0.06-0.05
				c-0.02-0.02-0.04-0.03-0.06-0.05c-0.02-0.02-0.04-0.03-0.06-0.05c-0.02-0.02-0.04-0.03-0.06-0.05c-0.02-0.02-0.04-0.03-0.06-0.05
				c-0.02-0.02-0.04-0.03-0.06-0.05c-0.02-0.02-0.04-0.03-0.06-0.05c-0.02-0.02-0.04-0.03-0.06-0.05c-0.02-0.02-0.04-0.03-0.06-0.05
				c-0.02-0.02-0.04-0.03-0.06-0.05c-0.02-0.02-0.04-0.03-0.06-0.05c-0.02-0.02-0.04-0.03-0.06-0.05c-0.02-0.02-0.04-0.03-0.06-0.05
				c-0.02-0.02-0.04-0.03-0.06-0.05c-0.02-0.02-0.04-0.03-0.06-0.05c-0.1-0.09-0.24-0.14-0.4-0.11l-2.36,0.42
				c-0.27,0.05-0.51,0.29-0.55,0.57l-0.48,3.21c-0.02-0.02-0.03-0.03-0.05-0.04c-0.02-0.02-0.04-0.03-0.06-0.05
				c-0.02-0.02-0.04-0.03-0.06-0.05c-0.02-0.02-0.04-0.03-0.06-0.05c-0.02-0.02-0.04-0.03-0.06-0.05c-0.02-0.02-0.04-0.03-0.06-0.05
				c-0.02-0.02-0.04-0.03-0.06-0.05c-0.02-0.02-0.04-0.03-0.06-0.05c-0.02-0.02-0.04-0.03-0.06-0.05c-0.02-0.02-0.04-0.03-0.06-0.05
				c-0.02-0.02-0.04-0.03-0.06-0.05c-0.02-0.02-0.04-0.03-0.06-0.05c-0.02-0.02-0.04-0.03-0.06-0.05c-0.02-0.02-0.04-0.03-0.06-0.05
				c-0.02-0.02-0.04-0.03-0.06-0.05c-0.02-0.02-0.04-0.03-0.06-0.05c-0.02-0.02-0.04-0.03-0.06-0.05c-0.02-0.02-0.04-0.03-0.06-0.05
				c-0.02-0.02-0.04-0.03-0.06-0.05c-0.02-0.02-0.04-0.03-0.06-0.05c-0.02-0.02-0.04-0.03-0.06-0.05c-0.02-0.02-0.04-0.03-0.06-0.05
				c-0.02-0.02-0.04-0.03-0.06-0.05c-0.02-0.02-0.04-0.03-0.06-0.05c-0.02-0.02-0.04-0.03-0.06-0.05c-0.02-0.02-0.04-0.03-0.06-0.05
				c-0.02-0.02-0.04-0.03-0.06-0.05c-0.02-0.02-0.04-0.03-0.06-0.05c-0.02-0.02-0.04-0.03-0.06-0.05c-0.02-0.02-0.04-0.03-0.06-0.05
				c-0.02-0.02-0.04-0.03-0.06-0.05c-0.02-0.02-0.04-0.03-0.06-0.05c-0.02-0.02-0.04-0.03-0.06-0.05c-0.02-0.02-0.04-0.03-0.06-0.05
				c-0.02-0.02-0.04-0.03-0.06-0.05c-0.02-0.02-0.04-0.03-0.06-0.05c-0.02-0.02-0.04-0.03-0.06-0.05c-0.02-0.02-0.04-0.03-0.06-0.05
				c-0.02-0.02-0.04-0.03-0.06-0.05c-0.02-0.02-0.04-0.03-0.06-0.05c-0.02-0.02-0.04-0.03-0.06-0.05c-0.02-0.02-0.04-0.03-0.06-0.05
				c-0.02-0.02-0.04-0.03-0.06-0.05c-0.02-0.02-0.04-0.03-0.06-0.05c-0.02-0.02-0.04-0.03-0.06-0.05c-0.02-0.02-0.04-0.03-0.06-0.05
				c-0.02-0.02-0.04-0.03-0.06-0.05c-0.02-0.02-0.04-0.03-0.06-0.05c-0.02-0.02-0.04-0.03-0.06-0.05c-0.02-0.02-0.04-0.03-0.06-0.05
				c-0.02-0.02-0.04-0.03-0.06-0.05c-0.02-0.02-0.04-0.03-0.06-0.05c-0.02-0.02-0.04-0.03-0.06-0.05c-0.02-0.02-0.04-0.03-0.06-0.05
				c-0.02-0.02-0.04-0.03-0.06-0.05c-0.02-0.02-0.04-0.03-0.06-0.05c-0.02-0.02-0.04-0.03-0.06-0.05c-0.02-0.02-0.04-0.03-0.06-0.05
				c-0.02-0.02-0.04-0.03-0.06-0.05c-0.02-0.02-0.04-0.03-0.06-0.05c-0.1-0.1-0.25-0.15-0.41-0.12l-2.33,0.41
				c-0.31,0.05-0.55,0.35-0.55,0.65l0,1.92c-0.01,0-0.01-0.01-0.02-0.01c-0.02-0.02-0.04-0.03-0.06-0.05
				c-0.02-0.02-0.04-0.03-0.06-0.05c-0.02-0.02-0.04-0.03-0.06-0.05c-0.02-0.02-0.04-0.03-0.06-0.05c-0.02-0.02-0.04-0.03-0.06-0.05
				c-0.02-0.02-0.04-0.03-0.06-0.05c-0.02-0.02-0.04-0.03-0.06-0.05c-0.02-0.02-0.04-0.03-0.06-0.05c-0.02-0.02-0.04-0.03-0.06-0.05
				c-0.02-0.02-0.04-0.03-0.06-0.05c-0.02-0.02-0.04-0.03-0.06-0.05c-0.02-0.02-0.04-0.03-0.06-0.05c-0.02-0.02-0.04-0.03-0.06-0.05
				c-0.02-0.02-0.04-0.03-0.06-0.05c-0.02-0.02-0.04-0.03-0.06-0.05c-0.02-0.02-0.04-0.03-0.06-0.05c-0.02-0.02-0.04-0.03-0.06-0.05
				c-0.02-0.02-0.04-0.03-0.06-0.05c-0.02-0.02-0.04-0.03-0.06-0.05c-0.02-0.02-0.04-0.03-0.06-0.05c-0.02-0.02-0.04-0.03-0.06-0.05
				c-0.02-0.02-0.04-0.03-0.06-0.05c-0.02-0.02-0.04-0.03-0.06-0.05c-0.02-0.02-0.04-0.03-0.06-0.05c-0.02-0.02-0.04-0.03-0.06-0.05
				c-0.02-0.02-0.04-0.03-0.06-0.05c-0.02-0.02-0.04-0.03-0.06-0.05c-0.02-0.02-0.04-0.03-0.06-0.05c-0.02-0.02-0.04-0.03-0.06-0.05
				c-0.02-0.02-0.04-0.03-0.06-0.05c-0.02-0.02-0.04-0.03-0.06-0.05c-0.02-0.02-0.04-0.03-0.06-0.05c-0.02-0.02-0.04-0.03-0.06-0.05
				c-0.02-0.02-0.04-0.03-0.06-0.05c-0.02-0.02-0.04-0.03-0.06-0.05c-0.02-0.02-0.04-0.03-0.06-0.05c-0.02-0.02-0.04-0.03-0.06-0.05
				c-0.02-0.02-0.04-0.03-0.06-0.05c-0.02-0.02-0.04-0.03-0.06-0.05c-0.02-0.02-0.04-0.03-0.06-0.05c-0.1-0.1-0.25-0.15-0.41-0.12
				l-2.33,0.41c-0.31,0.05-0.55,0.35-0.55,0.65l0,18.31c0,0.17,0.08,0.3,0.2,0.38c0.02,0.02,0.04,0.03,0.06,0.05
				c0.02,0.02,0.04,0.03,0.06,0.05c0.02,0.02,0.04,0.03,0.06,0.05c0.02,0.02,0.04,0.03,0.06,0.05c0.02,0.02,0.04,0.03,0.06,0.05
				c0.02,0.02,0.04,0.03,0.06,0.05c0.02,0.02,0.04,0.03,0.06,0.05c0.02,0.02,0.04,0.03,0.06,0.05c0.02,0.02,0.04,0.03,0.06,0.05
				c0.02,0.02,0.04,0.03,0.06,0.05c0.02,0.02,0.04,0.03,0.06,0.05c0.02,0.02,0.04,0.03,0.06,0.05c0.02,0.02,0.04,0.03,0.06,0.05
				c0.02,0.02,0.04,0.03,0.06,0.05c0.02,0.02,0.04,0.03,0.06,0.05c0.02,0.02,0.04,0.03,0.06,0.05c0.02,0.02,0.04,0.03,0.06,0.05
				c0.02,0.02,0.04,0.03,0.06,0.05c0.02,0.02,0.04,0.03,0.06,0.05c0.02,0.02,0.04,0.03,0.06,0.05c0.02,0.02,0.04,0.03,0.06,0.05
				c0.02,0.02,0.04,0.03,0.06,0.05c0.02,0.02,0.04,0.03,0.06,0.05c0.02,0.02,0.04,0.03,0.06,0.05c0.02,0.02,0.04,0.03,0.06,0.05
				c0.02,0.02,0.04,0.03,0.06,0.05c0.02,0.02,0.04,0.03,0.06,0.05c0.02,0.02,0.04,0.03,0.06,0.05c0.02,0.02,0.04,0.03,0.06,0.05
				c0.02,0.02,0.04,0.03,0.06,0.05c0.02,0.02,0.04,0.03,0.06,0.05c0.02,0.02,0.04,0.03,0.06,0.05c0.02,0.02,0.04,0.03,0.06,0.05
				c0.02,0.02,0.04,0.03,0.06,0.05c0.02,0.02,0.04,0.03,0.06,0.05c0.02,0.02,0.04,0.03,0.06,0.05c0.02,0.02,0.04,0.03,0.06,0.05
				c0.02,0.02,0.04,0.03,0.06,0.05c0.02,0.02,0.04,0.03,0.06,0.05c0.02,0.02,0.04,0.03,0.06,0.05c0.02,0.02,0.04,0.03,0.06,0.05
				c0.02,0.02,0.04,0.03,0.06,0.05c0.02,0.02,0.04,0.03,0.06,0.05c0.02,0.02,0.04,0.03,0.06,0.05c0.02,0.02,0.04,0.03,0.06,0.05
				c0.02,0.02,0.04,0.03,0.06,0.05c0.02,0.02,0.04,0.03,0.06,0.05c0.02,0.02,0.04,0.03,0.06,0.05c0.02,0.02,0.04,0.03,0.06,0.05
				c0.02,0.02,0.04,0.03,0.06,0.05c0.02,0.02,0.04,0.03,0.06,0.05c0.02,0.02,0.04,0.03,0.06,0.05c0.02,0.02,0.04,0.03,0.06,0.05
				c0.02,0.02,0.04,0.03,0.06,0.05c0.02,0.02,0.04,0.03,0.06,0.05c0.02,0.02,0.04,0.03,0.06,0.05c0.02,0.02,0.04,0.03,0.06,0.05
				c0.02,0.02,0.04,0.03,0.06,0.05c0.02,0.02,0.04,0.03,0.06,0.05c0.02,0.02,0.04,0.03,0.06,0.05c0.02,0.02,0.04,0.03,0.06,0.05
				c0.02,0.02,0.04,0.03,0.06,0.05c0.02,0.02,0.04,0.03,0.06,0.05c0.02,0.02,0.04,0.03,0.06,0.05c0.02,0.02,0.04,0.03,0.06,0.05
				c0.02,0.02,0.04,0.03,0.06,0.05c0.02,0.02,0.04,0.03,0.06,0.05c0.02,0.02,0.04,0.03,0.06,0.05c0.02,0.02,0.04,0.03,0.06,0.05
				c0.02,0.02,0.04,0.03,0.06,0.05c0.02,0.02,0.04,0.03,0.06,0.05c0.02,0.02,0.04,0.03,0.06,0.05c0.02,0.02,0.04,0.03,0.06,0.05
				c0.02,0.02,0.04,0.03,0.06,0.05c0.02,0.02,0.04,0.03,0.06,0.05c0.1,0.1,0.25,0.15,0.41,0.12l2.33-0.41
				c0.31-0.05,0.55-0.35,0.55-0.65l0-1.92c0.01,0,0.01,0.01,0.02,0.01c0.02,0.02,0.04,0.03,0.06,0.05c0.02,0.02,0.04,0.03,0.06,0.05
				c0.02,0.02,0.04,0.03,0.06,0.05c0.02,0.02,0.04,0.03,0.06,0.05c0.02,0.02,0.04,0.03,0.06,0.05c0.02,0.02,0.04,0.03,0.06,0.05
				c0.02,0.02,0.04,0.03,0.06,0.05c0.02,0.02,0.04,0.03,0.06,0.05c0.02,0.02,0.04,0.03,0.06,0.05c0.02,0.02,0.04,0.03,0.06,0.05
				c0.02,0.02,0.04,0.03,0.06,0.05c0.02,0.02,0.04,0.03,0.06,0.05c0.02,0.02,0.04,0.03,0.06,0.05c0.02,0.02,0.04,0.03,0.06,0.05
				c0.02,0.02,0.04,0.03,0.06,0.05c0.02,0.02,0.04,0.03,0.06,0.05c0.02,0.02,0.04,0.03,0.06,0.05c0.02,0.02,0.04,0.03,0.06,0.05
				c0.02,0.02,0.04,0.03,0.06,0.05c0.02,0.02,0.04,0.03,0.06,0.05c0.02,0.02,0.04,0.03,0.06,0.05c0.02,0.02,0.04,0.03,0.06,0.05
				c0.02,0.02,0.04,0.03,0.06,0.05c0.02,0.02,0.04,0.03,0.06,0.05c0.02,0.02,0.04,0.03,0.06,0.05c0.02,0.02,0.04,0.03,0.06,0.05
				c0.02,0.02,0.04,0.03,0.06,0.05c0.02,0.02,0.04,0.03,0.06,0.05c0.02,0.02,0.04,0.03,0.06,0.05c0.02,0.02,0.04,0.03,0.06,0.05
				c0.02,0.02,0.04,0.03,0.06,0.05c0.02,0.02,0.04,0.03,0.06,0.05c0.02,0.02,0.04,0.03,0.06,0.05c0.02,0.02,0.04,0.03,0.06,0.05
				c0.02,0.02,0.04,0.03,0.06,0.05c0.02,0.02,0.04,0.03,0.06,0.05c0.02,0.02,0.04,0.03,0.06,0.05c0.02,0.02,0.04,0.03,0.06,0.05
				c0.02,0.02,0.04,0.03,0.06,0.05c0.02,0.02,0.04,0.03,0.06,0.05c0.1,0.1,0.25,0.15,0.41,0.12l2.33-0.41
				c0.31-0.05,0.55-0.35,0.55-0.65l0-0.71c0.01,0.01,0.03,0.01,0.04,0.02c0.01,0.01,0.01,0.02,0.01,0.02
				c0.01,0.01,0.03,0.01,0.04,0.03c0.01,0.01,0.01,0.02,0.01,0.02c0.01,0.01,0.03,0.01,0.04,0.03c0.01,0.01,0.01,0.02,0.01,0.02
				c0.01,0.01,0.03,0.01,0.04,0.03c0.01,0.01,0.01,0.02,0.01,0.02c0.01,0.01,0.03,0.01,0.04,0.03c0.01,0.01,0.01,0.02,0.01,0.02
				c0.01,0.01,0.03,0.01,0.04,0.03c0.01,0.01,0.01,0.02,0.01,0.02c0.01,0.01,0.03,0.01,0.04,0.03c0.01,0.01,0.01,0.02,0.01,0.02
				c0.01,0.01,0.03,0.01,0.04,0.03c0.01,0.01,0.01,0.02,0.01,0.02c0.01,0.01,0.03,0.01,0.04,0.03c0.01,0.01,0.01,0.02,0.01,0.02
				c0.01,0.01,0.03,0.01,0.04,0.03c0.01,0.01,0.01,0.02,0.01,0.02c0.01,0.01,0.03,0.01,0.04,0.03c0.01,0.01,0.01,0.02,0.01,0.02
				c0.01,0.01,0.03,0.01,0.04,0.03c0.01,0.01,0.01,0.02,0.01,0.02c0.01,0.01,0.03,0.01,0.04,0.03c0.01,0.01,0.01,0.02,0.01,0.02
				c0.01,0.01,0.03,0.01,0.04,0.03c0.01,0.01,0.01,0.02,0.01,0.02c0.01,0.01,0.03,0.01,0.04,0.03c0.01,0.01,0.01,0.02,0.01,0.02
				c0.01,0.01,0.03,0.01,0.04,0.03c0.01,0.01,0.01,0.02,0.01,0.02c0.01,0.01,0.03,0.01,0.04,0.03c0.01,0.01,0.01,0.02,0.01,0.02
				c0.01,0.01,0.03,0.01,0.04,0.03c0.01,0.01,0.01,0.02,0.01,0.02c0.01,0.01,0.03,0.01,0.04,0.03c0.01,0.01,0.01,0.02,0.01,0.02
				c0.11,0.1,0.26,0.15,0.42,0.12l2.36-0.42c0.27-0.05,0.51-0.29,0.55-0.57l0.25-1.71l0.07-0.01c0.01,0.01,0.02,0.02,0.03,0.02
				c0.02,0.02,0.04,0.03,0.06,0.05c0.02,0.02,0.04,0.03,0.06,0.05c0.02,0.02,0.04,0.03,0.06,0.05c0.02,0.02,0.04,0.03,0.06,0.05
				c0.02,0.02,0.04,0.03,0.06,0.05c0.02,0.02,0.04,0.03,0.06,0.05c0.02,0.02,0.04,0.03,0.06,0.05c0.02,0.02,0.04,0.03,0.06,0.05
				c0.02,0.02,0.04,0.03,0.06,0.05c0.02,0.02,0.04,0.03,0.06,0.05c0.02,0.02,0.04,0.03,0.06,0.05c0.02,0.02,0.04,0.03,0.06,0.05
				c0.02,0.02,0.04,0.03,0.06,0.05c0.02,0.02,0.04,0.03,0.06,0.05c0.02,0.02,0.04,0.03,0.06,0.05c0.02,0.02,0.04,0.03,0.06,0.05
				c0.02,0.02,0.04,0.03,0.06,0.05c0.02,0.02,0.04,0.03,0.06,0.05c0.02,0.02,0.04,0.03,0.06,0.05c0.02,0.02,0.04,0.03,0.06,0.05
				c0.02,0.02,0.04,0.03,0.06,0.05c0.02,0.02,0.04,0.03,0.06,0.05c0.02,0.02,0.04,0.03,0.06,0.05c0.02,0.02,0.04,0.03,0.06,0.05
				c0.02,0.02,0.04,0.03,0.06,0.05c0.02,0.02,0.04,0.03,0.06,0.05c0.02,0.02,0.04,0.03,0.06,0.05c0.02,0.02,0.04,0.03,0.06,0.05
				c0.02,0.02,0.04,0.03,0.06,0.05c0.02,0.02,0.04,0.03,0.06,0.05c0.02,0.02,0.04,0.03,0.06,0.05c0.02,0.02,0.04,0.03,0.06,0.05
				c0.02,0.02,0.04,0.03,0.06,0.05c0.02,0.02,0.04,0.03,0.06,0.05c0.1,0.09,0.24,0.14,0.4,0.11l2.36-0.42
				c0.16-0.03,0.32-0.13,0.42-0.27c0.11-0.14,0.15-0.31,0.13-0.47l-0.11-0.71c0.01,0.01,0.03,0.02,0.04,0.03
				c0.02,0.02,0.04,0.03,0.06,0.05c0.02,0.02,0.04,0.03,0.06,0.05c0.02,0.02,0.04,0.03,0.06,0.05c0.02,0.02,0.04,0.03,0.06,0.05
				c0.02,0.02,0.04,0.03,0.06,0.05c0.02,0.02,0.04,0.03,0.06,0.05c0.02,0.02,0.04,0.03,0.06,0.05c0.02,0.02,0.04,0.03,0.06,0.05
				c0.02,0.02,0.04,0.03,0.06,0.05c0.02,0.02,0.04,0.03,0.06,0.05c0.02,0.02,0.04,0.03,0.06,0.05c0.02,0.02,0.04,0.03,0.06,0.05
				c0.02,0.02,0.04,0.03,0.06,0.05c0.02,0.02,0.04,0.03,0.06,0.05c0.02,0.02,0.04,0.03,0.06,0.05c0.02,0.02,0.04,0.03,0.06,0.05
				c0.02,0.02,0.04,0.03,0.06,0.05c0.02,0.02,0.04,0.03,0.06,0.05c0.02,0.02,0.04,0.03,0.06,0.05c0.02,0.02,0.04,0.03,0.06,0.05
				c0.1,0.1,0.25,0.15,0.41,0.12l6.28-1.11c0.26-0.05,0.49-0.27,0.54-0.54l0.13-0.65c0.01,0.01,0.02,0.01,0.04,0.02
				c0.02,0.02,0.04,0.03,0.06,0.05c0.02,0.02,0.04,0.03,0.06,0.05c0.02,0.02,0.04,0.03,0.06,0.05c0.02,0.02,0.04,0.03,0.06,0.05
				c0.02,0.02,0.04,0.03,0.06,0.05c0.02,0.02,0.04,0.03,0.06,0.05c0.02,0.02,0.04,0.03,0.06,0.05c0.02,0.02,0.04,0.03,0.06,0.05
				c0.02,0.02,0.04,0.03,0.06,0.05c0.02,0.02,0.04,0.03,0.06,0.05c0.02,0.02,0.04,0.03,0.06,0.05c0.02,0.02,0.04,0.03,0.06,0.05
				c0.02,0.02,0.04,0.03,0.06,0.05c0.02,0.02,0.04,0.03,0.06,0.05c0.02,0.02,0.04,0.03,0.06,0.05c0.1,0.1,0.25,0.15,0.41,0.12
				l6.28-1.11c0.26-0.05,0.49-0.27,0.54-0.54l0.47-2.41c0-0.01,0-0.02,0-0.04c0.01,0.01,0.02,0.02,0.03,0.02
				c0.02,0.02,0.04,0.03,0.06,0.05c0.02,0.02,0.04,0.03,0.06,0.05c0.02,0.02,0.04,0.03,0.06,0.05c0.02,0.02,0.04,0.03,0.06,0.05
				c0.02,0.02,0.04,0.03,0.06,0.05c0.02,0.02,0.04,0.03,0.06,0.05c0.02,0.02,0.04,0.03,0.06,0.05c0.02,0.02,0.04,0.03,0.06,0.05
				c0.02,0.02,0.04,0.03,0.06,0.05c0.02,0.02,0.04,0.03,0.06,0.05c0.02,0.02,0.04,0.03,0.06,0.05c0.02,0.02,0.04,0.03,0.06,0.05
				c0.02,0.02,0.04,0.03,0.06,0.05c0.02,0.02,0.04,0.03,0.06,0.05c0.02,0.02,0.04,0.03,0.06,0.05c0.02,0.02,0.04,0.03,0.06,0.05
				c0.02,0.02,0.04,0.03,0.06,0.05c0.02,0.02,0.04,0.03,0.06,0.05c0.02,0.02,0.04,0.03,0.06,0.05c0.02,0.02,0.04,0.03,0.06,0.05
				c0.02,0.02,0.04,0.03,0.06,0.05c0.02,0.02,0.04,0.03,0.06,0.05c0.02,0.02,0.04,0.03,0.06,0.05c0.02,0.02,0.04,0.03,0.06,0.05
				c0.02,0.02,0.04,0.03,0.06,0.05c0.02,0.02,0.04,0.03,0.06,0.05c0.02,0.02,0.04,0.03,0.06,0.05c0.76,0.64,1.81,0.93,2.97,0.73
				l0.23-0.04c2.3-0.4,4.16-2.6,4.16-4.9l0-11.09C78.1,97.38,77.62,96.41,76.85,95.79z M37.31,116.13l-2.33,0.41l0-7.91l-3.25,0.57
				l0,7.91l-2.33,0.41l0-18.31l2.33-0.41l0,8.07l3.25-0.57l0-8.07l2.33-0.41L37.31,116.13z M47.29,114.37l-2.36,0.42l-0.33-2.08
				l-2.58,0.45l-0.33,2.19l-2.36,0.42l2.79-18.8l2.36-0.42L47.29,114.37z M55.6,112.9c-0.97,0.17-5.71,1.01-6.28,1.11l0-18.31
				l2.33-0.41l0,15.98l4.42-0.78L55.6,112.9z M63.85,111.45c-0.97,0.17-5.71,1.01-6.28,1.11l0-18.31l2.33-0.41l0,15.98l4.42-0.78
				L63.85,111.45z M73.23,95.09v11.09c0,1.99-1.62,3.9-3.61,4.25l-0.23,0.04c-1.99,0.35-3.61-0.98-3.61-2.97l0-11.09
				c0-1.99,1.62-3.9,3.61-4.25l0.23-0.04C71.61,91.77,73.23,93.1,73.23,95.09z"/>
		</g>
	</g>
</g>
</svg>
