<?xml version="1.0" encoding="utf-8"?>
<!-- Generator: Adobe Illustrator 26.2.1, SVG Export Plug-In . SVG Version: 6.00 Build 0)  -->
<svg version="1.1" xmlns="http://www.w3.org/2000/svg" xmlns:xlink="http://www.w3.org/1999/xlink" x="0px" y="0px"
	 viewBox="0 0 419.53 297.64" style="enable-background:new 0 0 419.53 297.64;" xml:space="preserve">
<style type="text/css">
	.st0{fill:#EB495E;}
	.st1{opacity:0.8;}
	.st2{fill:#FFFFFF;}
</style>
<g id="Layer_1">
</g>
<g id="Ebene_2">
</g>
<g id="Ebene_3">
	<g>
		<path d="M303.92,99.34c-0.06-0.06-0.12-0.1-0.18-0.15c-0.06-0.06-0.12-0.1-0.18-0.15c-0.06-0.06-0.12-0.1-0.18-0.15
			c-0.06-0.06-0.12-0.1-0.18-0.15c-0.06-0.06-0.12-0.1-0.18-0.15c-0.06-0.06-0.12-0.1-0.18-0.15c-0.06-0.06-0.12-0.1-0.18-0.15
			c-0.06-0.06-0.12-0.1-0.18-0.15c-0.06-0.06-0.12-0.1-0.18-0.15c-0.06-0.06-0.12-0.1-0.18-0.15c-0.06-0.06-0.12-0.1-0.18-0.15
			c-0.06-0.06-0.12-0.1-0.18-0.15c-0.06-0.06-0.12-0.1-0.18-0.15c-0.06-0.06-0.12-0.1-0.18-0.15c-0.06-0.06-0.12-0.1-0.18-0.15
			c-0.06-0.06-0.12-0.1-0.18-0.15c-0.06-0.06-0.12-0.1-0.18-0.15c-0.06-0.06-0.12-0.1-0.18-0.15c-0.06-0.06-0.12-0.1-0.18-0.15
			c-0.06-0.06-0.12-0.1-0.18-0.15c-0.06-0.06-0.12-0.1-0.18-0.15c-0.06-0.06-0.12-0.1-0.18-0.15c-0.06-0.06-0.12-0.1-0.18-0.15
			c-0.06-0.06-0.12-0.1-0.18-0.15c-0.06-0.06-0.12-0.1-0.18-0.15c-0.06-0.06-0.12-0.1-0.18-0.15c-0.06-0.06-0.12-0.1-0.18-0.15
			c-0.06-0.06-0.12-0.1-0.18-0.15c-0.06-0.06-0.12-0.1-0.18-0.15c-0.06-0.06-0.12-0.1-0.18-0.15c-0.06-0.06-0.12-0.1-0.18-0.15
			c-0.06-0.06-0.12-0.1-0.18-0.15c-0.06-0.06-0.12-0.1-0.18-0.15c-0.06-0.06-0.12-0.1-0.18-0.15c-0.06-0.06-0.12-0.1-0.18-0.15
			c-0.06-0.06-0.12-0.1-0.18-0.15c-0.06-0.06-0.12-0.1-0.18-0.15c-0.06-0.06-0.12-0.1-0.18-0.15c-0.06-0.06-0.12-0.1-0.18-0.15
			c-0.06-0.06-0.12-0.1-0.18-0.15c-0.06-0.06-0.12-0.1-0.18-0.15c-0.06-0.06-0.12-0.1-0.18-0.15c-0.06-0.06-0.12-0.1-0.18-0.15
			c-0.06-0.06-0.12-0.1-0.18-0.15c-0.06-0.06-0.12-0.1-0.18-0.15c-0.06-0.06-0.12-0.1-0.18-0.15c-0.06-0.06-0.12-0.1-0.18-0.15
			c-0.06-0.06-0.12-0.1-0.18-0.15c-0.06-0.06-0.12-0.1-0.18-0.15c-0.06-0.06-0.12-0.1-0.18-0.15c-0.06-0.06-0.12-0.1-0.18-0.15
			c-0.06-0.06-0.12-0.1-0.18-0.15c-0.06-0.06-0.12-0.1-0.18-0.15c-0.06-0.06-0.12-0.1-0.18-0.15c-0.06-0.06-0.12-0.1-0.18-0.15
			c-0.06-0.06-0.12-0.1-0.18-0.15c-0.06-0.06-0.12-0.1-0.18-0.15c-0.06-0.06-0.12-0.1-0.18-0.15c-0.06-0.06-0.12-0.1-0.18-0.15
			c-0.06-0.06-0.12-0.1-0.18-0.15c-0.06-0.06-0.12-0.1-0.18-0.15c-0.06-0.06-0.12-0.1-0.18-0.15c-0.06-0.06-0.12-0.1-0.18-0.15
			c-0.06-0.06-0.12-0.1-0.18-0.15c-0.06-0.06-0.12-0.1-0.18-0.15c-0.06-0.06-0.12-0.1-0.18-0.15c-0.06-0.06-0.12-0.1-0.18-0.15
			c-0.06-0.06-0.12-0.1-0.18-0.15c-0.06-0.06-0.12-0.1-0.18-0.15c-0.06-0.06-0.12-0.1-0.18-0.15c-0.06-0.06-0.12-0.1-0.18-0.15
			c-0.06-0.06-0.12-0.1-0.18-0.15c-0.06-0.06-0.12-0.1-0.18-0.15c-0.06-0.06-0.12-0.1-0.18-0.15c-0.06-0.06-0.12-0.1-0.18-0.15
			c-0.06-0.06-0.12-0.1-0.18-0.15c-0.06-0.06-0.12-0.1-0.18-0.15c-0.06-0.06-0.12-0.1-0.18-0.15c-0.06-0.06-0.12-0.1-0.18-0.15
			c-0.06-0.06-0.12-0.1-0.18-0.15c-0.06-0.06-0.12-0.1-0.18-0.15c-0.06-0.06-0.12-0.1-0.18-0.15c-0.06-0.06-0.12-0.1-0.18-0.15
			c-0.06-0.06-0.12-0.1-0.18-0.15c-0.06-0.06-0.12-0.1-0.18-0.15c-0.06-0.06-0.12-0.1-0.18-0.15c-0.06-0.06-0.12-0.1-0.18-0.15
			c-0.06-0.06-0.12-0.1-0.18-0.15c-0.06-0.06-0.12-0.1-0.18-0.15c-0.06-0.06-0.12-0.1-0.18-0.15c-0.06-0.06-0.12-0.1-0.18-0.15
			c-0.06-0.06-0.12-0.1-0.18-0.15c-0.06-0.06-0.12-0.1-0.18-0.15c-0.06-0.06-0.12-0.1-0.18-0.15c-0.06-0.06-0.12-0.1-0.18-0.15
			c-0.06-0.06-0.12-0.1-0.18-0.15c-0.06-0.06-0.12-0.1-0.18-0.15c-0.06-0.06-0.12-0.1-0.18-0.15c-0.06-0.06-0.12-0.1-0.18-0.15
			c-0.06-0.06-0.12-0.1-0.18-0.15c-0.06-0.06-0.12-0.1-0.18-0.15c-0.06-0.06-0.12-0.1-0.18-0.15c-0.06-0.06-0.12-0.1-0.18-0.15
			c-0.06-0.06-0.12-0.1-0.18-0.15c-0.06-0.06-0.12-0.1-0.18-0.15c-0.06-0.06-0.12-0.1-0.18-0.15c-0.06-0.06-0.12-0.1-0.18-0.15
			c-0.06-0.06-0.12-0.1-0.18-0.15c-0.06-0.06-0.12-0.1-0.18-0.15c-0.48-0.44-1.15-0.67-1.92-0.54l-10.97,1.93
			c-1.44,0.25-2.61,1.63-2.61,3.07v13.01c0,0,0,0-0.01,0c-0.05-0.06-0.13-0.1-0.18-0.15c-0.05-0.06-0.13-0.1-0.18-0.15
			c-0.05-0.06-0.12-0.1-0.18-0.15c-0.05-0.06-0.12-0.1-0.18-0.15c-0.05-0.06-0.12-0.1-0.18-0.15c-0.05-0.06-0.12-0.1-0.18-0.15
			c-0.05-0.06-0.13-0.1-0.18-0.15c-0.05-0.06-0.12-0.1-0.18-0.15c-0.05-0.06-0.12-0.1-0.18-0.15c-0.05-0.06-0.13-0.1-0.18-0.15
			c-0.05-0.06-0.12-0.1-0.18-0.15c-0.05-0.06-0.12-0.1-0.18-0.15c-0.05-0.06-0.13-0.1-0.18-0.15c-0.05-0.06-0.12-0.1-0.18-0.15
			c-0.05-0.06-0.12-0.1-0.18-0.15c-0.05-0.06-0.12-0.1-0.18-0.15c-0.05-0.06-0.12-0.1-0.18-0.15c-0.05-0.06-0.12-0.1-0.18-0.15
			c-0.05-0.06-0.12-0.1-0.18-0.15c-0.05-0.06-0.13-0.1-0.18-0.15c-0.05-0.06-0.13-0.1-0.18-0.15c-0.05-0.06-0.12-0.1-0.18-0.15
			c-0.05-0.06-0.12-0.1-0.18-0.15c-0.05-0.06-0.12-0.1-0.18-0.15c-0.05-0.06-0.13-0.1-0.18-0.15c-0.05-0.06-0.12-0.1-0.18-0.15
			c-0.05-0.06-0.12-0.1-0.18-0.15c-0.05-0.06-0.12-0.1-0.18-0.15c-0.05-0.06-0.12-0.1-0.18-0.15c-0.05-0.06-0.12-0.1-0.18-0.15
			c-0.05-0.06-0.13-0.1-0.18-0.15c-0.05-0.06-0.12-0.1-0.18-0.15c-0.05-0.06-0.12-0.1-0.18-0.15c-0.05-0.06-0.12-0.1-0.18-0.15
			c-0.05-0.06-0.12-0.1-0.18-0.15c-0.05-0.06-0.13-0.1-0.18-0.15c-0.05-0.06-0.13-0.1-0.18-0.15c-0.05-0.06-0.12-0.1-0.18-0.15
			c-0.05-0.06-0.12-0.1-0.18-0.15c-0.05-0.06-0.12-0.1-0.18-0.15c-0.05-0.06-0.13-0.1-0.18-0.15c-0.05-0.06-0.12-0.1-0.18-0.15
			c-0.05-0.06-0.13-0.1-0.18-0.15c-0.05-0.06-0.13-0.1-0.18-0.15c-0.05-0.06-0.12-0.1-0.18-0.15c-0.05-0.06-0.12-0.1-0.18-0.15
			c-0.05-0.06-0.12-0.1-0.18-0.15c-0.05-0.06-0.12-0.1-0.18-0.15c-0.05-0.06-0.12-0.1-0.18-0.15c-0.05-0.06-0.12-0.1-0.18-0.15
			c-0.05-0.06-0.12-0.1-0.18-0.15c-0.05-0.06-0.12-0.1-0.18-0.15c-0.05-0.06-0.12-0.1-0.18-0.15c-0.05-0.06-0.12-0.1-0.18-0.15
			c-0.05-0.06-0.12-0.1-0.18-0.15c-0.05-0.06-0.13-0.1-0.18-0.15c-0.05-0.06-0.12-0.1-0.18-0.15c-0.05-0.06-0.12-0.1-0.18-0.15
			c-0.05-0.06-0.12-0.1-0.18-0.15c-0.05-0.06-0.12-0.1-0.18-0.15c-0.05-0.06-0.12-0.1-0.18-0.15c-0.05-0.06-0.13-0.1-0.18-0.15
			c-0.05-0.06-0.12-0.1-0.18-0.15c-0.05-0.06-0.12-0.1-0.18-0.15c-0.05-0.06-0.12-0.1-0.18-0.15c-0.05-0.06-0.12-0.1-0.18-0.15
			c-0.05-0.06-0.12-0.1-0.18-0.15c-0.05-0.06-0.12-0.1-0.18-0.15c-0.05-0.06-0.12-0.1-0.18-0.15c-0.05-0.06-0.12-0.1-0.18-0.15
			c-0.05-0.06-0.12-0.1-0.18-0.15c-0.05-0.06-0.12-0.1-0.18-0.15c-0.05-0.06-0.13-0.1-0.18-0.15c-0.05-0.06-0.13-0.1-0.18-0.15
			c-0.05-0.06-0.12-0.1-0.18-0.15c-0.05-0.06-0.12-0.1-0.18-0.15c-0.05-0.06-0.12-0.1-0.18-0.15c-0.05-0.06-0.12-0.1-0.18-0.15
			c-0.05-0.06-0.12-0.1-0.18-0.15c-0.48-0.56-1.25-0.82-2.08-0.67l-11.31,1.99c-1.44,0.25-2.61,1.63-2.61,3.07v78.55
			c-0.03-0.03-0.07-0.03-0.1-0.06c-0.02-0.02-0.02-0.04-0.03-0.06c-0.04-0.04-0.11-0.05-0.15-0.09c-0.02-0.02-0.02-0.04-0.03-0.06
			c-0.04-0.04-0.11-0.05-0.15-0.09c-0.02-0.02-0.02-0.04-0.03-0.06c-0.04-0.04-0.11-0.05-0.15-0.09c-0.02-0.02-0.02-0.04-0.03-0.06
			c-0.04-0.04-0.11-0.05-0.15-0.09c-0.02-0.02-0.02-0.04-0.03-0.06c-0.04-0.04-0.11-0.05-0.15-0.09c-0.02-0.02-0.02-0.04-0.03-0.06
			c-0.04-0.04-0.11-0.05-0.15-0.09c-0.02-0.02-0.02-0.04-0.03-0.06c-0.04-0.04-0.11-0.05-0.15-0.09c-0.02-0.02-0.02-0.04-0.03-0.06
			c-0.04-0.04-0.11-0.05-0.15-0.09c-0.02-0.02-0.02-0.04-0.03-0.06c-0.04-0.04-0.11-0.05-0.15-0.09c-0.02-0.02-0.02-0.04-0.03-0.06
			c-0.04-0.04-0.11-0.05-0.15-0.09c-0.02-0.02-0.02-0.04-0.03-0.06c-0.04-0.04-0.11-0.05-0.15-0.09c-0.02-0.02-0.02-0.04-0.03-0.06
			c-0.04-0.04-0.11-0.05-0.15-0.09c-0.02-0.02-0.02-0.04-0.03-0.06c-0.04-0.04-0.11-0.05-0.15-0.09c-0.02-0.02-0.02-0.04-0.03-0.06
			c-0.04-0.04-0.11-0.05-0.15-0.09c-0.02-0.02-0.02-0.04-0.03-0.06c-0.04-0.04-0.11-0.05-0.15-0.09c-0.02-0.02-0.02-0.04-0.03-0.06
			c-0.04-0.04-0.11-0.05-0.15-0.09c-0.02-0.02-0.02-0.04-0.03-0.06c-0.04-0.04-0.11-0.05-0.15-0.09c-0.02-0.02-0.02-0.04-0.03-0.06
			c-0.04-0.04-0.11-0.05-0.15-0.09c-0.02-0.02-0.02-0.04-0.03-0.06c-0.04-0.04-0.11-0.05-0.15-0.09c-0.02-0.02-0.02-0.04-0.03-0.06
			c-0.04-0.04-0.11-0.05-0.15-0.09c-0.02-0.02-0.02-0.04-0.03-0.06c-0.04-0.04-0.11-0.05-0.15-0.09c-0.02-0.02-0.02-0.04-0.03-0.06
			c-0.04-0.04-0.11-0.05-0.15-0.09c-0.02-0.02-0.02-0.04-0.03-0.06c-0.04-0.04-0.11-0.05-0.15-0.09c-0.02-0.02-0.02-0.04-0.03-0.06
			c-0.04-0.04-0.11-0.05-0.15-0.09c-0.02-0.02-0.02-0.04-0.03-0.06c-0.04-0.04-0.11-0.05-0.15-0.09c-0.02-0.02-0.02-0.04-0.03-0.06
			c-0.03-0.03-0.08-0.04-0.11-0.07v-53.41c0-0.77-0.35-1.38-0.87-1.76c-0.06-0.06-0.12-0.1-0.18-0.15c-0.06-0.06-0.12-0.1-0.18-0.15
			c-0.06-0.06-0.12-0.1-0.18-0.15c-0.06-0.06-0.12-0.1-0.18-0.15c-0.06-0.06-0.12-0.1-0.18-0.15c-0.06-0.06-0.12-0.1-0.18-0.15
			c-0.06-0.06-0.12-0.1-0.18-0.15c-0.06-0.06-0.12-0.1-0.18-0.15c-0.06-0.06-0.12-0.1-0.18-0.15c-0.06-0.06-0.12-0.1-0.18-0.15
			c-0.06-0.06-0.12-0.1-0.18-0.15c-0.06-0.06-0.12-0.1-0.18-0.15c-0.06-0.06-0.12-0.1-0.18-0.15c-0.06-0.06-0.12-0.1-0.18-0.15
			c-0.06-0.06-0.12-0.1-0.18-0.15c-0.06-0.06-0.12-0.1-0.18-0.15c-0.06-0.06-0.12-0.1-0.18-0.15c-0.06-0.06-0.12-0.1-0.18-0.15
			c-0.06-0.06-0.12-0.1-0.18-0.15c-0.06-0.06-0.12-0.1-0.18-0.15c-0.06-0.06-0.12-0.1-0.18-0.15c-0.06-0.06-0.12-0.1-0.18-0.15
			c-0.06-0.06-0.12-0.1-0.18-0.15c-0.06-0.06-0.12-0.1-0.18-0.15c-0.06-0.06-0.12-0.1-0.18-0.15c-0.06-0.06-0.12-0.1-0.18-0.15
			c-0.06-0.06-0.12-0.1-0.18-0.15c-0.06-0.06-0.12-0.1-0.18-0.15c-0.06-0.06-0.12-0.1-0.18-0.15c-0.06-0.06-0.12-0.1-0.18-0.15
			c-0.06-0.06-0.12-0.1-0.18-0.15c-0.06-0.06-0.12-0.1-0.18-0.15c-0.06-0.06-0.12-0.1-0.18-0.15c-0.06-0.06-0.12-0.1-0.18-0.15
			c-0.06-0.06-0.12-0.1-0.18-0.15c-0.06-0.06-0.12-0.1-0.18-0.15c-0.06-0.06-0.12-0.1-0.18-0.15c-0.06-0.06-0.12-0.1-0.18-0.15
			c-0.06-0.06-0.12-0.1-0.18-0.15c-0.06-0.06-0.12-0.1-0.18-0.15c-0.06-0.06-0.12-0.1-0.18-0.15c-0.06-0.06-0.12-0.1-0.18-0.15
			c-0.06-0.06-0.12-0.1-0.18-0.15c-0.06-0.06-0.12-0.1-0.18-0.15c-0.06-0.06-0.12-0.1-0.18-0.15c-0.06-0.06-0.12-0.1-0.18-0.15
			c-0.06-0.06-0.12-0.1-0.18-0.15c-0.06-0.06-0.12-0.1-0.18-0.15c-0.06-0.06-0.12-0.1-0.18-0.15c-0.06-0.06-0.12-0.1-0.18-0.15
			c-0.06-0.06-0.12-0.1-0.18-0.15c-0.06-0.06-0.12-0.1-0.18-0.15c-0.06-0.06-0.12-0.1-0.18-0.15c-0.06-0.06-0.12-0.1-0.18-0.15
			c-0.06-0.06-0.12-0.1-0.18-0.15c-0.06-0.06-0.12-0.1-0.18-0.15c-0.06-0.06-0.12-0.1-0.18-0.15c-0.06-0.06-0.12-0.1-0.18-0.15
			c-0.06-0.06-0.12-0.1-0.18-0.15c-0.06-0.06-0.12-0.1-0.18-0.15c-0.06-0.06-0.12-0.1-0.18-0.15c-0.06-0.06-0.12-0.1-0.18-0.15
			c-0.06-0.06-0.12-0.1-0.18-0.15c-0.06-0.06-0.12-0.1-0.18-0.15c-0.06-0.06-0.12-0.1-0.18-0.15c-0.06-0.06-0.12-0.1-0.18-0.15
			c-0.06-0.06-0.12-0.1-0.18-0.15c-0.06-0.06-0.12-0.1-0.18-0.15c-0.06-0.06-0.12-0.1-0.18-0.15c-0.06-0.06-0.12-0.1-0.18-0.15
			c-0.06-0.06-0.12-0.1-0.18-0.15c-0.06-0.06-0.12-0.1-0.18-0.15c-0.06-0.06-0.12-0.1-0.18-0.15c-0.06-0.06-0.12-0.1-0.18-0.15
			c-0.06-0.06-0.12-0.1-0.18-0.15c-0.06-0.06-0.12-0.1-0.18-0.15c-0.06-0.06-0.12-0.1-0.18-0.15c-0.06-0.06-0.12-0.1-0.18-0.15
			c-0.06-0.06-0.12-0.1-0.18-0.15c-0.06-0.06-0.12-0.1-0.18-0.15c-0.06-0.06-0.12-0.1-0.18-0.15c-0.06-0.06-0.12-0.1-0.18-0.15
			c-0.06-0.06-0.12-0.1-0.18-0.15c-0.06-0.06-0.12-0.1-0.18-0.15c-0.06-0.06-0.12-0.1-0.18-0.15c-0.06-0.06-0.12-0.1-0.18-0.15
			c-0.06-0.06-0.12-0.1-0.18-0.15c-0.06-0.06-0.12-0.1-0.18-0.15c-0.06-0.06-0.12-0.1-0.18-0.15c-0.06-0.06-0.12-0.1-0.18-0.15
			c-0.06-0.06-0.12-0.1-0.18-0.15c-0.06-0.06-0.12-0.1-0.18-0.15c-0.06-0.06-0.12-0.1-0.18-0.15c-0.06-0.06-0.12-0.1-0.18-0.15
			c-0.06-0.06-0.12-0.1-0.18-0.15c-0.06-0.06-0.12-0.1-0.18-0.15c-0.06-0.06-0.12-0.1-0.18-0.15c-0.06-0.06-0.12-0.1-0.18-0.15
			c-0.06-0.06-0.12-0.1-0.18-0.15c-0.06-0.06-0.12-0.1-0.18-0.15c-0.06-0.06-0.12-0.1-0.18-0.15c-0.06-0.06-0.12-0.1-0.18-0.15
			c-0.06-0.06-0.12-0.1-0.18-0.15c-0.06-0.06-0.12-0.1-0.18-0.15c-0.06-0.06-0.12-0.1-0.18-0.15c-0.06-0.06-0.12-0.1-0.18-0.15
			c-0.06-0.06-0.12-0.1-0.18-0.15c-0.06-0.06-0.12-0.1-0.18-0.15c-0.06-0.06-0.12-0.1-0.18-0.15c-0.48-0.44-1.15-0.67-1.92-0.54
			l-10.97,1.93c-1.44,0.25-2.61,1.63-2.61,3.07v13.57c-0.02-0.01-0.04-0.02-0.06-0.03c-0.06-0.05-0.12-0.1-0.18-0.15
			c-0.06-0.05-0.12-0.1-0.18-0.15c-0.06-0.05-0.12-0.1-0.18-0.15c-0.06-0.05-0.12-0.1-0.18-0.15c-0.06-0.05-0.12-0.1-0.18-0.15
			c-0.06-0.05-0.12-0.1-0.18-0.15c-0.06-0.05-0.12-0.1-0.18-0.15c-0.06-0.05-0.12-0.1-0.18-0.15c-0.06-0.05-0.12-0.1-0.18-0.15
			c-0.06-0.05-0.12-0.1-0.18-0.15c-0.06-0.05-0.12-0.1-0.18-0.15c-0.06-0.05-0.12-0.1-0.18-0.15c-0.06-0.05-0.12-0.1-0.18-0.15
			c-0.06-0.05-0.12-0.1-0.18-0.15c-0.06-0.05-0.12-0.1-0.18-0.15c-0.06-0.05-0.12-0.1-0.18-0.15c-0.06-0.05-0.12-0.1-0.18-0.15
			c-0.06-0.05-0.12-0.1-0.18-0.15c-0.06-0.05-0.12-0.1-0.18-0.15c-0.06-0.05-0.12-0.1-0.18-0.15c-0.06-0.05-0.12-0.1-0.18-0.15
			c-0.06-0.05-0.12-0.1-0.18-0.15c-0.06-0.05-0.12-0.1-0.18-0.15c-0.06-0.05-0.12-0.1-0.18-0.15c-0.06-0.05-0.12-0.1-0.18-0.15
			c-0.06-0.05-0.12-0.1-0.18-0.15c-0.06-0.05-0.12-0.1-0.18-0.15c-0.06-0.05-0.12-0.1-0.18-0.15c-0.06-0.05-0.12-0.1-0.18-0.15
			c-0.06-0.05-0.12-0.1-0.18-0.15c-0.06-0.05-0.12-0.1-0.18-0.15c-0.06-0.05-0.12-0.1-0.18-0.15c-0.06-0.05-0.12-0.1-0.18-0.15
			c-0.06-0.05-0.12-0.1-0.18-0.15c-0.06-0.05-0.12-0.1-0.18-0.15c-0.06-0.05-0.12-0.1-0.18-0.15c-0.06-0.05-0.12-0.1-0.18-0.15
			c-0.06-0.05-0.12-0.1-0.18-0.15c-0.06-0.05-0.12-0.1-0.18-0.15c-0.06-0.05-0.12-0.1-0.18-0.15c-0.06-0.05-0.12-0.1-0.18-0.15
			c-0.06-0.05-0.12-0.1-0.18-0.15c-0.06-0.05-0.12-0.1-0.18-0.15c-0.06-0.05-0.12-0.1-0.18-0.15c-0.06-0.05-0.12-0.1-0.18-0.15
			c-0.06-0.05-0.12-0.1-0.18-0.15c-0.06-0.05-0.12-0.1-0.18-0.15c-0.06-0.05-0.12-0.1-0.18-0.15c-0.06-0.05-0.12-0.1-0.18-0.15
			c-0.06-0.05-0.12-0.1-0.18-0.15c-0.06-0.05-0.12-0.1-0.18-0.15c-0.06-0.05-0.12-0.1-0.18-0.15c-0.06-0.05-0.12-0.1-0.18-0.15
			c-0.06-0.05-0.12-0.1-0.18-0.15c-0.06-0.05-0.12-0.1-0.18-0.15c-0.48-0.44-1.15-0.67-1.92-0.53l-10.97,1.93
			c-1.44,0.25-4.4,1.94-4.4,3.39l0.14,1.72c-0.03-0.02-0.07-0.03-0.1-0.05c-0.06-0.05-0.12-0.1-0.18-0.15
			c-0.06-0.05-0.12-0.1-0.18-0.15c-0.06-0.05-0.12-0.1-0.18-0.15c-0.06-0.05-0.12-0.1-0.18-0.15c-0.06-0.05-0.12-0.1-0.18-0.15
			c-0.06-0.05-0.12-0.1-0.18-0.15c-0.06-0.05-0.12-0.1-0.18-0.15c-0.06-0.05-0.12-0.1-0.18-0.15c-0.06-0.05-0.12-0.1-0.18-0.15
			c-0.06-0.05-0.12-0.1-0.18-0.15c-0.06-0.05-0.12-0.1-0.18-0.15c-0.06-0.05-0.12-0.1-0.18-0.15c-0.06-0.05-0.12-0.1-0.18-0.15
			c-0.06-0.05-0.12-0.1-0.18-0.15c-0.06-0.05-0.12-0.1-0.18-0.15c-0.06-0.05-0.12-0.1-0.18-0.15c-0.06-0.05-0.12-0.1-0.18-0.15
			c-0.06-0.05-0.12-0.1-0.18-0.15c-0.06-0.05-0.12-0.1-0.18-0.15c-0.48-0.44-1.15-0.67-1.92-0.53l-10.97,1.93
			c-0.36,0.06-0.81,0.22-1.29,0.43c-0.04-0.03-0.08-0.05-0.12-0.08c-0.06-0.06-0.12-0.1-0.18-0.15c-0.06-0.06-0.12-0.1-0.18-0.15
			c-0.06-0.06-0.12-0.1-0.18-0.15c-0.06-0.06-0.12-0.1-0.18-0.15c-0.06-0.06-0.12-0.1-0.18-0.15c-0.06-0.06-0.12-0.1-0.18-0.15
			c-0.06-0.06-0.12-0.1-0.18-0.15c-0.06-0.06-0.12-0.1-0.18-0.15c-0.06-0.06-0.12-0.1-0.18-0.15c-0.06-0.06-0.12-0.1-0.18-0.15
			c-0.06-0.06-0.12-0.1-0.18-0.15c-0.06-0.06-0.12-0.1-0.18-0.15c-0.06-0.06-0.12-0.1-0.18-0.15c-0.06-0.06-0.12-0.1-0.18-0.15
			c-0.06-0.06-0.12-0.1-0.18-0.15c-0.06-0.06-0.12-0.1-0.18-0.15c-0.06-0.06-0.12-0.1-0.18-0.15c-0.06-0.06-0.12-0.1-0.18-0.15
			c-0.06-0.06-0.12-0.1-0.18-0.15c-0.06-0.06-0.12-0.1-0.18-0.15c-0.06-0.06-0.12-0.1-0.18-0.15c-0.06-0.06-0.12-0.1-0.18-0.15
			c-0.06-0.06-0.12-0.1-0.18-0.15c-0.06-0.06-0.12-0.1-0.18-0.15c-0.06-0.06-0.12-0.1-0.18-0.15c-0.49-0.46-1.18-0.67-1.93-0.53
			l-12.82,2.26c-0.91,0.16-1.76,0.79-2.23,1.65l-3.96,7.24c-0.04-0.03-0.09-0.05-0.13-0.08c-0.06-0.06-0.12-0.1-0.18-0.15
			c-0.06-0.06-0.12-0.1-0.18-0.15c-0.06-0.06-0.12-0.1-0.18-0.15c-0.06-0.06-0.12-0.1-0.18-0.15c-0.06-0.06-0.12-0.1-0.18-0.15
			c-0.06-0.06-0.12-0.1-0.18-0.15c-0.06-0.06-0.12-0.1-0.18-0.15c-0.06-0.06-0.12-0.1-0.18-0.15c-0.06-0.06-0.12-0.1-0.18-0.15
			c-0.06-0.06-0.12-0.1-0.18-0.15c-0.06-0.06-0.12-0.1-0.18-0.15c-0.06-0.06-0.12-0.1-0.18-0.15c-0.06-0.06-0.12-0.1-0.18-0.15
			c-0.06-0.06-0.12-0.1-0.18-0.15c-0.06-0.06-0.12-0.1-0.18-0.15c-0.06-0.06-0.12-0.1-0.18-0.15c-0.06-0.06-0.12-0.1-0.18-0.15
			c-0.06-0.06-0.12-0.1-0.18-0.15c-0.06-0.06-0.12-0.1-0.18-0.15c-0.06-0.06-0.12-0.1-0.18-0.15c-0.06-0.06-0.12-0.1-0.18-0.15
			c-0.06-0.06-0.12-0.1-0.18-0.15c-0.06-0.06-0.12-0.1-0.18-0.15c-0.06-0.06-0.12-0.1-0.18-0.15c-0.06-0.06-0.12-0.1-0.18-0.15
			c-0.06-0.06-0.12-0.1-0.18-0.15c-0.06-0.06-0.12-0.1-0.18-0.15c-0.06-0.06-0.12-0.1-0.18-0.15c-0.06-0.06-0.12-0.1-0.18-0.15
			c-0.06-0.06-0.12-0.1-0.18-0.15c-0.06-0.06-0.12-0.1-0.18-0.15c-0.06-0.06-0.12-0.1-0.18-0.15c-0.06-0.06-0.12-0.1-0.18-0.15
			c-0.06-0.06-0.12-0.1-0.18-0.15c-0.06-0.06-0.12-0.1-0.18-0.15c-0.06-0.06-0.12-0.1-0.18-0.15c-0.06-0.06-0.12-0.1-0.18-0.15
			c-0.48-0.44-1.15-0.67-1.92-0.54l-10.97,1.93c-1.44,0.25-2.61,1.63-2.61,3.07v86.23c0,0.77,0.35,1.38,0.87,1.77
			c0.06,0.06,0.12,0.1,0.18,0.15c0.06,0.06,0.12,0.1,0.18,0.15c0.06,0.06,0.12,0.1,0.18,0.15c0.06,0.06,0.12,0.1,0.18,0.15
			c0.06,0.06,0.12,0.1,0.18,0.15c0.06,0.06,0.12,0.1,0.18,0.15c0.06,0.06,0.12,0.1,0.18,0.15c0.06,0.06,0.12,0.1,0.18,0.15
			c0.06,0.06,0.12,0.1,0.18,0.15c0.06,0.06,0.12,0.1,0.18,0.15c0.06,0.06,0.12,0.1,0.18,0.15c0.06,0.06,0.12,0.1,0.18,0.15
			c0.06,0.06,0.12,0.1,0.18,0.15c0.06,0.06,0.12,0.1,0.18,0.15c0.06,0.06,0.12,0.1,0.18,0.15c0.06,0.06,0.12,0.1,0.18,0.15
			c0.06,0.06,0.12,0.1,0.18,0.15c0.06,0.06,0.12,0.1,0.18,0.15c0.06,0.06,0.12,0.1,0.18,0.15c0.06,0.06,0.12,0.1,0.18,0.15
			c0.06,0.06,0.12,0.1,0.18,0.15c0.06,0.06,0.12,0.1,0.18,0.15c0.06,0.06,0.12,0.1,0.18,0.15c0.06,0.06,0.12,0.1,0.18,0.15
			c0.06,0.06,0.12,0.1,0.18,0.15c0.06,0.06,0.12,0.1,0.18,0.15c0.06,0.06,0.12,0.1,0.18,0.15c0.06,0.06,0.12,0.1,0.18,0.15
			c0.06,0.06,0.12,0.1,0.18,0.15c0.06,0.06,0.12,0.1,0.18,0.15c0.06,0.06,0.12,0.1,0.18,0.15c0.06,0.06,0.12,0.1,0.18,0.15
			c0.06,0.06,0.12,0.1,0.18,0.15c0.06,0.06,0.12,0.1,0.18,0.15c0.06,0.06,0.12,0.1,0.18,0.15c0.06,0.06,0.12,0.1,0.18,0.15
			c0.06,0.06,0.12,0.1,0.18,0.15c0.06,0.06,0.12,0.1,0.18,0.15c0.06,0.06,0.12,0.1,0.18,0.15c0.06,0.06,0.12,0.1,0.18,0.15
			c0.06,0.06,0.12,0.1,0.18,0.15c0.06,0.06,0.12,0.1,0.18,0.15c0.06,0.06,0.12,0.1,0.18,0.15c0.06,0.06,0.12,0.1,0.18,0.15
			c0.06,0.06,0.12,0.1,0.18,0.15c0.06,0.06,0.12,0.1,0.18,0.15c0.06,0.06,0.12,0.1,0.18,0.15c0.06,0.06,0.12,0.1,0.18,0.15
			c0.06,0.06,0.12,0.1,0.18,0.15c0.06,0.06,0.12,0.1,0.18,0.15c0.06,0.06,0.12,0.1,0.18,0.15c0.06,0.06,0.12,0.1,0.18,0.15
			c0.06,0.06,0.12,0.1,0.18,0.15c0.06,0.06,0.12,0.1,0.18,0.15c0.06,0.06,0.12,0.1,0.18,0.15c0.06,0.06,0.12,0.1,0.18,0.15
			c0.06,0.06,0.12,0.1,0.18,0.15c0.06,0.06,0.12,0.1,0.18,0.15c0.06,0.06,0.12,0.1,0.18,0.15c0.06,0.06,0.12,0.1,0.18,0.15
			c0.06,0.06,0.12,0.1,0.18,0.15c0.06,0.06,0.12,0.1,0.18,0.15c0.06,0.06,0.12,0.1,0.18,0.15c0.06,0.06,0.12,0.1,0.18,0.15
			c0.06,0.06,0.12,0.1,0.18,0.15c0.06,0.06,0.12,0.1,0.18,0.15c0.06,0.06,0.12,0.1,0.18,0.15c0.06,0.06,0.12,0.1,0.18,0.15
			c0.06,0.06,0.12,0.1,0.18,0.15c0.06,0.06,0.12,0.1,0.18,0.15c0.06,0.06,0.12,0.1,0.18,0.15c0.06,0.06,0.12,0.1,0.18,0.15
			c0.06,0.06,0.12,0.1,0.18,0.15c0.06,0.06,0.12,0.1,0.18,0.15c0.06,0.06,0.12,0.1,0.18,0.15c0.06,0.06,0.12,0.1,0.18,0.15
			c0.06,0.06,0.12,0.1,0.18,0.15c0.06,0.06,0.12,0.1,0.18,0.15c0.06,0.06,0.12,0.1,0.18,0.15c0.06,0.06,0.12,0.1,0.18,0.15
			c0.06,0.06,0.12,0.1,0.18,0.15c0.06,0.06,0.12,0.1,0.18,0.15c0.06,0.06,0.12,0.1,0.18,0.15c0.06,0.06,0.12,0.1,0.18,0.15
			c0.06,0.06,0.12,0.1,0.18,0.15c0.06,0.06,0.12,0.1,0.18,0.15c0.06,0.06,0.12,0.1,0.18,0.15c0.06,0.06,0.12,0.1,0.18,0.15
			c0.06,0.06,0.12,0.1,0.18,0.15c0.06,0.06,0.12,0.1,0.18,0.15c0.06,0.06,0.12,0.1,0.18,0.15c0.06,0.06,0.12,0.1,0.18,0.15
			c0.06,0.06,0.12,0.1,0.18,0.15c0.06,0.06,0.12,0.1,0.18,0.15c0.06,0.06,0.12,0.1,0.18,0.15c0.06,0.06,0.12,0.1,0.18,0.15
			c0.06,0.06,0.12,0.1,0.18,0.15c0.06,0.06,0.12,0.1,0.18,0.15c0.06,0.06,0.12,0.1,0.18,0.15c0.06,0.06,0.12,0.1,0.18,0.15
			c0.06,0.06,0.12,0.1,0.18,0.15c0.06,0.06,0.12,0.1,0.18,0.15c0.06,0.06,0.12,0.1,0.18,0.15c0.06,0.06,0.12,0.1,0.18,0.15
			c0.06,0.06,0.12,0.1,0.18,0.15c0.06,0.06,0.12,0.1,0.18,0.15c0.06,0.06,0.12,0.1,0.18,0.15c0.06,0.06,0.12,0.1,0.18,0.15
			c0.06,0.06,0.12,0.1,0.18,0.15c0.48,0.44,1.15,0.67,1.92,0.54l10.97-1.93c1.44-0.25,2.61-1.63,2.61-3.07v-8.75
			c0.05,0.05,0.11,0.09,0.17,0.13c0.05,0.06,0.13,0.1,0.18,0.15c0.05,0.06,0.13,0.1,0.18,0.15c0.05,0.06,0.13,0.1,0.18,0.15
			c0.05,0.06,0.13,0.1,0.18,0.15c0.05,0.06,0.13,0.1,0.18,0.15c0.05,0.06,0.13,0.1,0.18,0.15c0.05,0.06,0.13,0.1,0.18,0.15
			c0.05,0.06,0.13,0.1,0.18,0.15c0.05,0.06,0.13,0.1,0.18,0.15c0.05,0.06,0.13,0.1,0.18,0.15c0.05,0.06,0.13,0.1,0.18,0.15
			c0.05,0.06,0.13,0.1,0.18,0.15c0.05,0.06,0.13,0.1,0.18,0.15c0.05,0.06,0.13,0.1,0.18,0.15c0.05,0.06,0.13,0.1,0.18,0.15
			c0.05,0.06,0.13,0.1,0.18,0.15c0.05,0.06,0.13,0.1,0.18,0.15c0.05,0.06,0.13,0.1,0.18,0.15c0.05,0.06,0.13,0.1,0.18,0.15
			c0.05,0.06,0.13,0.1,0.18,0.15c0.05,0.06,0.13,0.1,0.18,0.15c0.05,0.06,0.13,0.1,0.18,0.15c0.05,0.06,0.13,0.1,0.18,0.15
			c0.05,0.06,0.13,0.1,0.18,0.15c0.05,0.06,0.13,0.1,0.18,0.15c0.05,0.06,0.13,0.1,0.18,0.15c0.05,0.06,0.13,0.1,0.18,0.15
			c0.05,0.06,0.13,0.1,0.18,0.15c0.05,0.06,0.13,0.1,0.18,0.15c0.05,0.06,0.13,0.1,0.18,0.15c0.05,0.06,0.13,0.1,0.18,0.15
			c0.05,0.06,0.13,0.1,0.18,0.15c0.05,0.06,0.13,0.1,0.18,0.15c0.05,0.06,0.13,0.1,0.18,0.15c0.05,0.06,0.13,0.1,0.18,0.15
			c0.05,0.06,0.13,0.1,0.18,0.15c0.05,0.06,0.13,0.1,0.18,0.15c0.05,0.06,0.13,0.1,0.18,0.15c0.05,0.06,0.13,0.1,0.18,0.15
			c0.05,0.06,0.13,0.1,0.18,0.15c0.05,0.06,0.13,0.1,0.18,0.15c0.05,0.06,0.13,0.1,0.18,0.15c0.05,0.06,0.13,0.1,0.18,0.15
			c0.05,0.06,0.13,0.1,0.18,0.15c0.05,0.06,0.13,0.1,0.18,0.15c0.05,0.06,0.13,0.1,0.18,0.15c0.05,0.06,0.13,0.1,0.18,0.15
			c0.05,0.06,0.13,0.1,0.18,0.15c0.05,0.06,0.13,0.1,0.18,0.15c0.05,0.06,0.13,0.1,0.18,0.15c0.05,0.06,0.13,0.1,0.18,0.15
			c0.05,0.06,0.13,0.1,0.18,0.15c0.05,0.06,0.13,0.1,0.18,0.15c0.05,0.06,0.13,0.1,0.18,0.15c0.05,0.06,0.13,0.1,0.18,0.15
			c0.48,0.56,1.25,0.83,2.09,0.68l11.59-2.04c0.84-0.15,1.63-0.69,2.12-1.47c0.49-0.77,0.62-1.67,0.35-2.42l-5.23-14.4
			c0,0,0.01,0.01,0.01,0.01c0.06,0.05,0.12,0.1,0.18,0.15c0.06,0.05,0.12,0.1,0.18,0.15c0.06,0.05,0.12,0.1,0.18,0.15
			c0.06,0.05,0.12,0.1,0.19,0.15c0.06,0.05,0.12,0.1,0.18,0.15c0.06,0.05,0.12,0.1,0.18,0.15c0.06,0.05,0.12,0.1,0.18,0.15
			c0.06,0.05,0.12,0.1,0.18,0.15c0.06,0.05,0.12,0.1,0.19,0.15c0.06,0.05,0.12,0.1,0.18,0.15c0.06,0.05,0.12,0.1,0.18,0.15
			c0.06,0.05,0.12,0.1,0.18,0.15c0.06,0.05,0.12,0.1,0.18,0.15c0.06,0.05,0.12,0.1,0.18,0.15c0.06,0.05,0.12,0.1,0.18,0.15
			c0.06,0.05,0.12,0.1,0.19,0.15c0.06,0.05,0.12,0.1,0.18,0.15c0.06,0.05,0.12,0.1,0.18,0.15c0.06,0.05,0.12,0.1,0.19,0.15
			c0.06,0.05,0.12,0.1,0.18,0.15c0.06,0.05,0.12,0.1,0.18,0.15c0.06,0.05,0.12,0.1,0.19,0.15c0.06,0.05,0.12,0.1,0.18,0.15
			c0.06,0.05,0.12,0.1,0.18,0.15c0.06,0.05,0.12,0.1,0.18,0.15c0.06,0.05,0.12,0.1,0.18,0.15c0.06,0.05,0.12,0.1,0.18,0.15
			c0.06,0.05,0.12,0.1,0.18,0.15c0.06,0.05,0.12,0.1,0.19,0.15c0.06,0.05,0.12,0.1,0.18,0.15c0.06,0.05,0.12,0.1,0.18,0.15
			c0.06,0.05,0.12,0.1,0.18,0.15c0.06,0.05,0.12,0.1,0.18,0.15c0.06,0.05,0.12,0.1,0.18,0.15c0.06,0.05,0.12,0.1,0.19,0.15
			c0.06,0.05,0.12,0.1,0.18,0.15c0.06,0.05,0.12,0.1,0.18,0.15c0.06,0.05,0.12,0.1,0.18,0.15c0.06,0.05,0.12,0.1,0.18,0.15
			c0.06,0.05,0.12,0.1,0.19,0.15c0.06,0.05,0.12,0.1,0.18,0.15c0.06,0.05,0.12,0.1,0.18,0.15c0.06,0.05,0.12,0.1,0.18,0.15
			c0.06,0.05,0.12,0.1,0.18,0.15c0.06,0.05,0.12,0.1,0.18,0.15c0.06,0.05,0.12,0.1,0.18,0.15c0.06,0.05,0.12,0.1,0.19,0.15
			c0.06,0.05,0.12,0.1,0.18,0.15c0.06,0.05,0.12,0.1,0.18,0.15c0.06,0.05,0.12,0.1,0.19,0.15c0.06,0.05,0.12,0.1,0.18,0.15
			c0.06,0.05,0.12,0.1,0.18,0.15c0.06,0.05,0.12,0.1,0.19,0.15c0.06,0.05,0.12,0.1,0.18,0.15c0.06,0.05,0.12,0.1,0.18,0.15
			c0.06,0.05,0.12,0.1,0.18,0.15c0.06,0.05,0.12,0.1,0.18,0.15c0.06,0.05,0.12,0.1,0.18,0.15c0.06,0.05,0.12,0.1,0.19,0.15
			c0.06,0.05,0.12,0.1,0.18,0.15c0.06,0.05,0.12,0.1,0.19,0.15c0.06,0.05,0.12,0.1,0.18,0.15c0.06,0.05,0.12,0.1,0.18,0.15
			c0.06,0.05,0.12,0.1,0.18,0.15c0.06,0.05,0.12,0.1,0.19,0.15c0.06,0.05,0.12,0.1,0.18,0.15c0.06,0.05,0.12,0.1,0.18,0.15
			c0.06,0.05,0.12,0.1,0.18,0.15c0.06,0.05,0.12,0.1,0.18,0.15c0.06,0.05,0.12,0.1,0.18,0.15c3.56,2.98,8.5,4.35,13.95,3.39
			l1.07-0.19c7.85-1.39,14.63-7.23,17.75-14.47c0.05,0.04,0.1,0.07,0.15,0.1c0.06,0.06,0.12,0.1,0.18,0.15
			c0.06,0.06,0.12,0.1,0.18,0.15c0.06,0.06,0.12,0.1,0.18,0.15c0.06,0.06,0.12,0.1,0.18,0.15c0.06,0.06,0.12,0.1,0.18,0.15
			c0.06,0.06,0.12,0.1,0.18,0.15c0.06,0.06,0.12,0.1,0.18,0.15c0.06,0.06,0.12,0.1,0.18,0.15c0.06,0.06,0.12,0.1,0.18,0.15
			c0.06,0.06,0.12,0.1,0.18,0.15c0.06,0.06,0.12,0.1,0.18,0.15c0.06,0.06,0.12,0.1,0.18,0.15c0.06,0.06,0.12,0.1,0.18,0.15
			c0.06,0.06,0.12,0.1,0.18,0.15c0.06,0.06,0.12,0.1,0.18,0.15c0.06,0.06,0.12,0.1,0.18,0.15c0.06,0.06,0.12,0.1,0.18,0.15
			c0.06,0.06,0.12,0.1,0.18,0.15c0.06,0.06,0.12,0.1,0.18,0.15c0.06,0.06,0.12,0.1,0.18,0.15c0.06,0.06,0.12,0.1,0.18,0.15
			c0.06,0.06,0.12,0.1,0.18,0.15c0.06,0.06,0.12,0.1,0.18,0.15c0.06,0.06,0.12,0.1,0.18,0.15c0.06,0.06,0.12,0.1,0.18,0.15
			c0.06,0.06,0.12,0.1,0.18,0.15c0.06,0.06,0.12,0.1,0.18,0.15c0.06,0.06,0.12,0.1,0.18,0.15c0.06,0.06,0.12,0.1,0.18,0.15
			c0.06,0.06,0.12,0.1,0.18,0.15c0.06,0.06,0.12,0.1,0.18,0.15c0.06,0.06,0.12,0.1,0.18,0.15c0.06,0.06,0.12,0.1,0.18,0.15
			c0.06,0.06,0.12,0.1,0.18,0.15c0.06,0.06,0.12,0.1,0.18,0.15c0.06,0.06,0.12,0.1,0.18,0.15c0.06,0.06,0.12,0.1,0.18,0.15
			c0.06,0.06,0.12,0.1,0.18,0.15c0.06,0.06,0.12,0.1,0.18,0.15c0.06,0.06,0.12,0.1,0.18,0.15c0.06,0.06,0.12,0.1,0.18,0.15
			c0.06,0.06,0.12,0.1,0.18,0.15c0.06,0.06,0.12,0.1,0.18,0.15c0.06,0.06,0.12,0.1,0.18,0.15c0.06,0.06,0.12,0.1,0.18,0.15
			c0.06,0.06,0.12,0.1,0.18,0.15c0.06,0.06,0.12,0.1,0.18,0.15c0.06,0.06,0.12,0.1,0.18,0.15c0.06,0.06,0.12,0.1,0.18,0.15
			c0.06,0.06,0.12,0.1,0.18,0.15c0.06,0.06,0.12,0.1,0.18,0.15c0.06,0.06,0.12,0.1,0.18,0.15c0.06,0.06,0.12,0.1,0.18,0.15
			c0.06,0.06,0.12,0.1,0.18,0.15c0.06,0.06,0.12,0.1,0.18,0.15c0.06,0.06,0.12,0.1,0.18,0.15c0.48,0.44,1.15,0.67,1.92,0.54
			l29.59-5.22c1.24-0.22,2.31-1.29,2.56-2.55l1.01-5.22c0.06,0.05,0.11,0.1,0.18,0.14c0.06,0.06,0.12,0.1,0.18,0.15
			c0.06,0.06,0.12,0.1,0.18,0.15c0.06,0.06,0.12,0.1,0.18,0.15c0.06,0.06,0.12,0.1,0.18,0.15c0.06,0.06,0.12,0.1,0.18,0.15
			c0.06,0.06,0.12,0.1,0.18,0.15c0.06,0.06,0.12,0.1,0.18,0.15c0.06,0.06,0.12,0.1,0.18,0.15c0.06,0.06,0.12,0.1,0.18,0.15
			c0.06,0.06,0.12,0.1,0.18,0.15c0.06,0.06,0.12,0.1,0.18,0.15c0.06,0.06,0.12,0.1,0.18,0.15c0.06,0.06,0.12,0.1,0.18,0.15
			c0.06,0.06,0.12,0.1,0.18,0.15c0.06,0.06,0.12,0.1,0.18,0.15c0.06,0.06,0.12,0.1,0.18,0.15c0.06,0.06,0.12,0.1,0.18,0.15
			c0.06,0.06,0.12,0.1,0.18,0.15c0.06,0.06,0.12,0.1,0.18,0.15c0.06,0.06,0.12,0.1,0.18,0.15c0.06,0.06,0.12,0.1,0.18,0.15
			c0.06,0.06,0.12,0.1,0.18,0.15c0.06,0.06,0.12,0.1,0.18,0.15c0.06,0.06,0.12,0.1,0.18,0.15c0.06,0.06,0.12,0.1,0.18,0.15
			c0.06,0.06,0.12,0.1,0.18,0.15c0.06,0.06,0.12,0.1,0.18,0.15c0.06,0.06,0.12,0.1,0.18,0.15c0.06,0.06,0.12,0.1,0.18,0.15
			c0.06,0.06,0.12,0.1,0.18,0.15c0.06,0.06,0.12,0.1,0.18,0.15c0.06,0.06,0.12,0.1,0.18,0.15c0.06,0.06,0.12,0.1,0.18,0.15
			c0.48,0.44,1.15,0.67,1.92,0.54l10.97-1.93c1.44-0.25,2.61-1.63,2.61-3.07v-13.01c0,0,0,0,0.01,0c0.05,0.06,0.12,0.1,0.18,0.15
			c0.05,0.06,0.12,0.1,0.18,0.15c0.05,0.06,0.12,0.1,0.18,0.15c0.05,0.06,0.12,0.1,0.18,0.15c0.05,0.06,0.13,0.1,0.18,0.15
			c0.05,0.06,0.12,0.1,0.18,0.15c0.05,0.06,0.12,0.1,0.18,0.15c0.05,0.06,0.12,0.1,0.18,0.15c0.05,0.06,0.12,0.1,0.18,0.15
			c0.05,0.06,0.12,0.1,0.18,0.15c0.05,0.06,0.12,0.1,0.18,0.15c0.05,0.06,0.12,0.1,0.18,0.15c0.05,0.06,0.12,0.1,0.18,0.15
			c0.05,0.06,0.12,0.1,0.18,0.15c0.05,0.06,0.12,0.1,0.18,0.15c0.05,0.06,0.12,0.1,0.18,0.15c0.05,0.06,0.13,0.1,0.18,0.15
			c0.05,0.06,0.12,0.1,0.18,0.15c0.05,0.06,0.12,0.1,0.18,0.15c0.05,0.06,0.12,0.1,0.18,0.15c0.05,0.06,0.12,0.1,0.18,0.15
			c0.05,0.06,0.12,0.1,0.18,0.15c0.05,0.06,0.12,0.1,0.18,0.15c0.05,0.06,0.13,0.1,0.18,0.15c0.05,0.06,0.12,0.1,0.18,0.15
			c0.05,0.06,0.12,0.1,0.18,0.15c0.05,0.06,0.12,0.1,0.18,0.15c0.05,0.06,0.12,0.1,0.18,0.15c0.05,0.06,0.13,0.1,0.18,0.15
			c0.05,0.06,0.12,0.1,0.18,0.15c0.05,0.06,0.12,0.1,0.18,0.15c0.05,0.06,0.12,0.1,0.18,0.15c0.05,0.06,0.13,0.1,0.18,0.15
			c0.05,0.06,0.13,0.1,0.18,0.15c0.05,0.06,0.13,0.1,0.18,0.15c0.05,0.06,0.12,0.1,0.18,0.15c0.05,0.06,0.12,0.1,0.18,0.15
			c0.05,0.06,0.12,0.1,0.18,0.15c0.05,0.06,0.12,0.1,0.18,0.15c0.05,0.06,0.12,0.1,0.18,0.15c0.05,0.06,0.13,0.1,0.18,0.15
			c0.05,0.06,0.12,0.1,0.18,0.15c0.05,0.06,0.12,0.1,0.18,0.15c0.05,0.06,0.12,0.1,0.18,0.15c0.05,0.06,0.12,0.1,0.18,0.15
			c0.05,0.06,0.12,0.1,0.18,0.15c0.05,0.06,0.13,0.1,0.18,0.15c0.05,0.06,0.12,0.1,0.18,0.15c0.05,0.06,0.12,0.1,0.18,0.15
			c0.05,0.06,0.12,0.1,0.18,0.15c0.05,0.06,0.12,0.1,0.18,0.15c0.05,0.06,0.12,0.1,0.18,0.15c0.05,0.06,0.13,0.1,0.18,0.15
			c0.05,0.06,0.12,0.1,0.18,0.15c0.05,0.06,0.12,0.1,0.18,0.15c0.05,0.06,0.12,0.1,0.18,0.15c0.05,0.06,0.12,0.1,0.18,0.15
			c0.05,0.06,0.12,0.1,0.18,0.15c0.05,0.06,0.13,0.1,0.18,0.15c0.05,0.06,0.12,0.1,0.18,0.15c0.05,0.06,0.12,0.1,0.18,0.15
			c0.05,0.06,0.12,0.1,0.18,0.15c0.05,0.06,0.12,0.1,0.18,0.15c0.05,0.06,0.12,0.1,0.18,0.15c0.05,0.06,0.13,0.1,0.18,0.15
			c0.05,0.06,0.12,0.1,0.18,0.15c0.05,0.06,0.12,0.1,0.18,0.15c0.05,0.06,0.12,0.1,0.18,0.15c0.05,0.06,0.12,0.1,0.18,0.15
			c0.05,0.06,0.12,0.1,0.18,0.15c0.05,0.06,0.12,0.1,0.18,0.15c0.05,0.06,0.13,0.1,0.18,0.15c0.05,0.06,0.12,0.1,0.18,0.15
			c0.05,0.06,0.12,0.1,0.18,0.15c0.05,0.06,0.12,0.1,0.18,0.15c0.05,0.06,0.13,0.1,0.18,0.15c0.05,0.06,0.12,0.1,0.18,0.15
			c0.05,0.06,0.13,0.1,0.18,0.15c0.05,0.06,0.12,0.1,0.18,0.15c0.48,0.56,1.25,0.82,2.08,0.67l11.31-1.99
			c1.44-0.25,2.61-1.63,2.61-3.07V101.1C304.79,100.33,304.45,99.72,303.92,99.34z M125.32,144.92l18.35,50.53l-11.59,2.04
			l-14.17-39.01l-0.84-2.32c0,4.74,0,39.14,0,43.98l-10.97,1.93c0-2.07,0-83.71,0-86.23l10.97-1.93v24.91l15.06-27.57l12.82-2.26
			L125.32,144.92z M173.58,109.33l10.97-1.93l-0.79,12.81l-10.97,1.93L173.58,109.33z M152.91,112.98l10.97-1.93l-0.79,12.81
			l-10.97,1.93L152.91,112.98z M185.86,171.01c0,9.38-7.63,18.35-17,20l-1.07,0.19c-9.38,1.65-17-4.63-17-14l0.12-24.23
			c0-9.38,7.63-18.35,17-20l1.07-0.19c9.38-1.65,17,4.63,17,14L185.86,171.01z M196.4,144.66
			C196.4,144.65,196.4,144.65,196.4,144.66c-0.07-0.06-0.13-0.11-0.19-0.16c-0.06-0.05-0.12-0.1-0.19-0.15
			c-0.06-0.05-0.12-0.1-0.18-0.15c-0.06-0.05-0.12-0.1-0.18-0.15c-0.06-0.05-0.12-0.1-0.19-0.15c-0.06-0.05-0.12-0.1-0.18-0.15
			c-0.06-0.05-0.12-0.1-0.18-0.15c-0.06-0.05-0.12-0.1-0.18-0.15c-0.06-0.05-0.12-0.1-0.18-0.15c-0.06-0.05-0.12-0.1-0.18-0.15
			c-0.06-0.05-0.12-0.1-0.19-0.15c-0.06-0.05-0.12-0.1-0.18-0.15c-0.06-0.05-0.12-0.1-0.19-0.15c-0.06-0.05-0.12-0.1-0.18-0.15
			c-0.06-0.05-0.12-0.1-0.18-0.15c-0.06-0.05-0.12-0.1-0.18-0.15c-0.06-0.05-0.12-0.1-0.18-0.15c-0.06-0.05-0.12-0.1-0.19-0.15
			c-0.06-0.05-0.12-0.1-0.18-0.15c-0.06-0.05-0.12-0.1-0.18-0.15c-0.06-0.05-0.12-0.1-0.18-0.15c0,0-0.01-0.01-0.01-0.01
			c0.19,0.01,0.37,0.05,0.57,0.01l3.32-0.59V144.66z M228.6,180.48c-4.56,0.8-26.91,4.74-29.59,5.22V99.46l10.97-1.93v75.26
			l20.81-3.67L228.6,180.48z M281.89,171.08l-11.31,1.99l-19.27-50.95v54.35l-10.97,1.93V92.17l11.31-1.99l19.27,50.95V86.78
			l10.97-1.93V171.08z"/>
		<path d="M168.98,143.75l-1.07,0.19c-3.33,0.59-6.03,3.77-6.03,7.1l-0.12,24.23c0,3.33,2.71,5.55,6.03,4.97l1.07-0.19
			c3.33-0.59,6.03-3.77,6.03-7.1l0.12-24.23C175.01,145.39,172.31,143.16,168.98,143.75z"/>
	</g>
	<g class="st1">
		<g>
			<path class="st2" d="M143.68,195.45l-18.35-50.53l19.63-35.93l-12.82,2.26l-15.06,27.57v-24.91l-10.97,1.93
				c0,2.52,0,84.16,0,86.23l10.97-1.93c0-4.84,0-39.24,0-43.98l0.84,2.32l14.17,39.01L143.68,195.45z"/>
		</g>
	</g>
	<g class="st1">
		<g>
			<polygon class="st2" points="163.09,123.85 152.12,125.79 152.91,112.98 163.88,111.04 			"/>
		</g>
	</g>
	<g class="st1">
		<g>
			<polygon class="st2" points="183.76,120.21 172.79,122.14 173.58,109.33 184.55,107.4 			"/>
		</g>
	</g>
	<g class="st1">
		<g>
			<path class="st2" d="M168.86,191.01l-1.07,0.19c-9.38,1.65-17-4.63-17-14l0.12-24.23c0-9.38,7.63-18.35,17-20l1.07-0.19
				c9.38-1.65,17,4.63,17,14l-0.12,24.23C185.86,180.39,178.23,189.36,168.86,191.01z M167.91,143.94c-3.33,0.59-6.03,3.77-6.03,7.1
				l-0.12,24.23c0,3.33,2.71,5.55,6.03,4.97l1.07-0.19c3.33-0.59,6.03-3.77,6.03-7.1l0.12-24.23c0-3.33-2.71-5.55-6.03-4.97
				L167.91,143.94z"/>
		</g>
	</g>
	<g class="st1">
		<g>
			<path class="st2" d="M209.98,172.79V97.53l-10.97,1.93v86.23c2.68-0.47,25.03-4.41,29.59-5.22l2.19-11.36L209.98,172.79z"/>
		</g>
	</g>
	<g class="st1">
		<g>
			<polygon class="st2" points="270.92,86.78 270.92,141.13 251.65,90.18 240.35,92.17 240.35,178.41 251.32,176.47 251.32,122.12 
				270.59,173.07 281.89,171.08 281.89,84.85 			"/>
		</g>
	</g>
	<g>
		<g>
			<g>
				<polygon class="st2" points="108.61,81.71 108.61,89.78 105.36,90.36 105.36,82.29 103.03,82.7 103.03,101.01 105.36,100.6 
					105.36,92.69 108.61,92.11 108.61,100.02 110.94,99.61 110.94,81.3 				"/>
			</g>
		</g>
		<g>
			<g>
				<path class="st2" d="M115.34,98.84l0.33-2.19l2.58-0.45l0.33,2.08l2.36-0.42l-2.79-17.82l-2.36,0.42l-2.79,18.8L115.34,98.84z
					 M116.95,87.97l0.93,5.95l-1.87,0.33L116.95,87.97z"/>
			</g>
		</g>
		<g>
			<g>
				<path class="st2" d="M125.28,94.76V78.77l-2.33,0.41V97.5c0.57-0.1,5.32-0.94,6.28-1.11l0.47-2.41L125.28,94.76z"/>
			</g>
		</g>
		<g>
			<g>
				<path class="st2" d="M133.53,93.3V77.32l-2.33,0.41v18.31c0.57-0.1,5.32-0.94,6.28-1.11l0.47-2.41L133.53,93.3z"/>
			</g>
		</g>
		<g>
			<g>
				<path class="st2" d="M143.25,93.92l-0.23,0.04c-1.99,0.35-3.61-0.98-3.61-2.97V79.89c0-1.99,1.62-3.9,3.61-4.25l0.23-0.04
					c1.99-0.35,3.61,0.98,3.61,2.97v11.09C146.87,91.66,145.25,93.56,143.25,93.92z M143.03,77.97c-0.71,0.12-1.28,0.8-1.28,1.51
					v11.09c0,0.71,0.57,1.18,1.28,1.05l0.23-0.04c0.71-0.12,1.28-0.8,1.28-1.51V78.99c0-0.71-0.57-1.18-1.28-1.05L143.03,77.97z"/>
			</g>
		</g>
		<g>
			<g>
				<path class="st2" d="M156.61,91.56l0.33-2.19l2.58-0.45l0.33,2.08l2.36-0.42l-2.79-17.82l-2.36,0.42l-2.79,18.8L156.61,91.56z
					 M158.23,80.69l0.93,5.95l-1.87,0.33L158.23,80.69z"/>
			</g>
		</g>
		<g>
			<g>
				<path class="st2" d="M171.7,85.29v-14.7L169.37,71v14.7c0,0.71-0.57,1.38-1.28,1.51l-0.69,0.12c-0.71,0.12-1.28-0.35-1.28-1.05
					v-14.7l-2.33,0.41v14.7c0,1.99,1.62,3.32,3.61,2.97l0.69-0.12C170.08,89.19,171.7,87.28,171.7,85.29z"/>
			</g>
		</g>
		<g>
			<g>
				<path class="st2" d="M182.58,83.37c0-1.98-0.73-3.76-2.06-4.99l-2.29-2.13c-0.79-0.74-1.23-1.8-1.23-2.98
					c0-0.71,0.57-1.38,1.28-1.51l0.69-0.12c0.71-0.12,1.28,0.35,1.28,1.05v1.35l2.33-0.41v-1.35c0-1.99-1.62-3.32-3.61-2.97
					l-0.69,0.12c-1.99,0.35-3.61,2.26-3.61,4.25c0,1.76,0.65,3.34,1.83,4.44l2.29,2.13c0.94,0.88,1.46,2.13,1.46,3.54
					c0,0.71-0.57,1.38-1.28,1.51l-0.69,0.12c-0.71,0.12-1.28-0.35-1.28-1.05v-1.69l-2.33,0.41v1.69c0,1.99,1.62,3.32,3.61,2.97
					l0.69-0.12C180.96,87.27,182.58,85.36,182.58,83.37z"/>
			</g>
		</g>
		<g>
			<path d="M186.19,72.98c-0.02-0.02-0.04-0.03-0.06-0.05c-0.02-0.02-0.04-0.03-0.06-0.05c-0.02-0.02-0.04-0.03-0.06-0.05
				c-0.02-0.02-0.04-0.03-0.06-0.05c-0.02-0.02-0.04-0.03-0.06-0.05c-0.02-0.02-0.04-0.03-0.06-0.05c-0.02-0.02-0.04-0.03-0.06-0.05
				c-0.02-0.02-0.04-0.03-0.06-0.05c-0.02-0.02-0.04-0.03-0.06-0.05c-0.02-0.02-0.04-0.03-0.06-0.05c-0.02-0.02-0.04-0.03-0.06-0.05
				c-0.02-0.02-0.04-0.03-0.06-0.05c-0.02-0.02-0.04-0.03-0.06-0.05c-0.02-0.02-0.04-0.03-0.06-0.05c-0.02-0.02-0.04-0.03-0.06-0.05
				c-0.02-0.02-0.04-0.03-0.06-0.05c-0.02-0.02-0.04-0.03-0.06-0.05c-0.02-0.02-0.04-0.03-0.06-0.05c-0.02-0.02-0.04-0.03-0.06-0.05
				c-0.02-0.02-0.04-0.03-0.06-0.05c-0.02-0.02-0.04-0.03-0.06-0.05c-0.02-0.02-0.04-0.03-0.06-0.05c-0.02-0.02-0.04-0.03-0.06-0.05
				c-0.02-0.02-0.04-0.03-0.06-0.05c-0.02-0.02-0.04-0.03-0.06-0.05c-0.02-0.02-0.04-0.03-0.06-0.05c-0.02-0.02-0.04-0.03-0.06-0.05
				c-0.02-0.02-0.04-0.03-0.06-0.05c-0.02-0.02-0.04-0.03-0.06-0.05c-0.02-0.02-0.04-0.03-0.06-0.05c-0.02-0.02-0.04-0.03-0.06-0.05
				c-0.02-0.02-0.04-0.03-0.06-0.05c-0.02-0.02-0.04-0.03-0.06-0.05c-0.02-0.02-0.04-0.03-0.06-0.05c-0.02-0.02-0.04-0.03-0.06-0.05
				c-0.02-0.02-0.04-0.03-0.06-0.05c-0.02-0.02-0.04-0.03-0.06-0.05c-0.02-0.02-0.04-0.03-0.06-0.05c-0.02-0.02-0.04-0.03-0.06-0.05
				c-0.02-0.02-0.04-0.03-0.06-0.05c-0.02-0.02-0.04-0.03-0.06-0.05c-0.02-0.02-0.04-0.03-0.06-0.05c-0.02-0.02-0.04-0.03-0.06-0.05
				c-0.02-0.02-0.04-0.03-0.06-0.05c-0.02-0.02-0.04-0.03-0.06-0.05c-0.02-0.02-0.04-0.03-0.06-0.05c-0.02-0.02-0.04-0.03-0.06-0.05
				c-0.02-0.02-0.04-0.03-0.06-0.05c-0.02-0.02-0.04-0.03-0.06-0.05c-0.02-0.02-0.04-0.03-0.06-0.05c-0.02-0.02-0.04-0.03-0.06-0.05
				c-0.02-0.02-0.04-0.03-0.06-0.05c-0.02-0.02-0.04-0.03-0.06-0.05c-0.02-0.02-0.04-0.03-0.06-0.05c-0.02-0.02-0.04-0.03-0.06-0.05
				c-0.02-0.02-0.04-0.03-0.06-0.05c-0.02-0.02-0.04-0.03-0.06-0.05c-0.02-0.02-0.04-0.03-0.06-0.05c-0.02-0.02-0.04-0.03-0.06-0.05
				c-0.02-0.02-0.04-0.03-0.06-0.05c-0.02-0.02-0.04-0.03-0.06-0.05c-0.02-0.02-0.04-0.03-0.06-0.05c-0.02-0.02-0.04-0.03-0.06-0.05
				c-0.02-0.02-0.04-0.03-0.06-0.05c-0.02-0.02-0.04-0.03-0.06-0.05c-0.02-0.02-0.04-0.03-0.06-0.05c-0.02-0.02-0.04-0.03-0.06-0.05
				c-0.02-0.02-0.04-0.03-0.06-0.05c-0.02-0.02-0.04-0.03-0.06-0.05c-0.02-0.02-0.04-0.03-0.06-0.05c-0.02-0.02-0.04-0.03-0.06-0.05
				c-0.02-0.02-0.04-0.03-0.06-0.05c-0.02-0.02-0.04-0.03-0.06-0.05c-0.02-0.02-0.04-0.03-0.06-0.05c-0.02-0.02-0.04-0.03-0.06-0.05
				c-0.76-0.64-1.81-0.93-2.97-0.73l-0.69,0.12c-1.71,0.3-3.19,1.6-3.83,3.2c0,0,0,0,0,0c-0.02-0.02-0.04-0.03-0.06-0.05
				c-0.02-0.02-0.04-0.03-0.06-0.05c-0.02-0.02-0.04-0.03-0.06-0.05c-0.02-0.02-0.04-0.03-0.06-0.05c-0.02-0.02-0.04-0.03-0.06-0.05
				c-0.02-0.02-0.04-0.03-0.06-0.05c-0.02-0.02-0.04-0.03-0.06-0.05c-0.02-0.02-0.04-0.03-0.06-0.05c-0.02-0.02-0.04-0.03-0.06-0.05
				c-0.02-0.02-0.04-0.03-0.06-0.05c-0.02-0.02-0.04-0.03-0.06-0.05c-0.02-0.02-0.04-0.03-0.06-0.05c-0.02-0.02-0.04-0.03-0.06-0.05
				c-0.02-0.02-0.04-0.03-0.06-0.05c-0.02-0.02-0.04-0.03-0.06-0.05c-0.02-0.02-0.04-0.03-0.06-0.05c-0.02-0.02-0.04-0.03-0.06-0.05
				c-0.02-0.02-0.04-0.03-0.06-0.05c-0.02-0.02-0.04-0.03-0.06-0.05c-0.02-0.02-0.04-0.03-0.06-0.05c-0.02-0.02-0.04-0.03-0.06-0.05
				c-0.02-0.02-0.04-0.03-0.06-0.05c-0.02-0.02-0.04-0.03-0.06-0.05c-0.02-0.02-0.04-0.03-0.06-0.05c-0.02-0.02-0.04-0.03-0.06-0.05
				c-0.02-0.02-0.04-0.03-0.06-0.05c-0.02-0.02-0.04-0.03-0.06-0.05c-0.02-0.02-0.04-0.03-0.06-0.05c-0.02-0.02-0.04-0.03-0.06-0.05
				c-0.02-0.02-0.04-0.03-0.06-0.05c-0.02-0.02-0.04-0.03-0.06-0.05c-0.02-0.02-0.04-0.03-0.06-0.05c-0.02-0.02-0.04-0.03-0.06-0.05
				c-0.02-0.02-0.04-0.03-0.06-0.05c-0.02-0.02-0.04-0.03-0.06-0.05c-0.02-0.02-0.04-0.03-0.06-0.05c-0.02-0.02-0.04-0.03-0.06-0.05
				c-0.02-0.02-0.04-0.03-0.06-0.05c-0.02-0.02-0.04-0.03-0.06-0.05c-0.02-0.02-0.04-0.03-0.06-0.05c-0.02-0.02-0.04-0.03-0.06-0.05
				c-0.1-0.1-0.25-0.15-0.41-0.12l-2.33,0.41c-0.31,0.05-0.55,0.35-0.55,0.65l0,1.92c-0.01,0-0.01-0.01-0.02-0.01
				c-0.02-0.02-0.04-0.03-0.06-0.05c-0.02-0.02-0.04-0.03-0.06-0.05c-0.02-0.02-0.04-0.03-0.06-0.05c-0.02-0.02-0.04-0.03-0.06-0.05
				c-0.02-0.02-0.04-0.03-0.06-0.05c-0.02-0.02-0.04-0.03-0.06-0.05c-0.02-0.02-0.04-0.03-0.06-0.05c-0.02-0.02-0.04-0.03-0.06-0.05
				c-0.02-0.02-0.04-0.03-0.06-0.05c-0.02-0.02-0.04-0.03-0.06-0.05c-0.02-0.02-0.04-0.03-0.06-0.05c-0.02-0.02-0.04-0.03-0.06-0.05
				c-0.02-0.02-0.04-0.03-0.06-0.05c-0.02-0.02-0.04-0.03-0.06-0.05c-0.02-0.02-0.04-0.03-0.06-0.05c-0.02-0.02-0.04-0.03-0.06-0.05
				c-0.02-0.02-0.04-0.03-0.06-0.05c-0.02-0.02-0.04-0.03-0.06-0.05c-0.02-0.02-0.04-0.03-0.06-0.05c-0.02-0.02-0.04-0.03-0.06-0.05
				c-0.02-0.02-0.04-0.03-0.06-0.05c-0.02-0.02-0.04-0.03-0.06-0.05c-0.02-0.02-0.04-0.03-0.06-0.05c-0.02-0.02-0.04-0.03-0.06-0.05
				c-0.02-0.02-0.04-0.03-0.06-0.05c-0.02-0.02-0.04-0.03-0.06-0.05c-0.02-0.02-0.04-0.03-0.06-0.05c-0.02-0.02-0.04-0.03-0.06-0.05
				c-0.02-0.02-0.04-0.03-0.06-0.05c-0.02-0.02-0.04-0.03-0.06-0.05c-0.02-0.02-0.04-0.03-0.06-0.05c-0.02-0.02-0.04-0.03-0.06-0.05
				c-0.02-0.02-0.04-0.03-0.06-0.05c-0.02-0.02-0.04-0.03-0.06-0.05c-0.02-0.02-0.04-0.03-0.06-0.05c-0.02-0.02-0.04-0.03-0.06-0.05
				c-0.02-0.02-0.04-0.03-0.06-0.05c-0.02-0.02-0.04-0.03-0.06-0.05c-0.02-0.02-0.04-0.03-0.06-0.05c-0.02-0.02-0.04-0.03-0.06-0.05
				c-0.1-0.1-0.25-0.15-0.41-0.12l-2.33,0.41c-0.31,0.05-0.55,0.35-0.55,0.65l0,3.05c-0.01-0.01-0.02-0.01-0.03-0.02
				c-0.02-0.02-0.04-0.03-0.06-0.05c-0.02-0.02-0.04-0.03-0.06-0.05c-0.02-0.02-0.04-0.03-0.06-0.05c-0.02-0.02-0.04-0.03-0.06-0.05
				c-0.02-0.02-0.04-0.03-0.06-0.05c-0.02-0.02-0.04-0.03-0.06-0.05c-0.02-0.02-0.04-0.03-0.06-0.05c-0.02-0.02-0.04-0.03-0.06-0.05
				c-0.02-0.02-0.04-0.03-0.06-0.05c-0.02-0.02-0.04-0.03-0.06-0.05c-0.02-0.02-0.04-0.03-0.06-0.05c-0.02-0.02-0.04-0.03-0.06-0.05
				c-0.02-0.02-0.04-0.03-0.06-0.05c-0.02-0.02-0.04-0.03-0.06-0.05c-0.02-0.02-0.04-0.03-0.06-0.05c-0.02-0.02-0.04-0.03-0.06-0.05
				c-0.02-0.02-0.04-0.03-0.06-0.05c-0.02-0.02-0.04-0.03-0.06-0.05c-0.02-0.02-0.04-0.03-0.06-0.05c-0.02-0.02-0.04-0.03-0.06-0.05
				c-0.02-0.02-0.04-0.03-0.06-0.05c-0.02-0.02-0.04-0.03-0.06-0.05c-0.02-0.02-0.04-0.03-0.06-0.05c-0.02-0.02-0.04-0.03-0.06-0.05
				c-0.02-0.02-0.04-0.03-0.06-0.05c-0.02-0.02-0.04-0.03-0.06-0.05c-0.02-0.02-0.04-0.03-0.06-0.05c-0.02-0.02-0.04-0.03-0.06-0.05
				c-0.02-0.02-0.04-0.03-0.06-0.05c-0.02-0.02-0.04-0.03-0.06-0.05c-0.02-0.02-0.04-0.03-0.06-0.05c-0.02-0.02-0.04-0.03-0.06-0.05
				c-0.02-0.02-0.04-0.03-0.06-0.05c-0.02-0.02-0.04-0.03-0.06-0.05c-0.02-0.02-0.04-0.03-0.06-0.05c-0.02-0.02-0.04-0.03-0.06-0.05
				c-0.02-0.02-0.04-0.03-0.06-0.05c-0.02-0.02-0.04-0.03-0.06-0.05c-0.02-0.02-0.04-0.03-0.06-0.05c-0.02-0.02-0.04-0.03-0.06-0.05
				c-0.02-0.02-0.04-0.03-0.06-0.05c-0.02-0.02-0.04-0.03-0.06-0.05c-0.02-0.02-0.04-0.03-0.06-0.05c-0.02-0.02-0.04-0.03-0.06-0.05
				c-0.02-0.02-0.04-0.03-0.06-0.05c-0.02-0.02-0.04-0.03-0.06-0.05c-0.02-0.02-0.04-0.03-0.06-0.05c-0.02-0.02-0.04-0.03-0.06-0.05
				c-0.02-0.02-0.04-0.03-0.06-0.05c-0.02-0.02-0.04-0.03-0.06-0.05c-0.02-0.02-0.04-0.03-0.06-0.05c-0.02-0.02-0.04-0.03-0.06-0.05
				c-0.02-0.02-0.04-0.03-0.06-0.05c-0.02-0.02-0.04-0.03-0.06-0.05c-0.02-0.02-0.04-0.03-0.06-0.05c-0.02-0.02-0.04-0.03-0.06-0.05
				c-0.02-0.02-0.04-0.03-0.06-0.05c-0.02-0.02-0.04-0.03-0.06-0.05c-0.02-0.02-0.04-0.03-0.06-0.05c-0.02-0.02-0.04-0.03-0.06-0.05
				c-0.1-0.09-0.24-0.14-0.4-0.11l-2.36,0.42c-0.27,0.05-0.51,0.29-0.55,0.57l-2.79,18.8c-0.02,0.16,0.02,0.32,0.13,0.42
				c0.01,0.01,0.03,0.01,0.04,0.03c0.01,0.01,0.01,0.02,0.01,0.02c0.01,0.01,0.03,0.01,0.04,0.03c0.01,0.01,0.01,0.02,0.01,0.02
				c0.01,0.01,0.03,0.01,0.04,0.03c0.01,0.01,0.01,0.02,0.01,0.02c0.01,0.01,0.03,0.01,0.04,0.03c0.01,0.01,0.01,0.02,0.01,0.02
				c0.01,0.01,0.03,0.02,0.04,0.03c0.01,0.01,0.01,0.02,0.01,0.02c0.01,0.01,0.03,0.01,0.04,0.03c0.01,0.01,0.01,0.02,0.01,0.02
				c0.01,0.01,0.03,0.01,0.04,0.03c0.01,0.01,0.01,0.02,0.01,0.02c0.01,0.01,0.03,0.01,0.04,0.03c0.01,0.01,0.01,0.02,0.01,0.02
				c0.01,0.01,0.03,0.02,0.04,0.03c0.01,0.01,0.01,0.02,0.01,0.02c0.01,0.01,0.03,0.01,0.04,0.03c0.01,0.01,0.01,0.02,0.01,0.02
				c0.01,0.01,0.03,0.01,0.04,0.03c0.01,0.01,0.01,0.02,0.01,0.02c0.01,0.01,0.03,0.01,0.04,0.03c0.01,0.01,0.01,0.02,0.01,0.02
				c0.01,0.01,0.03,0.01,0.04,0.03c0.01,0.01,0.01,0.02,0.01,0.02c0.01,0.01,0.03,0.01,0.04,0.03c0.01,0.01,0.01,0.02,0.01,0.02
				c0.01,0.01,0.03,0.01,0.04,0.03c0.01,0.01,0.01,0.02,0.01,0.02c0.01,0.01,0.03,0.02,0.04,0.03c0.01,0.01,0.01,0.02,0.01,0.02
				c0.01,0.01,0.03,0.01,0.04,0.03c0.01,0.01,0.01,0.02,0.01,0.02c0.01,0.01,0.03,0.01,0.04,0.03c0.01,0.01,0.01,0.02,0.01,0.02
				c0.01,0.01,0.03,0.01,0.04,0.03c0.01,0.01,0.01,0.02,0.01,0.02c0.01,0.01,0.03,0.01,0.04,0.03c0.01,0.01,0.01,0.02,0.01,0.02
				c0.01,0.01,0.03,0.02,0.04,0.03c0.01,0.01,0.01,0.02,0.01,0.02c0.01,0.01,0.03,0.01,0.04,0.03c0.01,0.01,0.01,0.02,0.01,0.02
				c0.01,0.01,0.03,0.01,0.04,0.03c0.01,0.01,0.01,0.02,0.01,0.02c0.01,0.01,0.03,0.01,0.04,0.03c0.01,0.01,0.01,0.02,0.01,0.02
				c0.01,0.01,0.03,0.01,0.04,0.03c0.01,0.01,0.01,0.02,0.01,0.02c0.01,0.01,0.03,0.01,0.04,0.03c0.01,0.01,0.01,0.02,0.01,0.02
				c0.01,0.01,0.03,0.01,0.04,0.03c0.01,0.01,0.01,0.02,0.01,0.02c0.01,0.01,0.03,0.01,0.04,0.03c0.01,0.01,0.01,0.02,0.01,0.02
				c0.01,0.01,0.03,0.01,0.04,0.03c0.01,0.01,0.01,0.02,0.01,0.02c0.01,0.01,0.03,0.01,0.04,0.03c0.01,0.01,0.01,0.02,0.01,0.02
				c0.01,0.01,0.03,0.01,0.04,0.03c0.01,0.01,0.01,0.02,0.01,0.02c0.01,0.01,0.03,0.02,0.04,0.03c0.01,0.01,0.01,0.02,0.01,0.02
				c0.01,0.01,0.03,0.01,0.04,0.03c0.01,0.01,0.01,0.02,0.01,0.02c0.01,0.01,0.03,0.01,0.04,0.03c0.01,0.01,0.01,0.02,0.01,0.02
				c0.01,0.01,0.03,0.01,0.04,0.03c0.01,0.01,0.01,0.02,0.01,0.02c0.01,0.01,0.03,0.01,0.04,0.03c0.01,0.01,0.01,0.02,0.01,0.02
				c0.01,0.01,0.03,0.01,0.04,0.03c0.01,0.01,0.01,0.02,0.01,0.02c0.01,0.01,0.03,0.01,0.04,0.03c0.01,0.01,0.01,0.02,0.01,0.02
				c0.01,0.01,0.03,0.01,0.04,0.03c0.01,0.01,0.01,0.02,0.01,0.02c0.01,0.01,0.03,0.01,0.04,0.03c0.01,0.01,0.01,0.02,0.01,0.02
				c0.01,0.01,0.03,0.01,0.04,0.03c0.01,0.01,0.01,0.02,0.01,0.02c0.01,0.01,0.03,0.01,0.04,0.03c0.01,0.01,0.01,0.02,0.01,0.02
				c0.01,0.01,0.03,0.01,0.04,0.03c0.01,0.01,0.01,0.02,0.01,0.02c0.01,0.01,0.03,0.01,0.04,0.03c0.01,0.01,0.01,0.02,0.01,0.02
				c0.01,0.01,0.03,0.01,0.04,0.03c0.01,0.01,0.01,0.02,0.01,0.02c0.01,0.01,0.03,0.01,0.04,0.03c0.01,0.01,0.01,0.02,0.01,0.02
				c0.01,0.01,0.03,0.01,0.04,0.03c0.01,0.01,0.01,0.02,0.01,0.02c0.01,0.01,0.03,0.01,0.04,0.03c0.01,0.01,0.01,0.02,0.01,0.02
				c0.01,0.01,0.03,0.01,0.04,0.03c0.01,0.01,0.01,0.02,0.01,0.02c0.01,0.01,0.03,0.01,0.04,0.03c0.01,0.01,0.01,0.02,0.01,0.02
				c0.01,0.01,0.03,0.01,0.04,0.03c0.01,0.01,0.01,0.02,0.01,0.02c0.01,0.01,0.03,0.01,0.04,0.03c0.01,0.01,0.01,0.02,0.01,0.02
				c0.01,0.01,0.03,0.01,0.04,0.03c0.01,0.01,0.01,0.02,0.01,0.02c0.01,0.01,0.03,0.01,0.04,0.03c0.01,0.01,0.01,0.02,0.01,0.02
				c0.01,0.01,0.03,0.01,0.04,0.03c0.01,0.01,0.01,0.02,0.01,0.02c0.01,0.01,0.03,0.01,0.04,0.03c0.01,0.01,0.01,0.02,0.01,0.02
				c0.01,0.01,0.03,0.01,0.04,0.03c0.01,0.01,0.01,0.02,0.01,0.02c0.01,0.01,0.03,0.01,0.04,0.03c0.01,0.01,0.01,0.02,0.01,0.02
				c0.01,0.01,0.03,0.01,0.04,0.03c0.01,0.01,0.01,0.02,0.01,0.02c0.01,0.01,0.03,0.01,0.04,0.03c0.01,0.01,0.01,0.02,0.01,0.02
				c0.01,0.01,0.03,0.01,0.04,0.03c0.01,0.01,0.01,0.02,0.01,0.02c0.01,0.01,0.03,0.01,0.04,0.03c0.01,0.01,0.01,0.02,0.01,0.02
				c0.01,0.01,0.03,0.01,0.04,0.03c0.01,0.01,0.01,0.02,0.01,0.02c0.01,0.01,0.03,0.01,0.04,0.03c0.01,0.01,0.01,0.02,0.01,0.02
				c0.01,0.01,0.03,0.01,0.04,0.03c0.01,0.01,0.01,0.02,0.01,0.02c0.01,0.01,0.03,0.01,0.04,0.03c0.01,0.01,0.01,0.02,0.01,0.02
				c0.01,0.01,0.03,0.01,0.04,0.03c0.01,0.01,0.01,0.02,0.01,0.02c0.01,0.01,0.03,0.01,0.04,0.03c0.01,0.01,0.01,0.02,0.01,0.02
				c0.01,0.01,0.03,0.01,0.04,0.03c0.01,0.01,0.01,0.02,0.01,0.02c0.01,0.01,0.03,0.01,0.04,0.03c0.01,0.01,0.01,0.02,0.01,0.02
				c0.01,0.01,0.03,0.01,0.04,0.03c0.01,0.01,0.01,0.02,0.01,0.02c0.01,0.01,0.03,0.01,0.04,0.03c0.01,0.01,0.01,0.02,0.01,0.02
				c0.01,0.01,0.03,0.01,0.04,0.03c0.01,0.01,0.01,0.02,0.01,0.02c0.01,0.01,0.03,0.01,0.04,0.03c0.01,0.01,0.01,0.02,0.01,0.02
				c0.01,0.01,0.03,0.01,0.04,0.03c0.01,0.01,0.01,0.02,0.01,0.02c0.01,0.01,0.03,0.01,0.04,0.03c0.01,0.01,0.01,0.02,0.01,0.02
				c0.11,0.1,0.26,0.15,0.42,0.12l2.36-0.42c0.27-0.05,0.51-0.29,0.55-0.57l0.25-1.71l0.07-0.01c0.01,0.01,0.02,0.02,0.03,0.02
				c0.02,0.02,0.04,0.03,0.06,0.05c0.02,0.02,0.04,0.03,0.06,0.05c0.02,0.02,0.04,0.03,0.06,0.05c0.02,0.02,0.04,0.03,0.06,0.05
				c0.02,0.02,0.04,0.03,0.06,0.05c0.02,0.02,0.04,0.03,0.06,0.05c0.02,0.02,0.04,0.03,0.06,0.05c0.02,0.02,0.04,0.03,0.06,0.05
				c0.02,0.02,0.04,0.03,0.06,0.05c0.02,0.02,0.04,0.03,0.06,0.05c0.02,0.02,0.04,0.03,0.06,0.05c0.02,0.02,0.04,0.03,0.06,0.05
				c0.02,0.02,0.04,0.03,0.06,0.05c0.02,0.02,0.04,0.03,0.06,0.05c0.02,0.02,0.04,0.03,0.06,0.05c0.02,0.02,0.04,0.03,0.06,0.05
				c0.02,0.02,0.04,0.03,0.06,0.05c0.02,0.02,0.04,0.03,0.06,0.05c0.02,0.02,0.04,0.03,0.06,0.05c0.02,0.02,0.04,0.03,0.06,0.05
				c0.02,0.02,0.04,0.03,0.06,0.05c0.02,0.02,0.04,0.03,0.06,0.05c0.02,0.02,0.04,0.03,0.06,0.05c0.02,0.02,0.04,0.03,0.06,0.05
				c0.02,0.02,0.04,0.03,0.06,0.05c0.02,0.02,0.04,0.03,0.06,0.05c0.02,0.02,0.04,0.03,0.06,0.05c0.02,0.02,0.04,0.03,0.06,0.05
				c0.02,0.02,0.04,0.03,0.06,0.05c0.02,0.02,0.04,0.03,0.06,0.05c0.02,0.02,0.04,0.03,0.06,0.05c0.02,0.02,0.04,0.03,0.06,0.05
				c0.02,0.02,0.04,0.03,0.06,0.05c0.02,0.02,0.04,0.03,0.06,0.05c0.1,0.09,0.24,0.14,0.4,0.11l2.36-0.42
				c0.16-0.03,0.31-0.13,0.42-0.27s0.15-0.31,0.13-0.47l-0.41-2.64c0,0,0,0,0,0c0.02,0.02,0.04,0.03,0.06,0.05
				c0.02,0.02,0.04,0.03,0.06,0.05c0.02,0.02,0.04,0.03,0.06,0.05c0.02,0.02,0.04,0.03,0.06,0.05c0.02,0.02,0.04,0.03,0.06,0.05
				c0.02,0.02,0.04,0.03,0.06,0.05c0.02,0.02,0.04,0.03,0.06,0.05c0.02,0.02,0.04,0.03,0.06,0.05c0.02,0.02,0.04,0.03,0.06,0.05
				c0.02,0.02,0.04,0.03,0.06,0.05c0.02,0.02,0.04,0.03,0.06,0.05c0.02,0.02,0.04,0.03,0.06,0.05c0.02,0.02,0.04,0.03,0.06,0.05
				c0.02,0.02,0.04,0.03,0.06,0.05c0.02,0.02,0.04,0.03,0.06,0.05c0.02,0.02,0.04,0.03,0.06,0.05c0.02,0.02,0.04,0.03,0.06,0.05
				c0.02,0.02,0.04,0.03,0.06,0.05c0.02,0.02,0.04,0.03,0.06,0.05c0.02,0.02,0.04,0.03,0.06,0.05c0.02,0.02,0.04,0.03,0.06,0.05
				c0.02,0.02,0.04,0.03,0.06,0.05c0.02,0.02,0.04,0.03,0.06,0.05c0.02,0.02,0.04,0.03,0.06,0.05c0.02,0.02,0.04,0.03,0.06,0.05
				c0.02,0.02,0.04,0.03,0.06,0.05c0.02,0.02,0.04,0.03,0.06,0.05c0.02,0.02,0.04,0.03,0.06,0.05c0.02,0.02,0.04,0.03,0.06,0.05
				c0.02,0.02,0.04,0.03,0.06,0.05c0.02,0.02,0.04,0.03,0.06,0.05c0.02,0.02,0.04,0.03,0.06,0.05c0.02,0.02,0.04,0.03,0.06,0.05
				c0.02,0.02,0.04,0.03,0.06,0.05c0.02,0.02,0.04,0.03,0.06,0.05c0.02,0.02,0.04,0.03,0.06,0.05c0.02,0.02,0.04,0.03,0.06,0.05
				c0.76,0.64,1.81,0.93,2.97,0.73l0.69-0.12c2.3-0.4,4.16-2.6,4.16-4.9v-0.13c0.01,0.01,0.03,0.02,0.04,0.03
				c0.02,0.02,0.04,0.03,0.06,0.05c0.02,0.02,0.04,0.03,0.06,0.05c0.02,0.02,0.04,0.03,0.06,0.05c0.02,0.02,0.04,0.03,0.06,0.05
				c0.02,0.02,0.04,0.03,0.06,0.05c0.02,0.02,0.04,0.03,0.06,0.05c0.02,0.02,0.04,0.03,0.06,0.05c0.02,0.02,0.04,0.03,0.06,0.05
				c0.02,0.02,0.04,0.03,0.06,0.05c0.02,0.02,0.04,0.03,0.06,0.05c0.02,0.02,0.04,0.03,0.06,0.05c0.02,0.02,0.04,0.03,0.06,0.05
				c0.02,0.02,0.04,0.03,0.06,0.05c0.02,0.02,0.04,0.03,0.06,0.05c0.02,0.02,0.04,0.03,0.06,0.05c0.02,0.02,0.04,0.03,0.06,0.05
				c0.02,0.02,0.04,0.03,0.06,0.05c0.02,0.02,0.04,0.03,0.06,0.05c0.02,0.02,0.04,0.03,0.06,0.05c0.02,0.02,0.04,0.03,0.06,0.05
				c0.02,0.02,0.04,0.03,0.06,0.05c0.02,0.02,0.04,0.03,0.06,0.05c0.02,0.02,0.04,0.03,0.06,0.05c0.02,0.02,0.04,0.03,0.06,0.05
				c0.02,0.02,0.04,0.03,0.06,0.05c0.02,0.02,0.04,0.03,0.06,0.05c0.02,0.02,0.04,0.03,0.06,0.05c0.02,0.02,0.04,0.03,0.06,0.05
				c0.02,0.02,0.04,0.03,0.06,0.05c0.02,0.02,0.04,0.03,0.06,0.05c0.02,0.02,0.04,0.03,0.06,0.05c0.02,0.02,0.04,0.03,0.06,0.05
				c0.02,0.02,0.04,0.03,0.06,0.05c0.02,0.02,0.04,0.03,0.06,0.05c0.02,0.02,0.04,0.03,0.06,0.05c0.02,0.02,0.04,0.03,0.06,0.05
				c0.02,0.02,0.04,0.03,0.06,0.05c0.02,0.02,0.04,0.03,0.06,0.05c0.02,0.02,0.04,0.03,0.06,0.05c0.02,0.02,0.04,0.03,0.06,0.05
				c0.02,0.02,0.04,0.03,0.06,0.05c0.02,0.02,0.04,0.03,0.06,0.05c0.02,0.02,0.04,0.03,0.06,0.05c0.02,0.02,0.04,0.03,0.06,0.05
				c0.02,0.02,0.04,0.03,0.06,0.05c0.02,0.02,0.04,0.03,0.06,0.05c0.02,0.02,0.04,0.03,0.06,0.05c0.02,0.02,0.04,0.03,0.06,0.05
				c0.02,0.02,0.04,0.03,0.06,0.05c0.02,0.02,0.04,0.03,0.06,0.05c0.02,0.02,0.04,0.03,0.06,0.05c0.02,0.02,0.04,0.03,0.06,0.05
				c0.02,0.02,0.04,0.03,0.06,0.05c0.76,0.64,1.81,0.93,2.97,0.73l0.69-0.12c2.3-0.4,4.16-2.6,4.16-4.9c0-2.12-0.78-4.02-2.2-5.34
				l-2.29-2.13c-0.7-0.65-1.09-1.59-1.09-2.63c0-0.16,0.06-0.31,0.15-0.44c0.01,0.01,0.03,0.01,0.04,0.02
				c0.02,0.02,0.04,0.03,0.06,0.05c0.02,0.02,0.04,0.03,0.06,0.05c0.02,0.02,0.04,0.03,0.06,0.05c0.02,0.02,0.04,0.03,0.06,0.05
				c0.02,0.02,0.04,0.03,0.06,0.05c0.02,0.02,0.04,0.03,0.06,0.05c0.02,0.02,0.04,0.03,0.06,0.05c0.02,0.02,0.04,0.03,0.06,0.05
				c0.02,0.02,0.04,0.03,0.06,0.05c0.02,0.02,0.04,0.03,0.06,0.05c0.02,0.02,0.04,0.03,0.06,0.05c0.02,0.02,0.04,0.03,0.06,0.05
				c0.02,0.02,0.04,0.03,0.06,0.05c0.02,0.02,0.04,0.03,0.06,0.05c0.02,0.02,0.04,0.03,0.06,0.05c0.02,0.02,0.04,0.03,0.06,0.05
				c0.02,0.02,0.04,0.03,0.06,0.05c0.02,0.02,0.04,0.03,0.06,0.05c0.02,0.02,0.04,0.03,0.06,0.05c0.02,0.02,0.04,0.03,0.06,0.05
				c0.02,0.02,0.04,0.03,0.06,0.05c0.02,0.02,0.04,0.03,0.06,0.05c0.02,0.02,0.04,0.03,0.06,0.05c0.02,0.02,0.04,0.03,0.06,0.05
				c0.02,0.02,0.04,0.03,0.06,0.05c0.02,0.02,0.04,0.03,0.06,0.05c0.02,0.02,0.04,0.03,0.06,0.05c0.02,0.02,0.04,0.03,0.06,0.05
				c0.02,0.02,0.04,0.03,0.06,0.05c0.02,0.02,0.04,0.03,0.06,0.05c0.02,0.02,0.04,0.03,0.06,0.05c0.02,0.02,0.04,0.03,0.06,0.05
				c0.02,0.02,0.04,0.03,0.06,0.05c0.02,0.02,0.04,0.03,0.06,0.05c0.02,0.02,0.04,0.03,0.06,0.05c0.02,0.02,0.04,0.03,0.06,0.05
				c0.02,0.02,0.04,0.03,0.06,0.05c0.1,0.1,0.25,0.15,0.41,0.12l2.33-0.41c0.31-0.05,0.55-0.35,0.55-0.65v-1.35
				C187.44,74.57,186.96,73.6,186.19,72.98z M162.2,90.58l-2.36,0.42l-0.33-2.08l-2.58,0.45l-0.33,2.19l-2.36,0.42l2.79-18.8
				l2.36-0.42L162.2,90.58z M171.7,85.29c0,1.99-1.62,3.9-3.61,4.25l-0.69,0.12c-1.99,0.35-3.61-0.98-3.61-2.97l0-14.7l2.33-0.41
				l0,14.7c0,0.71,0.57,1.18,1.28,1.05l0.69-0.12c0.71-0.12,1.28-0.8,1.28-1.51l0-14.7l2.33-0.41V85.29z M182.58,72.28v1.35
				l-2.33,0.41v-1.35c0-0.71-0.57-1.18-1.28-1.05l-0.69,0.12c-0.71,0.12-1.28,0.8-1.28,1.51c0,1.18,0.44,2.24,1.23,2.98l2.29,2.13
				c1.33,1.24,2.06,3.01,2.06,4.99c0,1.99-1.62,3.9-3.61,4.25l-0.69,0.12c-1.99,0.35-3.61-0.98-3.61-2.97v-1.69l2.33-0.41l0,1.69
				c0,0.71,0.57,1.18,1.28,1.05l0.69-0.12c0.71-0.12,1.28-0.8,1.28-1.51c0-1.4-0.52-2.66-1.46-3.54l-2.29-2.13
				c-1.18-1.1-1.83-2.67-1.83-4.44c0-1.99,1.62-3.9,3.61-4.25l0.69-0.12C180.96,68.96,182.58,70.29,182.58,72.28z M176.57,82.18
				l0-3.18l1.81,1.68c0.85,0.79,1.32,1.92,1.32,3.19c0,0.07-0.02,0.13-0.04,0.19c-0.01-0.01-0.03-0.01-0.04-0.02
				c-0.02-0.02-0.04-0.03-0.06-0.05c-0.02-0.02-0.04-0.03-0.06-0.05c-0.02-0.02-0.04-0.03-0.06-0.05c-0.02-0.02-0.04-0.03-0.06-0.05
				c-0.02-0.02-0.04-0.03-0.06-0.05c-0.02-0.02-0.04-0.03-0.06-0.05c-0.02-0.02-0.04-0.03-0.06-0.05c-0.02-0.02-0.04-0.03-0.06-0.05
				c-0.02-0.02-0.04-0.03-0.06-0.05c-0.02-0.02-0.04-0.03-0.06-0.05c-0.02-0.02-0.04-0.03-0.06-0.05c-0.02-0.02-0.04-0.03-0.06-0.05
				c-0.02-0.02-0.04-0.03-0.06-0.05c-0.02-0.02-0.04-0.03-0.06-0.05c-0.02-0.02-0.04-0.03-0.06-0.05c-0.02-0.02-0.04-0.03-0.06-0.05
				c-0.02-0.02-0.04-0.03-0.06-0.05c-0.02-0.02-0.04-0.03-0.06-0.05c-0.02-0.02-0.04-0.03-0.06-0.05c-0.02-0.02-0.04-0.03-0.06-0.05
				c-0.02-0.02-0.04-0.03-0.06-0.05c-0.02-0.02-0.04-0.03-0.06-0.05c-0.02-0.02-0.04-0.03-0.06-0.05c-0.02-0.02-0.04-0.03-0.06-0.05
				c-0.02-0.02-0.04-0.03-0.06-0.05c-0.02-0.02-0.04-0.03-0.06-0.05c-0.02-0.02-0.04-0.03-0.06-0.05c-0.02-0.02-0.04-0.03-0.06-0.05
				c-0.02-0.02-0.04-0.03-0.06-0.05c-0.02-0.02-0.04-0.03-0.06-0.05c-0.02-0.02-0.04-0.03-0.06-0.05c-0.02-0.02-0.04-0.03-0.06-0.05
				c-0.02-0.02-0.04-0.03-0.06-0.05c-0.02-0.02-0.04-0.03-0.06-0.05c-0.02-0.02-0.04-0.03-0.06-0.05c-0.02-0.02-0.04-0.03-0.06-0.05
				c-0.02-0.02-0.04-0.03-0.06-0.05c-0.02-0.02-0.04-0.03-0.06-0.05c-0.02-0.02-0.04-0.03-0.06-0.05c-0.1-0.1-0.25-0.15-0.41-0.12
				L176.57,82.18z"/>
			<polygon points="159.16,86.65 158.23,80.69 157.29,86.98 			"/>
		</g>
		<g>
			<path d="M143.25,77.93l-0.23,0.04c-0.71,0.12-1.28,0.8-1.28,1.51l0,11.09c0,0.71,0.57,1.18,1.28,1.05l0.23-0.04
				c0.71-0.12,1.28-0.8,1.28-1.51V78.99C144.54,78.28,143.96,77.81,143.25,77.93z"/>
			<polygon points="117.89,93.92 116.95,87.97 116.02,94.25 			"/>
			<path d="M150.48,79.28c-0.02-0.02-0.04-0.03-0.06-0.05c-0.02-0.02-0.04-0.03-0.06-0.05c-0.02-0.02-0.04-0.03-0.06-0.05
				c-0.02-0.02-0.04-0.03-0.06-0.05c-0.02-0.02-0.04-0.03-0.06-0.05c-0.02-0.02-0.04-0.03-0.06-0.05c-0.02-0.02-0.04-0.03-0.06-0.05
				c-0.02-0.02-0.04-0.03-0.06-0.05c-0.02-0.02-0.04-0.03-0.06-0.05c-0.02-0.02-0.04-0.03-0.06-0.05c-0.02-0.02-0.04-0.03-0.06-0.05
				c-0.02-0.02-0.04-0.03-0.06-0.05c-0.02-0.02-0.04-0.03-0.06-0.05c-0.02-0.02-0.04-0.03-0.06-0.05c-0.02-0.02-0.04-0.03-0.06-0.05
				c-0.02-0.02-0.04-0.03-0.06-0.05c-0.02-0.02-0.04-0.03-0.06-0.05c-0.02-0.02-0.04-0.03-0.06-0.05c-0.02-0.02-0.04-0.03-0.06-0.05
				c-0.02-0.02-0.04-0.03-0.06-0.05c-0.02-0.02-0.04-0.03-0.06-0.05c-0.02-0.02-0.04-0.03-0.06-0.05c-0.02-0.02-0.04-0.03-0.06-0.05
				c-0.02-0.02-0.04-0.03-0.06-0.05c-0.02-0.02-0.04-0.03-0.06-0.05c-0.02-0.02-0.04-0.03-0.06-0.05c-0.02-0.02-0.04-0.03-0.06-0.05
				c-0.02-0.02-0.04-0.03-0.06-0.05c-0.02-0.02-0.04-0.03-0.06-0.05c-0.02-0.02-0.04-0.03-0.06-0.05c-0.02-0.02-0.04-0.03-0.06-0.05
				c-0.02-0.02-0.04-0.03-0.06-0.05c-0.02-0.02-0.04-0.03-0.06-0.05c-0.02-0.02-0.04-0.03-0.06-0.05c-0.02-0.02-0.04-0.03-0.06-0.05
				c-0.02-0.02-0.04-0.03-0.06-0.05c-0.02-0.02-0.04-0.03-0.06-0.05c-0.02-0.02-0.04-0.03-0.06-0.05c-0.02-0.02-0.04-0.03-0.06-0.05
				c-0.02-0.02-0.04-0.03-0.06-0.05c-0.02-0.02-0.04-0.03-0.06-0.05c-0.02-0.02-0.04-0.03-0.06-0.05c-0.02-0.02-0.04-0.03-0.06-0.05
				c-0.02-0.02-0.04-0.03-0.06-0.05c-0.02-0.02-0.04-0.03-0.06-0.05c-0.02-0.02-0.04-0.03-0.06-0.05c-0.02-0.02-0.04-0.03-0.06-0.05
				c-0.02-0.02-0.04-0.03-0.06-0.05c-0.02-0.02-0.04-0.03-0.06-0.05c-0.02-0.02-0.04-0.03-0.06-0.05c-0.02-0.02-0.04-0.03-0.06-0.05
				c-0.02-0.02-0.04-0.03-0.06-0.05c-0.02-0.02-0.04-0.03-0.06-0.05c-0.02-0.02-0.04-0.03-0.06-0.05c-0.02-0.02-0.04-0.03-0.06-0.05
				c-0.02-0.02-0.04-0.03-0.06-0.05c-0.02-0.02-0.04-0.03-0.06-0.05c-0.02-0.02-0.04-0.03-0.06-0.05c-0.02-0.02-0.04-0.03-0.06-0.05
				c-0.02-0.02-0.04-0.03-0.06-0.05c-0.02-0.02-0.04-0.03-0.06-0.05c-0.02-0.02-0.04-0.03-0.06-0.05c-0.02-0.02-0.04-0.03-0.06-0.05
				c-0.02-0.02-0.04-0.03-0.06-0.05c-0.02-0.02-0.04-0.03-0.06-0.05c-0.02-0.02-0.04-0.03-0.06-0.05c-0.02-0.02-0.04-0.03-0.06-0.05
				c-0.02-0.02-0.04-0.03-0.06-0.05c-0.02-0.02-0.04-0.03-0.06-0.05c-0.02-0.02-0.04-0.03-0.06-0.05c-0.02-0.02-0.04-0.03-0.06-0.05
				c-0.02-0.02-0.04-0.03-0.06-0.05c-0.02-0.02-0.04-0.03-0.06-0.05c-0.02-0.02-0.04-0.03-0.06-0.05c-0.02-0.02-0.04-0.03-0.06-0.05
				c-0.76-0.64-1.81-0.93-2.97-0.73l-0.23,0.04c-2.3,0.4-4.16,2.6-4.16,4.9l0,11.09c0,0.67,0.16,1.28,0.45,1.79
				c0,0-0.01,0-0.01-0.01c0-0.01-0.01-0.01-0.01-0.02c-0.01-0.01-0.03-0.02-0.05-0.03c0-0.01-0.01-0.01-0.01-0.02
				c-0.01-0.01-0.03-0.02-0.05-0.03c0-0.01-0.01-0.01-0.01-0.02c-0.01-0.01-0.03-0.02-0.05-0.03c0-0.01-0.01-0.01-0.01-0.02
				c-0.01-0.01-0.03-0.02-0.05-0.03c0-0.01-0.01-0.01-0.01-0.02c-0.01-0.01-0.03-0.02-0.05-0.03c0-0.01-0.01-0.01-0.01-0.02
				c-0.01-0.01-0.03-0.02-0.05-0.03c0-0.01-0.01-0.01-0.01-0.02c-0.01-0.01-0.03-0.02-0.05-0.03c0-0.01-0.01-0.01-0.01-0.02
				c-0.01-0.01-0.03-0.02-0.05-0.03c0-0.01-0.01-0.01-0.01-0.02c-0.01-0.01-0.03-0.02-0.05-0.03c0-0.01-0.01-0.01-0.01-0.02
				c-0.01-0.01-0.03-0.02-0.05-0.03c0-0.01-0.01-0.01-0.01-0.02c-0.01-0.01-0.03-0.02-0.05-0.03c0-0.01-0.01-0.01-0.01-0.02
				c-0.01-0.01-0.03-0.02-0.05-0.03c0-0.01-0.01-0.01-0.01-0.02c-0.01-0.01-0.03-0.02-0.05-0.03c0-0.01-0.01-0.01-0.01-0.02
				c-0.01-0.01-0.03-0.02-0.05-0.03c0-0.01-0.01-0.01-0.01-0.02c-0.01-0.01-0.03-0.02-0.05-0.03c0-0.01-0.01-0.01-0.01-0.02
				c-0.01-0.01-0.03-0.01-0.04-0.02l0-11.35c0-0.17-0.08-0.3-0.2-0.38c-0.02-0.02-0.04-0.03-0.06-0.05
				c-0.02-0.02-0.04-0.03-0.06-0.05c-0.02-0.02-0.04-0.03-0.06-0.05c-0.02-0.02-0.04-0.03-0.06-0.05c-0.02-0.02-0.04-0.03-0.06-0.05
				c-0.02-0.02-0.04-0.03-0.06-0.05c-0.02-0.02-0.04-0.03-0.06-0.05c-0.02-0.02-0.04-0.03-0.06-0.05c-0.02-0.02-0.04-0.03-0.06-0.05
				c-0.02-0.02-0.04-0.03-0.06-0.05c-0.02-0.02-0.04-0.03-0.06-0.05c-0.02-0.02-0.04-0.03-0.06-0.05c-0.02-0.02-0.04-0.03-0.06-0.05
				c-0.02-0.02-0.04-0.03-0.06-0.05c-0.02-0.02-0.04-0.03-0.06-0.05c-0.02-0.02-0.04-0.03-0.06-0.05c-0.02-0.02-0.04-0.03-0.06-0.05
				c-0.02-0.02-0.04-0.03-0.06-0.05c-0.02-0.02-0.04-0.03-0.06-0.05c-0.02-0.02-0.04-0.03-0.06-0.05c-0.02-0.02-0.04-0.03-0.06-0.05
				c-0.02-0.02-0.04-0.03-0.06-0.05c-0.02-0.02-0.04-0.03-0.06-0.05c-0.02-0.02-0.04-0.03-0.06-0.05c-0.02-0.02-0.04-0.03-0.06-0.05
				c-0.02-0.02-0.04-0.03-0.06-0.05c-0.02-0.02-0.04-0.03-0.06-0.05c-0.02-0.02-0.04-0.03-0.06-0.05c-0.02-0.02-0.04-0.03-0.06-0.05
				c-0.02-0.02-0.04-0.03-0.06-0.05c-0.02-0.02-0.04-0.03-0.06-0.05c-0.02-0.02-0.04-0.03-0.06-0.05c-0.02-0.02-0.04-0.03-0.06-0.05
				c-0.02-0.02-0.04-0.03-0.06-0.05c-0.02-0.02-0.04-0.03-0.06-0.05c-0.02-0.02-0.04-0.03-0.06-0.05c-0.02-0.02-0.04-0.03-0.06-0.05
				c-0.02-0.02-0.04-0.03-0.06-0.05c-0.02-0.02-0.04-0.03-0.06-0.05c-0.02-0.02-0.04-0.03-0.06-0.05c-0.02-0.02-0.04-0.03-0.06-0.05
				c-0.02-0.02-0.04-0.03-0.06-0.05c-0.02-0.02-0.04-0.03-0.06-0.05c-0.02-0.02-0.04-0.03-0.06-0.05c-0.02-0.02-0.04-0.03-0.06-0.05
				c-0.02-0.02-0.04-0.03-0.06-0.05c-0.02-0.02-0.04-0.03-0.06-0.05c-0.02-0.02-0.04-0.03-0.06-0.05c-0.02-0.02-0.04-0.03-0.06-0.05
				c-0.02-0.02-0.04-0.03-0.06-0.05c-0.02-0.02-0.04-0.03-0.06-0.05c-0.02-0.02-0.04-0.03-0.06-0.05c-0.02-0.02-0.04-0.03-0.06-0.05
				c-0.02-0.02-0.04-0.03-0.06-0.05c-0.02-0.02-0.04-0.03-0.06-0.05c-0.02-0.02-0.04-0.03-0.06-0.05c-0.02-0.02-0.04-0.03-0.06-0.05
				c-0.02-0.02-0.04-0.03-0.06-0.05c-0.02-0.02-0.04-0.03-0.06-0.05c-0.02-0.02-0.04-0.03-0.06-0.05c-0.02-0.02-0.04-0.03-0.06-0.05
				c-0.02-0.02-0.04-0.03-0.06-0.05c-0.02-0.02-0.04-0.03-0.06-0.05c-0.02-0.02-0.04-0.03-0.06-0.05c-0.02-0.02-0.04-0.03-0.06-0.05
				c-0.02-0.02-0.04-0.03-0.06-0.05c-0.02-0.02-0.04-0.03-0.06-0.05c-0.02-0.02-0.04-0.03-0.06-0.05c-0.02-0.02-0.04-0.03-0.06-0.05
				c-0.02-0.02-0.04-0.03-0.06-0.05c-0.02-0.02-0.04-0.03-0.06-0.05c-0.02-0.02-0.04-0.03-0.06-0.05c-0.02-0.02-0.04-0.03-0.06-0.05
				c-0.02-0.02-0.04-0.03-0.06-0.05c-0.02-0.02-0.04-0.03-0.06-0.05c-0.1-0.1-0.25-0.15-0.41-0.12l-2.33,0.41
				c-0.31,0.05-0.55,0.35-0.55,0.65l0,16.16c0,0,0,0,0,0c0-0.01-0.01-0.01-0.01-0.02c-0.01-0.01-0.03-0.02-0.05-0.03
				c0-0.01-0.01-0.01-0.01-0.02c-0.01-0.01-0.03-0.02-0.05-0.03c0-0.01-0.01-0.01-0.01-0.02c-0.01-0.01-0.03-0.02-0.05-0.03
				c0-0.01-0.01-0.01-0.01-0.02c-0.01-0.01-0.03-0.02-0.05-0.03c0-0.01-0.01-0.01-0.01-0.02c-0.01-0.01-0.03-0.02-0.05-0.03
				c0-0.01-0.01-0.01-0.01-0.02c-0.01-0.01-0.03-0.02-0.05-0.03c0-0.01-0.01-0.01-0.01-0.02c-0.01-0.01-0.03-0.02-0.05-0.03
				c0-0.01-0.01-0.01-0.01-0.02c-0.01-0.01-0.03-0.02-0.05-0.03c0-0.01-0.01-0.01-0.01-0.02c-0.01-0.01-0.03-0.01-0.04-0.02l0-11.35
				c0-0.17-0.08-0.3-0.2-0.38c-0.02-0.02-0.04-0.03-0.06-0.05c-0.02-0.02-0.04-0.03-0.06-0.05c-0.02-0.02-0.04-0.03-0.06-0.05
				c-0.02-0.02-0.04-0.03-0.06-0.05c-0.02-0.02-0.04-0.03-0.06-0.05c-0.02-0.02-0.04-0.03-0.06-0.05c-0.02-0.02-0.04-0.03-0.06-0.05
				c-0.02-0.02-0.04-0.03-0.06-0.05c-0.02-0.02-0.04-0.03-0.06-0.05c-0.02-0.02-0.04-0.03-0.06-0.05c-0.02-0.02-0.04-0.03-0.06-0.05
				c-0.02-0.02-0.04-0.03-0.06-0.05c-0.02-0.02-0.04-0.03-0.06-0.05c-0.02-0.02-0.04-0.03-0.06-0.05c-0.02-0.02-0.04-0.03-0.06-0.05
				c-0.02-0.02-0.04-0.03-0.06-0.05c-0.02-0.02-0.04-0.03-0.06-0.05c-0.02-0.02-0.04-0.03-0.06-0.05c-0.02-0.02-0.04-0.03-0.06-0.05
				c-0.02-0.02-0.04-0.03-0.06-0.05c-0.02-0.02-0.04-0.03-0.06-0.05c-0.02-0.02-0.04-0.03-0.06-0.05c-0.02-0.02-0.04-0.03-0.06-0.05
				c-0.02-0.02-0.04-0.03-0.06-0.05c-0.02-0.02-0.04-0.03-0.06-0.05c-0.02-0.02-0.04-0.03-0.06-0.05c-0.02-0.02-0.04-0.03-0.06-0.05
				c-0.02-0.02-0.04-0.03-0.06-0.05c-0.02-0.02-0.04-0.03-0.06-0.05c-0.02-0.02-0.04-0.03-0.06-0.05c-0.02-0.02-0.04-0.03-0.06-0.05
				c-0.02-0.02-0.04-0.03-0.06-0.05c-0.02-0.02-0.04-0.03-0.06-0.05c-0.02-0.02-0.04-0.03-0.06-0.05c-0.02-0.02-0.04-0.03-0.06-0.05
				c-0.02-0.02-0.04-0.03-0.06-0.05c-0.02-0.02-0.04-0.03-0.06-0.05c-0.02-0.02-0.04-0.03-0.06-0.05c-0.02-0.02-0.04-0.03-0.06-0.05
				c-0.02-0.02-0.04-0.03-0.06-0.05c-0.02-0.02-0.04-0.03-0.06-0.05c-0.02-0.02-0.04-0.03-0.06-0.05c-0.02-0.02-0.04-0.03-0.06-0.05
				c-0.02-0.02-0.04-0.03-0.06-0.05c-0.02-0.02-0.04-0.03-0.06-0.05c-0.02-0.02-0.04-0.03-0.06-0.05c-0.02-0.02-0.04-0.03-0.06-0.05
				c-0.02-0.02-0.04-0.03-0.06-0.05c-0.02-0.02-0.04-0.03-0.06-0.05c-0.02-0.02-0.04-0.03-0.06-0.05c-0.02-0.02-0.04-0.03-0.06-0.05
				c-0.02-0.02-0.04-0.03-0.06-0.05c-0.02-0.02-0.04-0.03-0.06-0.05c-0.02-0.02-0.04-0.03-0.06-0.05c-0.02-0.02-0.04-0.03-0.06-0.05
				c-0.02-0.02-0.04-0.03-0.06-0.05c-0.02-0.02-0.04-0.03-0.06-0.05c-0.02-0.02-0.04-0.03-0.06-0.05c-0.02-0.02-0.04-0.03-0.06-0.05
				c-0.02-0.02-0.04-0.03-0.06-0.05c-0.02-0.02-0.04-0.03-0.06-0.05c-0.02-0.02-0.04-0.03-0.06-0.05c-0.02-0.02-0.04-0.03-0.06-0.05
				c-0.02-0.02-0.04-0.03-0.06-0.05c-0.02-0.02-0.04-0.03-0.06-0.05c-0.02-0.02-0.04-0.03-0.06-0.05c-0.02-0.02-0.04-0.03-0.06-0.05
				c-0.02-0.02-0.04-0.03-0.06-0.05c-0.02-0.02-0.04-0.03-0.06-0.05c-0.02-0.02-0.04-0.03-0.06-0.05c-0.02-0.02-0.04-0.03-0.06-0.05
				c-0.02-0.02-0.04-0.03-0.06-0.05c-0.02-0.02-0.04-0.03-0.06-0.05c-0.02-0.02-0.04-0.03-0.06-0.05c-0.02-0.02-0.04-0.03-0.06-0.05
				c-0.1-0.1-0.25-0.15-0.41-0.12l-2.33,0.41c-0.31,0.05-0.55,0.35-0.55,0.65l0,3.49c0,0-0.01,0-0.01,0
				c-0.02-0.02-0.04-0.03-0.06-0.05c-0.02-0.02-0.04-0.03-0.06-0.05c-0.02-0.02-0.04-0.03-0.06-0.05c-0.02-0.02-0.04-0.03-0.06-0.05
				c-0.02-0.02-0.04-0.03-0.06-0.05c-0.02-0.02-0.04-0.03-0.06-0.05c-0.02-0.02-0.04-0.03-0.06-0.05c-0.02-0.02-0.04-0.03-0.06-0.05
				c-0.02-0.02-0.04-0.03-0.06-0.05c-0.02-0.02-0.04-0.03-0.06-0.05c-0.02-0.02-0.04-0.03-0.06-0.05c-0.02-0.02-0.04-0.03-0.06-0.05
				c-0.02-0.02-0.04-0.03-0.06-0.05c-0.02-0.02-0.04-0.03-0.06-0.05c-0.02-0.02-0.04-0.03-0.06-0.05c-0.02-0.02-0.04-0.03-0.06-0.05
				c-0.02-0.02-0.04-0.03-0.06-0.05c-0.02-0.02-0.04-0.03-0.06-0.05c-0.02-0.02-0.04-0.03-0.06-0.05c-0.02-0.02-0.04-0.03-0.06-0.05
				c-0.02-0.02-0.04-0.03-0.06-0.05c-0.02-0.02-0.04-0.03-0.06-0.05c-0.02-0.02-0.04-0.03-0.06-0.05c-0.02-0.02-0.04-0.03-0.06-0.05
				c-0.02-0.02-0.04-0.03-0.06-0.05c-0.02-0.02-0.04-0.03-0.06-0.05c-0.02-0.02-0.04-0.03-0.06-0.05c-0.02-0.02-0.04-0.03-0.06-0.05
				c-0.02-0.02-0.04-0.03-0.06-0.05c-0.02-0.02-0.04-0.03-0.06-0.05c-0.02-0.02-0.04-0.03-0.06-0.05c-0.02-0.02-0.04-0.03-0.06-0.05
				c-0.02-0.02-0.04-0.03-0.06-0.05c-0.02-0.02-0.04-0.03-0.06-0.05c-0.02-0.02-0.04-0.03-0.06-0.05c-0.02-0.02-0.04-0.03-0.06-0.05
				c-0.02-0.02-0.04-0.03-0.06-0.05c-0.02-0.02-0.04-0.03-0.06-0.05c-0.02-0.02-0.04-0.03-0.06-0.05c-0.02-0.02-0.04-0.03-0.06-0.05
				c-0.02-0.02-0.04-0.03-0.06-0.05c-0.02-0.02-0.04-0.03-0.06-0.05c-0.02-0.02-0.04-0.03-0.06-0.05c-0.02-0.02-0.04-0.03-0.06-0.05
				c-0.02-0.02-0.04-0.03-0.06-0.05c-0.02-0.02-0.04-0.03-0.06-0.05c-0.02-0.02-0.04-0.03-0.06-0.05c-0.02-0.02-0.04-0.03-0.06-0.05
				c-0.02-0.02-0.04-0.03-0.06-0.05c-0.02-0.02-0.04-0.03-0.06-0.05c-0.02-0.02-0.04-0.03-0.06-0.05c-0.02-0.02-0.04-0.03-0.06-0.05
				c-0.02-0.02-0.04-0.03-0.06-0.05c-0.02-0.02-0.04-0.03-0.06-0.05c-0.02-0.02-0.04-0.03-0.06-0.05c-0.02-0.02-0.04-0.03-0.06-0.05
				c-0.02-0.02-0.04-0.03-0.06-0.05c-0.02-0.02-0.04-0.03-0.06-0.05c-0.02-0.02-0.04-0.03-0.06-0.05c-0.02-0.02-0.04-0.03-0.06-0.05
				c-0.02-0.02-0.04-0.03-0.06-0.05c-0.02-0.02-0.04-0.03-0.06-0.05c-0.02-0.02-0.04-0.03-0.06-0.05c-0.02-0.02-0.04-0.03-0.06-0.05
				c-0.02-0.02-0.04-0.03-0.06-0.05c-0.02-0.02-0.04-0.03-0.06-0.05c-0.02-0.02-0.04-0.03-0.06-0.05c-0.02-0.02-0.04-0.03-0.06-0.05
				c-0.1-0.09-0.24-0.14-0.4-0.11l-2.36,0.42c-0.27,0.05-0.51,0.29-0.55,0.57l-0.48,3.21c-0.02-0.02-0.03-0.03-0.05-0.04
				c-0.02-0.02-0.04-0.03-0.06-0.05c-0.02-0.02-0.04-0.03-0.06-0.05c-0.02-0.02-0.04-0.03-0.06-0.05c-0.02-0.02-0.04-0.03-0.06-0.05
				c-0.02-0.02-0.04-0.03-0.06-0.05c-0.02-0.02-0.04-0.03-0.06-0.05c-0.02-0.02-0.04-0.03-0.06-0.05c-0.02-0.02-0.04-0.03-0.06-0.05
				c-0.02-0.02-0.04-0.03-0.06-0.05c-0.02-0.02-0.04-0.03-0.06-0.05c-0.02-0.02-0.04-0.03-0.06-0.05c-0.02-0.02-0.04-0.03-0.06-0.05
				c-0.02-0.02-0.04-0.03-0.06-0.05c-0.02-0.02-0.04-0.03-0.06-0.05c-0.02-0.02-0.04-0.03-0.06-0.05c-0.02-0.02-0.04-0.03-0.06-0.05
				c-0.02-0.02-0.04-0.03-0.06-0.05c-0.02-0.02-0.04-0.03-0.06-0.05c-0.02-0.02-0.04-0.03-0.06-0.05c-0.02-0.02-0.04-0.03-0.06-0.05
				c-0.02-0.02-0.04-0.03-0.06-0.05c-0.02-0.02-0.04-0.03-0.06-0.05c-0.02-0.02-0.04-0.03-0.06-0.05c-0.02-0.02-0.04-0.03-0.06-0.05
				c-0.02-0.02-0.04-0.03-0.06-0.05c-0.02-0.02-0.04-0.03-0.06-0.05c-0.02-0.02-0.04-0.03-0.06-0.05c-0.02-0.02-0.04-0.03-0.06-0.05
				c-0.02-0.02-0.04-0.03-0.06-0.05c-0.02-0.02-0.04-0.03-0.06-0.05c-0.02-0.02-0.04-0.03-0.06-0.05c-0.02-0.02-0.04-0.03-0.06-0.05
				c-0.02-0.02-0.04-0.03-0.06-0.05c-0.02-0.02-0.04-0.03-0.06-0.05c-0.02-0.02-0.04-0.03-0.06-0.05c-0.02-0.02-0.04-0.03-0.06-0.05
				c-0.02-0.02-0.04-0.03-0.06-0.05c-0.02-0.02-0.04-0.03-0.06-0.05c-0.02-0.02-0.04-0.03-0.06-0.05c-0.02-0.02-0.04-0.03-0.06-0.05
				c-0.02-0.02-0.04-0.03-0.06-0.05c-0.02-0.02-0.04-0.03-0.06-0.05c-0.02-0.02-0.04-0.03-0.06-0.05c-0.02-0.02-0.04-0.03-0.06-0.05
				c-0.02-0.02-0.04-0.03-0.06-0.05c-0.02-0.02-0.04-0.03-0.06-0.05c-0.02-0.02-0.04-0.03-0.06-0.05c-0.02-0.02-0.04-0.03-0.06-0.05
				c-0.02-0.02-0.04-0.03-0.06-0.05c-0.02-0.02-0.04-0.03-0.06-0.05c-0.02-0.02-0.04-0.03-0.06-0.05c-0.02-0.02-0.04-0.03-0.06-0.05
				c-0.02-0.02-0.04-0.03-0.06-0.05c-0.02-0.02-0.04-0.03-0.06-0.05c-0.02-0.02-0.04-0.03-0.06-0.05c-0.02-0.02-0.04-0.03-0.06-0.05
				c-0.02-0.02-0.04-0.03-0.06-0.05c-0.02-0.02-0.04-0.03-0.06-0.05c-0.02-0.02-0.04-0.03-0.06-0.05c-0.1-0.1-0.25-0.15-0.41-0.12
				l-2.33,0.41c-0.31,0.05-0.55,0.35-0.55,0.65l0,1.92c-0.01,0-0.01-0.01-0.02-0.01c-0.02-0.02-0.04-0.03-0.06-0.05
				c-0.02-0.02-0.04-0.03-0.06-0.05c-0.02-0.02-0.04-0.03-0.06-0.05c-0.02-0.02-0.04-0.03-0.06-0.05c-0.02-0.02-0.04-0.03-0.06-0.05
				c-0.02-0.02-0.04-0.03-0.06-0.05c-0.02-0.02-0.04-0.03-0.06-0.05c-0.02-0.02-0.04-0.03-0.06-0.05c-0.02-0.02-0.04-0.03-0.06-0.05
				c-0.02-0.02-0.04-0.03-0.06-0.05c-0.02-0.02-0.04-0.03-0.06-0.05c-0.02-0.02-0.04-0.03-0.06-0.05c-0.02-0.02-0.04-0.03-0.06-0.05
				c-0.02-0.02-0.04-0.03-0.06-0.05c-0.02-0.02-0.04-0.03-0.06-0.05c-0.02-0.02-0.04-0.03-0.06-0.05c-0.02-0.02-0.04-0.03-0.06-0.05
				c-0.02-0.02-0.04-0.03-0.06-0.05c-0.02-0.02-0.04-0.03-0.06-0.05c-0.02-0.02-0.04-0.03-0.06-0.05c-0.02-0.02-0.04-0.03-0.06-0.05
				c-0.02-0.02-0.04-0.03-0.06-0.05c-0.02-0.02-0.04-0.03-0.06-0.05c-0.02-0.02-0.04-0.03-0.06-0.05c-0.02-0.02-0.04-0.03-0.06-0.05
				c-0.02-0.02-0.04-0.03-0.06-0.05c-0.02-0.02-0.04-0.03-0.06-0.05c-0.02-0.02-0.04-0.03-0.06-0.05c-0.02-0.02-0.04-0.03-0.06-0.05
				c-0.02-0.02-0.04-0.03-0.06-0.05c-0.02-0.02-0.04-0.03-0.06-0.05c-0.02-0.02-0.04-0.03-0.06-0.05c-0.02-0.02-0.04-0.03-0.06-0.05
				c-0.02-0.02-0.04-0.03-0.06-0.05c-0.02-0.02-0.04-0.03-0.06-0.05c-0.02-0.02-0.04-0.03-0.06-0.05c-0.02-0.02-0.04-0.03-0.06-0.05
				c-0.02-0.02-0.04-0.03-0.06-0.05c-0.02-0.02-0.04-0.03-0.06-0.05c-0.02-0.02-0.04-0.03-0.06-0.05c-0.1-0.1-0.25-0.15-0.41-0.12
				l-2.33,0.41c-0.31,0.05-0.55,0.35-0.55,0.65l0,18.31c0,0.17,0.08,0.3,0.2,0.38c0.02,0.02,0.04,0.03,0.06,0.05
				c0.02,0.02,0.04,0.03,0.06,0.05c0.02,0.02,0.04,0.03,0.06,0.05c0.02,0.02,0.04,0.03,0.06,0.05c0.02,0.02,0.04,0.03,0.06,0.05
				c0.02,0.02,0.04,0.03,0.06,0.05c0.02,0.02,0.04,0.03,0.06,0.05c0.02,0.02,0.04,0.03,0.06,0.05c0.02,0.02,0.04,0.03,0.06,0.05
				c0.02,0.02,0.04,0.03,0.06,0.05c0.02,0.02,0.04,0.03,0.06,0.05c0.02,0.02,0.04,0.03,0.06,0.05c0.02,0.02,0.04,0.03,0.06,0.05
				c0.02,0.02,0.04,0.03,0.06,0.05c0.02,0.02,0.04,0.03,0.06,0.05c0.02,0.02,0.04,0.03,0.06,0.05c0.02,0.02,0.04,0.03,0.06,0.05
				c0.02,0.02,0.04,0.03,0.06,0.05c0.02,0.02,0.04,0.03,0.06,0.05c0.02,0.02,0.04,0.03,0.06,0.05c0.02,0.02,0.04,0.03,0.06,0.05
				c0.02,0.02,0.04,0.03,0.06,0.05c0.02,0.02,0.04,0.03,0.06,0.05c0.02,0.02,0.04,0.03,0.06,0.05c0.02,0.02,0.04,0.03,0.06,0.05
				c0.02,0.02,0.04,0.03,0.06,0.05c0.02,0.02,0.04,0.03,0.06,0.05c0.02,0.02,0.04,0.03,0.06,0.05c0.02,0.02,0.04,0.03,0.06,0.05
				c0.02,0.02,0.04,0.03,0.06,0.05c0.02,0.02,0.04,0.03,0.06,0.05c0.02,0.02,0.04,0.03,0.06,0.05c0.02,0.02,0.04,0.03,0.06,0.05
				c0.02,0.02,0.04,0.03,0.06,0.05c0.02,0.02,0.04,0.03,0.06,0.05c0.02,0.02,0.04,0.03,0.06,0.05c0.02,0.02,0.04,0.03,0.06,0.05
				c0.02,0.02,0.04,0.03,0.06,0.05c0.02,0.02,0.04,0.03,0.06,0.05c0.02,0.02,0.04,0.03,0.06,0.05c0.02,0.02,0.04,0.03,0.06,0.05
				c0.02,0.02,0.04,0.03,0.06,0.05c0.02,0.02,0.04,0.03,0.06,0.05c0.02,0.02,0.04,0.03,0.06,0.05c0.02,0.02,0.04,0.03,0.06,0.05
				c0.02,0.02,0.04,0.03,0.06,0.05c0.02,0.02,0.04,0.03,0.06,0.05c0.02,0.02,0.04,0.03,0.06,0.05c0.02,0.02,0.04,0.03,0.06,0.05
				c0.02,0.02,0.04,0.03,0.06,0.05c0.02,0.02,0.04,0.03,0.06,0.05c0.02,0.02,0.04,0.03,0.06,0.05c0.02,0.02,0.04,0.03,0.06,0.05
				c0.02,0.02,0.04,0.03,0.06,0.05c0.02,0.02,0.04,0.03,0.06,0.05c0.02,0.02,0.04,0.03,0.06,0.05c0.02,0.02,0.04,0.03,0.06,0.05
				c0.02,0.02,0.04,0.03,0.06,0.05c0.02,0.02,0.04,0.03,0.06,0.05c0.02,0.02,0.04,0.03,0.06,0.05c0.02,0.02,0.04,0.03,0.06,0.05
				c0.02,0.02,0.04,0.03,0.06,0.05c0.02,0.02,0.04,0.03,0.06,0.05c0.02,0.02,0.04,0.03,0.06,0.05c0.02,0.02,0.04,0.03,0.06,0.05
				c0.02,0.02,0.04,0.03,0.06,0.05c0.02,0.02,0.04,0.03,0.06,0.05c0.02,0.02,0.04,0.03,0.06,0.05c0.02,0.02,0.04,0.03,0.06,0.05
				c0.02,0.02,0.04,0.03,0.06,0.05c0.02,0.02,0.04,0.03,0.06,0.05c0.02,0.02,0.04,0.03,0.06,0.05c0.02,0.02,0.04,0.03,0.06,0.05
				c0.02,0.02,0.04,0.03,0.06,0.05c0.02,0.02,0.04,0.03,0.06,0.05c0.1,0.1,0.25,0.15,0.41,0.12l2.33-0.41
				c0.31-0.05,0.55-0.35,0.55-0.65l0-1.92c0.01,0,0.01,0.01,0.02,0.01c0.02,0.02,0.04,0.03,0.06,0.05c0.02,0.02,0.04,0.03,0.06,0.05
				c0.02,0.02,0.04,0.03,0.06,0.05c0.02,0.02,0.04,0.03,0.06,0.05c0.02,0.02,0.04,0.03,0.06,0.05c0.02,0.02,0.04,0.03,0.06,0.05
				c0.02,0.02,0.04,0.03,0.06,0.05c0.02,0.02,0.04,0.03,0.06,0.05c0.02,0.02,0.04,0.03,0.06,0.05c0.02,0.02,0.04,0.03,0.06,0.05
				c0.02,0.02,0.04,0.03,0.06,0.05c0.02,0.02,0.04,0.03,0.06,0.05c0.02,0.02,0.04,0.03,0.06,0.05c0.02,0.02,0.04,0.03,0.06,0.05
				c0.02,0.02,0.04,0.03,0.06,0.05c0.02,0.02,0.04,0.03,0.06,0.05c0.02,0.02,0.04,0.03,0.06,0.05c0.02,0.02,0.04,0.03,0.06,0.05
				c0.02,0.02,0.04,0.03,0.06,0.05c0.02,0.02,0.04,0.03,0.06,0.05c0.02,0.02,0.04,0.03,0.06,0.05c0.02,0.02,0.04,0.03,0.06,0.05
				c0.02,0.02,0.04,0.03,0.06,0.05c0.02,0.02,0.04,0.03,0.06,0.05c0.02,0.02,0.04,0.03,0.06,0.05c0.02,0.02,0.04,0.03,0.06,0.05
				c0.02,0.02,0.04,0.03,0.06,0.05c0.02,0.02,0.04,0.03,0.06,0.05c0.02,0.02,0.04,0.03,0.06,0.05c0.02,0.02,0.04,0.03,0.06,0.05
				c0.02,0.02,0.04,0.03,0.06,0.05c0.02,0.02,0.04,0.03,0.06,0.05c0.02,0.02,0.04,0.03,0.06,0.05c0.02,0.02,0.04,0.03,0.06,0.05
				c0.02,0.02,0.04,0.03,0.06,0.05c0.02,0.02,0.04,0.03,0.06,0.05c0.02,0.02,0.04,0.03,0.06,0.05c0.02,0.02,0.04,0.03,0.06,0.05
				c0.02,0.02,0.04,0.03,0.06,0.05c0.02,0.02,0.04,0.03,0.06,0.05c0.1,0.1,0.25,0.15,0.41,0.12l2.33-0.41
				c0.31-0.05,0.55-0.35,0.55-0.65l0-0.71c0.01,0.01,0.03,0.01,0.04,0.02c0.01,0.01,0.01,0.02,0.01,0.02
				c0.01,0.01,0.03,0.01,0.04,0.03c0.01,0.01,0.01,0.02,0.01,0.02c0.01,0.01,0.03,0.01,0.04,0.03c0.01,0.01,0.01,0.02,0.01,0.02
				c0.01,0.01,0.03,0.01,0.04,0.03c0.01,0.01,0.01,0.02,0.01,0.02c0.01,0.01,0.03,0.01,0.04,0.03c0.01,0.01,0.01,0.02,0.01,0.02
				c0.01,0.01,0.03,0.01,0.04,0.03c0.01,0.01,0.01,0.02,0.01,0.02c0.01,0.01,0.03,0.01,0.04,0.03c0.01,0.01,0.01,0.02,0.01,0.02
				c0.01,0.01,0.03,0.01,0.04,0.03c0.01,0.01,0.01,0.02,0.01,0.02c0.01,0.01,0.03,0.01,0.04,0.03c0.01,0.01,0.01,0.02,0.01,0.02
				c0.01,0.01,0.03,0.01,0.04,0.03c0.01,0.01,0.01,0.02,0.01,0.02c0.01,0.01,0.03,0.01,0.04,0.03c0.01,0.01,0.01,0.02,0.01,0.02
				c0.01,0.01,0.03,0.01,0.04,0.03c0.01,0.01,0.01,0.02,0.01,0.02c0.01,0.01,0.03,0.01,0.04,0.03c0.01,0.01,0.01,0.02,0.01,0.02
				c0.01,0.01,0.03,0.01,0.04,0.03c0.01,0.01,0.01,0.02,0.01,0.02c0.01,0.01,0.03,0.01,0.04,0.03c0.01,0.01,0.01,0.02,0.01,0.02
				c0.01,0.01,0.03,0.01,0.04,0.03c0.01,0.01,0.01,0.02,0.01,0.02c0.01,0.01,0.03,0.01,0.04,0.03c0.01,0.01,0.01,0.02,0.01,0.02
				c0.01,0.01,0.03,0.01,0.04,0.03c0.01,0.01,0.01,0.02,0.01,0.02c0.01,0.01,0.03,0.01,0.04,0.03c0.01,0.01,0.01,0.02,0.01,0.02
				c0.11,0.1,0.26,0.15,0.42,0.12l2.36-0.42c0.27-0.05,0.51-0.29,0.55-0.57l0.25-1.71l0.07-0.01c0.01,0.01,0.02,0.02,0.03,0.02
				c0.02,0.02,0.04,0.03,0.06,0.05c0.02,0.02,0.04,0.03,0.06,0.05c0.02,0.02,0.04,0.03,0.06,0.05c0.02,0.02,0.04,0.03,0.06,0.05
				c0.02,0.02,0.04,0.03,0.06,0.05c0.02,0.02,0.04,0.03,0.06,0.05c0.02,0.02,0.04,0.03,0.06,0.05c0.02,0.02,0.04,0.03,0.06,0.05
				c0.02,0.02,0.04,0.03,0.06,0.05c0.02,0.02,0.04,0.03,0.06,0.05c0.02,0.02,0.04,0.03,0.06,0.05c0.02,0.02,0.04,0.03,0.06,0.05
				c0.02,0.02,0.04,0.03,0.06,0.05c0.02,0.02,0.04,0.03,0.06,0.05c0.02,0.02,0.04,0.03,0.06,0.05c0.02,0.02,0.04,0.03,0.06,0.05
				c0.02,0.02,0.04,0.03,0.06,0.05c0.02,0.02,0.04,0.03,0.06,0.05c0.02,0.02,0.04,0.03,0.06,0.05c0.02,0.02,0.04,0.03,0.06,0.05
				c0.02,0.02,0.04,0.03,0.06,0.05c0.02,0.02,0.04,0.03,0.06,0.05c0.02,0.02,0.04,0.03,0.06,0.05c0.02,0.02,0.04,0.03,0.06,0.05
				c0.02,0.02,0.04,0.03,0.06,0.05c0.02,0.02,0.04,0.03,0.06,0.05c0.02,0.02,0.04,0.03,0.06,0.05c0.02,0.02,0.04,0.03,0.06,0.05
				c0.02,0.02,0.04,0.03,0.06,0.05c0.02,0.02,0.04,0.03,0.06,0.05c0.02,0.02,0.04,0.03,0.06,0.05c0.02,0.02,0.04,0.03,0.06,0.05
				c0.02,0.02,0.04,0.03,0.06,0.05c0.02,0.02,0.04,0.03,0.06,0.05c0.1,0.09,0.24,0.14,0.4,0.11l2.36-0.42
				c0.16-0.03,0.32-0.13,0.42-0.27c0.11-0.14,0.15-0.31,0.13-0.47l-0.11-0.71c0.01,0.01,0.03,0.02,0.04,0.03
				c0.02,0.02,0.04,0.03,0.06,0.05c0.02,0.02,0.04,0.03,0.06,0.05c0.02,0.02,0.04,0.03,0.06,0.05c0.02,0.02,0.04,0.03,0.06,0.05
				c0.02,0.02,0.04,0.03,0.06,0.05c0.02,0.02,0.04,0.03,0.06,0.05c0.02,0.02,0.04,0.03,0.06,0.05c0.02,0.02,0.04,0.03,0.06,0.05
				c0.02,0.02,0.04,0.03,0.06,0.05c0.02,0.02,0.04,0.03,0.06,0.05c0.02,0.02,0.04,0.03,0.06,0.05c0.02,0.02,0.04,0.03,0.06,0.05
				c0.02,0.02,0.04,0.03,0.06,0.05c0.02,0.02,0.04,0.03,0.06,0.05c0.02,0.02,0.04,0.03,0.06,0.05c0.02,0.02,0.04,0.03,0.06,0.05
				c0.02,0.02,0.04,0.03,0.06,0.05c0.02,0.02,0.04,0.03,0.06,0.05c0.02,0.02,0.04,0.03,0.06,0.05c0.02,0.02,0.04,0.03,0.06,0.05
				c0.1,0.1,0.25,0.15,0.41,0.12l6.28-1.11c0.26-0.05,0.49-0.27,0.54-0.54l0.13-0.65c0.01,0.01,0.02,0.01,0.04,0.02
				c0.02,0.02,0.04,0.03,0.06,0.05c0.02,0.02,0.04,0.03,0.06,0.05c0.02,0.02,0.04,0.03,0.06,0.05c0.02,0.02,0.04,0.03,0.06,0.05
				c0.02,0.02,0.04,0.03,0.06,0.05c0.02,0.02,0.04,0.03,0.06,0.05c0.02,0.02,0.04,0.03,0.06,0.05c0.02,0.02,0.04,0.03,0.06,0.05
				c0.02,0.02,0.04,0.03,0.06,0.05c0.02,0.02,0.04,0.03,0.06,0.05c0.02,0.02,0.04,0.03,0.06,0.05c0.02,0.02,0.04,0.03,0.06,0.05
				c0.02,0.02,0.04,0.03,0.06,0.05c0.02,0.02,0.04,0.03,0.06,0.05c0.02,0.02,0.04,0.03,0.06,0.05c0.1,0.1,0.25,0.15,0.41,0.12
				l6.28-1.11c0.26-0.05,0.49-0.27,0.54-0.54l0.47-2.41c0-0.01,0-0.02,0-0.04c0.01,0.01,0.02,0.02,0.03,0.02
				c0.02,0.02,0.04,0.03,0.06,0.05c0.02,0.02,0.04,0.03,0.06,0.05c0.02,0.02,0.04,0.03,0.06,0.05c0.02,0.02,0.04,0.03,0.06,0.05
				c0.02,0.02,0.04,0.03,0.06,0.05c0.02,0.02,0.04,0.03,0.06,0.05c0.02,0.02,0.04,0.03,0.06,0.05c0.02,0.02,0.04,0.03,0.06,0.05
				c0.02,0.02,0.04,0.03,0.06,0.05c0.02,0.02,0.04,0.03,0.06,0.05c0.02,0.02,0.04,0.03,0.06,0.05c0.02,0.02,0.04,0.03,0.06,0.05
				c0.02,0.02,0.04,0.03,0.06,0.05c0.02,0.02,0.04,0.03,0.06,0.05c0.02,0.02,0.04,0.03,0.06,0.05c0.02,0.02,0.04,0.03,0.06,0.05
				c0.02,0.02,0.04,0.03,0.06,0.05c0.02,0.02,0.04,0.03,0.06,0.05c0.02,0.02,0.04,0.03,0.06,0.05c0.02,0.02,0.04,0.03,0.06,0.05
				c0.02,0.02,0.04,0.03,0.06,0.05c0.02,0.02,0.04,0.03,0.06,0.05c0.02,0.02,0.04,0.03,0.06,0.05c0.02,0.02,0.04,0.03,0.06,0.05
				c0.02,0.02,0.04,0.03,0.06,0.05c0.02,0.02,0.04,0.03,0.06,0.05c0.02,0.02,0.04,0.03,0.06,0.05c0.76,0.64,1.81,0.93,2.97,0.73
				l0.23-0.04c2.3-0.4,4.16-2.6,4.16-4.9V82.03C151.73,80.87,151.25,79.9,150.48,79.28z M110.94,99.61l-2.33,0.41l0-7.91l-3.25,0.57
				l0,7.91l-2.33,0.41l0-18.31l2.33-0.41l0,8.07l3.25-0.57l0-8.07l2.33-0.41L110.94,99.61z M120.92,97.85l-2.36,0.42l-0.33-2.08
				l-2.58,0.45l-0.33,2.19l-2.36,0.42l2.79-18.8l2.36-0.42L120.92,97.85z M129.23,96.39c-0.97,0.17-5.71,1.01-6.28,1.11l0-18.31
				l2.33-0.41l0,15.98l4.42-0.78L129.23,96.39z M137.49,94.93c-0.97,0.17-5.71,1.01-6.28,1.11V77.73l2.33-0.41l0,15.98l4.42-0.78
				L137.49,94.93z M146.87,78.58v11.09c0,1.99-1.62,3.9-3.61,4.25l-0.23,0.04c-1.99,0.35-3.61-0.98-3.61-2.97l0-11.09
				c0-1.99,1.62-3.9,3.61-4.25l0.23-0.04C145.25,75.25,146.87,76.59,146.87,78.58z"/>
		</g>
	</g>
</g>
</svg>
